# This file uses meters as units for non-parametric coordinates.

mtllib BuildingB_Window_LOD1.mtl
g default
v 1.809830 24.203705 -4.890221
v -1.509758 24.203705 -4.890221
v -1.509758 24.095901 -85.733688
v 1.809830 24.095901 -85.733688
v 1.809830 -24.102081 -4.791260
v -1.509754 -24.102081 -4.791260
v -1.509754 -24.197556 -85.733688
v 1.809832 -24.197556 -85.733688
v -3.556662 24.149811 -85.733688
v 3.556662 24.149811 -85.733688
v -3.556662 24.149811 -90.623917
v 3.556662 24.149811 -90.623917
v -3.556662 -24.149803 -90.623917
v 3.556662 -24.149803 -90.623917
v -3.556662 -24.149803 -85.733688
v 3.556662 -24.149803 -85.733688
v -3.556662 -29.040031 0.000000
v 3.556658 -29.040031 0.000000
v -3.556662 -24.149811 0.000000
v 3.556658 -24.149811 0.000000
v -3.556662 -24.149811 -90.623917
v 3.556658 -24.149811 -90.623917
v -3.556662 -29.040031 -90.623917
v 3.556658 -29.040031 -90.623917
v -3.556662 24.149811 0.000000
v 3.556658 24.149811 0.000000
v -3.556662 29.040039 0.000000
v 3.556658 29.040039 0.000000
v -3.556662 29.040039 -90.623917
v 3.556658 29.040039 -90.623917
v -3.556662 24.149811 -90.623917
v 3.556658 24.149811 -90.623917
v -3.556662 24.149811 0.000000
v 3.556662 24.149811 0.000000
v -3.556662 24.149811 -4.890221
v 3.556662 24.149811 -4.890221
v -3.556662 -24.149803 -4.890221
v 3.556662 -24.149803 -4.890221
v -3.556662 -24.149803 0.000000
v 3.556662 -24.149803 0.000000
vt 0.826604 0.685683
vt 0.312005 0.686288
vt 0.311446 0.378808
vt 0.826638 0.378294
vt 0.514783 0.999818
vt 0.000184 0.999213
vt 0.000150 0.691824
vt 0.515343 0.692338
vt 0.544464 0.032306
vt 0.499187 0.032306
vt 0.499187 0.001179
vt 0.544464 0.001179
vt 0.544464 0.339740
vt 0.499187 0.339741
vt 0.499187 0.370868
vt 0.544465 0.370867
vt 0.575591 0.339740
vt 0.575591 0.032306
vt 0.620869 0.032306
vt 0.620869 0.339740
vt 0.468060 0.032306
vt 0.468060 0.339740
vt 0.185959 0.609844
vt 0.231236 0.609845
vt 0.231235 0.640972
vt 0.185958 0.640971
vt 0.262363 0.609845
vt 0.262363 0.033010
vt 0.307641 0.033010
vt 0.307640 0.609845
vt 0.231234 0.001882
vt 0.231236 0.033010
vt 0.185959 0.033011
vt 0.185957 0.001885
vt 0.154832 0.609845
vt 0.154832 0.033010
vt 0.076555 0.032381
vt 0.031277 0.032381
vt 0.031278 0.001253
vt 0.076556 0.001254
vt 0.076555 0.609216
vt 0.031277 0.609216
vt 0.076554 0.640344
vt 0.031276 0.640342
vt 0.107682 0.609216
vt 0.107682 0.032381
vt 0.152959 0.032381
vt 0.152959 0.609216
vt 0.000150 0.032381
vt 0.000150 0.609216
vt 0.342573 0.338743
vt 0.387850 0.338744
vt 0.387849 0.369871
vt 0.342572 0.369870
vt 0.418977 0.338743
vt 0.418977 0.031309
vt 0.464255 0.031309
vt 0.464255 0.338743
vt 0.387850 0.000182
vt 0.387850 0.031309
vt 0.342573 0.031309
vt 0.342573 0.000182
vt 0.311446 0.338743
vt 0.311446 0.031309
vn 1.000000 0.000000 0.000000
vn 1.000000 0.000000 0.000000
vn 1.000000 0.000000 0.000000
vn 1.000000 0.000000 0.000000
vn -1.000000 -0.000000 0.000000
vn -1.000000 -0.000000 0.000000
vn -1.000000 -0.000000 0.000000
vn -1.000000 -0.000000 0.000000
vn 0.000000 1.000000 0.000000
vn 0.000000 1.000000 0.000000
vn 0.000000 1.000000 0.000000
vn 0.000000 1.000000 0.000000
vn 0.000000 0.000000 -1.000000
vn 0.000000 0.000000 -1.000000
vn 0.000000 0.000000 -1.000000
vn 0.000000 0.000000 -1.000000
vn 0.000000 -1.000000 0.000000
vn 0.000000 -1.000000 0.000000
vn 0.000000 -1.000000 0.000000
vn 0.000000 -1.000000 0.000000
vn 0.000000 0.000000 1.000000
vn 0.000000 0.000000 1.000000
vn 0.000000 0.000000 1.000000
vn 0.000000 0.000000 1.000000
vn 1.000000 0.000000 0.000000
vn 1.000000 0.000000 0.000000
vn 1.000000 0.000000 0.000000
vn 1.000000 0.000000 0.000000
vn -1.000000 0.000000 0.000000
vn -1.000000 0.000000 0.000000
vn -1.000000 0.000000 0.000000
vn -1.000000 0.000000 0.000000
vn 0.000000 0.000000 1.000000
vn 0.000000 0.000000 1.000000
vn 0.000000 0.000000 1.000000
vn 0.000000 0.000000 1.000000
vn 0.000000 1.000000 0.000000
vn 0.000000 1.000000 0.000000
vn 0.000000 1.000000 0.000000
vn 0.000000 1.000000 0.000000
vn 0.000000 0.000000 -1.000000
vn 0.000000 0.000000 -1.000000
vn 0.000000 0.000000 -1.000000
vn 0.000000 0.000000 -1.000000
vn 0.000000 -1.000000 0.000000
vn 0.000000 -1.000000 0.000000
vn 0.000000 -1.000000 0.000000
vn 0.000000 -1.000000 0.000000
vn 1.000000 0.000000 0.000000
vn 1.000000 0.000000 0.000000
vn 1.000000 0.000000 0.000000
vn 1.000000 0.000000 0.000000
vn -1.000000 0.000000 0.000000
vn -1.000000 0.000000 0.000000
vn -1.000000 0.000000 0.000000
vn -1.000000 0.000000 0.000000
vn 0.000000 0.000000 1.000000
vn 0.000000 0.000000 1.000000
vn 0.000000 0.000000 1.000000
vn 0.000000 0.000000 1.000000
vn 0.000000 1.000000 0.000000
vn 0.000000 1.000000 0.000000
vn 0.000000 1.000000 0.000000
vn 0.000000 1.000000 0.000000
vn 0.000000 0.000000 -1.000000
vn 0.000000 0.000000 -1.000000
vn 0.000000 0.000000 -1.000000
vn 0.000000 0.000000 -1.000000
vn 0.000000 -1.000000 0.000000
vn 0.000000 -1.000000 0.000000
vn 0.000000 -1.000000 0.000000
vn 0.000000 -1.000000 0.000000
vn 1.000000 0.000000 0.000000
vn 1.000000 0.000000 0.000000
vn 1.000000 0.000000 0.000000
vn 1.000000 0.000000 0.000000
vn -1.000000 0.000000 0.000000
vn -1.000000 0.000000 0.000000
vn -1.000000 0.000000 0.000000
vn -1.000000 0.000000 0.000000
vn 0.000000 1.000000 0.000000
vn 0.000000 1.000000 0.000000
vn 0.000000 1.000000 0.000000
vn 0.000000 1.000000 0.000000
vn 0.000000 0.000000 -1.000000
vn 0.000000 0.000000 -1.000000
vn 0.000000 0.000000 -1.000000
vn 0.000000 0.000000 -1.000000
vn 0.000000 -1.000000 0.000000
vn 0.000000 -1.000000 0.000000
vn 0.000000 -1.000000 0.000000
vn 0.000000 -1.000000 0.000000
vn 0.000000 0.000000 1.000000
vn 0.000000 0.000000 1.000000
vn 0.000000 0.000000 1.000000
vn 0.000000 0.000000 1.000000
vn 1.000000 0.000000 0.000000
vn 1.000000 0.000000 0.000000
vn 1.000000 0.000000 0.000000
vn 1.000000 0.000000 0.000000
vn -1.000000 0.000000 0.000000
vn -1.000000 0.000000 0.000000
vn -1.000000 0.000000 0.000000
vn -1.000000 0.000000 0.000000
g BuildingB_Window_LOD1 BuildingB_Window_mdl
usemtl lambert5SG
f 4/1/1 1/2/2 5/3/3 8/4/4
f 2/5/5 3/6/6 7/7/7 6/8/8
usemtl initialShadingGroup
f 12/9/9 11/10/10 9/11/11 10/12/12
f 12/9/13 14/13/14 13/14/15 11/10/16
f 15/15/17 13/14/18 14/13/19 16/16/20
f 16/17/21 10/18/22 9/19/23 15/20/24
f 16/17/25 14/13/26 12/9/27 10/18/28
f 9/21/29 11/10/30 13/14/31 15/22/32
f 17/23/33 18/24/34 20/25/35 19/26/36
f 20/27/37 22/28/38 21/29/39 19/30/40
f 22/31/41 24/32/42 23/33/43 21/34/44
f 24/32/45 18/24/46 17/23/47 23/33/48
f 24/32/49 22/28/50 20/27/51 18/24/52
f 17/23/53 19/35/54 21/36/55 23/33/56
f 28/37/57 27/38/58 25/39/59 26/40/60
f 28/37/61 30/41/62 29/42/63 27/38/64
f 29/42/65 30/41/66 32/43/67 31/44/68
f 32/45/69 26/46/70 25/47/71 31/48/72
f 30/41/73 28/37/74 26/46/75 32/45/76
f 25/49/77 27/38/78 29/42/79 31/50/80
f 33/51/81 34/52/82 36/53/83 35/54/84
f 36/55/85 38/56/86 37/57/87 35/58/88
f 38/59/89 40/60/90 39/61/91 37/62/92
f 40/60/93 34/52/94 33/51/95 39/61/96
f 38/56/97 36/55/98 34/52/99 40/60/100
f 33/51/101 35/63/102 37/64/103 39/61/104
