# This file uses meters as units for non-parametric coordinates.

mtllib BuildingB_Top_Wall_VarA_LOD1.mtl
g default
v 0.000002 0.000000 0.000000
v -5.502522 300.000000 0.000000
v -5.502522 300.000000 -400.000000
v 0.000002 0.000000 -400.000000
v -50.000000 0.000000 0.000000
v -50.000000 300.000000 0.000000
v -50.000000 300.000000 -400.000000
v -50.000000 0.000000 -400.000000
v 0.000002 100.000000 0.000000
v -5.502522 200.000000 0.000000
v -5.502522 200.000000 -400.000000
v 0.000002 100.000000 -400.000000
v -9.845675 200.000000 0.000000
v -9.845675 100.000000 0.000000
v -9.845675 100.000000 -400.000000
v -9.845675 200.000000 -400.000000
v -52.497421 300.000000 0.000000
v 2.497429 300.000000 0.000000
v -52.497421 316.468262 0.000000
v 2.497429 316.468262 0.000000
v -52.497421 316.468262 -400.000000
v 2.497429 316.468262 -400.000000
v -52.497421 300.000000 -400.000000
v 2.497429 300.000000 -400.000000
vt 0.522245 0.279779
vt 0.522245 0.410316
vt 0.000095 0.410316
vt 0.000095 0.279779
vt 0.522245 0.000182
vt 0.522245 0.130719
vt 0.000095 0.130719
vt 0.000095 0.000182
vt 0.522245 0.416655
vt 0.522245 0.808268
vt 0.000095 0.808268
vt 0.000095 0.416656
vt 0.522245 0.143572
vt 0.522245 0.274109
vt 0.000095 0.274109
vt 0.000095 0.143572
vt 0.000096 0.906532
vt 0.000096 0.834743
vt 0.522245 0.834743
vt 0.522245 0.906532
vt 0.000095 0.999818
vt 0.000096 0.928029
vt 0.522245 0.928029
vt 0.522245 0.999818
vt 0.000096 0.813246
vt 0.522245 0.813246
vn 1.000000 0.000000 0.000000
vn 1.000000 0.000000 0.000000
vn 1.000000 0.000000 0.000000
vn 1.000000 0.000000 0.000000
vn 1.000000 0.000000 0.000000
vn 1.000000 0.000000 0.000000
vn 1.000000 0.000000 0.000000
vn 1.000000 0.000000 0.000000
vn -1.000000 0.000000 0.000000
vn -1.000000 0.000000 0.000000
vn -1.000000 0.000000 0.000000
vn -1.000000 0.000000 0.000000
vn 1.000000 0.000000 0.000000
vn 1.000000 0.000000 0.000000
vn 1.000000 0.000000 0.000000
vn 1.000000 0.000000 0.000000
vn 0.000000 1.000000 0.000000
vn 0.000000 1.000000 0.000000
vn 0.000000 1.000000 0.000000
vn 0.000000 1.000000 0.000000
vn 0.000000 -1.000000 0.000000
vn 0.000000 -1.000000 0.000000
vn 0.000000 -1.000000 0.000000
vn 0.000000 -1.000000 0.000000
vn 0.000000 1.000000 0.000000
vn 0.000000 1.000000 0.000000
vn 0.000000 1.000000 0.000000
vn 0.000000 1.000000 0.000000
vn 0.000000 -1.000000 0.000000
vn 0.000000 -1.000000 0.000000
vn 0.000000 -1.000000 0.000000
vn 0.000000 -1.000000 0.000000
vn 1.000000 0.000000 0.000000
vn 1.000000 0.000000 0.000000
vn 1.000000 0.000000 0.000000
vn 1.000000 0.000000 0.000000
vn -1.000000 0.000000 0.000000
vn -1.000000 0.000000 0.000000
vn -1.000000 0.000000 0.000000
vn -1.000000 0.000000 0.000000
g BuildingB_Top_Wall_VarA_LOD1 BuildingB_Top_Wall_VarA_mdl
usemtl initialShadingGroup
f 11/1/1 3/2/2 2/3/3 10/4/4
f 4/5/5 12/6/6 9/7/7 1/8/8
usemtl lambert2SG
f 5/9/9 6/10/10 7/11/11 8/12/12
usemtl initialShadingGroup
f 15/13/13 16/14/14 13/15/15 14/16/16
f 12/6/17 15/13/18 14/16/19 9/7/20
f 16/14/21 11/1/22 10/4/23 13/15/24
usemtl lambert2SG
f 22/17/25 21/18/26 19/19/27 20/20/28
f 23/21/29 24/22/30 18/23/31 17/24/32
f 24/22/33 22/17/34 20/20/35 18/23/36
f 21/18/37 23/25/38 17/26/39 19/19/40
