# This file uses meters as units for non-parametric coordinates.

mtllib Vent_A_LOD2.mtl
g default
v 28.545776 0.948165 -19.073568
v 25.694456 33.405975 -17.168444
v 6.028809 33.405975 -30.308619
v -17.168701 33.405975 -25.694433
v -30.308592 33.405975 -6.028771
v -25.694456 33.405975 17.168449
v -6.028809 33.405975 30.308632
v 17.168701 33.405975 25.694414
v 30.308592 33.405975 6.028762
v 6.697754 0.948166 -33.671867
v -19.073486 0.948165 -28.545664
v -33.671875 0.948166 -6.697763
v -28.545776 0.948166 19.073574
v -6.697754 0.948166 33.671883
v 19.073486 0.948166 28.545635
v 33.671875 0.948166 6.697752
v 0.000000 19.787863 -0.000001
v 11.390625 20.842247 -11.390597
v 0.000000 20.842247 -16.108747
v -11.390625 20.842247 -11.390612
v -16.108643 20.842247 -0.000010
v -11.390625 20.842247 11.390600
v 0.000000 20.842247 16.108746
v 11.390625 20.842247 11.390597
v 16.108643 20.842247 0.000004
v 9.122070 45.108486 -9.122002
v 0.000000 45.108486 -12.900466
v -9.122070 45.108486 -9.122015
v -12.900634 45.108486 -0.000008
v -9.122070 45.108486 9.122003
v 0.000000 45.108486 12.900463
v 9.122070 45.108486 9.122002
v 12.900634 45.108486 0.000003
vt 0.502138 0.897871
vt 0.502138 0.994151
vt 0.425808 0.897871
vt 0.425808 0.994151
vt 0.349475 0.897871
vt 0.349475 0.994151
vt 0.273140 0.897871
vt 0.273140 0.994151
vt 0.196803 0.897871
vt 0.196803 0.994151
vt 0.120466 0.897871
vt 0.120466 0.994151
vt 0.044129 0.897871
vt 0.044129 0.994151
vt 0.578464 0.897871
vt 0.578464 0.994151
vt 0.150417 0.040981
vt 0.325637 0.082296
vt 0.220522 0.040981
vt 0.290757 0.040981
vt 0.360975 0.040981
vt 0.431027 0.040981
vt 0.500766 0.040981
vt 0.570045 0.040981
vt 0.011189 0.040981
vt 0.011189 0.082296
vt 0.080590 0.040981
vt 0.030692 0.402191
vt 0.059757 0.394892
vt 0.015301 0.427904
vt 0.085470 0.410283
vt 0.022600 0.456969
vt 0.092769 0.439348
vt 0.077378 0.465061
vt 0.048313 0.472360
vt 0.036451 0.499634
vt 0.025574 0.554314
vt 0.182219 0.108583
vt 0.197887 0.181724
vt 0.220130 0.102470
vt 0.228248 0.176827
vt 0.258468 0.100259
vt 0.258950 0.175057
vt 0.296831 0.101975
vt 0.289673 0.176431
vt 0.012539 0.194086
vt 0.062002 0.250197
vt 0.042607 0.170199
vt 0.086081 0.231067
vt 0.074957 0.149506
vt 0.111988 0.214496
vt 0.109250 0.132225
vt 0.139451 0.200657
vt 0.145129 0.118537
vt 0.168185 0.189694
vt 0.019688 0.524722
vt 0.091131 0.510511
vt 0.097017 0.540103
vt 0.050662 0.571077
vt 0.066043 0.493748
vt 0.080254 0.565191
vn 0.831462 0.004261 -0.555565
vn 0.831463 0.004261 -0.555564
vn 0.980777 0.004261 0.195088
vn 0.980777 0.004261 0.195088
vn 0.831463 0.004261 -0.555564
vn 0.831462 0.004261 -0.555565
vn 0.195090 0.004261 -0.980776
vn 0.195090 0.004261 -0.980776
vn 0.195090 0.004261 -0.980776
vn 0.195090 0.004261 -0.980776
vn -0.555565 0.004261 -0.831462
vn -0.555565 0.004261 -0.831462
vn -0.555565 0.004261 -0.831462
vn -0.555565 0.004261 -0.831462
vn -0.980776 0.004262 -0.195089
vn -0.980776 0.004262 -0.195089
vn -0.980776 0.004262 -0.195089
vn -0.980776 0.004262 -0.195089
vn -0.831462 0.004261 0.555565
vn -0.831462 0.004261 0.555565
vn -0.831462 0.004261 0.555565
vn -0.831462 0.004261 0.555565
vn -0.195089 0.004261 0.980776
vn -0.195089 0.004261 0.980776
vn -0.195089 0.004261 0.980776
vn -0.195089 0.004261 0.980776
vn 0.555565 0.004261 0.831462
vn 0.555565 0.004261 0.831462
vn 0.555565 0.004261 0.831462
vn 0.555565 0.004261 0.831462
vn 0.980777 0.004261 0.195088
vn 0.980777 0.004261 0.195088
vn -0.979088 0.058814 -0.194753
vn -0.830031 0.058817 0.554608
vn -0.979088 0.058814 -0.194752
vn -0.830031 0.058817 0.554608
vn -0.830031 0.058817 0.554608
vn -0.194753 0.058816 0.979087
vn -0.194753 0.058816 0.979087
vn -0.194753 0.058816 0.979087
vn 0.554608 0.058816 0.830030
vn 0.554608 0.058816 0.830030
vn 0.554608 0.058816 0.830030
vn 0.979087 0.058817 0.194753
vn 0.979087 0.058817 0.194753
vn 0.979087 0.058817 0.194753
vn 0.830031 0.058817 -0.554608
vn 0.830031 0.058817 -0.554608
vn 0.830031 0.058817 -0.554608
vn 0.194752 0.058816 -0.979088
vn 0.194752 0.058816 -0.979088
vn 0.194752 0.058816 -0.979088
vn -0.554609 0.058816 -0.830030
vn -0.554609 0.058816 -0.830030
vn -0.554609 0.058816 -0.830030
vn -0.979088 0.058814 -0.194753
vn 0.000000 -1.000000 0.000000
vn 0.000000 -1.000000 0.000000
vn 0.000000 -1.000000 0.000000
vn 0.000000 -1.000000 0.000000
vn 0.000000 -1.000000 0.000000
vn 0.000000 -1.000000 0.000000
vn 0.000000 -1.000000 0.000000
vn 0.000000 -1.000000 0.000000
vn 0.000000 1.000000 0.000000
vn 0.000000 1.000000 0.000000
vn 0.000000 1.000000 0.000000
vn 0.000000 1.000000 -0.000001
vn 0.000000 1.000000 0.000000
vn 0.000000 1.000000 0.000000
vn 0.000000 1.000000 0.000000
vn 0.000000 1.000000 0.000000
vn 0.991373 0.131072 0.000000
vn 0.701006 0.131071 -0.701007
vn 0.701006 0.131071 -0.701007
vn 0.991373 0.131072 0.000000
vn 0.701006 0.131071 -0.701007
vn 0.701006 0.131071 -0.701007
vn 0.000001 0.131071 -0.991373
vn 0.000001 0.131071 -0.991373
vn -0.701006 0.131071 -0.701007
vn 0.000001 0.131071 -0.991373
vn 0.000001 0.131071 -0.991373
vn -0.701006 0.131071 -0.701007
vn -0.701006 0.131071 -0.701007
vn -0.701006 0.131071 -0.701007
vn -0.991373 0.131071 0.000000
vn -0.991373 0.131071 0.000000
vn -0.991373 0.131071 0.000000
vn -0.991373 0.131071 0.000000
vn -0.701007 0.131071 0.701006
vn -0.701007 0.131071 0.701006
vn -0.701007 0.131071 0.701006
vn -0.701007 0.131071 0.701006
vn 0.000000 0.131071 0.991373
vn 0.000000 0.131071 0.991373
vn 0.000000 0.131071 0.991373
vn 0.000000 0.131071 0.991373
vn 0.701007 0.131071 0.701006
vn 0.701007 0.131071 0.701006
vn 0.701007 0.131071 0.701006
vn 0.701007 0.131071 0.701006
vn 0.991373 0.131072 0.000000
vn 0.991373 0.131072 0.000000
g Vent_A_LOD2 Vent_A
usemtl lambert27SG
f 1/2/1 2/1/2 9/15/3 16/16/4
f 2/1/5 1/2/6 10/4/7 3/3/8
f 3/3/9 10/4/10 11/6/11 4/5/12
f 4/5/13 11/6/14 12/8/15 5/7/16
f 5/7/17 12/8/18 13/10/19 6/9/20
f 6/9/21 13/10/22 14/12/23 7/11/24
f 7/11/25 14/12/26 15/14/27 8/13/28
f 8/13/29 15/14/30 16/16/31 9/15/32
f 9/27/33 2/17/34 17/18/35
f 17/18/36 2/17/37 3/19/38
f 17/18/39 3/19/40 4/20/41
f 17/18/42 4/20/43 5/21/44
f 17/18/45 5/21/46 6/22/47
f 17/18/48 6/22/49 7/23/50
f 17/18/51 7/23/52 8/24/53
f 17/26/54 8/25/55 9/27/56
f 11/34/57 10/35/58 1/32/59 16/30/60 15/28/61 14/29/62 13/31/63 12/33/64
f 32/61/65 33/59/66 26/37/67 27/56/68 28/36/69 29/60/70 30/57/71 31/58/72
f 25/54/73 18/38/74 26/39/75 33/55/76
f 26/39/77 18/38/78 19/40/79 27/41/80
f 28/43/81 27/41/82 19/40/83 20/42/84
f 28/43/85 20/42/86 21/44/87 29/45/88
f 29/47/89 21/46/90 22/48/91 30/49/92
f 30/49/93 22/48/94 23/50/95 31/51/96
f 31/51/97 23/50/98 24/52/99 32/53/100
f 32/53/101 24/52/102 25/54/103 33/55/104
