# This file uses meters as units for non-parametric coordinates.

mtllib Vent_B_LOD2.mtl
g default
v 24.913086 30.886620 -10.319370
v 3.519775 30.886620 -26.735058
v -21.393311 30.886620 -16.415712
v -24.913086 30.886620 10.319317
v -3.519775 30.886620 26.734955
v 21.393311 30.886620 16.415672
v 23.729248 78.304619 -9.829100
v 3.352295 78.304619 -25.464926
v -20.376953 78.304619 -15.635873
v -23.729248 78.304619 9.829184
v -3.352295 78.304619 25.464922
v 20.376953 78.304619 15.635851
v 39.125732 45.570591 -16.206512
v 5.527710 45.570591 -41.987301
v -33.598145 45.570591 -25.780846
v -39.125977 45.570591 16.206322
v -5.527710 45.570591 41.987305
v 33.598145 45.570591 25.780819
v -39.533203 0.047230 39.533108
v 39.533203 0.047230 39.533108
v -39.533203 0.047230 -39.533108
v 39.533203 0.047230 -39.533108
v -31.648195 4.947656 31.648239
v 31.648195 4.947656 31.648239
v -31.648195 4.947656 -31.648239
v 31.648195 4.947656 -31.648239
v 28.896238 13.386366 28.896429
v -28.896238 13.386366 28.896429
v 28.896238 13.386366 -28.896429
v -28.896238 13.386366 -28.896429
v 35.498047 9.340380 35.497978
v -35.498047 9.340380 35.497978
v 35.498047 9.340380 -35.497978
v -35.498047 9.340380 -35.497978
v 29.937744 32.279743 29.937719
v -29.937744 32.279743 29.937719
v -29.937744 32.279743 -29.937719
v 29.937744 32.279743 -29.937719
v 10.996094 78.024254 -21.581062
v -17.126953 78.024254 -17.126820
v -21.581177 78.024254 10.996088
v 3.788941 78.024254 23.922773
v 23.922729 78.024254 3.788996
v 7.090088 119.564285 -13.914406
v -11.042480 119.564285 -11.042527
v -13.914551 119.564285 7.089721
v 2.442871 119.564285 15.424223
v 15.424317 119.564285 2.442963
v 23.065399 109.666649 3.653214
v 3.653167 109.666649 23.065483
v -20.807648 109.666649 10.602035
v -16.513184 109.666649 -16.513067
v 10.601868 109.666649 -20.807690
vt 0.362026 0.503500
vt 0.256375 0.417946
vt 0.179479 0.501477
vt 0.208361 0.424372
vt 0.283700 0.391177
vt 0.360089 0.421876
vt 0.391483 0.497977
vt 0.358709 0.574031
vt 0.214672 0.576491
vt 0.167397 0.335491
vt 0.249111 0.305879
vt 0.336020 0.312070
vt 0.412638 0.353488
vt 0.465335 0.422472
vt 0.483312 0.503964
vt 0.107980 0.395302
vt 0.573005 0.372056
vt 0.489778 0.262476
vt 0.368697 0.197258
vt 0.231524 0.188009
vt 0.103104 0.236659
vt 0.014932 0.317973
vt 0.606463 0.505565
vt 0.457842 0.498300
vt 0.406651 0.374694
vt 0.282484 0.324902
vt 0.160102 0.378928
vt 0.113216 0.504193
vt 0.170094 0.624267
vt 0.417960 0.609090
vt 0.333898 0.430225
vt 0.206981 0.478944
vt 0.312631 0.564497
vt 0.235108 0.552219
vt 0.028383 0.797117
vt 0.100545 0.724955
vt 0.172706 0.797117
vt 0.100545 0.869279
vt 0.658808 0.784051
vt 0.465383 0.784051
vt 0.220542 0.784051
vt 0.413967 0.784051
vt 0.472707 0.641677
vt 0.666132 0.641677
vt 0.413509 0.641677
vt 0.220084 0.641677
vt 0.196447 0.753958
vt 0.438062 0.753958
vt 0.195989 0.611584
vt 0.437604 0.611584
vt 0.448612 0.611584
vt 0.690227 0.611584
vt 0.441288 0.753958
vt 0.682903 0.753958
vt 0.425731 0.802471
vt 0.208778 0.802471
vt 0.460943 0.660097
vt 0.677896 0.660097
vt 0.208320 0.660097
vt 0.425274 0.660097
vt 0.453618 0.802471
vt 0.670572 0.802471
vt 0.405558 0.827220
vt 0.228951 0.827220
vt 0.657723 0.684846
vt 0.481116 0.684846
vt 0.405100 0.684846
vt 0.228493 0.684846
vt 0.650399 0.827220
vt 0.473792 0.827220
vt 0.408740 0.891588
vt 0.225769 0.891588
vt 0.653581 0.891588
vt 0.470610 0.891588
vt 0.408282 0.749214
vt 0.225311 0.749214
vt 0.660905 0.749214
vt 0.477934 0.749214
vt 0.009001 0.887601
vt 0.009001 0.704630
vt 0.191972 0.704630
vt 0.191972 0.887601
vt 0.689474 0.384403
vt 0.606803 0.413855
vt 0.715481 0.481728
vt 0.629277 0.498302
vt 0.726512 0.580169
vt 0.637144 0.586380
vt 0.537987 0.143276
vt 0.466671 0.199288
vt 0.593548 0.208066
vt 0.523733 0.260570
vt 0.648425 0.292225
vt 0.571373 0.334103
vt 0.702861 0.835304
vt 0.727246 0.868285
vt 0.781336 0.855945
vt 0.788727 0.814912
vt 0.926126 0.884284
vt 0.810295 0.903934
vt 0.860444 0.941854
vt 0.772949 0.944596
vt 0.781656 0.981597
vt 0.721785 0.924117
vt 0.693097 0.980289
vn 0.916123 0.129295 -0.379475
vn 0.786694 0.129295 0.603652
vn 0.879142 0.276968 0.387812
vn 0.775420 0.276975 -0.567458
vn 0.103715 0.276971 0.955265
vn -0.086336 -0.750007 0.655771
vn 0.524749 -0.750005 0.402654
vn -0.775419 0.276992 0.567451
vn -0.611081 -0.750008 0.253118
vn -0.879142 0.276961 -0.387816
vn -0.524750 -0.750005 -0.402652
vn -0.103715 0.276973 -0.955264
vn 0.086334 -0.750004 -0.655775
vn 0.611085 -0.750004 -0.253120
vn 0.129428 0.129296 -0.983123
vn -0.786690 0.129294 -0.603657
vn -0.916127 0.129294 0.379466
vn -0.129431 0.129295 0.983123
vn 0.000000 1.000000 0.000000
vn 0.000000 1.000000 0.000000
vn 0.000000 1.000000 0.000000
vn 0.000000 1.000000 0.000000
vn 0.000000 1.000000 0.000000
vn 0.000000 1.000000 0.000000
vn 0.000000 -1.000000 0.000000
vn 0.000000 -1.000000 0.000000
vn 0.000000 -1.000000 0.000000
vn 0.000000 -1.000000 0.000000
vn -0.432787 0.901496 0.000000
vn -0.432787 0.901496 0.000000
vn -0.999796 0.020216 0.000000
vn -0.999796 0.020216 0.000000
vn 0.000000 0.901496 0.432788
vn 0.000000 0.901496 0.432788
vn 0.000000 0.020217 0.999796
vn 0.000000 0.020217 0.999796
vn 0.432787 0.901496 0.000000
vn 0.432787 0.901496 0.000000
vn 0.999796 0.020216 0.000000
vn 0.999796 0.020216 0.000000
vn 0.000000 0.901496 -0.432787
vn 0.000000 0.901496 -0.432787
vn 0.000000 0.020217 -0.999796
vn 0.000000 0.020217 -0.999796
vn 0.000000 -0.720203 0.693764
vn 0.000000 -0.720203 0.693764
vn 0.000000 -0.720203 0.693764
vn 0.000000 -0.720203 0.693764
vn 0.000000 0.891480 0.453060
vn 0.000000 0.891480 0.453060
vn 0.000000 0.891480 0.453060
vn 0.000000 0.891480 0.453060
vn 0.693764 -0.720203 0.000000
vn 0.693764 -0.720203 0.000000
vn 0.693764 -0.720203 0.000000
vn 0.693764 -0.720203 0.000000
vn 0.453060 0.891480 0.000000
vn 0.453060 0.891480 0.000000
vn 0.453060 0.891480 0.000000
vn 0.453060 0.891480 0.000000
vn 0.000000 -0.720203 -0.693764
vn 0.000000 -0.720203 -0.693764
vn 0.000000 -0.720203 -0.693764
vn 0.000000 -0.720203 -0.693764
vn 0.000000 0.891480 -0.453060
vn 0.000000 0.891480 -0.453060
vn 0.000000 0.891480 -0.453060
vn 0.000000 0.891480 -0.453060
vn -0.693764 -0.720203 0.000000
vn -0.693764 -0.720203 0.000000
vn -0.693764 -0.720203 0.000000
vn -0.693764 -0.720203 0.000000
vn -0.453060 0.891480 0.000000
vn -0.453060 0.891480 0.000000
vn -0.453060 0.891480 0.000000
vn -0.453060 0.891480 0.000000
vn 0.999962 -0.008718 0.000000
vn 0.999999 0.001339 0.000000
vn 0.999999 0.001339 0.000000
vn 0.999962 -0.008718 0.000000
vn 0.000000 -0.008718 -0.999962
vn 0.000000 0.001339 -0.999999
vn 0.000000 0.001339 -0.999999
vn 0.000000 -0.008718 -0.999962
vn -0.999962 -0.008718 0.000000
vn -0.999999 0.001339 0.000000
vn -0.999999 0.001339 0.000000
vn -0.999962 -0.008718 0.000000
vn 0.000000 -0.008718 0.999962
vn 0.000000 0.001339 0.999999
vn 0.000000 0.001339 0.999999
vn 0.000000 -0.008718 0.999962
vn 0.000000 1.000000 0.000000
vn 0.000000 1.000000 0.000000
vn 0.000000 1.000000 0.000000
vn 0.000000 1.000000 0.000000
vn 0.445578 0.191617 -0.874496
vn 0.309017 0.000000 -0.951057
vn -0.809017 0.000000 -0.587786
vn -0.694004 0.191617 -0.694004
vn -0.809016 0.000000 0.587787
vn -0.874496 0.191617 0.445578
vn 0.309017 0.000000 0.951057
vn 0.153536 0.191617 0.969386
vn 1.000000 0.000000 0.000000
vn 0.969386 0.191617 0.153537
vn 0.279353 0.959169 0.044245
vn 0.128405 0.959168 -0.252008
vn -0.199995 0.959168 -0.199995
vn -0.252008 0.959168 0.128405
vn 0.044245 0.959168 0.279354
g Vent_B_LOD2 Vent_B
usemtl lambert27SG
f 7/10/1 12/16/2 18/22/3 13/21/4
f 18/29/3 17/28/5 5/3/6 6/9/7
f 17/28/5 16/27/8 4/4/9 5/3/6
f 16/27/8 15/26/10 3/5/11 4/4/9
f 15/26/10 14/25/12 2/6/13 3/5/11
f 14/25/12 13/24/4 1/7/14 2/6/13
f 13/24/4 18/30/3 6/8/7 1/7/14
f 8/11/15 7/10/1 13/21/4 14/20/12
f 9/12/16 8/11/15 14/20/12 15/19/10
f 10/13/17 9/12/16 15/19/10 16/18/8
f 11/14/18 10/13/17 16/18/8 17/17/5
f 12/15/2 11/14/18 17/17/5 18/23/3
f 7/32/19 8/2/20 9/31/21 10/1/22 11/33/23 12/34/24
f 21/35/25 22/36/26 20/37/27 19/38/28
f 23/39/29 25/40/30 21/53/31 19/54/32
f 24/42/33 23/41/34 19/47/35 20/48/36
f 26/44/37 24/43/38 20/51/39 22/52/40
f 25/45/41 26/46/42 22/49/43 21/50/44
f 23/41/45 24/42/46 31/55/47 32/56/48
f 27/63/49 28/64/50 32/56/51 31/55/52
f 24/43/53 26/44/54 33/58/55 31/57/56
f 29/65/57 27/66/58 31/57/59 33/58/60
f 26/46/61 25/45/62 34/60/63 33/59/64
f 30/67/65 29/68/66 33/59/67 34/60/68
f 25/40/69 23/39/70 32/62/71 34/61/72
f 28/69/73 30/70/74 34/61/75 32/62/76
f 35/78/77 27/66/78 29/65/79 38/77/80
f 38/76/81 29/68/82 30/67/83 37/75/84
f 37/74/85 30/70/86 28/69/87 36/73/88
f 36/72/89 28/64/90 27/63/91 35/71/92
f 37/82/93 36/79/94 35/80/95 38/81/96
f 53/84/97 39/83/98 40/85/99 52/86/100
f 52/86/100 40/85/99 41/87/101 51/88/102
f 51/90/102 41/89/101 42/91/103 50/92/104
f 50/92/104 42/91/103 43/93/105 49/94/106
f 49/94/106 43/93/105 39/83/98 53/84/97
f 48/96/107 49/95/106 53/98/97 44/97/108
f 44/97/108 53/99/97 52/101/100 45/100/109
f 45/100/109 52/101/100 51/103/102 46/102/110
f 46/102/110 51/103/102 50/105/104 47/104/111
f 47/104/111 50/105/104 49/95/106 48/96/107
f 48/96/107 44/97/108 45/100/109 46/102/110 47/104/111
