# This file uses meters as units for non-parametric coordinates.

mtllib Vent_B_LOD1.mtl
g default
v 24.913086 30.886620 -10.319370
v 16.415771 30.886620 -21.393417
v 3.519775 30.886620 -26.735058
v -10.319580 30.886620 -24.913168
v -21.393311 30.886620 -16.415712
v -26.734865 30.886620 -3.519705
v -24.913086 30.886620 10.319317
v -16.415771 30.886620 21.393290
v -3.519775 30.886620 26.734955
v 10.319580 30.886620 24.913111
v 21.393311 30.886620 16.415672
v 26.734865 30.886620 3.519683
v 36.050293 62.763287 -14.932516
v 23.729248 78.304619 -9.829100
v 23.753662 62.763287 -30.957104
v 15.635742 78.304619 -20.377022
v 5.093506 62.763287 -38.686661
v 3.352295 78.304619 -25.464926
v -14.932373 62.763287 -36.050194
v -9.828857 78.304619 -23.729479
v -30.957031 62.763287 -23.754211
v -20.376953 78.304619 -15.635873
v -38.686768 62.763287 -5.093321
v -25.465090 78.304619 -3.352643
v -36.050293 62.763287 14.932384
v -23.729248 78.304619 9.829184
v -23.754395 62.763287 30.957037
v -15.635987 78.304619 20.376972
v -5.093506 62.763287 38.686665
v -3.352295 78.304619 25.464922
v 14.932373 62.763287 36.050228
v 9.828857 78.304619 23.729523
v 30.957031 62.763287 23.754185
v 20.376953 78.304619 15.635851
v 38.686768 62.763287 5.093200
v 25.465090 78.304619 3.352526
v 39.125732 45.570591 -16.206512
v 25.780762 45.570591 -33.598282
v 5.527710 45.570591 -41.987301
v -16.206543 45.570591 -39.125896
v -33.598145 45.570591 -25.780846
v -41.987183 45.570591 -5.527857
v -39.125977 45.570591 16.206322
v -25.780884 45.570591 33.598206
v -5.527710 45.570591 41.987305
v 16.206421 45.570591 39.125938
v 33.598145 45.570591 25.780819
v 41.987183 45.570587 5.527741
v 24.111086 75.137436 -9.987136
v 25.874269 75.137436 3.406427
v 15.886962 75.137436 -20.704662
v 3.406494 75.137436 -25.874357
v -9.986816 75.137436 -24.111013
v -20.704590 75.137436 -15.887269
v -25.874269 75.137436 -3.406538
v -24.111086 75.137436 9.987185
v -15.887451 75.137436 20.704611
v -3.406494 75.137436 25.874355
v 9.986816 75.137436 24.111053
v 20.704590 75.137436 15.887246
v -39.533203 0.047230 39.533108
v 39.533203 0.047230 39.533108
v -39.533203 0.047230 -39.533108
v 39.533203 0.047230 -39.533108
v -31.648195 4.947656 31.648239
v 31.648195 4.947656 31.648239
v -31.648195 4.947656 -31.648239
v 31.648195 4.947656 -31.648239
v 28.896238 13.386366 28.896429
v -28.896238 13.386366 28.896429
v 28.896238 13.386366 -28.896429
v -28.896238 13.386366 -28.896429
v 35.498047 9.340380 35.497978
v -35.498047 9.340380 35.497978
v 35.498047 9.340380 -35.497978
v -35.498047 9.340380 -35.497978
v 28.903076 29.960064 28.903255
v -28.903076 29.960064 28.903255
v -28.903076 29.960064 -28.903255
v 28.903076 29.960064 -28.903255
v 29.919434 30.183619 29.919447
v -29.919434 30.183619 29.919447
v 29.937744 32.279743 29.937719
v -29.937744 32.279743 29.937719
v -29.919434 30.183619 -29.919447
v -29.937744 32.279743 -29.937719
v 29.919434 30.183619 -29.919447
v 29.937744 32.279743 -29.937719
v 0.000000 32.279743 26.900934
v 0.000000 32.279743 -26.900934
v -26.900879 32.279743 0.000000
v 26.900879 32.279743 0.000000
v 21.581177 78.024254 -10.996092
v 10.996094 78.024254 -21.581062
v -3.788941 78.024254 -23.922791
v -17.126953 78.024254 -17.126820
v -23.922729 78.024254 -3.788996
v -21.581177 78.024254 10.996088
v -10.996094 78.024254 21.581049
v 3.788941 78.024254 23.922773
v 17.126953 78.024254 17.126806
v 23.922729 78.024254 3.788996
v 20.807648 109.666649 -10.602039
v 19.239746 116.488525 -9.803097
v 13.914551 119.564285 -7.089748
v 9.802979 116.488525 -19.239672
v 7.090088 119.564285 -13.914406
v -3.377930 116.488525 -21.327341
v -2.442871 119.564285 -15.424237
v -15.268798 116.488525 -15.268679
v -11.042480 119.564285 -11.042527
v -21.327148 116.488525 -3.377918
v -15.424317 119.564285 -2.442961
v -19.239746 116.488525 9.803089
v -13.914551 119.564285 7.089721
v -9.802979 116.488525 19.239649
v -7.090088 119.564285 13.914385
v 3.377930 116.488525 21.327326
v 2.442871 119.564285 15.424223
v 15.268798 116.488525 15.268658
v 11.042480 119.564285 11.042506
v 21.327148 116.488525 3.377918
v 15.424317 119.564285 2.442963
v 23.065399 109.666649 3.653214
v 16.513184 109.666649 16.513050
v 3.653167 109.666649 23.065483
v -10.601868 109.666649 20.807671
v -20.807648 109.666649 10.602035
v -23.065399 109.666649 -3.653214
v -16.513184 109.666649 -16.513067
v -3.653167 109.666649 -23.065500
v 10.601868 109.666649 -20.807690
vt 0.131479 0.280910
vt 0.086225 0.317608
vt 0.161755 0.326791
vt 0.126484 0.355402
vt 0.183352 0.254773
vt 0.239452 0.240364
vt 0.297306 0.238184
vt 0.354308 0.248297
vt 0.407885 0.270234
vt 0.455617 0.303009
vt 0.495347 0.345166
vt 0.525276 0.394879
vt 0.544071 0.450077
vt 0.550931 0.510462
vt 0.048273 0.364935
vt 0.362026 0.503500
vt 0.223506 0.441827
vt 0.256375 0.417946
vt 0.357778 0.463094
vt 0.179479 0.501477
vt 0.189493 0.542354
vt 0.186130 0.460000
vt 0.208361 0.424372
vt 0.242678 0.400166
vt 0.283700 0.391177
vt 0.324994 0.398812
vt 0.360089 0.421876
vt 0.383478 0.456751
vt 0.391483 0.497977
vt 0.382796 0.539130
vt 0.358709 0.574031
vt 0.214672 0.576491
vt 0.167397 0.335491
vt 0.134149 0.362838
vt 0.202738 0.306418
vt 0.206612 0.316500
vt 0.247422 0.295169
vt 0.249111 0.305879
vt 0.293496 0.293517
vt 0.292899 0.304355
vt 0.338887 0.301599
vt 0.336020 0.312070
vt 0.381549 0.319070
vt 0.376539 0.328700
vt 0.419558 0.345138
vt 0.412638 0.353488
vt 0.451191 0.378592
vt 0.442692 0.385272
vt 0.474972 0.417816
vt 0.465335 0.422472
vt 0.489596 0.460685
vt 0.479345 0.462940
vt 0.493149 0.503650
vt 0.483312 0.503964
vt 0.107980 0.395302
vt 0.100044 0.389598
vt 0.595648 0.437510
vt 0.573005 0.372056
vt 0.537257 0.312783
vt 0.489778 0.262476
vt 0.432725 0.223385
vt 0.368697 0.197258
vt 0.300597 0.185277
vt 0.231524 0.188009
vt 0.164662 0.205397
vt 0.103104 0.236659
vt 0.049301 0.279860
vt 0.014932 0.317973
vt 0.606463 0.505565
vt 0.457842 0.498300
vt 0.444713 0.431334
vt 0.406651 0.374694
vt 0.349595 0.337260
vt 0.282484 0.324902
vt 0.215838 0.339557
vt 0.160102 0.378928
vt 0.124013 0.436841
vt 0.113216 0.504193
vt 0.129311 0.570356
vt 0.170094 0.624267
vt 0.444073 0.565063
vt 0.417960 0.609090
vt 0.296781 0.413700
vt 0.333898 0.430225
vt 0.211227 0.519350
vt 0.206981 0.478944
vt 0.345501 0.540616
vt 0.312631 0.564497
vt 0.272225 0.568744
vt 0.235108 0.552219
vt 0.028383 0.797117
vt 0.100545 0.724955
vt 0.172706 0.797117
vt 0.100545 0.869279
vt 0.658808 0.784051
vt 0.465383 0.784051
vt 0.220542 0.784051
vt 0.413967 0.784051
vt 0.472707 0.641677
vt 0.666132 0.641677
vt 0.413509 0.641677
vt 0.220084 0.641677
vt 0.196447 0.753958
vt 0.438062 0.753958
vt 0.195989 0.611584
vt 0.437604 0.611584
vt 0.448612 0.611584
vt 0.690227 0.611584
vt 0.441288 0.753958
vt 0.682903 0.753958
vt 0.425731 0.802471
vt 0.208778 0.802471
vt 0.460943 0.660097
vt 0.677896 0.660097
vt 0.208320 0.660097
vt 0.425274 0.660097
vt 0.453618 0.802471
vt 0.670572 0.802471
vt 0.405558 0.827220
vt 0.228951 0.827220
vt 0.657723 0.684846
vt 0.481116 0.684846
vt 0.405100 0.684846
vt 0.228493 0.684846
vt 0.650399 0.827220
vt 0.473792 0.827220
vt 0.225825 0.885182
vt 0.408684 0.885182
vt 0.408740 0.891588
vt 0.225769 0.891588
vt 0.470666 0.885182
vt 0.653525 0.885182
vt 0.653581 0.891588
vt 0.470610 0.891588
vt 0.225367 0.742808
vt 0.408226 0.742808
vt 0.408282 0.749214
vt 0.225311 0.749214
vt 0.477990 0.742809
vt 0.660849 0.742809
vt 0.660905 0.749214
vt 0.477934 0.749214
vt 0.405579 0.882003
vt 0.228930 0.882003
vt 0.657744 0.739629
vt 0.481095 0.739629
vt 0.405121 0.739629
vt 0.228472 0.739629
vt 0.650420 0.882003
vt 0.473771 0.882003
vt 0.009001 0.887601
vt 0.009001 0.704630
vt 0.018281 0.796116
vt 0.100487 0.713910
vt 0.191972 0.704630
vt 0.182692 0.796116
vt 0.191972 0.887601
vt 0.100487 0.878321
vt 0.670771 0.337487
vt 0.590708 0.373250
vt 0.689474 0.384403
vt 0.606803 0.413855
vt 0.704410 0.432609
vt 0.619708 0.455589
vt 0.715481 0.481728
vt 0.629277 0.498302
vt 0.722672 0.531214
vt 0.635308 0.541887
vt 0.726512 0.580169
vt 0.637144 0.586380
vt 0.537987 0.143276
vt 0.562023 0.170084
vt 0.466671 0.199288
vt 0.495215 0.226510
vt 0.593548 0.208066
vt 0.523733 0.260570
vt 0.622597 0.248946
vt 0.549047 0.296485
vt 0.648425 0.292225
vt 0.571373 0.334103
vt 0.702861 0.835304
vt 0.748292 0.836088
vt 0.712112 0.853592
vt 0.727246 0.868285
vt 0.752650 0.854554
vt 0.781336 0.855945
vt 0.788632 0.836010
vt 0.788727 0.814912
vt 0.803765 0.875062
vt 0.821727 0.864075
vt 0.926126 0.884284
vt 0.895103 0.915138
vt 0.881898 0.900091
vt 0.910886 0.871076
vt 0.810295 0.903934
vt 0.831259 0.906053
vt 0.860444 0.941854
vt 0.849269 0.925177
vt 0.798285 0.930904
vt 0.813453 0.945607
vt 0.822592 0.963933
vt 0.772949 0.944596
vt 0.777252 0.963071
vt 0.781656 0.981597
vt 0.744177 0.943251
vt 0.736916 0.963240
vt 0.736830 0.983770
vt 0.721785 0.924117
vt 0.703813 0.935097
vt 0.693097 0.980289
vt 0.695891 0.960412
vt 0.715298 0.895232
vt 0.694324 0.893112
vt 0.650232 0.971285
vt 0.655866 0.951869
vt 0.665048 0.857391
vt 0.676426 0.874074
vt 0.743888 0.817523
vn 0.908714 0.399907 0.119634
vn 0.846786 0.399907 -0.350754
vn 0.630187 0.731249 -0.261035
vn 0.676276 0.731248 0.089033
vn 0.557964 0.399907 -0.727153
vn 0.415243 0.731248 -0.541156
vn 0.775420 0.276975 -0.567458
vn 0.387812 0.276958 -0.879145
vn 0.119633 0.399907 -0.908715
vn 0.089032 0.731249 -0.676275
vn 0.415243 0.731248 -0.541156
vn -0.103715 0.276973 -0.955264
vn 0.119633 0.399907 -0.908715
vn -0.350749 0.399907 -0.846788
vn -0.261032 0.731248 -0.630190
vn 0.089032 0.731249 -0.676275
vn -0.350749 0.399907 -0.846788
vn -0.567438 0.276975 -0.775435
vn -0.350749 0.399907 -0.846788
vn -0.727150 0.399907 -0.557967
vn -0.541153 0.731249 -0.415246
vn -0.261032 0.731248 -0.630190
vn -0.727150 0.399907 -0.557967
vn -0.879142 0.276961 -0.387816
vn -0.727150 0.399907 -0.557967
vn -0.908714 0.399908 -0.119637
vn -0.676276 0.731248 -0.089035
vn -0.541153 0.731249 -0.415246
vn -0.908714 0.399908 -0.119637
vn -0.955271 0.276948 0.103715
vn -0.908714 0.399908 -0.119637
vn -0.846789 0.399907 0.350747
vn -0.630190 0.731249 0.261029
vn -0.676276 0.731248 -0.089035
vn -0.846789 0.399907 0.350747
vn -0.775419 0.276992 0.567451
vn -0.846789 0.399907 0.350747
vn -0.557964 0.399907 0.727153
vn -0.415242 0.731249 0.541156
vn -0.630190 0.731249 0.261029
vn -0.557964 0.399907 0.727153
vn -0.387810 0.276974 0.879141
vn -0.557964 0.399907 0.727153
vn -0.119634 0.399907 0.908714
vn -0.089033 0.731248 0.676276
vn -0.415242 0.731249 0.541156
vn -0.119634 0.399907 0.908714
vn 0.103715 0.276971 0.955265
vn -0.119634 0.399907 0.908714
vn 0.350750 0.399907 0.846787
vn 0.261032 0.731249 0.630189
vn -0.089033 0.731248 0.676276
vn 0.350750 0.399907 0.846787
vn 0.147057 0.276971 0.949558
vn 0.350750 0.399907 0.846787
vn 0.727152 0.399907 0.557964
vn 0.541155 0.731249 0.415243
vn 0.261032 0.731249 0.630189
vn 0.727152 0.399907 0.557964
vn 0.879142 0.276968 0.387812
vn 0.727152 0.399907 0.557964
vn 0.908714 0.399907 0.119634
vn 0.676276 0.731248 0.089033
vn 0.541155 0.731249 0.415243
vn 0.955265 0.276968 -0.103716
vn 0.000000 1.000000 0.000000
vn 0.000000 1.000000 0.000000
vn 0.000000 1.000000 0.000000
vn 0.000000 1.000000 0.000000
vn -0.086336 -0.750007 0.655771
vn 0.253116 -0.750006 0.611083
vn -0.402652 -0.750007 0.524748
vn -0.611081 -0.750008 0.253118
vn -0.655772 -0.750006 -0.086335
vn -0.524750 -0.750005 -0.402652
vn -0.253120 -0.750004 -0.611084
vn 0.086334 -0.750004 -0.655775
vn 0.402655 -0.750004 -0.524750
vn 0.611085 -0.750004 -0.253120
vn 0.655774 -0.750004 0.086334
vn 0.524749 -0.750005 0.402654
vn 0.630187 0.731249 -0.261035
vn 0.916123 0.129295 -0.379475
vn 0.983123 0.129295 0.129431
vn 0.676276 0.731248 0.089033
vn 0.916123 0.129295 -0.379475
vn 0.630187 0.731249 -0.261035
vn 0.415243 0.731248 -0.541156
vn 0.603652 0.129295 -0.786694
vn 0.603652 0.129295 -0.786694
vn 0.415243 0.731248 -0.541156
vn 0.089032 0.731249 -0.676275
vn 0.129428 0.129296 -0.983123
vn 0.129428 0.129296 -0.983123
vn 0.089032 0.731249 -0.676275
vn -0.261032 0.731248 -0.630190
vn -0.379470 0.129294 -0.916125
vn -0.379470 0.129294 -0.916125
vn -0.261032 0.731248 -0.630190
vn -0.541153 0.731249 -0.415246
vn -0.786690 0.129294 -0.603657
vn -0.786690 0.129294 -0.603657
vn -0.541153 0.731249 -0.415246
vn -0.676276 0.731248 -0.089035
vn -0.983123 0.129294 -0.129432
vn -0.983123 0.129294 -0.129432
vn -0.676276 0.731248 -0.089035
vn -0.630190 0.731249 0.261029
vn -0.916127 0.129294 0.379466
vn -0.916127 0.129294 0.379466
vn -0.630190 0.731249 0.261029
vn -0.415242 0.731249 0.541156
vn -0.603650 0.129293 0.786696
vn -0.603650 0.129293 0.786696
vn -0.415242 0.731249 0.541156
vn -0.089033 0.731248 0.676276
vn -0.129431 0.129295 0.983123
vn -0.129431 0.129295 0.983123
vn -0.089033 0.731248 0.676276
vn 0.261032 0.731249 0.630189
vn 0.379471 0.129295 0.916125
vn 0.379471 0.129295 0.916125
vn 0.261032 0.731249 0.630189
vn 0.541155 0.731249 0.415243
vn 0.786694 0.129295 0.603652
vn 0.786694 0.129295 0.603652
vn 0.541155 0.731249 0.415243
vn 0.676276 0.731248 0.089033
vn 0.983123 0.129295 0.129431
vn 0.000000 1.000000 0.000000
vn 0.000000 1.000000 0.000000
vn 0.000000 1.000000 0.000000
vn 0.000000 1.000000 0.000000
vn 0.000000 1.000000 0.000000
vn 0.000000 1.000000 0.000000
vn 0.000000 1.000000 0.000000
vn 0.000000 1.000000 0.000000
vn 0.000000 1.000000 0.000000
vn 0.000000 1.000000 0.000000
vn 0.000000 1.000000 0.000000
vn 0.000000 1.000000 0.000000
vn 0.000000 1.000000 0.000000
vn 0.000000 1.000000 0.000000
vn 0.000000 1.000000 0.000000
vn 0.000000 1.000000 0.000000
vn 0.000000 -1.000000 0.000000
vn 0.000000 -1.000000 0.000000
vn 0.000000 -1.000000 0.000000
vn 0.000000 -1.000000 0.000000
vn -0.432787 0.901496 0.000000
vn -0.432787 0.901496 0.000000
vn -0.999796 0.020216 0.000000
vn -0.999796 0.020216 0.000000
vn 0.000000 0.901496 0.432788
vn 0.000000 0.901496 0.432788
vn 0.000000 0.020217 0.999796
vn 0.000000 0.020217 0.999796
vn 0.432787 0.901496 0.000000
vn 0.432787 0.901496 0.000000
vn 0.999796 0.020216 0.000000
vn 0.999796 0.020216 0.000000
vn 0.000000 0.901496 -0.432787
vn 0.000000 0.901496 -0.432787
vn 0.000000 0.020217 -0.999796
vn 0.000000 0.020217 -0.999796
vn 0.000000 -0.720203 0.693764
vn 0.000000 -0.720203 0.693764
vn 0.000000 -0.720203 0.693764
vn 0.000000 -0.720203 0.693764
vn 0.000000 0.891480 0.453060
vn 0.000000 0.891480 0.453060
vn 0.000000 0.891480 0.453060
vn 0.000000 0.891480 0.453060
vn 0.693764 -0.720203 0.000000
vn 0.693764 -0.720203 0.000000
vn 0.693764 -0.720203 0.000000
vn 0.693764 -0.720203 0.000000
vn 0.453060 0.891480 0.000000
vn 0.453060 0.891480 0.000000
vn 0.453060 0.891480 0.000000
vn 0.453060 0.891480 0.000000
vn 0.000000 -0.720203 -0.693764
vn 0.000000 -0.720203 -0.693764
vn 0.000000 -0.720203 -0.693764
vn 0.000000 -0.720203 -0.693764
vn 0.000000 0.891480 -0.453060
vn 0.000000 0.891480 -0.453060
vn 0.000000 0.891480 -0.453060
vn 0.000000 0.891480 -0.453060
vn -0.693764 -0.720203 0.000000
vn -0.693764 -0.720203 0.000000
vn -0.693764 -0.720203 0.000000
vn -0.693764 -0.720203 0.000000
vn -0.453060 0.891480 0.000000
vn -0.453060 0.891480 0.000000
vn -0.453060 0.891480 0.000000
vn -0.453060 0.891480 0.000000
vn 0.000000 -0.008718 0.999962
vn 0.000000 -0.008718 0.999962
vn 0.000000 -0.008718 0.999962
vn 0.000000 -0.008718 0.999962
vn -0.999962 -0.008718 0.000000
vn -0.999962 -0.008718 0.000000
vn -0.999962 -0.008718 0.000000
vn -0.999962 -0.008718 0.000000
vn 0.000000 -0.008718 -0.999962
vn 0.000000 -0.008718 -0.999962
vn 0.000000 -0.008718 -0.999962
vn 0.000000 -0.008718 -0.999962
vn 0.999962 -0.008718 0.000000
vn 0.999962 -0.008718 0.000000
vn 0.999962 -0.008718 0.000000
vn 0.999962 -0.008718 0.000000
vn 0.999999 0.001339 0.000000
vn 0.999999 0.001339 0.000000
vn 0.999997 -0.002442 0.000000
vn 0.999997 -0.002442 0.000000
vn 0.000000 0.001339 -0.999999
vn 0.000000 0.001339 -0.999999
vn 0.000000 -0.002442 -0.999997
vn 0.000000 -0.002442 -0.999997
vn -0.999999 0.001339 0.000000
vn -0.999999 0.001339 0.000000
vn -0.999997 -0.002442 0.000000
vn -0.999997 -0.002442 0.000000
vn 0.000000 0.001339 0.999999
vn 0.000000 0.001339 0.999999
vn 0.000000 -0.002442 0.999997
vn 0.000000 -0.002442 0.999997
vn -0.108691 -0.988116 0.108690
vn 0.108691 -0.988116 0.108690
vn 0.108692 -0.988116 0.108690
vn -0.108692 -0.988116 0.108690
vn -0.108691 -0.988116 -0.108690
vn -0.108691 -0.988116 0.108690
vn -0.108692 -0.988116 0.108690
vn -0.108692 -0.988116 -0.108690
vn 0.108691 -0.988116 -0.108690
vn -0.108691 -0.988116 -0.108690
vn -0.108692 -0.988116 -0.108690
vn 0.108692 -0.988116 -0.108690
vn 0.108691 -0.988116 0.108690
vn 0.108691 -0.988116 -0.108690
vn 0.108692 -0.988116 -0.108690
vn 0.108692 -0.988116 0.108690
vn 0.000000 1.000000 0.000000
vn 0.000000 1.000000 0.000000
vn 0.000000 1.000000 0.000000
vn 0.000000 1.000000 0.000000
vn 0.000000 1.000000 0.000000
vn 0.000000 1.000000 0.000000
vn 0.000000 1.000000 0.000000
vn 0.000000 1.000000 0.000000
vn 0.000000 1.000000 0.000000
vn 0.000000 1.000000 0.000000
vn 0.000000 1.000000 0.000000
vn 0.000000 1.000000 0.000000
vn 0.000000 1.000000 0.000000
vn 0.000000 1.000000 0.000000
vn 0.000000 1.000000 0.000000
vn 0.000000 1.000000 0.000000
vn 0.000000 1.000000 0.000000
vn 0.000000 1.000000 0.000000
vn 0.000000 1.000000 0.000000
vn 0.000000 1.000000 0.000000
vn 0.000000 1.000000 0.000000
vn 0.000000 1.000000 0.000000
vn 0.000000 1.000000 0.000000
vn 0.000000 1.000000 0.000000
vn 0.890671 0.027424 -0.453820
vn 0.309017 0.000000 -0.951057
vn 0.445578 0.191617 -0.874496
vn 0.874496 0.191617 -0.445578
vn -0.309017 0.000000 -0.951057
vn -0.153536 0.191617 -0.969386
vn -0.809017 0.000000 -0.587786
vn -0.694004 0.191617 -0.694004
vn -1.000000 0.000000 0.000000
vn -0.969386 0.191617 -0.153536
vn -0.809016 0.000000 0.587787
vn -0.874496 0.191617 0.445578
vn -0.309017 0.000000 0.951057
vn -0.445578 0.191617 0.874496
vn 0.309017 0.000000 0.951057
vn 0.153536 0.191617 0.969386
vn 0.809016 0.000000 0.587787
vn 0.694004 0.191617 0.694004
vn 1.000000 0.000000 0.000000
vn 0.969386 0.191617 0.153537
vn 0.660424 0.671272 -0.336502
vn 0.732085 0.671273 0.115952
vn 0.279353 0.959169 0.044245
vn 0.252008 0.959168 -0.128405
vn 0.128405 0.959168 -0.252008
vn 0.336503 0.671272 -0.660424
vn -0.044245 0.959169 -0.279353
vn -0.115951 0.671271 -0.732086
vn -0.199995 0.959168 -0.199995
vn -0.524115 0.671272 -0.524116
vn -0.279353 0.959169 -0.044245
vn -0.732085 0.671272 -0.115951
vn -0.252008 0.959168 0.128405
vn -0.660423 0.671273 0.336503
vn -0.128405 0.959168 0.252008
vn -0.336503 0.671273 0.660423
vn 0.044245 0.959168 0.279354
vn 0.115951 0.671272 0.732085
vn 0.199995 0.959168 0.199995
vn 0.524115 0.671272 0.524115
g Vent_B_LOD1 Vent_B
usemtl lambert27SG
f 35/2/1 13/1/2 49/3/3 50/4/4
f 49/3/3 13/1/2 15/5/5 51/35/6
f 15/5/5 13/1/2 37/66/7 38/65/8
f 15/5/5 17/6/9 52/37/10 51/35/11
f 17/6/9 15/5/5 38/65/8 39/64/12
f 17/6/13 19/7/14 53/39/15 52/37/16
f 19/7/17 17/6/9 39/64/12 40/63/18
f 19/7/19 21/8/20 54/41/21 53/39/22
f 21/8/23 19/7/17 40/63/18 41/62/24
f 21/8/25 23/9/26 55/43/27 54/41/28
f 23/9/29 21/8/23 41/62/24 42/61/30
f 23/9/31 25/10/32 56/45/33 55/43/34
f 25/10/35 23/9/29 42/61/30 43/60/36
f 25/10/37 27/11/38 57/47/39 56/45/40
f 27/11/41 25/10/35 43/60/36 44/59/42
f 27/11/43 29/12/44 58/49/45 57/47/46
f 29/12/47 27/11/41 44/59/42 45/58/48
f 29/12/49 31/13/50 59/51/51 58/49/52
f 31/13/53 29/12/47 45/58/48 46/57/54
f 31/13/55 33/14/56 60/53/57 59/51/58
f 33/14/59 31/13/53 46/57/54 47/69/60
f 33/15/61 35/2/62 50/4/63 60/56/64
f 35/2/1 33/15/59 47/68/60 48/67/65
f 26/16/66 16/17/67 18/18/68 24/19/69
f 13/1/2 35/2/1 48/67/65 37/66/7
f 9/20/70 10/21/71 46/79/54 45/78/48
f 8/22/72 9/20/70 45/78/48 44/77/42
f 7/23/73 8/22/72 44/77/42 43/76/36
f 6/24/74 7/23/73 43/76/36 42/75/30
f 5/25/75 6/24/74 42/75/30 41/74/24
f 4/26/76 5/25/75 41/74/24 40/73/18
f 3/27/77 4/26/76 40/73/18 39/72/12
f 2/28/78 3/27/77 39/72/12 38/71/8
f 1/29/79 2/28/78 38/71/8 37/70/7
f 12/30/80 1/29/79 37/70/7 48/81/65
f 11/31/81 12/30/80 48/81/65 47/82/60
f 10/21/71 11/32/81 47/80/60 46/79/54
f 49/3/82 14/33/83 36/34/84 50/4/85
f 14/33/86 49/3/87 51/35/88 16/36/89
f 16/36/90 51/35/91 52/37/92 18/38/93
f 18/38/94 52/37/95 53/39/96 20/40/97
f 20/40/98 53/39/99 54/41/100 22/42/101
f 22/42/102 54/41/103 55/43/104 24/44/105
f 24/44/106 55/43/107 56/45/108 26/46/109
f 26/46/110 56/45/111 57/47/112 28/48/113
f 28/48/114 57/47/115 58/49/116 30/50/117
f 30/50/118 58/49/119 59/51/120 32/52/121
f 32/52/122 59/51/123 60/53/124 34/54/125
f 34/55/126 60/56/127 50/4/128 36/34/129
f 24/19/130 18/18/131 20/83/132 22/84/133
f 36/85/134 14/86/135 28/87/136 30/88/137
f 36/85/138 30/88/139 32/89/140 34/90/141
f 16/17/142 26/16/143 28/87/144 14/86/145
f 63/91/146 64/92/147 62/93/148 61/94/149
f 65/95/150 67/96/151 63/109/152 61/110/153
f 66/98/154 65/97/155 61/103/156 62/104/157
f 68/100/158 66/99/159 62/107/160 64/108/161
f 67/101/162 68/102/163 64/105/164 63/106/165
f 65/97/166 66/98/167 73/111/168 74/112/169
f 69/119/170 70/120/171 74/112/172 73/111/173
f 66/99/174 68/100/175 75/114/176 73/113/177
f 71/121/178 69/122/179 73/113/180 75/114/181
f 68/102/182 67/101/183 76/116/184 75/115/185
f 72/123/186 71/124/187 75/115/188 76/116/189
f 67/96/190 65/95/191 74/118/192 76/117/193
f 70/125/194 72/126/195 76/117/196 74/118/197
f 82/127/198 81/128/199 83/129/200 84/130/201
f 85/131/202 82/132/203 84/133/204 86/134/205
f 87/135/206 85/136/207 86/137/208 88/138/209
f 81/139/210 87/140/211 88/141/212 83/142/213
f 69/122/214 71/121/215 80/145/216 77/146/217
f 71/124/218 72/123/219 79/147/220 80/148/221
f 72/126/222 70/125/223 78/149/224 79/150/225
f 70/120/226 69/119/227 77/143/228 78/144/229
f 78/144/230 77/143/231 81/128/232 82/127/233
f 79/150/234 78/149/235 82/132/236 85/131/237
f 80/148/238 79/147/239 85/136/240 87/135/241
f 77/146/242 80/145/243 87/140/244 81/139/245
f 84/151/246 83/152/247 89/153/248
f 92/154/249 88/155/250 90/156/251
f 90/156/252 86/157/253 91/158/254
f 91/158/255 84/151/256 89/153/257
f 83/152/258 92/154/259 89/153/260
f 83/152/261 88/155/262 92/154/263
f 88/155/264 86/157/265 90/156/266
f 86/157/267 84/151/268 91/158/269
f 93/159/270 94/161/271 132/162/272 103/160/273
f 94/161/271 95/163/274 131/164/275 132/162/272
f 95/163/274 96/165/276 130/166/277 131/164/275
f 96/165/276 97/167/278 129/168/279 130/166/277
f 97/167/278 98/169/280 128/170/281 129/168/279
f 98/171/280 99/172/282 127/174/283 128/173/281
f 99/172/282 100/175/284 126/176/285 127/174/283
f 100/175/284 101/177/286 125/178/287 126/176/285
f 101/177/286 102/179/288 124/180/289 125/178/287
f 102/179/288 93/159/270 103/160/273 124/180/289
f 124/181/289 103/218/273 104/182/290 122/183/291
f 123/184/292 122/183/291 104/182/290 105/185/293
f 107/186/294 105/185/293 104/182/290 106/187/295
f 103/218/273 132/188/272 106/187/295 104/182/290
f 109/189/296 107/186/294 106/187/295 108/190/297
f 132/191/272 131/192/275 108/193/297 106/194/295
f 111/195/298 109/189/296 108/190/297 110/196/299
f 131/192/275 130/197/277 110/198/299 108/193/297
f 113/199/300 111/195/298 110/196/299 112/200/301
f 130/197/277 129/201/279 112/200/301 110/198/299
f 115/202/302 113/199/300 112/200/301 114/203/303
f 129/201/279 128/204/281 114/203/303 112/200/301
f 117/205/304 115/202/302 114/203/303 116/206/305
f 128/204/281 127/207/283 116/206/305 114/203/303
f 119/208/306 117/205/304 116/206/305 118/209/307
f 127/207/283 126/210/285 118/211/307 116/206/305
f 121/212/308 119/208/306 118/209/307 120/213/309
f 118/211/307 126/210/285 125/214/287 120/215/309
f 123/184/292 121/212/308 120/213/309 122/183/291
f 125/216/287 124/181/289 122/183/291 120/217/309
f 123/184/292 105/185/293 107/186/294 109/189/296 111/195/298 113/199/300 115/202/302 117/205/304 119/208/306 121/212/308
