# This file uses meters as units for non-parametric coordinates.

mtllib Vent_A_LOD1.mtl
g default
v 15.167725 19.193789 -15.167736
v 0.000000 19.193789 -21.450432
v -15.167725 19.193789 -15.167759
v -21.450439 19.193789 -0.000013
v -15.167725 19.193789 15.167738
v 0.000000 19.193789 21.450430
v 15.167725 19.193789 15.167737
v 21.450439 19.193789 0.000005
v 14.543213 21.292191 -14.542904
v 0.000000 21.292191 -20.566790
v -14.543213 21.292191 -14.542927
v -20.566895 21.292191 -0.000013
v -14.543213 21.292191 14.542909
v 0.000000 21.292191 20.566786
v 14.543213 21.292191 14.542909
v 20.566895 21.292191 0.000005
v 26.672852 1.896327 -17.821987
v 26.561033 33.405975 -17.747389
v 6.258301 1.896327 -31.462368
v 6.232178 33.405975 -31.330671
v -17.821777 1.896327 -26.672537
v -17.747559 33.405975 -26.560888
v -31.462400 1.896327 -6.258265
v -31.330568 33.405975 -6.232071
v -26.672852 1.896327 17.821995
v -26.561033 33.405975 17.747395
v -6.258301 1.896327 31.462385
v -6.232178 33.405975 31.330685
v 17.821777 1.896327 26.672512
v 17.747559 33.405975 26.560867
v 31.462400 1.896327 6.258257
v 31.330568 33.405975 6.232060
v 30.418699 0.000003 -20.325150
v 7.137207 0.000005 -35.881367
v -20.325195 0.000003 -30.418789
v -35.881348 0.000005 -7.137260
v -30.418699 0.000005 20.325153
v -7.137207 0.000005 35.881378
v 20.325195 0.000005 30.418762
v 35.881348 0.000005 7.137248
v 24.827881 33.405975 -16.589499
v 5.825439 33.405975 -29.286572
v -16.589844 33.405975 -24.827978
v -29.286619 33.405975 -5.825472
v -24.827881 33.405975 16.589506
v -5.825439 33.405975 29.286577
v 16.589844 33.405975 24.827963
v 29.286619 33.405975 5.825463
v 24.160889 19.787863 -16.143732
v 5.668945 19.787863 -28.499634
v -16.143799 19.787863 -24.160845
v -28.499512 19.787863 -5.668940
v -24.160889 19.787863 16.143740
v -5.668945 19.787863 28.499641
v 16.143799 19.787863 24.160831
v 28.499512 19.787863 5.668930
v 11.390625 20.842247 -11.390597
v 0.000000 20.842247 -16.108747
v -11.390625 20.842247 -11.390612
v -16.108643 20.842247 -0.000010
v -11.390625 20.842247 11.390600
v 0.000000 20.842247 16.108746
v 11.390625 20.842247 11.390597
v 16.108643 20.842247 0.000004
v 9.122070 45.108486 -9.122002
v 0.000000 45.108486 -12.900466
v -9.122070 45.108486 -9.122015
v -12.900634 45.108486 -0.000008
v -9.122070 45.108486 9.122003
v 0.000000 45.108486 12.900463
v 9.122070 45.108486 9.122002
v 12.900634 45.108486 0.000003
vt 0.607246 0.133525
vt 0.604271 0.181367
vt 0.694098 0.098417
vt 0.690986 0.104795
vt 0.729437 0.138386
vt 0.722717 0.140699
vt 0.726122 0.191664
vt 0.719741 0.188540
vt 0.686113 0.226946
vt 0.683811 0.220230
vt 0.632889 0.223648
vt 0.636002 0.217269
vt 0.597551 0.183679
vt 0.600865 0.130401
vt 0.640875 0.095119
vt 0.643177 0.101835
vt 0.818424 0.282999
vt 0.821962 0.277703
vt 0.502138 0.897871
vt 0.502138 0.994151
vt 0.883486 0.100941
vt 0.776915 0.220876
vt 0.783161 0.219634
vt 0.425808 0.897871
vt 0.425808 0.994151
vt 0.951655 0.138149
vt 0.791491 0.147599
vt 0.796786 0.151137
vt 0.349475 0.897871
vt 0.349475 0.994151
vt 0.973548 0.212661
vt 0.853613 0.106090
vt 0.854855 0.112337
vt 0.273140 0.897871
vt 0.273140 0.994151
vt 0.936341 0.280830
vt 0.926891 0.120666
vt 0.923352 0.125962
vt 0.196803 0.897871
vt 0.196803 0.994151
vt 0.861828 0.302723
vt 0.968399 0.182788
vt 0.962153 0.184031
vt 0.120466 0.897871
vt 0.120466 0.994151
vt 0.793659 0.265516
vt 0.953823 0.256066
vt 0.948528 0.252528
vt 0.044129 0.897871
vt 0.044129 0.994151
vt 0.771766 0.191003
vt 0.891701 0.297574
vt 0.890459 0.291328
vt 0.578464 0.897871
vt 0.578464 0.994151
vt 0.808974 0.122834
vt 0.885430 0.082698
vt 0.965930 0.126624
vt 0.991791 0.214605
vt 0.947866 0.295105
vt 0.859884 0.320967
vt 0.779384 0.277041
vt 0.753523 0.189059
vt 0.797448 0.108560
vt 0.150417 0.040981
vt 0.150417 0.082296
vt 0.220522 0.040981
vt 0.220522 0.082296
vt 0.290757 0.040981
vt 0.290757 0.082296
vt 0.360975 0.040981
vt 0.360975 0.082296
vt 0.431027 0.040981
vt 0.431027 0.082296
vt 0.500766 0.040981
vt 0.500766 0.082296
vt 0.570045 0.040981
vt 0.570045 0.082296
vt 0.011189 0.040981
vt 0.011189 0.082296
vt 0.080590 0.040981
vt 0.080590 0.082296
vt 0.958163 0.184824
vt 0.921093 0.129343
vt 0.800168 0.153397
vt 0.945146 0.250267
vt 0.855649 0.116326
vt 0.889665 0.287339
vt 0.787151 0.218840
vt 0.824222 0.274321
vt 0.030692 0.402191
vt 0.059757 0.394892
vt 0.015301 0.427904
vt 0.085470 0.410283
vt 0.022600 0.456969
vt 0.092769 0.439348
vt 0.077378 0.465061
vt 0.048313 0.472360
vt 0.036451 0.499634
vt 0.025574 0.554314
vt 0.182219 0.108583
vt 0.197887 0.181724
vt 0.220130 0.102470
vt 0.228248 0.176827
vt 0.258468 0.100259
vt 0.258950 0.175057
vt 0.296831 0.101975
vt 0.289673 0.176431
vt 0.012539 0.194086
vt 0.062002 0.250197
vt 0.042607 0.170199
vt 0.086081 0.231067
vt 0.074957 0.149506
vt 0.111988 0.214496
vt 0.109250 0.132225
vt 0.139451 0.200657
vt 0.145129 0.118537
vt 0.168185 0.189694
vt 0.019688 0.524722
vt 0.091131 0.510511
vt 0.097017 0.540103
vt 0.050662 0.571077
vt 0.066043 0.493748
vt 0.080254 0.565191
vn 0.921618 0.388098 0.000000
vn 0.651682 0.388099 -0.651682
vn 0.056498 0.996803 -0.056498
vn 0.064655 0.997908 0.000000
vn 0.056498 0.996803 -0.056498
vn 0.651682 0.388099 -0.651682
vn 0.000001 0.388097 -0.921619
vn 0.000001 0.940465 -0.339891
vn 0.000001 0.940465 -0.339891
vn 0.000001 0.388097 -0.921619
vn -0.651682 0.388100 -0.651682
vn -0.091992 0.991501 -0.091992
vn -0.091992 0.991501 -0.091992
vn -0.651682 0.388100 -0.651682
vn -0.921620 0.388094 -0.000001
vn -0.064655 0.997908 0.000000
vn -0.064655 0.997908 0.000000
vn -0.921620 0.388094 -0.000001
vn -0.651683 0.388098 0.651682
vn -0.056498 0.996803 0.056498
vn 0.000000 0.940465 0.339891
vn -0.056498 0.996803 0.056498
vn -0.651683 0.388098 0.651682
vn 0.000000 0.388098 0.921618
vn 0.091992 0.991501 0.091992
vn 0.000000 0.940465 0.339891
vn 0.000000 0.388098 0.921618
vn 0.651683 0.388095 0.651683
vn 0.091992 0.991501 0.091992
vn 0.651683 0.388095 0.651683
vn 0.921618 0.388098 0.000000
vn 0.064655 0.997908 0.000000
vn -0.091992 0.991501 -0.091992
vn -0.064655 0.997908 0.000000
vn -0.056498 0.996803 0.056498
vn 0.000000 1.000000 0.000000
vn 0.091992 0.991501 0.091992
vn 0.064655 0.997908 0.000000
vn 0.056498 0.996803 -0.056498
vn 0.000001 0.940465 -0.339891
vn 0.000000 1.000000 0.000000
vn 0.000000 1.000000 0.000000
vn 0.000000 1.000000 0.000000
vn 0.000000 1.000000 0.000000
vn 0.831462 0.004261 -0.555565
vn 0.831463 0.004261 -0.555564
vn 0.980777 0.004261 0.195088
vn 0.980777 0.004261 0.195088
vn 0.771779 0.372057 -0.515686
vn 0.000001 1.000000 0.000000
vn 0.000000 1.000000 0.000000
vn 0.910375 0.372056 0.181085
vn 0.000000 1.000000 0.000000
vn 0.000000 1.000000 0.000000
vn 0.000000 1.000000 0.000001
vn 0.000000 1.000000 0.000001
vn 0.831463 0.004261 -0.555564
vn 0.831462 0.004261 -0.555565
vn 0.195090 0.004261 -0.980776
vn 0.195090 0.004261 -0.980776
vn 0.000000 1.000000 0.000000
vn 0.000001 1.000000 0.000000
vn 0.771779 0.372057 -0.515686
vn 0.181085 0.372059 -0.910374
vn 0.000000 1.000000 0.000001
vn 0.000000 1.000000 0.000001
vn 0.000000 1.000000 0.000000
vn 0.000000 1.000000 0.000000
vn 0.195090 0.004261 -0.980776
vn 0.195090 0.004261 -0.980776
vn -0.555565 0.004261 -0.831462
vn -0.555565 0.004261 -0.831462
vn 0.000000 1.000000 -0.000001
vn 0.000000 1.000000 0.000000
vn 0.181085 0.372059 -0.910374
vn -0.515684 0.372061 -0.771777
vn 0.000000 1.000000 0.000000
vn 0.000000 1.000000 0.000000
vn 0.000000 1.000000 0.000000
vn 0.000000 1.000000 0.000000
vn -0.555565 0.004261 -0.831462
vn -0.555565 0.004261 -0.831462
vn -0.980776 0.004262 -0.195089
vn -0.980776 0.004262 -0.195089
vn 0.000000 1.000000 0.000000
vn 0.000000 1.000000 -0.000001
vn -0.515684 0.372061 -0.771777
vn -0.910374 0.372059 -0.181085
vn 0.000000 1.000000 0.000000
vn 0.000000 1.000000 0.000000
vn 0.000000 1.000000 0.000000
vn 0.000000 1.000000 0.000000
vn -0.980776 0.004262 -0.195089
vn -0.980776 0.004262 -0.195089
vn -0.831462 0.004261 0.555565
vn -0.831462 0.004261 0.555565
vn 0.000000 1.000000 0.000000
vn 0.000000 1.000000 0.000000
vn -0.910374 0.372059 -0.181085
vn -0.771777 0.372061 0.515685
vn 0.000000 1.000000 0.000000
vn 0.000000 1.000000 0.000000
vn 0.000000 1.000000 0.000000
vn 0.000000 1.000000 0.000000
vn -0.831462 0.004261 0.555565
vn -0.831462 0.004261 0.555565
vn -0.195089 0.004261 0.980776
vn -0.195089 0.004261 0.980776
vn 0.000000 1.000000 0.000000
vn 0.000000 1.000000 0.000000
vn -0.771777 0.372061 0.515685
vn -0.181085 0.372060 0.910374
vn 0.000000 1.000000 0.000000
vn 0.000000 1.000000 0.000000
vn 0.000000 1.000000 0.000000
vn 0.000000 1.000000 0.000000
vn -0.195089 0.004261 0.980776
vn -0.195089 0.004261 0.980776
vn 0.555565 0.004261 0.831462
vn 0.555565 0.004261 0.831462
vn 0.000000 1.000000 0.000000
vn 0.000000 1.000000 0.000000
vn -0.181085 0.372060 0.910374
vn 0.515686 0.372057 0.771779
vn 0.000000 1.000000 0.000000
vn 0.000000 1.000000 0.000000
vn 0.000000 1.000000 0.000000
vn 0.000000 1.000000 0.000000
vn 0.555565 0.004261 0.831462
vn 0.555565 0.004261 0.831462
vn 0.980777 0.004261 0.195088
vn 0.980777 0.004261 0.195088
vn 0.000000 1.000000 0.000000
vn 0.000000 1.000000 0.000000
vn 0.515686 0.372057 0.771779
vn 0.910375 0.372056 0.181085
vn -0.979088 0.058814 -0.194753
vn -0.830031 0.058817 0.554608
vn -0.830031 0.058817 0.554608
vn -0.979088 0.058814 -0.194752
vn -0.830031 0.058817 0.554608
vn -0.830031 0.058817 0.554608
vn -0.194753 0.058816 0.979087
vn -0.194753 0.058816 0.979087
vn -0.194753 0.058816 0.979087
vn -0.194753 0.058816 0.979087
vn 0.554608 0.058816 0.830030
vn 0.554608 0.058816 0.830030
vn 0.554608 0.058816 0.830030
vn 0.554608 0.058816 0.830030
vn 0.979087 0.058817 0.194753
vn 0.979087 0.058817 0.194753
vn 0.979087 0.058817 0.194753
vn 0.979087 0.058817 0.194753
vn 0.830031 0.058817 -0.554608
vn 0.830031 0.058817 -0.554608
vn 0.830031 0.058817 -0.554608
vn 0.830031 0.058817 -0.554608
vn 0.194752 0.058816 -0.979088
vn 0.194752 0.058816 -0.979088
vn 0.194752 0.058816 -0.979088
vn 0.194752 0.058816 -0.979088
vn -0.554609 0.058816 -0.830030
vn -0.554609 0.058816 -0.830030
vn -0.554609 0.058816 -0.830030
vn -0.554609 0.058816 -0.830030
vn -0.979088 0.058814 -0.194753
vn -0.979088 0.058814 -0.194752
vn 0.000000 1.000000 0.000000
vn 0.000000 1.000000 0.000000
vn 0.000000 1.000000 0.000000
vn 0.000000 1.000000 0.000000
vn 0.000000 1.000000 0.000000
vn 0.000000 1.000000 0.000000
vn 0.000000 1.000000 0.000000
vn 0.000000 1.000000 0.000000
vn 0.000000 -1.000000 0.000000
vn 0.000000 -1.000000 0.000000
vn 0.000000 -1.000000 0.000000
vn 0.000000 -1.000000 0.000000
vn 0.000000 -1.000000 0.000000
vn 0.000000 -1.000000 0.000000
vn 0.000000 -1.000000 0.000000
vn 0.000000 -1.000000 0.000000
vn 0.000000 1.000000 0.000000
vn 0.000000 1.000000 0.000000
vn 0.000000 1.000000 0.000000
vn 0.000000 1.000000 -0.000001
vn 0.000000 1.000000 0.000000
vn 0.000000 1.000000 0.000000
vn 0.000000 1.000000 0.000000
vn 0.000000 1.000000 0.000000
vn 0.991373 0.131072 0.000000
vn 0.701006 0.131071 -0.701007
vn 0.701006 0.131071 -0.701007
vn 0.991373 0.131072 0.000000
vn 0.701006 0.131071 -0.701007
vn 0.701006 0.131071 -0.701007
vn 0.000001 0.131071 -0.991373
vn 0.000001 0.131071 -0.991373
vn -0.701006 0.131071 -0.701007
vn 0.000001 0.131071 -0.991373
vn 0.000001 0.131071 -0.991373
vn -0.701006 0.131071 -0.701007
vn -0.701006 0.131071 -0.701007
vn -0.701006 0.131071 -0.701007
vn -0.991373 0.131071 0.000000
vn -0.991373 0.131071 0.000000
vn -0.991373 0.131071 0.000000
vn -0.991373 0.131071 0.000000
vn -0.701007 0.131071 0.701006
vn -0.701007 0.131071 0.701006
vn -0.701007 0.131071 0.701006
vn -0.701007 0.131071 0.701006
vn 0.000000 0.131071 0.991373
vn 0.000000 0.131071 0.991373
vn 0.000000 0.131071 0.991373
vn 0.000000 0.131071 0.991373
vn 0.701007 0.131071 0.701006
vn 0.701007 0.131071 0.701006
vn 0.701007 0.131071 0.701006
vn 0.701007 0.131071 0.701006
vn 0.991373 0.131072 0.000000
vn 0.991373 0.131072 0.000000
g Vent_A_LOD1 Vent_A
usemtl lambert27SG
f 8/15/1 1/3/2 9/4/3 16/16/4
f 9/4/5 1/3/6 2/5/7 10/6/8
f 10/6/9 2/5/10 3/7/11 11/8/12
f 11/8/13 3/7/14 4/9/15 12/10/16
f 12/10/17 4/9/18 5/11/19 13/12/20
f 14/2/21 13/12/22 5/11/23 6/13/24
f 15/1/25 14/2/26 6/13/27 7/14/28
f 15/1/29 7/14/30 8/15/31 16/16/32
f 11/8/33 12/10/34 13/12/35 14/2/36 15/1/37 16/16/38 9/4/39 10/6/40
f 18/17/41 41/18/42 48/53/43 32/52/44
f 17/20/45 18/19/46 32/54/47 31/55/48
f 33/57/49 17/21/50 31/56/51 40/64/52
f 41/18/53 18/17/54 20/22/55 42/23/56
f 18/19/57 17/20/58 19/25/59 20/24/60
f 19/26/61 17/21/62 33/57/63 34/58/64
f 42/23/65 20/22/66 22/27/67 43/28/68
f 20/24/69 19/25/70 21/30/71 22/29/72
f 21/31/73 19/26/74 34/58/75 35/59/76
f 43/28/77 22/27/78 24/32/79 44/33/80
f 22/29/81 21/30/82 23/35/83 24/34/84
f 23/36/85 21/31/86 35/59/87 36/60/88
f 44/33/89 24/32/90 26/37/91 45/38/92
f 24/34/93 23/35/94 25/40/95 26/39/96
f 25/41/97 23/36/98 36/60/99 37/61/100
f 45/38/101 26/37/102 28/42/103 46/43/104
f 26/39/105 25/40/106 27/45/107 28/44/108
f 27/46/109 25/41/110 37/61/111 38/62/112
f 46/43/113 28/42/114 30/47/115 47/48/116
f 28/44/117 27/45/118 29/50/119 30/49/120
f 29/51/121 27/46/122 38/62/123 39/63/124
f 47/48/125 30/47/126 32/52/127 48/53/128
f 30/49/129 29/50/130 31/55/131 32/54/132
f 31/56/133 29/51/134 39/63/135 40/64/136
f 48/81/137 41/65/138 49/66/139 56/82/140
f 49/66/141 41/65/142 42/67/143 50/68/144
f 50/68/145 42/67/146 43/69/147 51/70/148
f 51/70/149 43/69/150 44/71/151 52/72/152
f 52/72/153 44/71/154 45/73/155 53/74/156
f 53/74/157 45/73/158 46/75/159 54/76/160
f 54/76/161 46/75/162 47/77/163 55/78/164
f 55/80/165 47/79/166 48/81/167 56/82/168
f 56/88/169 49/90/170 50/89/171 51/85/172 52/87/173 53/84/174 54/83/175 55/86/176
f 35/97/177 34/98/178 33/95/179 40/93/180 39/91/181 38/92/182 37/94/183 36/96/184
f 71/124/185 72/122/186 65/100/187 66/119/188 67/99/189 68/123/190 69/120/191 70/121/192
f 64/117/193 57/101/194 65/102/195 72/118/196
f 65/102/197 57/101/198 58/103/199 66/104/200
f 67/106/201 66/104/202 58/103/203 59/105/204
f 67/106/205 59/105/206 60/107/207 68/108/208
f 68/110/209 60/109/210 61/111/211 69/112/212
f 69/112/213 61/111/214 62/113/215 70/114/216
f 70/114/217 62/113/218 63/115/219 71/116/220
f 71/116/221 63/115/222 64/117/223 72/118/224
