# This file uses meters as units for non-parametric coordinates.

mtllib BuildingD_Bottom_Wall_VarB_mdl.mtl
g default
v -50.000000 0.000000 0.000000
v 0.000000 0.000000 0.000000
v -50.000000 500.000000 0.000000
v 0.000000 500.000000 0.000000
v -50.000000 500.000000 -400.000000
v 0.000000 500.000000 -400.000000
v -50.000000 0.000000 -400.000000
v 0.000000 0.000000 -400.000000
v 0.000000 151.418945 0.000000
v 0.000000 151.418945 -400.000000
vt 0.502290 0.000314
vt 0.999500 0.000314
vt 0.999500 0.433609
vt 0.502290 0.433609
vt 0.000499 0.001236
vt 0.497710 0.001236
vt 0.497710 0.622749
vt 0.000499 0.622749
vt 0.502290 0.439203
vt 0.999501 0.439203
vt 0.999501 0.627421
vt 0.502290 0.627421
vn 1.000000 0.000000 0.000000
vn 1.000000 0.000000 0.000000
vn 1.000000 0.000000 0.000000
vn 1.000000 0.000000 0.000000
vn -1.000000 0.000000 0.000000
vn -1.000000 0.000000 0.000000
vn -1.000000 0.000000 0.000000
vn -1.000000 0.000000 0.000000
vn 1.000000 0.000000 0.000000
vn 1.000000 0.000000 0.000000
g BuildingD_Bottom_Wall_VarB_mdl
usemtl lambert3SG
f 9/1/1 10/2/2 6/3/3 4/4/4
usemtl lambert4SG
f 7/5/5 1/6/6 3/7/7 5/8/8
usemtl lambert2SG
f 2/9/9 8/10/10 10/11/2 9/12/1
