# This file uses meters as units for non-parametric coordinates.

mtllib BuildingD_Ledge_VarB_LOD0.mtl
g default
v -53.984856 84.297516 0.000000
v 1.974667 84.297516 0.000000
v -53.984856 100.000061 0.000000
v 1.974667 100.000061 0.000000
v -53.984856 100.000061 -400.000000
v 1.974667 100.000061 -400.000000
v -53.984856 84.297516 -400.000000
v 1.974667 84.297516 -400.000000
v -52.010189 0.000000 0.000000
v -0.000002 0.000000 0.000000
v -52.010189 84.297516 0.000000
v -0.000002 84.297516 0.000000
v -52.010189 84.297516 -400.000000
v -0.000002 84.297516 -400.000000
v -52.010189 0.000000 -400.000000
v -0.000002 0.000000 -400.000000
v -50.254219 84.297516 0.000000
v -50.254219 84.297516 -400.000000
v -50.254219 100.000061 -400.000000
v -50.254219 100.000061 0.000000
v -1.755993 84.297516 0.000000
v -1.755993 84.297516 -400.000000
v -1.755993 100.000061 -400.000000
v -1.755993 100.000061 0.000000
v -53.984856 88.327850 0.000000
v -50.254219 88.327850 0.000000
v -1.755993 88.327850 0.000000
v 1.974667 88.327850 0.000000
v 1.974667 88.327850 -400.000000
v -1.755993 88.327850 -400.000000
v -50.254219 88.327850 -400.000000
v -53.984856 88.327850 -400.000000
v -53.984856 95.969727 0.000000
v -50.254219 95.969727 0.000000
v -1.755993 95.969727 0.000000
v 1.974667 95.969727 0.000000
v 1.974667 95.969727 -400.000000
v -1.755993 95.969727 -400.000000
v -50.254219 95.969727 -400.000000
v -53.984856 95.969727 -400.000000
vt 0.157706 0.036943
vt 0.157706 0.027611
vt 0.166345 0.027611
vt 0.166345 0.036943
vt 0.157706 0.963142
vt 0.166345 0.963142
vt 0.166345 0.972474
vt 0.157706 0.972474
vt 0.211342 0.036943
vt 0.211342 0.963142
vt 0.202704 0.963142
vt 0.202704 0.036943
vt 0.175677 0.036943
vt 0.175677 0.963142
vt 0.027438 0.963142
vt 0.027438 0.036943
vt 0.036770 0.036943
vt 0.036770 0.963142
vt 0.334141 0.930432
vt 0.334141 0.001802
vt 0.529772 0.002144
vt 0.527940 0.930432
vt 0.534020 0.626900
vt 0.534020 0.000500
vt 0.822630 0.000500
vt 0.822630 0.626900
vt 0.332278 0.963142
vt 0.323640 0.963142
vt 0.323640 0.036943
vt 0.332278 0.036943
vt 0.045409 0.963142
vt 0.045409 0.972474
vt 0.036770 0.972474
vt 0.045409 0.036943
vt 0.036770 0.027611
vt 0.045409 0.027611
vt 0.036770 0.000584
vt 0.045409 0.000584
vt 0.045409 0.009916
vt 0.036770 0.009916
vt 0.157706 0.009916
vt 0.157706 0.000584
vt 0.166345 0.009916
vt 0.166345 0.000584
vt 0.193371 0.963142
vt 0.193372 0.036943
vt 0.157706 0.999501
vt 0.157706 0.990168
vt 0.166345 0.990169
vt 0.166345 0.999501
vt 0.045409 0.999501
vt 0.045409 0.990168
vt 0.036770 0.990168
vt 0.036770 0.999501
vt 0.000411 0.963142
vt 0.000411 0.036943
vt 0.009743 0.036943
vt 0.009744 0.963142
vn 0.000000 0.000000 1.000000
vn 0.000000 0.000000 1.000000
vn 0.000000 0.000000 1.000000
vn 0.000000 0.000000 1.000000
vn 0.000000 1.000000 0.000000
vn 0.000000 1.000000 0.000000
vn 0.733863 0.679297 0.000000
vn 0.733863 0.679297 0.000000
vn 0.000000 0.000000 -1.000000
vn 0.000000 0.000000 -1.000000
vn 0.000000 0.000000 -1.000000
vn 0.000000 0.000000 -1.000000
vn 0.000000 -1.000000 0.000000
vn 0.000000 -1.000000 0.000000
vn 0.733863 -0.679297 0.000000
vn 0.733863 -0.679297 0.000000
vn 1.000000 0.000000 0.000000
vn 1.000000 0.000000 0.000000
vn -1.000000 0.000000 0.000000
vn -1.000000 0.000000 0.000000
vn -0.733866 0.679295 0.000000
vn -0.733866 0.679295 0.000000
vn 1.000000 0.000000 0.000000
vn 1.000000 0.000000 0.000000
vn 1.000000 0.000000 0.000000
vn 1.000000 0.000000 0.000000
vn -1.000000 0.000000 0.000000
vn -1.000000 0.000000 0.000000
vn -1.000000 0.000000 0.000000
vn -1.000000 0.000000 0.000000
vn -0.733866 -0.679295 0.000000
vn 0.000000 -1.000000 0.000000
vn 0.000000 -1.000000 0.000000
vn -0.733866 -0.679295 0.000000
vn 0.000000 0.000000 -1.000000
vn 0.000000 0.000000 -1.000000
vn 0.000000 0.000000 -1.000000
vn 0.000000 0.000000 -1.000000
vn 0.000000 1.000000 0.000000
vn 0.000000 1.000000 0.000000
vn 0.000000 0.000000 1.000000
vn 0.000000 0.000000 1.000000
vn 0.000000 0.000000 1.000000
vn 0.000000 0.000000 1.000000
vn 0.000000 0.000000 -1.000000
vn 0.000000 0.000000 -1.000000
vn 0.000000 0.000000 -1.000000
vn 0.000000 0.000000 -1.000000
vn 0.000000 0.000000 1.000000
vn 0.000000 0.000000 1.000000
vn 0.000000 0.000000 1.000000
vn 0.000000 0.000000 1.000000
vn 0.000000 0.000000 1.000000
vn 0.000000 0.000000 1.000000
vn 0.000000 0.000000 1.000000
vn 0.000000 0.000000 1.000000
vn 0.000000 0.000000 1.000000
vn 0.000000 0.000000 1.000000
vn 0.000000 0.000000 1.000000
vn 0.000000 0.000000 1.000000
vn 0.000000 0.000000 1.000000
vn 0.000000 0.000000 1.000000
vn 0.000000 0.000000 1.000000
vn 0.000000 0.000000 1.000000
vn 1.000000 0.000000 0.000000
vn 1.000000 0.000000 0.000000
vn 0.000000 0.000000 -1.000000
vn 0.000000 0.000000 -1.000000
vn 0.000000 0.000000 -1.000000
vn 0.000000 0.000000 -1.000000
vn 0.000000 0.000000 -1.000000
vn 0.000000 0.000000 -1.000000
vn 0.000000 0.000000 -1.000000
vn 0.000000 0.000000 -1.000000
vn 0.000000 0.000000 -1.000000
vn 0.000000 0.000000 -1.000000
vn 0.000000 0.000000 -1.000000
vn 0.000000 0.000000 -1.000000
vn -1.000000 0.000000 0.000000
vn -1.000000 0.000000 0.000000
vn 0.000000 0.000000 1.000000
vn 0.000000 0.000000 1.000000
vn 0.000000 0.000000 1.000000
vn 0.000000 0.000000 1.000000
vn 0.000000 0.000000 1.000000
vn 0.000000 0.000000 1.000000
vn 0.000000 0.000000 1.000000
vn 0.000000 0.000000 1.000000
vn 0.000000 0.000000 1.000000
vn 0.000000 0.000000 1.000000
vn 0.000000 0.000000 1.000000
vn 0.000000 0.000000 1.000000
vn 0.000000 0.000000 -1.000000
vn 0.000000 0.000000 -1.000000
vn 0.000000 0.000000 -1.000000
vn 0.000000 0.000000 -1.000000
vn 0.000000 0.000000 -1.000000
vn 0.000000 0.000000 -1.000000
vn 0.000000 0.000000 -1.000000
vn 0.000000 0.000000 -1.000000
vn 0.000000 0.000000 -1.000000
vn 0.000000 0.000000 -1.000000
vn 0.000000 0.000000 -1.000000
vn 0.000000 0.000000 -1.000000
g BuildingD_Ledge_VarB_LOD0 BuildingD_Ledge_VarB_mdl
usemtl lambert5SG
f 24/1/1 35/2/2 36/3/3 4/4/4
f 23/5/5 24/1/6 4/4/7 6/6/8
f 37/7/9 38/8/10 23/5/11 6/6/12
f 21/9/13 22/10/14 8/11/15 2/12/16
f 36/13/17 37/14/18 6/6/8 4/4/7
f 40/15/19 33/16/20 3/17/21 5/18/22
usemtl lambert3SG
f 10/19/23 16/20/24 14/21/25 12/22/26
usemtl lambert4SG
f 15/23/27 9/24/28 11/25/29 13/26/30
usemtl lambert5SG
f 7/27/31 18/28/32 17/29/33 1/30/34
f 5/18/35 19/31/36 39/32/37 40/33/38
f 3/17/21 20/34/39 19/31/40 5/18/22
f 33/35/41 34/36/42 20/34/43 3/17/44
f 17/29/33 18/28/32 22/10/14 21/9/13
f 38/8/45 39/32/46 19/31/47 23/5/48
f 19/31/40 20/34/39 24/1/6 23/5/5
f 20/34/49 34/36/50 35/2/51 24/1/52
f 1/37/53 17/38/54 26/39/55 25/40/56
f 27/41/57 26/39/58 17/38/59 21/42/60
f 28/43/61 27/41/62 21/42/63 2/44/64
f 2/12/16 8/11/15 29/45/65 28/46/66
f 22/47/67 30/48/68 29/49/69 8/50/70
f 18/51/71 31/52/72 30/48/73 22/47/74
f 32/53/75 31/52/76 18/51/77 7/54/78
f 7/55/31 1/56/34 25/57/79 32/58/80
f 25/40/81 26/39/82 34/36/83 33/35/84
f 35/2/85 34/36/86 26/39/87 27/41/88
f 36/3/89 35/2/90 27/41/91 28/43/92
f 28/46/66 29/45/65 37/14/18 36/13/17
f 29/49/93 30/48/94 38/8/95 37/7/96
f 30/48/97 31/52/98 39/32/99 38/8/100
f 40/33/101 39/32/102 31/52/103 32/53/104
f 32/58/80 25/57/79 33/16/20 40/15/19
