# This file uses meters as units for non-parametric coordinates.

mtllib BuildingD_Ledge_Corner_VarB_LOD1.mtl
g default
v 0.000002 84.297470 100.000000
v -52.010185 84.297470 0.000000
v 0.000002 84.297470 0.000000
v -52.010185 0.000000 0.000000
v -52.010185 84.297470 47.989815
v -52.010185 0.000000 47.989815
v -100.000000 0.000000 47.989815
v -100.000000 84.297470 47.989815
v -100.000000 84.297470 100.000000
v -100.000000 0.000008 100.000000
v 0.000001 0.000008 100.000000
v 0.000001 0.000023 0.000000
v 1.974669 84.297470 101.974663
v -53.984856 84.297470 46.015144
v 1.974669 99.999985 101.974663
v -53.984856 99.999985 46.015144
v -100.000000 99.999985 101.974663
v -100.000000 99.999985 46.015144
v -100.000000 84.297470 101.974663
v -100.000000 84.297470 46.015144
v -53.984856 99.999985 0.000000
v 1.974669 99.999985 0.000000
v -53.984856 84.297470 0.000000
v 1.974669 84.297470 0.000000
vt 0.933033 0.834699
vt 0.587156 0.834699
vt 0.587156 0.424393
vt 0.933033 0.424393
vt 0.000487 0.427391
vt 0.197392 0.427391
vt 0.197392 0.773268
vt 0.000487 0.773268
vt 0.399857 0.650832
vt 0.399857 0.987556
vt 0.206082 0.987556
vt 0.206082 0.650832
vt 0.117659 0.868851
vt 0.117659 0.461199
vt 0.460165 0.461199
vt 0.460165 0.868851
vt 0.000487 0.000913
vt 0.230092 0.230518
vt 0.230092 0.419321
vt 0.000487 0.419321
vt 0.418895 0.000913
vt 0.418895 0.230518
vt 0.838499 0.418907
vt 0.608894 0.418907
vt 0.608894 0.230105
vt 0.838499 0.000500
vt 0.420092 0.230105
vt 0.420092 0.000500
vt 0.999160 0.427622
vt 0.999160 0.618306
vt 0.933145 0.618306
vt 0.933145 0.427622
vt 0.489672 0.238795
vt 0.489672 -0.179516
vt 0.557471 -0.179516
vt 0.557471 0.238795
vt 0.371241 0.651531
vt 0.371241 0.240395
vt 0.434126 0.240395
vt 0.434126 0.651531
vt 0.938504 0.807368
vt 0.938504 0.615816
vt 1.002932 0.615816
vt 1.002932 0.807368
vn 1.000000 -0.000000 -0.000000
vn 1.000000 -0.000000 -0.000000
vn 1.000000 -0.000000 -0.000000
vn 1.000000 -0.000000 -0.000000
vn -1.000000 0.000000 0.000000
vn -1.000000 0.000000 0.000000
vn -1.000000 0.000000 0.000000
vn -1.000000 0.000000 0.000000
vn 0.000000 0.000000 -1.000000
vn 0.000000 0.000000 -1.000000
vn 0.000000 0.000000 -1.000000
vn 0.000000 0.000000 -1.000000
vn 0.000000 0.000000 1.000000
vn 0.000000 0.000000 1.000000
vn 0.000000 0.000000 1.000000
vn 0.000000 0.000000 1.000000
vn 0.000000 1.000000 -0.000000
vn 0.000000 1.000000 -0.000000
vn 0.000000 1.000000 -0.000000
vn 0.000000 1.000000 -0.000000
vn 0.000000 -1.000000 0.000000
vn 0.000000 -1.000000 0.000000
vn 0.000000 -1.000000 0.000000
vn 0.000000 -1.000000 0.000000
vn 0.000000 0.000000 -1.000000
vn 0.000000 0.000000 -1.000000
vn 0.000000 0.000000 -1.000000
vn 0.000000 0.000000 -1.000000
vn 0.000000 0.000000 1.000000
vn 0.000000 0.000000 1.000000
vn 0.000000 0.000000 1.000000
vn 0.000000 0.000000 1.000000
vn 0.000000 1.000000 0.000000
vn 0.000000 1.000000 0.000000
vn 0.000000 1.000000 0.000000
vn 0.000000 1.000000 0.000000
vn 0.000000 -1.000000 0.000000
vn 0.000000 -1.000000 0.000000
vn 0.000000 -1.000000 0.000000
vn 0.000000 -1.000000 0.000000
vn 1.000000 0.000000 0.000000
vn 1.000000 0.000000 0.000000
vn 1.000000 0.000000 0.000000
vn 1.000000 0.000000 0.000000
vn -1.000000 0.000000 0.000000
vn -1.000000 0.000000 0.000000
vn -1.000000 0.000000 0.000000
vn -1.000000 0.000000 0.000000
g BuildingD_Ledge_Corner_VarB_LOD1 BuildingD_Ledge_Corner_VarB_mdl
usemtl lambert3SG
f 1/1/1 11/2/2 12/3/3 3/4/4
usemtl lambert4SG
f 4/5/5 6/6/6 5/7/7 2/8/8
f 5/9/9 6/10/10 7/11/11 8/12/12
usemtl lambert3SG
f 10/13/13 11/14/14 1/15/15 9/16/16
usemtl lambert5SG
f 15/17/17 16/18/18 18/19/19 17/20/20
f 19/23/21 20/24/22 14/25/23 13/26/24
f 14/29/25 20/30/26 18/31/27 16/32/28
f 19/33/29 13/34/30 15/35/31 17/36/32
f 16/18/33 15/17/34 22/21/35 21/22/36
f 23/27/37 24/28/38 13/26/39 14/25/40
f 13/37/41 24/38/42 22/39/43 15/40/44
f 23/41/45 14/42/46 16/43/47 21/44/48
