# This file uses meters as units for non-parametric coordinates.

mtllib BuildingD_Top_Corner_VarA_LOD1.mtl
g default
v 0.000002 399.999969 100.000000
v -50.000000 399.999969 0.000000
v 0.000002 399.999969 0.000000
v -50.000000 0.000000 0.000000
v -50.000000 399.999969 50.000000
v -50.000000 0.000000 50.000000
v -100.000000 0.000000 50.000000
v -100.000000 399.999969 50.000000
v -100.000000 399.999969 100.000000
v -100.000000 0.000008 100.000000
v 0.000001 0.000008 100.000000
v 0.000001 0.000015 0.000000
vt 0.502977 0.999500
vt 0.502977 0.001614
vt 0.752449 0.001614
vt 0.752449 0.999500
vt 0.000376 0.000500
vt 0.125112 0.000500
vt 0.125112 0.998386
vt 0.000376 0.998387
vt 0.249848 0.000500
vt 0.249848 0.998386
vt 0.253506 0.001614
vt 0.253506 0.999500
vn 1.000000 -0.000000 0.000000
vn 1.000000 -0.000000 0.000000
vn 1.000000 -0.000000 0.000000
vn 1.000000 -0.000000 0.000000
vn -1.000000 0.000000 0.000000
vn -1.000000 0.000000 0.000000
vn -1.000000 0.000000 0.000000
vn -1.000000 0.000000 0.000000
vn 0.000000 0.000000 -1.000000
vn 0.000000 0.000000 -1.000000
vn 0.000000 0.000000 -1.000000
vn 0.000000 0.000000 -1.000000
vn 0.000000 0.000000 1.000000
vn 0.000000 0.000000 1.000000
vn 0.000000 0.000000 1.000000
vn 0.000000 0.000000 1.000000
g BuildingD_Top_Corner_VarA_LOD1 BuildingD_Top_Corner_VarA_mdl
usemtl lambert3SG
f 1/1/1 11/2/2 12/3/3 3/4/4
usemtl lambert4SG
f 4/5/5 6/6/6 5/7/7 2/8/8
f 5/7/9 6/6/10 7/9/11 8/10/12
usemtl lambert3SG
f 10/11/13 11/2/14 1/1/15 9/12/16
