# This file uses meters as units for non-parametric coordinates.

mtllib BuildingD_Bottom_Corner_VarA_LOD0.mtl
g default
v 0.000000 0.000000 100.000000
v 0.000002 500.000000 100.000000
v -50.000000 500.000000 0.000000
v 0.000002 500.000000 0.000000
v -50.000000 0.000000 0.000000
v 0.000000 0.000000 0.000000
v -50.000000 500.000000 50.000000
v -50.000000 0.000000 50.000000
v -100.000000 0.000000 50.000000
v -100.000000 500.000000 50.000000
v -100.000000 0.000000 100.000000
v -100.000000 500.000000 100.000000
v -100.000000 151.418945 100.000000
v 0.000001 151.418945 100.000000
v 0.000001 151.418945 0.000000
v 0.000000 0.000000 90.000008
v 0.000001 151.418945 90.000008
v 0.000002 500.000061 90.000008
v -10.000000 0.000000 100.000000
v -10.000001 151.418945 100.000000
v -9.999998 500.000000 100.000000
vt 0.399273 0.694097
vt 0.399273 0.001340
vt 0.419147 0.001340
vt 0.419147 0.694097
vt 0.199035 0.994182
vt 0.099667 0.994182
vt 0.099667 0.000500
vt 0.199035 0.000500
vt 0.000299 0.994182
vt 0.000299 0.000500
vt 0.379399 0.694097
vt 0.200537 0.694097
vt 0.200537 0.001340
vt 0.379399 0.001340
vt 0.200537 0.999501
vt 0.200537 0.698576
vt 0.379399 0.698576
vt 0.379399 0.999501
vt 0.419147 0.698576
vt 0.419147 0.999501
vt 0.399273 0.999501
vt 0.399273 0.698576
vt 0.598010 0.999501
vt 0.598010 0.698576
vt 0.598010 0.694097
vt 0.598010 0.001340
vn 0.707108 -0.000000 0.707106
vn 0.707106 -0.000000 0.707107
vn 1.000000 -0.000000 0.000000
vn 1.000000 -0.000000 0.000000
vn -1.000000 0.000000 0.000000
vn -1.000000 0.000000 0.000000
vn -1.000000 0.000000 0.000000
vn -1.000000 0.000000 0.000000
vn 0.000000 0.000000 -1.000000
vn 0.000000 0.000000 -1.000000
vn 0.000000 0.000000 -1.000000
vn 0.000000 0.000000 -1.000000
vn 0.000000 0.000000 1.000000
vn 0.000000 0.000000 1.000000
vn 0.000000 0.000000 1.000000
vn 0.000000 0.000000 1.000000
vn 0.000000 0.000000 1.000000
vn 0.000000 0.000000 1.000000
vn 1.000000 -0.000000 0.000000
vn 0.707107 -0.000000 0.707107
vn 1.000000 -0.000000 0.000000
vn 1.000000 -0.000000 0.000000
vn 1.000000 -0.000000 0.000000
g BuildingD_Bottom_Corner_VarA_LOD0 BuildingD_Bottom_Corner_VarA_mdl
usemtl lambert3SG
f 2/1/1 14/2/2 17/3/3 18/4/4
usemtl lambert4SG
f 5/5/5 8/6/6 7/7/7 3/8/8
f 7/7/9 8/6/10 9/9/11 10/10/12
usemtl lambert3SG
f 21/11/13 12/12/14 13/13/15 20/14/16
usemtl lambert2SG
f 13/15/15 11/16/17 19/17/18 20/18/16
f 16/19/19 17/20/3 14/21/2 1/22/20
f 15/23/21 17/20/3 16/19/19 6/24/22
usemtl lambert3SG
f 4/25/23 18/4/4 17/3/3 15/26/21
usemtl lambert2SG
f 1/22/20 14/21/2 20/18/16 19/17/18
usemtl lambert3SG
f 21/11/13 20/14/16 14/2/2 2/1/1
