# This file uses meters as units for non-parametric coordinates.

mtllib BuildingD_Mid_Corner_VarA_LOD1.mtl
g default
v 0.000002 300.000000 100.000000
v -50.000000 299.999969 0.000000
v 0.000002 300.000000 0.000000
v -50.000000 0.000000 0.000000
v -50.000000 299.999969 50.000000
v -50.000000 0.000000 50.000000
v -100.000000 0.000000 50.000000
v -100.000000 299.999969 50.000000
v -100.000000 300.000000 100.000000
v -100.000000 0.000008 100.000000
v 0.000001 0.000008 100.000000
v 0.000001 0.000015 0.000000
vt 0.333044 0.998134
vt 0.333044 0.000499
vt 0.665589 0.000499
vt 0.665589 0.998134
vt 0.999500 0.998134
vt 0.833228 0.998134
vt 0.833228 0.000499
vt 0.999501 0.000499
vt 0.666956 0.998134
vt 0.666956 0.000499
vt 0.000500 0.000499
vt 0.000500 0.998134
vn 1.000000 -0.000000 0.000000
vn 1.000000 -0.000000 0.000000
vn 1.000000 -0.000000 0.000000
vn 1.000000 -0.000000 0.000000
vn -1.000000 0.000000 0.000000
vn -1.000000 0.000000 0.000000
vn -1.000000 0.000000 0.000000
vn -1.000000 0.000000 0.000000
vn 0.000000 0.000000 -1.000000
vn 0.000000 0.000000 -1.000000
vn 0.000000 0.000000 -1.000000
vn 0.000000 0.000000 -1.000000
vn 0.000000 0.000000 1.000000
vn 0.000000 0.000000 1.000000
vn 0.000000 0.000000 1.000000
vn 0.000000 0.000000 1.000000
g BuildingD_Mid_Corner_VarA_LOD1 BuildingD_Mid_Corner_VarA_mdl
usemtl lambert3SG
f 1/1/1 11/2/2 12/3/3 3/4/4
usemtl lambert4SG
f 4/5/5 6/6/6 5/7/7 2/8/8
f 5/7/9 6/6/10 7/9/11 8/10/12
usemtl lambert3SG
f 10/11/13 11/2/14 1/1/15 9/12/16
