# This file uses meters as units for non-parametric coordinates.

mtllib BuildingD_Ledge_Corner_VarA_LOD0.mtl
g default
v 0.000002 184.297485 100.000000
v -52.010185 184.297485 0.000000
v 0.000002 184.297485 0.000000
v -52.010185 0.000000 0.000000
v -52.010185 184.297485 47.989815
v -52.010185 0.000000 47.989815
v -100.000000 0.000000 47.989815
v -100.000000 184.297485 47.989815
v -100.000000 184.297485 100.000000
v -100.000000 0.000008 100.000000
v 0.000001 0.000008 100.000000
v 0.000001 0.000023 0.000000
v 1.974669 184.297485 101.974663
v -53.984856 184.297485 46.015144
v 1.974669 200.000000 101.974663
v -53.984856 200.000000 46.015144
v -100.000000 200.000000 101.974663
v -100.000000 200.000000 46.015144
v -100.000000 184.297485 101.974663
v -100.000000 184.297485 46.015144
v -53.984856 200.000000 0.000000
v 1.974669 200.000000 0.000000
v -53.984856 184.297485 0.000000
v 1.974669 184.297485 0.000000
v -50.720554 184.297501 0.000000
v -50.720573 184.297485 49.279430
v -100.000000 184.297485 49.279430
v -1.289642 184.297485 0.000000
v -1.289638 184.297485 98.710365
v -100.000000 184.297485 98.710365
v -100.000000 200.000000 98.710358
v -1.289635 200.000000 98.710358
v -1.289617 200.000000 0.000000
v -100.000000 200.000000 49.279457
v -50.720543 200.000000 49.279457
v -50.720551 200.000000 0.000000
v -100.000000 196.571625 101.974663
v 1.974669 196.571625 101.974663
v 1.974669 196.571625 0.000000
v -100.000000 187.725876 101.974663
v 1.974669 187.725876 101.974663
v 1.974669 187.725876 0.000000
v -53.984856 196.571625 0.000000
v -53.984856 196.571625 46.015144
v -100.000000 196.571625 46.015144
v -53.984856 187.725876 0.000000
v -53.984856 187.725876 46.015148
v -100.000000 187.725876 46.015144
v -53.984856 200.000000 41.585686
v -53.984856 196.571625 41.585686
v -53.984856 187.725876 41.585690
v -53.984856 184.297485 41.585686
v -50.720566 184.297485 44.849968
v -1.289638 184.297485 94.280907
v 1.974669 184.297485 97.545204
v 1.974669 187.725876 97.545212
v 1.974669 196.571625 97.545204
v 1.974669 200.000000 97.545204
v -1.289634 200.000000 94.280899
v -50.720543 200.000000 44.849998
v -58.927963 200.000000 46.015144
v -55.663647 200.000000 49.279457
v -6.232738 200.000000 98.710358
v -2.968436 200.000000 101.974663
v -2.968435 196.571625 101.974663
v -2.968435 187.725876 101.974663
v -2.968435 184.297485 101.974663
v -6.232742 184.297485 98.710373
v -55.663673 184.297485 49.279430
v -58.927963 184.297485 46.015144
v -58.927963 187.725876 46.015148
v -58.927963 196.571625 46.015144
v 0.000002 184.297485 87.500000
v 0.000001 0.000010 87.500000
v -12.499998 184.297485 100.000000
v -12.499999 0.000008 100.000000
vt -1.000000 0.473259
vt -0.600134 0.473259
vt -0.600134 0.369137
vt -1.000000 0.369137
vt -0.600134 0.265015
vt -1.000000 0.265015
vt -3.694548 1.329015
vt -2.884497 1.329015
vt -2.884497 1.453751
vt -3.694548 1.453751
vt -2.884497 2.023009
vt -3.250025 2.023009
vt -3.250025 1.898274
vt -2.884497 1.898274
vt -3.250025 2.263803
vt -3.694548 2.263803
vt -3.694548 0.518964
vt -3.250025 0.518964
vt -3.250025 0.884492
vt -2.884497 0.884492
vt -3.125290 1.898274
vt -3.125290 2.263803
vt -3.819284 2.263803
vt -3.819284 1.453751
vt -0.600000 0.800173
vt -1.000000 0.256219
vt -1.000000 0.583132
vt -0.600000 0.583133
vt -1.000000 0.473259
vt -0.600000 0.473259
vt -1.000000 0.800173
vt -0.600000 0.256218
vt -2.884497 0.910423
vt -3.275955 0.910423
vt -3.275955 0.518964
vt -2.884497 1.303085
vt -3.668617 1.303085
vt -3.668617 0.518964
vt -3.668617 2.263803
vt -3.668617 1.479681
vt -2.884497 1.479681
vt -3.275956 2.263803
vt -3.275956 1.872343
vt -2.884497 1.872343
vt -3.721782 2.263803
vt -3.721782 1.453751
vt -3.694548 1.426517
vt -2.884497 1.426517
vt -3.792050 2.263803
vt -3.792050 1.453751
vt -3.694548 1.356249
vt -2.884497 1.356249
vt -2.884497 1.925508
vt -3.250025 1.925508
vt -3.222791 1.898274
vt -3.222791 2.263803
vt -2.884497 1.995775
vt -3.250025 1.995775
vt -3.152524 1.898274
vt -3.152524 2.263803
vt -3.214839 1.898274
vt -3.214839 1.925508
vt -3.214839 1.995775
vt -3.214839 2.023009
vt -3.214839 0.884492
vt -3.240769 0.910423
vt -3.633431 1.303085
vt -3.659362 1.329015
vt -3.659362 1.356249
vt -3.659362 1.426517
vt -3.659362 1.453751
vt -3.633431 1.479681
vt -3.240770 1.872343
vt -3.250025 1.937540
vt -3.275956 1.911610
vt -3.668617 1.518947
vt -3.694548 1.493017
vt -3.721782 1.493017
vt -3.792050 1.493017
vt -3.819284 1.493017
vt -3.694548 1.289749
vt -3.668617 1.263819
vt -3.275956 0.871156
vt -3.250025 0.845226
vt -3.125290 1.937540
vt -3.152524 1.937540
vt -3.222791 1.937540
vt -0.600000 0.773043
vt -1.000000 0.773043
vt -0.600000 0.283348
vt -1.000000 0.283349
vn 1.000000 -0.000000 -0.000000
vn 1.000000 -0.000000 0.000000
vn 1.000000 -0.000000 0.000000
vn 1.000000 -0.000000 -0.000000
vn -1.000000 0.000000 0.000000
vn -1.000000 0.000000 0.000000
vn -1.000000 0.000000 0.000000
vn -1.000000 0.000000 0.000000
vn 0.000000 0.000000 -1.000000
vn 0.000000 0.000000 -1.000000
vn 0.000000 0.000000 -1.000000
vn 0.000000 0.000000 -1.000000
vn 0.000000 0.000000 1.000000
vn 0.000000 0.000000 1.000000
vn 0.707107 -0.000000 0.707107
vn 0.707107 -0.000000 0.707107
vn 0.000000 1.000000 0.000000
vn 0.000000 1.000000 0.000000
vn -0.296458 0.895914 -0.330834
vn 0.000000 0.809061 -0.587725
vn 0.000000 -1.000000 0.000002
vn 0.000000 -1.000000 0.000000
vn 0.000000 -0.809056 -0.587731
vn -0.296461 -0.895911 -0.330839
vn -0.667354 -0.000000 -0.744741
vn 0.000000 -0.000000 -1.000000
vn 0.000000 0.000000 1.000000
vn 0.667353 0.000000 0.744741
vn 0.553838 0.557908 0.618063
vn 0.000000 0.457574 0.889172
vn 0.000000 1.000000 -0.000000
vn -0.584767 0.811201 0.000000
vn -0.584769 -0.811200 0.000000
vn -0.000000 -1.000000 -0.000000
vn 1.000000 0.000000 0.000000
vn 0.890904 0.454191 0.000000
vn -1.000000 0.000000 0.000000
vn -0.000000 -1.000000 0.000000
vn 0.000000 -1.000000 0.000001
vn 0.000000 -1.000000 0.000000
vn 0.890905 -0.454191 0.000000
vn 0.553840 -0.557907 0.618063
vn 0.000000 -0.457569 0.889174
vn 0.000000 1.000000 0.000000
vn 0.000000 1.000000 0.000000
vn 0.000000 1.000000 -0.000000
vn 0.000000 0.000000 1.000000
vn 0.667353 0.000000 0.744741
vn 1.000000 0.000000 0.000000
vn -1.000000 -0.000000 0.000000
vn -0.667354 0.000000 -0.744741
vn 0.000000 0.000000 -1.000000
vn -1.000000 0.000000 0.000000
vn -0.710824 0.703370 0.000000
vn -1.000000 0.000000 0.000000
vn -0.710826 -0.703368 0.000000
vn -0.000000 -1.000000 -0.000000
vn -0.000000 -1.000000 -0.000000
vn 0.730007 -0.683439 0.000000
vn 1.000000 0.000000 0.000000
vn 1.000000 0.000000 0.000000
vn 0.730007 0.683439 0.000000
vn 0.000000 1.000000 -0.000000
vn 0.000000 1.000000 -0.000000
vn 0.000000 1.000000 0.000000
vn 0.000000 0.703539 -0.710656
vn 0.000000 1.000000 0.000000
vn 0.000000 0.683408 0.730036
vn 0.000000 0.000000 1.000000
vn 0.000000 0.000000 1.000000
vn 0.000000 -0.683405 0.730040
vn 0.000000 -1.000000 0.000000
vn 0.000000 -1.000000 0.000000
vn 0.000000 -0.703534 -0.710662
vn 0.000000 0.000000 -1.000000
vn 0.000000 -0.000000 -1.000000
vn 0.000000 0.000000 1.000000
vn 0.000000 0.000000 1.000000
g BuildingD_Ledge_Corner_VarA_LOD0 BuildingD_Ledge_Corner_VarA_mdl
usemtl lambert3SG
f 74/89/1 12/27/2 3/28/3 73/88/4
usemtl lambert4SG
f 4/1/5 6/4/6 5/3/7 2/2/8
f 5/3/9 6/4/10 7/6/11 8/5/12
usemtl lambert3SG
f 75/90/13 76/91/14 11/26/15 1/32/16
usemtl lambert5SG
f 62/75/17 35/43/18 16/13/19 61/74/20
f 26/34/21 69/83/22 70/84/23 14/19/24
f 44/55/25 72/87/26 61/74/20 16/13/19
f 65/78/27 38/46/28 15/10/29 64/77/30
f 16/13/19 35/43/18 60/73/31 49/61/32
f 52/65/33 53/66/34 26/34/21 14/19/24
f 38/47/28 57/70/35 58/71/36 15/10/29
f 50/62/37 44/54/25 16/13/19 49/61/32
f 26/34/21 53/66/34 54/67/38 29/37/39
f 29/37/39 68/82/40 69/83/22 26/34/21
f 29/37/39 54/67/38 55/68/41 13/7/42
f 67/81/43 68/82/40 29/37/39 13/7/42
f 15/10/29 32/40/44 63/76/45 64/77/30
f 59/72/46 32/40/44 15/10/29 58/71/36
f 63/76/45 32/40/44 35/43/18 62/75/17
f 60/73/31 35/43/18 32/40/44 59/72/46
f 66/79/47 41/50/48 38/46/28 65/78/27
f 41/51/48 56/69/49 57/70/35 38/47/28
f 67/80/43 13/24/42 41/50/48 66/79/47
f 13/7/42 55/68/41 56/69/49 41/51/48
f 51/63/50 47/58/51 44/54/25 50/62/37
f 47/59/51 71/86/52 72/87/26 44/55/25
f 52/64/33 14/12/24 47/58/51 51/63/50
f 14/21/24 70/85/23 71/86/52 47/59/51
f 43/53/53 50/62/37 49/61/32 21/14/54
f 46/57/55 51/63/50 50/62/37 43/53/53
f 23/11/56 52/64/33 51/63/50 46/57/55
f 23/20/56 25/33/57 53/66/34 52/65/33
f 54/67/38 53/66/34 25/33/57 28/36/58
f 55/68/41 54/67/38 28/36/58 24/8/59
f 56/69/49 55/68/41 24/8/59 42/52/60
f 57/70/35 56/69/49 42/52/60 39/48/61
f 58/71/36 57/70/35 39/48/61 22/9/62
f 33/41/63 59/72/46 58/71/36 22/9/62
f 36/44/64 60/73/31 59/72/46 33/41/63
f 49/61/32 60/73/31 36/44/64 21/14/54
f 34/42/65 62/75/17 61/74/20 18/15/66
f 31/39/67 63/76/45 62/75/17 34/42/65
f 64/77/30 63/76/45 31/39/67 17/16/68
f 37/45/69 65/78/27 64/77/30 17/16/68
f 40/49/70 66/79/47 65/78/27 37/45/69
f 19/23/71 67/80/43 66/79/47 40/49/70
f 19/17/71 30/38/72 68/82/40 67/81/43
f 69/83/22 68/82/40 30/38/72 27/35/73
f 70/84/23 69/83/22 27/35/73 20/18/74
f 71/86/52 70/85/23 20/22/74 48/60/75
f 72/87/26 71/86/52 48/60/75 45/56/76
f 61/74/20 72/87/26 45/56/76 18/15/66
usemtl lambert3SG
f 1/25/16 11/31/15 74/89/1 73/88/4
f 10/29/77 76/91/14 75/90/13 9/30/78
