# This file uses meters as units for non-parametric coordinates.

mtllib BuildingD_Mid_Wall_VarB_mdl.mtl
g default
v -50.000000 0.000000 0.000000
v 0.000000 0.000000 0.000000
v -50.000000 299.887573 0.000000
v 0.000000 299.887573 0.000000
v -50.000000 299.887573 -400.000000
v 0.000000 299.887573 -400.000000
v -50.000000 0.000000 -400.000000
v 0.000000 0.000000 -400.000000
vt 0.662553 0.000500
vt 0.662553 0.496980
vt 0.000331 0.496980
vt 0.000331 0.000500
vt 0.000331 0.503020
vt 0.662553 0.503020
vt 0.662553 0.999501
vt 0.000331 0.999501
vn 1.000000 0.000000 0.000000
vn 1.000000 0.000000 0.000000
vn 1.000000 0.000000 0.000000
vn 1.000000 0.000000 0.000000
vn -1.000000 0.000000 0.000000
vn -1.000000 0.000000 0.000000
vn -1.000000 0.000000 0.000000
vn -1.000000 0.000000 0.000000
g BuildingD_Mid_Wall_VarB_mdl
usemtl lambert3SG
f 8/1/1 6/2/2 4/3/3 2/4/4
f 7/5/5 1/6/6 3/7/7 5/8/8
