# This file uses meters as units for non-parametric coordinates.

mtllib BuildingD_Ledge_VarA_LOD1.mtl
g default
v -53.984856 184.297485 0.000000
v 1.974667 184.297485 0.000000
v -53.984856 200.000000 0.000000
v 1.974667 200.000000 0.000000
v -53.984856 200.000000 -400.000000
v 1.974667 200.000000 -400.000000
v -53.984856 184.297485 -400.000000
v 1.974667 184.297485 -400.000000
v -52.010189 0.000000 0.000000
v -0.000002 0.000000 0.000000
v -52.010189 184.297485 0.000000
v -0.000002 184.297485 0.000000
v -52.010189 184.297485 -400.000000
v -0.000002 184.297485 -400.000000
v -52.010189 0.000000 -400.000000
v -0.000002 0.000000 -400.000000
vt 0.393355 0.000773
vt 0.501638 0.000773
vt 0.501638 0.031158
vt 0.393355 0.031158
vt 0.501638 0.805171
vt 0.393355 0.805171
vt 0.501638 0.835555
vt 0.393355 0.835555
vt 0.640306 0.805171
vt 0.532023 0.805171
vt 0.532023 0.031158
vt 0.640306 0.031158
vt 0.362970 0.805171
vt 0.362970 0.031158
vt 0.000500 0.971500
vt 0.000500 0.878998
vt 0.358695 0.878998
vt 0.358695 0.971500
vt 0.358695 0.000486
vt 0.358694 0.101571
vt 0.000501 0.101571
vt 0.000500 0.000486
vt 0.642879 0.775811
vt 0.642879 0.001798
vt 0.999501 0.001798
vt 0.999501 0.775811
vn 0.000000 0.000000 1.000000
vn 0.000000 0.000000 1.000000
vn 0.000000 0.000000 1.000000
vn 0.000000 0.000000 1.000000
vn 0.000000 1.000000 0.000000
vn 0.000000 1.000000 0.000000
vn 0.000000 1.000000 0.000000
vn 0.000000 1.000000 0.000000
vn 0.000000 0.000000 -1.000000
vn 0.000000 0.000000 -1.000000
vn 0.000000 0.000000 -1.000000
vn 0.000000 0.000000 -1.000000
vn 0.000000 -1.000000 0.000000
vn 0.000000 -1.000000 0.000000
vn 0.000000 -1.000000 0.000000
vn 0.000000 -1.000000 0.000000
vn 1.000000 0.000000 0.000000
vn 1.000000 0.000000 0.000000
vn 1.000000 0.000000 0.000000
vn 1.000000 0.000000 0.000000
vn -1.000000 0.000000 0.000000
vn -1.000000 0.000000 0.000000
vn -1.000000 0.000000 0.000000
vn -1.000000 0.000000 0.000000
vn 0.000000 0.000000 1.000000
vn 0.000000 0.000000 1.000000
vn 0.000000 0.000000 1.000000
vn 0.000000 0.000000 1.000000
vn 0.000000 0.000000 -1.000000
vn 0.000000 0.000000 -1.000000
vn 0.000000 0.000000 -1.000000
vn 0.000000 0.000000 -1.000000
vn 1.000000 0.000000 0.000000
vn 1.000000 0.000000 0.000000
vn 1.000000 0.000000 0.000000
vn 1.000000 0.000000 0.000000
vn -1.000000 0.000000 0.000000
vn -1.000000 0.000000 0.000000
vn -1.000000 0.000000 0.000000
vn -1.000000 0.000000 0.000000
g BuildingD_Ledge_VarA_LOD1 BuildingD_Ledge_VarA_mdl
usemtl lambert5SG
f 1/1/1 2/2/2 4/3/3 3/4/4
f 3/4/5 4/3/6 6/5/7 5/6/8
f 5/6/9 6/5/10 8/7/11 7/8/12
f 7/9/13 8/10/14 2/11/15 1/12/16
f 2/11/17 8/10/18 6/5/19 4/3/20
f 7/13/21 1/14/22 3/4/23 5/6/24
usemtl lambert3SG
f 9/15/25 10/16/26 12/17/27 11/18/28
f 13/19/29 14/20/30 16/21/31 15/22/32
f 10/16/33 16/21/34 14/20/35 12/17/36
usemtl lambert4SG
f 15/23/37 9/24/38 11/25/39 13/26/40
