# This file uses meters as units for non-parametric coordinates.

mtllib BuildingD_Bottom_Corner_VarA_LOD1.mtl
g default
v 0.000000 0.000000 100.000000
v 0.000002 500.000000 100.000000
v -50.000000 500.000000 0.000000
v 0.000002 500.000000 0.000000
v -50.000000 0.000000 0.000000
v 0.000000 0.000000 0.000000
v -50.000000 500.000000 50.000000
v -50.000000 0.000000 50.000000
v -100.000000 0.000000 50.000000
v -100.000000 500.000000 50.000000
v -100.000000 0.000000 100.000000
v -100.000000 500.000000 100.000000
v -100.000000 151.418945 100.000000
v 0.000001 151.418945 100.000000
v 0.000001 151.418945 0.000000
vt 0.399273 0.694097
vt 0.399273 0.001340
vt 0.598010 0.001340
vt 0.598010 0.694097
vt 0.199035 0.994182
vt 0.099667 0.994182
vt 0.099667 0.000500
vt 0.199035 0.000500
vt 0.000299 0.994182
vt 0.000299 0.000500
vt 0.200537 0.001340
vt 0.200537 0.694097
vt 0.399273 0.698576
vt 0.399273 0.999501
vt 0.200537 0.999501
vt 0.200537 0.698576
vt 0.598010 0.999501
vt 0.598010 0.698576
vn 1.000000 -0.000000 0.000000
vn 1.000000 -0.000000 0.000000
vn 1.000000 -0.000000 0.000000
vn 1.000000 -0.000000 0.000000
vn -1.000000 0.000000 0.000000
vn -1.000000 0.000000 0.000000
vn -1.000000 0.000000 0.000000
vn -1.000000 0.000000 0.000000
vn 0.000000 0.000000 -1.000000
vn 0.000000 0.000000 -1.000000
vn 0.000000 0.000000 -1.000000
vn 0.000000 0.000000 -1.000000
vn 0.000000 0.000000 1.000000
vn 0.000000 0.000000 1.000000
vn 0.000000 0.000000 1.000000
vn 0.000000 0.000000 1.000000
vn 0.000000 0.000000 1.000000
vn 0.000000 0.000000 1.000000
vn 1.000000 -0.000000 0.000000
vn 1.000000 -0.000000 0.000000
g BuildingD_Bottom_Corner_VarA_LOD1 BuildingD_Bottom_Corner_VarA_mdl
usemtl lambert3SG
f 2/1/1 14/2/2 15/3/3 4/4/4
usemtl lambert4SG
f 5/5/5 8/6/6 7/7/7 3/8/8
f 7/7/9 8/6/10 9/9/11 10/10/12
usemtl lambert3SG
f 13/11/13 14/2/14 2/1/15 12/12/16
usemtl lambert2SG
f 1/13/17 14/14/14 13/15/13 11/16/18
f 15/17/3 14/14/2 1/13/19 6/18/20
