# This file uses meters as units for non-parametric coordinates.

mtllib BuildingD_Mid_Corner_VarA_LOD0.mtl
g default
v 0.000002 300.000000 100.000000
v -50.000000 299.999969 0.000000
v 0.000002 300.000000 0.000000
v -50.000000 0.000000 0.000000
v -50.000000 299.999969 50.000000
v -50.000000 0.000000 50.000000
v -100.000000 0.000000 50.000000
v -100.000000 299.999969 50.000000
v -100.000000 300.000000 100.000000
v -100.000000 0.000008 100.000000
v 0.000001 0.000008 100.000000
v 0.000001 0.000015 0.000000
v 0.000002 300.000000 90.000000
v 0.000001 0.000008 90.000000
v -9.999998 300.000000 100.000000
v -10.000001 0.000008 100.000000
vt 0.366299 0.000499
vt 0.665589 0.000499
vt 0.665589 0.998134
vt 0.366299 0.998134
vt 0.999500 0.998134
vt 0.833228 0.998134
vt 0.833228 0.000499
vt 0.999501 0.000499
vt 0.666956 0.998134
vt 0.666956 0.000499
vt 0.299790 0.998134
vt 0.299790 0.000499
vt 0.333044 0.000499
vt 0.333044 0.998134
vt 0.000500 0.000499
vt 0.000500 0.998134
vn 1.000000 -0.000000 0.000000
vn 1.000000 -0.000000 0.000000
vn 1.000000 -0.000000 0.000000
vn 1.000000 -0.000000 0.000000
vn -1.000000 0.000000 0.000000
vn -1.000000 0.000000 0.000000
vn -1.000000 0.000000 0.000000
vn -1.000000 0.000000 0.000000
vn 0.000000 0.000000 -1.000000
vn 0.000000 0.000000 -1.000000
vn 0.000000 0.000000 -1.000000
vn 0.000000 0.000000 -1.000000
vn 0.000000 0.000000 1.000000
vn 0.000000 0.000000 1.000000
vn 0.707107 -0.000000 0.707107
vn 0.707107 -0.000000 0.707107
vn 0.000000 0.000000 1.000000
vn 0.000000 0.000000 1.000000
g BuildingD_Mid_Corner_VarA_LOD0 BuildingD_Mid_Corner_VarA_mdl
usemtl lambert3SG
f 14/1/1 12/2/2 3/3/3 13/4/4
usemtl lambert4SG
f 4/5/5 6/6/6 5/7/7 2/8/8
f 5/7/9 6/6/10 7/9/11 8/10/12
usemtl lambert3SG
f 15/11/13 16/12/14 11/13/15 1/14/16
f 1/14/16 11/13/15 14/1/1 13/4/4
f 10/15/17 16/12/14 15/11/13 9/16/18
