# This file uses meters as units for non-parametric coordinates.

mtllib BuildingD_Ledge_VarB_LOD1.mtl
g default
v -53.984856 84.297516 0.000000
v 1.974667 84.297516 0.000000
v -53.984856 100.000061 0.000000
v 1.974667 100.000061 0.000000
v -53.984856 100.000061 -400.000000
v 1.974667 100.000061 -400.000000
v -53.984856 84.297516 -400.000000
v 1.974667 84.297516 -400.000000
v -52.010189 0.000000 0.000000
v -0.000002 0.000000 0.000000
v -52.010189 84.297516 0.000000
v -0.000002 84.297516 0.000000
v -52.010189 84.297516 -400.000000
v -0.000002 84.297516 -400.000000
v -52.010189 0.000000 -400.000000
v -0.000002 0.000000 -400.000000
vt 0.036751 0.001102
vt 0.166258 0.001102
vt 0.166258 0.037442
vt 0.036751 0.037442
vt 0.166258 0.963160
vt 0.036751 0.963160
vt 0.166258 0.999501
vt 0.036751 0.999501
vt 0.332106 0.963160
vt 0.202599 0.963160
vt 0.202599 0.037442
vt 0.332106 0.037442
vt 0.000411 0.963160
vt 0.000411 0.037442
vt 0.334238 0.928648
vt 0.334239 0.000500
vt 0.529768 0.000841
vt 0.527937 0.928649
vt 0.534176 0.626699
vt 0.534176 0.000624
vt 0.822637 0.000624
vt 0.822637 0.626699
vn 0.000000 0.000000 1.000000
vn 0.000000 0.000000 1.000000
vn 0.000000 0.000000 1.000000
vn 0.000000 0.000000 1.000000
vn 0.000000 1.000000 0.000000
vn 0.000000 1.000000 0.000000
vn 0.000000 1.000000 0.000000
vn 0.000000 1.000000 0.000000
vn 0.000000 0.000000 -1.000000
vn 0.000000 0.000000 -1.000000
vn 0.000000 0.000000 -1.000000
vn 0.000000 0.000000 -1.000000
vn 0.000000 -1.000000 0.000000
vn 0.000000 -1.000000 0.000000
vn 0.000000 -1.000000 0.000000
vn 0.000000 -1.000000 0.000000
vn 1.000000 0.000000 0.000000
vn 1.000000 0.000000 0.000000
vn 1.000000 0.000000 0.000000
vn 1.000000 0.000000 0.000000
vn -1.000000 0.000000 0.000000
vn -1.000000 0.000000 0.000000
vn -1.000000 0.000000 0.000000
vn -1.000000 0.000000 0.000000
vn 1.000000 0.000000 0.000000
vn 1.000000 0.000000 0.000000
vn 1.000000 0.000000 0.000000
vn 1.000000 0.000000 0.000000
vn -1.000000 0.000000 0.000000
vn -1.000000 0.000000 0.000000
vn -1.000000 0.000000 0.000000
vn -1.000000 0.000000 0.000000
g BuildingD_Ledge_VarB_LOD1 BuildingD_Ledge_VarB_mdl
usemtl lambert5SG
f 1/1/1 2/2/2 4/3/3 3/4/4
f 3/4/5 4/3/6 6/5/7 5/6/8
f 5/6/9 6/5/10 8/7/11 7/8/12
f 7/9/13 8/10/14 2/11/15 1/12/16
f 2/11/17 8/10/18 6/5/19 4/3/20
f 7/13/21 1/14/22 3/4/23 5/6/24
usemtl lambert3SG
f 10/15/25 16/16/26 14/17/27 12/18/28
usemtl lambert4SG
f 15/19/29 9/20/30 11/21/31 13/22/32
