# This file uses meters as units for non-parametric coordinates.

mtllib Electrical_Box_A_LOD0.mtl
g default
v 19.315250 8.009428 -21.797989
v -20.746517 8.009428 -21.797989
v 19.432926 104.048828 -21.797987
v -20.746517 104.048828 -21.797989
v 19.315247 8.009428 -23.365181
v -20.746521 8.009428 -23.365183
v 19.432922 104.048828 -23.365183
v -20.746521 104.048828 -23.365183
v 15.747955 50.459908 -23.365183
v 14.304535 50.459908 -23.365181
v 15.747955 54.644737 -23.365183
v 14.304535 54.644737 -23.365181
v 15.307304 50.900558 -22.128523
v 14.745171 50.900558 -22.128521
v 15.307304 54.204086 -22.128523
v 14.745171 54.204086 -22.128521
v 15.307327 51.306107 -21.283182
v 14.745193 51.306107 -21.283182
v 15.307327 53.798534 -21.283182
v 14.745193 53.798534 -21.283182
v 15.307323 51.306107 -24.993387
v 15.307316 51.929153 -25.616430
v 14.745190 51.306107 -24.993389
v 14.745182 51.929153 -25.616432
v 15.307323 53.798534 -24.993387
v 15.307316 53.175488 -25.616430
v 14.745190 53.798534 -24.993389
v 14.745182 53.175488 -25.616432
v 15.709572 50.000839 -24.005945
v 15.709549 50.000839 -25.936975
v 15.709549 46.196770 -25.936975
v 15.709572 46.196770 -24.005945
v 14.342934 50.000839 -24.005945
v 14.342941 50.000839 -25.936975
v 14.342941 46.196770 -25.936975
v 14.342934 46.196770 -24.005945
v 17.003330 46.196770 -24.353537
v 17.003330 50.000839 -24.353537
v 17.003319 46.196770 -25.589392
v 17.003319 50.000839 -25.589392
v 13.049198 50.000839 -24.353537
v 13.049198 46.196770 -24.353537
v 13.049187 50.000839 -25.589392
v 13.049187 46.196770 -25.589392
v 13.875237 51.133484 -25.250469
v 15.026253 52.326256 -25.248407
v 16.177269 51.133484 -25.250469
v 13.588776 51.123596 -25.142944
v 15.026260 52.677685 -25.144266
v 16.463745 51.123596 -25.142941
v 13.732010 51.128540 -24.746220
v 15.026241 52.501972 -24.746584
v 16.320511 51.128540 -24.746220
v 13.872383 49.537552 -25.251230
v 16.180122 49.537552 -25.251230
v 13.588417 49.537552 -25.141739
v 16.464058 49.537552 -25.141739
v 13.730396 49.537552 -24.746443
v 16.322102 49.537552 -24.746443
v 14.452995 52.207756 -25.247910
v 14.005295 51.671192 -25.247162
v 16.047226 51.671192 -25.247162
v 15.599510 52.207756 -25.247910
v 14.215415 52.463844 -25.145145
v 13.766671 51.929573 -25.146208
v 16.285835 51.929573 -25.146208
v 15.837089 52.463844 -25.145145
v 13.885983 51.800381 -24.746237
v 15.718285 52.335800 -24.746403
v 14.334190 52.335800 -24.746403
v 16.166531 51.800381 -24.746239
v 25.302486 0.167058 0.000000
v 25.302486 114.756409 0.000000
v -25.302494 114.756409 0.000000
v -25.302494 0.167058 0.000000
v 25.302494 0.167058 -21.797989
v 25.302494 114.756409 -21.797989
v -25.302486 114.756409 -21.797989
v -25.302486 0.167058 -21.797989
v -20.450436 8.947512 -21.797987
v 18.559361 8.947512 -21.797989
v -20.450436 103.055794 -21.797987
v 18.559361 103.055794 -21.797989
vt 0.266572 0.295074
vt 0.279223 0.294067
vt 0.279517 0.295992
vt 0.266956 0.297003
vt 0.009834 0.088999
vt 0.009834 0.319305
vt 0.000759 0.317114
vt 0.000759 0.091796
vt 0.011311 0.328252
vt 0.561205 0.319305
vt 0.559811 0.328252
vt 0.561205 0.088999
vt 0.569943 0.086484
vt 0.569943 0.321703
vt 0.562145 0.079946
vt 0.008381 0.079946
vt 0.284419 0.291297
vt 0.285189 0.299790
vt 0.261931 0.299826
vt 0.261499 0.291088
vt 0.996993 0.558957
vt 0.996993 0.574459
vt 0.990078 0.574459
vt 0.990078 0.558957
vt 0.990078 0.547998
vt 0.990078 0.501852
vt 0.996992 0.501852
vt 0.996993 0.547998
vt 0.997596 0.449589
vt 0.997602 0.495735
vt 0.990681 0.495735
vt 0.990688 0.449589
vt 0.960033 0.449580
vt 0.960019 0.495726
vt 0.974937 0.317531
vt 0.990268 0.317527
vt 0.997933 0.325275
vt 0.967278 0.325282
vt 0.996990 0.585417
vt 0.990082 0.585417
vt 0.967699 0.441833
vt 0.983030 0.441837
vt 0.997944 0.371421
vt 0.967283 0.371428
vt 0.442489 0.370888
vt 0.433818 0.370888
vt 0.433818 0.344199
vt 0.442489 0.344199
vt 0.461476 0.384437
vt 0.461476 0.370888
vt 0.470553 0.373327
vt 0.470553 0.381998
vt 0.479546 0.370888
vt 0.470875 0.370888
vt 0.470875 0.344199
vt 0.479546 0.344199
vt 0.461476 0.344199
vt 0.488945 0.370888
vt 0.488945 0.344199
vt 0.451888 0.370888
vt 0.451888 0.344199
vt 0.451888 0.330650
vt 0.442811 0.341761
vt 0.442811 0.333089
vt 0.507932 0.370888
vt 0.498533 0.370888
vt 0.498533 0.344199
vt 0.507932 0.344199
vt 0.451888 0.384437
vt 0.461476 0.330650
vt 0.442811 0.381998
vt 0.442811 0.373327
vt 0.470553 0.333089
vt 0.470553 0.341761
vt 0.997078 0.990724
vt 0.983893 0.990723
vt 0.983893 0.959924
vt 0.997078 0.959924
vt 0.977861 0.959924
vt 0.977861 0.990723
vt 0.983893 0.886335
vt 0.977862 0.886335
vt 0.977861 0.855427
vt 0.983893 0.855428
vt 0.968502 0.959924
vt 0.968502 0.990724
vt 0.968502 0.886335
vt 0.968503 0.855428
vt 0.997078 0.855427
vt 0.997078 0.886335
vt 0.997078 0.935259
vt 0.997078 0.947830
vt 0.983893 0.947830
vt 0.983893 0.935259
vt 0.977861 0.947830
vt 0.977862 0.935259
vt 0.997078 0.898301
vt 0.997078 0.911063
vt 0.983893 0.911063
vt 0.983893 0.898301
vt 0.977861 0.911063
vt 0.977861 0.898301
vt 0.968502 0.947830
vt 0.968503 0.935259
vt 0.968502 0.911063
vt 0.968502 0.898301
vt 0.983893 0.923044
vt 0.997078 0.923044
vt 0.977861 0.923044
vt 0.968502 0.923044
vt 0.399834 0.392536
vt 0.399834 0.495247
vt 0.181555 0.495247
vt 0.181555 0.392536
vt 0.836506 0.705426
vt 0.961504 0.705426
vt 0.961504 0.995613
vt 0.836506 0.995613
vt 0.139737 0.339496
vt 0.430983 0.339496
vt 0.403160 0.389846
vt 0.178404 0.389846
vt 0.139737 0.994115
vt 0.178404 0.927019
vt 0.430983 0.994115
vt 0.403160 0.927019
vt 0.750156 0.568468
vt 0.750156 0.278280
vt 0.875154 0.278281
vt 0.875154 0.568468
vt 0.009584 0.341437
vt 0.134582 0.341437
vt 0.132459 0.993579
vt 0.007461 0.993579
vt 0.007461 0.993579
vt 0.132459 0.993579
vt 0.134582 0.341437
vt 0.009584 0.341437
vn 0.000000 0.000000 -1.000000
vn 0.000000 0.000000 -1.000000
vn 0.000000 0.000000 -1.000000
vn 0.000000 0.000000 -1.000000
vn 0.000000 -1.000000 0.000000
vn 0.922520 -0.385949 0.000000
vn 0.922520 -0.385949 0.000000
vn 0.000000 -1.000000 0.000000
vn 0.922520 -0.385949 0.000000
vn 0.922520 -0.385949 0.000000
vn 0.999999 -0.001225 0.000000
vn 0.999999 -0.001225 0.000000
vn 0.000000 1.000000 0.000000
vn 0.000000 1.000000 0.000000
vn 0.000000 1.000000 0.000000
vn 0.000000 1.000000 0.000000
vn -1.000000 0.000000 -0.000000
vn -1.000000 0.000000 -0.000000
vn -1.000000 0.000000 -0.000000
vn -1.000000 0.000000 -0.000000
vn 0.000000 0.000000 -1.000000
vn 0.000000 0.000000 -1.000000
vn 0.000000 0.000000 -1.000000
vn 0.000000 0.000000 -1.000000
vn 0.000000 0.000000 -1.000000
vn 0.000000 0.000000 -1.000000
vn 0.000000 0.000000 -1.000000
vn 0.000000 0.000000 -1.000000
vn 0.000000 0.941987 -0.335651
vn 0.000000 0.941987 -0.335651
vn 0.000000 0.941987 -0.335651
vn 0.000000 0.941987 -0.335651
vn -0.941987 0.000000 -0.335650
vn -0.941987 0.000000 -0.335649
vn -0.941987 0.000000 -0.335649
vn -0.941987 0.000000 -0.335650
vn 0.000000 -0.941987 -0.335651
vn 0.000000 -0.941987 -0.335651
vn 0.000000 -0.941987 -0.335651
vn 0.000000 -0.941987 -0.335651
vn 0.941987 0.000000 -0.335649
vn 0.941987 0.000000 -0.335649
vn 0.941987 0.000000 -0.335649
vn 0.941987 0.000000 -0.335649
vn 0.000000 0.000000 -1.000000
vn 0.000000 0.000000 -1.000000
vn 0.000000 0.000000 -1.000000
vn 0.000000 0.000000 -1.000000
vn 0.000000 0.000000 -1.000000
vn 0.000000 0.000000 -1.000000
vn 0.000000 0.000000 -1.000000
vn 0.000000 0.000000 -1.000000
vn 0.000000 -0.316190 -0.948696
vn 0.000000 0.316189 -0.948696
vn 0.000000 0.316189 -0.948696
vn 0.000000 -0.316190 -0.948696
vn 0.000000 -0.989821 -0.142318
vn 0.000000 -1.000000 0.000000
vn 0.000000 -1.000000 0.000000
vn 0.000000 -0.989821 -0.142318
vn 0.000000 0.989821 -0.142320
vn 0.000000 1.000000 0.000000
vn 0.000000 1.000000 0.000000
vn 0.000000 0.989821 -0.142320
vn 1.000000 0.000000 0.000000
vn 1.000000 0.000000 0.000000
vn 1.000000 0.000000 0.000000
vn 1.000000 0.000000 0.000000
vn -1.000000 0.000000 -0.000001
vn -1.000000 0.000000 -0.000001
vn -1.000000 0.000000 -0.000000
vn -1.000000 0.000000 -0.000000
vn 0.000000 -0.989821 -0.142318
vn 0.000000 -0.989821 -0.142318
vn 0.000000 -0.316190 -0.948696
vn 0.000000 -0.316190 -0.948696
vn 0.000000 0.316189 -0.948696
vn 0.000000 0.316189 -0.948696
vn 0.000000 0.989821 -0.142320
vn 0.000000 0.989821 -0.142320
vn 1.000000 0.000000 0.000001
vn 1.000000 0.000000 0.000001
vn 1.000000 0.000000 0.000000
vn 1.000000 0.000000 0.000000
vn -1.000000 0.000000 -0.000000
vn -1.000000 0.000000 -0.000000
vn -1.000000 0.000000 -0.000000
vn -1.000000 0.000000 -0.000000
vn 1.000000 0.000000 0.000000
vn 1.000000 0.000000 0.000000
vn 1.000000 0.000000 0.000000
vn 1.000000 0.000000 0.000000
vn 0.000000 1.000000 0.000000
vn 0.000000 1.000000 0.000000
vn 0.000000 1.000000 0.000000
vn 0.000000 1.000000 0.000000
vn -1.000000 0.000000 -0.000000
vn -1.000000 0.000000 -0.000000
vn -1.000000 0.000000 -0.000000
vn -1.000000 0.000000 -0.000000
vn -0.259462 0.000000 -0.965753
vn -0.129552 0.000000 -0.991573
vn -0.129552 0.000000 -0.991573
vn -0.259462 0.000000 -0.965753
vn -0.129554 0.000000 0.991572
vn -0.259466 0.000000 0.965752
vn -0.259466 0.000000 0.965752
vn -0.129554 0.000000 0.991572
vn 0.129552 0.000000 -0.991573
vn 0.259463 0.000000 -0.965753
vn 0.259463 0.000000 -0.965753
vn 0.129552 0.000000 -0.991573
vn 0.000000 -1.000000 0.000000
vn 0.000000 -1.000000 0.000000
vn -0.000001 -1.000000 -0.000000
vn -0.000001 -1.000000 -0.000000
vn 0.259466 0.000000 0.965752
vn 0.129554 0.000000 0.991572
vn 0.129554 0.000000 0.991572
vn 0.259466 0.000000 0.965752
vn 0.000000 1.000000 0.000000
vn 0.000000 1.000000 0.000000
vn 0.000000 1.000000 0.000000
vn 0.000000 1.000000 0.000000
vn -0.129552 0.000000 -0.991573
vn 0.129552 0.000000 -0.991573
vn 0.129552 0.000000 -0.991573
vn -0.129552 0.000000 -0.991573
vn 0.000000 -1.000000 0.000000
vn 0.000000 -1.000000 0.000000
vn 0.000000 -1.000000 0.000000
vn 0.000000 -1.000000 0.000000
vn 0.129554 0.000000 0.991572
vn 0.129554 0.000000 0.991572
vn -0.129554 0.000000 0.991572
vn -0.129554 0.000000 0.991572
vn 0.000000 1.000000 0.000000
vn 0.000000 1.000000 0.000000
vn 0.000000 1.000000 0.000000
vn 0.000000 1.000000 0.000000
vn 0.000001 -1.000000 0.000000
vn 0.000001 -1.000000 0.000000
vn 0.000000 -1.000000 0.000000
vn 0.000000 -1.000000 0.000000
vn 0.359094 -0.001520 0.933300
vn 0.941008 -0.001615 -0.338380
vn 0.924282 -0.060979 -0.376807
vn 0.244712 0.001297 0.969595
vn -0.965621 0.064839 -0.251740
vn 0.924282 -0.060979 -0.376807
vn 0.941008 -0.001615 -0.338380
vn -0.962193 0.000676 -0.272369
vn -0.924282 -0.060979 -0.376809
vn 0.965620 0.064840 -0.251740
vn 0.962193 0.000677 -0.272369
vn -0.941008 -0.001614 -0.338380
vn 0.244712 0.001297 0.969595
vn -0.965621 0.064839 -0.251740
vn -0.962193 0.000676 -0.272369
vn 0.359094 -0.001520 0.933300
vn 0.965620 0.064840 -0.251740
vn -0.244710 0.001298 0.969595
vn -0.359092 -0.001520 0.933301
vn 0.962193 0.000677 -0.272369
vn -0.941008 -0.001614 -0.338380
vn -0.359092 -0.001520 0.933301
vn -0.244710 0.001298 0.969595
vn -0.924282 -0.060979 -0.376809
vn 0.041687 0.038592 0.998385
vn -0.000954 -0.099714 0.995016
vn 0.785870 -0.403995 -0.468183
vn 0.447417 -0.716426 -0.535305
vn 0.447417 -0.716426 -0.535305
vn 0.785870 -0.403995 -0.468183
vn -0.857178 0.449124 -0.252059
vn -0.519946 0.818487 -0.244410
vn 0.000953 -0.099713 0.995016
vn -0.041688 0.038593 0.998385
vn -0.447418 -0.716426 -0.535305
vn -0.785869 -0.403995 -0.468186
vn -0.785869 -0.403995 -0.468186
vn -0.447418 -0.716426 -0.535305
vn 0.519946 0.818487 -0.244410
vn 0.857178 0.449125 -0.252059
vn -0.519946 0.818487 -0.244410
vn -0.857178 0.449124 -0.252059
vn -0.000954 -0.099714 0.995016
vn 0.041687 0.038592 0.998385
vn 0.857178 0.449125 -0.252059
vn 0.519946 0.818487 -0.244410
vn -0.041688 0.038593 0.998385
vn 0.000953 -0.099713 0.995016
vn 0.244712 0.001297 0.969595
vn 0.924282 -0.060979 -0.376807
vn 0.785870 -0.403995 -0.468183
vn -0.000954 -0.099714 0.995016
vn 0.041687 0.038592 0.998385
vn 0.447417 -0.716426 -0.535305
vn 0.000000 -0.858331 -0.513096
vn -0.000000 0.066364 0.997795
vn -0.000000 0.066364 0.997795
vn 0.000000 -0.858331 -0.513096
vn -0.447418 -0.716426 -0.535305
vn -0.041688 0.038593 0.998385
vn 0.000953 -0.099713 0.995016
vn -0.785869 -0.403995 -0.468186
vn -0.924282 -0.060979 -0.376809
vn -0.244710 0.001298 0.969595
vn 0.785870 -0.403995 -0.468183
vn 0.924282 -0.060979 -0.376807
vn -0.965621 0.064839 -0.251740
vn -0.857178 0.449124 -0.252059
vn 0.000000 -0.858331 -0.513096
vn 0.447417 -0.716426 -0.535305
vn -0.519946 0.818487 -0.244410
vn 0.000000 0.975618 -0.219478
vn -0.447418 -0.716426 -0.535305
vn 0.000000 -0.858331 -0.513096
vn 0.000000 0.975618 -0.219478
vn 0.519946 0.818487 -0.244410
vn -0.924282 -0.060979 -0.376809
vn -0.785869 -0.403995 -0.468186
vn 0.857178 0.449125 -0.252059
vn 0.965620 0.064840 -0.251740
vn -0.857178 0.449124 -0.252059
vn -0.965621 0.064839 -0.251740
vn 0.244712 0.001297 0.969595
vn -0.000954 -0.099714 0.995016
vn 0.000000 0.975618 -0.219478
vn -0.519946 0.818487 -0.244410
vn 0.041687 0.038592 0.998385
vn -0.000000 0.066364 0.997795
vn 0.519946 0.818487 -0.244410
vn 0.000000 0.975618 -0.219478
vn -0.000000 0.066364 0.997795
vn -0.041688 0.038593 0.998385
vn 0.965620 0.064840 -0.251740
vn 0.857178 0.449125 -0.252059
vn 0.000953 -0.099713 0.995016
vn -0.244710 0.001298 0.969595
vn -0.000000 0.000000 1.000000
vn -0.000000 0.000000 1.000000
vn -0.000000 0.000000 1.000000
vn -0.000000 0.000000 1.000000
vn 0.000000 -1.000000 0.000000
vn 0.000000 -1.000000 0.000000
vn 0.000000 -1.000000 0.000000
vn 0.000000 -1.000000 0.000000
vn 0.000000 0.000000 -1.000000
vn 0.000000 0.000000 -1.000000
vn 0.000000 0.000000 -1.000000
vn 0.000000 0.000000 -1.000000
vn 0.000000 0.000000 -1.000000
vn 0.000000 0.000000 -1.000000
vn 0.000000 0.000000 -1.000000
vn 0.000000 0.000000 -1.000000
vn 0.000000 0.000000 -1.000000
vn 0.000000 0.000000 -1.000000
vn 0.000000 0.000000 -1.000000
vn 0.000000 0.000000 -1.000000
vn 0.000000 1.000000 0.000000
vn 0.000000 1.000000 0.000000
vn 0.000000 1.000000 0.000000
vn 0.000000 1.000000 0.000000
vn 0.000000 0.000000 -1.000000
vn 0.000000 0.000000 -1.000000
vn 0.000000 0.000000 -1.000000
vn 0.000000 0.000000 -1.000000
vn 1.000000 0.000000 0.000000
vn 1.000000 0.000000 0.000000
vn 1.000000 0.000000 0.000000
vn 1.000000 0.000000 0.000000
vn -1.000000 0.000000 -0.000000
vn -1.000000 0.000000 -0.000000
vn -1.000000 0.000000 -0.000000
vn -1.000000 0.000000 -0.000000
g Electrical_Box_A_LOD0 Electrical_Box_A
usemtl ElectricalBox_B:HIGH_CHECKER_SG
f 14/1/1 16/2/2 15/3/3 13/4/4
f 6/5/5 5/6/6 1/7/7 2/8/8
f 1/9/9 5/6/10 7/10/11 3/11/12
f 7/10/13 8/12/14 4/13/15 3/14/16
f 4/15/17 8/12/18 6/5/19 2/16/20
f 12/17/21 8/12/22 7/10/23 11/18/24
f 5/6/25 9/19/26 11/18/27 7/10/28
f 10/20/29 14/1/30 13/4/31 9/19/32
f 9/19/33 13/4/34 15/3/35 11/18/36
f 11/18/37 15/3/38 16/2/39 12/17/40
f 12/17/41 16/2/42 14/1/43 10/20/44
f 12/17/45 10/20/46 6/5/47 8/12/48
f 6/5/49 10/20/50 9/19/51 5/6/52
f 24/21/53 28/22/54 26/23/55 22/24/56
f 21/25/57 17/26/58 18/27/59 23/28/60
f 27/29/61 20/30/62 19/31/63 25/32/64
f 21/33/65 25/32/66 19/31/67 17/34/68
f 28/35/69 24/36/70 23/37/71 27/38/72
f 21/25/73 23/28/74 24/21/75 22/24/76
f 26/23/77 28/22/78 27/39/79 25/40/80
f 22/41/81 26/42/82 25/32/83 21/33/84
f 27/38/85 23/37/86 18/43/87 20/44/88
f 40/45/89 38/46/90 37/47/91 39/48/92
f 33/49/93 34/50/94 43/51/95 41/52/96
f 41/53/97 43/54/98 44/55/99 42/56/100
f 43/54/101 34/50/102 35/57/103 44/55/104
f 33/58/105 41/53/106 42/56/107 36/59/108
f 30/60/109 40/45/110 39/48/111 31/61/112
f 32/62/113 31/61/114 39/63/115 37/64/116
f 38/65/117 29/66/118 32/67/119 37/68/120
f 29/69/121 30/60/122 34/50/123 33/49/124
f 34/50/125 30/60/126 31/61/127 35/57/128
f 36/70/129 35/57/130 31/61/131 32/62/132
f 32/67/133 29/66/134 33/58/135 36/59/136
f 38/71/137 40/72/138 30/60/139 29/69/140
f 42/73/141 44/74/142 35/57/143 36/70/144
f 58/75/145 54/76/146 45/77/147 51/78/148
f 48/79/149 45/77/150 54/76/151 56/80/152
f 47/81/153 50/82/154 57/83/155 55/84/156
f 51/85/157 48/79/158 56/80/159 58/86/160
f 50/82/161 53/87/162 59/88/163 57/83/164
f 55/84/165 59/89/166 53/90/167 47/81/168
f 70/91/169 68/92/170 61/93/171 60/94/172
f 60/94/173 61/93/174 65/95/175 64/96/176
f 71/97/177 69/98/178 63/99/179 62/100/180
f 62/100/181 63/99/182 67/101/183 66/102/184
f 64/96/185 65/95/186 68/103/187 70/104/188
f 66/102/189 67/101/190 69/105/191 71/106/192
f 51/78/193 45/77/194 61/93/195 68/92/196
f 70/91/197 60/94/198 46/107/199 52/108/200
f 52/108/201 46/107/202 63/99/203 69/98/204
f 71/97/205 62/100/206 47/81/207 53/90/208
f 61/93/209 45/77/210 48/79/211 65/95/212
f 46/107/213 60/94/214 64/96/215 49/109/216
f 63/99/217 46/107/218 49/109/219 67/101/220
f 47/81/221 62/100/222 66/102/223 50/82/224
f 65/95/225 48/79/226 51/85/227 68/103/228
f 49/109/229 64/96/230 70/104/231 52/110/232
f 67/101/233 49/109/234 52/110/235 69/105/236
f 50/82/237 66/102/238 71/106/239 53/87/240
f 75/111/241 72/112/242 73/113/243 74/114/244
f 76/115/245 72/116/246 75/117/247 79/118/248
f 76/119/249 79/120/250 80/121/251 81/122/252
f 77/123/253 76/119/254 81/122/255 83/124/256
f 78/125/257 77/123/258 83/124/259 82/126/260
f 77/127/261 78/128/262 74/129/263 73/130/264
f 79/120/265 78/125/266 82/126/267 80/121/268
f 72/131/269 76/132/270 77/133/271 73/134/272
f 74/135/273 78/136/274 79/137/275 75/138/276
