# This file uses meters as units for non-parametric coordinates.

mtllib Electrical_Box_B_LOD3.mtl
g default
v -1.838953 77.141769 -0.029991
v -1.838953 77.141769 -18.183987
v -1.873615 78.527725 -0.102310
v -1.873626 78.527725 -18.111664
v -40.920887 78.527725 -0.102310
v -40.920898 78.527725 -18.111664
v -40.973381 77.141769 -0.029991
v -40.973381 77.141769 -18.183983
v 38.596333 81.231735 0.028599
v 38.596191 81.316635 -18.199596
v 38.596252 82.522583 0.028553
v 38.596222 82.522583 -18.199646
v -0.531923 82.522583 0.028549
v -0.531922 82.522583 -18.199646
v -0.532073 81.231735 0.028603
v -0.531850 81.316643 -18.199596
v -2.935097 0.274121 0.000000
v -2.935097 76.985779 0.000000
v -40.055458 76.985779 0.000000
v -40.055458 0.274121 0.000000
v -2.866531 0.205590 -16.399178
v -2.866531 77.054314 -16.399178
v -40.123947 77.054314 -16.399178
v -40.123947 0.205590 -16.399178
v 37.546574 0.000000 0.089031
v 37.698772 0.000000 -16.490738
v 37.698723 81.353683 -0.008953
v 37.698772 81.353683 -16.490738
v 0.470328 81.353683 -0.008949
v 0.470347 81.353683 -16.490746
v 0.470328 0.000000 -0.008949
v 0.470347 0.000000 -16.490746
vt 0.535102 0.594917
vt 0.444310 0.594917
vt 0.444671 0.587983
vt 0.534740 0.587983
vt 0.444671 0.392700
vt 0.534740 0.392700
vt 0.444310 0.385763
vt 0.535102 0.385763
vt 0.437731 0.588157
vt 0.437731 0.392437
vt 0.541681 0.392437
vt 0.541681 0.588157
vt 0.354702 0.601794
vt 0.400942 0.601794
vt 0.400942 0.701367
vt 0.354702 0.701367
vt 0.767022 0.032319
vt 0.767022 0.118980
vt 0.580998 0.118980
vt 0.580998 0.032319
vt 0.400942 0.601795
vt 0.400942 0.701367
vt 0.354702 0.701367
vt 0.354702 0.601794
vt 0.575063 0.119250
vt 0.575063 0.032591
vt 0.580862 0.026182
vt 0.766887 0.026182
vt 0.767156 0.124713
vt 0.581133 0.124713
vt 0.772957 0.032047
vt 0.772957 0.118709
vt 0.399834 0.392536
vt 0.399834 0.495247
vt 0.181555 0.495247
vt 0.181555 0.392536
vt 0.576344 0.217710
vt 0.658361 0.217710
vt 0.658361 0.576861
vt 0.576344 0.576861
vt 0.399349 0.598229
vt 0.355490 0.598229
vt 0.355490 0.498768
vt 0.399460 0.498716
vt 0.742613 0.576861
vt 0.660596 0.576861
vt 0.660596 0.217710
vt 0.742613 0.217710
vt 0.762469 0.131151
vt 0.762468 0.212732
vt 0.575487 0.212732
vt 0.575487 0.131151
vt 0.181555 0.495247
vt 0.181555 0.392536
vt 0.399834 0.392536
vt 0.399834 0.495247
vt 0.961504 0.705426
vt 0.961504 0.995613
vt 0.836506 0.995613
vt 0.836506 0.705426
vt 0.399834 0.495247
vt 0.181555 0.495247
vt 0.181555 0.392536
vt 0.399834 0.392536
vt 0.182350 0.499421
vt 0.264779 0.499421
vt 0.264779 0.922556
vt 0.182350 0.922556
vt 0.351794 0.922557
vt 0.269365 0.922557
vt 0.269365 0.499421
vt 0.351794 0.499421
vt 0.399349 0.598229
vt 0.355490 0.598228
vt 0.355490 0.498768
vt 0.399460 0.498716
vt 0.399834 0.392536
vt 0.399834 0.495247
vt 0.181555 0.495247
vt 0.181555 0.392536
vn 0.999687 0.025023 0.000000
vn 0.999687 0.025023 0.000000
vn 0.999687 0.025023 0.000000
vn 0.999687 0.025023 0.000000
vn 0.000000 1.000000 0.000000
vn 0.000000 1.000000 0.000000
vn 0.000000 1.000000 0.000000
vn 0.000000 1.000000 0.000000
vn -0.999283 0.037852 -0.000000
vn -0.999283 0.037852 -0.000000
vn -0.999283 0.037852 -0.000000
vn -0.999283 0.037852 -0.000000
vn 0.000000 0.052116 -0.998641
vn 0.000000 0.052116 -0.998641
vn 0.000000 0.052116 -0.998641
vn 0.000000 0.052116 -0.998641
vn -0.000000 0.052116 0.998641
vn -0.000000 0.052116 0.998641
vn -0.000000 0.052116 0.998641
vn -0.000000 0.052116 0.998641
vn 0.000000 -1.000000 0.000000
vn 0.000000 -1.000000 0.000000
vn 0.000000 -1.000000 0.000000
vn 0.000000 -1.000000 0.000000
vn 0.000000 1.000000 0.000000
vn 0.000000 1.000000 0.000000
vn 0.000000 1.000000 0.000000
vn 0.000000 1.000000 0.000000
vn 0.000000 -0.999989 -0.004658
vn 0.000000 -0.999989 -0.004658
vn 0.000000 -0.999989 -0.004658
vn 0.000000 -0.999989 -0.004658
vn -1.000000 0.000040 -0.000005
vn -1.000000 0.000040 -0.000005
vn -1.000000 0.000040 -0.000005
vn -1.000000 0.000040 -0.000005
vn -0.000000 0.000040 1.000000
vn -0.000000 0.000040 1.000000
vn -0.000000 0.000040 1.000000
vn -0.000000 0.000040 1.000000
vn 0.000000 -0.000033 -1.000000
vn 0.000000 -0.000033 -1.000000
vn 0.000000 -0.000033 -1.000000
vn 0.000000 -0.000033 -1.000000
vn 1.000000 0.000030 -0.000004
vn 1.000000 0.000030 -0.000004
vn 1.000000 0.000030 -0.000004
vn 1.000000 0.000030 -0.000004
vn -0.000000 0.000000 1.000000
vn -0.000000 0.000000 1.000000
vn -0.000000 0.000000 1.000000
vn -0.000000 0.000000 1.000000
vn 0.999991 0.000000 0.004180
vn 0.999991 0.000000 0.004180
vn 0.999991 0.000000 0.004180
vn 0.999991 0.000000 0.004180
vn -0.000000 0.999991 0.004179
vn -0.000000 0.999991 0.004179
vn -0.000000 0.999991 0.004179
vn -0.000000 0.999991 0.004179
vn -0.999991 0.000000 0.004179
vn -0.999991 0.000000 0.004179
vn -0.999991 0.000000 0.004179
vn -0.999991 0.000000 0.004179
vn -0.000000 -0.999991 0.004179
vn -0.000000 -0.999991 0.004179
vn -0.000000 -0.999991 0.004179
vn -0.000000 -0.999991 0.004179
vn 0.000000 0.000000 -1.000000
vn 0.000000 0.000000 -1.000000
vn 0.000000 0.000000 -1.000000
vn 0.000000 0.000000 -1.000000
vn 0.000000 -1.000000 0.000000
vn 0.000000 -1.000000 0.000000
vn 0.000000 -1.000000 0.000000
vn 0.000000 -1.000000 0.000000
vn -0.001318 0.000603 0.999999
vn -0.001318 0.000603 0.999999
vn -0.001318 0.000603 0.999999
vn -0.001318 0.000603 0.999999
vn 0.999989 -0.000932 0.004602
vn 0.999989 -0.000932 0.004602
vn 0.999989 -0.000932 0.004602
vn 0.999989 -0.000932 0.004602
vn -1.000000 0.000000 -0.000000
vn -1.000000 0.000000 -0.000000
vn -1.000000 0.000000 -0.000000
vn -1.000000 0.000000 -0.000000
vn 0.000000 1.000000 0.000000
vn 0.000000 1.000000 0.000000
vn 0.000000 1.000000 0.000000
vn 0.000000 1.000000 0.000000
vn 0.000000 0.000000 -1.000000
vn 0.000000 0.000000 -1.000000
vn 0.000000 0.000000 -1.000000
vn 0.000000 0.000000 -1.000000
g Electrical_Box_B_LOD3 Electrical_Box_B
usemtl ElectricalBox_B:HIGH_CHECKER_SG
f 1/1/1 2/2/2 4/3/3 3/4/4
f 3/4/5 4/3/6 6/5/7 5/6/8
f 5/6/9 6/5/10 8/7/11 7/8/12
f 2/9/13 8/10/14 6/5/15 4/3/16
f 7/11/17 1/12/18 3/4/19 5/6/20
f 2/13/21 1/14/22 7/15/23 8/16/24
f 11/17/25 12/18/26 14/19/27 13/20/28
f 9/21/29 15/22/30 16/23/31 10/24/32
f 13/20/33 14/19/34 16/25/35 15/26/36
f 15/27/37 9/28/38 11/17/39 13/20/40
f 10/29/41 16/30/42 14/19/43 12/18/44
f 9/31/45 10/32/46 12/18/47 11/17/48
f 20/33/49 17/34/50 18/35/51 19/36/52
f 17/37/53 21/38/54 22/39/55 18/40/56
f 18/41/57 22/42/58 23/43/59 19/44/60
f 19/45/61 23/46/62 24/47/63 20/48/64
f 20/49/65 24/50/66 21/51/67 17/52/68
f 23/53/69 22/54/70 21/55/71 24/56/72
f 32/57/73 26/58/74 25/59/75 31/60/76
f 25/61/77 27/62/78 29/63/79 31/64/80
f 25/65/81 26/66/82 28/67/83 27/68/84
f 29/69/85 30/70/86 32/71/87 31/72/88
f 27/73/89 28/74/90 30/75/91 29/76/92
f 26/77/93 32/78/94 30/79/95 28/80/96
