# This file uses meters as units for non-parametric coordinates.

mtllib Ceiling_Light_LOD1.mtl
g default
v -94.653069 -4.062135 8.346035
v 94.584106 -4.062135 8.346035
v -94.653069 0.000000 8.346035
v 94.584106 0.000000 8.346035
v -94.653069 0.000000 -8.346035
v 94.584106 0.000000 -8.346035
v -94.653069 -4.062135 -8.346035
v 94.584106 -4.062135 -8.346035
v -94.686867 -7.983321 3.442285
v -94.686867 -12.286415 2.224692
v -94.686867 -15.052010 6.031209
v -94.686867 -12.286415 9.837723
v -94.686867 -7.983321 8.620131
v -94.686867 -7.983321 -3.442285
v -94.686867 -12.286415 -2.224692
v -94.686867 -15.052010 -6.031209
v -94.686867 -12.286415 -9.837723
v -94.686867 -7.983321 -8.620131
v 94.686867 -7.983321 -3.442285
v 94.686867 -12.286415 -2.224692
v 94.686867 -15.052010 -6.031209
v 94.686867 -12.286415 -9.837723
v 94.686867 -7.983321 -8.620131
v 94.686867 -7.983321 3.442285
v 94.686867 -12.286415 2.224692
v 94.686867 -15.052010 6.031209
v 94.686867 -12.286415 9.837723
v 94.686867 -7.983321 8.620131
v -94.323776 -4.062135 -7.887349
v 94.323776 -4.062135 -7.887349
v -94.323776 -9.408225 -16.753450
v 94.323776 -9.408225 -16.753450
v -94.323776 -5.047696 -7.853018
v -94.323776 -5.047696 0.000000
v 94.323776 -5.047696 0.000000
v 94.323776 -5.047696 -7.853022
v -94.323776 -10.049063 -16.038086
v 94.323776 -10.049057 -16.038080
v -94.017723 -16.267662 -21.077703
v -94.017723 -16.689228 -20.186855
v 94.017723 -16.267662 -21.077703
v 94.017723 -16.689228 -20.186853
v -94.323776 -4.062135 7.887349
v 94.323776 -4.062135 7.887349
v -94.323776 -9.408225 16.753450
v 94.323776 -9.408225 16.753450
v -94.323776 -5.047696 7.853018
v 94.323776 -5.047696 7.853022
v 94.323776 -10.049057 16.038080
v -94.323776 -10.049063 16.038086
v -94.017723 -16.267662 21.077703
v -94.017723 -16.689228 20.186855
v 94.017723 -16.267662 21.077703
v 94.017723 -16.689228 20.186853
v -94.686867 -6.682322 8.251579
v -94.686867 -0.216739 8.122681
v -96.007339 -6.682322 8.251579
v -96.007339 -0.216739 8.122681
v -94.686867 -6.673701 11.994186
v -96.007339 -6.673701 11.994186
v -94.686867 -16.112982 11.985567
v -96.007339 -16.112982 11.985567
v -94.686867 -6.682322 -8.251579
v -94.686867 -0.216739 -8.122681
v -96.007339 -6.682322 -8.251579
v -96.007339 -0.216739 -8.122681
v -94.686867 -6.673701 -11.994186
v -96.007339 -6.673701 -11.994186
v -94.686867 -16.112982 -11.985567
v -96.007339 -16.112982 -11.985567
v 94.686867 -6.682322 8.251579
v 94.686867 -0.216739 8.122681
v 96.007339 -6.682322 8.251579
v 96.007339 -0.216739 8.122681
v 94.686867 -6.673701 11.994186
v 96.007339 -6.673701 11.994186
v 94.686867 -16.112982 11.985567
v 96.007339 -16.112982 11.985567
v 94.686867 -0.087838 0.000000
v 96.007339 -0.087838 0.000000
v 94.686867 -6.682322 -8.251579
v 94.686867 -0.216739 -8.122681
v 96.007339 -6.682322 -8.251579
v 96.007339 -0.216739 -8.122681
v 94.686867 -6.673701 -11.994186
v 96.007339 -6.673701 -11.994186
v 94.686867 -16.112982 -11.985567
v 96.007339 -16.112982 -11.985567
vt 0.678775 0.967700
vt 0.678775 0.035675
vt 0.698470 0.035675
vt 0.698470 0.967700
vt 0.779402 0.035675
vt 0.779402 0.967698
vt 0.799097 0.035675
vt 0.799097 0.967699
vt 0.880029 0.035675
vt 0.880029 0.967699
vt 0.698471 0.015667
vt 0.779402 0.015669
vt 0.779403 0.987703
vt 0.698471 0.987709
vt 0.137475 0.988506
vt 0.114520 0.987897
vt 0.208342 0.987825
vt 0.185432 0.988458
vt 0.161451 0.988679
vt 0.031529 0.023785
vt 0.008559 0.024404
vt 0.102458 0.024564
vt 0.079532 0.023852
vt 0.055532 0.023614
vt 0.032117 0.988503
vt 0.009161 0.987884
vt 0.102989 0.987827
vt 0.080079 0.988457
vt 0.056096 0.988679
vt 0.137064 0.023788
vt 0.114095 0.024410
vt 0.207983 0.024550
vt 0.185059 0.023853
vt 0.161062 0.023618
vt 0.401611 0.985903
vt 0.402502 0.018742
vt 0.442208 0.018783
vt 0.441322 0.985942
vt 0.354757 0.985859
vt 0.355655 0.018693
vt 0.218317 0.020115
vt 0.268386 0.020358
vt 0.217678 0.983816
vt 0.267783 0.983970
vt 0.218594 0.015257
vt 0.267549 0.989025
vt 0.217995 0.988853
vt 0.267364 0.015161
vt 0.308093 0.984149
vt 0.306057 0.990973
vt 0.306459 0.012999
vt 0.308724 0.020245
vt 0.316040 0.984381
vt 0.316939 0.020093
vt 0.481032 0.985982
vt 0.481913 0.018822
vt 0.528762 0.018866
vt 0.527885 0.986032
vt 0.666150 0.020590
vt 0.664909 0.984519
vt 0.614820 0.984332
vt 0.616074 0.020721
vt 0.617115 0.015526
vt 0.665883 0.015728
vt 0.664602 0.989335
vt 0.615041 0.989386
vt 0.576571 0.991239
vt 0.577990 0.013263
vt 0.575701 0.020512
vt 0.574548 0.984415
vt 0.566606 0.984631
vt 0.567475 0.020344
vt 0.971633 0.101245
vt 0.976828 0.101166
vt 0.977342 0.126616
vt 0.972142 0.126747
vt 0.986882 0.070199
vt 0.986848 0.033041
vt 0.992045 0.033038
vt 0.992081 0.070193
vt 0.972149 0.070153
vt 0.986859 0.075406
vt 0.972127 0.075344
vt 0.986823 0.163902
vt 0.986873 0.126747
vt 0.971644 0.095764
vt 0.986850 0.027841
vt 0.907700 0.101235
vt 0.907173 0.126731
vt 0.901971 0.126598
vt 0.902507 0.101149
vt 0.892459 0.070189
vt 0.887261 0.070184
vt 0.887295 0.033029
vt 0.892493 0.033033
vt 0.907190 0.070154
vt 0.907202 0.075353
vt 0.892471 0.075387
vt 0.892473 0.163874
vt 0.892445 0.126719
vt 0.907686 0.095762
vt 0.892494 0.027834
vt 0.907709 0.257928
vt 0.907200 0.283430
vt 0.902000 0.283299
vt 0.902514 0.257849
vt 0.892460 0.226882
vt 0.887261 0.226876
vt 0.887297 0.189721
vt 0.892494 0.189724
vt 0.907193 0.226836
vt 0.907215 0.232028
vt 0.892484 0.232089
vt 0.892519 0.320585
vt 0.892469 0.283430
vt 0.939677 0.257585
vt 0.939677 0.252641
vt 0.907698 0.252447
vt 0.892492 0.184524
vt 0.971642 0.257918
vt 0.976835 0.257832
vt 0.977371 0.283281
vt 0.972169 0.283414
vt 0.986883 0.226872
vt 0.986849 0.189717
vt 0.992047 0.189712
vt 0.992081 0.226867
vt 0.972152 0.226837
vt 0.986871 0.232070
vt 0.972140 0.232036
vt 0.986869 0.320557
vt 0.986897 0.283402
vt 0.971657 0.252445
vt 0.986848 0.184517
vn 0.000000 0.000000 1.000000
vn 0.000000 0.000000 1.000000
vn 0.000000 0.000000 1.000000
vn 0.000000 0.000000 1.000000
vn 0.000000 1.000000 0.000000
vn 0.000000 1.000000 0.000000
vn 0.000000 1.000000 0.000000
vn 0.000000 1.000000 0.000000
vn 0.000000 0.000000 -1.000000
vn 0.000000 0.000000 -1.000000
vn 0.000000 0.000000 -1.000000
vn 0.000000 0.000000 -1.000000
vn 0.000000 -1.000000 0.000000
vn 0.000000 -1.000000 0.000000
vn 0.000000 -1.000000 0.000000
vn 0.000000 -1.000000 0.000000
vn 1.000000 0.000000 0.000000
vn 1.000000 0.000000 0.000000
vn 1.000000 0.000000 0.000000
vn 1.000000 0.000000 0.000000
vn -1.000000 0.000000 0.000000
vn -1.000000 0.000000 0.000000
vn -1.000000 0.000000 0.000000
vn -1.000000 0.000000 0.000000
vn 0.008660 -0.309005 -0.951021
vn 0.008717 0.555049 -0.831772
vn -0.008717 0.555049 -0.831772
vn -0.008660 -0.309005 -0.951021
vn 0.008717 0.555049 0.831772
vn 0.008660 -0.309005 0.951021
vn -0.008660 -0.309005 0.951021
vn -0.008717 0.555049 0.831772
vn 0.008660 -0.309005 0.951021
vn 0.008660 -0.999963 0.000000
vn -0.008660 -0.999963 0.000000
vn -0.008660 -0.309005 0.951021
vn -0.008660 -0.309005 -0.951021
vn -0.008660 -0.999963 0.000000
vn 0.008660 -0.999963 0.000000
vn 0.008660 -0.309005 -0.951021
vn -0.008660 -0.999963 0.000000
vn -0.008660 -0.309005 0.951021
vn 0.008660 -0.309005 0.951021
vn 0.008660 -0.999963 0.000000
vn 0.008717 0.555049 0.831772
vn 0.008660 -0.309005 0.951021
vn -0.008660 -0.309005 0.951021
vn -0.008717 0.555049 0.831772
vn 0.008660 -0.309005 -0.951021
vn 0.008717 0.555049 -0.831772
vn -0.008717 0.555049 -0.831772
vn -0.008660 -0.309005 -0.951021
vn 0.008660 -0.999963 0.000000
vn 0.008660 -0.309005 -0.951021
vn -0.008660 -0.309005 -0.951021
vn -0.008660 -0.999963 0.000000
vn 0.000000 -1.000000 0.000000
vn 0.000000 -1.000000 0.000000
vn 0.000000 -1.000000 0.000000
vn 0.000000 -1.000000 0.000000
vn 0.000000 -0.962647 0.270760
vn 0.000000 -0.962647 0.270760
vn 0.000000 -0.911294 0.411757
vn 0.000000 -0.911294 0.411757
vn 0.000000 0.964099 -0.265545
vn 0.000000 0.912823 -0.408355
vn 0.000000 0.912823 -0.408355
vn 0.000000 0.964099 -0.265545
vn 1.000000 0.000000 0.000000
vn 1.000000 0.000000 0.000000
vn 1.000000 0.000004 0.000000
vn 1.000000 0.000004 0.000000
vn -1.000000 0.000000 0.000000
vn -1.000000 0.000000 0.000000
vn -1.000000 0.000000 0.000000
vn -1.000000 0.000000 0.000000
vn -1.000000 -0.000004 0.000000
vn -1.000000 -0.000004 0.000000
vn 1.000000 0.000004 0.000000
vn 1.000000 0.000004 0.000000
vn 0.000000 -0.903901 -0.427742
vn 0.000000 -0.903901 -0.427742
vn 0.000000 -0.903901 -0.427742
vn 0.000000 -0.903901 -0.427742
vn 0.000000 0.427742 -0.903901
vn 0.000000 0.427742 -0.903901
vn 0.000000 -0.427742 0.903901
vn 0.000000 -0.427742 0.903901
vn 0.000000 -1.000000 0.000000
vn 0.000000 -1.000000 0.000000
vn 0.000000 -1.000000 0.000000
vn 0.000000 -1.000000 0.000000
vn 0.000000 -0.962647 -0.270760
vn 0.000000 -0.911294 -0.411757
vn 0.000000 -0.911294 -0.411757
vn 0.000000 -0.962647 -0.270760
vn 0.000000 0.964099 0.265545
vn 0.000000 0.964099 0.265545
vn 0.000000 0.912823 0.408355
vn 0.000000 0.912823 0.408355
vn 1.000000 0.000002 0.000000
vn 1.000000 0.000007 0.000000
vn 1.000000 0.000007 0.000000
vn 1.000000 0.000002 0.000000
vn -1.000000 0.000003 0.000000
vn -1.000000 0.000002 0.000000
vn -1.000000 0.000002 0.000000
vn -1.000000 0.000003 0.000000
vn -1.000000 0.000002 0.000000
vn -1.000000 0.000002 0.000000
vn 1.000000 0.000002 0.000000
vn 1.000000 0.000002 0.000000
vn 0.000000 -0.903901 0.427742
vn 0.000000 -0.903901 0.427742
vn 0.000000 -0.903901 0.427742
vn 0.000000 -0.903901 0.427742
vn 0.000000 0.427742 0.903901
vn 0.000000 0.427742 0.903901
vn 0.000000 -0.427742 -0.903901
vn 0.000000 -0.427742 -0.903901
vn 0.000000 0.019932 0.999801
vn 0.000000 0.019932 0.999801
vn 0.000000 0.019932 0.999801
vn 0.000000 0.019932 0.999801
vn 0.000000 -0.000913 1.000000
vn 0.000000 -0.000913 1.000000
vn 0.000000 -0.000913 1.000000
vn 0.000000 -0.000913 1.000000
vn 0.000000 0.999997 -0.002303
vn 0.000000 0.999997 -0.002303
vn 0.000000 0.999997 -0.002303
vn 0.000000 0.999997 -0.002303
vn 1.000000 0.000000 0.000000
vn 1.000000 0.000000 0.000000
vn 1.000000 0.000002 0.000000
vn 1.000000 -0.000001 0.000000
vn 1.000000 -0.000001 0.000000
vn 1.000000 0.000000 0.000000
vn 1.000000 0.000000 0.000000
vn 1.000000 0.000000 0.000000
vn 1.000000 0.000000 0.000000
vn 0.000000 0.999874 0.015867
vn 0.000000 0.999874 0.015867
vn 0.000000 0.999874 -0.015867
vn 0.000000 0.999874 -0.015867
vn -1.000000 0.000000 0.000000
vn -1.000000 0.000000 0.000000
vn -1.000000 0.000000 0.000000
vn -1.000000 -0.000001 0.000000
vn -1.000000 -0.000001 0.000000
vn -1.000000 -0.000001 0.000000
vn -1.000000 -0.000001 0.000000
vn -1.000000 0.000000 0.000000
vn -1.000000 0.000000 0.000000
vn 0.000000 -1.000000 0.000000
vn 0.000000 -1.000000 0.000000
vn 0.000000 -1.000000 0.000000
vn 0.000000 -1.000000 0.000000
vn 0.000000 0.019932 -0.999801
vn 0.000000 0.019932 -0.999801
vn 0.000000 0.019932 -0.999801
vn 0.000000 0.019932 -0.999801
vn 0.000000 -0.000913 -1.000000
vn 0.000000 -0.000913 -1.000000
vn 0.000000 -0.000913 -1.000000
vn 0.000000 -0.000913 -1.000000
vn 0.000000 0.999997 0.002303
vn 0.000000 0.999997 0.002303
vn 0.000000 0.999997 0.002303
vn 0.000000 0.999997 0.002303
vn 1.000000 0.000000 0.000000
vn 1.000000 0.000002 0.000000
vn 1.000000 0.000000 0.000000
vn -1.000000 -0.000001 0.000000
vn -1.000000 -0.000001 0.000000
vn -1.000000 0.000000 0.000000
vn 0.000000 0.019932 0.999801
vn 0.000000 0.019932 0.999801
vn 0.000000 0.019932 0.999801
vn 0.000000 0.019932 0.999801
vn 0.000000 -0.000913 1.000000
vn 0.000000 -0.000913 1.000000
vn 0.000000 -0.000913 1.000000
vn 0.000000 -0.000913 1.000000
vn 0.000000 0.999997 -0.002303
vn 0.000000 0.999997 -0.002303
vn 0.000000 0.999997 -0.002303
vn 0.000000 0.999997 -0.002303
vn -1.000000 0.000000 0.000000
vn -1.000000 0.000002 0.000000
vn -1.000000 0.000000 0.000000
vn -1.000000 0.000000 0.000000
vn -1.000000 -0.000001 0.000000
vn -1.000000 -0.000001 0.000000
vn -1.000000 0.000000 0.000000
vn -1.000000 0.000000 0.000000
vn -1.000000 0.000000 0.000000
vn -1.000000 0.000000 0.000000
vn 0.000000 0.999874 0.015867
vn 0.000000 0.999874 0.015867
vn 0.000000 0.999874 0.015867
vn 0.000000 0.999874 0.015867
vn 1.000000 0.000000 0.000000
vn 1.000000 0.000000 0.000000
vn 1.000000 0.000000 0.000000
vn 1.000000 0.000000 0.000000
vn 1.000000 -0.000001 0.000000
vn 1.000000 -0.000001 0.000000
vn 1.000000 -0.000001 0.000000
vn 1.000000 -0.000001 0.000000
vn 1.000000 -0.000001 0.000000
vn 1.000000 0.000000 0.000000
vn 0.000000 -1.000000 0.000000
vn 0.000000 -1.000000 0.000000
vn 0.000000 -1.000000 0.000000
vn 0.000000 -1.000000 0.000000
vn 0.000000 0.019932 -0.999801
vn 0.000000 0.019932 -0.999801
vn 0.000000 0.019932 -0.999801
vn 0.000000 0.019932 -0.999801
vn 0.000000 -0.000913 -1.000000
vn 0.000000 -0.000913 -1.000000
vn 0.000000 -0.000913 -1.000000
vn 0.000000 -0.000913 -1.000000
vn 0.000000 0.999997 0.002303
vn 0.000000 0.999997 0.002303
vn 0.000000 0.999997 0.002303
vn 0.000000 0.999997 0.002303
vn -1.000000 0.000000 0.000000
vn -1.000000 0.000000 0.000000
vn -1.000000 0.000002 0.000000
vn 0.000000 0.999874 -0.015867
vn 0.000000 0.999874 -0.015867
vn 0.000000 0.999874 -0.015867
vn 0.000000 0.999874 -0.015867
vn 1.000000 -0.000001 0.000000
vn 1.000000 0.000000 0.000000
vn 1.000000 0.000000 0.000000
g Ceiling_Light_LOD1 Ceiling_Light
usemtl CeilingLight:HIGH_CHECKER_SG
f 1/1/1 2/2/2 4/3/3 3/4/4
f 3/4/5 4/3/6 6/5/7 5/6/8
f 5/6/9 6/5/10 8/7/11 7/8/12
f 7/8/13 8/7/14 2/9/15 1/10/16
f 2/11/17 8/12/18 6/5/19 4/3/20
f 7/13/21 1/14/22 3/4/23 5/6/24
f 10/15/25 9/16/26 24/31/27 25/30/28
f 13/17/29 12/18/30 27/33/31 28/32/32
f 12/18/33 11/19/34 26/34/35 27/33/36
f 25/30/37 26/34/38 11/19/39 10/15/40
f 21/29/41 20/25/42 15/20/43 16/24/44
f 14/21/45 15/20/46 20/25/47 19/26/48
f 17/23/49 18/22/50 23/27/51 22/28/52
f 16/24/53 17/23/54 22/28/55 21/29/56
f 33/35/57 36/36/58 35/37/59 34/38/60
f 36/36/61 33/35/62 37/39/63 38/40/64
f 30/41/65 32/42/66 31/44/67 29/43/68
f 30/41/69 36/45/70 38/48/71 32/42/72
f 31/44/73 37/46/74 33/47/75 29/43/76
f 39/49/77 40/50/78 37/46/74 31/44/73
f 32/42/72 38/48/71 42/51/79 41/52/80
f 41/52/81 42/54/82 40/53/83 39/49/84
f 39/49/85 31/44/67 32/42/66 41/52/86
f 37/39/63 40/53/87 42/54/88 38/40/64
f 47/55/89 34/38/90 35/37/91 48/56/92
f 48/56/93 49/57/94 50/58/95 47/55/96
f 44/59/97 43/60/98 45/61/99 46/62/100
f 44/59/101 46/62/102 49/63/103 48/64/104
f 45/61/105 43/60/106 47/65/107 50/66/108
f 51/70/109 45/61/105 50/66/108 52/67/110
f 46/62/102 53/69/111 54/68/112 49/63/103
f 53/69/113 51/70/114 52/71/115 54/72/116
f 51/70/117 53/69/118 46/62/100 45/61/99
f 50/58/95 49/57/94 54/72/119 52/71/120
f 56/73/121 58/74/122 57/75/123 55/76/124
f 60/77/125 62/78/126 61/79/127 59/80/128
f 57/81/129 60/77/130 59/82/131 55/83/132
f 61/84/133 55/76/134 59/85/135
f 63/89/136 64/88/137 56/73/138 55/76/139 61/84/140 69/99/141
f 58/86/142 56/73/143 64/88/144 66/101/145
f 57/81/146 58/86/147 66/101/148 65/96/149 70/95/150 62/78/151
f 62/78/152 60/77/153 57/81/154
f 61/87/155 62/78/156 70/95/157 69/102/158
f 64/88/159 63/89/160 65/90/161 66/91/162
f 68/92/163 67/93/164 69/94/165 70/95/166
f 65/96/167 63/97/168 67/98/169 68/92/170
f 69/99/171 67/100/172 63/89/173
f 70/95/174 65/96/175 68/92/176
f 72/103/177 71/104/178 73/105/179 74/106/180
f 76/107/181 75/108/182 77/109/183 78/110/184
f 73/111/185 71/112/186 75/113/187 76/107/188
f 77/114/189 75/115/190 71/104/191
f 77/114/192 71/104/193 72/103/194 79/116/195 82/120/196 81/123/197 87/131/198
f 80/117/199 79/116/200 72/103/201 74/118/202
f 83/128/203 84/133/204 80/117/205 74/118/206 73/111/207 78/110/208 88/125/209
f 78/110/210 73/111/211 76/107/212
f 78/110/213 77/119/214 87/134/215 88/125/216
f 82/120/217 84/121/218 83/122/219 81/123/220
f 86/124/221 88/125/222 87/126/223 85/127/224
f 83/128/225 86/124/226 85/129/227 81/130/228
f 87/131/229 81/123/230 85/132/231
f 80/117/232 84/133/233 82/120/234 79/116/235
f 88/125/236 86/124/237 83/128/238
