# This file uses meters as units for non-parametric coordinates.

mtllib Metal_Shelf_LOD2.mtl
g default
v -90.591064 79.953880 43.619347
v 90.591064 79.953880 43.619347
v -90.591064 83.789154 43.619347
v 90.591064 83.789154 43.619347
v -90.591064 83.789154 -43.619400
v 90.591064 83.789154 -43.619400
v -90.591064 79.953880 -43.619400
v 90.591064 79.953880 -43.619400
v -90.591064 167.578308 43.619347
v 90.591064 167.578308 43.619347
v -90.591064 171.413574 43.619347
v 90.591064 171.413574 43.619347
v -90.591064 171.413574 -43.619400
v 90.591064 171.413574 -43.619400
v -90.591064 167.578308 -43.619400
v 90.591064 167.578308 -43.619400
v -84.788589 86.326172 -44.765732
v 84.788589 86.326172 -44.765732
v 84.788589 77.416855 -44.765732
v -84.788589 77.416855 -44.765732
v -84.788589 173.950607 -44.765732
v 84.788589 173.950607 -44.765732
v 84.788589 165.041290 -44.765732
v -84.788589 165.041290 -44.765732
v -84.788589 173.950607 44.765736
v 84.788589 173.950607 44.765736
v 84.788589 165.041290 44.765736
v -84.788589 165.041290 44.765736
v -84.788589 86.326172 44.765736
v 84.788589 86.326172 44.765736
v 84.788589 77.416855 44.765736
v -84.788589 77.416855 44.765736
v 0.000000 128.197159 43.619350
v 5.434923 125.683739 43.619350
v 90.591064 161.395645 43.619347
v 85.156143 163.909058 43.619347
v 0.000000 125.683739 43.619350
v 5.434923 125.683739 41.985046
v 0.000000 128.197159 41.985046
v 85.156143 163.909058 41.985046
v 90.591064 161.395645 41.985046
v 0.000000 125.683739 41.985046
v -5.434923 125.683739 43.619350
v -90.591064 161.395645 43.619347
v -85.156143 163.909058 43.619347
v -5.434923 125.683739 41.985046
v -85.156143 163.909058 41.985046
v -90.591064 161.395645 41.985046
v 0.000000 123.170296 43.619350
v -90.591064 89.971809 43.619347
v -85.156143 87.458382 43.619347
v 0.000000 123.170296 41.985046
v -85.156143 87.458382 41.985046
v -90.591064 89.971809 41.985046
v 90.591064 89.971809 43.619347
v 85.156143 87.458382 43.619347
v 85.156143 87.458382 41.985046
v 90.591064 89.971809 41.985046
v 90.677231 199.017624 -43.781666
v 84.788589 199.017624 -43.781666
v 90.677231 199.017624 -37.475594
v 92.970322 199.017624 -37.475594
v 92.843300 199.017624 -45.875263
v 84.788589 199.017624 -46.002289
v 90.677231 0.000000 -43.781666
v 90.677231 0.000000 -37.475594
v 92.970322 0.000000 -37.475594
v 92.843300 0.000000 -45.875263
v 84.788589 0.000000 -46.002289
v 84.788589 0.000000 -43.781666
v 90.677231 199.017624 43.781662
v 84.788589 199.017624 43.781662
v 90.677231 199.017624 37.475601
v 92.970322 199.017624 37.475601
v 92.843300 199.017624 45.875263
v 84.788589 199.017624 46.002293
v 90.677231 0.000000 43.781662
v 90.677231 0.000000 37.475601
v 92.970322 0.000000 37.475601
v 92.843300 0.000000 45.875263
v 84.788589 0.000000 46.002293
v 84.788589 0.000000 43.781662
v -90.677231 199.017624 43.781662
v -84.788589 199.017624 43.781662
v -90.677231 199.017624 37.475601
v -92.970322 199.017624 37.475601
v -92.843300 199.017624 45.875263
v -84.788589 199.017624 46.002293
v -90.677231 0.000000 43.781662
v -90.677231 0.000000 37.475601
v -92.970322 0.000000 37.475601
v -92.843300 0.000000 45.875263
v -84.788589 0.000000 46.002293
v -84.788589 0.000000 43.781662
v -90.677231 199.017624 -43.781666
v -84.788589 199.017624 -43.781666
v -90.677231 199.017624 -37.475594
v -92.970322 199.017624 -37.475594
v -92.843300 199.017624 -45.875263
v -84.788589 199.017624 -46.002289
v -90.677231 0.000000 -43.781666
v -90.677231 0.000000 -37.475594
v -92.970322 0.000000 -37.475594
v -92.843300 0.000000 -45.875263
v -84.788589 0.000000 -46.002289
v -84.788589 0.000000 -43.781666
vt 0.234982 0.500000
vt 0.234979 0.984923
vt 0.006309 0.984926
vt 0.006312 0.499999
vt 0.234975 0.004808
vt 0.234981 0.489734
vt 0.006312 0.489735
vt 0.006305 0.004811
vt 0.466791 0.500000
vt 0.466788 0.984923
vt 0.238118 0.984926
vt 0.238121 0.499999
vt 0.466784 0.004808
vt 0.466790 0.489734
vt 0.238121 0.489735
vt 0.238114 0.004811
vt 0.996433 0.202667
vt 0.551936 0.202666
vt 0.551937 0.179313
vt 0.996433 0.179314
vt 0.996432 0.146743
vt 0.551937 0.146744
vt 0.551937 0.123393
vt 0.996432 0.123388
vt 0.996430 0.089904
vt 0.996429 0.113256
vt 0.551937 0.113258
vt 0.551936 0.089904
vt 0.996432 0.032607
vt 0.996432 0.055963
vt 0.551937 0.055957
vt 0.551937 0.032606
vt 0.737101 0.257841
vt 0.747665 0.269374
vt 0.505279 0.269313
vt 0.494501 0.257568
vt 0.750260 0.263377
vt 0.737106 0.253548
vt 0.494505 0.253274
vt 0.505132 0.241675
vt 0.747733 0.241948
vt 0.750279 0.248041
vt 0.524547 0.221662
vt 0.524547 0.009468
vt 0.534721 0.018669
vt 0.534703 0.230944
vt 0.529392 0.233182
vt 0.520571 0.221664
vt 0.510399 0.230936
vt 0.510623 0.018738
vt 0.520789 0.009466
vt 0.515699 0.233182
vt 0.984228 0.256877
vt 0.994793 0.268410
vt 0.768151 0.268349
vt 0.757372 0.256604
vt 0.997387 0.262413
vt 0.984233 0.252583
vt 0.757376 0.252310
vt 0.768004 0.240711
vt 0.994860 0.240984
vt 0.997407 0.247077
vt 0.494735 0.026969
vt 0.494958 0.239166
vt 0.484777 0.229975
vt 0.484570 0.017698
vt 0.489878 0.015454
vt 0.498716 0.026962
vt 0.508876 0.017679
vt 0.508873 0.229881
vt 0.498717 0.239164
vt 0.503575 0.015439
vt 0.545049 0.986881
vt 0.515598 0.986881
vt 0.515598 0.289102
vt 0.545049 0.289102
vt 0.573291 0.986881
vt 0.573291 0.289102
vt 0.623828 0.986704
vt 0.601720 0.986704
vt 0.601720 0.289102
vt 0.623828 0.289102
vt 0.581076 0.986704
vt 0.581076 0.289102
vt 0.706859 0.986881
vt 0.706859 0.289102
vt 0.736309 0.289102
vt 0.736309 0.986881
vt 0.678617 0.986881
vt 0.678617 0.289102
vt 0.628080 0.986704
vt 0.628080 0.289102
vt 0.650188 0.289102
vt 0.650188 0.986704
vt 0.670832 0.289102
vt 0.670832 0.986704
vt 0.786091 0.986881
vt 0.756640 0.986881
vt 0.756640 0.289102
vt 0.786091 0.289102
vt 0.814332 0.986881
vt 0.814332 0.289102
vt 0.864870 0.986704
vt 0.842762 0.986704
vt 0.842762 0.289102
vt 0.864870 0.289102
vt 0.822118 0.986704
vt 0.822118 0.289102
vt 0.947900 0.986881
vt 0.947900 0.289102
vt 0.977351 0.289102
vt 0.977351 0.986881
vt 0.919659 0.986881
vt 0.919659 0.289102
vt 0.869122 0.986704
vt 0.869122 0.289102
vt 0.891230 0.289102
vt 0.891230 0.986704
vt 0.911874 0.289102
vt 0.911874 0.986704
vn 0.000000 1.000000 0.000000
vn 0.000000 1.000000 0.000000
vn 0.000000 1.000000 0.000000
vn 0.000000 1.000000 0.000000
vn 0.000000 -1.000000 0.000000
vn 0.000000 -1.000000 0.000000
vn 0.000000 -1.000000 0.000000
vn 0.000000 -1.000000 0.000000
vn 0.000000 1.000000 0.000000
vn 0.000000 1.000000 0.000000
vn 0.000000 1.000000 0.000000
vn 0.000000 1.000000 0.000000
vn 0.000000 -1.000000 0.000000
vn 0.000000 -1.000000 0.000000
vn 0.000000 -1.000000 0.000000
vn 0.000000 -1.000000 0.000000
vn 0.000000 0.000000 -1.000000
vn 0.000000 0.000000 -1.000000
vn 0.000000 0.000000 -1.000000
vn 0.000000 0.000000 -1.000000
vn 0.000000 0.000000 -1.000000
vn 0.000000 0.000000 -1.000000
vn 0.000000 0.000000 -1.000000
vn 0.000000 0.000000 -1.000000
vn 0.000000 0.000000 1.000000
vn 0.000000 0.000000 1.000000
vn 0.000000 0.000000 1.000000
vn 0.000000 0.000000 1.000000
vn 0.000000 0.000000 1.000000
vn 0.000000 0.000000 1.000000
vn 0.000000 0.000000 1.000000
vn 0.000000 0.000000 1.000000
vn 0.000000 0.000000 -1.000000
vn 0.000000 0.000000 -1.000000
vn 0.000000 0.000000 -1.000000
vn 0.000000 0.000000 -1.000000
vn 0.000000 0.000000 -1.000000
vn 0.000000 0.000000 -1.000000
vn 0.000000 0.000000 -1.000000
vn 0.000000 0.000000 1.000000
vn 0.000000 0.000000 1.000000
vn 0.000000 0.000000 1.000000
vn 0.000000 0.000000 1.000000
vn 0.000000 0.000000 1.000000
vn 0.000000 0.000000 1.000000
vn 0.000000 0.000000 1.000000
vn 0.000000 0.000000 -1.000000
vn 0.000000 0.000000 -1.000000
vn 0.000000 0.000000 -1.000000
vn 0.000000 0.000000 -1.000000
vn 0.000000 0.000000 -1.000000
vn 0.000000 0.000000 -1.000000
vn 0.000000 0.000000 -1.000000
vn 0.000000 0.000000 1.000000
vn 0.000000 0.000000 1.000000
vn 0.000000 0.000000 1.000000
vn 0.000000 0.000000 1.000000
vn 0.000000 0.000000 1.000000
vn 0.000000 0.000000 1.000000
vn 0.000000 0.000000 1.000000
vn 0.000000 0.000000 -1.000000
vn 0.000000 0.000000 -1.000000
vn 0.000000 0.000000 -1.000000
vn 0.000000 0.000000 -1.000000
vn 0.000000 0.000000 -1.000000
vn 0.000000 0.000000 -1.000000
vn 0.000000 0.000000 -1.000000
vn 0.000000 0.000000 1.000000
vn 0.000000 0.000000 1.000000
vn 0.000000 0.000000 1.000000
vn 0.000000 0.000000 1.000000
vn 0.000000 0.000000 1.000000
vn 0.000000 0.000000 1.000000
vn 0.000000 0.000000 1.000000
vn 0.000000 0.000000 -1.000000
vn 0.000000 0.000000 -1.000000
vn 0.000000 0.000000 -1.000000
vn 0.000000 0.000000 -1.000000
vn 0.000000 0.000000 -1.000000
vn 0.000000 0.000000 -1.000000
vn 0.000000 0.000000 -1.000000
vn 0.000000 0.000000 1.000000
vn 0.000000 0.000000 1.000000
vn 0.000000 0.000000 1.000000
vn 0.000000 0.000000 1.000000
vn 0.000000 0.000000 1.000000
vn 0.000000 0.000000 1.000000
vn 0.000000 0.000000 1.000000
vn 0.999886 0.000000 -0.015121
vn 0.999886 0.000000 -0.015121
vn 0.999886 0.000000 -0.015121
vn 0.999886 0.000000 -0.015121
vn 0.015769 0.000000 -0.999876
vn 0.015769 0.000000 -0.999876
vn 0.015769 0.000000 -0.999876
vn 0.015769 0.000000 -0.999876
vn -1.000000 0.000000 0.000000
vn -1.000000 0.000000 0.000000
vn -1.000000 0.000000 0.000000
vn -1.000000 0.000000 0.000000
vn 0.000000 0.000000 1.000000
vn 0.000000 0.000000 1.000000
vn 0.000000 0.000000 1.000000
vn 0.000000 0.000000 1.000000
vn 0.999886 0.000000 0.015121
vn 0.999886 0.000000 0.015121
vn 0.999886 0.000000 0.015121
vn 0.999886 0.000000 0.015121
vn 0.015769 0.000000 0.999876
vn 0.015769 0.000000 0.999876
vn 0.015769 0.000000 0.999876
vn 0.015769 0.000000 0.999876
vn -1.000000 0.000000 0.000000
vn -1.000000 0.000000 0.000000
vn -1.000000 0.000000 0.000000
vn -1.000000 0.000000 0.000000
vn 0.000000 0.000000 -1.000000
vn 0.000000 0.000000 -1.000000
vn 0.000000 0.000000 -1.000000
vn 0.000000 0.000000 -1.000000
vn -0.999886 0.000000 0.015121
vn -0.999886 0.000000 0.015121
vn -0.999886 0.000000 0.015121
vn -0.999886 0.000000 0.015121
vn -0.015769 0.000000 0.999876
vn -0.015769 0.000000 0.999876
vn -0.015769 0.000000 0.999876
vn -0.015769 0.000000 0.999876
vn 1.000000 0.000000 0.000000
vn 1.000000 0.000000 0.000000
vn 1.000000 0.000000 0.000000
vn 1.000000 0.000000 0.000000
vn 0.000000 0.000000 -1.000000
vn 0.000000 0.000000 -1.000000
vn 0.000000 0.000000 -1.000000
vn 0.000000 0.000000 -1.000000
vn -0.999886 0.000000 -0.015121
vn -0.999886 0.000000 -0.015121
vn -0.999886 0.000000 -0.015121
vn -0.999886 0.000000 -0.015121
vn -0.015769 0.000000 -0.999876
vn -0.015769 0.000000 -0.999876
vn -0.015769 0.000000 -0.999876
vn -0.015769 0.000000 -0.999876
vn 1.000000 0.000000 0.000000
vn 1.000000 0.000000 0.000000
vn 1.000000 0.000000 0.000000
vn 1.000000 0.000000 0.000000
vn 0.000000 0.000000 1.000000
vn 0.000000 0.000000 1.000000
vn 0.000000 0.000000 1.000000
vn 0.000000 0.000000 1.000000
g Metal_Shelf_LOD2 Metal_Shelf
usemtl MetalShelf:initialShadingGroup
f 6/1/1 5/2/2 3/3/3 4/4/4
f 7/5/5 8/6/6 2/7/7 1/8/8
f 14/9/9 13/10/10 11/11/11 12/12/12
f 15/13/13 16/14/14 10/15/15 9/16/16
f 17/17/17 18/18/18 19/19/19 20/20/20
f 21/21/21 22/22/22 23/23/23 24/24/24
f 25/25/25 28/26/26 27/27/27 26/28/28
f 29/29/29 32/30/30 31/31/31 30/32/32
f 38/33/33 39/34/34 40/35/35 41/36/36
f 38/33/37 42/37/38 39/34/39
f 34/38/40 35/39/41 36/40/42 33/41/43
f 34/38/44 33/41/45 37/42/46
f 46/43/47 48/44/48 47/45/49 39/46/50
f 46/43/51 39/46/52 42/47/53
f 43/48/54 33/49/55 45/50/56 44/51/57
f 43/48/58 37/52/59 33/49/60
f 46/53/61 52/54/62 53/55/63 54/56/64
f 46/53/65 42/57/66 52/54/67
f 43/58/68 50/59/69 51/60/70 49/61/71
f 43/58/72 49/61/73 37/62/74
f 38/63/75 58/64/76 57/65/77 52/66/78
f 38/63/79 52/66/80 42/67/81
f 34/68/82 49/69/83 56/70/84 55/71/85
f 34/68/86 37/72/87 49/69/88
f 63/73/89 62/74/90 67/75/91 68/76/92
f 64/77/93 63/73/94 68/76/95 69/78/96
f 61/79/97 59/80/98 65/81/99 66/82/100
f 59/80/101 60/83/102 70/84/103 65/81/104
f 75/85/105 80/86/106 79/87/107 74/88/108
f 76/89/109 81/90/110 80/86/111 75/85/112
f 73/91/113 78/92/114 77/93/115 71/94/116
f 71/94/117 77/93/118 82/95/119 72/96/120
f 87/97/121 86/98/122 91/99/123 92/100/124
f 88/101/125 87/97/126 92/100/127 93/102/128
f 85/103/129 83/104/130 89/105/131 90/106/132
f 83/104/133 84/107/134 94/108/135 89/105/136
f 99/109/137 104/110/138 103/111/139 98/112/140
f 100/113/141 105/114/142 104/110/143 99/109/144
f 97/115/145 102/116/146 101/117/147 95/118/148
f 95/118/149 101/117/150 106/119/151 96/120/152
