# This file uses meters as units for non-parametric coordinates.

mtllib Metal_Shelf_LOD1.mtl
g default
v -90.591064 79.953880 43.619347
v 90.591064 79.953880 43.619347
v -90.591064 83.789154 43.619347
v 90.591064 83.789154 43.619347
v -90.591064 83.789154 -43.619400
v 90.591064 83.789154 -43.619400
v -90.591064 79.953880 -43.619400
v 90.591064 79.953880 -43.619400
v -90.591064 167.578308 43.619347
v 90.591064 167.578308 43.619347
v -90.591064 171.413574 43.619347
v 90.591064 171.413574 43.619347
v -90.591064 171.413574 -43.619400
v 90.591064 171.413574 -43.619400
v -90.591064 167.578308 -43.619400
v 90.591064 167.578308 -43.619400
v -84.788589 86.326172 -43.619400
v 84.788589 86.326172 -43.619400
v -84.788589 77.416855 -43.619400
v 84.788589 77.416855 -43.619400
v -84.788589 86.326172 -44.765732
v 84.788589 86.326172 -44.765732
v 84.788589 77.416855 -44.765732
v -84.788589 77.416855 -44.765732
v -84.788589 173.950607 -43.619400
v 84.788589 173.950607 -43.619400
v -84.788589 165.041290 -43.619400
v 84.788589 165.041290 -43.619400
v -84.788589 173.950607 -44.765732
v 84.788589 173.950607 -44.765732
v 84.788589 165.041290 -44.765732
v -84.788589 165.041290 -44.765732
v -84.788589 173.950607 43.619396
v 84.788589 173.950607 43.619396
v -84.788589 165.041290 43.619396
v 84.788589 165.041290 43.619396
v -84.788589 173.950607 44.765736
v 84.788589 173.950607 44.765736
v 84.788589 165.041290 44.765736
v -84.788589 165.041290 44.765736
v -84.788589 86.326172 43.619396
v 84.788589 86.326172 43.619396
v -84.788589 77.416855 43.619396
v 84.788589 77.416855 43.619396
v -84.788589 86.326172 44.765736
v 84.788589 86.326172 44.765736
v 84.788589 77.416855 44.765736
v -84.788589 77.416855 44.765736
v 0.000000 128.197159 43.619350
v 5.434923 125.683739 43.619350
v 90.591064 161.395645 43.619347
v 85.156143 163.909058 43.619347
v 0.000000 125.683739 43.619350
v 85.156143 167.701935 43.619347
v 5.434923 125.683739 41.985046
v 0.000000 128.197159 41.985046
v 85.156143 163.909058 41.985046
v 90.591064 161.395645 41.985046
v 0.000000 125.683739 41.985046
v 85.156143 167.701935 41.985046
v 90.591064 167.701950 41.985046
v -5.434923 125.683739 43.619350
v -90.591064 161.395645 43.619347
v -85.156143 163.909058 43.619347
v -85.156143 167.701935 43.619347
v -5.434923 125.683739 41.985046
v -85.156143 163.909058 41.985046
v -90.591064 161.395645 41.985046
v -85.156143 167.701935 41.985046
v -90.591064 167.701950 41.985046
v 0.000000 123.170296 43.619350
v -90.591064 89.971809 43.619347
v -85.156143 87.458382 43.619347
v -85.156143 83.665512 43.619347
v 0.000000 123.170296 41.985046
v -85.156143 87.458382 41.985046
v -90.591064 89.971809 41.985046
v -85.156143 83.665512 41.985046
v -90.591064 83.665497 41.985046
v 90.591064 89.971809 43.619347
v 85.156143 87.458382 43.619347
v 85.156143 83.665512 43.619347
v 85.156143 87.458382 41.985046
v 90.591064 89.971809 41.985046
v 85.156143 83.665512 41.985046
v 90.591064 83.665497 41.985046
v 90.677231 199.017624 -43.781666
v 84.788589 199.017624 -43.781666
v 90.677231 199.017624 -37.475594
v 92.970322 199.017624 -37.475594
v 92.843300 199.017624 -45.875263
v 84.788589 199.017624 -46.002289
v 90.677231 0.000000 -43.781666
v 90.677231 0.000000 -37.475594
v 92.970322 0.000000 -37.475594
v 92.843300 0.000000 -45.875263
v 84.788589 0.000000 -46.002289
v 84.788589 0.000000 -43.781666
v 90.677231 199.017624 43.781662
v 84.788589 199.017624 43.781662
v 90.677231 199.017624 37.475601
v 92.970322 199.017624 37.475601
v 92.843300 199.017624 45.875263
v 84.788589 199.017624 46.002293
v 90.677231 0.000000 43.781662
v 90.677231 0.000000 37.475601
v 92.970322 0.000000 37.475601
v 92.843300 0.000000 45.875263
v 84.788589 0.000000 46.002293
v 84.788589 0.000000 43.781662
v -90.677231 199.017624 43.781662
v -84.788589 199.017624 43.781662
v -90.677231 199.017624 37.475601
v -92.970322 199.017624 37.475601
v -92.843300 199.017624 45.875263
v -84.788589 199.017624 46.002293
v -90.677231 0.000000 43.781662
v -90.677231 0.000000 37.475601
v -92.970322 0.000000 37.475601
v -92.843300 0.000000 45.875263
v -84.788589 0.000000 46.002293
v -84.788589 0.000000 43.781662
v -90.677231 199.017624 -43.781666
v -84.788589 199.017624 -43.781666
v -90.677231 199.017624 -37.475594
v -92.970322 199.017624 -37.475594
v -92.843300 199.017624 -45.875263
v -84.788589 199.017624 -46.002289
v -90.677231 0.000000 -43.781666
v -90.677231 0.000000 -37.475594
v -92.970322 0.000000 -37.475594
v -92.843300 0.000000 -45.875263
v -84.788589 0.000000 -46.002289
v -84.788589 0.000000 -43.781666
vt 0.234982 0.500000
vt 0.234979 0.984923
vt 0.006309 0.984926
vt 0.006312 0.499999
vt 0.234975 0.004808
vt 0.234981 0.489734
vt 0.006312 0.489735
vt 0.006305 0.004811
vt 0.234979 0.995187
vt 0.006309 0.995192
vt 0.466791 0.500000
vt 0.466788 0.984923
vt 0.238118 0.984926
vt 0.238121 0.499999
vt 0.466784 0.004808
vt 0.466790 0.489734
vt 0.238121 0.489735
vt 0.238114 0.004811
vt 0.466788 0.995187
vt 0.238118 0.995192
vt 0.996433 0.202667
vt 0.551936 0.202666
vt 0.551937 0.179313
vt 0.996433 0.179314
vt 0.996432 0.205671
vt 0.996433 0.229025
vt 0.551936 0.229024
vt 0.551936 0.205670
vt 0.551937 0.176308
vt 0.996433 0.176309
vt 0.996432 0.146743
vt 0.551937 0.146744
vt 0.551937 0.123393
vt 0.996432 0.123388
vt 0.996432 0.149750
vt 0.996431 0.173104
vt 0.551936 0.173099
vt 0.551937 0.149747
vt 0.551937 0.120390
vt 0.996432 0.120381
vt 0.996430 0.089904
vt 0.996429 0.113256
vt 0.551937 0.113258
vt 0.551936 0.089904
vt 0.996430 0.086898
vt 0.551936 0.086900
vt 0.551936 0.063546
vt 0.996429 0.063546
vt 0.551937 0.116262
vt 0.996430 0.116261
vt 0.996432 0.032607
vt 0.996432 0.055963
vt 0.551937 0.055957
vt 0.551937 0.032606
vt 0.996432 0.029600
vt 0.551937 0.029604
vt 0.551936 0.006252
vt 0.996431 0.006246
vt 0.551937 0.058960
vt 0.996432 0.058969
vt 0.737101 0.257841
vt 0.747665 0.269374
vt 0.505279 0.269313
vt 0.494501 0.257568
vt 0.750260 0.263377
vt 0.501467 0.278410
vt 0.488142 0.272853
vt 0.737106 0.253548
vt 0.494505 0.253274
vt 0.505132 0.241675
vt 0.747733 0.241948
vt 0.750279 0.248041
vt 0.747657 0.273648
vt 0.505443 0.273484
vt 0.504814 0.279957
vt 0.524547 0.221662
vt 0.524547 0.009468
vt 0.534721 0.018669
vt 0.534703 0.230944
vt 0.529392 0.233182
vt 0.536350 0.004467
vt 0.540764 0.013974
vt 0.520571 0.221664
vt 0.510399 0.230936
vt 0.510623 0.018738
vt 0.520789 0.009466
vt 0.515699 0.233182
vt 0.538460 0.230945
vt 0.538410 0.018773
vt 0.542162 0.015571
vt 0.984228 0.256877
vt 0.994793 0.268410
vt 0.768151 0.268349
vt 0.757372 0.256604
vt 0.997387 0.262413
vt 0.764338 0.277446
vt 0.751013 0.271889
vt 0.984233 0.252583
vt 0.757376 0.252310
vt 0.768004 0.240711
vt 0.994860 0.240984
vt 0.997407 0.247077
vt 0.994785 0.272684
vt 0.768314 0.272520
vt 0.767685 0.278993
vt 0.494735 0.026969
vt 0.494958 0.239166
vt 0.484777 0.229975
vt 0.484570 0.017698
vt 0.489878 0.015454
vt 0.483165 0.244170
vt 0.478748 0.234675
vt 0.498716 0.026962
vt 0.508876 0.017679
vt 0.508873 0.229881
vt 0.498717 0.239164
vt 0.503575 0.015439
vt 0.480813 0.017700
vt 0.481086 0.229876
vt 0.477349 0.233082
vt 0.545049 0.986881
vt 0.515598 0.986881
vt 0.515598 0.289102
vt 0.545049 0.289102
vt 0.573291 0.986881
vt 0.573291 0.289102
vt 0.623828 0.986704
vt 0.601720 0.986704
vt 0.601720 0.289102
vt 0.623828 0.289102
vt 0.581076 0.986704
vt 0.581076 0.289102
vt 0.507559 0.986994
vt 0.507559 0.289102
vt 0.538915 0.994806
vt 0.516811 0.994806
vt 0.574258 0.994447
vt 0.553616 0.994447
vt 0.706859 0.986881
vt 0.706859 0.289102
vt 0.736309 0.289102
vt 0.736309 0.986881
vt 0.678617 0.986881
vt 0.678617 0.289102
vt 0.628080 0.986704
vt 0.628080 0.289102
vt 0.650188 0.289102
vt 0.650188 0.986704
vt 0.670832 0.289102
vt 0.670832 0.986704
vt 0.744349 0.289102
vt 0.744349 0.986994
vt 0.712993 0.994806
vt 0.735097 0.994806
vt 0.677650 0.994447
vt 0.698292 0.994447
vt 0.786091 0.986881
vt 0.756640 0.986881
vt 0.756640 0.289102
vt 0.786091 0.289102
vt 0.814332 0.986881
vt 0.814332 0.289102
vt 0.864870 0.986704
vt 0.842762 0.986704
vt 0.842762 0.289102
vt 0.864870 0.289102
vt 0.822118 0.986704
vt 0.822118 0.289102
vt 0.748601 0.986994
vt 0.748601 0.289102
vt 0.779957 0.994806
vt 0.757853 0.994806
vt 0.815300 0.994447
vt 0.794657 0.994447
vt 0.947900 0.986881
vt 0.947900 0.289102
vt 0.977351 0.289102
vt 0.977351 0.986881
vt 0.919659 0.986881
vt 0.919659 0.289102
vt 0.869122 0.986704
vt 0.869122 0.289102
vt 0.891230 0.289102
vt 0.891230 0.986704
vt 0.911874 0.289102
vt 0.911874 0.986704
vt 0.985390 0.289102
vt 0.985390 0.986994
vt 0.954034 0.994806
vt 0.976139 0.994806
vt 0.918691 0.994447
vt 0.939334 0.994447
vn 0.000000 1.000000 0.000000
vn 0.000000 1.000000 0.000000
vn 0.000000 1.000000 0.000000
vn 0.000000 1.000000 0.000000
vn 0.000000 -1.000000 0.000000
vn 0.000000 -1.000000 0.000000
vn 0.000000 -1.000000 0.000000
vn 0.000000 -1.000000 0.000000
vn 1.000000 0.000000 0.000000
vn 1.000000 0.000000 0.000000
vn 1.000000 0.000000 0.000000
vn 1.000000 0.000000 0.000000
vn -1.000000 0.000000 0.000000
vn -1.000000 0.000000 0.000000
vn -1.000000 0.000000 0.000000
vn -1.000000 0.000000 0.000000
vn 0.000000 1.000000 0.000000
vn 0.000000 1.000000 0.000000
vn 0.000000 1.000000 0.000000
vn 0.000000 1.000000 0.000000
vn 0.000000 -1.000000 0.000000
vn 0.000000 -1.000000 0.000000
vn 0.000000 -1.000000 0.000000
vn 0.000000 -1.000000 0.000000
vn 1.000000 0.000000 0.000000
vn 1.000000 0.000000 0.000000
vn 1.000000 0.000000 0.000000
vn 1.000000 0.000000 0.000000
vn -1.000000 0.000000 0.000000
vn -1.000000 0.000000 0.000000
vn -1.000000 0.000000 0.000000
vn -1.000000 0.000000 0.000000
vn 0.000000 0.000000 -1.000000
vn 0.000000 0.000000 -1.000000
vn 0.000000 0.000000 -1.000000
vn 0.000000 0.000000 -1.000000
vn 0.000000 0.000000 1.000000
vn 0.000000 0.000000 1.000000
vn 0.000000 0.000000 1.000000
vn 0.000000 0.000000 1.000000
vn 0.000000 1.000000 0.000000
vn 0.000000 1.000000 0.000000
vn 0.000000 1.000000 0.000000
vn 0.000000 1.000000 0.000000
vn 0.000000 -1.000000 0.000000
vn 0.000000 -1.000000 0.000000
vn 0.000000 -1.000000 0.000000
vn 0.000000 -1.000000 0.000000
vn 0.000000 0.000000 -1.000000
vn 0.000000 0.000000 -1.000000
vn 0.000000 0.000000 -1.000000
vn 0.000000 0.000000 -1.000000
vn 0.000000 0.000000 1.000000
vn 0.000000 0.000000 1.000000
vn 0.000000 0.000000 1.000000
vn 0.000000 0.000000 1.000000
vn 0.000000 1.000000 0.000000
vn 0.000000 1.000000 0.000000
vn 0.000000 1.000000 0.000000
vn 0.000000 1.000000 0.000000
vn 0.000000 -1.000000 0.000000
vn 0.000000 -1.000000 0.000000
vn 0.000000 -1.000000 0.000000
vn 0.000000 -1.000000 0.000000
vn 0.000000 0.000000 1.000000
vn 0.000000 0.000000 1.000000
vn 0.000000 0.000000 1.000000
vn 0.000000 0.000000 1.000000
vn 0.000000 0.000000 -1.000000
vn 0.000000 0.000000 -1.000000
vn 0.000000 0.000000 -1.000000
vn 0.000000 0.000000 -1.000000
vn 0.000000 1.000000 0.000000
vn 0.000000 1.000000 0.000000
vn 0.000000 1.000000 0.000000
vn 0.000000 1.000000 0.000000
vn 0.000000 -1.000000 0.000000
vn 0.000000 -1.000000 0.000000
vn 0.000000 -1.000000 0.000000
vn 0.000000 -1.000000 0.000000
vn 0.000000 0.000000 1.000000
vn 0.000000 0.000000 1.000000
vn 0.000000 0.000000 1.000000
vn 0.000000 0.000000 1.000000
vn 0.000000 0.000000 -1.000000
vn 0.000000 0.000000 -1.000000
vn 0.000000 0.000000 -1.000000
vn 0.000000 0.000000 -1.000000
vn 0.000000 1.000000 0.000000
vn 0.000000 1.000000 0.000000
vn 0.000000 1.000000 0.000000
vn 0.000000 1.000000 0.000000
vn 0.000000 -1.000000 0.000000
vn 0.000000 -1.000000 0.000000
vn 0.000000 -1.000000 0.000000
vn 0.000000 -1.000000 0.000000
vn 0.000000 0.000000 -1.000000
vn 0.000000 0.000000 -1.000000
vn 0.000000 0.000000 -1.000000
vn 0.000000 0.000000 -1.000000
vn 0.000000 0.000000 -1.000000
vn 0.000000 0.000000 -1.000000
vn 0.000000 0.000000 -1.000000
vn 0.000000 0.000000 -1.000000
vn 0.000000 0.000000 -1.000000
vn 0.000000 0.000000 -1.000000
vn 0.000000 0.000000 -1.000000
vn 0.000000 0.000000 1.000000
vn 0.000000 0.000000 1.000000
vn 0.000000 0.000000 1.000000
vn 0.000000 0.000000 1.000000
vn 0.000000 0.000000 1.000000
vn 0.000000 0.000000 1.000000
vn 0.000000 0.000000 1.000000
vn -0.386738 0.922190 0.000000
vn -0.386738 0.922190 0.000000
vn -0.386738 0.922190 0.000000
vn -0.386738 0.922190 0.000000
vn 0.386738 -0.922190 0.000000
vn 0.386738 -0.922190 0.000000
vn 0.386738 -0.922190 0.000000
vn 0.386738 -0.922190 0.000000
vn -1.000000 0.000000 0.000000
vn -1.000000 0.000000 0.000000
vn -1.000000 0.000000 0.000000
vn -1.000000 0.000000 0.000000
vn 0.000000 0.000000 -1.000000
vn 0.000000 0.000000 -1.000000
vn 0.000000 0.000000 -1.000000
vn 0.000000 0.000000 -1.000000
vn 0.000000 0.000000 -1.000000
vn 0.000000 0.000000 -1.000000
vn 0.000000 0.000000 -1.000000
vn 0.000000 0.000000 -1.000000
vn 0.000000 0.000000 -1.000000
vn 0.000000 0.000000 -1.000000
vn 0.000000 0.000000 -1.000000
vn 0.000000 0.000000 1.000000
vn 0.000000 0.000000 1.000000
vn 0.000000 0.000000 1.000000
vn 0.000000 0.000000 1.000000
vn 0.000000 0.000000 1.000000
vn 0.000000 0.000000 1.000000
vn 0.000000 0.000000 1.000000
vn 0.386738 0.922190 0.000000
vn 0.386738 0.922190 0.000000
vn 0.386738 0.922190 0.000000
vn 0.386738 0.922190 0.000000
vn -0.386738 -0.922190 0.000000
vn -0.386738 -0.922190 0.000000
vn -0.386738 -0.922190 0.000000
vn -0.386738 -0.922190 0.000000
vn 1.000000 0.000000 0.000000
vn 1.000000 0.000000 0.000000
vn 1.000000 0.000000 0.000000
vn 1.000000 0.000000 0.000000
vn 0.000000 0.000000 -1.000000
vn 0.000000 0.000000 -1.000000
vn 0.000000 0.000000 -1.000000
vn 0.000000 0.000000 -1.000000
vn 0.000000 0.000000 -1.000000
vn 0.000000 0.000000 -1.000000
vn 0.000000 0.000000 -1.000000
vn 0.000000 0.000000 -1.000000
vn 0.000000 0.000000 -1.000000
vn 0.000000 0.000000 -1.000000
vn 0.000000 0.000000 -1.000000
vn 0.000000 0.000000 1.000000
vn 0.000000 0.000000 1.000000
vn 0.000000 0.000000 1.000000
vn 0.000000 0.000000 1.000000
vn 0.000000 0.000000 1.000000
vn 0.000000 0.000000 1.000000
vn 0.000000 0.000000 1.000000
vn 0.386738 -0.922190 0.000000
vn 0.386738 -0.922190 0.000000
vn 0.386738 -0.922190 0.000000
vn 0.386738 -0.922190 0.000000
vn -0.386738 0.922190 0.000000
vn -0.386738 0.922190 0.000000
vn -0.386738 0.922190 0.000000
vn -0.386738 0.922190 0.000000
vn 1.000000 0.000000 0.000000
vn 1.000000 0.000000 0.000000
vn 1.000000 0.000000 0.000000
vn 1.000000 0.000000 0.000000
vn 0.000000 0.000000 -1.000000
vn 0.000000 0.000000 -1.000000
vn 0.000000 0.000000 -1.000000
vn 0.000000 0.000000 -1.000000
vn 0.000000 0.000000 -1.000000
vn 0.000000 0.000000 -1.000000
vn 0.000000 0.000000 -1.000000
vn 0.000000 0.000000 -1.000000
vn 0.000000 0.000000 -1.000000
vn 0.000000 0.000000 -1.000000
vn 0.000000 0.000000 -1.000000
vn 0.000000 0.000000 1.000000
vn 0.000000 0.000000 1.000000
vn 0.000000 0.000000 1.000000
vn 0.000000 0.000000 1.000000
vn 0.000000 0.000000 1.000000
vn 0.000000 0.000000 1.000000
vn 0.000000 0.000000 1.000000
vn -0.386738 -0.922190 0.000000
vn -0.386738 -0.922190 0.000000
vn -0.386738 -0.922190 0.000000
vn -0.386738 -0.922190 0.000000
vn 0.386738 0.922190 0.000000
vn 0.386738 0.922190 0.000000
vn 0.386738 0.922190 0.000000
vn 0.386738 0.922190 0.000000
vn -1.000000 0.000000 0.000000
vn -1.000000 0.000000 0.000000
vn -1.000000 0.000000 0.000000
vn -1.000000 0.000000 0.000000
vn 0.999886 0.000000 -0.015121
vn 0.999886 0.000000 -0.015121
vn 0.999886 0.000000 -0.015121
vn 0.999886 0.000000 -0.015121
vn 0.015769 0.000000 -0.999876
vn 0.015769 0.000000 -0.999876
vn 0.015769 0.000000 -0.999876
vn 0.015769 0.000000 -0.999876
vn -1.000000 0.000000 0.000000
vn -1.000000 0.000000 0.000000
vn -1.000000 0.000000 0.000000
vn -1.000000 0.000000 0.000000
vn 0.000000 0.000000 1.000000
vn 0.000000 0.000000 1.000000
vn 0.000000 0.000000 1.000000
vn 0.000000 0.000000 1.000000
vn 0.000000 0.000000 1.000000
vn 0.000000 0.000000 1.000000
vn 0.000000 0.000000 1.000000
vn 0.000000 0.000000 1.000000
vn 0.000000 1.000000 -0.000002
vn 0.000000 1.000000 -0.000003
vn 0.000000 1.000000 -0.000003
vn 0.000000 1.000000 -0.000002
vn -1.000000 0.000000 0.000000
vn -1.000000 0.000000 0.000000
vn -1.000000 0.000000 0.000000
vn -1.000000 0.000000 0.000000
vn 0.000000 1.000000 0.000000
vn 0.000000 1.000000 -0.000002
vn 0.000000 1.000000 -0.000002
vn 0.000000 1.000000 0.000000
vn 0.999886 0.000000 0.015121
vn 0.999886 0.000000 0.015121
vn 0.999886 0.000000 0.015121
vn 0.999886 0.000000 0.015121
vn 0.015769 0.000000 0.999876
vn 0.015769 0.000000 0.999876
vn 0.015769 0.000000 0.999876
vn 0.015769 0.000000 0.999876
vn -1.000000 0.000000 0.000000
vn -1.000000 0.000000 0.000000
vn -1.000000 0.000000 0.000000
vn -1.000000 0.000000 0.000000
vn 0.000000 0.000000 -1.000000
vn 0.000000 0.000000 -1.000000
vn 0.000000 0.000000 -1.000000
vn 0.000000 0.000000 -1.000000
vn 0.000000 0.000000 -1.000000
vn 0.000000 0.000000 -1.000000
vn 0.000000 0.000000 -1.000000
vn 0.000000 0.000000 -1.000000
vn 0.000000 1.000000 0.000002
vn 0.000000 1.000000 0.000002
vn 0.000000 1.000000 0.000003
vn 0.000000 1.000000 0.000003
vn -1.000000 0.000000 0.000000
vn -1.000000 0.000000 0.000000
vn -1.000000 0.000000 0.000000
vn -1.000000 0.000000 0.000000
vn 0.000000 1.000000 0.000000
vn 0.000000 1.000000 0.000000
vn 0.000000 1.000000 0.000002
vn 0.000000 1.000000 0.000002
vn -0.999886 0.000000 0.015121
vn -0.999886 0.000000 0.015121
vn -0.999886 0.000000 0.015121
vn -0.999886 0.000000 0.015121
vn -0.015769 0.000000 0.999876
vn -0.015769 0.000000 0.999876
vn -0.015769 0.000000 0.999876
vn -0.015769 0.000000 0.999876
vn 1.000000 0.000000 0.000000
vn 1.000000 0.000000 0.000000
vn 1.000000 0.000000 0.000000
vn 1.000000 0.000000 0.000000
vn 0.000000 0.000000 -1.000000
vn 0.000000 0.000000 -1.000000
vn 0.000000 0.000000 -1.000000
vn 0.000000 0.000000 -1.000000
vn 0.000000 0.000000 -1.000000
vn 0.000000 0.000000 -1.000000
vn 0.000000 0.000000 -1.000000
vn 0.000000 0.000000 -1.000000
vn 0.000000 1.000000 0.000002
vn 0.000000 1.000000 0.000003
vn 0.000000 1.000000 0.000003
vn 0.000000 1.000000 0.000002
vn 1.000000 0.000000 0.000000
vn 1.000000 0.000000 0.000000
vn 1.000000 0.000000 0.000000
vn 1.000000 0.000000 0.000000
vn 0.000000 1.000000 0.000000
vn 0.000000 1.000000 0.000002
vn 0.000000 1.000000 0.000002
vn 0.000000 1.000000 0.000000
vn -0.999886 0.000000 -0.015121
vn -0.999886 0.000000 -0.015121
vn -0.999886 0.000000 -0.015121
vn -0.999886 0.000000 -0.015121
vn -0.015769 0.000000 -0.999876
vn -0.015769 0.000000 -0.999876
vn -0.015769 0.000000 -0.999876
vn -0.015769 0.000000 -0.999876
vn 1.000000 0.000000 0.000000
vn 1.000000 0.000000 0.000000
vn 1.000000 0.000000 0.000000
vn 1.000000 0.000000 0.000000
vn 0.000000 0.000000 1.000000
vn 0.000000 0.000000 1.000000
vn 0.000000 0.000000 1.000000
vn 0.000000 0.000000 1.000000
vn 0.000000 0.000000 1.000000
vn 0.000000 0.000000 1.000000
vn 0.000000 0.000000 1.000000
vn 0.000000 0.000000 1.000000
vn 0.000000 1.000000 -0.000002
vn 0.000000 1.000000 -0.000002
vn 0.000000 1.000000 -0.000003
vn 0.000000 1.000000 -0.000003
vn 1.000000 0.000000 0.000000
vn 1.000000 0.000000 0.000000
vn 1.000000 0.000000 0.000000
vn 1.000000 0.000000 0.000000
vn 0.000000 1.000000 0.000000
vn 0.000000 1.000000 0.000000
vn 0.000000 1.000000 -0.000002
vn 0.000000 1.000000 -0.000002
g Metal_Shelf_LOD1 Metal_Shelf
usemtl MetalShelf:initialShadingGroup
f 6/1/1 5/2/2 3/3/3 4/4/4
f 7/5/5 8/6/6 2/7/7 1/8/8
f 8/6/9 6/1/10 4/4/11 2/7/12
f 3/3/13 5/2/14 7/9/15 1/10/16
f 14/11/17 13/12/18 11/13/19 12/14/20
f 15/15/21 16/16/22 10/17/23 9/18/24
f 16/16/25 14/11/26 12/14/27 10/17/28
f 11/13/29 13/12/30 15/19/31 9/20/32
f 21/21/33 22/22/34 23/23/35 24/24/36
f 17/25/37 19/26/38 20/27/39 18/28/40
f 17/25/41 18/28/42 22/22/43 21/21/44
f 20/29/45 19/30/46 24/24/47 23/23/48
f 29/31/49 30/32/50 31/33/51 32/34/52
f 25/35/53 27/36/54 28/37/55 26/38/56
f 25/35/57 26/38/58 30/32/59 29/31/60
f 28/39/61 27/40/62 32/34/63 31/33/64
f 37/41/65 40/42/66 39/43/67 38/44/68
f 33/45/69 34/46/70 36/47/71 35/48/72
f 33/45/73 37/41/74 38/44/75 34/46/76
f 36/49/77 39/43/78 40/42/79 35/50/80
f 45/51/81 48/52/82 47/53/83 46/54/84
f 41/55/85 42/56/86 44/57/87 43/58/88
f 41/55/89 45/51/90 46/54/91 42/56/92
f 44/59/93 47/53/94 48/52/95 43/60/96
f 55/61/97 56/62/98 57/63/99 58/64/100
f 55/61/101 59/65/102 56/62/103
f 58/64/104 57/63/105 60/66/106 61/67/107
f 50/68/108 51/69/109 52/70/110 49/71/111
f 50/68/112 49/71/113 53/72/114
f 49/73/115 52/74/116 57/63/117 56/62/118
f 51/69/119 50/68/120 55/61/121 58/64/122
f 52/74/123 54/75/124 60/66/125 57/63/126
f 66/76/127 68/77/128 67/78/129 56/79/130
f 66/76/131 56/79/132 59/80/133
f 68/77/134 70/81/135 69/82/136 67/78/137
f 62/83/138 49/84/139 64/85/140 63/86/141
f 62/83/142 53/87/143 49/84/144
f 49/88/145 56/79/146 67/78/147 64/89/148
f 63/86/149 68/77/150 66/76/151 62/83/152
f 64/89/153 67/78/154 69/82/155 65/90/156
f 66/91/157 75/92/158 76/93/159 77/94/160
f 66/91/161 59/95/162 75/92/163
f 77/94/164 76/93/165 78/96/166 79/97/167
f 62/98/168 72/99/169 73/100/170 71/101/171
f 62/98/172 71/101/173 53/102/174
f 71/103/175 73/104/176 76/93/177 75/92/178
f 72/99/179 62/98/180 66/91/181 77/94/182
f 73/104/183 74/105/184 78/96/185 76/93/186
f 55/106/187 84/107/188 83/108/189 75/109/190
f 55/106/191 75/109/192 59/110/193
f 84/107/194 86/111/195 85/112/196 83/108/197
f 50/113/198 71/114/199 81/115/200 80/116/201
f 50/113/202 53/117/203 71/114/204
f 71/118/205 75/109/206 83/108/207 81/119/208
f 80/116/209 84/107/210 55/106/211 50/113/212
f 81/119/213 83/108/214 85/112/215 82/120/216
f 91/121/217 90/122/218 95/123/219 96/124/220
f 92/125/221 91/121/222 96/124/223 97/126/224
f 89/127/225 87/128/226 93/129/227 94/130/228
f 87/128/229 88/131/230 98/132/231 93/129/232
f 90/122/233 89/133/234 94/134/235 95/123/236
f 87/135/237 89/136/238 90/122/239 91/121/240
f 88/131/241 92/125/242 97/126/243 98/132/244
f 88/137/245 87/138/246 91/121/247 92/125/248
f 103/139/249 108/140/250 107/141/251 102/142/252
f 104/143/253 109/144/254 108/140/255 103/139/256
f 101/145/257 106/146/258 105/147/259 99/148/260
f 99/148/261 105/147/262 110/149/263 100/150/264
f 102/142/265 107/141/266 106/151/267 101/152/268
f 99/153/269 103/139/270 102/142/271 101/154/272
f 100/150/273 110/149/274 109/144/275 104/143/276
f 100/155/277 104/143/278 103/139/279 99/156/280
f 115/157/281 114/158/282 119/159/283 120/160/284
f 116/161/285 115/157/286 120/160/287 121/162/288
f 113/163/289 111/164/290 117/165/291 118/166/292
f 111/164/293 112/167/294 122/168/295 117/165/296
f 114/158/297 113/169/298 118/170/299 119/159/300
f 111/171/301 113/172/302 114/158/303 115/157/304
f 112/167/305 116/161/306 121/162/307 122/168/308
f 112/173/309 111/174/310 115/157/311 116/161/312
f 127/175/313 132/176/314 131/177/315 126/178/316
f 128/179/317 133/180/318 132/176/319 127/175/320
f 125/181/321 130/182/322 129/183/323 123/184/324
f 123/184/325 129/183/326 134/185/327 124/186/328
f 126/178/329 131/177/330 130/187/331 125/188/332
f 123/189/333 127/175/334 126/178/335 125/190/336
f 124/186/337 134/185/338 133/180/339 128/179/340
f 124/191/341 128/179/342 127/175/343 123/192/344
