# This file uses meters as units for non-parametric coordinates.

mtllib Pylons_B_LOD2.mtl
g default
v -18.332373 0.000000 28.160168
v 18.332373 0.000000 28.160168
v -18.332373 2.835197 28.160168
v 18.332373 2.835197 28.160168
v -18.332373 2.835197 -28.160168
v 18.332373 2.835197 -28.160168
v -18.332373 0.000000 -28.160168
v 18.332373 0.000000 -28.160168
v -14.334071 1.415199 25.329622
v 14.334071 1.415199 25.329622
v 14.334071 1.415199 -25.329622
v -14.334071 1.415199 -25.329622
v 2.857982 115.763435 -2.461332
v -0.106147 120.037949 -0.771307
v -2.827964 116.566254 2.435464
v -2.917328 102.096489 2.489042
v 2.204995 115.707542 -1.957284
v -2.781619 116.470932 0.875726
v -0.102882 119.297729 -0.639254
v 2.158836 104.650948 -2.103760
v -2.910356 104.634300 0.774801
v -3.596343 105.120888 1.204451
v -2.879297 105.218521 2.465388
v 2.879223 105.179871 -2.474211
v 3.595315 105.241821 -1.212916
v 2.173871 102.096024 -2.223598
v -3.049627 102.096024 0.743896
v -3.543711 116.566254 1.175575
v 3.624360 115.795151 -2.063376
v 3.644953 102.096405 -2.078410
v -3.646662 102.096352 2.066928
v 3.658122 102.096977 -1.248591
v 3.573802 115.763435 -1.201316
v 2.333983 115.694893 -1.330309
v -2.310491 116.448524 1.308233
v 2.344110 104.895065 -1.336988
v -2.343725 104.897797 1.325299
v -3.645838 105.198082 2.066841
v 3.645579 105.257835 -2.075455
v 2.227284 105.129494 -1.969548
v -2.829840 105.118431 0.902668
v 0.182271 119.123672 -0.107915
v 2.352631 105.122993 -1.341198
v -2.353703 105.124367 1.332142
v -3.591184 116.620956 2.035800
v 0.279856 120.458748 -0.163352
v 0.604439 120.037949 0.479496
v 0.000000 102.398514 0.000000
v -4.914379 4.860391 1.044584
v -0.525169 4.860391 4.996643
v 4.589805 4.860391 2.043511
v 3.361825 4.860391 -3.733684
v -2.512083 4.860391 -4.351056
v -4.648080 102.169106 0.987979
v -0.496709 102.169106 4.725889
v 4.341094 102.169106 1.932778
v 3.179653 102.169106 -3.531365
v -2.375960 102.169106 -4.115282
v -2.320105 80.892670 -4.018540
v 3.104908 80.892670 -3.448349
v 4.239044 80.892670 1.887344
v -0.485034 80.892670 4.614792
v -4.538813 80.892670 0.964755
v -4.538813 85.136276 0.964755
v -0.485034 85.136276 4.614792
v 4.239044 85.136276 1.887344
v 3.104908 85.136276 -3.448349
v -2.320105 85.136276 -4.018540
v -6.086270 1.342633 1.293677
v -0.650403 1.342633 6.188154
v 5.684300 1.342633 2.530810
v 4.163490 1.342633 -4.624026
v -3.111118 1.342633 -5.388620
vt 0.719787 0.493236
vt 0.969302 0.493236
vt 0.969301 0.512528
vt 0.719787 0.512532
vt 0.750586 0.543562
vt 0.938796 0.543562
vt 0.938796 0.931906
vt 0.750586 0.931907
vt 0.719787 0.961939
vt 0.969301 0.961943
vt 0.969302 0.981236
vt 0.719787 0.981234
vt 0.567182 0.519899
vt 0.492311 0.519899
vt 0.492311 0.378513
vt 0.567182 0.378513
vt 0.997011 0.518555
vt 0.997011 0.956928
vt 0.974944 0.956927
vt 0.974944 0.518560
vt 0.691453 0.956919
vt 0.691452 0.518569
vt 0.713517 0.518564
vt 0.713517 0.956923
vt 0.719787 0.518564
vt 0.969301 0.518560
vt 0.969301 0.956927
vt 0.719787 0.956923
vt 0.872320 0.280019
vt 0.872320 0.271162
vt 0.872320 0.334605
vt 0.802961 0.416431
vt 0.802961 0.353021
vt 0.802961 0.361909
vt 0.732878 0.361909
vt 0.732878 0.353021
vt 0.732878 0.416431
vt 0.945799 0.280019
vt 0.945799 0.271162
vt 0.945799 0.334605
vt 0.735365 0.280019
vt 0.735365 0.271162
vt 0.741931 0.475648
vt 0.744185 0.469977
vt 0.746931 0.481451
vt 0.744533 0.482331
vt 0.941329 0.479306
vt 0.943547 0.479893
vt 0.950459 0.416431
vt 0.872339 0.482381
vt 0.870238 0.483184
vt 0.818549 0.483558
vt 0.822016 0.472374
vt 0.823498 0.478176
vt 0.820789 0.484495
vt 0.872320 0.302899
vt 0.872320 0.291292
vt 0.802961 0.396446
vt 0.802961 0.384781
vt 0.802961 0.373114
vt 0.732878 0.384781
vt 0.732878 0.373114
vt 0.945799 0.302899
vt 0.945799 0.291292
vt 0.964909 0.434205
vt 0.966771 0.473947
vt 0.954985 0.474336
vt 0.732004 0.473617
vt 0.720316 0.473362
vt 0.724456 0.434205
vt 0.950459 0.373114
vt 0.950459 0.384781
vt 0.872320 0.314563
vt 0.732878 0.396446
vt 0.945799 0.314563
vt 0.950459 0.361909
vt 0.950459 0.396446
vt 0.824000 0.438730
vt 0.833344 0.477826
vt 0.845172 0.438755
vt 0.845663 0.478598
vt 0.857865 0.478503
vt 0.856611 0.438614
vt 0.953761 0.434749
vt 0.735365 0.291292
vt 0.735365 0.314563
vt 0.735365 0.302899
vt 0.745358 0.436036
vt 0.735365 0.334605
vt 0.950459 0.353021
vt 0.781455 0.023590
vt 0.781709 0.240492
vt 0.782752 0.196493
vt 0.782778 0.153547
vt 0.782765 0.110671
vt 0.782704 0.067656
vt 0.630063 0.669646
vt 0.018720 0.009144
vt 0.018492 0.257513
vt 0.015543 0.205474
vt 0.015214 0.157151
vt 0.015214 0.109517
vt 0.015564 0.061248
vt 0.658702 0.067357
vt 0.658717 0.110617
vt 0.658765 0.153789
vt 0.658860 0.197098
vt 0.659916 0.240760
vt 0.659741 0.023940
vt 0.665473 0.681004
vt 0.630203 0.706832
vt 0.594740 0.681270
vt 0.608092 0.639643
vt 0.651787 0.639496
vt 0.604106 0.023315
vt 0.604413 0.240359
vt 0.604805 0.196971
vt 0.604500 0.153596
vt 0.604429 0.110281
vt 0.604585 0.066874
vt 0.047670 0.016596
vt 0.047868 0.250650
vt 0.046321 0.204348
vt 0.045719 0.157111
vt 0.045711 0.109853
vt 0.046269 0.062650
vn -0.077001 -0.995770 0.050128
vn 0.077001 -0.995770 0.050128
vn 0.503336 0.777177 0.377690
vn -0.503336 0.777177 0.377690
vn 0.055063 0.997741 -0.038496
vn -0.055063 0.997741 -0.038496
vn -0.055063 0.997741 0.038496
vn 0.055063 0.997741 0.038496
vn -0.503336 0.777177 -0.377690
vn 0.503336 0.777177 -0.377690
vn 0.077001 -0.995770 -0.050128
vn -0.077001 -0.995770 -0.050128
vn 0.974605 -0.215016 0.062565
vn 0.036431 -0.112680 -0.992963
vn -0.498759 -0.392251 -0.772902
vn 0.217062 -0.778405 0.589041
vn 0.480938 0.430643 0.763705
vn 0.375391 0.105590 0.920833
vn -0.883677 -0.100324 -0.457221
vn -0.464194 -0.182990 0.866625
vn 0.589577 0.082185 0.803520
vn -0.914972 0.004777 -0.403489
vn -0.506087 -0.000585 0.862482
vn -0.372236 0.217646 -0.902259
vn 0.350511 0.670499 0.653891
vn 0.532481 0.110198 0.839238
vn 0.999972 -0.002723 0.007025
vn 0.443404 0.107103 0.889900
vn 0.381792 0.669228 0.637471
vn -0.580327 0.221282 -0.783744
vn 0.106265 0.002935 -0.994334
vn -0.373087 0.221389 -0.900995
vn -0.583296 0.222269 -0.781257
vn -0.846773 0.229615 0.479846
vn 0.089628 0.994673 -0.050917
vn -0.853224 0.170512 -0.492884
vn -0.306029 0.666798 -0.679505
vn 0.850750 0.204772 -0.484038
vn 0.012303 0.143698 -0.989545
vn 0.568334 0.200914 0.797891
vn 0.569638 -0.031799 -0.821280
vn 0.807792 -0.005854 -0.589438
vn -0.054542 -0.010933 -0.998452
vn -0.835517 -0.008875 -0.549393
vn -0.917986 -0.003007 0.396602
vn -0.995818 -0.032170 0.085503
vn 0.396120 0.200460 0.896050
vn -0.000000 1.000000 0.000000
vn -0.498482 0.077860 -0.863396
vn -0.975178 0.077860 0.207281
vn -0.104211 0.077860 0.991503
vn 0.910772 0.077860 0.405502
vn 0.667099 0.077860 -0.740889
vn -0.499854 0.024181 -0.865772
vn -0.473303 0.322394 -0.819785
vn -0.925920 0.322394 0.196810
vn -0.977862 0.024181 0.207851
vn -0.098947 0.322394 0.941420
vn -0.104498 0.024181 0.994231
vn 0.864767 0.322394 0.385019
vn 0.913278 0.024181 0.406618
vn 0.633403 0.322394 -0.703465
vn 0.668935 0.024181 -0.742928
vn -0.978136 0.004793 0.207909
vn -0.499994 0.004793 -0.866016
vn -0.104527 0.004793 0.994510
vn 0.913535 0.004793 0.406732
vn 0.669123 0.004793 -0.743136
vn -0.499993 -0.005265 -0.866013
vn 0.669121 -0.005265 -0.743135
vn 0.913533 -0.005265 0.406731
vn -0.104527 -0.005265 0.994508
vn -0.978134 -0.005265 0.207909
g Pylons_B_LOD2 Pylons_B
usemtl lambert6SG
f 1/1/1 2/2/2 4/3/3 3/4/4
f 9/5/5 10/6/6 11/7/7 12/8/8
f 5/9/9 6/10/10 8/11/11 7/12/12
f 7/13/12 8/14/11 2/15/2 1/16/1
f 2/17/2 8/18/11 6/19/10 4/20/3
f 7/21/12 1/22/1 3/23/4 5/24/9
f 3/25/4 4/26/3 10/6/6 9/5/5
f 4/26/3 6/27/10 11/7/7 10/6/6
f 6/27/10 5/28/9 12/8/8 11/7/7
f 5/28/9 3/25/4 9/5/5 12/8/8
f 35/33/13 18/34/14 19/35/15 42/36/16
f 47/74/17 15/58/18 35/32/13 42/37/16
f 42/39/16 19/38/15 17/29/19 34/30/20
f 33/73/21 47/75/17 42/40/16 34/31/20
f 40/41/22 43/42/23 34/30/20 17/29/19
f 40/43/22 20/44/24 36/45/25 43/46/23
f 43/48/23 36/47/25 25/67/26
f 44/49/27 35/32/13 15/58/18 23/77/28
f 37/50/29 44/51/27 23/82/28
f 37/52/29 21/53/30 41/54/31 44/55/27
f 21/53/30 37/52/29 36/45/25 20/44/24 26/88/32 27/78/33
f 45/59/34 15/58/18 47/74/17 46/61/35
f 28/60/36 45/59/34 46/61/35 14/62/37
f 29/56/38 46/63/35 47/75/17 33/73/21
f 14/64/37 46/63/35 29/56/38 13/57/39
f 32/84/40 30/65/41 39/66/42 25/67/26
f 24/68/43 39/69/42 30/70/41 26/88/32 20/44/24
f 28/60/36 22/71/44 38/72/45 45/59/34
f 19/35/15 18/34/14 28/60/36 14/62/37
f 17/29/19 19/38/15 14/64/37 13/57/39
f 41/76/31 22/71/44 28/60/36 18/34/14
f 41/54/31 21/53/30 22/79/44
f 22/79/44 21/53/30 27/78/33 31/80/46 38/81/45
f 23/82/28 38/81/45 31/80/46 16/83/47
f 24/68/43 20/44/24 40/43/22
f 25/86/26 39/87/42 29/56/38 33/73/21
f 43/89/23 25/86/26 33/73/21 34/31/20
f 37/50/29 23/82/28 16/83/47 32/84/40 25/67/26 36/47/25
f 13/57/39 29/56/38 39/87/42 24/85/43
f 40/41/22 17/29/19 13/57/39 24/85/43
f 41/76/31 18/34/14 35/33/13 44/90/27
f 23/77/28 15/58/18 45/59/34 38/72/45
f 48/97/48 58/114/49 54/110/50
f 48/97/48 54/110/50 55/111/51
f 48/97/48 55/111/51 56/112/52
f 48/97/48 56/112/52 57/113/53
f 48/97/48 57/113/53 58/114/49
f 53/126/54 73/103/55 69/98/56 49/121/57
f 49/122/57 69/99/56 70/100/58 50/123/59
f 50/123/59 70/100/58 71/101/60 51/124/61
f 51/124/61 71/101/60 72/102/62 52/125/63
f 52/125/63 72/102/62 73/103/55 53/126/54
f 63/115/64 59/120/65 53/126/54 49/121/57
f 62/117/66 63/116/64 49/122/57 50/123/59
f 61/118/67 62/117/66 50/123/59 51/124/61
f 60/119/68 61/118/67 51/124/61 52/125/63
f 59/120/65 60/119/68 52/125/63 53/126/54
f 68/104/69 58/96/49 57/95/53 67/105/70
f 67/105/70 57/95/53 56/94/52 66/106/71
f 66/106/71 56/94/52 55/93/51 65/107/72
f 65/107/72 55/93/51 54/92/50 64/108/73
f 64/109/73 54/91/50 58/96/49 68/104/69
f 64/109/73 68/104/69 59/120/65 63/115/64
f 68/104/69 67/105/70 60/119/68 59/120/65
f 67/105/70 66/106/71 61/118/67 60/119/68
f 66/106/71 65/107/72 62/117/66 61/118/67
f 65/107/72 64/108/73 63/116/64 62/117/66
