# This file uses meters as units for non-parametric coordinates.

mtllib Pylons_B_VarA_LOD2.mtl
g default
v -18.332373 0.000000 28.160168
v 18.332373 0.000000 28.160168
v -18.332373 2.835197 28.160168
v 18.332373 2.835197 28.160168
v -18.332373 2.835197 -28.160168
v 18.332373 2.835197 -28.160168
v -18.332373 0.000000 -28.160168
v 18.332373 0.000000 -28.160168
v -14.334071 1.415199 25.329622
v 14.334071 1.415199 25.329622
v 14.334071 1.415199 -25.329622
v -14.334071 1.415199 -25.329622
v 8.086361 114.848755 1.631341
v 5.552474 119.276505 3.603179
v 2.506017 115.891335 6.603855
v 1.008843 101.523918 5.754863
v 7.431082 114.825043 2.134956
v 2.542715 115.889969 5.040950
v 5.483698 118.532646 3.688756
v 6.309071 103.856262 1.299044
v 1.262602 104.151543 4.202332
v 0.627270 104.674553 4.665756
v 1.350537 104.622803 5.925857
v 7.077476 104.334900 0.957864
v 7.796322 104.247787 2.216102
v 6.075368 101.324524 1.019903
v 0.876956 101.645752 4.013943
v 1.793545 116.039864 5.350884
v 8.852225 114.780861 2.025740
v 7.539518 101.172920 1.155708
v 0.282917 101.621094 5.338094
v 7.552761 101.120163 1.983847
v 8.798906 114.700203 2.884437
v 7.558289 114.760628 2.759108
v 3.009466 115.794830 5.468287
v 6.517297 104.032661 2.078391
v 1.852241 104.323715 4.764676
v 0.585605 104.701950 5.531573
v 7.847820 104.312904 1.355949
v 6.423780 104.316536 1.462433
v 1.389866 104.616592 4.359660
v 5.750608 118.298744 4.206418
v 6.547959 104.258492 2.088362
v 1.864361 104.549309 4.785708
v 1.751705 116.044861 6.213122
v 5.977659 119.618866 4.233804
v 6.259809 119.129044 4.847113
v 3.941473 101.696671 3.271481
v -4.914379 4.860391 1.044584
v -0.525169 4.860391 4.996643
v 4.589805 4.860391 2.043511
v 3.361825 4.860391 -3.733684
v -2.512083 4.860391 -4.351056
v -0.706770 101.858284 4.272020
v 3.425258 101.220665 7.976830
v 8.239823 100.925957 5.159221
v 7.083361 101.381447 -0.286966
v 1.554065 101.957657 -0.835285
v -0.461021 80.812401 -2.066883
v 4.938295 80.249733 -1.531452
v 6.067568 79.804955 3.786705
v 1.366183 80.092735 6.538076
v -2.668709 80.715370 2.920360
v -2.255709 84.930519 3.185191
v 1.779183 84.307884 6.802907
v 6.480569 84.020111 4.051536
v 5.351295 84.464890 -1.266621
v -0.048021 85.027550 -1.802052
v -6.086270 1.342633 1.293677
v -0.650403 1.342633 6.188154
v 5.684300 1.342633 2.530810
v 4.163490 1.342633 -4.624026
v -3.111118 1.342633 -5.388620
vt 0.719787 0.493236
vt 0.969302 0.493236
vt 0.969301 0.512528
vt 0.719787 0.512532
vt 0.750586 0.543562
vt 0.938796 0.543562
vt 0.938796 0.931906
vt 0.750586 0.931907
vt 0.719787 0.961939
vt 0.969301 0.961943
vt 0.969302 0.981236
vt 0.719787 0.981234
vt 0.567182 0.519899
vt 0.492311 0.519899
vt 0.492311 0.378513
vt 0.567182 0.378513
vt 0.997011 0.518555
vt 0.997011 0.956928
vt 0.974944 0.956927
vt 0.974944 0.518560
vt 0.691453 0.956919
vt 0.691452 0.518569
vt 0.713517 0.518564
vt 0.713517 0.956923
vt 0.719787 0.518564
vt 0.969301 0.518560
vt 0.969301 0.956927
vt 0.719787 0.956923
vt 0.872320 0.280019
vt 0.872320 0.271162
vt 0.872320 0.334605
vt 0.802961 0.416431
vt 0.802961 0.353021
vt 0.802961 0.361909
vt 0.732878 0.361909
vt 0.732878 0.353021
vt 0.732878 0.416431
vt 0.945799 0.280019
vt 0.945799 0.271162
vt 0.945799 0.334605
vt 0.735365 0.280019
vt 0.735365 0.271162
vt 0.741931 0.475648
vt 0.744185 0.469977
vt 0.746931 0.481451
vt 0.744533 0.482331
vt 0.941329 0.479306
vt 0.943547 0.479893
vt 0.950459 0.416431
vt 0.872339 0.482381
vt 0.870238 0.483184
vt 0.818549 0.483558
vt 0.822016 0.472374
vt 0.823498 0.478176
vt 0.820789 0.484495
vt 0.872320 0.302899
vt 0.872320 0.291292
vt 0.802961 0.396446
vt 0.802961 0.384781
vt 0.802961 0.373114
vt 0.732878 0.384781
vt 0.732878 0.373114
vt 0.945799 0.302899
vt 0.945799 0.291292
vt 0.964909 0.434205
vt 0.966771 0.473947
vt 0.954985 0.474336
vt 0.732004 0.473617
vt 0.720316 0.473362
vt 0.724456 0.434205
vt 0.950459 0.373114
vt 0.950459 0.384781
vt 0.872320 0.314563
vt 0.732878 0.396446
vt 0.945799 0.314563
vt 0.950459 0.361909
vt 0.950459 0.396446
vt 0.824000 0.438730
vt 0.833344 0.477826
vt 0.845172 0.438755
vt 0.845663 0.478598
vt 0.857865 0.478503
vt 0.856611 0.438614
vt 0.953761 0.434749
vt 0.735365 0.291292
vt 0.735365 0.314563
vt 0.735365 0.302899
vt 0.745358 0.436036
vt 0.735365 0.334605
vt 0.950459 0.353021
vt 0.781455 0.023590
vt 0.781709 0.240492
vt 0.782752 0.196493
vt 0.782778 0.153547
vt 0.782765 0.110671
vt 0.782704 0.067656
vt 0.630063 0.669646
vt 0.018720 0.009144
vt 0.018492 0.257513
vt 0.015543 0.205474
vt 0.015214 0.157151
vt 0.015214 0.109517
vt 0.015564 0.061248
vt 0.658702 0.067357
vt 0.658717 0.110617
vt 0.658765 0.153789
vt 0.658860 0.197098
vt 0.659916 0.240760
vt 0.659741 0.023940
vt 0.665473 0.681004
vt 0.630203 0.706832
vt 0.594740 0.681270
vt 0.608092 0.639643
vt 0.651787 0.639496
vt 0.604106 0.023315
vt 0.604413 0.240359
vt 0.604805 0.196971
vt 0.604500 0.153596
vt 0.604429 0.110281
vt 0.604585 0.066874
vt 0.047670 0.016596
vt 0.047868 0.250650
vt 0.046321 0.204348
vt 0.045719 0.157111
vt 0.045711 0.109853
vt 0.046269 0.062650
vn -0.077001 -0.995770 0.050128
vn 0.077001 -0.995770 0.050128
vn 0.503336 0.777177 0.377690
vn -0.503336 0.777177 0.377690
vn 0.055063 0.997741 -0.038496
vn -0.055063 0.997741 -0.038496
vn -0.055063 0.997741 0.038496
vn 0.055063 0.997741 0.038496
vn -0.503336 0.777177 -0.377690
vn 0.503336 0.777177 -0.377690
vn 0.077001 -0.995770 -0.050128
vn -0.077001 -0.995770 -0.050128
vn 0.949058 -0.312156 0.042981
vn 0.025195 -0.053189 -0.998267
vn -0.534641 -0.292706 -0.792769
vn 0.140334 -0.831212 0.537953
vn 0.520643 0.333149 0.786093
vn 0.383977 0.010672 0.923281
vn -0.889290 0.014851 -0.457103
vn -0.479717 -0.191028 0.856376
vn 0.594856 -0.026021 0.803411
vn -0.910204 0.118916 -0.396722
vn -0.503656 -0.005517 0.863887
vn -0.349373 0.308923 -0.884593
vn 0.414165 0.590950 0.692276
vn 0.540758 0.005109 0.841163
vn 0.994960 -0.100268 0.000643
vn 0.451809 0.007510 0.892083
vn 0.445172 0.587679 0.675615
vn -0.556110 0.325313 -0.764796
vn 0.105949 0.054953 -0.992852
vn -0.349856 0.312645 -0.883093
vn -0.558969 0.326426 -0.762234
vn -0.820359 0.280225 0.498483
vn 0.186003 0.982491 0.010702
vn -0.832627 0.283149 -0.475982
vn -0.239747 0.734666 -0.634655
vn 0.866593 0.151126 -0.475582
vn 0.026134 0.203599 -0.978706
vn 0.585265 0.094327 0.805337
vn 0.563759 -0.035406 -0.825180
vn 0.803330 -0.047305 -0.593653
vn -0.055443 0.057055 -0.996830
vn -0.832468 0.106789 -0.543685
vn -0.913881 0.061300 0.401327
vn -0.994214 0.059403 0.089501
vn 0.413834 0.104447 0.904341
vn 0.097323 0.993294 0.062407
vn -0.488622 0.179900 -0.853747
vn -0.962951 0.159053 0.217778
vn -0.096042 0.025278 0.995056
vn 0.914066 -0.036552 0.403915
vn 0.671438 0.059010 -0.738708
vn -0.504194 0.056941 -0.861711
vn -0.473303 0.322394 -0.819785
vn -0.925920 0.322394 0.196810
vn -0.979630 0.042382 0.196287
vn -0.098947 0.322394 0.941420
vn -0.114325 0.003040 0.993439
vn 0.864767 0.322394 0.385019
vn 0.916019 -0.006476 0.401084
vn 0.633403 0.322394 -0.703465
vn 0.657404 0.027459 -0.753038
vn -0.981584 0.027416 0.189054
vn -0.515951 0.042976 -0.855540
vn -0.131399 -0.018715 0.991153
vn 0.914431 -0.031830 0.403489
vn 0.645700 0.007519 -0.763554
vn -0.498217 0.097643 -0.861537
vn 0.665360 -0.023613 -0.746149
vn 0.908723 -0.119465 0.399937
vn -0.104446 -0.057448 0.992870
vn -0.973983 0.076733 0.213236
g Pylons_B_VarA_LOD2 Pylons_B_VarA
usemtl lambert6SG
f 1/1/1 2/2/2 4/3/3 3/4/4
f 9/5/5 10/6/6 11/7/7 12/8/8
f 5/9/9 6/10/10 8/11/11 7/12/12
f 7/13/12 8/14/11 2/15/2 1/16/1
f 2/17/2 8/18/11 6/19/10 4/20/3
f 7/21/12 1/22/1 3/23/4 5/24/9
f 3/25/4 4/26/3 10/6/6 9/5/5
f 4/26/3 6/27/10 11/7/7 10/6/6
f 6/27/10 5/28/9 12/8/8 11/7/7
f 5/28/9 3/25/4 9/5/5 12/8/8
f 35/33/13 18/34/14 19/35/15 42/36/16
f 47/74/17 15/58/18 35/32/13 42/37/16
f 42/39/16 19/38/15 17/29/19 34/30/20
f 33/73/21 47/75/17 42/40/16 34/31/20
f 40/41/22 43/42/23 34/30/20 17/29/19
f 40/43/22 20/44/24 36/45/25 43/46/23
f 43/48/23 36/47/25 25/67/26
f 44/49/27 35/32/13 15/58/18 23/77/28
f 37/50/29 44/51/27 23/82/28
f 37/52/29 21/53/30 41/54/31 44/55/27
f 21/53/30 37/52/29 36/45/25 20/44/24 26/88/32 27/78/33
f 45/59/34 15/58/18 47/74/17 46/61/35
f 28/60/36 45/59/34 46/61/35 14/62/37
f 29/56/38 46/63/35 47/75/17 33/73/21
f 14/64/37 46/63/35 29/56/38 13/57/39
f 32/84/40 30/65/41 39/66/42 25/67/26
f 24/68/43 39/69/42 30/70/41 26/88/32 20/44/24
f 28/60/36 22/71/44 38/72/45 45/59/34
f 19/35/15 18/34/14 28/60/36 14/62/37
f 17/29/19 19/38/15 14/64/37 13/57/39
f 41/76/31 22/71/44 28/60/36 18/34/14
f 41/54/31 21/53/30 22/79/44
f 22/79/44 21/53/30 27/78/33 31/80/46 38/81/45
f 23/82/28 38/81/45 31/80/46 16/83/47
f 24/68/43 20/44/24 40/43/22
f 25/86/26 39/87/42 29/56/38 33/73/21
f 43/89/23 25/86/26 33/73/21 34/31/20
f 37/50/29 23/82/28 16/83/47 32/84/40 25/67/26 36/47/25
f 13/57/39 29/56/38 39/87/42 24/85/43
f 40/41/22 17/29/19 13/57/39 24/85/43
f 41/76/31 18/34/14 35/33/13 44/90/27
f 23/77/28 15/58/18 45/59/34 38/72/45
f 48/97/48 58/114/49 54/110/50
f 48/97/48 54/110/50 55/111/51
f 48/97/48 55/111/51 56/112/52
f 48/97/48 56/112/52 57/113/53
f 48/97/48 57/113/53 58/114/49
f 53/126/54 73/103/55 69/98/56 49/121/57
f 49/122/57 69/99/56 70/100/58 50/123/59
f 50/123/59 70/100/58 71/101/60 51/124/61
f 51/124/61 71/101/60 72/102/62 52/125/63
f 52/125/63 72/102/62 73/103/55 53/126/54
f 63/115/64 59/120/65 53/126/54 49/121/57
f 62/117/66 63/116/64 49/122/57 50/123/59
f 61/118/67 62/117/66 50/123/59 51/124/61
f 60/119/68 61/118/67 51/124/61 52/125/63
f 59/120/65 60/119/68 52/125/63 53/126/54
f 68/104/69 58/96/49 57/95/53 67/105/70
f 67/105/70 57/95/53 56/94/52 66/106/71
f 66/106/71 56/94/52 55/93/51 65/107/72
f 65/107/72 55/93/51 54/92/50 64/108/73
f 64/109/73 54/91/50 58/96/49 68/104/69
f 64/109/73 68/104/69 59/120/65 63/115/64
f 68/104/69 67/105/70 60/119/68 59/120/65
f 67/105/70 66/106/71 61/118/67 60/119/68
f 66/106/71 65/107/72 62/117/66 61/118/67
f 65/107/72 64/108/73 63/116/64 62/117/66
