# This file uses meters as units for non-parametric coordinates.

mtllib Pylons_A_LOD2.mtl
g default
v 3.738944 48.304218 -1.214857
v 3.861719 48.304218 0.736662
v 2.691199 48.304218 -2.865837
v 3.029161 48.304218 2.505939
v 0.977689 48.304218 -3.807847
v 1.447229 48.304218 3.655281
v -0.977689 48.304218 -3.807846
v -0.492729 48.304214 3.900356
v -2.691199 48.304218 -2.865835
v -2.310793 48.304214 3.180534
v -3.738942 48.304218 -1.214856
v -3.557197 48.304218 1.673890
v 15.113888 2.599916 -4.910797
v 10.878597 2.599916 -11.584534
v 3.952084 2.599916 -15.392380
v -3.952096 2.599916 -15.392368
v -10.878572 2.599916 -11.584516
v -15.113857 2.599916 -4.910789
v -14.379232 2.599916 6.766344
v -9.340896 2.599916 12.856613
v -1.991750 2.599916 15.766367
v 5.850123 2.599916 14.775709
v 12.244724 2.599916 10.129726
v 15.610163 2.599916 2.977798
v -19.310867 2.599916 13.363747
v -17.428839 2.599916 17.428839
v -13.363747 2.599916 19.310867
v -17.767929 0.120363 17.767927
v -19.807060 0.120363 13.371867
v -13.371867 0.120363 19.807060
v 19.310867 2.599916 13.363747
v 17.428839 2.599916 17.428839
v 13.363747 2.599916 19.310867
v 19.807060 0.120363 13.371867
v 13.371867 0.120363 19.807060
v 17.767929 0.120363 17.767927
v 19.310867 2.599916 -13.363747
v 17.736191 2.599916 -17.192997
v 13.363747 2.599916 -19.310867
v 18.100986 0.120363 -17.512362
v 19.807060 0.120363 -13.371867
v 13.371867 0.120363 -19.807060
v -19.310867 2.599916 -13.363747
v -17.428839 2.599916 -17.428839
v -13.363747 2.599916 -19.310867
v -19.807060 0.120363 -13.371867
v -13.371867 0.120363 -19.807060
v -17.767929 0.120363 -17.767927
vt 0.072034 0.702708
vt 0.117481 0.675127
vt 0.165864 0.653069
vt 0.216504 0.636867
vt 0.268700 0.626743
vt 0.321726 0.622829
vt 0.401208 0.628697
vt 0.453084 0.640356
vt 0.503230 0.658041
vt 0.550946 0.681511
vt 0.595545 0.710415
vt 0.631698 0.739902
vt 0.030110 0.735448
vt 0.259313 0.973991
vt 0.248023 0.982808
vt 0.271560 0.966563
vt 0.410057 0.984007
vt 0.400339 0.976082
vt 0.284594 0.960626
vt 0.388315 0.968294
vt 0.298235 0.956264
vt 0.375460 0.961974
vt 0.312293 0.953537
vt 0.361953 0.957209
vt 0.326573 0.952482
vt 0.347980 0.954066
vt 0.076185 0.461462
vt 0.100410 0.513011
vt 0.146711 0.546201
vt 0.203681 0.553495
vt 0.256997 0.533019
vt 0.293123 0.489527
vt 0.298640 0.404929
vt 0.268683 0.357013
vt 0.218400 0.330151
vt 0.160578 0.330198
vt 0.109898 0.357053
vt 0.079343 0.404640
vt 0.330022 0.538335
vt 0.330633 0.342933
vt 0.315848 0.567122
vt 0.286948 0.581022
vt 0.351276 0.342934
vt 0.329753 0.581183
vt 0.091280 0.580411
vt 0.350666 0.538459
vt 0.354460 0.546838
vt 0.295164 0.605504
vt 0.048091 0.537673
vt 0.062389 0.566508
vt 0.023658 0.546483
vt 0.048604 0.580622
vt 0.083230 0.604677
vt 0.091155 0.601085
vt 0.286947 0.601696
vt 0.047879 0.342464
vt 0.060158 0.315444
vt 0.091214 0.300052
vt 0.045902 0.301839
vt 0.287756 0.300056
vt 0.027262 0.342427
vt 0.027472 0.537755
vt 0.023541 0.333944
vt 0.083376 0.275805
vt 0.316593 0.314094
vt 0.355039 0.334525
vt 0.330559 0.300115
vt 0.296133 0.275649
vt 0.287816 0.279289
vt 0.091152 0.279289
vn 0.641314 0.738441 -0.208375
vn 0.924341 0.235358 -0.300335
vn 0.954694 0.235357 0.182116
vn 0.662376 0.738440 0.126353
vn 0.461602 0.738441 -0.491557
vn 0.665317 0.235357 -0.708492
vn 0.167698 0.738440 -0.653134
vn 0.241705 0.235357 -0.941374
vn -0.167698 0.738440 -0.653134
vn -0.241706 0.235357 -0.941374
vn -0.461605 0.738440 -0.491556
vn -0.665319 0.235357 -0.708489
vn -0.641315 0.738441 -0.208376
vn -0.924340 0.235357 -0.300336
vn -0.610142 0.738441 0.287109
vn -0.879410 0.235358 0.413817
vn -0.396356 0.738440 0.545535
vn -0.571274 0.235357 0.786291
vn -0.084511 0.738440 0.669002
vn -0.121809 0.235358 0.964245
vn 0.248234 0.738441 0.626965
vn 0.357784 0.235358 0.903658
vn 0.519571 0.738440 0.429828
vn 0.748868 0.235357 0.619519
vn 0.313999 0.949423 0.000300
vn 0.002840 0.931995 0.362461
vn -0.002188 0.960208 0.279278
vn -0.331766 0.943358 0.002600
vn -0.311895 0.950117 -0.000298
vn -0.002840 0.931995 -0.362461
vn 0.002622 0.942352 -0.334612
vn 0.353815 0.935311 -0.002772
vn -0.433255 0.865864 0.250140
vn -0.988030 -0.154067 0.007729
vn -0.856998 -0.144014 0.494788
vn -0.988030 -0.154067 -0.007729
vn -0.007729 -0.154067 0.988030
vn 0.149508 0.954248 0.258956
vn 0.007729 -0.154067 0.988030
vn 0.494788 -0.144015 0.856998
vn 0.988030 -0.154067 0.007729
vn 0.539428 0.782319 -0.311439
vn 0.988030 -0.154067 -0.007729
vn 0.856998 -0.144014 -0.494788
vn 0.007729 -0.154067 -0.988030
vn -0.149508 0.954248 -0.258956
vn -0.007729 -0.154067 -0.988030
vn -0.494788 -0.144015 -0.856998
g Pylons_A_LOD2 Pylons_A
usemtl lambert6SG
f 13/1/1 1/14/2 2/15/3 24/13/4
f 1/14/2 13/1/1 14/2/5 3/16/6
f 3/16/6 14/2/5 15/3/7 5/19/8
f 5/19/8 15/3/7 16/4/9 7/21/10
f 7/21/10 16/4/9 17/5/11 9/23/12
f 9/23/12 17/5/11 18/6/13 11/25/14
f 11/25/14 18/6/13 19/7/15 12/26/16
f 20/8/17 10/24/18 12/26/16 19/7/15
f 21/9/19 8/22/20 10/24/18 20/8/17
f 22/10/21 6/20/22 8/22/20 21/9/19
f 23/11/23 4/18/24 6/20/22 22/10/21
f 24/12/4 2/17/3 4/18/24 23/11/23
f 31/49/25 24/27/4 23/28/23 33/45/26
f 23/28/23 22/29/21 21/30/19 27/42/27 33/45/26
f 21/30/19 20/31/17 27/42/27
f 25/39/28 27/42/27 20/31/17 19/32/15
f 43/40/29 25/39/28 19/32/15 18/33/13
f 43/40/29 18/33/13 17/34/11 45/60/30
f 17/34/11 16/35/9 45/60/30
f 45/60/30 16/35/9 15/36/7 39/58/31
f 15/36/7 14/37/5 13/38/1 37/56/32 39/58/31
f 13/38/1 24/27/4 31/49/25 37/56/32
f 26/41/33 25/39/28 29/47/34 28/44/35
f 25/39/28 43/40/29 46/43/36 29/46/34
f 27/42/27 26/41/33 28/44/35 30/48/37
f 26/41/33 27/42/27 25/39/28
f 32/50/38 33/45/26 35/53/39 36/52/40
f 35/54/39 33/45/26 27/42/27 30/55/37
f 31/49/25 33/45/26 32/50/38
f 31/49/25 32/50/38 36/52/40 34/51/41
f 38/57/42 37/56/32 41/63/43 40/59/44
f 37/56/32 31/49/25 34/62/41 41/61/43
f 39/58/31 38/57/42 40/59/44 42/64/45
f 44/65/46 45/60/30 47/68/47 48/67/48
f 47/69/47 45/60/30 39/58/31 42/70/45
f 43/40/29 45/60/30 44/65/46
f 46/66/36 43/40/29 44/65/46 48/67/48
f 38/57/42 39/58/31 37/56/32
