# This file uses meters as units for non-parametric coordinates.

mtllib FireEscape_Ladder_LOD2.mtl
g default
v -0.781998 0.000000 -76.250000
v 4.981995 0.000000 -76.250000
v 4.981995 0.000000 -72.250000
v -0.781998 0.000000 -72.250000
v -0.781998 0.000000 -23.249998
v 4.981995 0.000000 -23.249998
v 4.981995 0.000000 -27.249998
v -0.781998 0.000000 -27.249998
v 0.809006 6.900000 -75.340500
v 0.809006 6.900000 -24.659500
v 2.746002 5.781530 -75.340500
v 2.746002 5.781530 -24.659500
v 2.746002 8.018500 -75.340500
v 2.746002 8.018500 -24.659500
v 0.809006 21.199999 -75.340500
v 0.809006 21.199999 -24.659500
v 2.746002 20.081501 -75.340500
v 2.746002 20.081501 -24.659500
v 2.746002 22.318501 -75.340500
v 2.746002 22.318501 -24.659500
v 0.809006 35.500000 -75.340500
v 0.809006 35.500000 -24.659500
v 2.746002 34.381500 -75.340500
v 2.746002 34.381500 -24.659500
v 2.746002 36.618500 -75.340500
v 2.746002 36.618500 -24.659500
v 0.809006 49.799999 -75.340500
v 0.809006 49.799999 -24.659500
v 2.746002 48.681499 -75.340500
v 2.746002 48.681499 -24.659500
v 2.746002 50.918503 -75.340500
v 2.746002 50.918503 -24.659500
v 0.809006 64.099998 -75.340500
v 0.809006 64.099998 -24.659500
v 2.746002 62.981499 -75.340500
v 2.746002 62.981499 -24.659500
v 2.746002 65.218506 -75.340500
v 2.746002 65.218506 -24.659500
v 0.809006 78.400002 -75.340500
v 0.809006 78.400002 -24.659500
v 2.746002 77.281502 -75.340500
v 2.746002 77.281502 -24.659500
v 2.746002 79.518501 -75.340500
v 2.746002 79.518501 -24.659500
v 0.809006 92.699997 -75.340500
v 0.809006 92.699997 -24.659500
v 2.746002 91.581497 -75.340500
v 2.746002 91.581497 -24.659500
v 2.746002 93.818497 -75.340500
v 2.746002 93.818497 -24.659500
v 0.809006 106.900002 -75.340500
v 0.809006 106.900002 -24.659500
v 2.746002 105.781998 -75.340500
v 2.746002 105.781998 -24.659500
v 2.746002 108.018005 -75.340500
v 2.746002 108.018005 -24.659500
v 0.809006 121.200005 -75.340500
v 0.809006 121.200005 -24.659500
v 2.746002 120.082001 -75.340500
v 2.746002 120.082001 -24.659500
v 2.746002 122.318008 -75.340500
v 2.746002 122.318008 -24.659500
v 0.809006 135.500000 -75.340500
v 0.809006 135.500000 -24.659500
v 2.746002 134.382004 -75.340500
v 2.746002 134.382004 -24.659500
v 2.746002 136.617996 -75.340500
v 2.746002 136.617996 -24.659500
v 0.809006 149.800003 -75.340500
v 0.809006 149.800003 -24.659500
v 2.746002 148.681992 -75.340500
v 2.746002 148.681992 -24.659500
v 2.746002 150.917999 -75.340500
v 2.746002 150.917999 -24.659500
v 0.809006 164.100006 -75.340500
v 0.809006 164.100006 -24.659500
v 2.746002 162.981995 -75.340500
v 2.746002 162.981995 -24.659500
v 2.746002 165.218002 -75.340500
v 2.746002 165.218002 -24.659500
v 0.809006 178.400009 -75.340500
v 0.809006 178.400009 -24.659500
v 2.746002 177.281998 -75.340500
v 2.746002 177.281998 -24.659500
v 2.746002 179.517990 -75.340500
v 2.746002 179.517990 -24.659500
v 0.809006 192.700012 -75.340500
v 0.809006 192.700012 -24.659500
v 2.746002 191.582001 -75.340500
v 2.746002 191.582001 -24.659500
v 2.746002 193.817993 -75.340500
v 2.746002 193.817993 -24.659500
v 0.809006 206.899994 -75.340500
v 0.809006 206.899994 -24.659500
v 2.746002 205.782013 -75.340500
v 2.746002 205.782013 -24.659500
v 2.746002 208.017990 -75.340500
v 2.746002 208.017990 -24.659500
v 0.809006 221.199982 -75.340500
v 0.809006 221.199982 -24.659500
v 2.746002 220.082001 -75.340500
v 2.746002 220.082001 -24.659500
v 2.746002 222.319000 -75.340500
v 2.746002 222.319000 -24.659500
v 0.809006 235.500000 -75.340500
v 0.809006 235.500000 -24.659500
v 2.746002 234.382004 -75.340500
v 2.746002 234.382004 -24.659500
v 2.746002 236.617996 -75.340500
v 2.746002 236.617996 -24.659500
v 0.809006 249.799988 -75.340500
v 0.809006 249.799988 -24.659500
v 2.746002 248.681992 -75.340500
v 2.746002 248.681992 -24.659500
v 2.746002 250.919006 -75.340500
v 2.746002 250.919006 -24.659500
v 0.809006 264.100006 -75.340500
v 0.809006 264.100006 -24.659500
v 2.746002 262.982025 -75.340500
v 2.746002 262.982025 -24.659500
v 2.746002 265.217987 -75.340500
v 2.746002 265.217987 -24.659500
v 0.809006 278.399994 -75.340500
v 0.809006 278.399994 -24.659500
v 2.746002 277.282013 -75.340500
v 2.746002 277.282013 -24.659500
v 2.746002 279.519012 -75.340500
v 2.746002 279.519012 -24.659500
v 0.809006 292.700012 -75.340500
v 0.809006 292.700012 -24.659500
v 2.746002 291.582001 -75.340500
v 2.746002 291.582001 -24.659500
v 2.746002 293.817993 -75.340500
v 2.746002 293.817993 -24.659500
v -0.781998 100.000000 -76.250000
v 4.981995 100.000000 -76.250000
v 4.981995 100.000000 -72.250000
v -0.781998 100.000000 -72.250000
v -0.781998 100.000000 -23.249998
v 4.981995 100.000000 -23.249998
v 4.981995 100.000000 -27.249998
v -0.781998 100.000000 -27.249998
v -0.781998 200.000000 -76.250000
v 4.981995 200.000000 -76.250000
v 4.981995 200.000000 -72.250000
v -0.781998 200.000000 -72.250000
v -0.781998 200.000000 -23.249998
v 4.981995 200.000000 -23.249998
v 4.981995 200.000000 -27.249998
v -0.781998 200.000000 -27.249998
v -0.781998 300.000000 -76.250000
v 4.981995 300.000000 -76.250000
v 4.981995 300.000000 -72.250000
v -0.781998 300.000000 -72.250000
v -0.781998 300.000000 -23.249998
v 4.981995 300.000000 -23.249998
v 4.981995 300.000000 -27.249998
v -0.781998 300.000000 -27.249998
vt 0.858483 0.042606
vt 0.695963 0.042746
vt 0.695969 0.051029
vt 0.858502 0.050887
vt 0.858469 0.034325
vt 0.695957 0.034463
vt 0.858483 0.042606
vt 0.695963 0.042746
vt 0.695969 0.051029
vt 0.858502 0.050887
vt 0.858469 0.034325
vt 0.695957 0.034463
vt 0.858483 0.042606
vt 0.695963 0.042746
vt 0.695969 0.051029
vt 0.858502 0.050887
vt 0.695957 0.034463
vt 0.858469 0.034325
vt 0.858483 0.042606
vt 0.695963 0.042746
vt 0.695969 0.051029
vt 0.858502 0.050887
vt 0.858469 0.034325
vt 0.695957 0.034463
vt 0.858483 0.042606
vt 0.695963 0.042746
vt 0.695969 0.051029
vt 0.858502 0.050887
vt 0.858469 0.034325
vt 0.695957 0.034463
vt 0.858483 0.042606
vt 0.695963 0.042746
vt 0.695969 0.051029
vt 0.858502 0.050887
vt 0.858469 0.034325
vt 0.695957 0.034463
vt 0.858483 0.042606
vt 0.695963 0.042746
vt 0.695969 0.051029
vt 0.858502 0.050887
vt 0.858469 0.034325
vt 0.695957 0.034463
vt 0.858469 0.034325
vt 0.695957 0.034463
vt 0.695963 0.042746
vt 0.858483 0.042606
vt 0.858502 0.050887
vt 0.695969 0.051029
vt 0.858469 0.034325
vt 0.695957 0.034463
vt 0.695963 0.042746
vt 0.858483 0.042606
vt 0.858502 0.050887
vt 0.695969 0.051029
vt 0.858483 0.042606
vt 0.695963 0.042746
vt 0.695969 0.051029
vt 0.858502 0.050887
vt 0.695957 0.034463
vt 0.858469 0.034325
vt 0.858483 0.042606
vt 0.695963 0.042746
vt 0.695969 0.051029
vt 0.858502 0.050887
vt 0.695957 0.034463
vt 0.858469 0.034325
vt 0.695957 0.034463
vt 0.858469 0.034325
vt 0.858502 0.050887
vt 0.695969 0.051029
vt 0.858483 0.042606
vt 0.695963 0.042746
vt 0.858483 0.042606
vt 0.695963 0.042746
vt 0.695969 0.051029
vt 0.858502 0.050887
vt 0.858469 0.034325
vt 0.695957 0.034463
vt 0.858483 0.042606
vt 0.695963 0.042746
vt 0.695969 0.051029
vt 0.858502 0.050887
vt 0.858469 0.034325
vt 0.695957 0.034463
vt 0.858469 0.034325
vt 0.695957 0.034463
vt 0.695963 0.042746
vt 0.858483 0.042606
vt 0.858502 0.050887
vt 0.695969 0.051029
vt 0.695957 0.034463
vt 0.858469 0.034325
vt 0.858502 0.050887
vt 0.695969 0.051029
vt 0.858483 0.042606
vt 0.695963 0.042746
vt 0.858483 0.042606
vt 0.695963 0.042746
vt 0.695969 0.051029
vt 0.858502 0.050887
vt 0.858469 0.034325
vt 0.695957 0.034463
vt 0.858483 0.042606
vt 0.695963 0.042746
vt 0.695969 0.051029
vt 0.858502 0.050887
vt 0.858469 0.034325
vt 0.695957 0.034463
vt 0.858483 0.042606
vt 0.695963 0.042746
vt 0.695969 0.051029
vt 0.858502 0.050887
vt 0.858469 0.034325
vt 0.695957 0.034463
vt 0.858483 0.042606
vt 0.695963 0.042746
vt 0.695969 0.051029
vt 0.858502 0.050887
vt 0.858469 0.034325
vt 0.695957 0.034463
vt 0.695957 0.034463
vt 0.858469 0.034325
vt 0.858502 0.050887
vt 0.695969 0.051029
vt 0.695963 0.042746
vt 0.858483 0.042606
vt 0.559021 0.363912
vt 0.920133 0.363598
vt 0.559035 0.380325
vt 0.920147 0.380009
vt 0.920147 0.380009
vt 0.920133 0.363598
vt 0.470273 0.084808
vt 0.831386 0.084493
vt 0.470287 0.101220
vt 0.831400 0.100904
vt 0.831400 0.100904
vt 0.831386 0.084493
vt 0.559021 0.363912
vt 0.920133 0.363598
vt 0.920133 0.363598
vt 0.920147 0.380009
vt 0.559035 0.380325
vt 0.920147 0.380009
vt 0.470273 0.084808
vt 0.831386 0.084493
vt 0.831386 0.084493
vt 0.831400 0.100904
vt 0.470287 0.101220
vt 0.831400 0.100904
vt 0.559021 0.363912
vt 0.920133 0.363598
vt 0.559035 0.380325
vt 0.920147 0.380009
vt 0.470273 0.084808
vt 0.831386 0.084493
vt 0.470287 0.101220
vt 0.831400 0.100904
vt 0.559021 0.363912
vt 0.920133 0.363598
vt 0.559035 0.380325
vt 0.920147 0.380009
vt 0.470273 0.084808
vt 0.831386 0.084493
vt 0.470287 0.101220
vt 0.831400 0.100904
vt 0.559021 0.363912
vt 0.559035 0.380325
vt 0.470273 0.084808
vt 0.470287 0.101220
vt 0.559021 0.363912
vt 0.559035 0.380325
vt 0.470273 0.084808
vt 0.470287 0.101220
vn 0.500047 0.865998 0.000000
vn 0.500047 0.865998 0.000000
vn -1.000000 0.000000 0.000000
vn -1.000000 0.000000 0.000000
vn 0.500058 -0.865992 0.000000
vn 0.500058 -0.865992 0.000000
vn 0.500047 0.865998 0.000000
vn 0.500047 0.865998 0.000000
vn 0.500058 -0.865992 0.000000
vn 0.500058 -0.865992 0.000000
vn -1.000000 0.000000 0.000000
vn -1.000000 0.000000 0.000000
vn 0.500057 0.865992 0.000000
vn 0.500057 0.865992 0.000000
vn -1.000000 0.000000 0.000000
vn -1.000000 0.000000 0.000000
vn 0.500058 -0.865992 0.000000
vn 0.500058 -0.865992 0.000000
vn 0.500057 0.865992 0.000000
vn 0.500057 0.865992 0.000000
vn 0.500058 -0.865992 0.000000
vn 0.500058 -0.865992 0.000000
vn -1.000000 0.000000 0.000000
vn -1.000000 0.000000 0.000000
vn 0.500057 0.865992 0.000000
vn 0.500057 0.865992 0.000000
vn -1.000000 0.000000 0.000000
vn -1.000000 0.000000 0.000000
vn 0.500058 -0.865992 0.000000
vn 0.500058 -0.865992 0.000000
vn -1.000000 0.000000 0.000000
vn -1.000000 0.000000 0.000000
vn 0.500058 -0.865992 0.000000
vn 0.500058 -0.865992 0.000000
vn 0.500057 0.865992 0.000000
vn 0.500057 0.865992 0.000000
vn 0.500057 0.865992 0.000000
vn 0.500057 0.865992 0.000000
vn -1.000000 0.000000 0.000000
vn -1.000000 0.000000 0.000000
vn 0.500058 -0.865992 0.000000
vn 0.500058 -0.865992 0.000000
vn 0.500057 0.865992 0.000000
vn 0.500057 0.865992 0.000000
vn 0.500058 -0.865992 0.000000
vn 0.500058 -0.865992 0.000000
vn -1.000000 0.000000 0.000000
vn -1.000000 0.000000 0.000000
vn 0.500057 0.865992 0.000000
vn 0.500057 0.865992 0.000000
vn -1.000000 -0.000000 0.000000
vn -1.000000 -0.000000 0.000000
vn 0.500059 -0.865991 0.000000
vn 0.500059 -0.865991 0.000000
vn 0.500057 0.865992 0.000000
vn 0.500057 0.865992 0.000000
vn 0.500059 -0.865991 0.000000
vn 0.500059 -0.865991 0.000000
vn -1.000000 -0.000000 0.000000
vn -1.000000 -0.000000 0.000000
vn 0.500057 0.865992 0.000000
vn 0.500057 0.865992 0.000000
vn -1.000000 -0.000000 0.000000
vn -1.000000 -0.000000 0.000000
vn 0.500059 -0.865991 0.000000
vn 0.500059 -0.865991 0.000000
vn 0.500057 0.865992 0.000000
vn 0.500057 0.865992 0.000000
vn 0.500059 -0.865991 0.000000
vn 0.500059 -0.865991 0.000000
vn -1.000000 -0.000000 0.000000
vn -1.000000 -0.000000 0.000000
vn 0.500057 0.865992 0.000000
vn 0.500057 0.865992 0.000000
vn -1.000000 0.000000 0.000000
vn -1.000000 0.000000 0.000000
vn 0.500057 -0.865992 0.000000
vn 0.500057 -0.865992 0.000000
vn 0.500057 0.865992 0.000000
vn 0.500057 0.865992 0.000000
vn 0.500057 -0.865992 0.000000
vn 0.500057 -0.865992 0.000000
vn -1.000000 0.000000 0.000000
vn -1.000000 0.000000 0.000000
vn 0.499891 -0.866088 0.000000
vn 0.499891 -0.866088 0.000000
vn 0.499891 0.866088 0.000000
vn 0.499891 0.866088 0.000000
vn 0.499891 -0.866088 0.000000
vn 0.499891 -0.866088 0.000000
vn -1.000000 0.000000 0.000000
vn -1.000000 0.000000 0.000000
vn 0.499891 0.866088 0.000000
vn 0.499891 0.866088 0.000000
vn -1.000000 0.000000 0.000000
vn -1.000000 0.000000 0.000000
vn 0.499891 -0.866088 0.000000
vn 0.499891 -0.866088 0.000000
vn 0.499891 0.866088 0.000000
vn 0.499891 0.866088 0.000000
vn 0.499891 -0.866088 0.000000
vn 0.499891 -0.866088 0.000000
vn -1.000000 0.000000 0.000000
vn -1.000000 0.000000 0.000000
vn 0.499891 0.866088 0.000000
vn 0.499891 0.866088 0.000000
vn -1.000000 0.000000 0.000000
vn -1.000000 0.000000 0.000000
vn 0.499891 0.866088 0.000000
vn 0.499891 0.866088 0.000000
vn -1.000000 -0.000000 0.000000
vn -1.000000 -0.000000 0.000000
vn 0.499887 -0.866091 0.000000
vn 0.499887 -0.866091 0.000000
vn -1.000000 -0.000000 0.000000
vn -1.000000 -0.000000 0.000000
vn 0.499887 -0.866091 0.000000
vn 0.499887 -0.866091 0.000000
vn 0.499891 0.866088 0.000000
vn 0.499891 0.866088 0.000000
vn 0.499891 0.866088 0.000000
vn 0.499891 0.866088 0.000000
vn -1.000000 -0.000000 0.000000
vn -1.000000 -0.000000 0.000000
vn 0.499887 -0.866091 0.000000
vn 0.499887 -0.866091 0.000000
vn -1.000000 -0.000000 0.000000
vn -1.000000 -0.000000 0.000000
vn 0.499887 -0.866091 0.000000
vn 0.499887 -0.866091 0.000000
vn 0.499891 0.866088 0.000000
vn 0.499891 0.866088 0.000000
vn 0.499887 -0.866091 0.000000
vn 0.499887 -0.866091 0.000000
vn -1.000000 -0.000000 0.000000
vn -1.000000 -0.000000 0.000000
vn 0.499891 0.866088 0.000000
vn 0.499891 0.866088 0.000000
vn -1.000000 -0.000000 0.000000
vn -1.000000 -0.000000 0.000000
vn 0.499887 -0.866091 0.000000
vn 0.499887 -0.866091 0.000000
vn 0.499891 0.866088 0.000000
vn 0.499891 0.866088 0.000000
vn 0.499891 0.866088 0.000000
vn 0.499891 0.866088 0.000000
vn -1.000000 -0.000000 0.000000
vn -1.000000 -0.000000 0.000000
vn 0.499887 -0.866091 0.000000
vn 0.499887 -0.866091 0.000000
vn 0.499891 0.866088 0.000000
vn 0.499891 0.866088 0.000000
vn 0.499887 -0.866091 0.000000
vn 0.499887 -0.866091 0.000000
vn -1.000000 -0.000000 0.000000
vn -1.000000 -0.000000 0.000000
vn 0.499891 0.866088 0.000000
vn 0.499891 0.866088 0.000000
vn -1.000000 -0.000000 0.000000
vn -1.000000 -0.000000 0.000000
vn 0.499887 -0.866091 0.000000
vn 0.499887 -0.866091 0.000000
vn 0.499891 0.866088 0.000000
vn 0.499891 0.866088 0.000000
vn 0.499887 -0.866091 0.000000
vn 0.499887 -0.866091 0.000000
vn -1.000000 -0.000000 0.000000
vn -1.000000 -0.000000 0.000000
vn 0.499887 -0.866091 0.000000
vn 0.499887 -0.866091 0.000000
vn 0.499887 0.866091 0.000000
vn 0.499887 0.866091 0.000000
vn 0.499887 -0.866091 0.000000
vn 0.499887 -0.866091 0.000000
vn -1.000000 0.000000 0.000000
vn -1.000000 0.000000 0.000000
vn 0.499887 0.866091 0.000000
vn 0.499887 0.866091 0.000000
vn -1.000000 0.000000 0.000000
vn -1.000000 0.000000 0.000000
vn 0.500231 -0.865892 0.000000
vn 0.500231 -0.865892 0.000000
vn -1.000000 0.000000 0.000000
vn -1.000000 0.000000 0.000000
vn 0.499887 0.866091 0.000000
vn 0.499887 0.866091 0.000000
vn -1.000000 0.000000 0.000000
vn -1.000000 0.000000 0.000000
vn 0.500231 -0.865892 0.000000
vn 0.500231 -0.865892 0.000000
vn 0.499887 0.866091 0.000000
vn 0.499887 0.866091 0.000000
vn 0.499887 0.866091 0.000000
vn 0.499887 0.866091 0.000000
vn -1.000000 0.000000 0.000000
vn -1.000000 0.000000 0.000000
vn 0.499887 -0.866091 0.000000
vn 0.499887 -0.866091 0.000000
vn 0.499887 0.866091 0.000000
vn 0.499887 0.866091 0.000000
vn 0.499887 -0.866091 0.000000
vn 0.499887 -0.866091 0.000000
vn -1.000000 0.000000 0.000000
vn -1.000000 0.000000 0.000000
vn 0.499887 0.866091 0.000000
vn 0.499887 0.866091 0.000000
vn -1.000000 0.000000 0.000000
vn -1.000000 0.000000 0.000000
vn 0.500231 -0.865892 0.000000
vn 0.500231 -0.865892 0.000000
vn 0.499887 0.866091 0.000000
vn 0.499887 0.866091 0.000000
vn 0.500231 -0.865892 0.000000
vn 0.500231 -0.865892 0.000000
vn -1.000000 0.000000 0.000000
vn -1.000000 0.000000 0.000000
vn 0.499887 0.866091 0.000000
vn 0.499887 0.866091 0.000000
vn -1.000000 0.000000 0.000000
vn -1.000000 0.000000 0.000000
vn 0.499887 -0.866091 0.000000
vn 0.499887 -0.866091 0.000000
vn 0.499887 0.866091 0.000000
vn 0.499887 0.866091 0.000000
vn 0.499887 -0.866091 0.000000
vn 0.499887 -0.866091 0.000000
vn -1.000000 0.000000 0.000000
vn -1.000000 0.000000 0.000000
vn 0.499887 0.866091 0.000000
vn 0.499887 0.866091 0.000000
vn -1.000000 0.000000 0.000000
vn -1.000000 0.000000 0.000000
vn 0.500231 -0.865892 0.000000
vn 0.500231 -0.865892 0.000000
vn 0.499887 0.866091 0.000000
vn 0.499887 0.866091 0.000000
vn 0.500231 -0.865892 0.000000
vn 0.500231 -0.865892 0.000000
vn -1.000000 0.000000 0.000000
vn -1.000000 0.000000 0.000000
vn 0.499887 -0.866091 0.000000
vn 0.499887 -0.866091 0.000000
vn -1.000000 -0.000000 0.000000
vn -1.000000 -0.000000 0.000000
vn 0.499887 -0.866091 0.000000
vn 0.499887 -0.866091 0.000000
vn 0.499895 0.866086 0.000000
vn 0.499895 0.866086 0.000000
vn 0.499895 0.866086 0.000000
vn 0.499895 0.866086 0.000000
vn -1.000000 -0.000000 0.000000
vn -1.000000 -0.000000 0.000000
vn 0.000000 0.000000 1.000000
vn 0.000000 0.000000 1.000000
vn 0.000000 0.000000 1.000000
vn 0.000000 0.000000 1.000000
vn 0.000000 0.000000 -1.000000
vn 0.000000 0.000000 -1.000000
vn 0.000000 0.000000 -1.000000
vn 0.000000 0.000000 -1.000000
vn 0.000000 0.000000 -1.000000
vn 0.000000 0.000000 -1.000000
vn 0.000000 0.000000 -1.000000
vn 0.000000 0.000000 -1.000000
vn 0.000000 0.000000 1.000000
vn 0.000000 0.000000 1.000000
vn 0.000000 0.000000 1.000000
vn 0.000000 0.000000 1.000000
vn 0.000000 0.000000 1.000000
vn 0.000000 0.000000 1.000000
vn 0.000000 0.000000 1.000000
vn 0.000000 0.000000 1.000000
vn 0.000000 0.000000 -1.000000
vn 0.000000 0.000000 -1.000000
vn 0.000000 0.000000 -1.000000
vn 0.000000 0.000000 -1.000000
vn 0.000000 0.000000 -1.000000
vn 0.000000 0.000000 -1.000000
vn 0.000000 0.000000 -1.000000
vn 0.000000 0.000000 -1.000000
vn 0.000000 0.000000 1.000000
vn 0.000000 0.000000 1.000000
vn 0.000000 0.000000 1.000000
vn 0.000000 0.000000 1.000000
vn 0.000000 0.000000 1.000000
vn 0.000000 0.000000 1.000000
vn 0.000000 0.000000 1.000000
vn 0.000000 0.000000 1.000000
vn 0.000000 0.000000 -1.000000
vn 0.000000 0.000000 -1.000000
vn 0.000000 0.000000 -1.000000
vn 0.000000 0.000000 -1.000000
vn 0.000000 0.000000 -1.000000
vn 0.000000 0.000000 -1.000000
vn 0.000000 0.000000 -1.000000
vn 0.000000 0.000000 -1.000000
vn 0.000000 0.000000 1.000000
vn 0.000000 0.000000 1.000000
vn 0.000000 0.000000 1.000000
vn 0.000000 0.000000 1.000000
g FireEscape_Ladder_LOD2 FireEscape_Ladder
usemtl lambert8SG
f 14/1/1 13/2/2 9/3/3 10/4/4
f 12/5/5 11/6/6 13/2/7 14/1/8
f 11/6/9 12/5/10 10/4/11 9/3/12
f 20/7/13 19/8/14 15/9/15 16/10/16
f 18/11/17 17/12/18 19/8/19 20/7/20
f 17/12/21 18/11/22 16/10/23 15/9/24
f 26/13/25 25/14/26 21/15/27 22/16/28
f 23/17/29 24/18/30 22/16/31 21/15/32
f 24/18/33 23/17/34 25/14/35 26/13/36
f 32/19/37 31/20/38 27/21/39 28/22/40
f 30/23/41 29/24/42 31/20/43 32/19/44
f 29/24/45 30/23/46 28/22/47 27/21/48
f 38/25/49 37/26/50 33/27/51 34/28/52
f 36/29/53 35/30/54 37/26/55 38/25/56
f 35/30/57 36/29/58 34/28/59 33/27/60
f 44/31/61 43/32/62 39/33/63 40/34/64
f 42/35/65 41/36/66 43/32/67 44/31/68
f 41/36/69 42/35/70 40/34/71 39/33/72
f 50/37/73 49/38/74 45/39/75 46/40/76
f 48/41/77 47/42/78 49/38/79 50/37/80
f 47/42/81 48/41/82 46/40/83 45/39/84
f 54/43/85 53/44/86 55/45/87 56/46/88
f 53/44/89 54/43/90 52/47/91 51/48/92
f 56/46/93 55/45/94 51/48/95 52/47/96
f 60/49/97 59/50/98 61/51/99 62/52/100
f 59/50/101 60/49/102 58/53/103 57/54/104
f 62/52/105 61/51/106 57/54/107 58/53/108
f 68/55/109 67/56/110 63/57/111 64/58/112
f 65/59/113 66/60/114 64/58/115 63/57/116
f 66/60/117 65/59/118 67/56/119 68/55/120
f 74/61/121 73/62/122 69/63/123 70/64/124
f 71/65/125 72/66/126 70/64/127 69/63/128
f 72/66/129 71/65/130 73/62/131 74/61/132
f 77/67/133 78/68/134 76/69/135 75/70/136
f 80/71/137 79/72/138 75/70/139 76/69/140
f 78/68/141 77/67/142 79/72/143 80/71/144
f 86/73/145 85/74/146 81/75/147 82/76/148
f 84/77/149 83/78/150 85/74/151 86/73/152
f 83/78/153 84/77/154 82/76/155 81/75/156
f 92/79/157 91/80/158 87/81/159 88/82/160
f 90/83/161 89/84/162 91/80/163 92/79/164
f 89/84/165 90/83/166 88/82/167 87/81/168
f 96/85/169 95/86/170 97/87/171 98/88/172
f 95/86/173 96/85/174 94/89/175 93/90/176
f 98/88/177 97/87/178 93/90/179 94/89/180
f 101/91/181 102/92/182 100/93/183 99/94/184
f 104/95/185 103/96/186 99/94/187 100/93/188
f 102/92/189 101/91/190 103/96/191 104/95/192
f 110/97/193 109/98/194 105/99/195 106/100/196
f 108/101/197 107/102/198 109/98/199 110/97/200
f 107/102/201 108/101/202 106/100/203 105/99/204
f 116/103/205 115/104/206 111/105/207 112/106/208
f 114/107/209 113/108/210 115/104/211 116/103/212
f 113/108/213 114/107/214 112/106/215 111/105/216
f 122/109/217 121/110/218 117/111/219 118/112/220
f 120/113/221 119/114/222 121/110/223 122/109/224
f 119/114/225 120/113/226 118/112/227 117/111/228
f 128/115/229 127/116/230 123/117/231 124/118/232
f 126/119/233 125/120/234 127/116/235 128/115/236
f 125/120/237 126/119/238 124/118/239 123/117/240
f 131/121/241 132/122/242 130/123/243 129/124/244
f 132/122/245 131/121/246 133/125/247 134/126/248
f 134/126/249 133/125/250 129/124/251 130/123/252
f 137/127/253 138/129/254 4/131/255 3/132/256
f 135/133/257 136/135/258 2/137/259 1/138/260
f 141/139/261 7/141/262 8/142/263 142/143/264
f 139/145/265 5/147/266 6/148/267 140/149/268
f 145/151/269 146/153/270 138/130/271 137/128/272
f 143/155/273 144/157/274 136/136/275 135/134/276
f 149/159/277 141/140/278 142/144/279 150/161/280
f 147/163/281 139/146/282 140/150/283 148/165/284
f 153/167/285 154/168/286 146/154/287 145/152/288
f 151/169/289 152/170/290 144/158/291 143/156/292
f 157/171/293 149/160/294 150/162/295 158/172/296
f 155/173/297 147/164/298 148/166/299 156/174/300
