# This file uses meters as units for non-parametric coordinates.

mtllib Pipe_2m_LOD0.mtl
g default
v 0.000000 196.580795 6.838379
v -4.835464 196.580795 4.835449
v -6.838377 196.580795 0.000000
v -4.835463 196.580795 -4.835480
v 0.000000 196.580795 -6.838379
v 4.835462 196.580795 -4.835480
v 6.838376 196.580795 0.000000
v 4.835462 196.580795 4.835449
v 0.000000 3.419189 6.838379
v -4.835464 3.419189 4.835449
v -6.838377 3.419189 0.000000
v -4.835463 3.419189 -4.835480
v 0.000000 3.419189 -6.838379
v 4.835462 3.419189 -4.835480
v 6.838376 3.419189 0.000000
v 4.835462 3.419189 4.835449
v -0.000004 3.419189 -6.838379
v -4.835468 3.419189 -4.835480
v -6.838379 3.419189 0.000000
v -4.835468 3.419189 4.835449
v -0.000004 3.419189 6.838379
v 4.835461 3.419189 4.835449
v 6.838375 3.419189 0.000000
v 4.835461 3.419189 -4.835480
v -0.000004 3.419189 -7.593719
v -5.369579 3.419189 -5.369568
v -7.593727 3.419189 0.000000
v -5.369579 3.419189 5.369568
v -0.000004 3.419189 7.593719
v 5.369572 3.419189 5.369568
v 7.593723 3.419189 0.000000
v 5.369572 3.419189 -5.369568
v -5.369579 0.000000 5.369568
v -0.000004 0.000000 7.593719
v 5.369572 0.000000 5.369568
v 7.593723 0.000000 0.000000
v 5.369572 0.000000 -5.369568
v -0.000004 0.000000 -7.593719
v -5.369579 0.000000 -5.369568
v -7.593727 0.000000 0.000000
v -4.835468 0.000000 4.835449
v -0.000004 0.000000 6.838379
v 4.835461 0.000000 4.835449
v 6.838375 0.000000 0.000000
v 4.835461 0.000000 -4.835449
v -0.000004 0.000000 -6.838379
v -4.835468 0.000000 -4.835449
v -6.838379 0.000000 0.000000
v -0.000004 200.000000 -6.838379
v -4.835468 200.000000 -4.835480
v -6.838379 200.000000 0.000000
v -4.835468 200.000000 4.835449
v -0.000004 200.000000 6.838379
v 4.835461 200.000000 4.835449
v 6.838375 200.000000 0.000000
v 4.835461 200.000000 -4.835480
v -0.000004 200.000000 -7.593719
v -5.369579 200.000000 -5.369568
v -7.593727 200.000000 0.000000
v -5.369579 200.000000 5.369568
v -0.000004 200.000000 7.593719
v 5.369572 200.000000 5.369568
v 7.593723 200.000000 0.000000
v 5.369572 200.000000 -5.369568
v -5.369579 196.580811 5.369568
v -0.000004 196.580811 7.593719
v 5.369572 196.580811 5.369568
v 7.593723 196.580811 0.000000
v 5.369572 196.580811 -5.369568
v -0.000004 196.580811 -7.593719
v -5.369579 196.580811 -5.369568
v -7.593727 196.580811 0.000000
v -4.835468 196.580811 4.835449
v -0.000004 196.580811 6.838379
v 4.835461 196.580811 4.835449
v 6.838375 196.580811 0.000000
v 4.835461 196.580811 -4.835449
v -0.000004 196.580811 -6.838379
v -4.835468 196.580811 -4.835449
v -6.838379 196.580811 0.000000
v -5.369579 2.865315 5.369568
v -0.000004 2.865315 7.593719
v 5.369572 2.865315 5.369568
v 7.593723 2.865315 0.000000
v 5.369572 2.865315 -5.369568
v -0.000004 2.865315 -7.593719
v -5.369579 2.865315 -5.369568
v -7.593727 2.865315 0.000000
v -5.369579 0.517365 5.369568
v -0.000004 0.517365 7.593719
v 5.369572 0.517365 5.369568
v 7.593723 0.517365 0.000000
v 5.369572 0.517365 -5.369568
v -0.000004 0.517365 -7.593719
v -5.369579 0.517365 -5.369568
v -7.593727 0.517365 0.000000
v -7.593728 199.526947 0.000000
v -5.369579 199.526947 5.369568
v -0.000004 199.526947 7.593750
v 5.369572 199.526947 5.369568
v 7.593723 199.526947 0.000000
v 5.369572 199.526947 -5.369568
v -0.000004 199.526947 -7.593719
v -5.369579 199.526947 -5.369568
v -7.593727 196.994659 0.000000
v -5.369579 196.994659 5.369568
v -0.000004 196.994659 7.593750
v 5.369572 196.994659 5.369568
v 7.593723 196.994659 0.000000
v 5.369572 196.994659 -5.369568
v -0.000004 196.994659 -7.593719
v -5.369579 196.994659 -5.369568
vt 0.370185 1.815527
vt 0.322400 1.815526
vt 0.322400 0.031783
vt 0.370185 0.031783
vt 0.274615 1.815526
vt 0.274615 0.031783
vt 0.226830 1.815526
vt 0.226831 0.031783
vt 0.179046 1.815526
vt 0.179046 0.031783
vt 0.561324 1.815527
vt 0.513539 1.815526
vt 0.513539 0.031783
vt 0.561323 0.031783
vt 0.465754 1.815526
vt 0.465754 0.031783
vt 0.417969 1.815526
vt 0.417969 0.031783
vt 0.832931 0.222814
vt 0.852682 0.175133
vt 0.860130 0.175133
vt 0.838198 0.228081
vt 0.785249 0.242565
vt 0.785249 0.250013
vt 0.737568 0.222814
vt 0.732301 0.228081
vt 0.717817 0.175133
vt 0.710369 0.175133
vt 0.737568 0.127451
vt 0.732301 0.122184
vt 0.785249 0.107700
vt 0.785249 0.100252
vt 0.832931 0.127451
vt 0.838198 0.122184
vt 0.275132 0.199427
vt 0.322911 0.199420
vt 0.322914 0.242447
vt 0.275134 0.242453
vt 0.227354 0.199429
vt 0.227354 0.242456
vt 0.179575 0.199427
vt 0.179574 0.242453
vt 0.514032 0.199420
vt 0.561811 0.199427
vt 0.561809 0.242453
vt 0.514029 0.242447
vt 0.466252 0.199413
vt 0.466250 0.242440
vt 0.418472 0.199410
vt 0.418472 0.242437
vt 0.370691 0.199413
vt 0.370693 0.242440
vt 0.860130 0.175133
vt 0.838198 0.228081
vt 0.832931 0.222814
vt 0.852682 0.175133
vt 0.838198 0.122184
vt 0.832931 0.127451
vt 0.785249 0.100252
vt 0.785250 0.107700
vt 0.732301 0.122184
vt 0.737568 0.127451
vt 0.710369 0.175133
vt 0.717817 0.175133
vt 0.732301 0.228081
vt 0.737568 0.222814
vt 0.785249 0.250013
vt 0.785250 0.242565
vt 0.832931 0.222814
vt 0.852682 0.175133
vt 0.860130 0.175133
vt 0.838198 0.228081
vt 0.785249 0.242565
vt 0.785249 0.250013
vt 0.737568 0.222814
vt 0.732301 0.228081
vt 0.717817 0.175133
vt 0.710369 0.175133
vt 0.737568 0.127451
vt 0.732301 0.122184
vt 0.785249 0.107700
vt 0.785249 0.100252
vt 0.832931 0.127451
vt 0.838198 0.122184
vt 0.275132 0.199427
vt 0.322911 0.199420
vt 0.322914 0.242447
vt 0.275134 0.242453
vt 0.227354 0.199429
vt 0.227354 0.242456
vt 0.179575 0.199427
vt 0.179574 0.242453
vt 0.514032 0.199420
vt 0.561811 0.199427
vt 0.561809 0.242453
vt 0.514029 0.242447
vt 0.466252 0.199413
vt 0.466250 0.242440
vt 0.418472 0.199410
vt 0.418472 0.242437
vt 0.370691 0.199413
vt 0.370693 0.242440
vt 0.860130 0.175133
vt 0.838198 0.228081
vt 0.832931 0.222814
vt 0.852682 0.175133
vt 0.838198 0.122184
vt 0.832931 0.127451
vt 0.785249 0.100252
vt 0.785250 0.107700
vt 0.732301 0.122184
vt 0.737568 0.127451
vt 0.710369 0.175133
vt 0.717817 0.175133
vt 0.732301 0.228081
vt 0.737568 0.222814
vt 0.785249 0.250013
vt 0.785250 0.242565
vt 0.561811 0.206396
vt 0.179575 0.206396
vt 0.514032 0.206390
vt 0.466252 0.206383
vt 0.418472 0.206380
vt 0.370692 0.206383
vt 0.322912 0.206390
vt 0.275133 0.206397
vt 0.227354 0.206399
vt 0.561809 0.235943
vt 0.179574 0.235943
vt 0.514030 0.235936
vt 0.466250 0.235929
vt 0.418472 0.235927
vt 0.370693 0.235929
vt 0.322914 0.235936
vt 0.275134 0.235943
vt 0.227354 0.235946
vt 0.227354 0.205382
vt 0.561811 0.205380
vt 0.179575 0.205380
vt 0.514032 0.205373
vt 0.466252 0.205366
vt 0.418472 0.205363
vt 0.370692 0.205366
vt 0.322912 0.205373
vt 0.275133 0.205380
vt 0.227354 0.237248
vt 0.561809 0.237245
vt 0.179574 0.237245
vt 0.514030 0.237239
vt 0.466250 0.237232
vt 0.418472 0.237229
vt 0.370693 0.237232
vt 0.322914 0.237239
vt 0.275134 0.237245
vn 0.000000 0.000000 1.000000
vn -0.707107 0.000000 0.707107
vn -0.707107 0.000000 0.707107
vn 0.000000 0.000000 1.000000
vn -1.000000 0.000000 -0.000000
vn -1.000000 0.000000 -0.000000
vn -0.707107 0.000000 -0.707107
vn -0.707107 0.000000 -0.707107
vn 0.000000 0.000000 -1.000000
vn 0.000000 0.000000 -1.000000
vn 0.707107 0.000000 -0.707107
vn 0.707107 0.000000 -0.707107
vn 1.000000 0.000000 0.000000
vn 1.000000 0.000000 0.000000
vn 0.707107 0.000000 0.707107
vn 0.707107 0.000000 0.707107
vn 0.000000 1.000000 0.000000
vn 0.000000 1.000000 0.000000
vn 0.000000 0.696969 -0.717101
vn -0.507065 0.696972 -0.507065
vn 0.000000 1.000000 -0.000000
vn -0.717095 0.696976 -0.000000
vn 0.000000 1.000000 -0.000000
vn -0.507062 0.696977 0.507062
vn 0.000000 1.000000 -0.000000
vn 0.000000 0.696977 0.717094
vn 0.000000 1.000000 -0.000000
vn 0.507062 0.696977 0.507062
vn 0.000000 1.000000 -0.000000
vn 0.717095 0.696976 -0.000000
vn 0.000000 1.000000 -0.000000
vn 0.507065 0.696972 -0.507065
vn 0.000000 0.000000 -1.000000
vn -0.707107 0.000000 -0.707107
vn -1.000000 0.000000 0.000000
vn -0.707107 0.000000 0.707107
vn 0.000000 0.000000 1.000000
vn 0.707106 0.000000 0.707107
vn 1.000000 0.000000 0.000000
vn 0.707106 0.000000 -0.707107
vn 0.000000 -0.721011 0.692924
vn -0.489971 -0.721011 0.489971
vn 0.000000 -1.000000 0.000000
vn 0.000000 -1.000000 0.000000
vn 0.489971 -0.721011 0.489971
vn 0.000000 -1.000000 0.000000
vn 0.692924 -0.721011 0.000000
vn 0.000000 -1.000000 0.000000
vn 0.489971 -0.721011 -0.489971
vn 0.000000 -1.000000 0.000000
vn 0.000000 -0.721011 -0.692924
vn 0.000000 -1.000000 0.000000
vn -0.489971 -0.721011 -0.489971
vn 0.000000 -1.000000 0.000000
vn -0.692924 -0.721011 0.000000
vn 0.000000 -1.000000 0.000000
vn 0.000000 1.000000 -0.000008
vn 0.000000 1.000000 -0.000008
vn 0.000000 0.751183 -0.660094
vn -0.466758 0.751183 -0.466757
vn 0.000000 1.000000 -0.000004
vn -0.660091 0.751185 -0.000004
vn 0.000000 1.000000 -0.000004
vn -0.466754 0.751194 0.466741
vn 0.000000 1.000000 0.000008
vn 0.000000 0.751194 0.660082
vn 0.000000 1.000000 0.000008
vn 0.466751 0.751190 0.466752
vn 0.000000 1.000000 0.000000
vn 0.660092 0.751185 0.000000
vn 0.000000 1.000000 0.000000
vn 0.466759 0.751183 -0.466754
vn 0.000000 0.000000 -1.000000
vn -0.707108 -0.000000 -0.707106
vn -1.000000 -0.000000 -0.000000
vn -0.707109 0.000003 0.707105
vn 0.000000 0.000005 1.000000
vn 0.707109 0.000003 0.707105
vn 1.000000 0.000000 0.000000
vn 0.707108 0.000000 -0.707106
vn 0.000000 -0.792807 0.609474
vn -0.430960 -0.792809 0.430961
vn 0.000000 -1.000000 0.000005
vn 0.000000 -1.000000 0.000015
vn 0.430959 -0.792809 0.430962
vn 0.000000 -1.000000 0.000007
vn 0.609474 -0.792806 -0.000001
vn 0.000000 -1.000000 -0.000001
vn 0.430962 -0.792804 -0.430968
vn 0.000000 -1.000000 -0.000009
vn 0.000000 -0.792803 -0.609478
vn 0.000000 -1.000000 -0.000015
vn -0.430963 -0.792805 -0.430966
vn 0.000000 -1.000000 -0.000007
vn -0.609474 -0.792806 -0.000002
vn 0.000000 -1.000000 -0.000003
vn -0.707107 0.000000 0.707107
vn 0.000000 0.000000 1.000000
vn 0.707106 0.000000 0.707107
vn 1.000000 0.000000 0.000000
vn 0.707106 0.000000 -0.707107
vn 0.000000 0.000000 -1.000000
vn -0.707107 0.000000 -0.707107
vn -1.000000 0.000000 0.000000
vn -1.000000 -0.000000 0.000000
vn -0.707108 -0.000003 0.707105
vn 0.000000 -0.000005 1.000000
vn 0.707109 -0.000003 0.707105
vn 1.000000 0.000000 0.000000
vn 0.707107 0.000000 -0.707106
vn 0.000000 0.000000 -1.000000
vn -0.707107 -0.000000 -0.707107
g Pipe_2m_LOD0 Pipe_2m
usemtl lambert17SG
f 1/1/1 2/2/2 10/3/3 9/4/4
f 2/2/2 3/5/5 11/6/6 10/3/3
f 3/5/5 4/7/7 12/8/8 11/6/6
f 4/7/7 5/9/9 13/10/10 12/8/8
f 5/11/9 6/12/11 14/13/12 13/14/10
f 6/12/11 7/15/13 15/16/14 14/13/12
f 7/15/13 8/17/15 16/18/16 15/16/14
f 8/17/15 1/1/1 9/4/4 16/18/16
f 18/19/17 17/20/18 25/21/19 26/22/20
f 19/23/21 18/19/17 26/22/20 27/24/22
f 20/25/23 19/23/21 27/24/22 28/26/24
f 21/27/25 20/25/23 28/26/24 29/28/26
f 22/29/27 21/27/25 29/28/26 30/30/28
f 23/31/29 22/29/27 30/30/28 31/32/30
f 24/33/31 23/31/29 31/32/30 32/34/32
f 17/20/18 24/33/31 32/34/32 25/21/19
f 26/35/20 25/36/19 86/125/33 87/126/34
f 27/39/22 26/35/20 87/126/34 88/127/35
f 28/41/24 27/39/22 88/127/35 81/120/36
f 29/43/26 28/44/24 81/119/36 82/121/37
f 30/47/28 29/43/26 82/121/37 83/122/38
f 31/49/30 30/47/28 83/122/38 84/123/39
f 32/51/32 31/49/30 84/123/39 85/124/40
f 25/36/19 32/51/32 85/124/40 86/125/33
f 34/53/41 33/54/42 41/55/43 42/56/44
f 35/57/45 34/53/41 42/56/44 43/58/46
f 36/59/47 35/57/45 43/58/46 44/60/48
f 37/61/49 36/59/47 44/60/48 45/62/50
f 38/63/51 37/61/49 45/62/50 46/64/52
f 39/65/53 38/63/51 46/64/52 47/66/54
f 40/67/55 39/65/53 47/66/54 48/68/56
f 33/54/42 40/67/55 48/68/56 41/55/43
f 50/69/57 49/70/58 57/71/59 58/72/60
f 51/73/61 50/69/57 58/72/60 59/74/62
f 52/75/63 51/73/61 59/74/62 60/76/64
f 53/77/65 52/75/63 60/76/64 61/78/66
f 54/79/67 53/77/65 61/78/66 62/80/68
f 55/81/69 54/79/67 62/80/68 63/82/70
f 56/83/71 55/81/69 63/82/70 64/84/72
f 49/70/58 56/83/71 64/84/72 57/71/59
f 58/85/60 57/86/59 103/144/73 104/145/74
f 59/89/62 58/85/60 104/145/74 97/137/75
f 60/91/64 59/89/62 97/137/75 98/139/76
f 61/93/66 60/94/64 98/138/76 99/140/77
f 62/97/68 61/93/66 99/140/77 100/141/78
f 63/99/70 62/97/68 100/141/78 101/142/79
f 64/101/72 63/99/70 101/142/79 102/143/80
f 57/86/59 64/101/72 102/143/80 103/144/73
f 66/103/81 65/104/82 73/105/83 74/106/84
f 67/107/85 66/103/81 74/106/84 75/108/86
f 68/109/87 67/107/85 75/108/86 76/110/88
f 69/111/89 68/109/87 76/110/88 77/112/90
f 70/113/91 69/111/89 77/112/90 78/114/92
f 71/115/93 70/113/91 78/114/92 79/116/94
f 72/117/95 71/115/93 79/116/94 80/118/96
f 65/104/82 72/117/95 80/118/96 73/105/83
f 82/121/37 81/119/36 89/128/97 90/130/98
f 83/122/38 82/121/37 90/130/98 91/131/99
f 84/123/39 83/122/38 91/131/99 92/132/100
f 85/124/40 84/123/39 92/132/100 93/133/101
f 86/125/33 85/124/40 93/133/101 94/134/102
f 87/126/34 86/125/33 94/134/102 95/135/103
f 88/127/35 87/126/34 95/135/103 96/136/104
f 81/120/36 88/127/35 96/136/104 89/129/97
f 90/130/98 89/128/97 33/45/42 34/46/41
f 91/131/99 90/130/98 34/46/41 35/48/45
f 92/132/100 91/131/99 35/48/45 36/50/47
f 93/133/101 92/132/100 36/50/47 37/52/49
f 94/134/102 93/133/101 37/52/49 38/37/51
f 95/135/103 94/134/102 38/37/51 39/38/53
f 96/136/104 95/135/103 39/38/53 40/40/55
f 89/129/97 96/136/104 40/40/55 33/42/42
f 98/139/76 97/137/75 105/146/105 106/148/106
f 99/140/77 98/138/76 106/147/106 107/149/107
f 100/141/78 99/140/77 107/149/107 108/150/108
f 101/142/79 100/141/78 108/150/108 109/151/109
f 102/143/80 101/142/79 109/151/109 110/152/110
f 103/144/73 102/143/80 110/152/110 111/153/111
f 104/145/74 103/144/73 111/153/111 112/154/112
f 97/137/75 104/145/74 112/154/112 105/146/105
f 106/148/106 105/146/105 72/90/95 65/92/82
f 107/149/107 106/147/106 65/95/82 66/96/81
f 108/150/108 107/149/107 66/96/81 67/98/85
f 109/151/109 108/150/108 67/98/85 68/100/87
f 110/152/110 109/151/109 68/100/87 69/102/89
f 111/153/111 110/152/110 69/102/89 70/87/91
f 112/154/112 111/153/111 70/87/91 71/88/93
f 105/146/105 112/154/112 71/88/93 72/90/95
