# This file uses meters as units for non-parametric coordinates.

mtllib Pipe_1m_LOD0.mtl
g default
v -0.000000 96.580795 6.838379
v -4.835464 96.580795 4.835510
v -6.838377 96.580795 0.000000
v -4.835463 96.580795 -4.835449
v -0.000000 96.580795 -6.838379
v 4.835462 96.580795 -4.835449
v 6.838376 96.580795 0.000000
v 4.835462 96.580795 4.835510
v -0.000000 3.419188 6.838379
v -4.835464 3.419188 4.835510
v -6.838377 3.419188 0.000000
v -4.835463 3.419188 -4.835449
v -0.000000 3.419188 -6.838379
v 4.835462 3.419188 -4.835449
v 6.838376 3.419188 0.000000
v 4.835462 3.419188 4.835510
v -0.000004 3.419188 -6.838379
v -4.835468 3.419188 -4.835449
v -6.838379 3.419188 0.000000
v -4.835468 3.419188 4.835449
v -0.000004 3.419188 6.838379
v 4.835461 3.419188 4.835449
v 6.838375 3.419188 0.000000
v 4.835461 3.419188 -4.835449
v -0.000004 3.419188 -7.593750
v -5.369579 3.419188 -5.369568
v -7.593727 3.419188 0.000000
v -5.369579 3.419188 5.369568
v -0.000004 3.419188 7.593689
v 5.369572 3.419188 5.369568
v 7.593723 3.419188 0.000000
v 5.369572 3.419188 -5.369568
v -5.369579 -0.000001 5.369568
v -0.000004 -0.000001 7.593689
v 5.369572 -0.000001 5.369568
v 7.593723 -0.000001 0.000000
v 5.369572 -0.000001 -5.369568
v -0.000004 -0.000001 -7.593750
v -5.369579 -0.000001 -5.369568
v -7.593727 -0.000001 0.000000
v -4.835468 -0.000001 4.835449
v -0.000004 -0.000001 6.838379
v 4.835461 -0.000001 4.835449
v 6.838375 -0.000001 0.000000
v 4.835461 -0.000001 -4.835449
v -0.000004 -0.000001 -6.838379
v -4.835468 -0.000001 -4.835449
v -6.838379 -0.000001 0.000000
v -0.000004 99.999992 -6.838379
v -4.835468 99.999992 -4.835449
v -6.838379 99.999992 0.000000
v -4.835468 99.999992 4.835449
v -0.000004 99.999992 6.838379
v 4.835461 99.999992 4.835449
v 6.838375 99.999992 0.000000
v 4.835461 99.999992 -4.835449
v -0.000004 99.999992 -7.593750
v -5.369579 99.999992 -5.369568
v -7.593727 99.999992 0.000000
v -5.369579 99.999992 5.369568
v -0.000004 99.999992 7.593689
v 5.369572 99.999992 5.369568
v 7.593723 99.999992 0.000000
v 5.369572 99.999992 -5.369568
v -5.369579 96.580803 5.369568
v -0.000004 96.580803 7.593689
v 5.369572 96.580803 5.369568
v 7.593723 96.580803 0.000000
v 5.369572 96.580803 -5.369568
v -0.000004 96.580803 -7.593750
v -5.369579 96.580803 -5.369568
v -7.593727 96.580803 0.000000
v -4.835468 96.580803 4.835449
v -0.000004 96.580803 6.838379
v 4.835461 96.580803 4.835449
v 6.838375 96.580803 0.000000
v 4.835461 96.580803 -4.835449
v -0.000004 96.580803 -6.838379
v -4.835468 96.580803 -4.835449
v -6.838379 96.580803 0.000000
v -7.593727 0.445686 0.000000
v -5.369579 0.445686 5.369507
v -0.000004 0.445686 7.593689
v 5.369572 0.445686 5.369507
v 7.593723 0.445686 0.000000
v 5.369572 0.445686 -5.369568
v -0.000004 0.445686 -7.593750
v -5.369579 0.445686 -5.369568
v -7.593727 2.975366 0.000000
v -5.369579 2.975366 5.369568
v -0.000004 2.975366 7.593689
v 5.369572 2.975366 5.369568
v 7.593723 2.975366 0.000000
v 5.369572 2.975366 -5.369568
v -0.000004 2.975366 -7.593750
v -5.369579 2.975366 -5.369568
v -5.369579 97.225136 5.369568
v -0.000004 97.225136 7.593689
v 5.369572 97.225136 5.369568
v 7.593723 97.225136 0.000000
v 5.369572 97.225136 -5.369568
v -0.000004 97.225136 -7.593750
v -5.369579 97.225136 -5.369568
v -7.593727 97.225136 0.000000
v -5.369579 99.485931 5.369568
v -0.000004 99.485931 7.593689
v 5.369572 99.485931 5.369568
v 7.593723 99.485931 0.000000
v 5.369572 99.485931 -5.369568
v -0.000004 99.485931 -7.593750
v -5.369579 99.485931 -5.369568
v -7.593727 99.485931 0.000000
vt 0.370185 1.414065
vt 0.322400 1.414065
vt 0.322400 0.553768
vt 0.370185 0.553768
vt 0.274615 1.414065
vt 0.274615 0.553768
vt 0.226831 1.414065
vt 0.226831 0.553768
vt 0.179046 1.414065
vt 0.179046 0.553768
vt 0.561323 1.414065
vt 0.513539 1.414065
vt 0.513539 0.553768
vt 0.561323 0.553768
vt 0.465754 1.414065
vt 0.465754 0.553768
vt 0.417969 1.414065
vt 0.417969 0.553768
vt 0.832931 0.222814
vt 0.852682 0.175133
vt 0.860130 0.175133
vt 0.838198 0.228081
vt 0.785249 0.242565
vt 0.785249 0.250013
vt 0.737568 0.222814
vt 0.732301 0.228081
vt 0.717817 0.175133
vt 0.710369 0.175133
vt 0.737568 0.127451
vt 0.732301 0.122184
vt 0.785249 0.107700
vt 0.785249 0.100252
vt 0.832931 0.127451
vt 0.838198 0.122184
vt 0.275132 0.199427
vt 0.322911 0.199420
vt 0.322914 0.242447
vt 0.275134 0.242453
vt 0.227354 0.199429
vt 0.227354 0.242456
vt 0.179575 0.199427
vt 0.179574 0.242453
vt 0.514032 0.199420
vt 0.561811 0.199427
vt 0.561809 0.242453
vt 0.514029 0.242447
vt 0.466252 0.199413
vt 0.466250 0.242440
vt 0.418472 0.199410
vt 0.418472 0.242437
vt 0.370691 0.199413
vt 0.370693 0.242440
vt 0.860130 0.175133
vt 0.838198 0.228081
vt 0.832931 0.222814
vt 0.852682 0.175133
vt 0.838198 0.122184
vt 0.832931 0.127451
vt 0.785249 0.100252
vt 0.785250 0.107700
vt 0.732301 0.122184
vt 0.737568 0.127451
vt 0.710369 0.175133
vt 0.717817 0.175133
vt 0.732301 0.228081
vt 0.737568 0.222814
vt 0.785249 0.250013
vt 0.785250 0.242565
vt 0.832931 0.222814
vt 0.852682 0.175133
vt 0.860130 0.175133
vt 0.838198 0.228081
vt 0.785249 0.242565
vt 0.785249 0.250013
vt 0.737568 0.222814
vt 0.732301 0.228081
vt 0.717817 0.175133
vt 0.710369 0.175133
vt 0.737568 0.127451
vt 0.732301 0.122184
vt 0.785249 0.107700
vt 0.785249 0.100252
vt 0.832931 0.127451
vt 0.838198 0.122184
vt 0.275132 0.199427
vt 0.322911 0.199420
vt 0.322914 0.242447
vt 0.275134 0.242453
vt 0.227354 0.199429
vt 0.227354 0.242456
vt 0.179575 0.199427
vt 0.179574 0.242453
vt 0.514032 0.199420
vt 0.561811 0.199427
vt 0.561809 0.242453
vt 0.514029 0.242447
vt 0.466252 0.199413
vt 0.466250 0.242440
vt 0.418472 0.199410
vt 0.418472 0.242437
vt 0.370691 0.199413
vt 0.370693 0.242440
vt 0.860130 0.175133
vt 0.838198 0.228081
vt 0.832931 0.222814
vt 0.852682 0.175133
vt 0.838198 0.122184
vt 0.832931 0.127451
vt 0.785249 0.100252
vt 0.785250 0.107700
vt 0.732301 0.122184
vt 0.737568 0.127451
vt 0.710369 0.175133
vt 0.717817 0.175133
vt 0.732301 0.228081
vt 0.737568 0.222814
vt 0.785249 0.250013
vt 0.785250 0.242565
vt 0.227354 0.236848
vt 0.561809 0.236845
vt 0.179574 0.236845
vt 0.514030 0.236838
vt 0.466250 0.236831
vt 0.418472 0.236829
vt 0.370693 0.236831
vt 0.322914 0.236838
vt 0.275134 0.236845
vt 0.227354 0.205014
vt 0.561811 0.205012
vt 0.179575 0.205012
vt 0.514032 0.205005
vt 0.466252 0.204998
vt 0.418472 0.204995
vt 0.370692 0.204998
vt 0.322912 0.205005
vt 0.275133 0.205012
vt 0.561809 0.234345
vt 0.179574 0.234345
vt 0.514030 0.234338
vt 0.466251 0.234332
vt 0.418472 0.234329
vt 0.370693 0.234332
vt 0.322914 0.234338
vt 0.275134 0.234345
vt 0.227354 0.234348
vt 0.561811 0.205896
vt 0.179575 0.205896
vt 0.514032 0.205889
vt 0.466252 0.205882
vt 0.418472 0.205879
vt 0.370692 0.205882
vt 0.322912 0.205889
vt 0.275133 0.205896
vt 0.227354 0.205898
vn 0.000000 0.000000 1.000000
vn -0.707107 0.000000 0.707107
vn -0.707107 0.000000 0.707107
vn 0.000000 0.000000 1.000000
vn -1.000000 0.000000 -0.000000
vn -1.000000 0.000000 -0.000000
vn -0.707107 0.000000 -0.707107
vn -0.707107 0.000000 -0.707107
vn 0.000000 0.000000 -1.000000
vn 0.000000 0.000000 -1.000000
vn 0.707107 0.000000 -0.707107
vn 0.707107 0.000000 -0.707107
vn 1.000000 0.000000 0.000000
vn 1.000000 0.000000 0.000000
vn 0.707107 0.000000 0.707107
vn 0.707107 0.000000 0.707107
vn 0.000000 1.000000 -0.000000
vn 0.000000 1.000000 -0.000000
vn 0.000000 0.771593 -0.636117
vn -0.449805 0.771591 -0.449803
vn 0.000000 1.000000 0.000000
vn -0.636123 0.771588 0.000000
vn 0.000000 1.000000 0.000000
vn -0.449809 0.771584 0.449811
vn 0.000000 1.000000 0.000000
vn 0.000000 0.771582 0.636130
vn 0.000000 1.000000 0.000000
vn 0.449809 0.771585 0.449811
vn 0.000000 1.000000 0.000000
vn 0.636123 0.771588 0.000000
vn 0.000000 1.000000 0.000000
vn 0.449805 0.771591 -0.449803
vn 0.000000 0.000000 -1.000000
vn -0.707108 0.000000 -0.707106
vn -1.000000 -0.000002 0.000000
vn -0.707103 -0.000007 0.707111
vn 0.000000 -0.000010 1.000000
vn 0.707103 -0.000007 0.707111
vn 1.000000 -0.000002 0.000000
vn 0.707108 0.000000 -0.707106
vn 0.000000 -0.770253 0.637738
vn -0.450925 -0.770268 0.450948
vn 0.000000 -1.000000 -0.000000
vn 0.000000 -1.000000 -0.000000
vn 0.450924 -0.770268 0.450948
vn 0.000000 -1.000000 -0.000000
vn 0.637713 -0.770274 0.000000
vn 0.000000 -1.000000 -0.000000
vn 0.450927 -0.770280 -0.450925
vn 0.000000 -1.000000 -0.000000
vn 0.000000 -0.770282 -0.637703
vn 0.000000 -1.000000 0.000000
vn -0.450927 -0.770280 -0.450925
vn 0.000000 -1.000000 0.000000
vn -0.637713 -0.770274 0.000000
vn 0.000000 -1.000000 -0.000000
vn 0.000000 1.000000 0.000001
vn 0.000000 1.000000 0.000000
vn 0.000000 0.723227 -0.690610
vn -0.488334 0.723227 -0.488336
vn 0.000000 1.000000 0.000001
vn -0.690613 0.723225 0.000001
vn 0.000000 1.000000 0.000000
vn -0.488337 0.723219 0.488344
vn 0.000000 1.000000 -0.000000
vn 0.000000 0.723216 0.690622
vn 0.000000 1.000000 -0.000001
vn 0.488338 0.723220 0.488343
vn 0.000000 1.000000 0.000000
vn 0.690613 0.723225 0.000000
vn 0.000000 1.000000 0.000001
vn 0.488334 0.723227 -0.488336
vn 0.000000 0.000000 -1.000000
vn -0.707107 0.000000 -0.707106
vn -1.000000 0.000000 0.000000
vn -0.707105 0.000000 0.707109
vn 0.000000 0.000000 1.000000
vn 0.707104 0.000000 0.707109
vn 1.000000 0.000000 0.000000
vn 0.707107 0.000000 -0.707106
vn 0.000000 -0.641157 0.767410
vn -0.542639 -0.641159 0.542640
vn 0.000000 -1.000000 0.000000
vn 0.000000 -1.000000 -0.000000
vn 0.542639 -0.641159 0.542640
vn 0.000000 -1.000000 0.000001
vn 0.767405 -0.641162 0.000001
vn 0.000000 -1.000000 0.000001
vn 0.542637 -0.641167 -0.542633
vn 0.000000 -1.000000 -0.000000
vn 0.000000 -0.641170 -0.767399
vn 0.000000 -1.000000 0.000000
vn -0.542636 -0.641167 -0.542634
vn 0.000000 -1.000000 -0.000001
vn -0.767405 -0.641162 -0.000001
vn 0.000000 -1.000000 -0.000001
vn -0.707110 0.000000 0.707103
vn -1.000000 -0.000000 0.000000
vn 0.000000 -0.000000 1.000000
vn 0.707110 0.000000 0.707104
vn 1.000000 0.000000 0.000000
vn 0.707108 0.000000 -0.707106
vn 0.000000 0.000000 -1.000000
vn -0.707108 0.000000 -0.707106
vn 0.000000 0.000000 1.000000
vn -0.707105 0.000000 0.707108
vn 0.707105 0.000000 0.707108
vn 1.000000 0.000000 0.000000
vn 0.707108 0.000000 -0.707106
vn 0.000000 0.000000 -1.000000
vn -0.707108 0.000000 -0.707105
vn -1.000000 0.000000 0.000000
g Pipe_1m_LOD0 Pipe_1m
usemtl lambert17SG
f 1/1/1 2/2/2 10/3/3 9/4/4
f 2/2/2 3/5/5 11/6/6 10/3/3
f 3/5/5 4/7/7 12/8/8 11/6/6
f 4/7/7 5/9/9 13/10/10 12/8/8
f 5/11/9 6/12/11 14/13/12 13/14/10
f 6/12/11 7/15/13 15/16/14 14/13/12
f 7/15/13 8/17/15 16/18/16 15/16/14
f 8/17/15 1/1/1 9/4/4 16/18/16
f 18/19/17 17/20/18 25/21/19 26/22/20
f 19/23/21 18/19/17 26/22/20 27/24/22
f 20/25/23 19/23/21 27/24/22 28/26/24
f 21/27/25 20/25/23 28/26/24 29/28/26
f 22/29/27 21/27/25 29/28/26 30/30/28
f 23/31/29 22/29/27 30/30/28 31/32/30
f 24/33/31 23/31/29 31/32/30 32/34/32
f 17/20/18 24/33/31 32/34/32 25/21/19
f 26/35/20 25/36/19 95/135/33 96/136/34
f 27/39/22 26/35/20 96/136/34 89/128/35
f 28/41/24 27/39/22 89/128/35 90/130/36
f 29/43/26 28/44/24 90/129/36 91/131/37
f 30/47/28 29/43/26 91/131/37 92/132/38
f 31/49/30 30/47/28 92/132/38 93/133/39
f 32/51/32 31/49/30 93/133/39 94/134/40
f 25/36/19 32/51/32 94/134/40 95/135/33
f 34/53/41 33/54/42 41/55/43 42/56/44
f 35/57/45 34/53/41 42/56/44 43/58/46
f 36/59/47 35/57/45 43/58/46 44/60/48
f 37/61/49 36/59/47 44/60/48 45/62/50
f 38/63/51 37/61/49 45/62/50 46/64/52
f 39/65/53 38/63/51 46/64/52 47/66/54
f 40/67/55 39/65/53 47/66/54 48/68/56
f 33/54/42 40/67/55 48/68/56 41/55/43
f 50/69/57 49/70/58 57/71/59 58/72/60
f 51/73/61 50/69/57 58/72/60 59/74/62
f 52/75/63 51/73/61 59/74/62 60/76/64
f 53/77/65 52/75/63 60/76/64 61/78/66
f 54/79/67 53/77/65 61/78/66 62/80/68
f 55/81/69 54/79/67 62/80/68 63/82/70
f 56/83/71 55/81/69 63/82/70 64/84/72
f 49/70/58 56/83/71 64/84/72 57/71/59
f 58/85/60 57/86/59 110/152/73 111/153/74
f 59/89/62 58/85/60 111/153/74 112/154/75
f 60/91/64 59/89/62 112/154/75 105/147/76
f 61/93/66 60/94/64 105/146/76 106/148/77
f 62/97/68 61/93/66 106/148/77 107/149/78
f 63/99/70 62/97/68 107/149/78 108/150/79
f 64/101/72 63/99/70 108/150/79 109/151/80
f 57/86/59 64/101/72 109/151/80 110/152/73
f 66/103/81 65/104/82 73/105/83 74/106/84
f 67/107/85 66/103/81 74/106/84 75/108/86
f 68/109/87 67/107/85 75/108/86 76/110/88
f 69/111/89 68/109/87 76/110/88 77/112/90
f 70/113/91 69/111/89 77/112/90 78/114/92
f 71/115/93 70/113/91 78/114/92 79/116/94
f 72/117/95 71/115/93 79/116/94 80/118/96
f 65/104/82 72/117/95 80/118/96 73/105/83
f 82/121/97 81/119/98 40/40/55 33/42/42
f 83/122/99 82/120/97 33/45/42 34/46/41
f 84/123/100 83/122/99 34/46/41 35/48/45
f 85/124/101 84/123/100 35/48/45 36/50/47
f 86/125/102 85/124/101 36/50/47 37/52/49
f 87/126/103 86/125/102 37/52/49 38/37/51
f 88/127/104 87/126/103 38/37/51 39/38/53
f 81/119/98 88/127/104 39/38/53 40/40/55
f 90/130/36 89/128/35 81/119/98 82/121/97
f 91/131/37 90/129/36 82/120/97 83/122/99
f 92/132/38 91/131/37 83/122/99 84/123/100
f 93/133/39 92/132/38 84/123/100 85/124/101
f 94/134/40 93/133/39 85/124/101 86/125/102
f 95/135/33 94/134/40 86/125/102 87/126/103
f 96/136/34 95/135/33 87/126/103 88/127/104
f 89/128/35 96/136/34 88/127/104 81/119/98
f 98/139/105 97/137/106 65/95/82 66/96/81
f 99/140/107 98/139/105 66/96/81 67/98/85
f 100/141/108 99/140/107 67/98/85 68/100/87
f 101/142/109 100/141/108 68/100/87 69/102/89
f 102/143/110 101/142/109 69/102/89 70/87/91
f 103/144/111 102/143/110 70/87/91 71/88/93
f 104/145/112 103/144/111 71/88/93 72/90/95
f 97/138/106 104/145/112 72/90/95 65/92/82
f 106/148/77 105/146/76 97/137/106 98/139/105
f 107/149/78 106/148/77 98/139/105 99/140/107
f 108/150/79 107/149/78 99/140/107 100/141/108
f 109/151/80 108/150/79 100/141/108 101/142/109
f 110/152/73 109/151/80 101/142/109 102/143/110
f 111/153/74 110/152/73 102/143/110 103/144/111
f 112/154/75 111/153/74 103/144/111 104/145/112
f 105/147/76 112/154/75 104/145/112 97/138/106
