# This file uses meters as units for non-parametric coordinates.

mtllib Pipe_8m_LOD0.mtl
g default
v -0.000004 800.000000 -6.838379
v -4.835468 800.000000 -4.835480
v -6.838379 800.000000 0.000000
v -4.835468 800.000000 4.835449
v -0.000004 800.000000 6.838379
v 4.835461 800.000000 4.835449
v 6.838375 800.000000 0.000000
v 4.835461 800.000000 -4.835480
v -0.000004 800.000000 -7.593719
v -5.369579 800.000000 -5.369568
v -7.593727 800.000000 0.000000
v -5.369579 800.000000 5.369568
v -0.000004 800.000000 7.593719
v 5.369572 800.000000 5.369568
v 7.593723 800.000000 0.000000
v 5.369572 800.000000 -5.369568
v -5.369579 796.580811 5.369568
v -0.000004 796.580811 7.593719
v 5.369572 796.580811 5.369568
v 7.593723 796.580811 0.000000
v 5.369572 796.580811 -5.369568
v -0.000004 796.580811 -7.593719
v -5.369579 796.580811 -5.369568
v -7.593727 796.580811 0.000000
v -4.835468 796.580811 4.835449
v -0.000004 796.580811 6.838379
v 4.835461 796.580811 4.835449
v 6.838375 796.580811 0.000000
v 4.835461 796.580811 -4.835449
v -0.000004 796.580811 -6.838379
v -4.835468 796.580811 -4.835449
v -6.838379 796.580811 0.000000
v 0.000000 796.580750 6.838379
v -4.835464 796.580750 4.835480
v -6.838377 796.580750 0.000000
v -4.835463 796.580750 -4.835449
v 0.000000 796.580750 -6.838379
v 4.835462 796.580750 -4.835449
v 6.838376 796.580750 0.000000
v 4.835462 796.580750 4.835480
v 0.000000 3.419189 6.838379
v -4.835464 3.419189 4.835480
v -6.838377 3.419189 0.000000
v -4.835463 3.419189 -4.835449
v 0.000000 3.419189 -6.838379
v 4.835462 3.419189 -4.835449
v 6.838376 3.419189 0.000000
v 4.835462 3.419189 4.835480
v -0.000004 3.419189 -6.838379
v -4.835468 3.419189 -4.835480
v -6.838379 3.419189 0.000000
v -4.835468 3.419189 4.835449
v -0.000004 3.419189 6.838379
v 4.835461 3.419189 4.835449
v 6.838375 3.419189 0.000000
v 4.835461 3.419189 -4.835480
v -0.000004 3.419189 -7.593719
v -5.369579 3.419189 -5.369568
v -7.593727 3.419189 0.000000
v -5.369579 3.419189 5.369568
v -0.000004 3.419189 7.593719
v 5.369572 3.419189 5.369568
v 7.593723 3.419189 0.000000
v 5.369572 3.419189 -5.369568
v -5.369579 -0.000000 5.369568
v -0.000004 -0.000000 7.593719
v 5.369572 -0.000000 5.369568
v 7.593723 -0.000000 0.000000
v 5.369572 -0.000000 -5.369568
v -0.000004 -0.000000 -7.593719
v -5.369579 -0.000000 -5.369568
v -7.593727 -0.000000 0.000000
v -4.835468 -0.000000 4.835449
v -0.000004 -0.000000 6.838379
v 4.835461 -0.000000 4.835449
v 6.838375 -0.000000 0.000000
v 4.835461 -0.000000 -4.835449
v -0.000004 -0.000000 -6.838379
v -4.835468 -0.000000 -4.835449
v -6.838379 -0.000000 0.000000
v -7.593727 0.485198 0.000000
v -5.369579 0.485198 5.369568
v -0.000004 0.485198 7.593719
v 5.369572 0.485198 5.369568
v 7.593723 0.485198 0.000000
v 5.369572 0.485198 -5.369568
v -0.000004 0.485198 -7.593719
v -5.369579 0.485198 -5.369568
v -7.593727 2.946031 0.000000
v -5.369579 2.946031 5.369568
v -0.000004 2.946031 7.593719
v 5.369571 2.946031 5.369568
v 7.593723 2.946031 0.000000
v 5.369571 2.946031 -5.369568
v -0.000004 2.946031 -7.593689
v -5.369579 2.946031 -5.369568
v -0.000004 799.595703 7.593719
v 5.369572 799.595703 5.369568
v 7.593723 799.595703 0.000000
v 5.369572 799.595703 -5.369568
v -0.000004 799.595703 -7.593719
v -5.369579 799.595703 -5.369568
v -7.593727 799.595703 0.000000
v -5.369579 799.595703 5.369568
v -0.000004 797.040955 7.593719
v 5.369572 797.040955 5.369568
v 7.593723 797.040955 0.000000
v 5.369572 797.040955 -5.369568
v -0.000004 797.040955 -7.593719
v -5.369579 797.040955 -5.369568
v -7.593727 797.040955 0.000000
v -5.369579 797.040955 5.369568
vt 0.832931 0.222814
vt 0.852682 0.175133
vt 0.860130 0.175133
vt 0.838198 0.228081
vt 0.785249 0.242565
vt 0.785249 0.250013
vt 0.737568 0.222814
vt 0.732301 0.228081
vt 0.717817 0.175133
vt 0.710369 0.175133
vt 0.737568 0.127451
vt 0.732301 0.122184
vt 0.785249 0.107700
vt 0.785249 0.100252
vt 0.832931 0.127451
vt 0.838198 0.122184
vt 0.275132 0.199427
vt 0.322911 0.199420
vt 0.322914 0.242447
vt 0.275134 0.242453
vt 0.227354 0.199429
vt 0.227354 0.242456
vt 0.179575 0.199427
vt 0.179574 0.242453
vt 0.514032 0.199420
vt 0.561811 0.199427
vt 0.561809 0.242453
vt 0.514029 0.242447
vt 0.466252 0.199413
vt 0.466250 0.242440
vt 0.418472 0.199410
vt 0.418472 0.242437
vt 0.370691 0.199413
vt 0.370693 0.242440
vt 0.860130 0.175133
vt 0.838198 0.228081
vt 0.832931 0.222814
vt 0.852682 0.175133
vt 0.838198 0.122184
vt 0.832931 0.127451
vt 0.785249 0.100252
vt 0.785250 0.107700
vt 0.732301 0.122184
vt 0.737568 0.127451
vt 0.710369 0.175133
vt 0.717817 0.175133
vt 0.732301 0.228081
vt 0.737568 0.222814
vt 0.785249 0.250013
vt 0.785250 0.242565
vt 0.370185 4.010896
vt 0.322400 4.010896
vt 0.322400 -1.420178
vt 0.370185 -1.420178
vt 0.274615 4.010897
vt 0.274615 -1.420178
vt 0.226830 4.010897
vt 0.226831 -1.420178
vt 0.179044 4.010895
vt 0.179046 -1.420179
vt 0.561325 4.010896
vt 0.513540 4.010897
vt 0.513539 -1.420178
vt 0.561323 -1.420179
vt 0.465755 4.010897
vt 0.465754 -1.420178
vt 0.417970 4.010896
vt 0.417969 -1.420178
vt 0.832931 0.222814
vt 0.852682 0.175133
vt 0.860130 0.175133
vt 0.838198 0.228081
vt 0.785249 0.242565
vt 0.785249 0.250013
vt 0.737568 0.222814
vt 0.732301 0.228081
vt 0.717817 0.175133
vt 0.710369 0.175133
vt 0.737568 0.127451
vt 0.732301 0.122184
vt 0.785249 0.107700
vt 0.785249 0.100252
vt 0.832931 0.127451
vt 0.838198 0.122184
vt 0.275132 0.199427
vt 0.322911 0.199420
vt 0.322914 0.242447
vt 0.275134 0.242453
vt 0.227354 0.199429
vt 0.227354 0.242456
vt 0.179575 0.199427
vt 0.179574 0.242453
vt 0.514032 0.199420
vt 0.561811 0.199427
vt 0.561809 0.242453
vt 0.514029 0.242447
vt 0.466252 0.199413
vt 0.466250 0.242440
vt 0.418472 0.199410
vt 0.418472 0.242437
vt 0.370691 0.199413
vt 0.370693 0.242440
vt 0.860130 0.175133
vt 0.838198 0.228081
vt 0.832931 0.222814
vt 0.852682 0.175133
vt 0.838198 0.122184
vt 0.832931 0.127451
vt 0.785249 0.100252
vt 0.785250 0.107700
vt 0.732301 0.122184
vt 0.737568 0.127451
vt 0.710369 0.175133
vt 0.717817 0.175133
vt 0.732301 0.228081
vt 0.737568 0.222814
vt 0.785249 0.250013
vt 0.785250 0.242565
vt 0.227354 0.236351
vt 0.561809 0.236348
vt 0.179574 0.236348
vt 0.514030 0.236341
vt 0.466250 0.236334
vt 0.418472 0.236331
vt 0.370693 0.236334
vt 0.322914 0.236341
vt 0.275134 0.236348
vt 0.227354 0.205384
vt 0.561811 0.205381
vt 0.179575 0.205381
vt 0.514032 0.205374
vt 0.466252 0.205367
vt 0.418472 0.205364
vt 0.370692 0.205367
vt 0.322912 0.205374
vt 0.275133 0.205381
vt 0.514032 0.204508
vt 0.466252 0.204501
vt 0.418472 0.204498
vt 0.370692 0.204501
vt 0.322912 0.204508
vt 0.275133 0.204514
vt 0.227354 0.204517
vt 0.561811 0.204514
vt 0.179575 0.204514
vt 0.514030 0.236656
vt 0.466250 0.236649
vt 0.418472 0.236646
vt 0.370693 0.236649
vt 0.322914 0.236656
vt 0.275134 0.236663
vt 0.227354 0.236665
vt 0.561809 0.236663
vt 0.179574 0.236663
vn 0.000000 1.000000 -0.000032
vn 0.000000 1.000000 -0.000032
vn 0.000000 0.799593 -0.600542
vn -0.424631 0.799601 -0.424649
vn 0.000000 1.000000 -0.000016
vn -0.600519 0.799611 -0.000013
vn 0.000000 1.000000 -0.000016
vn -0.424634 0.799618 0.424614
vn 0.000000 1.000000 0.000032
vn 0.000000 0.799600 0.600534
vn 0.000000 1.000000 0.000032
vn 0.424627 0.799605 0.424645
vn 0.000000 1.000000 0.000000
vn 0.600519 0.799611 0.000000
vn 0.000000 1.000000 0.000000
vn 0.424635 0.799610 -0.424628
vn 0.000000 0.000000 -1.000000
vn -0.707110 0.000000 -0.707104
vn -1.000000 0.000000 0.000000
vn -0.707110 0.000000 0.707104
vn 0.000000 0.000000 1.000000
vn 0.707108 0.000000 0.707106
vn 1.000000 0.000000 0.000000
vn 0.707108 0.000000 -0.707106
vn 0.000000 -0.760160 0.649736
vn -0.459438 -0.760155 0.459436
vn 0.000000 -1.000000 0.000008
vn 0.000000 -1.000000 0.000008
vn 0.459438 -0.760154 0.459437
vn 0.000000 -1.000000 0.000032
vn 0.649743 -0.760154 0.000000
vn 0.000000 -1.000000 0.000000
vn 0.459439 -0.760156 -0.459433
vn 0.000000 -1.000000 -0.000024
vn 0.000000 -0.760160 -0.649736
vn 0.000000 -1.000000 -0.000008
vn -0.459437 -0.760152 -0.459441
vn 0.000000 -1.000000 -0.000016
vn -0.649743 -0.760154 0.000000
vn 0.000000 -1.000000 0.000000
vn 0.000000 0.000000 1.000000
vn -0.707107 0.000000 0.707107
vn -0.707107 0.000000 0.707107
vn 0.000000 0.000000 1.000000
vn -1.000000 0.000000 -0.000000
vn -1.000000 0.000000 -0.000000
vn -0.707107 0.000000 -0.707107
vn -0.707107 0.000000 -0.707107
vn 0.000000 0.000000 -1.000000
vn 0.000000 0.000000 -1.000000
vn 0.707107 0.000000 -0.707107
vn 0.707107 0.000000 -0.707107
vn 1.000000 0.000000 0.000000
vn 1.000000 0.000000 0.000000
vn 0.707107 0.000000 0.707107
vn 0.707107 0.000000 0.707107
vn 0.000000 1.000000 0.000000
vn 0.000000 1.000000 0.000000
vn 0.000000 0.751102 -0.660186
vn -0.466819 0.751105 -0.466821
vn 0.000000 1.000000 -0.000000
vn -0.660174 0.751113 -0.000000
vn 0.000000 1.000000 -0.000000
vn -0.466813 0.751113 0.466813
vn 0.000000 1.000000 -0.000000
vn -0.000000 0.751113 0.660173
vn 0.000000 1.000000 -0.000000
vn 0.466813 0.751114 0.466813
vn 0.000000 1.000000 -0.000000
vn 0.660174 0.751113 -0.000000
vn 0.000000 1.000000 -0.000000
vn 0.466819 0.751105 -0.466821
vn 0.000000 -0.000000 -1.000000
vn -0.707106 0.000000 -0.707108
vn -1.000000 0.000000 0.000000
vn -0.707107 0.000000 0.707107
vn 0.000000 0.000000 1.000000
vn 0.707106 -0.000000 0.707107
vn 1.000000 0.000000 0.000000
vn 0.707106 -0.000000 -0.707108
vn 0.000000 -0.742817 0.669495
vn -0.473404 -0.742817 0.473405
vn 0.000000 -1.000000 0.000000
vn 0.000000 -1.000000 -0.000000
vn 0.473404 -0.742817 0.473405
vn 0.000000 -1.000000 -0.000000
vn 0.669495 -0.742817 0.000000
vn 0.000000 -1.000000 -0.000000
vn 0.473404 -0.742817 -0.473405
vn 0.000000 -1.000000 0.000000
vn 0.000000 -0.742817 -0.669495
vn 0.000000 -1.000000 0.000000
vn -0.473404 -0.742817 -0.473404
vn 0.000000 -1.000000 0.000000
vn -0.669495 -0.742817 0.000000
vn 0.000000 -1.000000 0.000000
vn -0.707107 0.000000 0.707107
vn -1.000000 0.000000 0.000000
vn 0.000000 0.000000 1.000000
vn 0.707107 0.000000 0.707107
vn 1.000000 0.000000 0.000000
vn 0.707106 0.000003 -0.707108
vn 0.000000 0.000005 -1.000000
vn -0.707106 0.000003 -0.707108
vn 0.000000 0.000000 1.000000
vn 0.707110 0.000000 0.707104
vn 1.000000 0.000000 0.000000
vn 0.707110 0.000000 -0.707104
vn 0.000000 0.000000 -1.000000
vn -0.707110 0.000000 -0.707104
vn -1.000000 0.000000 0.000000
vn -0.707110 0.000000 0.707104
g Pipe_8m_LOD0 Pipe_8m
usemtl lambert17SG
f 2/1/1 1/2/2 9/3/3 10/4/4
f 3/5/5 2/1/1 10/4/4 11/6/6
f 4/7/7 3/5/5 11/6/6 12/8/8
f 5/9/9 4/7/7 12/8/8 13/10/10
f 6/11/11 5/9/9 13/10/10 14/12/12
f 7/13/13 6/11/11 14/12/12 15/14/14
f 8/15/15 7/13/13 15/14/14 16/16/16
f 1/2/2 8/15/15 16/16/16 9/3/3
f 10/17/4 9/18/3 101/141/17 102/142/18
f 11/21/6 10/17/4 102/142/18 103/143/19
f 12/23/8 11/21/6 103/143/19 104/145/20
f 13/25/10 12/26/8 104/144/20 97/137/21
f 14/29/12 13/25/10 97/137/21 98/138/22
f 15/31/14 14/29/12 98/138/22 99/139/23
f 16/33/16 15/31/14 99/139/23 100/140/24
f 9/18/3 16/33/16 100/140/24 101/141/17
f 18/35/25 17/36/26 25/37/27 26/38/28
f 19/39/29 18/35/25 26/38/28 27/40/30
f 20/41/31 19/39/29 27/40/30 28/42/32
f 21/43/33 20/41/31 28/42/32 29/44/34
f 22/45/35 21/43/33 29/44/34 30/46/36
f 23/47/37 22/45/35 30/46/36 31/48/38
f 24/49/39 23/47/37 31/48/38 32/50/40
f 17/36/26 24/49/39 32/50/40 25/37/27
f 33/51/41 34/52/42 42/53/43 41/54/44
f 34/52/42 35/55/45 43/56/46 42/53/43
f 35/55/45 36/57/47 44/58/48 43/56/46
f 36/57/47 37/59/49 45/60/50 44/58/48
f 37/61/49 38/62/51 46/63/52 45/64/50
f 38/62/51 39/65/53 47/66/54 46/63/52
f 39/65/53 40/67/55 48/68/56 47/66/54
f 40/67/55 33/51/41 41/54/44 48/68/56
f 50/69/57 49/70/58 57/71/59 58/72/60
f 51/73/61 50/69/57 58/72/60 59/74/62
f 52/75/63 51/73/61 59/74/62 60/76/64
f 53/77/65 52/75/63 60/76/64 61/78/66
f 54/79/67 53/77/65 61/78/66 62/80/68
f 55/81/69 54/79/67 62/80/68 63/82/70
f 56/83/71 55/81/69 63/82/70 64/84/72
f 49/70/58 56/83/71 64/84/72 57/71/59
f 58/85/60 57/86/59 95/135/73 96/136/74
f 59/89/62 58/85/60 96/136/74 89/128/75
f 60/91/64 59/89/62 89/128/75 90/130/76
f 61/93/66 60/94/64 90/129/76 91/131/77
f 62/97/68 61/93/66 91/131/77 92/132/78
f 63/99/70 62/97/68 92/132/78 93/133/79
f 64/101/72 63/99/70 93/133/79 94/134/80
f 57/86/59 64/101/72 94/134/80 95/135/73
f 66/103/81 65/104/82 73/105/83 74/106/84
f 67/107/85 66/103/81 74/106/84 75/108/86
f 68/109/87 67/107/85 75/108/86 76/110/88
f 69/111/89 68/109/87 76/110/88 77/112/90
f 70/113/91 69/111/89 77/112/90 78/114/92
f 71/115/93 70/113/91 78/114/92 79/116/94
f 72/117/95 71/115/93 79/116/94 80/118/96
f 65/104/82 72/117/95 80/118/96 73/105/83
f 82/121/97 81/119/98 72/90/95 65/92/82
f 83/122/99 82/120/97 65/95/82 66/96/81
f 84/123/100 83/122/99 66/96/81 67/98/85
f 85/124/101 84/123/100 67/98/85 68/100/87
f 86/125/102 85/124/101 68/100/87 69/102/89
f 87/126/103 86/125/102 69/102/89 70/87/91
f 88/127/104 87/126/103 70/87/91 71/88/93
f 81/119/98 88/127/104 71/88/93 72/90/95
f 90/130/76 89/128/75 81/119/98 82/121/97
f 91/131/77 90/129/76 82/120/97 83/122/99
f 92/132/78 91/131/77 83/122/99 84/123/100
f 93/133/79 92/132/78 84/123/100 85/124/101
f 94/134/80 93/133/79 85/124/101 86/125/102
f 95/135/73 94/134/80 86/125/102 87/126/103
f 96/136/74 95/135/73 87/126/103 88/127/104
f 89/128/75 96/136/74 88/127/104 81/119/98
f 98/138/22 97/137/21 105/146/105 106/147/106
f 99/139/23 98/138/22 106/147/106 107/148/107
f 100/140/24 99/139/23 107/148/107 108/149/108
f 101/141/17 100/140/24 108/149/108 109/150/109
f 102/142/18 101/141/17 109/150/109 110/151/110
f 103/143/19 102/142/18 110/151/110 111/152/111
f 104/145/20 103/143/19 111/152/111 112/154/112
f 97/137/21 104/144/20 112/153/112 105/146/105
f 106/147/106 105/146/105 18/28/25 19/30/29
f 107/148/107 106/147/106 19/30/29 20/32/31
f 108/149/108 107/148/107 20/32/31 21/34/33
f 109/150/109 108/149/108 21/34/33 22/19/35
f 110/151/110 109/150/109 22/19/35 23/20/37
f 111/152/111 110/151/110 23/20/37 24/22/39
f 112/154/112 111/152/111 24/22/39 17/24/26
f 105/146/105 112/153/112 17/27/26 18/28/25
