# This file uses meters as units for non-parametric coordinates.

mtllib Pipe_90_LOD0.mtl
g default
v 0.000000 13.161625 13.676758
v 0.000000 12.641083 11.059814
v 0.000000 11.158711 8.841309
v 0.000000 8.940182 7.358948
v 0.000000 6.323246 6.838379
v -4.835449 15.164536 13.676758
v -4.835449 14.491536 10.293335
v -4.835449 12.574981 7.425018
v -4.835449 9.706665 5.508484
v -4.835449 6.323248 4.835449
v -6.838379 20.000000 13.676758
v -6.838379 18.958923 8.442871
v -6.838379 15.994172 4.005859
v -6.838379 11.557117 1.041077
v -6.838379 6.323250 0.000000
v -4.835449 24.835457 13.676758
v -4.835449 23.426308 6.592438
v -4.835449 19.413361 0.586670
v -4.835449 13.407573 -3.426300
v -4.835449 6.323250 -4.835449
v 0.000000 26.838381 13.676758
v 0.000000 25.276756 5.825958
v 0.000000 20.829643 -0.829651
v 0.000000 14.174053 -5.276733
v 0.000000 6.323252 -6.838379
v 4.835449 24.835457 13.676758
v 4.835449 23.426308 6.592438
v 4.835449 19.413361 0.586670
v 4.835449 13.407573 -3.426300
v 4.835449 6.323250 -4.835449
v 6.838379 20.000000 13.676758
v 6.838379 18.958923 8.442871
v 6.838379 15.994172 4.005859
v 6.838379 11.557117 1.041077
v 6.838379 6.323250 0.000000
v 4.835449 15.164536 13.676758
v 4.835449 14.491536 10.293335
v 4.835449 12.574987 7.425018
v 4.835449 9.706665 5.508484
v 4.835449 6.323248 4.835449
v 0.000000 12.406277 13.676758
v -5.369568 14.630425 13.676758
v -7.593719 20.000000 13.676758
v -5.369568 25.369576 13.676758
v 0.000000 27.593725 13.676758
v 5.369568 25.369576 13.676758
v 7.593719 20.000000 13.676758
v 5.369568 14.630425 13.676758
v -5.369568 25.369576 20.000000
v 0.000000 27.593725 20.000000
v 5.369568 25.369576 20.000000
v 7.593719 20.000000 20.000000
v 5.369568 14.630425 20.000000
v 0.000000 12.406277 20.000000
v -5.369568 14.630425 20.000000
v -7.593719 20.000000 20.000000
v -4.835449 24.835472 20.000000
v 0.000000 26.838381 20.000000
v 4.835449 24.835472 20.000000
v 6.838379 20.000008 20.000000
v 4.835449 15.164544 20.000000
v 0.000000 13.161629 20.000000
v -4.835449 15.164544 20.000000
v -6.838379 20.000008 20.000000
v 0.000000 6.323250 -6.838379
v -4.835449 6.323250 -4.835449
v -6.838379 6.323250 0.000000
v -4.835449 6.323250 4.835449
v 0.000000 6.323250 6.838379
v 4.835449 6.323250 4.835449
v 6.838379 6.323250 0.000000
v 4.835449 6.323250 -4.835449
v 0.000000 6.323250 -7.593719
v -5.369568 6.323250 -5.369568
v -7.593719 6.323250 0.000000
v -5.369568 6.323250 5.369598
v 0.000000 6.323250 7.593719
v 5.369568 6.323250 5.369598
v 7.593719 6.323250 0.000000
v 5.369568 6.323250 -5.369568
v -5.369568 0.000000 5.369598
v 0.000000 0.000000 7.593719
v 5.369568 0.000000 5.369598
v 7.593719 0.000000 0.000000
v 5.369568 0.000000 -5.369568
v 0.000000 0.000000 -7.593719
v -5.369568 0.000000 -5.369568
v -7.593719 0.000000 0.000000
v -4.835449 0.000000 4.835449
v 0.000000 0.000000 6.838379
v 4.835449 0.000000 4.835449
v 6.838379 0.000000 0.000000
v 4.835449 0.000000 -4.835449
v 0.000000 0.000000 -6.838379
v -4.835449 0.000000 -4.835449
v -6.838379 0.000000 0.000000
v -5.369568 25.369576 19.485046
v 0.000000 27.593725 19.485046
v 5.369568 25.369576 19.485046
v 7.593719 20.000000 19.485046
v 5.369568 14.630425 19.485046
v 0.000000 12.406277 19.485046
v -5.369568 14.630425 19.485046
v -7.593719 20.000000 19.485046
v -5.369568 25.369576 14.139343
v 0.000000 27.593725 14.139343
v 5.369568 25.369576 14.139343
v 7.593719 20.000000 14.139343
v 5.369568 14.630425 14.139343
v 0.000000 12.406277 14.139343
v -5.369568 14.630425 14.139343
v -7.593719 20.000000 14.139343
v 0.000000 5.594813 7.593719
v 5.369568 5.594813 5.369598
v 7.593719 5.594813 0.000000
v 5.369568 5.594813 -5.369568
v 0.000000 5.594813 -7.593719
v -5.369568 5.594813 -5.369568
v -7.593719 5.594813 0.000000
v -5.369568 5.594813 5.369598
v 0.000000 0.636303 7.593689
v 5.369568 0.636303 5.369598
v 7.593719 0.636303 0.000000
v 5.369568 0.636303 -5.369568
v 0.000000 0.636303 -7.593719
v -5.369568 0.636303 -5.369568
v -7.593719 0.636303 0.000000
v -5.369568 0.636303 5.369598
vt 0.744999 0.928510
vt 0.702783 0.939797
vt 0.675366 0.858258
vt 0.729741 0.841971
vt 0.788464 0.924454
vt 0.787800 0.836253
vt 0.832085 0.927975
vt 0.845878 0.840760
vt 0.874553 0.938530
vt 0.900598 0.856212
vt 0.636370 0.783122
vt 0.712687 0.762030
vt 0.787125 0.755824
vt 0.861473 0.760903
vt 0.937978 0.780438
vt 0.606505 0.708103
vt 0.702360 0.693886
vt 0.786572 0.690146
vt 0.870667 0.692786
vt 0.966078 0.705506
vt 0.596189 0.630835
vt 0.699356 0.632097
vt 0.786223 0.632087
vt 0.872965 0.631311
vt 0.975066 0.629186
vt 0.608898 0.554327
vt 0.703130 0.570555
vt 0.786066 0.574615
vt 0.868750 0.570411
vt 0.962087 0.553873
vt 0.640883 0.482072
vt 0.714135 0.504260
vt 0.786092 0.510632
vt 0.857779 0.504400
vt 0.930528 0.482602
vt 0.680387 0.411847
vt 0.731517 0.428321
vt 0.786405 0.433981
vt 0.841149 0.428783
vt 0.892085 0.413120
vt 0.707437 0.335963
vt 0.746844 0.347301
vt 0.787056 0.351548
vt 0.827167 0.347974
vt 0.866351 0.337184
vt 0.275132 0.229374
vt 0.322911 0.229367
vt 0.322914 0.304480
vt 0.275134 0.304487
vt 0.227354 0.229377
vt 0.227354 0.304490
vt 0.179575 0.229374
vt 0.179574 0.304487
vt 0.514032 0.229367
vt 0.514029 0.304480
vt 0.466252 0.229360
vt 0.466250 0.304473
vt 0.418472 0.229357
vt 0.418472 0.304471
vt 0.370691 0.229360
vt 0.370693 0.304473
vt 0.561809 0.304487
vt 0.561811 0.229374
vt 0.832931 0.222814
vt 0.852682 0.175133
vt 0.860130 0.175133
vt 0.838198 0.228081
vt 0.832931 0.127451
vt 0.838198 0.122184
vt 0.785249 0.242565
vt 0.785249 0.250013
vt 0.785249 0.107700
vt 0.785249 0.100252
vt 0.737568 0.222814
vt 0.732301 0.228081
vt 0.737568 0.127451
vt 0.732301 0.122184
vt 0.717817 0.175133
vt 0.710369 0.175133
vt 0.860130 0.175133
vt 0.838198 0.228081
vt 0.832931 0.222814
vt 0.852682 0.175133
vt 0.785249 0.250013
vt 0.785250 0.242565
vt 0.838198 0.122184
vt 0.832931 0.127451
vt 0.732301 0.228081
vt 0.737568 0.222814
vt 0.785249 0.100252
vt 0.785250 0.107700
vt 0.710369 0.175133
vt 0.717817 0.175133
vt 0.732301 0.122184
vt 0.737568 0.127451
vt 0.832931 0.222814
vt 0.852682 0.175133
vt 0.860130 0.175133
vt 0.838198 0.228081
vt 0.785249 0.242565
vt 0.785249 0.250013
vt 0.737568 0.222814
vt 0.732301 0.228081
vt 0.717817 0.175133
vt 0.710369 0.175133
vt 0.737568 0.127451
vt 0.732301 0.122184
vt 0.785249 0.107700
vt 0.785249 0.100252
vt 0.832931 0.127451
vt 0.838198 0.122184
vt 0.275132 0.167340
vt 0.322911 0.167334
vt 0.322914 0.242447
vt 0.275134 0.242453
vt 0.227354 0.167343
vt 0.227354 0.242456
vt 0.179575 0.167340
vt 0.179574 0.242453
vt 0.514032 0.167334
vt 0.561811 0.167340
vt 0.561809 0.242453
vt 0.514029 0.242447
vt 0.466252 0.167327
vt 0.466250 0.242440
vt 0.418472 0.167324
vt 0.418472 0.242437
vt 0.370691 0.167327
vt 0.370693 0.242440
vt 0.860130 0.175133
vt 0.838198 0.228081
vt 0.832931 0.222814
vt 0.852682 0.175133
vt 0.838198 0.122184
vt 0.832931 0.127451
vt 0.785249 0.100252
vt 0.785250 0.107700
vt 0.732301 0.122184
vt 0.737568 0.127451
vt 0.710369 0.175133
vt 0.717817 0.175133
vt 0.732301 0.228081
vt 0.737568 0.222814
vt 0.785249 0.250013
vt 0.785250 0.242565
vt 0.561809 0.298370
vt 0.179574 0.298370
vt 0.514030 0.298363
vt 0.466250 0.298356
vt 0.418472 0.298354
vt 0.370693 0.298356
vt 0.322914 0.298363
vt 0.275134 0.298370
vt 0.227354 0.298373
vt 0.561811 0.234869
vt 0.179575 0.234869
vt 0.514032 0.234862
vt 0.466252 0.234855
vt 0.418472 0.234852
vt 0.370691 0.234855
vt 0.322912 0.234862
vt 0.275133 0.234869
vt 0.227354 0.234872
vt 0.514032 0.175987
vt 0.466252 0.175980
vt 0.418472 0.175977
vt 0.370692 0.175980
vt 0.322912 0.175987
vt 0.275133 0.175993
vt 0.227354 0.175996
vt 0.561811 0.175993
vt 0.179575 0.175993
vt 0.514030 0.234888
vt 0.466250 0.234881
vt 0.418472 0.234879
vt 0.370693 0.234881
vt 0.322914 0.234888
vt 0.275134 0.234895
vt 0.227354 0.234898
vt 0.561809 0.234895
vt 0.179574 0.234895
vn 0.000000 -0.923879 0.382684
vn 0.000000 -0.980785 0.195090
vn -0.771257 -0.624293 0.124179
vn -0.777274 -0.581270 0.240770
vn 0.000000 -0.707105 0.707109
vn -0.777274 -0.444884 0.444886
vn 0.000000 -0.382686 0.923879
vn -0.777274 -0.240772 0.581270
vn 0.000000 -0.195100 0.980784
vn -0.771259 -0.124183 0.624290
vn -0.992769 0.117737 -0.023419
vn -0.993041 0.108806 -0.045069
vn -0.993041 0.083275 -0.083275
vn -0.993041 0.045069 -0.108806
vn -0.992769 0.023419 -0.117738
vn -0.645630 0.748977 -0.148980
vn -0.652916 0.699774 -0.289856
vn -0.652917 0.535584 -0.535583
vn -0.652916 0.289856 -0.699774
vn -0.645629 0.148981 -0.748978
vn -0.000000 0.980785 -0.195090
vn -0.000000 0.923880 -0.382683
vn -0.000000 0.707106 -0.707107
vn 0.000000 0.382684 -0.923879
vn 0.000000 0.195091 -0.980785
vn 0.645630 0.748977 -0.148980
vn 0.652916 0.699774 -0.289856
vn 0.652917 0.535584 -0.535583
vn 0.652916 0.289856 -0.699774
vn 0.645629 0.148981 -0.748978
vn 0.992769 0.117737 -0.023419
vn 0.993041 0.108806 -0.045069
vn 0.993041 0.083275 -0.083275
vn 0.993041 0.045069 -0.108806
vn 0.992769 0.023419 -0.117738
vn 0.771257 -0.624293 0.124179
vn 0.777274 -0.581270 0.240770
vn 0.777274 -0.444884 0.444886
vn 0.777273 -0.240772 0.581270
vn 0.771259 -0.124183 0.624290
vn 0.000000 0.000000 -1.000000
vn 0.000000 0.000000 -1.000000
vn 0.000000 -0.651728 -0.758453
vn -0.460842 -0.460842 -0.758452
vn -0.000001 0.000000 -1.000000
vn -0.651729 0.000000 -0.758452
vn -0.000001 0.000000 -1.000000
vn -0.460841 0.460841 -0.758453
vn 0.000000 0.000000 -1.000000
vn 0.000000 0.651726 -0.758454
vn 0.000001 0.000000 -1.000000
vn 0.460842 0.460841 -0.758453
vn 0.000001 0.000000 -1.000000
vn 0.651729 0.000000 -0.758452
vn 0.000000 0.000000 -1.000000
vn 0.460842 -0.460842 -0.758452
vn 0.000000 -1.000000 0.000000
vn -0.707107 -0.707107 -0.000000
vn -1.000000 0.000000 0.000000
vn -0.707107 0.707107 0.000000
vn 0.000000 1.000000 0.000000
vn 0.707107 0.707107 -0.000000
vn 1.000000 0.000000 0.000000
vn 0.707107 -0.707107 0.000000
vn 0.000000 0.691242 0.722624
vn -0.488782 0.488781 0.722624
vn 0.000000 0.000000 1.000000
vn 0.000000 0.000000 1.000000
vn 0.488782 0.488781 0.722624
vn 0.000000 0.000000 1.000000
vn 0.691240 0.000000 0.722626
vn 0.000000 0.000000 1.000000
vn 0.488778 -0.488778 0.722628
vn 0.000000 0.000000 1.000000
vn 0.000000 -0.691236 0.722629
vn 0.000000 0.000000 1.000000
vn -0.488778 -0.488778 0.722628
vn 0.000000 0.000000 1.000000
vn -0.691240 0.000000 0.722626
vn 0.000000 0.000000 1.000000
vn 0.000000 1.000000 -0.000000
vn 0.000000 1.000000 -0.000001
vn 0.000000 0.594339 -0.804215
vn -0.568666 0.594339 -0.568666
vn 0.000000 1.000000 -0.000000
vn -0.804214 0.594340 -0.000000
vn 0.000000 1.000000 0.000000
vn -0.568663 0.594343 0.568663
vn 0.000000 1.000000 0.000001
vn 0.000000 0.594348 0.804208
vn 0.000000 1.000000 0.000000
vn 0.568663 0.594344 0.568663
vn 0.000000 1.000000 0.000000
vn 0.804214 0.594340 0.000000
vn 0.000000 1.000000 -0.000000
vn 0.568666 0.594339 -0.568666
vn 0.000000 0.000000 -1.000000
vn -0.707107 0.000000 -0.707107
vn -1.000000 0.000000 0.000000
vn -0.707106 -0.000001 0.707107
vn 0.000000 -0.000003 1.000000
vn 0.707106 -0.000001 0.707107
vn 1.000000 0.000000 0.000000
vn 0.707107 0.000000 -0.707107
vn 0.000000 -0.645893 0.763428
vn -0.539826 -0.645890 0.539827
vn 0.000000 -1.000000 0.000000
vn 0.000000 -1.000000 0.000000
vn 0.539826 -0.645890 0.539827
vn 0.000000 -1.000000 0.000000
vn 0.763429 -0.645892 0.000000
vn 0.000000 -1.000000 0.000000
vn 0.539826 -0.645891 -0.539826
vn 0.000000 -1.000000 0.000000
vn 0.000000 -0.645891 -0.763430
vn 0.000000 -1.000000 0.000000
vn -0.539826 -0.645891 -0.539826
vn 0.000000 -1.000000 0.000000
vn -0.763429 -0.645892 0.000000
vn 0.000000 -1.000000 0.000000
vn 0.000000 1.000000 0.000000
vn -0.707107 0.707106 0.000000
vn 0.707107 0.707106 -0.000000
vn 1.000000 0.000000 -0.000000
vn 0.707107 -0.707107 0.000000
vn 0.000000 -1.000000 0.000000
vn -0.707107 -0.707107 -0.000000
vn -1.000000 0.000000 -0.000000
vn 0.000000 0.000000 1.000000
vn 0.707106 0.000000 0.707107
vn 1.000000 0.000000 0.000000
vn 0.707107 0.000000 -0.707107
vn 0.000000 0.000000 -1.000000
vn -0.707107 0.000000 -0.707107
vn -1.000000 0.000000 0.000000
vn -0.707106 0.000000 0.707107
g Pipe_90_LOD0 Pipe_90
usemtl lambert17SG
f 2/1/1 1/2/2 6/3/3 7/4/4
f 3/5/5 2/1/1 7/4/4 8/6/6
f 4/7/7 3/5/5 8/6/6 9/8/8
f 5/9/9 4/7/7 9/8/8 10/10/10
f 7/4/4 6/3/3 11/11/11 12/12/12
f 8/6/6 7/4/4 12/12/12 13/13/13
f 9/8/8 8/6/6 13/13/13 14/14/14
f 10/10/10 9/8/8 14/14/14 15/15/15
f 12/12/12 11/11/11 16/16/16 17/17/17
f 13/13/13 12/12/12 17/17/17 18/18/18
f 14/14/14 13/13/13 18/18/18 19/19/19
f 15/15/15 14/14/14 19/19/19 20/20/20
f 17/17/17 16/16/16 21/21/21 22/22/22
f 18/18/18 17/17/17 22/22/22 23/23/23
f 19/19/19 18/18/18 23/23/23 24/24/24
f 20/20/20 19/19/19 24/24/24 25/25/25
f 22/22/22 21/21/21 26/26/26 27/27/27
f 23/23/23 22/22/22 27/27/27 28/28/28
f 24/24/24 23/23/23 28/28/28 29/29/29
f 25/25/25 24/24/24 29/29/29 30/30/30
f 27/27/27 26/26/26 31/31/31 32/32/32
f 28/28/28 27/27/27 32/32/32 33/33/33
f 29/29/29 28/28/28 33/33/33 34/34/34
f 30/30/30 29/29/29 34/34/34 35/35/35
f 32/32/32 31/31/31 36/36/36 37/37/37
f 33/33/33 32/32/32 37/37/37 38/38/38
f 34/34/34 33/33/33 38/38/38 39/39/39
f 35/35/35 34/34/34 39/39/39 40/40/40
f 37/37/37 36/36/36 1/41/2 2/42/1
f 38/38/38 37/37/37 2/42/1 3/43/5
f 39/39/39 38/38/38 3/43/5 4/44/7
f 40/40/40 39/39/39 4/44/7 5/45/9
f 6/64/41 1/65/42 41/66/43 42/67/44
f 11/70/45 6/64/41 42/67/44 43/71/46
f 16/74/47 11/70/45 43/71/46 44/75/48
f 21/78/49 16/74/47 44/75/48 45/79/50
f 26/76/51 21/78/49 45/79/50 46/77/52
f 31/72/53 26/76/51 46/77/52 47/73/54
f 36/68/55 31/72/53 47/73/54 48/69/56
f 1/65/42 36/68/55 48/69/56 41/66/43
f 42/46/44 41/47/43 110/161/57 111/162/58
f 43/50/46 42/46/44 111/162/58 112/163/59
f 44/52/48 43/50/46 112/163/59 105/156/60
f 45/54/50 44/63/48 105/155/60 106/157/61
f 46/56/52 45/54/50 106/157/61 107/158/62
f 47/58/54 46/56/52 107/158/62 108/159/63
f 48/60/56 47/58/54 108/159/63 109/160/64
f 41/47/43 48/60/56 109/160/64 110/161/57
f 50/80/65 49/81/66 57/82/67 58/83/68
f 51/86/69 50/80/65 58/83/68 59/87/70
f 52/90/71 51/86/69 59/87/70 60/91/72
f 53/94/73 52/90/71 60/91/72 61/95/74
f 54/92/75 53/94/73 61/95/74 62/93/76
f 55/88/77 54/92/75 62/93/76 63/89/78
f 56/84/79 55/88/77 63/89/78 64/85/80
f 49/81/66 56/84/79 64/85/80 57/82/67
f 66/96/81 65/97/82 73/98/83 74/99/84
f 67/100/85 66/96/81 74/99/84 75/101/86
f 68/102/87 67/100/85 75/101/86 76/103/88
f 69/104/89 68/102/87 76/103/88 77/105/90
f 70/106/91 69/104/89 77/105/90 78/107/92
f 71/108/93 70/106/91 78/107/92 79/109/94
f 72/110/95 71/108/93 79/109/94 80/111/96
f 65/97/82 72/110/95 80/111/96 73/98/83
f 74/112/84 73/113/83 117/168/97 118/169/98
f 75/116/86 74/112/84 118/169/98 119/170/99
f 76/118/88 75/116/86 119/170/99 120/172/100
f 77/120/90 76/121/88 120/171/100 113/164/101
f 78/124/92 77/120/90 113/164/101 114/165/102
f 79/126/94 78/124/92 114/165/102 115/166/103
f 80/128/96 79/126/94 115/166/103 116/167/104
f 73/113/83 80/128/96 116/167/104 117/168/97
f 82/130/105 81/131/106 89/132/107 90/133/108
f 83/134/109 82/130/105 90/133/108 91/135/110
f 84/136/111 83/134/109 91/135/110 92/137/112
f 85/138/113 84/136/111 92/137/112 93/139/114
f 86/140/115 85/138/113 93/139/114 94/141/116
f 87/142/117 86/140/115 94/141/116 95/143/118
f 88/144/119 87/142/117 95/143/118 96/145/120
f 81/131/106 88/144/119 96/145/120 89/132/107
f 98/148/121 97/146/122 49/62/66 50/55/65
f 99/149/123 98/148/121 50/55/65 51/57/69
f 100/150/124 99/149/123 51/57/69 52/59/71
f 101/151/125 100/150/124 52/59/71 53/61/73
f 102/152/126 101/151/125 53/61/73 54/48/75
f 103/153/127 102/152/126 54/48/75 55/49/77
f 104/154/128 103/153/127 55/49/77 56/51/79
f 97/147/122 104/154/128 56/51/79 49/53/66
f 106/157/61 105/155/60 97/146/122 98/148/121
f 107/158/62 106/157/61 98/148/121 99/149/123
f 108/159/63 107/158/62 99/149/123 100/150/124
f 109/160/64 108/159/63 100/150/124 101/151/125
f 110/161/57 109/160/64 101/151/125 102/152/126
f 111/162/58 110/161/57 102/152/126 103/153/127
f 112/163/59 111/162/58 103/153/127 104/154/128
f 105/156/60 112/163/59 104/154/128 97/147/122
f 114/165/102 113/164/101 121/173/129 122/174/130
f 115/166/103 114/165/102 122/174/130 123/175/131
f 116/167/104 115/166/103 123/175/131 124/176/132
f 117/168/97 116/167/104 124/176/132 125/177/133
f 118/169/98 117/168/97 125/177/133 126/178/134
f 119/170/99 118/169/98 126/178/134 127/179/135
f 120/172/100 119/170/99 127/179/135 128/181/136
f 113/164/101 120/171/100 128/180/136 121/173/129
f 122/174/130 121/173/129 82/123/105 83/125/109
f 123/175/131 122/174/130 83/125/109 84/127/111
f 124/176/132 123/175/131 84/127/111 85/129/113
f 125/177/133 124/176/132 85/129/113 86/114/115
f 126/178/134 125/177/133 86/114/115 87/115/117
f 127/179/135 126/178/134 87/115/117 88/117/119
f 128/181/136 127/179/135 88/117/119 81/119/106
f 121/173/129 128/180/136 81/122/106 82/123/105
