# This file uses meters as units for non-parametric coordinates.

mtllib Pipe_8m_LOD1.mtl
g default
v -0.000004 800.000000 -7.216049
v -5.102524 800.000000 -5.102524
v -7.216053 800.000000 0.000000
v -5.102524 800.000000 5.102509
v -0.000004 800.000000 7.216049
v 5.102516 800.000000 5.102509
v 7.216049 800.000000 0.000000
v 5.102516 800.000000 -5.102524
v -5.102523 796.580811 5.102516
v -0.000003 796.580811 7.216049
v 5.102517 796.580811 5.102516
v 7.216049 796.580811 0.000000
v 5.102517 796.580811 -5.102509
v -0.000003 796.580811 -7.216049
v -5.102522 796.580811 -5.102509
v -7.216053 796.580811 0.000000
v -0.000003 3.419189 7.216049
v -5.102523 3.419189 5.102516
v -7.216053 3.419189 0.000000
v -5.102522 3.419189 -5.102516
v -0.000003 3.419189 -7.216049
v 5.102517 3.419189 -5.102516
v 7.216049 3.419189 0.000000
v 5.102517 3.419189 5.102516
v -5.102524 -0.000000 5.102509
v -0.000004 -0.000000 7.216049
v 5.102516 -0.000000 5.102509
v 7.216049 -0.000000 0.000000
v 5.102516 -0.000000 -5.102509
v -0.000004 -0.000000 -7.216049
v -5.102524 -0.000000 -5.102509
v -7.216053 -0.000000 0.000000
vt 0.275132 0.199427
vt 0.322911 0.199420
vt 0.322914 0.242447
vt 0.275134 0.242453
vt 0.227354 0.199429
vt 0.227354 0.242456
vt 0.179575 0.199427
vt 0.179574 0.242453
vt 0.514032 0.199420
vt 0.561811 0.199427
vt 0.561809 0.242453
vt 0.514029 0.242447
vt 0.466252 0.199413
vt 0.466250 0.242440
vt 0.418472 0.199410
vt 0.418472 0.242437
vt 0.370691 0.199413
vt 0.370693 0.242440
vt 0.370185 4.010896
vt 0.322400 4.010896
vt 0.322400 -1.420178
vt 0.370185 -1.420178
vt 0.274615 4.010897
vt 0.274615 -1.420178
vt 0.226830 4.010897
vt 0.226831 -1.420178
vt 0.179044 4.010895
vt 0.179046 -1.420179
vt 0.561325 4.010896
vt 0.513540 4.010897
vt 0.513539 -1.420178
vt 0.561323 -1.420179
vt 0.465755 4.010897
vt 0.465754 -1.420178
vt 0.417970 4.010896
vt 0.417969 -1.420178
vt 0.275132 0.199427
vt 0.322911 0.199420
vt 0.322914 0.242447
vt 0.275134 0.242453
vt 0.227354 0.199429
vt 0.227354 0.242456
vt 0.179575 0.199427
vt 0.179574 0.242453
vt 0.514032 0.199420
vt 0.561811 0.199427
vt 0.561809 0.242453
vt 0.514029 0.242447
vt 0.466252 0.199413
vt 0.466250 0.242440
vt 0.418472 0.199410
vt 0.418472 0.242437
vt 0.370691 0.199413
vt 0.370693 0.242440
vn -0.707105 -0.000002 -0.707109
vn 0.000001 -0.000002 -1.000000
vn 0.000001 -0.000002 -1.000000
vn -0.707106 -0.000002 -0.707108
vn -1.000000 -0.000001 0.000001
vn -1.000000 -0.000001 0.000001
vn -0.707106 0.000001 0.707108
vn -0.707105 0.000001 0.707108
vn 0.000001 0.000001 1.000000
vn 0.000001 0.000001 1.000000
vn 0.707103 0.000001 0.707110
vn 0.707103 0.000001 0.707111
vn 1.000000 -0.000000 0.000000
vn 1.000000 -0.000000 0.000000
vn 0.707102 -0.000002 -0.707111
vn 0.707104 -0.000002 -0.707110
vn -0.000000 0.000000 1.000000
vn -0.707107 0.000000 0.707107
vn -0.707107 0.000000 0.707107
vn -0.000000 0.000000 1.000000
vn -1.000000 0.000000 -0.000000
vn -1.000000 0.000000 -0.000000
vn -0.707107 0.000000 -0.707107
vn -0.707107 0.000000 -0.707107
vn 0.000000 0.000000 -1.000000
vn 0.000000 0.000000 -1.000000
vn 0.707107 0.000000 -0.707107
vn 0.707107 0.000000 -0.707107
vn 1.000000 0.000000 0.000000
vn 1.000000 0.000000 0.000000
vn 0.707107 0.000000 0.707107
vn 0.707107 0.000000 0.707107
vn -0.707106 -0.000001 -0.707107
vn 0.000000 -0.000001 -1.000000
vn -0.000000 -0.000001 -1.000000
vn -0.707107 -0.000001 -0.707107
vn -1.000000 -0.000000 0.000000
vn -1.000000 -0.000000 0.000000
vn -0.707106 -0.000001 0.707107
vn -0.707107 -0.000001 0.707106
vn 0.000000 -0.000001 1.000000
vn -0.000000 -0.000001 1.000000
vn 0.707106 -0.000001 0.707107
vn 0.707107 -0.000001 0.707107
vn 1.000000 -0.000001 0.000000
vn 1.000000 -0.000001 0.000000
vn 0.707106 -0.000001 -0.707107
vn 0.707107 -0.000001 -0.707107
g Pipe_8m_LOD1 Pipe_8m
usemtl lambert17SG
f 2/1/1 1/2/2 14/3/3 15/4/4
f 3/5/5 2/1/1 15/4/4 16/6/6
f 4/7/7 3/5/5 16/6/6 9/8/8
f 10/12/9 5/9/10 4/10/7 9/11/8
f 6/13/11 5/9/10 10/12/9 11/14/12
f 7/15/13 6/13/11 11/14/12 12/16/14
f 8/17/15 7/15/13 12/16/14 13/18/16
f 1/2/2 8/17/15 13/18/16 14/3/3
f 10/19/17 9/20/18 18/21/19 17/22/20
f 9/20/18 16/23/21 19/24/22 18/21/19
f 16/23/21 15/25/23 20/26/24 19/24/22
f 15/25/23 14/27/25 21/28/26 20/26/24
f 14/29/25 13/30/27 22/31/28 21/32/26
f 13/30/27 12/33/29 23/34/30 22/31/28
f 12/33/29 11/35/31 24/36/32 23/34/30
f 11/35/31 10/19/17 17/22/20 24/36/32
f 20/37/33 21/38/34 30/39/35 31/40/36
f 32/42/37 19/41/38 20/37/33 31/40/36
f 18/43/39 19/41/38 32/42/37 25/44/40
f 17/45/41 18/46/39 25/47/40 26/48/42
f 24/49/43 17/45/41 26/48/42 27/50/44
f 23/51/45 24/49/43 27/50/44 28/52/46
f 22/53/47 23/51/45 28/52/46 29/54/48
f 21/38/34 22/53/47 29/54/48 30/39/35
