# This file uses meters as units for non-parametric coordinates.

mtllib Pipe_4m_LOD0.mtl
g default
v -0.000004 399.999969 -6.838387
v -4.835468 399.999969 -4.835472
v -6.838379 399.999969 -0.000008
v -4.835468 399.999969 4.835457
v -0.000004 399.999969 6.838372
v 4.835461 399.999969 4.835457
v 6.838375 399.999969 -0.000008
v 4.835461 399.999969 -4.835468
v -0.000004 399.999969 -7.593731
v -5.369579 399.999969 -5.369579
v -7.593727 399.999969 -0.000008
v -5.369579 399.999969 5.369568
v -0.000004 399.999969 7.593716
v 5.369572 399.999969 5.369568
v 7.593723 399.999969 -0.000008
v 5.369572 399.999969 -5.369579
v -5.369579 396.580780 5.369568
v -0.000004 396.580780 7.593716
v 5.369572 396.580780 5.369568
v 7.593723 396.580780 -0.000008
v 5.369572 396.580780 -5.369579
v -0.000004 396.580780 -7.593731
v -5.369579 396.580780 -5.369579
v -7.593727 396.580780 -0.000008
v -4.835468 396.580780 4.835464
v -0.000004 396.580780 6.838379
v 4.835461 396.580780 4.835464
v 6.838375 396.580780 0.000000
v 4.835461 396.580780 -4.835464
v -0.000004 396.580780 -6.838379
v -4.835468 396.580780 -4.835464
v -6.838379 396.580780 0.000000
v 0.000000 396.580750 6.838368
v -4.835464 396.580750 4.835456
v -6.838377 396.580750 -0.000008
v -4.835463 396.580750 -4.835473
v 0.000000 396.580750 -6.838386
v 4.835462 396.580750 -4.835473
v 6.838376 396.580750 -0.000008
v 4.835462 396.580750 4.835456
v 0.000000 3.419189 6.838368
v -4.835464 3.419189 4.835456
v -6.838377 3.419189 -0.000008
v -4.835463 3.419189 -4.835473
v 0.000000 3.419189 -6.838386
v 4.835462 3.419189 -4.835473
v 6.838376 3.419189 -0.000008
v 4.835462 3.419189 4.835456
v -0.000004 3.419189 -6.838398
v -4.835468 3.419189 -4.835484
v -6.838379 3.419189 -0.000019
v -4.835468 3.419189 4.835445
v -0.000004 3.419189 6.838360
v 4.835461 3.419189 4.835445
v 6.838375 3.419189 -0.000019
v 4.835461 3.419189 -4.835480
v -0.000004 3.419189 -7.593742
v -5.369579 3.419189 -5.369591
v -7.593727 3.419189 -0.000019
v -5.369579 3.419189 5.369556
v -0.000004 3.419189 7.593704
v 5.369572 3.419189 5.369556
v 7.593723 3.419189 -0.000019
v 5.369572 3.419189 -5.369591
v -5.369579 -0.000000 5.369556
v -0.000004 -0.000000 7.593704
v 5.369572 -0.000000 5.369556
v 7.593723 -0.000000 -0.000019
v 5.369572 -0.000000 -5.369591
v -0.000004 -0.000000 -7.593742
v -5.369579 -0.000000 -5.369591
v -7.593727 -0.000000 -0.000019
v -4.835468 -0.000000 4.835453
v -0.000004 -0.000000 6.838367
v 4.835461 -0.000000 4.835453
v 6.838375 -0.000000 -0.000011
v 4.835461 -0.000000 -4.835476
v -0.000004 -0.000000 -6.838390
v -4.835468 -0.000000 -4.835476
v -6.838379 -0.000000 -0.000011
v -5.369579 2.853586 5.369556
v -0.000004 2.853586 7.593705
v 5.369572 2.853586 5.369556
v 7.593723 2.853586 -0.000019
v 5.369572 2.853586 -5.369591
v -0.000004 2.853586 -7.593742
v -5.369579 2.853586 -5.369591
v -7.593728 2.853586 -0.000019
v -5.369579 0.450971 5.369556
v -0.000004 0.450971 7.593704
v 5.369572 0.450971 5.369556
v 7.593723 0.450971 -0.000019
v 5.369572 0.450971 -5.369591
v -0.000004 0.450971 -7.593742
v -5.369579 0.450971 -5.369591
v -7.593727 0.450971 -0.000019
v -5.369579 399.517487 5.369568
v -0.000004 399.517487 7.593716
v 5.369572 399.517487 5.369568
v 7.593723 399.517487 -0.000008
v 5.369572 399.517487 -5.369579
v -0.000004 399.517487 -7.593731
v -5.369579 399.517487 -5.369579
v -7.593727 399.517487 -0.000008
v -5.369579 397.157837 5.369568
v -0.000004 397.157837 7.593716
v 5.369572 397.157837 5.369568
v 7.593723 397.157837 -0.000008
v 5.369572 397.157837 -5.369579
v -0.000004 397.157837 -7.593731
v -5.369579 397.157837 -5.369579
v -7.593727 397.157837 -0.000008
vt 0.832931 0.222814
vt 0.852682 0.175133
vt 0.860130 0.175133
vt 0.838198 0.228081
vt 0.785249 0.242565
vt 0.785249 0.250013
vt 0.737568 0.222814
vt 0.732301 0.228081
vt 0.717817 0.175133
vt 0.710369 0.175133
vt 0.737568 0.127451
vt 0.732301 0.122184
vt 0.785249 0.107700
vt 0.785249 0.100252
vt 0.832931 0.127451
vt 0.838198 0.122184
vt 0.275132 0.199427
vt 0.322911 0.199420
vt 0.322914 0.242447
vt 0.275134 0.242453
vt 0.227354 0.199429
vt 0.227354 0.242456
vt 0.179575 0.199427
vt 0.179574 0.242453
vt 0.514032 0.199420
vt 0.561811 0.199427
vt 0.561809 0.242453
vt 0.514029 0.242447
vt 0.466252 0.199413
vt 0.466250 0.242440
vt 0.418472 0.199410
vt 0.418472 0.242437
vt 0.370691 0.199413
vt 0.370693 0.242440
vt 0.860130 0.175133
vt 0.838198 0.228081
vt 0.832931 0.222814
vt 0.852682 0.175133
vt 0.838198 0.122184
vt 0.832931 0.127451
vt 0.785249 0.100252
vt 0.785250 0.107700
vt 0.732301 0.122184
vt 0.737568 0.127451
vt 0.710369 0.175133
vt 0.717817 0.175133
vt 0.732301 0.228081
vt 0.737568 0.222814
vt 0.785249 0.250013
vt 0.785250 0.242565
vt 0.370185 2.361321
vt 0.322400 2.361321
vt 0.322400 -1.269315
vt 0.370185 -1.269315
vt 0.274615 2.361321
vt 0.274615 -1.269315
vt 0.226830 2.361320
vt 0.226831 -1.269315
vt 0.179045 2.361320
vt 0.179046 -1.269315
vt 0.561324 2.361320
vt 0.513540 2.361321
vt 0.513539 -1.269315
vt 0.561323 -1.269315
vt 0.465754 2.361321
vt 0.465754 -1.269315
vt 0.417969 2.361321
vt 0.417969 -1.269315
vt 0.832931 0.222814
vt 0.852682 0.175133
vt 0.860130 0.175133
vt 0.838198 0.228081
vt 0.785249 0.242565
vt 0.785249 0.250013
vt 0.737568 0.222814
vt 0.732301 0.228081
vt 0.717817 0.175133
vt 0.710369 0.175133
vt 0.737568 0.127451
vt 0.732301 0.122184
vt 0.785249 0.107700
vt 0.785249 0.100252
vt 0.832931 0.127451
vt 0.838198 0.122184
vt 0.275132 0.199427
vt 0.322911 0.199420
vt 0.322914 0.242447
vt 0.275134 0.242453
vt 0.227354 0.199429
vt 0.227354 0.242456
vt 0.179575 0.199427
vt 0.179574 0.242453
vt 0.514032 0.199420
vt 0.561811 0.199427
vt 0.561809 0.242453
vt 0.514029 0.242447
vt 0.466252 0.199413
vt 0.466250 0.242440
vt 0.418472 0.199410
vt 0.418472 0.242437
vt 0.370691 0.199413
vt 0.370693 0.242440
vt 0.860130 0.175133
vt 0.838198 0.228081
vt 0.832931 0.222814
vt 0.852682 0.175133
vt 0.838198 0.122184
vt 0.832931 0.127451
vt 0.785249 0.100252
vt 0.785250 0.107700
vt 0.732301 0.122184
vt 0.737568 0.127451
vt 0.710369 0.175133
vt 0.717817 0.175133
vt 0.732301 0.228081
vt 0.737568 0.222814
vt 0.785249 0.250013
vt 0.785250 0.242565
vt 0.561811 0.206544
vt 0.179575 0.206544
vt 0.514032 0.206537
vt 0.466252 0.206531
vt 0.418472 0.206528
vt 0.370692 0.206531
vt 0.322912 0.206537
vt 0.275133 0.206544
vt 0.227354 0.206547
vt 0.561809 0.236778
vt 0.179574 0.236778
vt 0.514030 0.236772
vt 0.466250 0.236765
vt 0.418472 0.236762
vt 0.370693 0.236765
vt 0.322914 0.236772
vt 0.275134 0.236778
vt 0.227354 0.236781
vt 0.561811 0.205498
vt 0.179575 0.205498
vt 0.514032 0.205492
vt 0.466252 0.205485
vt 0.418472 0.205482
vt 0.370692 0.205485
vt 0.322912 0.205492
vt 0.275133 0.205498
vt 0.227354 0.205501
vt 0.561809 0.235192
vt 0.179574 0.235192
vt 0.514030 0.235185
vt 0.466250 0.235178
vt 0.418472 0.235175
vt 0.370693 0.235178
vt 0.322914 0.235185
vt 0.275134 0.235192
vt 0.227354 0.235195
vn 0.000000 1.000000 0.000006
vn 0.000000 1.000000 0.000002
vn 0.000000 0.744669 -0.667434
vn -0.471936 0.744677 -0.471945
vn 0.000000 1.000000 0.000006
vn -0.667420 0.744681 0.000004
vn 0.000000 1.000000 0.000002
vn -0.471935 0.744676 0.471949
vn 0.000000 1.000000 -0.000002
vn 0.000000 0.744669 0.667434
vn 0.000000 1.000000 -0.000006
vn 0.471936 0.744678 0.471944
vn 0.000000 1.000000 0.000002
vn 0.667420 0.744681 0.000001
vn 0.000000 1.000000 0.000006
vn 0.471936 0.744678 -0.471944
vn 0.000000 0.000000 -1.000000
vn -0.707107 0.000000 -0.707106
vn -1.000000 0.000000 -0.000000
vn -0.707107 0.000000 0.707106
vn 0.000000 0.000000 1.000000
vn 0.707107 0.000000 0.707106
vn 1.000000 0.000000 -0.000000
vn 0.707107 0.000000 -0.707106
vn 0.000000 -0.682125 0.731235
vn -0.517044 -0.682139 0.517061
vn 0.000000 -1.000000 0.000014
vn 0.000000 -1.000000 0.000026
vn 0.517046 -0.682142 0.517055
vn 0.000000 -1.000000 0.000002
vn 0.731214 -0.682148 -0.000004
vn 0.000000 -1.000000 -0.000006
vn 0.517041 -0.682143 -0.517058
vn 0.000000 -1.000000 -0.000014
vn 0.000000 -0.682132 -0.731229
vn 0.000000 -1.000000 -0.000026
vn -0.517041 -0.682144 -0.517056
vn 0.000000 -1.000000 -0.000010
vn -0.731214 -0.682148 -0.000001
vn 0.000000 -1.000000 -0.000002
vn -0.000000 0.000000 1.000000
vn -0.707107 0.000000 0.707107
vn -0.707107 0.000000 0.707107
vn -0.000000 0.000000 1.000000
vn -1.000000 0.000000 -0.000000
vn -1.000000 0.000000 -0.000000
vn -0.707107 0.000000 -0.707107
vn -0.707107 0.000000 -0.707107
vn 0.000000 0.000000 -1.000000
vn 0.000000 0.000000 -1.000000
vn 0.707107 0.000000 -0.707107
vn 0.707107 0.000000 -0.707107
vn 1.000000 0.000000 0.000000
vn 1.000000 0.000000 0.000000
vn 0.707107 0.000000 0.707107
vn 0.707107 0.000000 0.707107
vn 0.000000 1.000000 0.000000
vn 0.000000 1.000000 0.000000
vn 0.000000 0.689430 -0.724353
vn -0.512194 0.689430 -0.512194
vn 0.000000 1.000000 -0.000000
vn -0.724351 0.689431 -0.000000
vn 0.000000 1.000000 -0.000000
vn -0.512194 0.689431 0.512194
vn 0.000000 1.000000 -0.000000
vn 0.000000 0.689430 0.724352
vn 0.000000 1.000000 -0.000000
vn 0.512194 0.689431 0.512194
vn 0.000000 1.000000 -0.000000
vn 0.724351 0.689431 0.000000
vn 0.000000 1.000000 -0.000000
vn 0.512194 0.689431 -0.512194
vn 0.000000 0.000000 -1.000000
vn -0.707107 0.000000 -0.707107
vn -1.000000 -0.000000 -0.000000
vn -0.707107 0.000000 0.707107
vn 0.000000 -0.000000 1.000000
vn 0.707107 0.000000 0.707107
vn 1.000000 0.000000 -0.000000
vn 0.707107 0.000000 -0.707107
vn 0.000000 -0.766563 0.642169
vn -0.454081 -0.766565 0.454081
vn 0.000000 -1.000000 -0.000000
vn 0.000000 -1.000000 -0.000000
vn 0.454081 -0.766565 0.454081
vn 0.000000 -1.000000 -0.000000
vn 0.642165 -0.766567 0.000000
vn 0.000000 -1.000000 -0.000000
vn 0.454078 -0.766568 -0.454078
vn 0.000000 -1.000000 -0.000000
vn 0.000000 -0.766569 -0.642162
vn 0.000000 -1.000000 0.000000
vn -0.454078 -0.766568 -0.454078
vn 0.000000 -1.000000 0.000000
vn -0.642164 -0.766567 -0.000000
vn 0.000000 -1.000000 -0.000000
vn -0.707107 -0.000000 0.707107
vn 0.000000 -0.000000 1.000000
vn 0.707107 -0.000000 0.707107
vn 1.000000 0.000000 -0.000000
vn 0.707107 0.000000 -0.707107
vn 0.000000 0.000000 -1.000000
vn -0.707107 0.000000 -0.707107
vn -1.000000 -0.000000 -0.000000
vn -0.707108 0.000000 0.707106
vn 0.000000 0.000000 1.000000
vn 0.707108 0.000000 0.707106
vn 1.000000 0.000000 -0.000000
vn 0.707108 0.000000 -0.707106
vn 0.000000 0.000000 -1.000000
vn -0.707108 0.000000 -0.707106
vn -1.000000 0.000000 -0.000000
g Pipe_4m_LOD0 Pipe_4m
usemtl lambert17SG
f 2/1/1 1/2/2 9/3/3 10/4/4
f 3/5/5 2/1/1 10/4/4 11/6/6
f 4/7/7 3/5/5 11/6/6 12/8/8
f 5/9/9 4/7/7 12/8/8 13/10/10
f 6/11/11 5/9/9 13/10/10 14/12/12
f 7/13/13 6/11/11 14/12/12 15/14/14
f 8/15/15 7/13/13 15/14/14 16/16/16
f 1/2/2 8/15/15 16/16/16 9/3/3
f 10/17/4 9/18/3 102/143/17 103/144/18
f 11/21/6 10/17/4 103/144/18 104/145/19
f 12/23/8 11/21/6 104/145/19 97/138/20
f 13/25/10 12/26/8 97/137/20 98/139/21
f 14/29/12 13/25/10 98/139/21 99/140/22
f 15/31/14 14/29/12 99/140/22 100/141/23
f 16/33/16 15/31/14 100/141/23 101/142/24
f 9/18/3 16/33/16 101/142/24 102/143/17
f 18/35/25 17/36/26 25/37/27 26/38/28
f 19/39/29 18/35/25 26/38/28 27/40/30
f 20/41/31 19/39/29 27/40/30 28/42/32
f 21/43/33 20/41/31 28/42/32 29/44/34
f 22/45/35 21/43/33 29/44/34 30/46/36
f 23/47/37 22/45/35 30/46/36 31/48/38
f 24/49/39 23/47/37 31/48/38 32/50/40
f 17/36/26 24/49/39 32/50/40 25/37/27
f 33/51/41 34/52/42 42/53/43 41/54/44
f 34/52/42 35/55/45 43/56/46 42/53/43
f 35/55/45 36/57/47 44/58/48 43/56/46
f 36/57/47 37/59/49 45/60/50 44/58/48
f 37/61/49 38/62/51 46/63/52 45/64/50
f 38/62/51 39/65/53 47/66/54 46/63/52
f 39/65/53 40/67/55 48/68/56 47/66/54
f 40/67/55 33/51/41 41/54/44 48/68/56
f 50/69/57 49/70/58 57/71/59 58/72/60
f 51/73/61 50/69/57 58/72/60 59/74/62
f 52/75/63 51/73/61 59/74/62 60/76/64
f 53/77/65 52/75/63 60/76/64 61/78/66
f 54/79/67 53/77/65 61/78/66 62/80/68
f 55/81/69 54/79/67 62/80/68 63/82/70
f 56/83/71 55/81/69 63/82/70 64/84/72
f 49/70/58 56/83/71 64/84/72 57/71/59
f 58/85/60 57/86/59 86/125/73 87/126/74
f 59/89/62 58/85/60 87/126/74 88/127/75
f 60/91/64 59/89/62 88/127/75 81/120/76
f 61/93/66 60/94/64 81/119/76 82/121/77
f 62/97/68 61/93/66 82/121/77 83/122/78
f 63/99/70 62/97/68 83/122/78 84/123/79
f 64/101/72 63/99/70 84/123/79 85/124/80
f 57/86/59 64/101/72 85/124/80 86/125/73
f 66/103/81 65/104/82 73/105/83 74/106/84
f 67/107/85 66/103/81 74/106/84 75/108/86
f 68/109/87 67/107/85 75/108/86 76/110/88
f 69/111/89 68/109/87 76/110/88 77/112/90
f 70/113/91 69/111/89 77/112/90 78/114/92
f 71/115/93 70/113/91 78/114/92 79/116/94
f 72/117/95 71/115/93 79/116/94 80/118/96
f 65/104/82 72/117/95 80/118/96 73/105/83
f 82/121/77 81/119/76 89/128/97 90/130/98
f 83/122/78 82/121/77 90/130/98 91/131/99
f 84/123/79 83/122/78 91/131/99 92/132/100
f 85/124/80 84/123/79 92/132/100 93/133/101
f 86/125/73 85/124/80 93/133/101 94/134/102
f 87/126/74 86/125/73 94/134/102 95/135/103
f 88/127/75 87/126/74 95/135/103 96/136/104
f 81/120/76 88/127/75 96/136/104 89/129/97
f 90/130/98 89/128/97 65/95/82 66/96/81
f 91/131/99 90/130/98 66/96/81 67/98/85
f 92/132/100 91/131/99 67/98/85 68/100/87
f 93/133/101 92/132/100 68/100/87 69/102/89
f 94/134/102 93/133/101 69/102/89 70/87/91
f 95/135/103 94/134/102 70/87/91 71/88/93
f 96/136/104 95/135/103 71/88/93 72/90/95
f 89/129/97 96/136/104 72/90/95 65/92/82
f 98/139/21 97/137/20 105/146/105 106/148/106
f 99/140/22 98/139/21 106/148/106 107/149/107
f 100/141/23 99/140/22 107/149/107 108/150/108
f 101/142/24 100/141/23 108/150/108 109/151/109
f 102/143/17 101/142/24 109/151/109 110/152/110
f 103/144/18 102/143/17 110/152/110 111/153/111
f 104/145/19 103/144/18 111/153/111 112/154/112
f 97/138/20 104/145/19 112/154/112 105/147/105
f 106/148/106 105/146/105 17/27/26 18/28/25
f 107/149/107 106/148/106 18/28/25 19/30/29
f 108/150/108 107/149/107 19/30/29 20/32/31
f 109/151/109 108/150/108 20/32/31 21/34/33
f 110/152/110 109/151/109 21/34/33 22/19/35
f 111/153/111 110/152/110 22/19/35 23/20/37
f 112/154/112 111/153/111 23/20/37 24/22/39
f 105/147/105 112/154/112 24/22/39 17/24/26
