# This file uses meters as units for non-parametric coordinates.

mtllib AirDuct_Straight_Short_LOD2.mtl
g default
v 0.000000 26.288582 0.000000
v 0.000000 126.288589 0.000000
v -100.000000 26.288582 0.000000
v -100.000000 126.288589 0.000000
v -100.000000 126.288589 -200.000000
v -100.000000 26.288582 -200.000000
v 0.000000 26.288582 -200.000000
v 0.000000 126.288589 -200.000000
vt 0.007824 0.147236
vt 0.007824 0.005774
vt 0.648984 0.157981
vt 0.648984 0.299443
vt 0.006309 0.609684
vt 0.006309 0.465392
vt 0.647469 0.313251
vt 0.647469 0.457542
vt 0.326889 0.465392
vt 0.326889 0.609684
vt 0.328404 0.299443
vt 0.328404 0.157981
vt 0.326889 0.457542
vt 0.326889 0.313251
vt 0.328404 0.005774
vt 0.328404 0.147236
vn 1.000000 0.000000 0.000000
vn 1.000000 0.000000 0.000000
vn 1.000000 0.000000 0.000000
vn 1.000000 0.000000 0.000000
vn -1.000000 0.000000 0.000000
vn -1.000000 0.000000 0.000000
vn -1.000000 0.000000 0.000000
vn -1.000000 0.000000 0.000000
vn 0.000000 1.000000 0.000000
vn 0.000000 1.000000 0.000000
vn 0.000000 1.000000 0.000000
vn 0.000000 1.000000 0.000000
vn 0.000000 -1.000000 0.000000
vn 0.000000 -1.000000 0.000000
vn 0.000000 -1.000000 0.000000
vn 0.000000 -1.000000 0.000000
g AirDuct_Straight_Short_LOD2 AirDuct_Straight_Short
usemtl lambert16SG
f 8/16/1 2/1/2 1/2/3 7/15/4
f 6/12/5 3/3/6 4/4/7 5/11/8
f 5/10/9 4/5/10 2/6/11 8/9/12
f 7/14/13 1/7/14 3/8/15 6/13/16
