# This file uses meters as units for non-parametric coordinates.

mtllib AirDuct_Straight_Long_LOD2.mtl
g default
v -0.000005 26.288582 0.000000
v -0.000005 26.288582 -400.000000
v -0.000005 126.288589 0.000000
v -0.000005 126.288589 -400.000000
v -100.000000 26.288582 -400.000000
v -100.000000 26.288582 0.000000
v -100.000000 126.288589 -400.000000
v -100.000000 126.288589 0.000000
vt 0.648984 0.147236
vt 0.007824 0.147236
vt 0.007824 0.005774
vt 0.648984 0.005774
vt 0.007824 0.157981
vt 0.648984 0.157981
vt 0.648984 0.299443
vt 0.007824 0.299443
vt 0.647469 0.609684
vt 0.006309 0.609684
vt 0.006309 0.465392
vt 0.647469 0.465392
vt 0.006309 0.313251
vt 0.647469 0.313251
vt 0.647469 0.457542
vt 0.006309 0.457542
vn 1.000000 0.000000 0.000000
vn 1.000000 0.000000 0.000000
vn 1.000000 0.000000 0.000000
vn 1.000000 0.000000 0.000000
vn -1.000000 0.000000 0.000000
vn -1.000000 0.000000 0.000000
vn -1.000000 0.000000 0.000000
vn -1.000000 0.000000 0.000000
vn 0.000000 1.000000 0.000000
vn 0.000000 1.000000 0.000000
vn 0.000000 1.000000 0.000000
vn 0.000000 1.000000 0.000000
vn 0.000000 -1.000000 0.000000
vn 0.000000 -1.000000 0.000000
vn 0.000000 -1.000000 0.000000
vn 0.000000 -1.000000 0.000000
g AirDuct_Straight_Long_LOD2 AirDuct_Straight_Long
usemtl lambert16SG
f 4/1/1 3/2/2 1/3/3 2/4/4
f 5/5/5 6/6/6 8/7/7 7/8/8
f 7/9/9 8/10/10 3/11/11 4/12/12
f 2/13/13 1/14/14 6/15/15 5/16/16
