# This file uses meters as units for non-parametric coordinates.

mtllib AirDuct_Straight_Long_LOD1.mtl
g default
v -99.182449 1.602829 1.899963
v -0.817551 1.602829 1.899963
v -99.182449 125.797165 1.899963
v -0.817551 125.797165 1.899963
v -98.251251 124.800667 -3.370483
v -1.748749 124.800667 -3.370483
v -98.251251 1.602829 -3.370483
v -1.748749 1.602829 -3.370483
v -101.176849 129.102539 -1.043900
v -101.176849 1.602829 -1.043900
v 0.899467 1.602829 -1.321076
v 0.899467 128.647186 -1.321076
v -101.629951 1.602829 -3.370483
v -101.629951 129.733582 -3.370483
v 1.629944 1.602829 -3.370483
v 1.629944 129.733582 -3.370483
v -3.816894 0.000000 4.967651
v 2.662628 0.000000 4.967651
v -3.816894 1.602829 4.967651
v 2.662628 1.602829 4.967651
v -3.816894 1.602829 -5.387329
v 2.662628 1.602829 -5.387329
v -3.816894 0.000000 -5.387329
v 2.662628 0.000000 -5.387329
v -98.657043 25.950867 1.899963
v -98.657043 27.943861 1.899963
v -98.657043 30.883780 -3.370361
v -98.657043 25.950867 -3.370361
v -1.748749 27.943861 1.899963
v -1.748749 30.883789 -3.370483
v -1.748749 25.950867 -3.370483
v -1.748749 25.950867 1.899963
v -99.182449 1.602829 -198.099976
v -0.817551 1.602829 -198.099976
v -99.182449 125.797165 -198.099976
v -0.817551 125.797165 -198.099976
v -98.251251 124.800667 -203.370483
v -1.748749 124.800667 -203.370483
v -98.251251 1.602829 -203.370483
v -1.748749 1.602829 -203.370483
v -101.176849 129.102539 -201.043884
v -101.176849 1.602829 -201.043884
v 1.176855 1.602829 -201.043884
v 1.176855 129.102539 -201.043884
v -101.629951 1.602829 -203.370483
v -101.629951 129.733582 -203.370483
v 1.629944 1.602829 -203.370483
v 1.629944 129.733582 -203.370483
v -3.816894 0.000000 -195.032288
v 2.662628 0.000000 -195.032288
v -3.816894 1.602829 -195.032288
v 2.662628 1.602829 -195.032288
v -3.816894 1.602829 -205.387329
v 2.662628 1.602829 -205.387329
v -3.816894 0.000000 -205.387329
v 2.662628 0.000000 -205.387329
v -98.657043 25.950867 -198.099976
v -98.657043 27.943861 -198.099976
v -98.657043 30.883780 -203.370361
v -98.657043 25.950867 -203.370361
v -1.748749 27.943861 -198.099976
v -1.748749 30.883789 -203.370483
v -1.748749 25.950867 -203.370483
v -1.748749 25.950867 -198.099976
v 0.000000 26.288582 0.000000
v 0.000000 26.288582 -400.000000
v 0.000000 126.288582 0.000000
v 0.000000 126.288582 -400.000000
v -0.574265 31.713863 0.000000
v -0.574265 119.967293 0.000000
v -0.574265 31.713863 -400.000000
v -0.574265 119.967293 -400.000000
v -4.990509 125.714317 0.000000
v -4.990509 125.714317 -400.000000
v -4.990509 26.862843 0.000000
v -4.990509 26.862843 -400.000000
v -100.000000 26.288582 -400.000000
v -100.000000 26.288582 0.000000
v -100.000000 126.288582 -400.000000
v -100.000000 126.288582 0.000000
v -99.425735 31.713863 -400.000000
v -99.425735 119.967293 -400.000000
v -99.425735 31.713863 0.000000
v -99.425735 119.967293 0.000000
v -95.009491 125.714317 -400.000000
v -95.009491 125.714317 0.000000
v -95.009491 26.862843 -400.000000
v -95.009491 26.862843 0.000000
v -103.147087 0.000000 4.967651
v -96.667542 0.000000 4.967651
v -103.147087 1.602829 4.967651
v -96.667542 1.602829 4.967651
v -103.147087 1.602829 -5.387329
v -96.667542 1.602829 -5.387329
v -103.147087 0.000000 -5.387329
v -96.667542 0.000000 -5.387329
v -96.667542 0.000000 -195.032288
v -103.147064 0.000000 -195.032288
v -96.667542 1.602829 -195.032288
v -103.147064 1.602829 -195.032288
v -96.667542 1.602829 -205.387329
v -103.147064 1.602829 -205.387329
v -96.667542 0.000000 -205.387329
v -103.147064 0.000000 -205.387329
vt -0.711671 0.712970
vt -0.834075 0.712970
vt -0.834075 0.708360
vt -0.711671 0.708360
vt -0.698687 0.674450
vt -0.698687 0.669840
vt -0.545799 0.669840
vt -0.545799 0.674450
vt -0.698966 0.658470
vt -0.698966 0.653860
vt -0.546082 0.653860
vt -0.546082 0.658470
vt -0.424366 0.987320
vt -0.424366 0.836857
vt -0.420239 0.836857
vt -0.420239 0.993345
vt -0.542225 0.836857
vt -0.542225 0.987320
vt -0.546352 0.993345
vt -0.546352 0.836857
vt -0.525058 0.689239
vt -0.525058 0.686060
vt -0.368588 0.686060
vt -0.368588 0.689239
vt -0.364011 0.653297
vt -0.364011 0.656477
vt -0.520493 0.656477
vt -0.520493 0.653297
vt -0.856235 0.646268
vt -0.856235 0.649448
vt -0.982336 0.649448
vt -0.982336 0.646268
vt -0.519032 0.671143
vt -0.368577 0.671143
vt -0.368577 0.677580
vt -0.519032 0.677580
vt -0.984863 0.683646
vt -0.867008 0.683646
vt -0.867008 0.690082
vt -0.984863 0.690082
vt -0.548215 0.642080
vt -0.698674 0.642080
vt -0.698674 0.635643
vt -0.548215 0.635643
vt -0.734979 0.935956
vt -0.727080 0.935956
vt -0.727080 0.937910
vt -0.734979 0.937910
vt -0.772198 0.929193
vt -0.764288 0.929193
vt -0.764288 0.941833
vt -0.772198 0.941833
vt -0.727080 0.931108
vt -0.734979 0.931108
vt -0.734979 0.929159
vt -0.727080 0.929159
vt -0.749235 0.929185
vt -0.741324 0.929185
vt -0.741324 0.941827
vt -0.749235 0.941827
vt -0.725240 0.939561
vt -0.712612 0.939562
vt -0.712612 0.941516
vt -0.725240 0.941516
vt -0.725080 0.929387
vt -0.712453 0.929387
vt -0.712453 0.931342
vt -0.725080 0.931342
vt -0.833835 0.672804
vt -0.833835 0.670370
vt -0.715485 0.670370
vt -0.715485 0.672804
vt -0.715535 0.685729
vt -0.715535 0.691753
vt -0.833885 0.691753
vt -0.833885 0.685729
vt -0.715559 0.634963
vt -0.715559 0.641400
vt -0.833905 0.641399
vt -0.833905 0.634963
vt -0.711671 0.712970
vt -0.834075 0.712970
vt -0.834075 0.708360
vt -0.711671 0.708360
vt -0.698687 0.674450
vt -0.698687 0.669840
vt -0.545799 0.669840
vt -0.545799 0.674450
vt -0.698966 0.658470
vt -0.698966 0.653860
vt -0.546082 0.653860
vt -0.546082 0.658470
vt -0.424366 0.987320
vt -0.424366 0.836857
vt -0.420239 0.836857
vt -0.420239 0.993345
vt -0.542225 0.836857
vt -0.542225 0.987320
vt -0.546352 0.993345
vt -0.546352 0.836857
vt -0.525058 0.689239
vt -0.525058 0.686060
vt -0.368588 0.686060
vt -0.368588 0.689239
vt -0.364011 0.653297
vt -0.364011 0.656477
vt -0.520493 0.656477
vt -0.520493 0.653297
vt -0.856235 0.646268
vt -0.856235 0.649448
vt -0.982336 0.649448
vt -0.982336 0.646268
vt -0.519032 0.671143
vt -0.368577 0.671143
vt -0.368577 0.677580
vt -0.519032 0.677580
vt -0.984863 0.683646
vt -0.867008 0.683646
vt -0.867008 0.690082
vt -0.984863 0.690082
vt -0.548215 0.642080
vt -0.698674 0.642080
vt -0.698674 0.635643
vt -0.548215 0.635643
vt -0.734979 0.935956
vt -0.727080 0.935956
vt -0.727080 0.937910
vt -0.734979 0.937910
vt -0.772198 0.929193
vt -0.764288 0.929193
vt -0.764288 0.941833
vt -0.772198 0.941833
vt -0.727080 0.931108
vt -0.734979 0.931108
vt -0.734979 0.929159
vt -0.727080 0.929159
vt -0.749235 0.929185
vt -0.741324 0.929185
vt -0.741324 0.941827
vt -0.749235 0.941827
vt -0.725240 0.939561
vt -0.712612 0.939562
vt -0.712612 0.941516
vt -0.725240 0.941516
vt -0.725080 0.929387
vt -0.712453 0.929387
vt -0.712453 0.931342
vt -0.725080 0.931342
vt -0.833835 0.672804
vt -0.833835 0.670370
vt -0.715485 0.670370
vt -0.715485 0.672804
vt -0.715535 0.685729
vt -0.715535 0.691753
vt -0.833885 0.691753
vt -0.833885 0.685729
vt -0.715559 0.634963
vt -0.715559 0.641400
vt -0.833905 0.641399
vt -0.833905 0.634963
vt 0.288329 0.712970
vt 0.165925 0.712970
vt 0.165925 0.708360
vt 0.288329 0.708360
vt 0.301313 0.674450
vt 0.301313 0.669840
vt 0.454200 0.669840
vt 0.454200 0.674450
vt 0.301034 0.658470
vt 0.301034 0.653860
vt 0.453918 0.653860
vt 0.453918 0.658470
vt 0.575634 0.987320
vt 0.575634 0.836857
vt 0.579761 0.836857
vt 0.579761 0.993345
vt 0.457775 0.836857
vt 0.457775 0.987320
vt 0.453648 0.993345
vt 0.453648 0.836857
vt 0.474942 0.689239
vt 0.474942 0.686060
vt 0.631412 0.686060
vt 0.631412 0.689239
vt 0.635989 0.653297
vt 0.635989 0.656477
vt 0.479507 0.656477
vt 0.479507 0.653297
vt 0.143765 0.646268
vt 0.143765 0.649448
vt 0.017664 0.649448
vt 0.017664 0.646268
vt 0.480968 0.671143
vt 0.631423 0.671143
vt 0.631423 0.677580
vt 0.480968 0.677580
vt 0.015137 0.683646
vt 0.132992 0.683646
vt 0.132992 0.690082
vt 0.015137 0.690082
vt 0.451785 0.642080
vt 0.301326 0.642080
vt 0.301326 0.635643
vt 0.451785 0.635643
vt 0.008100 0.793081
vt 0.008100 0.786285
vt 0.496625 0.786285
vt 0.496625 0.793081
vt 0.008099 0.744632
vt 0.496625 0.744632
vt 0.008100 0.777863
vt 0.496625 0.777863
vt 0.008099 0.730509
vt 0.496625 0.730509
vt 0.008099 0.737305
vt 0.496625 0.737305
vt 0.010104 0.820304
vt 0.010104 0.813507
vt 0.498629 0.813507
vt 0.498629 0.820304
vt 0.498629 0.754700
vt 0.010104 0.754700
vt 0.010104 0.805086
vt 0.498629 0.805086
vt 0.498629 0.768823
vt 0.010104 0.768823
vt 0.498629 0.762027
vt 0.010104 0.762027
vt 0.648984 0.147236
vt 0.007824 0.147236
vt 0.007824 0.005774
vt 0.648984 0.005774
vt 0.007824 0.157981
vt 0.648984 0.157981
vt 0.648984 0.299443
vt 0.007824 0.299443
vt 0.647469 0.609684
vt 0.006309 0.609684
vt 0.006309 0.465392
vt 0.647469 0.465392
vt 0.006309 0.313251
vt 0.647469 0.313251
vt 0.647469 0.457542
vt 0.006309 0.457542
vt 0.265021 0.935956
vt 0.272920 0.935956
vt 0.272920 0.937910
vt 0.265021 0.937910
vt 0.227802 0.929193
vt 0.235712 0.929193
vt 0.235712 0.941833
vt 0.227802 0.941833
vt 0.272920 0.931108
vt 0.265021 0.931108
vt 0.265021 0.929159
vt 0.272921 0.929159
vt 0.250765 0.929185
vt 0.258676 0.929185
vt 0.258676 0.941827
vt 0.250765 0.941827
vt 0.274760 0.939561
vt 0.287388 0.939562
vt 0.287388 0.941516
vt 0.274760 0.941516
vt 0.274920 0.929387
vt 0.287547 0.929387
vt 0.287547 0.931342
vt 0.274920 0.931342
vt 0.265021 0.932385
vt 0.272920 0.932385
vt 0.272920 0.934339
vt 0.265021 0.934339
vt 0.215847 0.929352
vt 0.223758 0.929352
vt 0.223758 0.941994
vt 0.215847 0.941994
vt 0.272920 0.941625
vt 0.265021 0.941625
vt 0.265021 0.939675
vt 0.272920 0.939675
vt 0.239512 0.929188
vt 0.247422 0.929188
vt 0.247422 0.941828
vt 0.239512 0.941828
vt 0.274892 0.932828
vt 0.287524 0.932828
vt 0.287524 0.934783
vt 0.274892 0.934783
vt 0.274818 0.936226
vt 0.287450 0.936226
vt 0.287450 0.938181
vt 0.274818 0.938182
vt 0.166165 0.672804
vt 0.166165 0.670370
vt 0.284515 0.670370
vt 0.284515 0.672804
vt 0.284465 0.685729
vt 0.284465 0.691753
vt 0.166115 0.691753
vt 0.166115 0.685729
vt 0.284441 0.634963
vt 0.284441 0.641400
vt 0.166095 0.641399
vt 0.166095 0.634963
vt -0.734979 0.935956
vt -0.734979 0.937910
vt -0.727080 0.937910
vt -0.727080 0.935956
vt -0.772198 0.929193
vt -0.772198 0.941833
vt -0.764288 0.941833
vt -0.764288 0.929193
vt -0.727080 0.931108
vt -0.727080 0.929159
vt -0.734979 0.929159
vt -0.734979 0.931108
vt -0.749235 0.929185
vt -0.749235 0.941827
vt -0.741324 0.941827
vt -0.741324 0.929185
vt -0.725240 0.939561
vt -0.725240 0.941516
vt -0.712612 0.941516
vt -0.712612 0.939562
vt -0.725080 0.929387
vt -0.725080 0.931342
vt -0.712453 0.931342
vt -0.712453 0.929387
vn 0.002585 0.707708 0.706501
vn 0.002585 0.707708 0.706501
vn 0.002585 0.707708 0.706501
vn 0.002585 0.707708 0.706501
vn 0.882452 0.000000 0.470403
vn 0.882452 0.000000 0.470403
vn 0.882452 0.000000 0.470403
vn 0.882452 0.000000 0.470403
vn -0.827897 0.000000 0.560881
vn -0.827897 0.000000 0.560881
vn -0.827896 0.000000 0.560881
vn -0.827897 0.000000 0.560881
vn 0.000000 0.000000 -1.000000
vn 0.000000 0.000000 -1.000000
vn 0.000000 0.000000 -1.000000
vn 0.000000 0.000000 -1.000000
vn 0.000000 0.000000 -1.000000
vn 0.000000 0.000000 -1.000000
vn 0.000000 0.000000 -1.000000
vn 0.000000 0.000000 -1.000000
vn 0.000000 0.000000 -1.000000
vn 0.000000 0.000000 -1.000000
vn 0.000000 0.000000 -1.000000
vn 0.000000 0.000000 -1.000000
vn -0.981559 0.000000 0.191159
vn -0.981559 0.000000 0.191159
vn -0.981559 0.000000 0.191159
vn -0.981559 0.000000 0.191159
vn 0.941954 0.000000 0.335743
vn 0.941954 0.000000 0.335743
vn 0.941954 0.000000 0.335743
vn 0.941954 0.000000 0.335743
vn 0.002558 0.930816 0.365481
vn 0.002558 0.930816 0.365481
vn 0.002558 0.930816 0.365481
vn 0.002558 0.930816 0.365481
vn -0.984748 0.000000 0.173988
vn -0.984748 0.000000 0.173988
vn -0.984748 0.000000 0.173988
vn -0.984748 0.000000 0.173988
vn 0.000000 -0.982591 0.185783
vn 0.000000 -0.982591 0.185783
vn 0.000000 -0.982591 0.185783
vn 0.000000 -0.982591 0.185783
vn 0.984748 0.000000 0.173988
vn 0.984748 0.000000 0.173988
vn 0.984748 0.000000 0.173988
vn 0.984748 0.000000 0.173988
vn 0.000000 0.000000 1.000000
vn 0.000000 0.000000 1.000000
vn 0.000000 0.000000 1.000000
vn 0.000000 0.000000 1.000000
vn 0.000000 1.000000 0.000000
vn 0.000000 1.000000 0.000000
vn 0.000000 1.000000 0.000000
vn 0.000000 1.000000 0.000000
vn 0.000000 0.000000 -1.000000
vn 0.000000 0.000000 -1.000000
vn 0.000000 0.000000 -1.000000
vn 0.000000 0.000000 -1.000000
vn 0.000000 -1.000000 0.000000
vn 0.000000 -1.000000 0.000000
vn 0.000000 -1.000000 0.000000
vn 0.000000 -1.000000 0.000000
vn 1.000000 0.000000 0.000000
vn 1.000000 0.000000 0.000000
vn 1.000000 0.000000 0.000000
vn 1.000000 0.000000 0.000000
vn -1.000000 0.000000 0.000000
vn -1.000000 0.000000 0.000000
vn -1.000000 0.000000 0.000000
vn -1.000000 0.000000 0.000000
vn 0.000000 0.000000 1.000000
vn 0.000000 0.000000 1.000000
vn 0.000000 0.000000 1.000000
vn 0.000000 0.000000 1.000000
vn -0.000001 0.000000 -1.000000
vn -0.000001 0.000000 -1.000000
vn -0.000001 0.000000 -1.000000
vn -0.000001 0.000000 -1.000000
vn 0.000000 -1.000000 0.000000
vn 0.000000 -1.000000 0.000000
vn 0.000000 -1.000000 0.000000
vn 0.000000 -1.000000 0.000000
vn 0.000000 0.665095 0.746759
vn 0.000000 0.665095 0.746759
vn 0.000000 0.665095 0.746759
vn 0.000000 0.665095 0.746759
vn 0.827900 0.000000 0.560876
vn 0.827900 0.000000 0.560876
vn 0.827900 0.000000 0.560876
vn 0.827900 0.000000 0.560876
vn -0.827901 0.000000 0.560875
vn -0.827901 0.000000 0.560875
vn -0.827901 0.000000 0.560875
vn -0.827901 0.000000 0.560875
vn -0.000000 0.000000 -1.000000
vn -0.000001 0.000000 -1.000000
vn -0.000001 0.000000 -1.000000
vn -0.000000 0.000000 -1.000000
vn 0.000000 0.000000 -1.000000
vn 0.000000 0.000000 -1.000000
vn 0.000000 0.000000 -1.000000
vn 0.000000 0.000000 -1.000000
vn -0.981559 0.000000 0.191157
vn -0.981559 0.000000 0.191157
vn -0.981560 0.000000 0.191157
vn -0.981559 0.000000 0.191157
vn 0.981560 0.000000 0.191152
vn 0.981560 0.000000 0.191152
vn 0.981560 0.000000 0.191152
vn 0.981560 0.000000 0.191152
vn 0.000000 0.965129 0.261774
vn 0.000000 0.965129 0.261774
vn 0.000000 0.965129 0.261774
vn 0.000000 0.965129 0.261774
vn -0.984748 0.000000 0.173986
vn -0.984748 0.000000 0.173986
vn -0.984748 0.000000 0.173986
vn -0.984748 0.000000 0.173986
vn 0.000000 -0.982591 0.185781
vn 0.000000 -0.982591 0.185781
vn 0.000000 -0.982591 0.185781
vn 0.000000 -0.982591 0.185781
vn 0.984748 0.000000 0.173986
vn 0.984748 0.000000 0.173986
vn 0.984748 0.000000 0.173986
vn 0.984748 0.000000 0.173986
vn 0.000000 0.000000 1.000000
vn 0.000000 0.000000 1.000000
vn 0.000000 0.000000 1.000000
vn 0.000000 0.000000 1.000000
vn 0.000000 1.000000 0.000000
vn 0.000000 1.000000 0.000000
vn 0.000000 1.000000 0.000000
vn 0.000000 1.000000 0.000000
vn 0.000000 0.000000 -1.000000
vn 0.000000 0.000000 -1.000000
vn 0.000000 0.000000 -1.000000
vn 0.000000 0.000000 -1.000000
vn 0.000000 -1.000000 0.000000
vn 0.000000 -1.000000 0.000000
vn 0.000000 -1.000000 0.000000
vn 0.000000 -1.000000 0.000000
vn 1.000000 0.000000 0.000000
vn 1.000000 0.000000 0.000000
vn 1.000000 0.000000 0.000000
vn 1.000000 0.000000 0.000000
vn -1.000000 0.000000 0.000000
vn -1.000000 0.000000 0.000000
vn -1.000000 0.000000 0.000000
vn -1.000000 0.000000 0.000000
vn 0.000000 0.000000 1.000000
vn 0.000000 0.000000 1.000000
vn 0.000000 0.000000 1.000000
vn 0.000000 0.000000 1.000000
vn -0.000001 0.000000 -1.000000
vn -0.000001 0.000000 -1.000000
vn -0.000001 0.000000 -1.000000
vn -0.000001 0.000000 -1.000000
vn 0.000000 -1.000000 0.000000
vn 0.000000 -1.000000 0.000000
vn 0.000000 -1.000000 0.000000
vn 0.000000 -1.000000 0.000000
vn 0.002585 0.707708 0.706501
vn 0.002585 0.707708 0.706501
vn 0.002585 0.707708 0.706501
vn 0.002585 0.707708 0.706501
vn 0.882452 0.000000 0.470403
vn 0.882452 0.000000 0.470403
vn 0.882452 0.000000 0.470403
vn 0.882452 0.000000 0.470403
vn -0.827897 0.000000 0.560881
vn -0.827897 0.000000 0.560881
vn -0.827896 0.000000 0.560881
vn -0.827897 0.000000 0.560881
vn 0.000000 0.000000 -1.000000
vn 0.000000 0.000000 -1.000000
vn 0.000000 0.000000 -1.000000
vn 0.000000 0.000000 -1.000000
vn 0.000000 0.000000 -1.000000
vn 0.000000 0.000000 -1.000000
vn 0.000000 0.000000 -1.000000
vn 0.000000 0.000000 -1.000000
vn 0.000000 0.000000 -1.000000
vn 0.000000 0.000000 -1.000000
vn 0.000000 0.000000 -1.000000
vn 0.000000 0.000000 -1.000000
vn -0.981559 0.000000 0.191159
vn -0.981559 0.000000 0.191159
vn -0.981559 0.000000 0.191159
vn -0.981559 0.000000 0.191159
vn 0.941954 0.000000 0.335743
vn 0.941954 0.000000 0.335743
vn 0.941954 0.000000 0.335743
vn 0.941954 0.000000 0.335743
vn 0.002558 0.930816 0.365481
vn 0.002558 0.930816 0.365481
vn 0.002558 0.930816 0.365481
vn 0.002558 0.930816 0.365481
vn -0.984748 0.000000 0.173988
vn -0.984748 0.000000 0.173988
vn -0.984748 0.000000 0.173988
vn -0.984748 0.000000 0.173988
vn 0.000000 -0.982591 0.185783
vn 0.000000 -0.982591 0.185783
vn 0.000000 -0.982591 0.185783
vn 0.000000 -0.982591 0.185783
vn 0.984748 0.000000 0.173988
vn 0.984748 0.000000 0.173988
vn 0.984748 0.000000 0.173988
vn 0.984748 0.000000 0.173988
vn -0.114317 0.993444 0.000000
vn -0.114317 0.993444 0.000000
vn -0.114317 0.993444 0.000000
vn -0.114317 0.993444 0.000000
vn 0.995899 -0.090474 0.000000
vn 0.995899 -0.090474 0.000000
vn 0.995899 -0.090474 0.000000
vn 0.995899 -0.090474 0.000000
vn 0.994445 0.105262 0.000000
vn 0.994445 0.105262 0.000000
vn 0.994445 0.105262 0.000000
vn 0.994445 0.105262 0.000000
vn -0.114316 -0.993445 0.000000
vn -0.114316 -0.993445 0.000000
vn -0.114316 -0.993445 0.000000
vn -0.114316 -0.993445 0.000000
vn 0.114317 0.993444 0.000000
vn 0.114317 0.993444 0.000000
vn 0.114317 0.993444 0.000000
vn 0.114317 0.993444 0.000000
vn -0.995899 -0.090474 0.000000
vn -0.995899 -0.090474 0.000000
vn -0.995899 -0.090474 0.000000
vn -0.995899 -0.090474 0.000000
vn -0.994444 0.105262 0.000000
vn -0.994444 0.105262 0.000000
vn -0.994444 0.105262 0.000000
vn -0.994444 0.105262 0.000000
vn 0.114316 -0.993444 0.000000
vn 0.114316 -0.993444 0.000000
vn 0.114316 -0.993444 0.000000
vn 0.114316 -0.993444 0.000000
vn 1.000000 0.000000 0.000000
vn 1.000000 0.000000 0.000000
vn 1.000000 0.000000 0.000000
vn 1.000000 0.000000 0.000000
vn -1.000000 0.000000 0.000000
vn -1.000000 0.000000 0.000000
vn -1.000000 0.000000 0.000000
vn -1.000000 0.000000 0.000000
vn 0.000000 1.000000 0.000000
vn 0.000000 1.000000 0.000000
vn 0.000000 1.000000 0.000000
vn 0.000000 1.000000 0.000000
vn 0.000000 -1.000000 0.000000
vn 0.000000 -1.000000 0.000000
vn 0.000000 -1.000000 0.000000
vn 0.000000 -1.000000 0.000000
vn 0.000000 0.000000 1.000000
vn 0.000000 0.000000 1.000000
vn 0.000000 0.000000 1.000000
vn 0.000000 0.000000 1.000000
vn 0.000000 1.000000 0.000000
vn 0.000000 1.000000 0.000000
vn 0.000000 1.000000 0.000000
vn 0.000000 1.000000 0.000000
vn 0.000000 0.000000 -1.000000
vn 0.000000 0.000000 -1.000000
vn 0.000000 0.000000 -1.000000
vn 0.000000 0.000000 -1.000000
vn 0.000000 -1.000000 0.000000
vn 0.000000 -1.000000 0.000000
vn 0.000000 -1.000000 0.000000
vn 0.000000 -1.000000 0.000000
vn 1.000000 0.000000 0.000000
vn 1.000000 0.000000 0.000000
vn 1.000000 0.000000 0.000000
vn 1.000000 0.000000 0.000000
vn -1.000000 0.000000 0.000000
vn -1.000000 0.000000 0.000000
vn -1.000000 0.000000 0.000000
vn -1.000000 0.000000 0.000000
vn 0.000000 0.000000 1.000000
vn 0.000000 0.000000 1.000000
vn 0.000000 0.000000 1.000000
vn 0.000000 0.000000 1.000000
vn 0.000000 1.000000 0.000000
vn 0.000000 1.000000 0.000000
vn 0.000000 1.000000 0.000000
vn 0.000000 1.000000 0.000000
vn 0.000000 0.000000 -1.000000
vn 0.000000 0.000000 -1.000000
vn 0.000000 0.000000 -1.000000
vn 0.000000 0.000000 -1.000000
vn 0.000000 -1.000000 0.000000
vn 0.000000 -1.000000 0.000000
vn 0.000000 -1.000000 0.000000
vn 0.000000 -1.000000 0.000000
vn 1.000000 0.000000 0.000000
vn 1.000000 0.000000 0.000000
vn 1.000000 0.000000 0.000000
vn 1.000000 0.000000 0.000000
vn -1.000000 0.000000 0.000000
vn -1.000000 0.000000 0.000000
vn -1.000000 0.000000 0.000000
vn -1.000000 0.000000 0.000000
vn 0.000000 0.000000 1.000000
vn 0.000000 0.000000 1.000000
vn 0.000000 0.000000 1.000000
vn 0.000000 0.000000 1.000000
vn -0.000001 0.000000 -1.000000
vn -0.000001 0.000000 -1.000000
vn -0.000001 0.000000 -1.000000
vn -0.000001 0.000000 -1.000000
vn 0.000000 -1.000000 0.000000
vn 0.000000 -1.000000 0.000000
vn 0.000000 -1.000000 0.000000
vn 0.000000 -1.000000 0.000000
vn 0.000000 0.000000 1.000000
vn 0.000000 0.000000 1.000000
vn 0.000000 0.000000 1.000000
vn 0.000000 0.000000 1.000000
vn 0.000000 1.000000 0.000000
vn 0.000000 1.000000 0.000000
vn 0.000000 1.000000 0.000000
vn 0.000000 1.000000 0.000000
vn 0.000000 0.000000 -1.000000
vn 0.000000 0.000000 -1.000000
vn 0.000000 0.000000 -1.000000
vn 0.000000 0.000000 -1.000000
vn 0.000000 -1.000000 0.000000
vn 0.000000 -1.000000 0.000000
vn 0.000000 -1.000000 0.000000
vn 0.000000 -1.000000 0.000000
vn -1.000000 0.000000 0.000000
vn -1.000000 0.000000 0.000000
vn -1.000000 0.000000 0.000000
vn -1.000000 0.000000 0.000000
vn 1.000000 0.000000 0.000000
vn 1.000000 0.000000 0.000000
vn 1.000000 0.000000 0.000000
vn 1.000000 0.000000 0.000000
g AirDuct_Straight_Long_LOD1 AirDuct_Straight_Long
usemtl lambert16SG
f 3/1/1 4/2/2 12/3/3 9/4/4
f 2/5/5 11/6/6 12/7/7 4/8/8
f 10/9/9 1/10/10 3/11/11 9/12/12
f 5/13/13 7/14/14 13/15/15 14/16/16
f 8/17/17 6/18/18 16/19/19 15/20/20
f 6/18/21 5/13/22 14/16/23 16/19/24
f 13/21/25 10/22/26 9/23/27 14/24/28
f 16/25/29 12/26/30 11/27/31 15/28/32
f 14/29/33 9/30/34 12/31/35 16/32/36
f 2/33/37 4/34/38 6/35/39 8/36/40
f 4/37/41 3/38/42 5/39/43 6/40/44
f 3/41/45 1/42/46 7/43/47 5/44/48
f 17/45/49 18/46/50 20/47/51 19/48/52
f 19/49/53 20/50/54 22/51/55 21/52/56
f 21/53/57 22/54/58 24/55/59 23/56/60
f 23/57/61 24/58/62 18/59/63 17/60/64
f 18/61/65 24/62/66 22/63/67 20/64/68
f 23/65/69 17/66/70 19/67/71 21/68/72
f 32/69/73 29/70/74 26/71/75 25/72/76
f 28/73/77 27/74/78 30/75/79 31/76/80
f 25/77/81 28/78/82 31/79/83 32/80/84
f 35/81/85 36/82/86 44/83/87 41/84/88
f 34/85/89 43/86/90 44/87/91 36/88/92
f 42/89/93 33/90/94 35/91/95 41/92/96
f 37/93/97 39/94/98 45/95/99 46/96/100
f 40/97/101 38/98/102 48/99/103 47/100/104
f 38/98/102 37/93/97 46/96/100 48/99/103
f 45/101/105 42/102/106 41/103/107 46/104/108
f 48/105/109 44/106/110 43/107/111 47/108/112
f 46/109/113 41/110/114 44/111/115 48/112/116
f 34/113/117 36/114/118 38/115/119 40/116/120
f 36/117/121 35/118/122 37/119/123 38/120/124
f 35/121/125 33/122/126 39/123/127 37/124/128
f 49/125/129 50/126/130 52/127/131 51/128/132
f 51/129/133 52/130/134 54/131/135 53/132/136
f 53/133/137 54/134/138 56/135/139 55/136/140
f 55/137/141 56/138/142 50/139/143 49/140/144
f 50/141/145 56/142/146 54/143/147 52/144/148
f 55/145/149 49/146/150 51/147/151 53/148/152
f 64/149/153 61/150/154 58/151/155 57/152/156
f 60/153/157 59/154/158 62/155/159 63/156/160
f 57/157/161 60/158/162 63/159/163 64/160/164
f 3/161/165 4/162/166 12/163/167 9/164/168
f 2/165/169 11/166/170 12/167/171 4/168/172
f 10/169/173 1/170/174 3/171/175 9/172/176
f 5/173/177 7/174/178 13/175/179 14/176/180
f 8/177/181 6/178/182 16/179/183 15/180/184
f 6/178/185 5/173/186 14/176/187 16/179/188
f 13/181/189 10/182/190 9/183/191 14/184/192
f 16/185/193 12/186/194 11/187/195 15/188/196
f 14/189/197 9/190/198 12/191/199 16/192/200
f 2/193/201 4/194/202 6/195/203 8/196/204
f 4/197/205 3/198/206 5/199/207 6/200/208
f 3/201/209 1/202/210 7/203/211 5/204/212
f 73/205/213 67/206/214 68/207/215 74/208/216
f 67/206/217 70/211/218 72/212/219 68/207/220
f 69/209/221 65/215/222 66/216/223 71/210/224
f 65/215/225 75/213/226 76/214/227 66/216/228
f 85/217/229 79/218/230 80/219/231 86/220/232
f 79/218/233 82/223/234 84/224/235 80/219/236
f 81/221/237 77/227/238 78/228/239 83/222/240
f 77/227/241 87/225/242 88/226/243 78/228/244
f 72/229/245 70/230/246 69/231/247 71/232/248
f 81/233/249 83/234/250 84/235/251 82/236/252
f 85/237/253 86/238/254 73/239/255 74/240/256
f 76/241/257 75/242/258 88/243/259 87/244/260
f 17/245/261 18/246/262 20/247/263 19/248/264
f 19/249/265 20/250/266 22/251/267 21/252/268
f 21/253/269 22/254/270 24/255/271 23/256/272
f 23/257/273 24/258/274 18/259/275 17/260/276
f 18/261/277 24/262/278 22/263/279 20/264/280
f 23/265/281 17/266/282 19/267/283 21/268/284
f 89/269/285 90/270/286 92/271/287 91/272/288
f 91/273/289 92/274/290 94/275/291 93/276/292
f 93/277/293 94/278/294 96/279/295 95/280/296
f 95/281/297 96/282/298 90/283/299 89/284/300
f 90/285/301 96/286/302 94/287/303 92/288/304
f 95/289/305 89/290/306 91/291/307 93/292/308
f 32/293/309 29/294/310 26/295/311 25/296/312
f 28/297/313 27/298/314 30/299/315 31/300/316
f 25/301/317 28/302/318 31/303/319 32/304/320
f 97/305/321 99/306/322 100/307/323 98/308/324
f 99/309/325 101/310/326 102/311/327 100/312/328
f 101/313/329 103/314/330 104/315/331 102/316/332
f 103/317/333 97/318/334 98/319/335 104/320/336
f 98/321/337 100/322/338 102/323/339 104/324/340
f 103/325/341 101/326/342 99/327/343 97/328/344
