# This file uses meters as units for non-parametric coordinates.

mtllib AirDuct_Y_Right_LOD1.mtl
g default
v 29.598907 126.288582 -70.585815
v 18.915497 126.288582 -58.910458
v 10.979523 126.288582 -45.365692
v 4.977051 126.288582 -30.662262
v 1.231201 126.288582 -15.608032
v 0.000061 126.288582 0.000000
v -41.182190 126.288582 -141.348022
v -61.229130 126.288582 -117.182922
v -77.879547 126.288582 -90.627411
v -89.855591 126.288582 -61.489750
v -97.119995 126.288582 -31.220734
v -100.000000 126.288582 0.000000
v -41.182190 26.288567 -141.348022
v -61.229061 26.288567 -117.182884
v -77.879547 26.288567 -90.627411
v -89.859619 26.288567 -61.486328
v -97.119995 26.288567 -31.220734
v -100.000000 26.288582 0.000000
v 29.605284 26.288582 -70.591064
v 18.927246 26.288582 -58.920258
v 10.992157 26.288582 -45.376221
v 4.985443 26.288582 -30.669250
v 1.231201 26.288582 -15.608032
v 0.000061 26.288582 0.000000
v -41.182190 119.967293 -141.348022
v -40.777374 31.713852 -140.943207
v -61.229130 119.967293 -117.182922
v -60.765926 31.713852 -116.846397
v -77.879547 119.967293 -90.627411
v -77.369461 31.713852 -90.367508
v -89.758240 119.967293 -61.570679
v -89.222321 31.713852 -61.386597
v -97.119995 119.967293 -31.220734
v -96.562714 31.713852 -31.124418
v -100.000000 119.967293 0.000000
v -99.425751 31.713863 0.000000
v 28.869081 31.713863 -70.720398
v 28.842667 119.967293 -70.698456
v 18.477036 31.713863 -59.267513
v 18.465942 119.967293 -59.258289
v 10.499787 31.713863 -45.650864
v 10.488846 119.967293 -45.641754
v 4.460556 31.713863 -30.862427
v 4.456360 119.967293 -30.858965
v 0.670441 31.713863 -15.701462
v 0.670441 119.967293 -15.701462
v -0.574219 31.713863 0.000000
v -0.574219 119.967293 0.000000
v 25.813080 125.714317 -74.600433
v 14.698762 125.714317 -62.375565
v 6.359100 125.714317 -48.132217
v -0.036133 125.714317 -32.576584
v -4.139099 125.714317 -16.549942
v -4.990540 125.714317 0.000000
v 25.882418 26.862843 -74.568329
v 14.799042 26.862843 -62.371582
v 6.469802 26.862843 -48.141479
v 0.064041 26.862843 -32.583603
v -4.070648 26.862843 -16.539063
v -4.990540 26.862843 0.000000
v -37.157959 26.862827 -137.323792
v -56.624878 26.862827 -113.837708
v -72.808716 26.862827 -88.043701
v -84.601013 26.862827 -59.599640
v -91.659821 26.862827 -30.196686
v -95.009491 26.862827 0.000000
v -37.380157 125.714317 -137.546021
v -56.879120 125.714317 -114.022461
v -73.088684 125.714317 -88.186371
v -84.884094 125.714317 -59.709930
v -91.970215 125.714317 -30.245850
v -95.009491 125.714317 0.000000
v -40.372559 119.967293 -140.538391
v -60.302795 119.967293 -116.509911
v -76.859375 119.967293 -90.107605
v -88.686401 119.967293 -61.202602
v -96.005432 119.967293 -31.028107
v -98.851501 119.967293 0.000000
v -99.182449 1.602829 1.899963
v -0.817566 1.602829 1.899963
v -99.182449 125.797165 1.899963
v -0.817566 125.797165 1.899963
v -98.251251 124.800667 -3.370483
v -1.748749 124.800667 -3.370483
v -98.251251 1.602829 -3.370483
v -1.748749 1.602829 -3.370483
v -101.176849 129.102539 -1.043888
v -101.176849 1.602829 -1.043888
v 1.176830 1.602829 -1.043888
v 1.176830 129.102539 -1.043888
v -101.629951 1.602829 -3.370483
v -101.629951 129.733582 -3.370483
v 1.629913 1.602829 -3.370483
v 1.629913 129.733582 -3.370483
v -3.816894 0.000000 4.967636
v 2.662659 0.000000 4.967636
v -3.816894 1.602829 4.967636
v 2.662659 1.602829 4.967636
v -3.816894 1.602829 -5.387329
v 2.662659 1.602829 -5.387329
v -3.816894 0.000000 -5.387329
v 2.662659 0.000000 -5.387329
v -98.657043 25.950867 1.899963
v -98.657043 27.943861 1.899963
v -98.657043 30.883780 -3.370423
v -98.657043 25.950867 -3.370423
v -1.748749 27.943861 1.899963
v -1.748749 30.883789 -3.370483
v -1.748749 25.950867 -3.370483
v -1.748749 25.950867 1.899963
v -103.147087 0.000000 4.967651
v -96.667542 0.000000 4.967651
v -103.147087 1.602829 4.967651
v -96.667542 1.602829 4.967651
v -103.147087 1.602829 -5.387329
v -96.667542 1.602829 -5.387329
v -103.147087 0.000000 -5.387329
v -96.667542 0.000000 -5.387329
vt 0.725078 0.613719
vt 0.729717 0.608829
vt 0.711487 0.598774
vt 0.716670 0.594570
vt 0.701297 0.581375
vt 0.706978 0.578028
vt 0.693495 0.562384
vt 0.699647 0.560071
vt 0.688513 0.542835
vt 0.695072 0.541685
vt 0.687474 0.522623
vt 0.693568 0.522623
vt 0.746965 0.545847
vt 0.742050 0.550761
vt 0.775649 0.569622
vt 0.771563 0.575245
vt 0.807151 0.589387
vt 0.803996 0.595580
vt 0.841890 0.603789
vt 0.839586 0.610212
vt 0.877800 0.612410
vt 0.876550 0.619079
vt 0.914680 0.616501
vt 0.914680 0.622596
vt 0.196397 0.967646
vt 0.196397 0.959308
vt 0.196388 0.985453
vt 0.196388 0.978296
vt 0.169953 0.967646
vt 0.169953 0.959308
vt 0.169944 0.985453
vt 0.169944 0.978296
vt 0.147988 0.967646
vt 0.147989 0.959308
vt 0.147976 0.985452
vt 0.147983 0.978296
vt 0.109658 0.967638
vt 0.109553 0.959299
vt 0.109532 0.985373
vt 0.109658 0.978217
vt 0.069622 0.967629
vt 0.069624 0.959290
vt 0.069609 0.985291
vt 0.069623 0.978134
vt 0.028438 0.967620
vt 0.028440 0.959281
vt 0.028425 0.985206
vt 0.028440 0.978049
vt 0.300921 0.851477
vt 0.300921 0.858636
vt 0.301572 0.835337
vt 0.301572 0.843679
vt 0.314833 0.851477
vt 0.314833 0.858636
vt 0.315461 0.835337
vt 0.315461 0.843679
vt 0.325304 0.851477
vt 0.325304 0.858636
vt 0.325933 0.835337
vt 0.325933 0.843679
vt 0.344712 0.851477
vt 0.344712 0.858636
vt 0.345336 0.835337
vt 0.345336 0.843679
vt 0.364587 0.851477
vt 0.364587 0.858636
vt 0.365202 0.835337
vt 0.365202 0.843679
vt 0.385183 0.851477
vt 0.385183 0.858636
vt 0.385799 0.835337
vt 0.385799 0.843679
vt 0.713814 0.627627
vt 0.708991 0.632214
vt 0.728067 0.640668
vt 0.723925 0.645797
vt 0.744608 0.650359
vt 0.741312 0.655979
vt 0.762569 0.657694
vt 0.760290 0.663775
vt 0.780962 0.662279
vt 0.779825 0.668754
vt 0.800024 0.663783
vt 0.800024 0.669877
vt 0.764817 0.527768
vt 0.769461 0.523125
vt 0.740334 0.498256
vt 0.745647 0.494396
vt 0.720000 0.465824
vt 0.725850 0.462843
vt 0.705373 0.430239
vt 0.711445 0.428065
vt 0.696501 0.393272
vt 0.702791 0.392081
vt 0.692984 0.355142
vt 0.699079 0.355142
vt 0.775782 0.215462
vt 0.774793 0.216451
vt 0.805127 0.239801
vt 0.804305 0.240933
vt 0.837370 0.260021
vt 0.836736 0.261267
vt 0.872670 0.274465
vt 0.872221 0.275774
vt 0.909521 0.283403
vt 0.909285 0.284764
vt 0.947414 0.286879
vt 0.947414 0.288281
vt 0.895409 0.420479
vt 0.818214 0.497342
vt 0.881852 0.405563
vt 0.794400 0.468612
vt 0.871672 0.388171
vt 0.774603 0.437058
vt 0.863852 0.369166
vt 0.760197 0.402280
vt 0.858812 0.349568
vt 0.751543 0.366295
vt 0.857772 0.329355
vt 0.747831 0.329355
vt 0.096495 0.830400
vt 0.096495 0.946863
vt 0.082802 0.830400
vt 0.082788 0.946863
vt 0.072219 0.830400
vt 0.072207 0.946863
vt 0.052596 0.830400
vt 0.052594 0.946862
vt 0.032458 0.830400
vt 0.032456 0.946862
vt 0.011614 0.830399
vt 0.011612 0.946862
vt 0.814286 0.182479
vt 0.890897 0.105447
vt 0.842970 0.206255
vt 0.905754 0.118936
vt 0.874473 0.226020
vt 0.923125 0.129098
vt 0.909212 0.240422
vt 0.942149 0.136949
vt 0.945123 0.249043
vt 0.961803 0.142069
vt 0.982002 0.253134
vt 0.982002 0.143193
vt 0.721111 0.817845
vt 0.721111 0.701428
vt 0.747402 0.817845
vt 0.747402 0.701428
vt 0.769242 0.817845
vt 0.769242 0.701428
vt 0.807371 0.817845
vt 0.807371 0.701428
vt 0.847174 0.817845
vt 0.847174 0.701428
vt 0.888104 0.817844
vt 0.888104 0.701428
vt -0.711671 0.712970
vt -0.834075 0.712970
vt -0.834075 0.708360
vt -0.711671 0.708360
vt -0.698687 0.674450
vt -0.698687 0.669840
vt -0.545799 0.669840
vt -0.545799 0.674450
vt -0.698966 0.658470
vt -0.698966 0.653860
vt -0.546082 0.653860
vt -0.546082 0.658470
vt -0.424366 0.987320
vt -0.424366 0.836857
vt -0.420239 0.836857
vt -0.420239 0.993345
vt -0.542225 0.836857
vt -0.542225 0.987320
vt -0.546352 0.993345
vt -0.546352 0.836857
vt -0.525058 0.689239
vt -0.525058 0.686060
vt -0.368588 0.686060
vt -0.368588 0.689239
vt -0.364011 0.653297
vt -0.364011 0.656477
vt -0.520493 0.656477
vt -0.520493 0.653297
vt -0.856235 0.646268
vt -0.856235 0.649448
vt -0.982336 0.649448
vt -0.982336 0.646268
vt -0.519032 0.671143
vt -0.368577 0.671143
vt -0.368577 0.677580
vt -0.519032 0.677580
vt -0.984863 0.683646
vt -0.867008 0.683646
vt -0.867008 0.690082
vt -0.984863 0.690082
vt -0.548215 0.642080
vt -0.698674 0.642080
vt -0.698674 0.635643
vt -0.548215 0.635643
vt -0.734979 0.935956
vt -0.727080 0.935956
vt -0.727080 0.937910
vt -0.734979 0.937910
vt -0.772198 0.929193
vt -0.764288 0.929193
vt -0.764288 0.941833
vt -0.772198 0.941833
vt -0.727080 0.931108
vt -0.734979 0.931108
vt -0.734979 0.929159
vt -0.727080 0.929159
vt -0.749235 0.929185
vt -0.741324 0.929185
vt -0.741324 0.941827
vt -0.749235 0.941827
vt -0.725240 0.939561
vt -0.712612 0.939562
vt -0.712612 0.941516
vt -0.725240 0.941516
vt -0.725080 0.929387
vt -0.712453 0.929387
vt -0.712453 0.931342
vt -0.725080 0.931342
vt -0.833835 0.672804
vt -0.833835 0.670370
vt -0.715485 0.670370
vt -0.715485 0.672804
vt -0.715535 0.685729
vt -0.715535 0.691753
vt -0.833885 0.691753
vt -0.833885 0.685729
vt -0.715559 0.634963
vt -0.715559 0.641400
vt -0.833905 0.641399
vt -0.833905 0.634963
vt 0.265021 0.932385
vt 0.272920 0.932385
vt 0.272920 0.934339
vt 0.265021 0.934339
vt 0.215847 0.929352
vt 0.223758 0.929352
vt 0.223758 0.941994
vt 0.215847 0.941994
vt 0.272920 0.941625
vt 0.265021 0.941625
vt 0.265021 0.939675
vt 0.272920 0.939675
vt 0.239512 0.929188
vt 0.247422 0.929188
vt 0.247422 0.941828
vt 0.239512 0.941828
vt 0.274892 0.932828
vt 0.287524 0.932828
vt 0.287524 0.934783
vt 0.274892 0.934783
vt 0.274818 0.936226
vt 0.287450 0.936226
vt 0.287450 0.938181
vt 0.274818 0.938182
vn -0.077054 0.994547 -0.070275
vn -0.083923 0.994522 -0.062317
vn -0.084411 0.994516 -0.061752
vn -0.077054 0.994547 -0.070275
vn -0.094980 0.994352 -0.047358
vn -0.095356 0.994348 -0.046694
vn -0.100782 0.994344 -0.033498
vn -0.100900 0.994347 -0.033069
vn -0.106096 0.994214 -0.016814
vn -0.106172 0.994209 -0.016600
vn -0.109538 0.993957 -0.007094
vn -0.109538 0.993957 -0.007094
vn 0.077526 -0.994916 0.064287
vn 0.081424 -0.994938 0.058898
vn 0.081414 -0.994938 0.058912
vn 0.077526 -0.994916 0.064287
vn 0.089571 -0.994911 0.046152
vn 0.089595 -0.994910 0.046109
vn 0.096970 -0.994793 0.031350
vn 0.096847 -0.994796 0.031639
vn 0.104050 -0.994416 0.017604
vn 0.103961 -0.994423 0.017747
vn 0.108171 -0.994072 0.010972
vn 0.108171 -0.994072 0.010972
vn -0.769639 0.000000 -0.638480
vn -0.810180 0.000000 -0.586181
vn -0.810180 0.000000 -0.586181
vn -0.769639 0.000000 -0.638480
vn -0.765431 0.104608 -0.634959
vn -0.805712 0.104837 -0.582956
vn -0.805722 0.104837 -0.582942
vn -0.765431 0.104608 -0.634959
vn -0.889569 -0.002361 -0.456795
vn -0.889569 -0.002361 -0.456795
vn -0.884394 0.107573 -0.454176
vn -0.884376 0.107572 -0.454210
vn -0.951081 -0.005346 -0.308894
vn -0.951586 -0.005360 -0.307335
vn -0.945786 0.110483 -0.305421
vn -0.945237 0.110473 -0.307121
vn -0.986550 -0.002991 -0.163432
vn -0.986550 -0.002991 -0.163432
vn -0.980835 0.107608 -0.162431
vn -0.980846 0.107605 -0.162366
vn -0.995772 0.000000 -0.091857
vn -0.995772 0.000000 -0.091857
vn -0.990375 0.104090 -0.091230
vn -0.990375 0.104090 -0.091230
vn 0.734703 0.109738 0.669454
vn 0.800852 0.107128 0.589202
vn 0.801037 0.107119 0.588952
vn 0.734703 0.109738 0.669454
vn 0.735892 -0.094606 0.670457
vn 0.802264 -0.092170 0.589811
vn 0.802095 -0.092178 0.590040
vn 0.735892 -0.094606 0.670457
vn 0.891863 0.103216 0.440371
vn 0.892069 0.103214 0.439955
vn 0.893368 -0.088528 0.440519
vn 0.893177 -0.088530 0.440905
vn 0.945073 0.102995 0.310208
vn 0.945178 0.102996 0.309887
vn 0.946608 -0.088254 0.310073
vn 0.946496 -0.088253 0.310415
vn 0.981643 0.104011 0.159873
vn 0.981649 0.104011 0.159837
vn 0.983089 -0.089269 0.159900
vn 0.983083 -0.089269 0.159932
vn 0.991442 0.104386 0.078398
vn 0.991442 0.104386 0.078398
vn 0.992868 -0.089719 0.078511
vn 0.992868 -0.089719 0.078511
vn -0.078096 -0.994400 -0.071205
vn -0.085690 -0.994354 -0.062597
vn -0.085108 -0.994362 -0.063257
vn -0.078096 -0.994400 -0.071205
vn -0.096913 -0.994162 -0.047423
vn -0.096484 -0.994168 -0.048170
vn -0.102460 -0.994169 -0.033627
vn -0.102333 -0.994165 -0.034114
vn -0.107277 -0.994085 -0.016954
vn -0.107216 -0.994088 -0.017153
vn -0.110238 -0.993878 -0.007376
vn -0.110238 -0.993878 -0.007376
vn 0.082006 0.994309 0.068004
vn 0.086120 0.994334 0.062317
vn 0.086130 0.994334 0.062302
vn 0.082006 0.994309 0.068004
vn 0.094769 0.994304 0.048762
vn 0.094743 0.994305 0.048806
vn 0.102458 0.994174 0.033468
vn 0.102585 0.994171 0.033170
vn 0.108626 0.993915 0.018288
vn 0.108702 0.993910 0.018089
vn 0.111518 0.993704 0.010739
vn 0.111518 0.993704 0.010739
vn 0.000000 -1.000000 0.000003
vn 0.000000 -1.000000 0.000001
vn 0.000000 -1.000000 0.000001
vn 0.000000 -1.000000 0.000003
vn 0.000000 -1.000000 -0.000000
vn 0.000000 -1.000000 -0.000000
vn 0.000000 -1.000000 0.000001
vn 0.000000 -1.000000 0.000001
vn 0.000000 -1.000000 0.000000
vn 0.000000 -1.000000 0.000000
vn 0.000000 -1.000000 0.000000
vn 0.000000 -1.000000 0.000000
vn 0.000000 1.000000 0.000000
vn 0.000000 1.000000 0.000000
vn 0.000000 1.000000 0.000000
vn 0.000000 1.000000 0.000000
vn 0.000000 1.000000 -0.000000
vn 0.000000 1.000000 -0.000000
vn 0.000000 1.000000 -0.000000
vn 0.000000 1.000000 -0.000000
vn 0.000000 1.000000 0.000000
vn 0.000000 1.000000 0.000000
vn 0.000000 1.000000 0.000000
vn 0.000000 1.000000 0.000000
vn 0.806676 0.000047 0.590994
vn 0.740634 0.000039 0.671909
vn 0.740634 0.000039 0.671909
vn 0.806688 0.000047 0.590977
vn 0.896787 0.000054 0.442463
vn 0.896793 0.000054 0.442451
vn 0.950173 0.000036 0.311722
vn 0.950175 0.000036 0.311717
vn 0.986962 0.000009 0.160951
vn 0.986962 0.000009 0.160951
vn 0.996873 0.000000 0.079022
vn 0.996873 0.000000 0.079022
vn 0.000000 -1.000000 0.000000
vn 0.000000 -1.000000 0.000000
vn 0.000000 -1.000000 0.000000
vn 0.000000 -1.000000 0.000000
vn 0.000000 -1.000000 0.000000
vn 0.000000 -1.000000 0.000000
vn 0.000000 -1.000000 0.000000
vn 0.000000 -1.000000 0.000000
vn 0.000000 -1.000000 0.000000
vn 0.000000 -1.000000 0.000000
vn 0.000000 -1.000000 0.000000
vn 0.000000 -1.000000 0.000000
vn -0.810168 0.006480 -0.586162
vn -0.769663 0.006466 -0.638418
vn -0.769663 0.006466 -0.638418
vn -0.810168 0.006480 -0.586163
vn -0.889680 0.006475 -0.456539
vn -0.889681 0.006475 -0.456537
vn -0.951289 0.006433 -0.308234
vn -0.951285 0.006433 -0.308245
vn -0.986456 0.006431 -0.163900
vn -0.986455 0.006431 -0.163904
vn -0.995787 0.006434 -0.091469
vn -0.995787 0.006434 -0.091469
vn 0.000000 0.665088 0.746765
vn 0.000000 0.665088 0.746765
vn 0.000000 0.665088 0.746765
vn 0.000000 0.665088 0.746765
vn 0.827896 0.000000 0.560882
vn 0.827896 0.000000 0.560882
vn 0.827896 0.000000 0.560882
vn 0.827896 0.000000 0.560882
vn -0.827896 0.000000 0.560883
vn -0.827896 0.000000 0.560883
vn -0.827896 0.000000 0.560883
vn -0.827896 0.000000 0.560883
vn 0.000000 0.000000 -1.000000
vn 0.000000 0.000000 -1.000000
vn 0.000000 0.000000 -1.000000
vn 0.000000 0.000000 -1.000000
vn 0.000000 0.000000 -1.000000
vn 0.000000 0.000000 -1.000000
vn 0.000000 0.000000 -1.000000
vn 0.000000 0.000000 -1.000000
vn -0.981559 0.000000 0.191158
vn -0.981559 0.000000 0.191158
vn -0.981559 0.000000 0.191158
vn -0.981559 0.000000 0.191158
vn 0.981561 0.000000 0.191150
vn 0.981561 0.000000 0.191150
vn 0.981561 0.000000 0.191150
vn 0.981561 0.000000 0.191150
vn 0.000000 0.965129 0.261774
vn 0.000000 0.965129 0.261774
vn 0.000000 0.965129 0.261774
vn 0.000000 0.965129 0.261774
vn -0.984748 0.000000 0.173985
vn -0.984748 0.000000 0.173985
vn -0.984748 0.000000 0.173985
vn -0.984748 0.000000 0.173985
vn 0.000000 -0.982591 0.185783
vn 0.000000 -0.982591 0.185783
vn 0.000000 -0.982591 0.185783
vn 0.000000 -0.982591 0.185783
vn 0.984748 0.000000 0.173988
vn 0.984748 0.000000 0.173988
vn 0.984748 0.000000 0.173988
vn 0.984748 0.000000 0.173988
vn 0.000000 0.000000 1.000000
vn 0.000000 0.000000 1.000000
vn 0.000000 0.000000 1.000000
vn 0.000000 0.000000 1.000000
vn 0.000000 1.000000 0.000000
vn 0.000000 1.000000 0.000000
vn 0.000000 1.000000 0.000000
vn 0.000000 1.000000 0.000000
vn 0.000000 0.000000 -1.000000
vn 0.000000 0.000000 -1.000000
vn 0.000000 0.000000 -1.000000
vn 0.000000 0.000000 -1.000000
vn 0.000000 -1.000000 0.000000
vn 0.000000 -1.000000 0.000000
vn 0.000000 -1.000000 0.000000
vn 0.000000 -1.000000 0.000000
vn 1.000000 0.000000 0.000000
vn 1.000000 0.000000 0.000000
vn 1.000000 0.000000 0.000000
vn 1.000000 0.000000 0.000000
vn -1.000000 0.000000 0.000000
vn -1.000000 0.000000 0.000000
vn -1.000000 0.000000 0.000000
vn -1.000000 0.000000 0.000000
vn 0.000000 0.000000 1.000000
vn 0.000000 0.000000 1.000000
vn 0.000000 0.000000 1.000000
vn 0.000000 0.000000 1.000000
vn -0.000001 0.000000 -1.000000
vn -0.000001 0.000000 -1.000000
vn -0.000001 0.000000 -1.000000
vn -0.000001 0.000000 -1.000000
vn 0.000000 -1.000000 0.000000
vn 0.000000 -1.000000 0.000000
vn 0.000000 -1.000000 0.000000
vn 0.000000 -1.000000 0.000000
vn 0.000000 0.000000 1.000000
vn 0.000000 0.000000 1.000000
vn 0.000000 0.000000 1.000000
vn 0.000000 0.000000 1.000000
vn 0.000000 1.000000 0.000000
vn 0.000000 1.000000 0.000000
vn 0.000000 1.000000 0.000000
vn 0.000000 1.000000 0.000000
vn 0.000000 0.000000 -1.000000
vn 0.000000 0.000000 -1.000000
vn 0.000000 0.000000 -1.000000
vn 0.000000 0.000000 -1.000000
vn 0.000000 -1.000000 0.000000
vn 0.000000 -1.000000 0.000000
vn 0.000000 -1.000000 0.000000
vn 0.000000 -1.000000 0.000000
vn 1.000000 0.000000 0.000000
vn 1.000000 0.000000 0.000000
vn 1.000000 0.000000 0.000000
vn 1.000000 0.000000 0.000000
vn -1.000000 0.000000 0.000000
vn -1.000000 0.000000 0.000000
vn -1.000000 0.000000 0.000000
vn -1.000000 0.000000 0.000000
g AirDuct_Y_Right_LOD1 AirDuct_Y_Right
usemtl lambert16SG
f 49/1/1 50/3/2 2/4/3 1/2/4
f 50/3/2 51/5/5 3/6/6 2/4/3
f 51/5/5 52/7/7 4/8/8 3/6/6
f 52/7/7 53/9/9 5/10/10 4/8/8
f 53/9/9 54/11/11 6/12/12 5/10/10
f 61/13/13 62/15/14 14/16/15 13/14/16
f 62/15/14 63/17/17 15/18/18 14/16/15
f 63/17/17 64/19/19 16/20/20 15/18/18
f 64/19/19 65/21/21 17/22/22 16/20/20
f 65/21/21 66/23/23 18/24/24 17/22/22
f 25/25/25 27/29/26 8/30/27 7/26/28
f 13/27/29 14/31/30 28/32/31 26/28/32
f 27/29/26 29/33/33 9/34/34 8/30/27
f 14/31/30 15/35/35 30/36/36 28/32/31
f 29/33/33 31/37/37 10/38/38 9/34/34
f 15/35/35 16/39/39 32/40/40 30/36/36
f 31/37/37 33/41/41 11/42/42 10/38/38
f 16/39/39 17/43/43 34/44/44 32/40/40
f 33/41/41 35/45/45 12/46/46 11/42/42
f 17/43/43 18/47/47 36/48/48 34/44/44
f 37/49/49 39/53/50 20/54/51 19/50/52
f 1/51/53 2/55/54 40/56/55 38/52/56
f 39/53/50 41/57/57 21/58/58 20/54/51
f 2/55/54 3/59/59 42/60/60 40/56/55
f 41/57/57 43/61/61 22/62/62 21/58/58
f 3/59/59 4/63/63 44/64/64 42/60/60
f 43/61/61 45/65/65 23/66/66 22/62/62
f 4/63/63 5/67/67 46/68/68 44/64/64
f 45/65/65 47/69/69 24/70/70 23/66/66
f 5/67/67 6/71/71 48/72/72 46/68/68
f 19/73/73 20/75/74 56/76/75 55/74/76
f 20/75/74 21/77/77 57/78/78 56/76/75
f 21/77/77 22/79/79 58/80/80 57/78/78
f 22/79/79 23/81/81 59/82/82 58/80/80
f 23/81/81 24/83/83 60/84/84 59/82/82
f 7/85/85 8/87/86 68/88/87 67/86/88
f 8/87/86 9/89/89 69/90/90 68/88/87
f 9/89/89 10/91/91 70/92/92 69/90/90
f 10/91/91 11/93/93 71/94/94 70/92/92
f 11/93/93 12/95/95 72/96/96 71/94/94
f 73/97/97 74/99/98 27/100/99 25/98/100
f 74/99/98 75/101/101 29/102/102 27/100/99
f 75/101/101 76/103/103 31/104/104 29/102/102
f 76/103/103 77/105/105 33/106/106 31/104/104
f 77/105/105 78/107/107 35/108/108 33/106/106
f 50/111/109 49/109/110 67/110/111 68/112/112
f 51/113/113 50/111/109 68/112/112 69/114/114
f 52/115/115 51/113/113 69/114/114 70/116/116
f 53/117/117 52/115/115 70/116/116 71/118/118
f 54/119/119 53/117/117 71/118/118 72/120/120
f 39/123/121 37/121/122 38/122/123 40/124/124
f 41/125/125 39/123/121 40/124/124 42/126/126
f 43/127/127 41/125/125 42/126/126 44/128/128
f 45/129/129 43/127/127 44/128/128 46/130/130
f 47/131/131 45/129/129 46/130/130 48/132/132
f 62/135/133 61/133/134 55/134/135 56/136/136
f 63/137/137 62/135/133 56/136/136 57/138/138
f 64/139/139 63/137/137 57/138/138 58/140/140
f 65/141/141 64/139/139 58/140/140 59/142/142
f 66/143/143 65/141/141 59/142/142 60/144/144
f 74/147/145 73/145/146 26/146/147 28/148/148
f 75/149/149 74/147/145 28/148/148 30/150/150
f 76/151/151 75/149/149 30/150/150 32/152/152
f 77/153/153 76/151/151 32/152/152 34/154/154
f 78/155/155 77/153/153 34/154/154 36/156/156
f 81/157/157 82/158/158 90/159/159 87/160/160
f 80/161/161 89/162/162 90/163/163 82/164/164
f 88/165/165 79/166/166 81/167/167 87/168/168
f 83/169/169 85/170/170 91/171/171 92/172/172
f 86/173/173 84/174/174 94/175/175 93/176/176
f 84/174/174 83/169/169 92/172/172 94/175/175
f 91/177/177 88/178/178 87/179/179 92/180/180
f 94/181/181 90/182/182 89/183/183 93/184/184
f 92/185/185 87/186/186 90/187/187 94/188/188
f 80/189/189 82/190/190 84/191/191 86/192/192
f 82/193/193 81/194/194 83/195/195 84/196/196
f 81/197/197 79/198/198 85/199/199 83/200/200
f 95/201/201 96/202/202 98/203/203 97/204/204
f 97/205/205 98/206/206 100/207/207 99/208/208
f 99/209/209 100/210/210 102/211/211 101/212/212
f 101/213/213 102/214/214 96/215/215 95/216/216
f 96/217/217 102/218/218 100/219/219 98/220/220
f 101/221/221 95/222/222 97/223/223 99/224/224
f 110/225/225 107/226/226 104/227/227 103/228/228
f 106/229/229 105/230/230 108/231/231 109/232/232
f 103/233/233 106/234/234 109/235/235 110/236/236
f 111/237/237 112/238/238 114/239/239 113/240/240
f 113/241/241 114/242/242 116/243/243 115/244/244
f 115/245/245 116/246/246 118/247/247 117/248/248
f 117/249/249 118/250/250 112/251/251 111/252/252
f 112/253/253 118/254/254 116/255/255 114/256/256
f 117/257/257 111/258/258 113/259/259 115/260/260
