# This file uses meters as units for non-parametric coordinates.

mtllib AirDuct_Straight_Short_LOD1.mtl
g default
v -99.182449 1.602829 1.899963
v -0.817551 1.602829 1.899963
v -99.182449 125.797165 1.899963
v -0.817551 125.797165 1.899963
v -98.251251 124.800667 -3.370483
v -1.748749 124.800667 -3.370483
v -98.251251 1.602829 -3.370483
v -1.748749 1.602829 -3.370483
v -101.176849 129.102539 -1.043900
v -101.176849 1.602829 -1.043900
v 1.176855 1.602829 -1.043900
v 1.176855 129.102539 -1.043900
v -101.629951 1.602829 -3.370483
v -101.629951 129.733582 -3.370483
v 1.629944 1.602829 -3.370483
v 1.629944 129.733582 -3.370483
v -3.816894 0.000000 4.967651
v 2.662628 0.000000 4.967651
v -3.816894 1.602829 4.967651
v 2.662628 1.602829 4.967651
v -3.816894 1.602829 -5.387329
v 2.662628 1.602829 -5.387329
v -3.816894 0.000000 -5.387329
v 2.662628 0.000000 -5.387329
v -98.657043 25.950867 1.899963
v -98.657043 27.943861 1.899963
v -98.657043 30.883780 -3.370361
v -98.657043 25.950867 -3.370361
v -1.748749 27.943861 1.899963
v -1.748749 30.883789 -3.370483
v -1.748749 25.950867 -3.370483
v -1.748749 25.950867 1.899963
v 0.000000 26.288582 0.000000
v 0.000000 126.288582 0.000000
v -0.574265 31.713863 0.000000
v -0.574265 119.967293 0.000000
v -4.990509 125.714317 0.000000
v -4.990509 26.862843 0.000000
v -100.000000 26.288582 0.000000
v -100.000000 126.288582 0.000000
v -99.425735 31.713863 0.000000
v -99.425735 119.967293 0.000000
v -95.009491 125.714317 0.000000
v -95.009491 26.862843 0.000000
v -103.147087 0.000000 4.967651
v -96.667542 0.000000 4.967651
v -103.147087 1.602829 4.967651
v -96.667542 1.602829 4.967651
v -103.147087 1.602829 -5.387329
v -96.667542 1.602829 -5.387329
v -103.147087 0.000000 -5.387329
v -96.667542 0.000000 -5.387329
v -95.009491 125.714317 -200.000000
v -100.000000 126.288582 -200.000000
v -99.425735 119.967293 -200.000000
v -99.425735 31.713863 -200.000000
v -100.000000 26.288582 -200.000000
v -95.009491 26.862843 -200.000000
v -4.990509 26.862843 -200.000000
v 0.000000 26.288582 -200.000000
v -0.574265 31.713863 -200.000000
v -0.574265 119.967293 -200.000000
v 0.000000 126.288582 -200.000000
v -4.990509 125.714317 -200.000000
vt -0.711671 0.712970
vt -0.834075 0.712970
vt -0.834075 0.708360
vt -0.711671 0.708360
vt -0.698687 0.674450
vt -0.698687 0.669840
vt -0.545799 0.669840
vt -0.545799 0.674450
vt -0.698966 0.658470
vt -0.698966 0.653860
vt -0.546082 0.653860
vt -0.546082 0.658470
vt -0.424366 0.987320
vt -0.424366 0.836857
vt -0.420239 0.836857
vt -0.420239 0.993345
vt -0.542225 0.836857
vt -0.542225 0.987320
vt -0.546352 0.993345
vt -0.546352 0.836857
vt -0.525058 0.689239
vt -0.525058 0.686060
vt -0.368588 0.686060
vt -0.368588 0.689239
vt -0.364011 0.653297
vt -0.364011 0.656477
vt -0.520493 0.656477
vt -0.520493 0.653297
vt -0.856235 0.646268
vt -0.856235 0.649448
vt -0.982336 0.649448
vt -0.982336 0.646268
vt -0.519032 0.671143
vt -0.368577 0.671143
vt -0.368577 0.677580
vt -0.519032 0.677580
vt -0.984863 0.683646
vt -0.867008 0.683646
vt -0.867008 0.690082
vt -0.984863 0.690082
vt -0.548215 0.642080
vt -0.698674 0.642080
vt -0.698674 0.635643
vt -0.548215 0.635643
vt -0.734979 0.935956
vt -0.727080 0.935956
vt -0.727080 0.937910
vt -0.734979 0.937910
vt -0.772198 0.929193
vt -0.764288 0.929193
vt -0.764288 0.941833
vt -0.772198 0.941833
vt -0.727080 0.931108
vt -0.734979 0.931108
vt -0.734979 0.929159
vt -0.727080 0.929159
vt -0.749235 0.929185
vt -0.741324 0.929185
vt -0.741324 0.941827
vt -0.749235 0.941827
vt -0.725240 0.939561
vt -0.712612 0.939562
vt -0.712612 0.941516
vt -0.725240 0.941516
vt -0.725080 0.929387
vt -0.712453 0.929387
vt -0.712453 0.931342
vt -0.725080 0.931342
vt -0.833835 0.672804
vt -0.833835 0.670370
vt -0.715485 0.670370
vt -0.715485 0.672804
vt -0.715535 0.685729
vt -0.715535 0.691753
vt -0.833885 0.691753
vt -0.833885 0.685729
vt -0.715559 0.634963
vt -0.715559 0.641400
vt -0.833905 0.641399
vt -0.833905 0.634963
vt 0.288329 0.712970
vt 0.165925 0.712970
vt 0.165925 0.708360
vt 0.288329 0.708360
vt 0.301313 0.674450
vt 0.301313 0.669840
vt 0.454200 0.669840
vt 0.454200 0.674450
vt 0.301034 0.658470
vt 0.301034 0.653860
vt 0.453918 0.653860
vt 0.453918 0.658470
vt 0.575634 0.987320
vt 0.575634 0.836857
vt 0.579761 0.836857
vt 0.579761 0.993345
vt 0.457775 0.836857
vt 0.457775 0.987320
vt 0.453648 0.993345
vt 0.453648 0.836857
vt 0.474942 0.689239
vt 0.474942 0.686060
vt 0.631412 0.686060
vt 0.631412 0.689239
vt 0.635989 0.653297
vt 0.635989 0.656477
vt 0.479507 0.656477
vt 0.479507 0.653297
vt 0.143765 0.646268
vt 0.143765 0.649448
vt 0.017664 0.649448
vt 0.017664 0.646268
vt 0.480968 0.671143
vt 0.631423 0.671143
vt 0.631423 0.677580
vt 0.480968 0.677580
vt 0.015137 0.683646
vt 0.132992 0.683646
vt 0.132992 0.690082
vt 0.015137 0.690082
vt 0.451785 0.642080
vt 0.301326 0.642080
vt 0.301326 0.635643
vt 0.451785 0.635643
vt 0.008100 0.793081
vt 0.008100 0.786285
vt 0.008099 0.744632
vt 0.008100 0.777863
vt 0.008099 0.730509
vt 0.008099 0.737305
vt 0.498629 0.813507
vt 0.498629 0.820304
vt 0.010104 0.754700
vt 0.498629 0.805086
vt 0.010104 0.768823
vt 0.010104 0.762027
vt 0.007824 0.147236
vt 0.007824 0.005774
vt 0.648984 0.157981
vt 0.648984 0.299443
vt 0.006309 0.609684
vt 0.006309 0.465392
vt 0.647469 0.313251
vt 0.647469 0.457542
vt 0.265021 0.935956
vt 0.272920 0.935956
vt 0.272920 0.937910
vt 0.265021 0.937910
vt 0.227802 0.929193
vt 0.235712 0.929193
vt 0.235712 0.941833
vt 0.227802 0.941833
vt 0.272920 0.931108
vt 0.265021 0.931108
vt 0.265021 0.929159
vt 0.272921 0.929159
vt 0.250765 0.929185
vt 0.258676 0.929185
vt 0.258676 0.941827
vt 0.250765 0.941827
vt 0.274760 0.939561
vt 0.287388 0.939562
vt 0.287388 0.941516
vt 0.274760 0.941516
vt 0.274920 0.929387
vt 0.287547 0.929387
vt 0.287547 0.931342
vt 0.274920 0.931342
vt 0.265021 0.932385
vt 0.272920 0.932385
vt 0.272920 0.934339
vt 0.265021 0.934339
vt 0.215847 0.929352
vt 0.223758 0.929352
vt 0.223758 0.941994
vt 0.215847 0.941994
vt 0.272920 0.941625
vt 0.265021 0.941625
vt 0.265021 0.939675
vt 0.272920 0.939675
vt 0.239512 0.929188
vt 0.247422 0.929188
vt 0.247422 0.941828
vt 0.239512 0.941828
vt 0.274892 0.932828
vt 0.287524 0.932828
vt 0.287524 0.934783
vt 0.274892 0.934783
vt 0.274818 0.936226
vt 0.287450 0.936226
vt 0.287450 0.938181
vt 0.274818 0.938182
vt 0.166165 0.672804
vt 0.166165 0.670370
vt 0.284515 0.670370
vt 0.284515 0.672804
vt 0.284465 0.685729
vt 0.284465 0.691753
vt 0.166115 0.691753
vt 0.166115 0.685729
vt 0.284441 0.634963
vt 0.284441 0.641400
vt 0.166095 0.641399
vt 0.166095 0.634963
vt 0.326889 0.465392
vt 0.326889 0.609684
vt 0.254366 0.820304
vt 0.254366 0.813507
vt 0.254366 0.805086
vt 0.328404 0.299443
vt 0.328404 0.157981
vt 0.254366 0.754700
vt 0.254366 0.762027
vt 0.254366 0.768823
vt 0.326889 0.457542
vt 0.252362 0.730509
vt 0.326889 0.313251
vt 0.252362 0.737305
vt 0.252362 0.744632
vt 0.328404 0.005774
vt 0.252363 0.777863
vt 0.328404 0.147236
vt 0.252363 0.786285
vt 0.252363 0.793081
vn 0.000000 0.665089 0.746764
vn 0.000000 0.665089 0.746764
vn 0.000000 0.665089 0.746764
vn 0.000000 0.665089 0.746764
vn 0.827896 0.000000 0.560882
vn 0.827896 0.000000 0.560882
vn 0.827896 0.000000 0.560882
vn 0.827896 0.000000 0.560882
vn -0.827897 0.000000 0.560881
vn -0.827897 0.000000 0.560881
vn -0.827896 0.000000 0.560881
vn -0.827897 0.000000 0.560881
vn 0.000000 0.000000 -1.000000
vn 0.000000 0.000000 -1.000000
vn 0.000000 0.000000 -1.000000
vn 0.000000 0.000000 -1.000000
vn 0.000000 0.000000 -1.000000
vn 0.000000 0.000000 -1.000000
vn 0.000000 0.000000 -1.000000
vn 0.000000 0.000000 -1.000000
vn 0.000000 0.000000 -1.000000
vn 0.000000 0.000000 -1.000000
vn 0.000000 0.000000 -1.000000
vn 0.000000 0.000000 -1.000000
vn -0.981559 0.000000 0.191159
vn -0.981559 0.000000 0.191159
vn -0.981559 0.000000 0.191159
vn -0.981559 0.000000 0.191159
vn 0.981560 0.000000 0.191153
vn 0.981560 0.000000 0.191153
vn 0.981560 0.000000 0.191153
vn 0.981560 0.000000 0.191153
vn 0.000000 0.965129 0.261775
vn 0.000000 0.965129 0.261775
vn 0.000000 0.965129 0.261775
vn 0.000000 0.965129 0.261775
vn -0.984748 0.000000 0.173988
vn -0.984748 0.000000 0.173988
vn -0.984748 0.000000 0.173988
vn -0.984748 0.000000 0.173988
vn 0.000000 -0.982591 0.185783
vn 0.000000 -0.982591 0.185783
vn 0.000000 -0.982591 0.185783
vn 0.000000 -0.982591 0.185783
vn 0.984748 0.000000 0.173988
vn 0.984748 0.000000 0.173988
vn 0.984748 0.000000 0.173988
vn 0.984748 0.000000 0.173988
vn 0.000000 0.000000 1.000000
vn 0.000000 0.000000 1.000000
vn 0.000000 0.000000 1.000000
vn 0.000000 0.000000 1.000000
vn 0.000000 1.000000 0.000000
vn 0.000000 1.000000 0.000000
vn 0.000000 1.000000 0.000000
vn 0.000000 1.000000 0.000000
vn 0.000000 0.000000 -1.000000
vn 0.000000 0.000000 -1.000000
vn 0.000000 0.000000 -1.000000
vn 0.000000 0.000000 -1.000000
vn 0.000000 -1.000000 0.000000
vn 0.000000 -1.000000 0.000000
vn 0.000000 -1.000000 0.000000
vn 0.000000 -1.000000 0.000000
vn 1.000000 0.000000 0.000000
vn 1.000000 0.000000 0.000000
vn 1.000000 0.000000 0.000000
vn 1.000000 0.000000 0.000000
vn -1.000000 0.000000 0.000000
vn -1.000000 0.000000 0.000000
vn -1.000000 0.000000 0.000000
vn -1.000000 0.000000 0.000000
vn 0.000000 0.000000 1.000000
vn 0.000000 0.000000 1.000000
vn 0.000000 0.000000 1.000000
vn 0.000000 0.000000 1.000000
vn -0.000001 0.000000 -1.000000
vn -0.000001 0.000000 -1.000000
vn -0.000001 0.000000 -1.000000
vn -0.000001 0.000000 -1.000000
vn 0.000000 -1.000000 0.000000
vn 0.000000 -1.000000 0.000000
vn 0.000000 -1.000000 0.000000
vn 0.000000 -1.000000 0.000000
vn 0.000000 0.665089 0.746764
vn 0.000000 0.665089 0.746764
vn 0.000000 0.665089 0.746764
vn 0.000000 0.665089 0.746764
vn 0.827896 0.000000 0.560882
vn 0.827896 0.000000 0.560882
vn 0.827896 0.000000 0.560882
vn 0.827896 0.000000 0.560882
vn -0.827897 0.000000 0.560881
vn -0.827897 0.000000 0.560881
vn -0.827896 0.000000 0.560881
vn -0.827897 0.000000 0.560881
vn 0.000000 0.000000 -1.000000
vn 0.000000 0.000000 -1.000000
vn 0.000000 0.000000 -1.000000
vn 0.000000 0.000000 -1.000000
vn 0.000000 0.000000 -1.000000
vn 0.000000 0.000000 -1.000000
vn 0.000000 0.000000 -1.000000
vn 0.000000 0.000000 -1.000000
vn 0.000000 0.000000 -1.000000
vn 0.000000 0.000000 -1.000000
vn 0.000000 0.000000 -1.000000
vn 0.000000 0.000000 -1.000000
vn -0.981559 0.000000 0.191159
vn -0.981559 0.000000 0.191159
vn -0.981559 0.000000 0.191159
vn -0.981559 0.000000 0.191159
vn 0.981560 0.000000 0.191153
vn 0.981560 0.000000 0.191153
vn 0.981560 0.000000 0.191153
vn 0.981560 0.000000 0.191153
vn 0.000000 0.965129 0.261775
vn 0.000000 0.965129 0.261775
vn 0.000000 0.965129 0.261775
vn 0.000000 0.965129 0.261775
vn -0.984748 0.000000 0.173988
vn -0.984748 0.000000 0.173988
vn -0.984748 0.000000 0.173988
vn -0.984748 0.000000 0.173988
vn 0.000000 -0.982591 0.185783
vn 0.000000 -0.982591 0.185783
vn 0.000000 -0.982591 0.185783
vn 0.000000 -0.982591 0.185783
vn 0.984748 0.000000 0.173988
vn 0.984748 0.000000 0.173988
vn 0.984748 0.000000 0.173988
vn 0.984748 0.000000 0.173988
vn -0.114317 0.993444 0.000000
vn -0.114317 0.993444 0.000000
vn -0.114317 0.993444 0.000000
vn -0.114317 0.993444 0.000000
vn 0.995899 -0.090474 0.000000
vn 0.995899 -0.090474 0.000000
vn 0.995899 -0.090474 0.000000
vn 0.995899 -0.090474 0.000000
vn 0.994445 0.105262 0.000000
vn 0.994445 0.105262 0.000000
vn 0.994445 0.105262 0.000000
vn 0.994445 0.105262 0.000000
vn -0.114316 -0.993445 0.000000
vn -0.114316 -0.993445 0.000000
vn -0.114316 -0.993445 0.000000
vn -0.114316 -0.993445 0.000000
vn 0.114317 0.993444 0.000000
vn 0.114317 0.993444 0.000000
vn 0.114317 0.993444 0.000000
vn 0.114317 0.993444 0.000000
vn -0.995899 -0.090474 0.000000
vn -0.995899 -0.090474 0.000000
vn -0.995899 -0.090474 0.000000
vn -0.995899 -0.090474 0.000000
vn -0.994444 0.105262 0.000000
vn -0.994444 0.105262 0.000000
vn -0.994444 0.105262 0.000000
vn -0.994444 0.105262 0.000000
vn 0.114316 -0.993444 0.000000
vn 0.114316 -0.993444 0.000000
vn 0.114316 -0.993444 0.000000
vn 0.114316 -0.993444 0.000000
vn 1.000000 0.000000 0.000000
vn 1.000000 0.000000 0.000000
vn 1.000000 0.000000 0.000000
vn 1.000000 0.000000 0.000000
vn -1.000000 0.000000 0.000000
vn -1.000000 0.000000 0.000000
vn -1.000000 0.000000 0.000000
vn -1.000000 0.000000 0.000000
vn 0.000000 1.000000 0.000000
vn 0.000000 1.000000 0.000000
vn 0.000000 1.000000 0.000000
vn 0.000000 1.000000 0.000000
vn 0.000000 -1.000000 0.000000
vn 0.000000 -1.000000 0.000000
vn 0.000000 -1.000000 0.000000
vn 0.000000 -1.000000 0.000000
vn 0.000000 0.000000 1.000000
vn 0.000000 0.000000 1.000000
vn 0.000000 0.000000 1.000000
vn 0.000000 0.000000 1.000000
vn 0.000000 1.000000 0.000000
vn 0.000000 1.000000 0.000000
vn 0.000000 1.000000 0.000000
vn 0.000000 1.000000 0.000000
vn 0.000000 0.000000 -1.000000
vn 0.000000 0.000000 -1.000000
vn 0.000000 0.000000 -1.000000
vn 0.000000 0.000000 -1.000000
vn 0.000000 -1.000000 0.000000
vn 0.000000 -1.000000 0.000000
vn 0.000000 -1.000000 0.000000
vn 0.000000 -1.000000 0.000000
vn 1.000000 0.000000 0.000000
vn 1.000000 0.000000 0.000000
vn 1.000000 0.000000 0.000000
vn 1.000000 0.000000 0.000000
vn -1.000000 0.000000 0.000000
vn -1.000000 0.000000 0.000000
vn -1.000000 0.000000 0.000000
vn -1.000000 0.000000 0.000000
vn 0.000000 0.000000 1.000000
vn 0.000000 0.000000 1.000000
vn 0.000000 0.000000 1.000000
vn 0.000000 0.000000 1.000000
vn 0.000000 1.000000 0.000000
vn 0.000000 1.000000 0.000000
vn 0.000000 1.000000 0.000000
vn 0.000000 1.000000 0.000000
vn 0.000000 0.000000 -1.000000
vn 0.000000 0.000000 -1.000000
vn 0.000000 0.000000 -1.000000
vn 0.000000 0.000000 -1.000000
vn 0.000000 -1.000000 0.000000
vn 0.000000 -1.000000 0.000000
vn 0.000000 -1.000000 0.000000
vn 0.000000 -1.000000 0.000000
vn 1.000000 0.000000 0.000000
vn 1.000000 0.000000 0.000000
vn 1.000000 0.000000 0.000000
vn 1.000000 0.000000 0.000000
vn -1.000000 0.000000 0.000000
vn -1.000000 0.000000 0.000000
vn -1.000000 0.000000 0.000000
vn -1.000000 0.000000 0.000000
vn 0.000000 0.000000 1.000000
vn 0.000000 0.000000 1.000000
vn 0.000000 0.000000 1.000000
vn 0.000000 0.000000 1.000000
vn -0.000001 0.000000 -1.000000
vn -0.000001 0.000000 -1.000000
vn -0.000001 0.000000 -1.000000
vn -0.000001 0.000000 -1.000000
vn 0.000000 -1.000000 0.000000
vn 0.000000 -1.000000 0.000000
vn 0.000000 -1.000000 0.000000
vn 0.000000 -1.000000 0.000000
g AirDuct_Straight_Short_LOD1 AirDuct_Straight_Short
usemtl lambert16SG
f 3/1/1 4/2/2 12/3/3 9/4/4
f 2/5/5 11/6/6 12/7/7 4/8/8
f 10/9/9 1/10/10 3/11/11 9/12/12
f 5/13/13 7/14/14 13/15/15 14/16/16
f 8/17/17 6/18/18 16/19/19 15/20/20
f 6/18/21 5/13/22 14/16/23 16/19/24
f 13/21/25 10/22/26 9/23/27 14/24/28
f 16/25/29 12/26/30 11/27/31 15/28/32
f 14/29/33 9/30/34 12/31/35 16/32/36
f 2/33/37 4/34/38 6/35/39 8/36/40
f 4/37/41 3/38/42 5/39/43 6/40/44
f 3/41/45 1/42/46 7/43/47 5/44/48
f 17/45/49 18/46/50 20/47/51 19/48/52
f 19/49/53 20/50/54 22/51/55 21/52/56
f 21/53/57 22/54/58 24/55/59 23/56/60
f 23/57/61 24/58/62 18/59/63 17/60/64
f 18/61/65 24/62/66 22/63/67 20/64/68
f 23/65/69 17/66/70 19/67/71 21/68/72
f 32/69/73 29/70/74 26/71/75 25/72/76
f 28/73/77 27/74/78 30/75/79 31/76/80
f 25/77/81 28/78/82 31/79/83 32/80/84
f 3/81/85 4/82/86 12/83/87 9/84/88
f 2/85/89 11/86/90 12/87/91 4/88/92
f 10/89/93 1/90/94 3/91/95 9/92/96
f 5/93/97 7/94/98 13/95/99 14/96/100
f 8/97/101 6/98/102 16/99/103 15/100/104
f 6/98/105 5/93/106 14/96/107 16/99/108
f 13/101/109 10/102/110 9/103/111 14/104/112
f 16/105/113 12/106/114 11/107/115 15/108/116
f 14/109/117 9/110/118 12/111/119 16/112/120
f 2/113/121 4/114/122 6/115/123 8/116/124
f 4/117/125 3/118/126 5/119/127 6/120/128
f 3/121/129 1/122/130 7/123/131 5/124/132
f 37/125/133 34/126/134 63/223/135 64/224/136
f 34/126/137 36/128/138 62/221/139 63/223/140
f 35/127/141 33/130/142 60/218/143 61/219/144
f 33/130/145 38/129/146 59/216/147 60/218/148
f 53/207/149 54/208/150 40/131/151 43/132/152
f 54/208/153 55/209/154 42/134/155 40/131/156
f 56/212/157 57/213/158 39/136/159 41/133/160
f 57/213/161 58/214/162 44/135/163 39/136/164
f 62/222/165 36/137/166 35/138/167 61/220/168
f 56/211/169 41/139/170 42/140/171 55/210/172
f 53/206/173 43/141/174 37/142/175 64/205/176
f 59/217/177 38/143/178 44/144/179 58/215/180
f 17/145/181 18/146/182 20/147/183 19/148/184
f 19/149/185 20/150/186 22/151/187 21/152/188
f 21/153/189 22/154/190 24/155/191 23/156/192
f 23/157/193 24/158/194 18/159/195 17/160/196
f 18/161/197 24/162/198 22/163/199 20/164/200
f 23/165/201 17/166/202 19/167/203 21/168/204
f 45/169/205 46/170/206 48/171/207 47/172/208
f 47/173/209 48/174/210 50/175/211 49/176/212
f 49/177/213 50/178/214 52/179/215 51/180/216
f 51/181/217 52/182/218 46/183/219 45/184/220
f 46/185/221 52/186/222 50/187/223 48/188/224
f 51/189/225 45/190/226 47/191/227 49/192/228
f 32/193/229 29/194/230 26/195/231 25/196/232
f 28/197/233 27/198/234 30/199/235 31/200/236
f 25/201/237 28/202/238 31/203/239 32/204/240
