# This file uses meters as units for non-parametric coordinates.

mtllib AirDuct_90_Right_LOD2.mtl
g default
v 69.041687 126.288589 -94.886810
v 41.248260 126.288589 -81.006165
v 18.915497 126.288589 -58.910458
v 4.977051 126.288589 -30.662262
v 0.000061 126.288589 0.000000
v 100.000000 126.288589 -100.000038
v 38.238678 126.288589 -189.803650
v -17.457424 126.288589 -161.433258
v -61.229130 126.288589 -117.182922
v -89.855591 126.288589 -61.489750
v -100.000000 126.288589 0.000000
v 100.000000 126.288589 -200.000000
v 38.238686 26.288567 -189.803650
v -17.457424 26.288567 -161.433258
v -61.229061 26.288567 -117.182884
v -89.859619 26.288567 -61.486328
v -100.000000 26.288582 0.000000
v 100.000000 26.288567 -200.000000
v 69.041687 26.288582 -94.886780
v 41.248260 26.288582 -81.006165
v 18.927242 26.288582 -58.920258
v 4.985443 26.288582 -30.669250
v 0.000061 26.288582 0.000000
v 100.000000 26.288582 -100.000000
vt 0.985999 0.457582
vt 0.985999 0.567523
vt 0.946102 0.451666
vt 0.912598 0.554920
vt 0.910274 0.433754
vt 0.846406 0.521203
vt 0.881852 0.405563
vt 0.794400 0.468612
vt 0.863852 0.369166
vt 0.760197 0.402280
vt 0.857772 0.329355
vt 0.747831 0.329355
vt 0.149656 0.830400
vt 0.149656 0.946863
vt 0.112482 0.830400
vt 0.112480 0.946863
vt 0.082802 0.830400
vt 0.082788 0.946863
vt 0.052596 0.830400
vt 0.052594 0.946862
vt 0.011614 0.830399
vt 0.011612 0.946862
vt 0.190977 0.830400
vt 0.190977 0.946863
vt 0.743834 0.014966
vt 0.853776 0.014966
vt 0.756802 0.088248
vt 0.859772 0.054837
vt 0.790464 0.154333
vt 0.877672 0.090641
vt 0.842970 0.206255
vt 0.905754 0.118936
vt 0.909212 0.240422
vt 0.942149 0.136949
vt 0.982002 0.253134
vt 0.982002 0.143193
vt 0.616948 0.817845
vt 0.616948 0.701428
vt 0.689996 0.817845
vt 0.689996 0.701428
vt 0.747402 0.817845
vt 0.747402 0.701428
vt 0.807371 0.817845
vt 0.807371 0.701428
vt 0.888104 0.817844
vt 0.888104 0.701428
vt 0.535944 0.817845
vt 0.535825 0.701428
vn 0.000000 1.000000 -0.000000
vn 0.000000 1.000000 -0.000000
vn 0.000000 1.000000 -0.000000
vn 0.000000 1.000000 -0.000000
vn 0.000000 1.000000 0.000000
vn 0.000000 1.000000 0.000000
vn 0.000000 1.000000 0.000000
vn 0.000000 1.000000 0.000000
vn 0.000000 1.000000 0.000000
vn 0.000000 1.000000 0.000000
vn 0.000000 1.000000 0.000000
vn 0.000000 1.000000 0.000000
vn 0.162957 0.000000 0.986633
vn 0.307614 0.000000 0.951511
vn 0.307614 0.000000 0.951511
vn 0.162957 0.000000 0.986633
vn 0.583074 0.000003 0.812419
vn 0.583074 0.000003 0.812419
vn 0.811376 0.000030 0.584525
vn 0.811358 0.000030 0.584550
vn 0.952105 0.000045 0.305770
vn 0.952100 0.000045 0.305786
vn 0.987063 0.000036 0.160333
vn 0.987063 0.000036 0.160333
vn 0.000000 -1.000000 0.000000
vn 0.000000 -1.000000 0.000000
vn 0.000000 -1.000000 0.000000
vn 0.000000 -1.000000 0.000000
vn 0.000000 -1.000000 0.000000
vn 0.000000 -1.000000 0.000000
vn 0.000000 -1.000000 0.000000
vn 0.000000 -1.000000 0.000000
vn 0.000000 -1.000000 0.000000
vn 0.000000 -1.000000 0.000000
vn 0.000000 -1.000000 0.000000
vn 0.000000 -1.000000 0.000000
vn -0.162888 0.000000 -0.986645
vn -0.311960 -0.000000 -0.950095
vn -0.311960 -0.000000 -0.950095
vn -0.162888 0.000000 -0.986645
vn -0.589661 -0.000000 -0.807651
vn -0.589661 -0.000000 -0.807651
vn -0.809842 0.000005 -0.586648
vn -0.809842 0.000005 -0.586648
vn -0.949387 0.000014 -0.314108
vn -0.949385 0.000014 -0.314116
vn -0.986667 0.000017 -0.162750
vn -0.986667 0.000017 -0.162750
g AirDuct_90_Right_LOD2 AirDuct_90_Right
usemtl lambert16SG
f 12/2/1 7/4/2 1/3/3 6/1/4
f 7/4/2 8/6/5 2/5/6 1/3/3
f 8/6/5 9/8/7 3/7/8 2/5/6
f 9/8/7 10/10/9 4/9/10 3/7/8
f 10/10/9 11/12/11 5/11/12 4/9/10
f 6/24/13 1/14/14 19/13/15 24/23/16
f 1/14/14 2/16/17 20/15/18 19/13/15
f 2/16/17 3/18/19 21/17/20 20/15/18
f 3/18/19 4/20/21 22/19/22 21/17/20
f 4/20/21 5/22/23 23/21/24 22/19/22
f 24/26/25 19/28/26 13/27/27 18/25/28
f 19/28/26 20/30/29 14/29/30 13/27/27
f 20/30/29 21/32/31 15/31/32 14/29/30
f 21/32/31 22/34/33 16/33/34 15/31/32
f 22/34/33 23/36/35 17/35/36 16/33/34
f 18/48/37 13/38/38 7/37/39 12/47/40
f 13/38/38 14/40/41 8/39/42 7/37/39
f 14/40/41 15/42/43 9/41/44 8/39/42
f 15/42/43 16/44/45 10/43/46 9/41/44
f 16/44/45 17/46/47 11/45/48 10/43/46
