# This file uses meters as units for non-parametric coordinates.

mtllib AirDuct_90_Left_LOD2.mtl
g default
v -172.374146 126.288589 -99.854454
v -144.580734 126.288589 -85.973808
v -122.247948 126.288589 -63.878113
v -108.309532 126.288589 -35.629913
v -103.332504 126.288589 -4.967651
v -203.332443 126.288589 -104.967674
v -141.571136 126.288589 -194.771301
v -85.875023 126.288589 -166.400909
v -42.103355 126.288589 -122.150574
v -13.476840 126.288589 -66.457397
v -3.332484 126.288589 -4.967651
v -203.332443 126.288589 -204.967636
v -141.571121 26.288567 -194.771301
v -85.875000 26.288567 -166.400909
v -42.103371 26.288567 -122.150543
v -13.472858 26.288567 -66.453979
v -3.332484 26.288582 -4.967651
v -203.332443 26.288567 -204.967636
v -172.374146 26.288582 -99.854424
v -144.580719 26.288582 -85.973808
v -122.259689 26.288582 -63.887905
v -108.317902 26.288582 -35.636902
v -103.332504 26.288582 -4.967651
v -203.332443 26.288582 -104.967651
vt 0.985999 0.457582
vt 0.985999 0.567523
vt 0.946102 0.451666
vt 0.912598 0.554920
vt 0.910274 0.433754
vt 0.846406 0.521203
vt 0.881852 0.405563
vt 0.794400 0.468612
vt 0.863852 0.369166
vt 0.760197 0.402280
vt 0.857772 0.329355
vt 0.747831 0.329355
vt 0.149656 0.830400
vt 0.149656 0.946863
vt 0.112482 0.830400
vt 0.112480 0.946863
vt 0.082802 0.830400
vt 0.082788 0.946863
vt 0.052596 0.830400
vt 0.052594 0.946862
vt 0.011614 0.830399
vt 0.011612 0.946862
vt 0.190977 0.830400
vt 0.190977 0.946863
vt 0.743834 0.014966
vt 0.853776 0.014966
vt 0.756802 0.088248
vt 0.859772 0.054837
vt 0.790464 0.154333
vt 0.877672 0.090641
vt 0.842970 0.206255
vt 0.905754 0.118936
vt 0.909212 0.240422
vt 0.942149 0.136949
vt 0.982002 0.253134
vt 0.982002 0.143193
vt 0.616948 0.817845
vt 0.616948 0.701428
vt 0.689996 0.817845
vt 0.689996 0.701428
vt 0.747402 0.817845
vt 0.747402 0.701428
vt 0.807371 0.817845
vt 0.807371 0.701428
vt 0.888104 0.817844
vt 0.888104 0.701428
vt 0.535944 0.817845
vt 0.535825 0.701428
vn 0.000000 1.000000 0.000000
vn 0.000000 1.000000 0.000000
vn 0.000000 1.000000 0.000000
vn 0.000000 1.000000 0.000000
vn 0.000000 1.000000 0.000000
vn 0.000000 1.000000 0.000000
vn 0.000000 1.000000 0.000000
vn 0.000000 1.000000 0.000000
vn 0.000000 1.000000 -0.000000
vn 0.000000 1.000000 -0.000000
vn 0.000000 1.000000 -0.000000
vn 0.000000 1.000000 -0.000000
vn -0.583074 0.000003 0.812419
vn -0.307614 0.000000 0.951511
vn -0.307614 0.000000 0.951511
vn -0.583074 0.000003 0.812419
vn -0.811376 0.000030 0.584525
vn -0.811358 0.000030 0.584550
vn -0.952105 0.000045 0.305770
vn -0.952100 0.000045 0.305786
vn -0.987063 0.000036 0.160334
vn -0.987063 0.000036 0.160334
vn -0.162957 0.000000 0.986633
vn -0.162957 0.000000 0.986633
vn -0.000000 -1.000000 0.000000
vn -0.000000 -1.000000 0.000000
vn -0.000000 -1.000000 0.000000
vn -0.000000 -1.000000 0.000000
vn -0.000000 -1.000000 0.000000
vn -0.000000 -1.000000 0.000000
vn -0.000000 -1.000000 0.000000
vn -0.000000 -1.000000 0.000000
vn -0.000000 -1.000000 0.000000
vn -0.000000 -1.000000 0.000000
vn -0.000000 -1.000000 0.000000
vn -0.000000 -1.000000 0.000000
vn 0.589661 0.000000 -0.807651
vn 0.311960 0.000000 -0.950095
vn 0.311960 0.000000 -0.950095
vn 0.589661 0.000000 -0.807651
vn 0.809842 0.000005 -0.586648
vn 0.809842 0.000005 -0.586648
vn 0.949387 0.000013 -0.314108
vn 0.949385 0.000013 -0.314116
vn 0.986668 0.000017 -0.162749
vn 0.986667 0.000017 -0.162749
vn 0.162888 0.000000 -0.986645
vn 0.162888 0.000000 -0.986645
g AirDuct_90_Left_LOD2 AirDuct_90_Left
usemtl lambert16SG
f 7/4/1 12/2/2 6/1/3 1/3/4
f 8/6/5 7/4/1 1/3/4 2/5/6
f 9/8/7 8/6/5 2/5/6 3/7/8
f 10/10/9 9/8/7 3/7/8 4/9/10
f 11/12/11 10/10/9 4/9/10 5/11/12
f 2/16/13 1/14/14 19/13/15 20/15/16
f 3/18/17 2/16/13 20/15/16 21/17/18
f 4/20/19 3/18/17 21/17/18 22/19/20
f 5/22/21 4/20/19 22/19/20 23/21/22
f 1/14/14 6/24/23 24/23/24 19/13/15
f 19/28/25 24/26/26 18/25/27 13/27/28
f 20/30/29 19/28/25 13/27/28 14/29/30
f 21/32/31 20/30/29 14/29/30 15/31/32
f 22/34/33 21/32/31 15/31/32 16/33/34
f 23/36/35 22/34/33 16/33/34 17/35/36
f 14/40/37 13/38/38 7/37/39 8/39/40
f 15/42/41 14/40/37 8/39/40 9/41/42
f 16/44/43 15/42/41 9/41/42 10/43/44
f 17/46/45 16/44/43 10/43/44 11/45/46
f 13/38/38 18/48/47 12/47/48 7/37/39
