# This file uses meters as units for non-parametric coordinates.

mtllib BuildingA_Top_Wall_Short3M_VarA_LOD0.mtl
g default
v 25.707245 329.104218 -11.063156
v 273.827911 329.104218 -11.063156
v 25.707245 357.044800 -11.063156
v 273.827911 357.044800 -11.063156
v 25.707245 357.044800 -27.683994
v 273.827911 357.044800 -27.683994
v 25.707245 329.104218 -27.683994
v 273.827911 329.104218 -27.683994
v 25.707245 354.456787 -11.063156
v 273.827911 354.456787 -11.063156
v 25.707245 331.480194 -11.063156
v 273.827911 331.480194 -11.063156
v 25.707245 329.104218 -13.429517
v 273.827911 329.104218 -13.429517
v 273.827911 357.044800 -12.939632
v 25.707245 357.044800 -12.939632
v 0.000000 0.000000 -63.278843
v 0.000000 400.000000 -63.278843
v 299.999969 400.000000 -63.278843
v 299.999969 0.000000 -63.278843
v 25.707188 400.000000 -18.129299
v 273.827911 400.000000 -18.129299
v 273.827911 400.000000 0.000000
v 299.999969 400.000000 0.000000
v 25.707188 400.000000 0.000000
v 0.000000 400.000000 0.000000
v 299.999969 0.000004 0.000000
v 273.827911 0.000004 0.000000
v 273.827911 0.000004 -18.129299
v 25.707241 0.000004 -18.129299
v 25.707241 0.000004 0.000000
v 0.000004 -0.000004 0.000000
v 25.707245 110.482201 -8.422253
v 273.827911 110.482201 -8.422253
v 25.707245 110.482201 -65.554352
v 273.827911 110.482201 -65.554352
v 25.707245 92.549980 -65.554352
v 273.827911 92.549980 -65.554352
v 25.707245 92.549980 -15.069923
v 25.707245 99.197655 -8.422253
v 273.827911 99.197655 -8.422253
v 273.827911 92.549980 -15.069923
v 25.707188 400.000000 -4.752802
v 25.707241 0.000004 -4.752802
v 21.550858 0.000004 0.000000
v 21.550804 400.000000 0.000000
v 277.984283 400.000000 0.000000
v 277.984283 0.000004 0.000000
v 273.827911 0.000004 -4.693312
v 273.827911 400.000000 -4.693312
v 25.707245 101.400909 -8.422253
v 273.827911 101.400909 -8.422253
v 25.707245 92.549980 -17.500645
v 273.827911 92.549980 -17.500645
v 25.707245 110.482201 -11.235945
v 273.827911 110.482201 -11.235945
v 273.827911 107.108948 -8.422253
v 25.707245 107.108948 -8.422253
v 273.827911 342.294556 -18.129299
v 25.707191 342.294556 -18.129299
v 25.707230 101.590683 -18.129299
v 273.827911 101.590683 -18.129299
v 163.737885 110.482201 -15.173829
v 163.737885 329.104218 -15.173829
v 135.797302 110.482201 -15.173829
v 135.797302 329.104218 -15.173829
v 135.797302 110.482201 -31.794664
v 135.797302 329.104218 -31.794664
v 163.737885 110.482201 -31.794664
v 163.737885 329.104218 -31.794664
v 135.797302 110.482201 -18.057842
v 135.797302 329.104218 -18.057842
v 138.385315 110.482201 -15.173829
v 138.385315 329.104218 -15.173829
v 161.361908 110.482201 -15.173829
v 161.361908 329.104218 -15.173829
v 163.737885 110.482201 -17.540188
v 163.737885 329.104218 -17.540188
v 25.707186 342.294556 -63.278843
v 273.827911 342.294556 -63.278843
v 25.707188 101.590683 -63.278843
v 273.827911 101.590691 -63.278843
v 25.707186 342.294556 -59.200668
v 273.827911 342.294556 -59.200668
v 273.827911 101.590691 -59.200668
v 25.707188 101.590683 -59.200668
v 276.235474 99.124069 -63.278843
v 23.310873 99.124031 -63.278843
v 23.310875 343.695648 -63.278843
v 276.235504 343.695648 -63.278843
v 25.707186 342.294556 -61.039768
v 273.827911 342.294556 -61.039768
v 273.827911 101.590691 -61.039768
v 25.707188 101.590683 -61.039768
v 273.827911 110.482201 -62.934845
v 25.707245 110.482201 -62.934841
v 273.827911 92.549973 -62.797634
v 25.707245 92.549980 -62.797630
v 25.707245 329.104218 -65.368568
v 273.827911 329.104218 -65.368568
v 25.707245 357.044800 -65.368568
v 273.827911 357.044800 -65.368568
v 25.707245 357.044800 -47.796402
v 273.827911 357.044800 -47.796402
v 25.707245 329.104218 -47.796402
v 273.827911 329.104218 -47.796402
v 25.707245 329.104218 -63.002213
v 273.827911 329.104218 -63.002213
v 273.827911 357.044800 -63.011600
v 25.707245 357.044800 -63.011600
v 25.707245 355.019318 -62.976086
v 25.707245 355.019318 -65.368568
v 273.827911 355.019318 -65.368568
v 273.827911 355.019318 -62.976086
v 25.707245 331.221893 -63.039337
v 25.707245 331.221924 -65.368568
v 273.827911 331.221893 -65.368568
v 273.827911 331.221924 -63.039337
v 273.827911 342.294556 -22.062553
v 25.707191 342.294556 -22.062553
v 25.707230 101.590683 -22.062553
v 273.827911 101.590683 -22.062553
v 273.827911 108.189812 -62.917305
v 273.827911 108.189812 -65.554352
v 25.707245 108.189812 -65.554352
v 25.707245 108.189812 -62.917297
v 273.827911 95.040161 -62.816692
v 273.827911 95.040169 -65.554352
v 25.707245 95.040169 -65.554352
v 25.707245 95.040169 -62.816685
vt -1.282739 0.526878
vt -0.286723 0.526878
vt -0.286723 0.537267
vt -1.282739 0.537267
vt -0.286723 0.544800
vt -1.282739 0.544800
vt -1.282739 0.415608
vt -0.286723 0.415608
vt -0.286723 0.425107
vt -1.282739 0.425107
vt -1.282739 0.434645
vt -0.286723 0.434645
vt -1.282739 0.358387
vt -0.286723 0.358387
vt -0.286723 0.603987
vt -1.282739 0.603987
vt 0.143910 2.299840
vt 0.072367 2.299840
vt 0.072367 1.000000
vt 0.143910 1.000000
vt 0.043610 2.299840
vt -0.000052 2.112321
vt -0.000052 1.330129
vt 0.043610 1.000000
vt 0.242892 1.000000
vt 0.286361 1.330128
vt 0.286361 2.112321
vt 0.242892 2.299840
vt 0.143910 1.000000
vt 0.213941 1.000000
vt 0.213941 2.299840
vt 0.143910 2.299840
vt 0.985150 -1.223411
vt 0.985155 -1.198531
vt -0.096262 -1.198531
vt -0.096257 -1.223410
vt -0.096264 -1.171564
vt 0.985157 -1.171564
vt 0.985157 -0.946225
vt -0.096264 -0.946224
vt -0.096248 -1.284582
vt 0.985141 -1.284582
vt 0.985141 -1.273988
vt -0.096248 -1.273988
vt -0.096256 -1.233014
vt 0.985149 -1.233013
vt 0.227448 1.000000
vt 0.227448 2.299840
vt 0.058861 2.299840
vt 0.058861 1.000000
vt 0.985151 -0.856647
vt 0.985152 -1.482004
vt -0.096259 -1.482004
vt -0.096260 -1.494019
vt 0.985156 -1.183828
vt -0.096263 -1.183827
vt -0.000052 2.299840
vt -1.292854 -0.177955
vt -1.292855 -0.341719
vt -0.588705 -0.341720
vt -0.588706 -0.177955
vt 0.286361 2.299840
vt 0.286361 1.000000
vt -0.586821 -1.084823
vt -1.290938 -1.084823
vt -1.290954 -1.373135
vt -0.586805 -1.373135
vt -0.000052 1.000000
vt -1.563044 0.412761
vt -2.559060 0.412761
vt -2.559060 0.400971
vt -1.563044 0.400971
vt -1.563044 0.387831
vt -2.559060 0.387831
vt -2.559060 0.325248
vt -1.563044 0.325248
vt -1.563044 0.539045
vt -2.559060 0.539045
vt -2.559060 0.528265
vt -1.563044 0.528265
vt -1.563044 0.517440
vt -2.559060 0.517440
vt -1.563044 0.603987
vt -2.559060 0.603987
vt 0.797095 -0.279128
vt -0.257231 -0.278771
vt -0.267466 -0.289248
vt 0.807274 -0.289613
vt 0.807612 0.749636
vt -0.267099 0.750001
vt -0.256871 0.744044
vt 0.797428 0.743686
vt 0.655141 0.569717
vt -0.125278 0.569717
vt -0.125278 -0.187374
vt 0.655141 -0.187374
vt -0.096262 -0.934807
vt 0.985155 -0.934807
vt 0.797424 0.734171
vt -0.256874 0.734530
vt -0.256877 0.726715
vt 0.797422 0.726356
vt -0.247356 0.744040
vt -0.247717 -0.278774
vt -0.239902 -0.278776
vt -0.239541 0.744037
vt -0.257228 -0.269256
vt 0.797098 -0.269614
vt 0.797100 -0.261799
vt -0.257225 -0.261442
vt 0.787581 -0.279125
vt 0.787913 0.743688
vt 0.780099 0.743690
vt 0.779766 -0.279122
vt -0.368595 -0.710419
vt 0.906191 -0.710852
vt 0.906740 0.988858
vt -0.367994 0.989290
vt -1.282634 0.529127
vt -0.286828 0.529127
vt -0.286828 0.537256
vt -1.282634 0.537256
vt -0.286828 0.544787
vt -1.282635 0.544787
vt -1.282634 0.415620
vt -0.286828 0.415620
vt -0.286828 0.425118
vt -1.282635 0.425118
vt -1.282633 0.358412
vt -0.286829 0.358412
vt -0.286826 0.603963
vt -1.282636 0.603962
vt -1.290306 0.529127
vt -1.290163 0.537256
vt -0.279299 0.537256
vt -0.279156 0.529127
vt -1.291985 0.433618
vt -1.282635 0.433617
vt -0.286828 0.433617
vt -0.277477 0.433618
vt -1.292135 0.425118
vt -0.277328 0.425118
vt 0.996551 -0.934801
vt 0.997151 -0.856637
vt -0.108258 -0.856637
vt -0.107658 -0.934800
vt -0.096257 -0.856647
vt 0.985152 -1.494019
vt -1.346080 -0.415294
vt -2.115794 -0.415294
vt -2.115794 -1.162000
vt -1.346080 -1.162000
vt 0.299142 1.330130
vt 0.299142 2.112320
vt -0.012834 2.112321
vt -0.012834 1.330129
vt -1.292853 -0.352882
vt -0.588707 -0.352881
vt -0.586822 -1.073661
vt -1.290938 -1.073661
vt 0.996628 -0.924808
vt 0.985155 -0.924815
vt -0.096262 -0.924815
vt -0.107735 -0.924808
vt 0.997068 -0.867492
vt 0.985151 -0.867501
vt -0.096258 -0.867501
vt -0.108175 -0.867492
vn 0.000000 0.000000 1.000000
vn 0.000000 0.000000 1.000000
vn 0.000000 0.587001 0.809586
vn 0.000000 0.587001 0.809586
vn 0.000000 1.000000 0.000000
vn 0.000000 1.000000 0.000000
vn 0.000000 -1.000000 0.000000
vn 0.000000 -1.000000 0.000000
vn 0.000000 -0.705670 0.708541
vn 0.000000 -0.705670 0.708541
vn 0.000000 0.000000 1.000000
vn 0.000000 0.000000 1.000000
vn 0.000000 -1.000000 0.000000
vn 0.000000 -1.000000 0.000000
vn 0.000000 1.000000 0.000000
vn 0.000000 1.000000 0.000000
vn 0.000000 0.000000 1.000000
vn 0.000000 0.000000 1.000000
vn 0.000000 0.000000 1.000000
vn 0.000000 0.000000 1.000000
vn -1.000000 0.000000 0.000000
vn -1.000000 0.000000 0.000000
vn -1.000000 0.000000 0.000000
vn -1.000000 0.000000 0.000000
vn 0.000000 0.000000 1.000000
vn 0.000000 0.000000 1.000000
vn 0.000000 0.000000 1.000000
vn 0.000000 0.000000 1.000000
vn 1.000000 0.000000 -0.000000
vn 1.000000 0.000000 -0.000000
vn 1.000000 0.000000 -0.000000
vn 1.000000 0.000000 -0.000000
vn 0.000000 0.000000 1.000000
vn 0.000000 0.000000 1.000000
vn 0.000000 0.000000 1.000000
vn 0.000000 0.000000 1.000000
vn 0.000000 0.000000 1.000000
vn 0.000000 0.000000 1.000000
vn 0.000000 0.000000 1.000000
vn 0.000000 0.000000 1.000000
vn 0.000000 1.000000 0.000000
vn 0.000000 1.000000 0.000000
vn 0.000000 1.000000 0.000000
vn 0.000000 1.000000 0.000000
vn -0.000000 -1.000000 0.000000
vn -0.000000 -1.000000 0.000000
vn 0.000000 -0.806821 0.590797
vn 0.000000 -0.806821 0.590797
vn 0.000000 -0.600547 0.799589
vn 0.000000 -0.600547 0.799589
vn 0.752759 0.000000 0.658297
vn 0.752759 0.000000 0.658297
vn -0.748633 0.000000 0.662985
vn -0.748633 0.000000 0.662985
vn -0.000000 -0.742068 -0.670324
vn -0.000000 -1.000000 0.000000
vn -0.000000 -1.000000 0.000000
vn -0.000000 -0.742068 -0.670324
vn 0.000000 0.640540 0.767925
vn 0.000000 0.640540 0.767925
vn -1.000000 0.000000 0.000000
vn 0.000000 0.000000 1.000000
vn 0.000000 0.000000 1.000000
vn 0.000000 0.000000 1.000000
vn 0.000000 0.000000 1.000000
vn 1.000000 0.000000 0.000000
vn 1.000000 0.000000 0.000000
vn 0.000000 0.000000 1.000000
vn 0.000000 0.000000 1.000000
vn 0.000000 0.000000 1.000000
vn 0.000000 0.000000 1.000000
vn -1.000000 0.000000 0.000000
vn 0.000000 0.000000 1.000000
vn 0.000000 0.000000 1.000000
vn -0.744269 0.000000 0.667880
vn -0.744269 0.000000 0.667880
vn -1.000000 0.000000 0.000000
vn -1.000000 0.000000 0.000000
vn -1.000000 0.000000 0.000000
vn -1.000000 0.000000 0.000000
vn 1.000000 0.000000 0.000000
vn 1.000000 0.000000 0.000000
vn 0.705671 0.000000 0.708539
vn 0.705671 0.000000 0.708539
vn 0.000000 0.000000 1.000000
vn 0.000000 0.000000 1.000000
vn 1.000000 0.000000 0.000000
vn 1.000000 0.000000 0.000000
vn 0.000000 0.516423 -0.856333
vn 0.000000 0.516044 -0.856562
vn 0.000000 0.000000 -1.000000
vn 0.000000 0.000000 -1.000000
vn 0.000000 0.000000 -1.000000
vn 0.000000 0.000000 -1.000000
vn 0.000000 -0.689094 -0.724672
vn 0.000000 -0.689377 -0.724403
vn -0.000000 0.000000 -1.000000
vn -0.000000 0.000000 -1.000000
vn 0.569809 0.000000 -0.821777
vn 0.523357 0.000000 -0.852113
vn 0.007412 -0.007640 -0.999943
vn -0.007412 -0.007640 -0.999943
vn -0.007412 0.007640 -0.999943
vn 0.007412 0.007640 -0.999943
vn 0.000000 0.000000 -1.000000
vn 0.000000 0.000000 -1.000000
vn -0.521952 0.000000 -0.852975
vn -0.568379 0.000000 -0.822767
vn 0.000000 0.752531 -0.658556
vn 0.000000 0.752531 -0.658556
vn 0.000000 0.000000 -1.000000
vn 0.000000 0.000000 -1.000000
vn 0.000000 -1.000000 0.000000
vn 0.000000 -1.000000 0.000000
vn -1.000000 0.000000 0.000000
vn -1.000000 0.000000 0.000000
vn -0.000000 1.000000 0.000000
vn -0.000000 1.000000 0.000000
vn 1.000000 0.000000 0.000000
vn 1.000000 0.000000 0.000000
vn 0.000000 0.000000 -1.000000
vn 0.000000 0.000000 -1.000000
vn -0.000000 0.000000 -1.000000
vn -0.000000 0.000000 -1.000000
vn 0.000000 0.000000 -1.000000
vn 0.000000 0.000000 -1.000000
vn 0.000000 0.000000 -1.000000
vn 0.000000 0.000000 -1.000000
vn 1.000000 0.000010 0.000000
vn 1.000000 0.000010 0.000000
vn 1.000000 0.000001 0.000000
vn 1.000000 0.000001 0.000000
vn -1.000000 0.000000 0.000000
vn -1.000000 0.000000 0.000000
vn -1.000000 0.000000 0.000000
vn -1.000000 0.000000 0.000000
vn 0.000000 0.000000 -1.000000
vn 0.000000 0.758426 -0.651759
vn 0.000000 0.758426 -0.651759
vn 0.000000 0.000000 -1.000000
vn 0.000000 1.000000 0.000000
vn 0.000000 1.000000 0.000000
vn 0.000000 -1.000000 0.000000
vn 0.000000 -0.745168 -0.666876
vn 0.000000 -0.745168 -0.666876
vn 0.000000 -1.000000 0.000000
vn 0.000000 -1.000000 0.000000
vn 0.000000 -1.000000 0.000000
vn 0.000000 1.000000 0.000000
vn 0.000000 1.000000 0.000000
vn -1.000000 0.000000 0.000000
vn -1.000000 0.000000 0.000000
vn -1.000000 0.000000 0.000000
vn -1.000000 0.000000 0.000000
vn 1.000000 -0.000013 0.000000
vn 1.000000 -0.000013 0.000000
vn 1.000000 -0.000013 0.000000
vn 1.000000 -0.000013 0.000000
vn -1.000000 0.000000 0.000000
vn -1.000000 0.000000 0.000000
vn -1.000000 0.000000 0.000000
vn -1.000000 0.000000 0.000000
vn 0.000000 0.000000 -1.000000
vn 0.000000 0.000000 -1.000000
vn 1.000000 0.000000 0.000000
vn 1.000000 0.000000 0.000000
vn 1.000000 0.000000 0.000000
vn 1.000000 0.000000 0.000000
vn -1.000000 0.000000 0.000000
vn -1.000000 0.000000 0.000000
vn -1.000000 0.000000 0.000000
vn -1.000000 0.000000 0.000000
vn 1.000000 0.000000 0.000000
vn 1.000000 0.000000 0.000000
vn 1.000000 0.000000 0.000000
vn 1.000000 0.000000 0.000000
vn 0.000000 -1.000000 0.000000
vn 0.000000 -1.000000 0.000000
vn 0.000000 -1.000000 0.000000
vn 0.000000 -1.000000 0.000000
vn 1.000000 0.000000 0.000000
vn 1.000000 0.000000 0.000000
vn 1.000000 0.000000 0.000000
vn 1.000000 0.000000 0.000000
vn 0.000000 1.000000 0.000000
vn 0.000000 1.000000 0.000000
vn 0.000000 1.000000 0.000000
vn 0.000000 1.000000 0.000000
vn -1.000000 0.000000 0.000000
vn -1.000000 0.000000 0.000000
vn -1.000000 0.000000 0.000000
vn -1.000000 0.000000 0.000000
vn 1.000000 0.000000 0.000000
vn 1.000000 0.000000 0.000000
vn 0.000000 0.000000 -1.000000
vn 0.000000 0.000000 -1.000000
vn -1.000000 0.000000 0.000000
vn -1.000000 0.000000 0.000000
vn 1.000000 0.000000 0.000000
vn 1.000000 0.000000 0.000000
vn -1.000000 0.000000 0.000000
vn -1.000000 0.000000 0.000000
g BuildingA_Top_Wall_Short3M_VarA_LOD0 BuildingA_Top_Wall_Short3M_VarA
usemtl BuildingA_Bottom_Wall_Long_VarA_LOD0SG3
f 9/1/1 10/2/2 4/3/3 3/4/4
f 4/3/3 15/5/5 16/6/6 3/4/4
f 13/7/7 14/8/8 2/9/9 1/10/10
f 11/11/11 12/12/12 10/2/2 9/1/1
f 1/10/10 2/9/9 12/12/12 11/11/11
f 7/13/13 8/14/14 14/8/8 13/7/7
f 16/6/6 15/5/5 6/15/15 5/16/16
usemtl BuildingA_Bottom_Corner_LOD0SG
f 24/17/17 47/18/18 48/19/19 27/20/20
f 50/21/21 59/22/22 62/23/23 49/24/24
usemtl BuildingA_Bottom_Wall_Long_VarA_LOD0SG2
f 119/149/25 120/150/26 121/151/27 122/152/28
usemtl BuildingA_Bottom_Corner_LOD0SG
f 44/25/29 61/26/30 60/27/31 43/28/32
f 32/29/33 45/30/34 46/31/35 26/32/36
usemtl BuildingA_Bottom_Corner_LOD0SG2
f 52/33/37 57/34/38 58/35/39 51/36/40
f 55/37/41 56/38/42 95/39/43 96/40/44
f 53/41/45 54/42/46 42/43/47 39/44/48
f 40/45/49 39/44/48 42/43/47 41/46/50
usemtl BuildingA_Bottom_Corner_LOD0SG
f 31/47/51 44/25/29 43/28/32 25/48/52
f 45/30/34 31/47/51 25/48/52 46/31/35
f 47/18/18 23/49/53 28/50/54 48/19/19
f 23/49/53 50/21/21 49/24/24 28/50/54
usemtl BuildingA_Bottom_Corner_LOD0SG2
f 41/46/50 52/33/37 51/36/40 40/45/49
f 38/148/55 97/52/56 98/53/57 37/54/58
f 34/55/59 56/38/42 55/37/41 33/56/60
f 58/35/39 57/34/38 34/55/59 33/56/60
usemtl BuildingA_Bottom_Corner_LOD0SG
f 22/57/61 59/22/22 50/21/21
f 21/58/62 60/59/63 59/60/64 22/61/65
f 43/28/32 60/27/31 21/62/66
f 44/25/29 30/63/67 61/26/30
f 62/64/68 61/65/69 30/66/70 29/67/71
f 49/24/24 62/23/23 29/68/72
usemtl BuildingA_Bottom_Wall_Long_VarA_LOD0SG3
f 73/69/73 74/70/74 66/71/75 65/72/76
f 71/73/77 72/74/78 68/75/79 67/76/80
f 77/77/81 78/78/82 64/79/83 63/80/84
f 65/72/76 66/71/75 72/74/78 71/73/77
f 75/81/85 76/82/86 74/70/74 73/69/73
f 63/80/84 64/79/83 76/82/86 75/81/85
f 69/83/87 70/84/88 78/78/82 77/77/81
usemtl BuildingA_Bottom_Corner_LOD0SG1
f 81/85/89 82/86/90 87/87/91 88/88/92
f 89/89/93 90/90/94 80/91/95 79/92/96
f 88/88/97 89/89/98 79/92/99 81/85/100
usemtl BuildingA_Bottom_Wall_Long_VarA_LOD0SG2
f 83/93/101 84/94/102 85/95/103 86/96/104
usemtl BuildingA_Bottom_Corner_LOD0SG1
f 90/90/105 87/87/106 82/86/107 80/91/108
usemtl BuildingA_Bottom_Corner_LOD0SG2
f 35/97/109 36/98/110 124/162/111 125/163/112
usemtl BuildingA_Bottom_Corner_LOD0SG1
f 91/99/113 92/100/114 84/101/102 83/102/101
f 92/103/115 93/104/116 85/105/103 84/106/102
f 93/107/117 94/108/118 86/109/104 85/110/103
f 94/111/119 91/112/120 83/113/101 86/114/104
f 88/88/92 87/87/91 20/115/121 17/116/122
f 18/117/123 89/89/98 88/88/97 17/116/124
f 19/118/125 90/90/94 89/89/93 18/117/126
f 20/115/127 87/87/106 90/90/105 19/118/128
f 79/92/96 80/91/95 92/100/114 91/99/113
f 80/91/108 82/86/107 93/104/116 92/103/115
f 82/86/90 81/85/89 94/108/118 93/107/117
f 81/85/100 79/92/99 91/112/120 94/111/119
usemtl BuildingA_Bottom_Corner_LOD0SG2
f 96/40/44 95/39/43 36/98/110 35/97/109
f 98/53/57 97/52/56 54/42/46 53/41/45
f 36/98/129 95/143/130 123/161/131 124/162/132
f 125/163/133 126/164/134 96/146/135 35/97/136
usemtl BuildingA_Bottom_Wall_Long_VarA_LOD0SG3
f 112/119/137 101/122/138 102/121/139 113/120/140
f 102/121/139 101/122/138 110/124/141 109/123/142
f 107/125/143 99/128/144 100/127/145 108/126/146
f 105/129/147 107/125/143 108/126/146 106/130/148
f 110/124/141 103/132/149 104/131/150 109/123/142
f 111/133/151 110/134/152 101/122/153 112/119/154
f 109/135/155 114/136/156 113/120/157 102/121/158
f 115/137/159 111/133/160 112/119/161 116/138/162
f 116/138/163 112/119/137 113/120/140 117/139/164
f 114/136/165 118/140/166 117/139/167 113/120/168
f 107/141/169 115/137/170 116/138/171 99/128/172
f 100/127/145 99/128/144 116/138/163 117/139/164
f 118/140/173 108/142/174 100/127/175 117/139/176
usemtl BuildingA_Bottom_Corner_LOD0SG
f 59/60/177 60/59/178 120/157/179 119/158/180
f 60/27/181 61/26/182 121/153/183 120/154/184
f 61/65/185 62/64/186 122/159/187 121/160/188
f 62/23/189 59/22/190 119/155/191 122/156/192
usemtl BuildingA_Bottom_Corner_LOD0SG2
f 124/162/132 123/161/131 127/165/193 128/166/194
f 125/163/112 124/162/111 128/166/195 129/167/196
f 129/167/197 130/168/198 126/164/134 125/163/133
f 128/166/194 127/165/193 97/144/199 38/51/200
f 129/167/196 128/166/195 38/51/55 37/147/58
f 98/145/201 130/168/198 129/167/197 37/147/202
