# This file uses meters as units for non-parametric coordinates.

mtllib BuildingA_Bottom_Wall_Short_VarC_LOD1.mtl
g default
v 0.000012 0.000000 -63.278839
v 0.000012 400.000000 -63.278839
v 400.000000 400.000000 -63.278839
v 400.000000 0.000000 -63.278839
v 60.405380 400.000000 -18.129299
v 339.594238 400.000000 -18.129299
v 339.594238 400.000000 0.000000
v 400.000000 400.000000 0.000000
v 60.405380 400.000000 0.000000
v 0.000013 400.000000 0.000000
v 400.000000 0.000004 0.000000
v 339.594238 0.000004 0.000000
v 339.594238 0.000004 -18.129299
v 60.405434 0.000004 -18.129299
v 60.405434 0.000004 0.000000
v 0.000017 -0.000004 0.000000
v 60.405437 177.404022 -8.422253
v 339.594238 177.404022 -8.422253
v 60.405437 177.404022 -64.719635
v 339.594238 177.404022 -64.719635
v 60.405437 159.471802 -64.719635
v 339.594238 159.471802 -64.719635
v 60.405437 159.471802 -15.069923
v 60.405437 166.119476 -8.422253
v 339.594238 166.119476 -8.422253
v 339.594238 159.471802 -15.069923
v 0.000017 0.000000 3.258097
v 63.506542 0.000000 3.258097
v 0.000017 50.000000 3.258097
v 63.506542 50.000000 3.258097
v 0.000017 50.000000 -22.778170
v 63.506542 50.000000 -22.778170
v 63.506542 0.000000 -22.778170
v 400.000000 0.000000 3.258097
v 336.493469 0.000000 3.258097
v 400.000000 50.000000 3.258097
v 336.493469 50.000000 3.258097
v 400.000000 50.000000 -22.778172
v 336.493469 50.000000 -22.778172
v 336.493469 0.000000 -22.778172
v 339.594238 316.348846 -18.129299
v 60.405384 316.348846 -18.129299
v 60.405426 168.483826 -18.129299
v 339.594238 168.483826 -18.129299
v 60.405373 168.483826 -63.278831
v 60.405373 316.348846 -63.278831
v 339.594238 168.483826 -63.278831
v 339.594238 316.348846 -63.278831
v 339.594238 168.483826 -59.778831
v 339.594238 316.348846 -59.778831
v 60.405373 168.483826 -59.778831
v 60.405373 316.348846 -59.778831
v 339.594238 316.348846 -21.629299
v 60.405384 316.348846 -21.629299
v 60.405426 168.483826 -21.629299
v 339.594238 168.483826 -21.629299
v 339.594238 177.404022 -63.042702
v 60.405437 177.404007 -63.042679
v 339.594238 159.471802 -63.088943
v 60.405437 159.471802 -63.088921
vt -0.614997 -0.501476
vt -4.545306 -0.501476
vt -0.614997 -1.294008
vt -4.545306 -1.294008
vt -0.614998 -1.585214
vt -4.545305 -1.585214
vt -0.615001 -2.284161
vt -4.545301 -2.284161
vt -0.614997 -1.452868
vt -4.545306 -1.452869
vt -0.711681 0.475850
vt -0.711681 0.283545
vt -0.342378 0.475850
vt -0.342378 0.283545
vt -1.120789 0.479959
vt -1.490092 0.479959
vt -1.120789 0.287654
vt -1.490092 0.287654
vt -0.903986 -0.185518
vt -0.711681 -0.185518
vt -0.903986 0.283545
vt -0.928483 -0.181409
vt -0.928483 0.287654
vt -1.120789 -0.181409
vt -0.342378 -0.185518
vt -1.490092 -0.181409
vt -0.904009 -0.778031
vt 0.896549 -0.777524
vt 0.896070 1.023066
vt -0.904544 1.022560
vt -0.052319 1.000001
vt -0.111212 0.728260
vt -0.111212 0.247919
vt -0.052319 -0.299401
vt -0.111212 1.000001
vt -0.111212 -0.299401
vt 0.340136 -0.299401
vt 0.399030 0.247919
vt 0.399030 0.728260
vt 0.340137 1.000001
vt 0.399029 -0.299401
vt 0.399030 1.000001
vt 2.160172 0.627840
vt 1.264374 0.627840
vt 2.160172 -0.662095
vt 1.264374 -0.662096
vt 2.160173 -0.121503
vt 1.264372 -0.121503
vt 2.160174 0.359439
vt 1.264371 0.359439
vt 0.143910 1.000001
vt 0.143909 -0.299401
vt 0.143909 -0.299401
vt 0.143910 1.000001
vt 0.624437 -0.019166
vt 0.624252 0.646421
vt -0.632323 -0.019520
vt -0.632513 0.646066
vt 2.143580 0.781007
vt -0.632328 -0.003765
vt 0.608684 -0.019169
vt 0.624256 0.630665
vt 1.093711 0.781007
vt -0.616758 0.646069
vt 1.093711 1.344653
vt 2.143580 1.344653
vt 0.608497 0.646415
vt 0.624433 -0.003410
vt -0.632508 0.630311
vt -0.616569 -0.019515
vt 3.682205 1.184909
vt 2.804481 1.184909
vt 2.804481 0.720046
vt 3.682206 0.720046
vt 0.410399 0.247920
vt 0.410399 0.728260
vt -0.122582 0.728259
vt -0.122582 0.247919
vt 1.264371 0.348209
vt 2.160174 0.348209
vt 2.160173 -0.110272
vt 1.264372 -0.110273
vt -0.614997 -0.525083
vt -4.545306 -0.525083
vt -0.615001 -2.261204
vt -4.545301 -2.261204
vt -0.592040 -0.249033
vt -0.614997 -0.249033
vt -0.591390 -0.501476
vt -4.568913 -0.501475
vt -4.545305 -0.249033
vt -4.568263 -0.249033
vn 0.000000 0.000000 1.000000
vn 0.000000 0.000000 1.000000
vn 0.000000 0.000000 1.000000
vn 0.000000 0.000000 1.000000
vn -1.000000 0.000000 0.000000
vn -1.000000 0.000000 0.000000
vn -1.000000 0.000000 0.000000
vn -1.000000 0.000000 0.000000
vn 0.000000 0.000000 1.000000
vn 0.000000 0.000000 1.000000
vn 0.000000 0.000000 1.000000
vn 0.000000 0.000000 1.000000
vn 1.000000 0.000000 0.000000
vn 1.000000 0.000000 0.000000
vn 1.000000 0.000000 0.000000
vn 1.000000 0.000000 0.000000
vn 0.000000 0.000000 1.000000
vn 0.000000 0.000000 1.000000
vn 0.000000 0.000000 1.000000
vn 0.000000 0.000000 1.000000
vn 0.000000 0.000000 1.000000
vn 0.000000 0.000000 1.000000
vn 0.000000 0.000000 1.000000
vn 0.000000 0.000000 1.000000
vn -0.000000 1.000000 0.000000
vn -0.000000 1.000000 0.000000
vn -0.000000 1.000000 0.000000
vn -0.000000 1.000000 0.000000
vn 0.000000 -1.000000 0.000000
vn 0.000000 -1.000000 0.000000
vn 0.000000 -1.000000 0.000000
vn 0.000000 -1.000000 0.000000
vn 0.000000 -0.707106 0.707107
vn 0.000000 -0.707106 0.707107
vn 0.000000 -0.707106 0.707107
vn 0.000000 -0.707106 0.707107
vn 0.000000 0.000000 1.000000
vn 0.000000 0.000000 1.000000
vn 0.000000 0.000000 1.000000
vn 0.000000 0.000000 1.000000
vn 0.000000 1.000000 0.000000
vn 0.000000 1.000000 0.000000
vn 0.000000 1.000000 0.000000
vn 0.000000 1.000000 0.000000
vn 1.000000 0.000000 0.000000
vn 1.000000 0.000000 0.000000
vn 1.000000 0.000000 0.000000
vn 1.000000 0.000000 0.000000
vn 0.000000 0.000000 1.000000
vn 0.000000 0.000000 1.000000
vn 0.000000 0.000000 1.000000
vn 0.000000 0.000000 1.000000
vn 0.000000 1.000000 0.000000
vn 0.000000 1.000000 0.000000
vn 0.000000 1.000000 0.000000
vn 0.000000 1.000000 0.000000
vn -1.000000 0.000000 0.000000
vn -1.000000 0.000000 0.000000
vn -1.000000 0.000000 0.000000
vn -1.000000 0.000000 0.000000
vn 0.000000 -1.000000 0.000000
vn 0.000000 -1.000000 0.000000
vn 0.000000 -1.000000 0.000000
vn 0.000000 -1.000000 0.000000
vn -1.000000 0.000000 0.000000
vn -1.000000 0.000000 0.000000
vn -1.000000 0.000000 0.000000
vn 0.000000 0.000000 1.000000
vn 0.000000 0.000000 1.000000
vn 0.000000 0.000000 1.000000
vn 0.000000 0.000000 1.000000
vn 1.000000 0.000000 0.000000
vn 1.000000 0.000000 0.000000
vn 1.000000 0.000000 0.000000
vn 1.000000 0.000000 0.000000
vn 1.000000 0.000000 0.000000
vn 1.000000 0.000000 0.000000
vn 0.000000 0.000000 1.000000
vn 0.000000 0.000000 1.000000
vn 0.000000 0.000000 1.000000
vn 0.000000 0.000000 1.000000
vn -1.000000 0.000000 0.000000
vn -1.000000 0.000000 0.000000
vn -1.000000 0.000000 0.000000
vn -0.000000 0.000000 -1.000000
vn -0.000000 0.000000 -1.000000
vn -0.000000 0.000000 -1.000000
vn -0.000000 0.000000 -1.000000
vn 0.000000 0.000000 -1.000000
vn 0.000000 0.000000 -1.000000
vn 0.000000 0.000000 -1.000000
vn 0.000000 0.000000 -1.000000
vn 0.000000 0.000000 -1.000000
vn 0.000000 0.000000 -1.000000
vn 0.000000 0.000000 -1.000000
vn 0.000000 0.000000 -1.000000
vn 0.000000 0.000000 -1.000000
vn 0.000000 0.000000 -1.000000
vn 0.000000 0.000000 -1.000000
vn 0.000000 0.000000 -1.000000
vn 0.000000 -0.000000 -1.000000
vn 0.000000 -0.000000 -1.000000
vn 0.000000 -0.000000 -1.000000
vn 0.000000 -0.000000 -1.000000
vn -1.000000 0.000000 0.000000
vn -1.000000 0.000000 0.000000
vn -1.000000 0.000000 0.000000
vn -1.000000 0.000000 0.000000
vn 0.000000 1.000000 0.000000
vn 0.000000 1.000000 0.000000
vn 0.000000 1.000000 0.000000
vn 0.000000 1.000000 0.000000
vn 1.000000 0.000000 0.000000
vn 1.000000 0.000000 0.000000
vn 1.000000 0.000000 0.000000
vn 1.000000 0.000000 0.000000
vn 0.000000 -1.000000 0.000000
vn 0.000000 -1.000000 0.000000
vn 0.000000 -1.000000 0.000000
vn 0.000000 -1.000000 0.000000
vn 0.000000 -1.000000 0.000000
vn 0.000000 -1.000000 0.000000
vn 0.000000 -1.000000 0.000000
vn 0.000000 -1.000000 0.000000
vn 1.000000 0.000000 0.000000
vn 1.000000 0.000000 0.000000
vn 1.000000 0.000000 0.000000
vn 1.000000 0.000000 0.000000
vn 0.000000 1.000000 0.000000
vn 0.000000 1.000000 0.000000
vn 0.000000 1.000000 0.000000
vn 0.000000 1.000000 0.000000
vn -1.000000 0.000000 0.000000
vn -1.000000 0.000000 0.000000
vn -1.000000 0.000000 0.000000
vn -1.000000 0.000000 0.000000
vn -0.000000 1.000000 0.000000
vn -0.000000 1.000000 0.000000
vn -0.000000 1.000000 0.000000
vn -0.000000 1.000000 0.000000
vn 1.000000 0.000000 0.000000
vn 1.000000 0.000000 0.000000
vn 1.000000 0.000000 0.000000
vn 1.000000 0.000000 0.000000
vn 0.000000 0.000000 -1.000000
vn 0.000000 0.000000 -1.000000
vn 0.000000 0.000000 -1.000000
vn 0.000000 0.000000 -1.000000
vn -1.000000 -0.000000 0.000000
vn -1.000000 -0.000000 0.000000
vn -1.000000 -0.000000 0.000000
vn -1.000000 -0.000000 0.000000
g BuildingA_Bottom_Wall_Short_VarC_LOD1 BuildingA_Bottom_Wall_Short_VarC
usemtl BuildingA_Bottom_Corner_LOD0SG
f 12/34/1 11/52/2 8/51/3 7/31/4
f 7/31/5 41/32/6 44/33/7 12/34/8
usemtl BuildingA_Bottom_Wall_Long_VarA_LOD0SG2
f 53/71/9 54/72/10 55/73/11 56/74/12
usemtl BuildingA_Bottom_Corner_LOD0SG
f 15/37/13 43/38/14 42/39/15 9/40/16
f 9/40/17 10/54/18 16/53/19 15/37/20
usemtl BuildingA_Bottom_Corner_LOD0SG2
f 25/9/21 18/3/22 17/4/23 24/10/24
f 18/3/25 57/83/26 58/84/27 17/4/28
f 59/85/29 26/5/30 23/6/31 60/86/32
f 24/10/33 23/6/34 26/5/35 25/9/36
f 30/12/37 29/20/38 27/25/39 28/14/40
f 32/21/41 31/19/42 29/20/43 30/12/44
f 32/11/45 30/12/46 28/14/47 33/13/48
f 34/26/49 36/24/50 37/17/51 35/18/52
f 36/24/53 38/22/54 39/23/55 37/17/56
f 37/17/57 39/15/58 40/16/59 35/18/60
f 22/7/61 59/85/62 60/86/63 21/8/64
usemtl BuildingA_Bottom_Corner_LOD0SG
f 6/35/65 41/32/66 7/31/67
f 5/44/68 42/50/69 41/49/70 6/43/71
f 9/40/72 42/39/73 5/42/74
f 15/37/75 14/41/76 43/38/77
f 44/47/78 43/48/79 14/46/80 13/45/81
f 12/34/82 44/33/83 13/36/84
usemtl BuildingA_Bottom_Corner_LOD0SG1
f 47/57/85 48/58/86 3/30/87 4/27/88
f 2/29/89 46/56/90 45/55/91 1/28/92
f 45/55/93 47/57/94 4/27/95 1/28/96
usemtl BuildingA_Bottom_Wall_Long_VarA_LOD0SG2
f 50/59/97 49/66/98 51/65/99 52/63/100
usemtl BuildingA_Bottom_Corner_LOD0SG1
f 48/58/101 46/56/102 2/29/103 3/30/104
f 47/57/105 49/70/106 50/64/107 48/58/108
f 51/68/109 49/60/110 47/57/111 45/55/112
f 52/67/113 51/61/114 45/55/115 46/56/116
f 50/69/117 52/62/118 46/56/119 48/58/120
usemtl BuildingA_Bottom_Corner_LOD0SG
f 41/49/121 42/50/122 54/79/123 53/80/124
f 42/39/125 43/38/126 55/75/127 54/76/128
f 43/48/129 44/47/130 56/81/131 55/82/132
f 44/33/133 41/32/134 53/77/135 56/78/136
usemtl BuildingA_Bottom_Corner_LOD0SG2
f 58/84/137 57/83/138 20/1/139 19/2/140
f 59/87/141 22/88/142 20/1/143 57/89/144
f 19/2/145 20/1/146 22/88/147 21/91/148
f 58/90/149 19/2/150 21/91/151 60/92/152
