# This file uses meters as units for non-parametric coordinates.

mtllib BuildingA_Top_Wall_Short3M_VarA_LOD1.mtl
g default
v 25.707245 329.104218 -11.063156
v 273.827911 329.104218 -11.063156
v 25.707245 357.044800 -11.063156
v 273.827911 357.044800 -11.063156
v 25.707245 357.044800 -27.683994
v 273.827911 357.044800 -27.683994
v 25.707245 329.104218 -27.683994
v 273.827911 329.104218 -27.683994
v 0.000000 0.000000 -63.278843
v 0.000000 400.000000 -63.278843
v 299.999969 400.000000 -63.278843
v 299.999969 0.000000 -63.278843
v 25.707188 400.000000 -18.129299
v 273.827911 400.000000 -18.129299
v 273.827911 400.000000 0.000000
v 299.999969 400.000000 0.000000
v 25.707188 400.000000 0.000000
v 0.000000 400.000000 0.000000
v 299.999969 0.000004 0.000000
v 273.827911 0.000004 0.000000
v 273.827911 0.000004 -18.129299
v 25.707241 0.000004 -18.129299
v 25.707241 0.000004 0.000000
v 0.000004 -0.000004 0.000000
v 25.707245 110.482201 -8.422253
v 273.827911 110.482201 -8.422253
v 25.707245 110.482201 -65.554352
v 273.827911 110.482201 -65.554352
v 25.707245 92.549980 -65.554352
v 273.827911 92.549980 -65.554352
v 25.707245 92.549980 -15.069923
v 25.707245 99.197655 -8.422253
v 273.827911 99.197655 -8.422253
v 273.827911 92.549980 -15.069923
v 273.827911 342.294556 -18.129299
v 25.707191 342.294556 -18.129299
v 25.707230 101.590683 -18.129299
v 273.827911 101.590683 -18.129299
v 163.737885 110.482201 -15.173829
v 163.737885 329.104218 -15.173829
v 135.797302 110.482201 -15.173829
v 135.797302 329.104218 -15.173829
v 135.797302 110.482201 -31.794664
v 135.797302 329.104218 -31.794664
v 163.737885 110.482201 -31.794664
v 163.737885 329.104218 -31.794664
v 25.707186 342.294556 -63.278843
v 273.827911 342.294556 -63.278843
v 25.707188 101.590683 -63.278843
v 273.827911 101.590691 -63.278843
v 25.707186 342.294556 -59.200668
v 273.827911 342.294556 -59.200668
v 273.827911 101.590691 -59.200668
v 25.707188 101.590683 -59.200668
v 273.827911 110.482201 -62.934845
v 25.707245 110.482201 -62.934841
v 273.827911 92.549973 -62.797634
v 25.707245 92.549980 -62.797630
v 25.707245 329.104218 -65.368568
v 273.827911 329.104218 -65.368568
v 25.707245 357.044800 -65.368568
v 273.827911 357.044800 -65.368568
v 25.707245 357.044800 -47.796402
v 273.827911 357.044800 -47.796402
v 25.707245 329.104218 -47.796402
v 273.827911 329.104218 -47.796402
v 25.707245 329.104218 -63.002213
v 273.827911 329.104218 -63.002213
v 273.827911 357.044800 -63.011600
v 25.707245 357.044800 -63.011600
v 273.827911 342.294556 -22.062553
v 25.707191 342.294556 -22.062553
v 25.707230 101.590683 -22.062553
v 273.827911 101.590683 -22.062553
vt -0.286723 0.537267
vt -1.282739 0.537267
vt -0.286723 0.425107
vt -1.282739 0.425107
vt -1.282739 0.358387
vt -0.286723 0.358387
vt -0.286723 0.603987
vt -1.282739 0.603987
vt 0.143910 2.299840
vt 0.143910 1.000000
vt 0.058861 2.299840
vt -0.000052 2.112321
vt -0.000052 1.330129
vt 0.058861 1.000000
vt 0.227448 1.000000
vt 0.286361 1.330128
vt 0.286361 2.112321
vt 0.227448 2.299840
vt 0.143910 1.000000
vt 0.143910 2.299840
vt 0.985157 -0.946225
vt -0.096264 -0.946224
vt 0.985141 -1.273988
vt -0.096248 -1.273988
vt -0.096256 -1.233014
vt 0.985149 -1.233013
vt 0.985151 -0.856647
vt 0.985152 -1.482004
vt -0.096259 -1.482004
vt -0.096260 -1.494019
vt 0.985156 -1.183828
vt -0.096263 -1.183827
vt -0.000052 2.299840
vt -1.292854 -0.177955
vt -1.292855 -0.341719
vt -0.588705 -0.341720
vt -0.588706 -0.177955
vt 0.286361 2.299840
vt 0.286361 1.000000
vt -0.586821 -1.084823
vt -1.290938 -1.084823
vt -1.290954 -1.373135
vt -0.586805 -1.373135
vt -0.000052 1.000000
vt -2.559060 0.400971
vt -1.563044 0.400971
vt -2.559060 0.325248
vt -1.563044 0.325248
vt -2.559060 0.528265
vt -1.563044 0.528265
vt -1.563044 0.603987
vt -2.559060 0.603987
vt 0.797095 -0.279128
vt -0.257231 -0.278771
vt -0.256871 0.744044
vt 0.797428 0.743686
vt 0.655141 0.569717
vt -0.125278 0.569717
vt -0.125278 -0.187374
vt 0.655141 -0.187374
vt -0.096262 -0.934807
vt 0.985155 -0.934807
vt -0.256877 0.726715
vt 0.797422 0.726356
vt -0.239902 -0.278776
vt -0.239541 0.744037
vt 0.797100 -0.261799
vt -0.257225 -0.261442
vt 0.780099 0.743690
vt 0.779766 -0.279122
vt -0.368595 -0.710419
vt 0.906191 -0.710852
vt 0.906740 0.988858
vt -0.367994 0.989290
vt -0.286828 0.537256
vt -1.282634 0.537256
vt -0.286828 0.544787
vt -1.282635 0.544787
vt -1.282634 0.415620
vt -0.286828 0.415620
vt -0.286828 0.425118
vt -1.282635 0.425118
vt -1.282633 0.358412
vt -0.286829 0.358412
vt -0.286826 0.603963
vt -1.282636 0.603962
vt -1.290163 0.537256
vt -0.279299 0.537256
vt -1.292135 0.425118
vt -0.277328 0.425118
vt 0.996551 -0.934801
vt 0.997151 -0.856637
vt -0.108258 -0.856637
vt -0.107658 -0.934800
vt -0.096257 -0.856647
vt 0.985152 -1.494019
vt -1.346080 -0.415294
vt -2.115794 -0.415294
vt -2.115794 -1.162000
vt -1.346080 -1.162000
vt 0.299142 1.330130
vt 0.299142 2.112320
vt -0.012834 2.112321
vt -0.012834 1.330129
vt -1.292853 -0.352882
vt -0.588707 -0.352881
vt -0.586822 -1.073661
vt -1.290938 -1.073661
vn 0.000000 0.000000 1.000000
vn 0.000000 0.000000 1.000000
vn 0.000000 0.000000 1.000000
vn 0.000000 0.000000 1.000000
vn 0.000000 1.000000 0.000000
vn 0.000000 1.000000 0.000000
vn 0.000000 1.000000 0.000000
vn 0.000000 1.000000 0.000000
vn 0.000000 -1.000000 0.000000
vn 0.000000 -1.000000 0.000000
vn 0.000000 -1.000000 0.000000
vn 0.000000 -1.000000 0.000000
vn 0.000000 0.000000 1.000000
vn 0.000000 0.000000 1.000000
vn 0.000000 0.000000 1.000000
vn 0.000000 0.000000 1.000000
vn -1.000000 0.000000 0.000000
vn -1.000000 0.000000 0.000000
vn -1.000000 0.000000 0.000000
vn -1.000000 0.000000 0.000000
vn 0.000000 0.000000 1.000000
vn 0.000000 0.000000 1.000000
vn 0.000000 0.000000 1.000000
vn 0.000000 0.000000 1.000000
vn 1.000000 0.000000 -0.000000
vn 1.000000 0.000000 -0.000000
vn 1.000000 0.000000 -0.000000
vn 1.000000 0.000000 -0.000000
vn 0.000000 0.000000 1.000000
vn 0.000000 0.000000 1.000000
vn 0.000000 0.000000 1.000000
vn 0.000000 0.000000 1.000000
vn 0.000000 0.000000 1.000000
vn 0.000000 0.000000 1.000000
vn 0.000000 0.000000 1.000000
vn 0.000000 0.000000 1.000000
vn 0.000000 1.000000 0.000000
vn 0.000000 1.000000 0.000000
vn 0.000000 1.000000 0.000000
vn 0.000000 1.000000 0.000000
vn -0.000000 -1.000000 0.000000
vn -0.000000 -1.000000 0.000000
vn -0.000000 -1.000000 0.000000
vn -0.000000 -1.000000 0.000000
vn 0.000000 -0.707106 0.707107
vn 0.000000 -0.707106 0.707107
vn 0.000000 -0.707106 0.707107
vn 0.000000 -0.707106 0.707107
vn -0.000000 -1.000000 -0.000003
vn -0.000000 -1.000000 -0.000003
vn -0.000000 -1.000000 -0.000003
vn -0.000000 -1.000000 -0.000003
vn -1.000000 0.000000 0.000000
vn -1.000000 0.000000 0.000000
vn -1.000000 0.000000 0.000000
vn 0.000000 0.000000 1.000000
vn 0.000000 0.000000 1.000000
vn 0.000000 0.000000 1.000000
vn 0.000000 0.000000 1.000000
vn 1.000000 0.000000 0.000000
vn 1.000000 0.000000 0.000000
vn 1.000000 0.000000 0.000000
vn 1.000000 0.000000 0.000000
vn 1.000000 0.000000 0.000000
vn 1.000000 0.000000 0.000000
vn 0.000000 0.000000 1.000000
vn 0.000000 0.000000 1.000000
vn 0.000000 0.000000 1.000000
vn 0.000000 0.000000 1.000000
vn -1.000000 0.000000 0.000000
vn -1.000000 0.000000 0.000000
vn -1.000000 0.000000 0.000000
vn 0.000000 0.000000 1.000000
vn 0.000000 0.000000 1.000000
vn 0.000000 0.000000 1.000000
vn 0.000000 0.000000 1.000000
vn -1.000000 0.000000 0.000000
vn -1.000000 0.000000 0.000000
vn -1.000000 0.000000 0.000000
vn -1.000000 0.000000 0.000000
vn 1.000000 0.000000 0.000000
vn 1.000000 0.000000 0.000000
vn 1.000000 0.000000 0.000000
vn 1.000000 0.000000 0.000000
vn 0.000000 0.000000 -1.000000
vn 0.000000 0.000000 -1.000000
vn 0.000000 0.000000 -1.000000
vn 0.000000 0.000000 -1.000000
vn 0.000000 0.000000 -1.000000
vn 0.000000 0.000000 -1.000000
vn 0.000000 0.000000 -1.000000
vn 0.000000 0.000000 -1.000000
vn -0.000000 0.000000 -1.000000
vn -0.000000 0.000000 -1.000000
vn -0.000000 0.000000 -1.000000
vn -0.000000 0.000000 -1.000000
vn 0.000000 0.000000 -1.000000
vn 0.000000 0.000000 -1.000000
vn 0.000000 0.000000 -1.000000
vn 0.000000 0.000000 -1.000000
vn 0.000000 0.000000 -1.000000
vn 0.000000 0.000000 -1.000000
vn 0.000000 0.000000 -1.000000
vn 0.000000 0.000000 -1.000000
vn 0.000000 0.000000 -1.000000
vn 0.000000 0.000000 -1.000000
vn 0.000000 0.000000 -1.000000
vn 0.000000 0.000000 -1.000000
vn 0.000000 -1.000000 0.000000
vn 0.000000 -1.000000 0.000000
vn 0.000000 -1.000000 0.000000
vn 0.000000 -1.000000 0.000000
vn -1.000000 0.000000 0.000000
vn -1.000000 0.000000 0.000000
vn -1.000000 0.000000 0.000000
vn -1.000000 0.000000 0.000000
vn -0.000000 1.000000 0.000000
vn -0.000000 1.000000 0.000000
vn -0.000000 1.000000 0.000000
vn -0.000000 1.000000 0.000000
vn 1.000000 0.000000 0.000000
vn 1.000000 0.000000 0.000000
vn 1.000000 0.000000 0.000000
vn 1.000000 0.000000 0.000000
vn 0.000000 1.000000 0.000000
vn 0.000000 1.000000 0.000000
vn 0.000000 1.000000 0.000000
vn 0.000000 1.000000 0.000000
vn 1.000000 0.000001 0.000000
vn 1.000000 0.000001 0.000000
vn 1.000000 0.000001 0.000000
vn 1.000000 0.000001 0.000000
vn -1.000000 0.000000 0.000000
vn -1.000000 0.000000 0.000000
vn -1.000000 0.000000 0.000000
vn -1.000000 0.000000 0.000000
vn 0.000000 1.000000 0.000000
vn 0.000000 1.000000 0.000000
vn 0.000000 1.000000 0.000000
vn 0.000000 1.000000 0.000000
vn 0.000000 -1.000000 0.000000
vn 0.000000 -1.000000 0.000000
vn 0.000000 -1.000000 0.000000
vn 0.000000 -1.000000 0.000000
vn 0.000000 -1.000000 0.000000
vn 0.000000 -1.000000 0.000000
vn 0.000000 -1.000000 0.000000
vn 0.000000 -1.000000 0.000000
vn 0.000000 1.000000 0.000000
vn 0.000000 1.000000 0.000000
vn 0.000000 1.000000 0.000000
vn 0.000000 1.000000 0.000000
vn -1.000000 0.000000 0.000000
vn -1.000000 0.000000 0.000000
vn -1.000000 0.000000 0.000000
vn -1.000000 0.000000 0.000000
vn 0.000000 0.000000 -1.000000
vn 0.000000 0.000000 -1.000000
vn 0.000000 0.000000 -1.000000
vn 0.000000 0.000000 -1.000000
vn 1.000000 0.000000 0.000000
vn 1.000000 0.000000 0.000000
vn 1.000000 0.000000 0.000000
vn 1.000000 0.000000 0.000000
vn 0.000000 -1.000000 0.000000
vn 0.000000 -1.000000 0.000000
vn 0.000000 -1.000000 0.000000
vn 0.000000 -1.000000 0.000000
vn 1.000000 0.000000 0.000000
vn 1.000000 0.000000 0.000000
vn 1.000000 0.000000 0.000000
vn 1.000000 0.000000 0.000000
vn 0.000000 1.000000 0.000000
vn 0.000000 1.000000 0.000000
vn 0.000000 1.000000 0.000000
vn 0.000000 1.000000 0.000000
vn -1.000000 0.000000 0.000000
vn -1.000000 0.000000 0.000000
vn -1.000000 0.000000 0.000000
vn -1.000000 0.000000 0.000000
g BuildingA_Top_Wall_Short3M_VarA_LOD1 BuildingA_Top_Wall_Short3M_VarA
usemtl BuildingA_Bottom_Wall_Long_VarA_LOD0SG3
f 2/3/1 4/1/2 3/2/3 1/4/4
f 5/8/5 3/2/6 4/1/7 6/7/8
f 8/6/9 2/3/10 1/4/11 7/5/12
usemtl BuildingA_Bottom_Corner_LOD0SG
f 20/14/13 19/10/14 16/9/15 15/11/16
f 15/11/17 35/12/18 38/13/19 20/14/20
usemtl BuildingA_Bottom_Wall_Long_VarA_LOD0SG2
f 71/97/21 72/98/22 73/99/23 74/100/24
usemtl BuildingA_Bottom_Corner_LOD0SG
f 23/15/25 37/16/26 36/17/27 17/18/28
f 17/18/29 18/20/30 24/19/31 23/15/32
usemtl BuildingA_Bottom_Corner_LOD0SG2
f 25/32/33 32/25/34 33/26/35 26/31/36
f 26/31/37 55/21/38 56/22/39 25/32/40
f 57/28/41 34/23/42 31/24/43 58/29/44
f 32/25/45 31/24/46 34/23/47 33/26/48
f 30/96/49 57/28/50 58/29/51 29/30/52
usemtl BuildingA_Bottom_Corner_LOD0SG
f 14/33/53 35/12/54 15/11/55
f 13/34/56 36/35/57 35/36/58 14/37/59
f 17/18/60 36/17/61 13/38/62
f 23/15/63 22/39/64 37/16/65
f 38/40/66 37/41/67 22/42/68 21/43/69
f 20/14/70 38/13/71 21/44/72
usemtl BuildingA_Bottom_Wall_Long_VarA_LOD0SG3
f 40/49/73 42/45/74 41/46/75 39/50/76
f 42/45/77 44/47/78 43/48/79 41/46/80
f 46/52/81 40/49/82 39/50/83 45/51/84
usemtl BuildingA_Bottom_Corner_LOD0SG1
f 49/53/85 50/54/86 12/71/87 9/72/88
f 48/55/89 47/56/90 10/73/91 11/74/92
f 47/56/93 49/53/94 9/72/95 10/73/96
usemtl BuildingA_Bottom_Wall_Long_VarA_LOD0SG2
f 51/57/97 52/58/98 53/59/99 54/60/100
usemtl BuildingA_Bottom_Corner_LOD0SG1
f 12/71/101 50/54/102 48/55/103 11/74/104
usemtl BuildingA_Bottom_Corner_LOD0SG2
f 27/61/105 28/62/106 30/27/107 29/95/108
usemtl BuildingA_Bottom_Corner_LOD0SG1
f 52/63/109 51/64/110 47/56/111 48/55/112
f 53/65/113 52/66/114 48/55/115 50/54/116
f 54/67/117 53/68/118 50/54/119 49/53/120
f 47/56/121 51/69/122 54/70/123 49/53/124
usemtl BuildingA_Bottom_Corner_LOD0SG2
f 56/22/125 55/21/126 28/62/127 27/61/128
f 28/62/129 55/91/130 57/92/131 30/27/132
f 58/93/133 56/94/134 27/61/135 29/95/136
usemtl BuildingA_Bottom_Wall_Long_VarA_LOD0SG3
f 62/75/137 61/76/138 70/78/139 69/77/140
f 67/79/141 59/82/142 60/81/143 68/80/144
f 65/83/145 67/79/146 68/80/147 66/84/148
f 70/78/149 63/86/150 64/85/151 69/77/152
f 59/82/153 67/89/154 70/87/155 61/76/156
f 60/81/157 59/82/158 61/76/159 62/75/160
f 69/88/161 68/90/162 60/81/163 62/75/164
usemtl BuildingA_Bottom_Corner_LOD0SG
f 35/36/165 36/35/166 72/105/167 71/106/168
f 36/17/169 37/16/170 73/101/171 72/102/172
f 37/41/173 38/40/174 74/107/175 73/108/176
f 38/13/177 35/12/178 71/103/179 74/104/180
