# This file uses meters as units for non-parametric coordinates.

mtllib BuildingA_Ledge_Short3M_LOD1.mtl
g default
v 300.000000 0.000000 3.435802
v 269.655396 0.000000 3.435802
v 300.000000 52.471527 3.435802
v 269.655396 52.471527 3.435802
v 300.000000 52.471527 -67.648079
v 269.655396 52.471527 -67.648079
v 300.000000 0.000000 -67.648079
v 269.655396 26.235779 -67.648079
v 269.655396 26.235779 -14.994432
v 269.655396 0.000000 -14.994432
v 0.000015 0.000000 3.435802
v 29.662529 0.000000 3.435802
v 0.000015 52.471527 3.435802
v 29.662529 52.471527 3.435802
v 0.000015 52.471527 -67.648079
v 29.662529 52.471527 -67.648079
v 0.000015 0.000000 -67.648079
v 29.662529 26.235779 -67.648079
v 29.662529 26.235779 -14.994432
v 29.662529 0.000000 -14.994432
vt 1.142443 0.460179
vt 1.320406 0.712524
vt 0.635494 0.461258
vt 0.635850 0.713620
vt 1.141975 0.207487
vt 1.319491 0.207147
vt 2.251225 0.712856
vt 2.429138 0.460403
vt 2.935895 0.713721
vt 2.936182 0.461309
vt 2.251997 0.207366
vt 2.429528 0.207667
vt 1.320892 1.004766
vt 0.636344 1.005883
vt 0.344480 1.722369
vt 0.344462 1.040793
vt 0.635426 1.217554
vt 3.220625 1.722420
vt 2.936221 1.217604
vt 0.635464 1.040786
vt 3.220670 1.040837
vt 2.936191 1.040815
vt 2.250838 0.998544
vt 2.935497 0.999459
vt 0.635446 0.966033
vt 2.936209 0.966085
vt 0.344269 0.209575
vt 0.344147 0.713575
vt 3.220880 0.209670
vt 3.221068 0.713649
vt 1.611765 0.206614
vt 1.612695 0.711988
vt 1.966244 0.206951
vt 1.965468 0.712413
vn 0.000000 1.000000 0.000000
vn 0.000000 1.000000 0.000000
vn 0.000000 1.000000 0.000000
vn 0.000000 1.000000 0.000000
vn 0.000000 0.000000 -1.000000
vn 0.000000 0.000000 -1.000000
vn 0.000000 0.000000 -1.000000
vn 0.000000 0.000000 -1.000000
vn 0.000000 -1.000000 0.000000
vn 0.000000 -1.000000 0.000000
vn 0.000000 -1.000000 0.000000
vn -1.000000 0.000000 0.000000
vn -1.000000 0.000000 0.000000
vn -1.000000 0.000000 0.000000
vn -1.000000 0.000000 0.000000
vn 0.000000 0.000000 1.000000
vn 0.000000 0.000000 1.000000
vn 0.000000 0.000000 1.000000
vn 0.000000 0.000000 1.000000
vn -1.000000 0.000000 0.000000
vn -1.000000 0.000000 0.000000
vn -1.000000 0.000000 0.000000
vn -1.000000 0.000000 0.000000
vn 0.000000 -1.000000 0.000000
vn 0.000000 -1.000000 0.000000
vn 0.000000 -1.000000 0.000000
vn 0.000000 1.000000 0.000000
vn 0.000000 1.000000 0.000000
vn 0.000000 1.000000 0.000000
vn 0.000000 1.000000 0.000000
vn -0.000000 0.000000 -1.000000
vn -0.000000 0.000000 -1.000000
vn -0.000000 0.000000 -1.000000
vn -0.000000 0.000000 -1.000000
vn 0.000000 -1.000000 0.000000
vn 0.000000 -1.000000 0.000000
vn 0.000000 -1.000000 0.000000
vn 1.000000 -0.000000 0.000000
vn 1.000000 -0.000000 0.000000
vn 1.000000 -0.000000 0.000000
vn 1.000000 -0.000000 0.000000
vn 0.000000 0.000000 1.000000
vn 0.000000 0.000000 1.000000
vn 0.000000 0.000000 1.000000
vn 0.000000 0.000000 1.000000
vn 1.000000 0.000000 0.000000
vn 1.000000 0.000000 0.000000
vn 1.000000 0.000000 0.000000
vn 1.000000 0.000000 0.000000
vn 0.000000 -1.000000 0.000000
vn 0.000000 -1.000000 0.000000
vn 0.000000 -1.000000 0.000000
vn 0.000000 0.000000 1.000000
vn 0.000000 0.000000 1.000000
vn 0.000000 0.000000 1.000000
vn 0.000000 0.000000 1.000000
vn 0.000000 1.000000 0.000000
vn 0.000000 1.000000 0.000000
vn 0.000000 1.000000 0.000000
vn 0.000000 1.000000 0.000000
vn 0.000000 0.000000 -1.000000
vn 0.000000 0.000000 -1.000000
vn 0.000000 0.000000 -1.000000
vn 0.000000 0.000000 -1.000000
vn 0.000000 -1.000000 -0.000001
vn 0.000000 -1.000000 -0.000001
vn 0.000000 -1.000000 -0.000001
vn 0.000000 -1.000000 -0.000001
g BuildingA_Ledge_Short3M_LOD1 BuildingA_Ledge_Short3M
usemtl BuildingA_Bottom_Corner_LOD0SG2
f 4/2/1 3/13/2 5/14/3 6/4/4
f 5/28/5 7/27/6 8/3/7 6/4/8
f 7/15/9 1/16/10 10/17/11
f 8/3/12 9/1/13 4/2/14 6/4/15
f 1/31/16 3/32/17 4/2/18 2/6/19
f 9/1/20 10/5/21 2/6/22 4/2/23
f 10/17/24 1/16/25 2/20/26
f 15/24/27 13/23/28 14/7/29 16/9/30
f 17/29/31 15/30/32 16/9/33 18/10/34
f 11/21/35 17/18/36 20/19/37
f 16/9/38 14/7/39 19/8/40 18/10/41
f 13/34/42 11/33/43 12/11/44 14/7/45
f 14/7/46 12/11/47 20/12/48 19/8/49
f 12/22/50 11/21/51 20/19/52
f 20/19/53 10/17/54 9/25/55 19/26/56
f 19/26/57 9/25/58 8/3/59 18/10/60
f 18/10/61 8/3/62 7/27/63 17/29/64
f 17/18/65 7/15/66 10/17/67 20/19/68
