# This file uses meters as units for non-parametric coordinates.

mtllib BuildingA_Ledge_Short_LOD0.mtl
g default
v 400.000000 0.000000 3.435802
v 334.851990 0.000000 3.435802
v 400.000000 52.471527 3.435802
v 334.851990 52.471527 3.435802
v 400.000000 52.471527 -67.648079
v 334.851990 52.471527 -67.648079
v 400.000000 0.000000 -67.648079
v 334.851990 0.000000 -67.648079
v 334.851990 26.235779 -67.648079
v 400.000000 24.707092 -67.648079
v 334.851990 26.235779 -14.994432
v 334.851990 0.000000 -14.994432
v 400.000000 0.000000 -14.994432
v 0.000015 0.000000 3.435802
v 65.148026 0.000000 3.435802
v 0.000015 52.471527 3.435802
v 65.148026 52.471527 3.435802
v 0.000015 52.471527 -67.648079
v 65.148026 52.471527 -67.648079
v 0.000015 0.000000 -67.648079
v 65.148026 0.000000 -67.648079
v 65.148026 26.235779 -67.648079
v 0.000015 24.707092 -67.648079
v 65.148026 26.235779 -14.994432
v 65.148026 0.000000 -14.994432
v 0.000015 0.000000 -14.994432
v 400.000000 48.892487 3.435802
v 334.851990 48.892487 3.435802
v 334.851990 22.656677 -14.994432
v 65.148026 22.656677 -14.994432
v 65.148026 48.892487 3.435802
v 0.000015 48.892487 3.435802
v 400.000000 52.471527 0.081823
v 334.851990 52.471527 0.081823
v 334.851990 26.235779 -18.348412
v 65.148026 26.235779 -18.348412
v 65.148026 52.471527 0.081823
v 0.000015 52.471527 0.081823
v 61.689346 26.235779 -67.648079
v 61.689346 52.471527 -67.648079
v 61.689346 52.471527 0.081823
v 61.689346 52.471527 3.435802
v 61.689346 48.892456 3.435802
v 61.689346 0.000000 3.435802
v 61.689346 0.000000 -14.994432
v 61.689346 0.000000 -67.648079
v 400.000000 3.661102 3.435802
v 334.852051 3.661102 3.435802
v 334.851990 3.661163 -14.994432
v 65.148026 3.661163 -14.994432
v 65.148026 3.661102 3.435802
v 61.689346 3.661072 3.435802
v 0.000015 3.661102 3.435802
v 338.087036 48.892487 3.435802
v 338.087036 3.661102 3.435802
v 338.087036 0.000000 3.435802
v 338.087036 0.000000 -14.994432
v 338.087036 0.000000 -67.648079
v 338.087036 26.235779 -67.648079
v 338.087036 52.471527 -67.648079
v 338.087036 52.471527 0.081823
v 338.087036 52.471527 3.435802
v 400.000000 52.471527 -63.857430
v 338.087036 52.471527 -63.857430
v 334.851990 52.471527 -63.857430
v 334.851990 26.235779 -63.857422
v 65.148026 26.235779 -63.857422
v 65.148026 52.471527 -63.857430
v 61.689346 52.471527 -63.857430
v 0.000015 52.471527 -63.857430
v 338.087036 23.178375 -67.648079
v 334.851990 23.178375 -67.648079
v 65.148026 23.178375 -67.648079
v 61.689346 23.178375 -67.648079
v 400.000000 2.849304 -67.648079
v 338.087036 2.849304 -67.648079
v 334.851990 2.849304 -67.648079
v 65.148026 2.849304 -67.648079
v 61.689346 2.849304 -67.648079
v 0.000015 2.849304 -67.648079
v 400.000000 0.000000 -64.485992
v 338.087036 0.000000 -64.485992
v 334.851990 0.000000 -64.485992
v 65.148026 0.000000 -64.485992
v 61.689346 0.000000 -64.485992
v 0.000015 0.000000 -64.485992
v 0.000015 0.000000 1.071325
v 61.689342 0.000000 1.071325
v 65.148026 0.000000 1.071325
v 65.148026 3.661102 1.071325
v 65.148026 45.526611 1.071325
v 65.148026 49.105682 1.071325
v 65.148026 49.105682 -2.282654
v 65.148026 49.105682 -63.857430
v 65.148026 49.105682 -67.648079
v 61.689346 49.105682 -67.648079
v 0.000015 48.909576 -67.648079
v 400.000000 0.000000 0.652616
v 338.087036 0.000000 0.652616
v 334.851990 0.000000 0.652616
v 334.852051 3.661102 0.652616
v 334.851990 44.930542 0.652616
v 334.851990 48.509644 0.652616
v 334.851990 48.509644 -2.701364
v 334.851990 48.509644 -63.857430
v 334.851990 48.509644 -67.648079
v 338.087036 48.509644 -67.648079
v 400.000000 48.278748 -67.648079
vt 1.183913 0.634525
vt 1.153274 0.634554
vt 1.010203 0.431350
vt 1.040810 0.431305
vt 1.209344 0.670693
vt 1.178712 0.670703
vt 0.595040 0.634932
vt 0.594903 0.431840
vt 1.183885 0.601847
vt 1.040756 0.398614
vt 0.595055 0.671088
vt 1.209354 0.638008
vt 0.560466 0.634902
vt 0.560354 0.431942
vt 1.183409 0.224859
vt 1.040442 0.225074
vt 0.560433 0.671039
vt 1.208833 0.224822
vt 1.183357 0.191410
vt 1.040385 0.191623
vt 1.208791 0.191381
vt 2.385916 0.639684
vt 2.416381 0.639683
vt 2.394905 0.670256
vt 2.364440 0.670257
vt 2.531837 0.431946
vt 2.562302 0.431945
vt 2.975676 0.639662
vt 2.975678 0.670234
vt 2.385915 0.607175
vt 2.364439 0.637748
vt 2.975668 0.431930
vt 2.531836 0.399436
vt 3.010107 0.639660
vt 3.010107 0.670233
vt 2.385901 0.226902
vt 2.364424 0.226903
vt 3.010102 0.431928
vt 2.531829 0.226897
vt 2.385899 0.193647
vt 2.364423 0.193648
vt 2.531828 0.193642
vt 1.209730 1.265378
vt 1.179113 1.265399
vt 1.178735 0.700233
vt 1.209353 0.700213
vt 0.595427 1.265769
vt 0.595073 0.700617
vt 0.560822 1.265791
vt 0.560465 0.700636
vt -0.031407 1.626887
vt -0.031411 1.598163
vt 0.530990 1.598068
vt 0.530995 1.626792
vt -0.031459 1.148595
vt 0.530960 1.148521
vt 0.560371 1.598063
vt 0.560372 1.626784
vt -0.031478 1.006460
vt 0.530922 1.006378
vt 0.560352 1.148520
vt 3.010106 1.598038
vt 3.010106 1.626760
vt -0.031481 0.981179
vt 0.530915 0.981096
vt 0.560309 1.006367
vt 3.010106 1.148497
vt 3.041521 1.626760
vt 3.041521 1.598038
vt 0.560277 0.981055
vt 3.041521 1.148497
vt 3.601856 1.626760
vt 3.601856 1.598038
vt 3.010106 1.002568
vt 3.041521 1.002568
vt 3.601856 1.148497
vt 3.010106 0.981091
vt 3.041521 0.981091
vt 3.601856 1.002568
vt 3.601856 0.981091
vt 2.364442 0.701673
vt 2.394906 0.701672
vt 2.975679 0.701650
vt 2.364462 1.262009
vt 2.394927 1.262007
vt 3.010110 0.701648
vt 2.975699 1.261986
vt 3.010130 1.261984
vt 0.560350 0.910212
vt 0.560349 0.879747
vt 3.010106 0.879726
vt 3.010106 0.910192
vt 0.560353 0.466374
vt 3.010106 0.466360
vt 0.530929 0.432027
vt 0.530976 0.634868
vt -0.032526 0.632638
vt -0.032472 0.418093
vt 0.530960 0.670934
vt -0.032536 0.670799
vt 0.530927 0.404216
vt 0.560351 0.404168
vt -0.032415 0.219201
vt 0.530950 0.219402
vt 0.560353 0.219473
vt 3.010106 0.404158
vt -0.032409 0.193273
vt 0.530963 0.193478
vt 0.560355 0.193592
vt 3.010105 0.219505
vt 3.041522 0.404157
vt 3.041522 0.431928
vt 3.010106 0.193624
vt 3.041522 0.219505
vt 3.601857 0.418043
vt 3.041522 0.639660
vt 3.041522 0.193624
vt 3.601857 0.219504
vt 3.601857 0.637878
vt 3.041522 0.670233
vt 3.601857 0.193624
vt 3.601857 0.670233
vt 1.803982 0.190511
vt 1.804029 0.223961
vt 1.238382 0.224778
vt 1.238334 0.191331
vt 1.804595 0.637231
vt 1.238912 0.637977
vt 1.804641 0.669934
vt 1.238953 0.670680
vt 2.333007 0.193650
vt 2.333008 0.226904
vt 2.333023 0.637749
vt 1.772671 0.193671
vt 1.772672 0.226925
vt 2.333024 0.670259
vt 1.772687 0.637770
vt 1.772689 0.670280
vt 0.560352 1.115266
vt 3.010106 1.115242
vt 0.560350 0.942722
vt 3.010106 0.942702
vn 0.000000 0.683791 0.729678
vn 0.000000 1.000000 0.000000
vn 0.000000 1.000000 0.000000
vn 0.000000 0.683791 0.729678
vn -0.000000 0.000000 -1.000000
vn 0.000000 0.000000 -1.000000
vn 0.000000 0.000000 -1.000000
vn -0.000000 0.000000 -1.000000
vn 0.000000 -0.742895 -0.669407
vn 0.000000 -1.000000 0.000000
vn 0.000000 -1.000000 0.000000
vn 0.000000 -0.742895 -0.669408
vn -1.000000 0.000000 0.000000
vn -1.000000 0.000002 0.000000
vn -1.000000 0.000000 0.000000
vn -1.000000 0.000000 0.000000
vn 0.000000 -0.605186 0.796084
vn 0.000000 0.000000 1.000000
vn 0.000000 0.000000 1.000000
vn 0.000000 -0.605186 0.796084
vn -0.000000 0.000000 -1.000000
vn -0.000000 0.000000 -1.000000
vn -0.000000 0.000000 -1.000000
vn -0.749372 -0.662149 0.000001
vn -1.000000 0.000000 0.000002
vn -1.000000 -0.000000 0.000003
vn -0.004214 -0.997350 0.072633
vn 0.000000 -1.000000 0.000000
vn 0.000000 -1.000000 0.000000
vn 0.000000 -1.000000 0.000000
vn 0.000000 -1.000000 0.000000
vn 0.000000 0.683788 0.729680
vn 0.514800 0.586218 0.625563
vn 0.527644 0.849466 0.000000
vn 0.000000 1.000000 -0.000000
vn 0.738714 0.000000 -0.674020
vn 0.000000 0.000000 -1.000000
vn 0.000000 0.738712 -0.674021
vn 0.588395 0.604623 -0.536864
vn 0.000000 -0.742894 -0.669409
vn 0.000000 -0.742894 -0.669409
vn 0.000000 -1.000000 0.000000
vn 0.000000 -1.000000 0.000000
vn 1.000000 0.000000 0.000000
vn 1.000000 0.000000 0.000000
vn 0.527644 0.849466 0.000000
vn 0.514800 0.586218 0.625563
vn 0.000000 -0.542530 0.840037
vn 0.498003 -0.470468 0.728460
vn 0.550901 0.000000 0.834570
vn 0.000000 0.000000 1.000000
vn 0.000000 0.000000 -1.000000
vn 0.000000 0.000000 -1.000000
vn 0.063082 0.743927 -0.665277
vn 0.000000 0.000000 -1.000000
vn 0.726920 -0.686722 0.000000
vn 1.000000 0.000000 0.000000
vn 0.550901 0.000000 0.834570
vn 0.498003 -0.470468 0.728460
vn 0.000000 -1.000000 -0.000000
vn 0.726920 -0.686722 0.000000
vn 0.498003 -0.470468 0.728460
vn 0.000000 -0.542530 0.840037
vn -0.004214 -0.997350 0.072633
vn 0.000000 0.000000 1.000000
vn 0.000000 0.000000 1.000000
vn 0.004321 -0.997356 0.072547
vn 0.000000 0.683787 0.729682
vn 0.000000 1.000000 0.000000
vn 0.000000 1.000000 0.000000
vn 0.000000 0.683787 0.729682
vn -0.061675 0.746791 -0.662193
vn 0.000000 0.000000 -1.000000
vn 0.000000 0.000000 -1.000000
vn 0.063082 0.743927 -0.665277
vn 0.000000 -0.742894 -0.669409
vn 0.000000 -1.000000 0.000000
vn 0.000000 -1.000000 0.000000
vn 0.000000 -0.742894 -0.669409
vn 0.000000 0.000000 1.000000
vn 0.000000 0.683791 0.729678
vn 0.000000 0.683791 0.729678
vn 0.000000 0.000000 1.000000
vn -1.000000 -0.000001 0.000001
vn -1.000000 0.000000 0.000000
vn -1.000000 0.000000 0.000000
vn -1.000000 -0.000001 0.000003
vn 0.000000 0.000000 1.000000
vn 0.000000 0.000000 1.000000
vn 0.000000 0.683787 0.729682
vn 0.000000 0.683787 0.729682
vn 1.000000 0.000000 0.000000
vn 1.000000 0.000000 0.000000
vn 0.514800 0.586218 0.625563
vn 0.303483 0.000000 0.952837
vn 0.000000 0.000000 1.000000
vn 0.303483 0.000000 0.952837
vn 0.514800 0.586218 0.625563
vn 0.000000 0.683788 0.729680
vn 0.000000 1.000000 0.000000
vn 0.000000 1.000000 0.000000
vn 0.000000 1.000000 0.000000
vn 0.000000 1.000000 0.000000
vn -1.000000 0.000000 0.000000
vn -1.000000 0.000002 0.000000
vn -1.000000 0.000001 0.000000
vn -1.000000 -0.000000 0.000000
vn 0.000000 1.000000 0.000000
vn 0.000000 1.000000 0.000000
vn 0.000000 1.000000 0.000000
vn 0.000000 1.000000 0.000000
vn 0.527644 0.849466 0.000000
vn 1.000000 0.000000 0.000000
vn 1.000000 0.000000 0.000000
vn 0.691091 0.722768 0.000000
vn 0.000000 1.000000 -0.000000
vn 0.527644 0.849466 0.000000
vn 0.691091 0.722768 0.000000
vn 0.000000 1.000000 -0.000000
vn 0.000000 0.000000 -1.000000
vn 0.000000 0.000000 -1.000000
vn 0.000000 0.738207 -0.674574
vn 0.000000 0.738712 -0.674021
vn 0.000000 1.000000 -0.000000
vn 0.000000 1.000000 -0.000000
vn 0.000000 1.000000 -0.000000
vn 0.000000 1.000000 -0.000000
vn 0.000000 0.683788 0.729680
vn 0.000000 0.683788 0.729680
vn 0.000000 1.000000 -0.000000
vn 0.000000 1.000000 -0.000000
vn 0.000000 0.000000 1.000000
vn 0.000000 0.000000 1.000000
vn 0.000000 0.683788 0.729680
vn 0.000000 0.683788 0.729680
vn 0.000000 -0.542530 0.840036
vn 0.000000 -0.542530 0.840037
vn 0.000000 0.000000 1.000000
vn 0.000000 0.000000 1.000000
vn 0.000000 -0.542530 0.840036
vn 0.000000 -1.000000 0.000000
vn 0.000000 -1.000000 -0.000000
vn 0.000000 -0.542530 0.840037
vn 0.000000 -0.742895 -0.669409
vn 0.000000 -0.742894 -0.669409
vn 0.000000 -1.000000 0.000000
vn 0.000000 -1.000000 0.000000
vn 0.000000 0.000000 -1.000000
vn 0.000000 0.000000 -1.000000
vn 0.000000 0.000000 -1.000000
vn 0.000000 0.000000 1.000000
vn 0.000000 0.000000 1.000000
vn 0.000000 0.000000 1.000000
vn 0.000000 0.000000 1.000000
vn -1.000000 0.000000 0.000002
vn -1.000000 -0.000001 0.000001
vn -1.000000 -0.000001 0.000003
vn -1.000000 -0.000000 0.000003
vn 0.000000 0.000000 1.000000
vn 0.000000 0.000000 1.000000
vn 0.000000 0.000000 1.000000
vn 0.000000 0.000000 1.000000
vn 1.000000 0.000000 0.000000
vn 1.000000 0.000000 0.000000
vn 0.303483 0.000000 0.952837
vn 0.550901 0.000000 0.834570
vn 0.000000 0.000000 1.000000
vn 0.550901 0.000000 0.834570
vn 0.303483 0.000000 0.952837
vn 0.000000 0.000000 1.000000
vn 0.000000 0.000000 1.000000
vn 0.000000 0.000000 1.000000
vn 0.000000 0.000000 1.000000
vn 0.000000 0.000000 1.000000
vn 0.000000 0.000000 1.000000
vn 0.000000 0.000000 1.000000
vn -0.370411 -0.000000 0.928868
vn -0.636600 0.000000 0.771194
vn 0.000000 -0.605186 0.796084
vn 0.000000 0.000000 1.000000
vn -0.636600 0.000000 0.771194
vn -0.565073 -0.499303 0.656802
vn 0.000000 -1.000000 0.000000
vn -0.749372 -0.662149 0.000001
vn -0.004214 -0.997350 0.072633
vn 0.000000 -1.000000 0.000000
vn 0.000000 -0.742895 -0.669408
vn 0.000000 -1.000000 0.000000
vn 0.000000 -1.000000 0.000000
vn 0.000000 -0.742894 -0.669409
vn -0.000000 0.000000 -1.000000
vn -0.000000 0.000000 -1.000000
vn 0.000000 0.000000 -1.000000
vn -0.061675 0.746791 -0.662193
vn -0.061675 0.746791 -0.662193
vn -0.760652 -0.000000 -0.649160
vn 0.000000 0.000000 -1.000000
vn -0.000000 0.000000 -1.000000
vn 0.000000 1.000000 0.000000
vn 0.000000 1.000000 0.000000
vn -0.768092 0.640340 0.000000
vn -0.614718 0.788747 0.000000
vn 0.000000 0.683791 0.729678
vn 0.000000 1.000000 0.000000
vn -0.614718 0.788747 0.000000
vn -0.602898 0.545544 0.582148
vn 0.000000 0.000000 1.000000
vn 0.000000 0.683791 0.729678
vn -0.602898 0.545544 0.582148
vn -0.370411 -0.000000 0.928868
vn 0.000000 1.000000 0.000000
vn 0.000000 0.680891 -0.732385
vn 0.000000 0.681404 -0.731907
vn 0.000000 1.000000 0.000000
vn -0.768092 0.640340 0.000000
vn 0.000000 1.000000 0.000000
vn 0.000000 0.681404 -0.731907
vn -0.646159 0.527617 -0.551451
vn -1.000000 0.000001 0.000000
vn -0.760652 -0.000000 -0.649160
vn -0.061675 0.746791 -0.662193
vn -1.000000 -0.000000 0.000000
vn 0.000000 1.000000 0.000000
vn 0.000000 1.000000 0.000000
vn -0.061675 0.746791 -0.662193
vn 0.063082 0.743927 -0.665277
vn 1.000000 0.000000 0.000000
vn 0.738714 0.000000 -0.674020
vn 0.588395 0.604623 -0.536864
vn 0.691091 0.722768 0.000000
vn 0.000000 1.000000 -0.000000
vn 0.691091 0.722768 0.000000
vn 0.588395 0.604623 -0.536864
vn 0.000000 0.738712 -0.674021
vn 0.000000 1.000000 -0.000000
vn 0.000000 1.000000 -0.000000
vn 0.000000 0.738712 -0.674021
vn 0.000000 0.738207 -0.674574
vn -0.000000 0.000000 -1.000000
vn -0.000000 0.000000 -1.000000
vn -0.000000 0.000000 -1.000000
vn -0.000000 0.000000 -1.000000
vn 0.000000 0.000000 -1.000000
vn -0.000000 0.000000 -1.000000
vn -0.000000 0.000000 -1.000000
vn 0.000000 0.000000 -1.000000
vn 0.000000 0.000000 -1.000000
vn 0.000000 0.000000 -1.000000
vn 0.000000 0.000000 -1.000000
vn 0.000000 0.000000 -1.000000
vn 0.000000 0.000000 -1.000000
vn 0.000000 0.000000 -1.000000
vn 0.000000 0.000000 -1.000000
vn 0.000000 0.000000 -1.000000
vn 0.000000 0.000000 -1.000000
vn 0.000000 0.000000 -1.000000
vn 0.000000 0.000000 -1.000000
vn 0.000000 0.000000 -1.000000
vn -0.000000 0.000000 -1.000000
vn 0.000000 -0.742895 -0.669407
vn 0.000000 -0.742895 -0.669408
vn -0.000000 0.000000 -1.000000
vn 0.000000 0.000000 -1.000000
vn -0.000000 0.000000 -1.000000
vn 0.000000 -0.742895 -0.669408
vn 0.000000 -0.742894 -0.669409
vn 0.000000 0.000000 -1.000000
vn 0.000000 0.000000 -1.000000
vn 0.000000 -0.742894 -0.669409
vn 0.000000 -0.742894 -0.669409
vn 0.000000 -0.742894 -0.669409
vn 0.000000 0.000000 -1.000000
vn 0.000000 0.000000 -1.000000
vn 0.000000 -0.742894 -0.669409
vn 0.000000 0.000000 -1.000000
vn 0.000000 0.000000 -1.000000
vn 0.000000 -0.742894 -0.669409
vn 0.000000 -0.742895 -0.669409
vn 0.000000 -1.000000 0.000000
vn 0.000000 -1.000000 0.000000
vn 0.000000 -1.000000 0.000000
vn 0.000000 -1.000000 0.000000
vn 0.000000 -1.000000 0.000000
vn 0.000000 -1.000000 0.000000
vn 0.000000 -1.000000 0.000000
vn -0.004214 -0.997350 0.072633
vn 0.000000 -1.000000 0.000000
vn 0.000000 -1.000000 0.000000
vn -0.004214 -0.997350 0.072633
vn 0.004321 -0.997356 0.072547
vn 0.000000 -1.000000 0.000000
vn 0.000000 -1.000000 0.000000
vn 0.004321 -0.997356 0.072547
vn 0.000000 -1.000000 -0.000000
vn 0.000000 -1.000000 0.000000
vn 0.000000 -1.000000 0.000000
vn 0.000000 -1.000000 -0.000000
vn 0.000000 -1.000000 0.000000
vn 0.000000 -1.000000 0.000000
vn 0.000000 -1.000000 0.000000
vn 0.000000 -1.000000 -0.000000
vn 0.000000 -1.000000 -0.000000
vn 0.000000 -1.000000 -0.000000
vn 0.004321 -0.997356 0.072547
vn 0.726920 -0.686722 0.000000
vn 0.000000 -1.000000 -0.000000
vn 0.004321 -0.997356 0.072547
vn 1.000000 0.000000 0.000000
vn 1.000000 0.000000 0.000000
vn 0.726920 -0.686722 0.000000
vn 1.000000 0.000000 0.000000
vn 1.000000 0.000000 0.000000
vn 1.000000 0.000000 0.000000
vn 1.000000 0.000000 0.000000
vn 1.000000 0.000000 0.000000
vn 1.000000 0.000000 0.000000
vn 1.000000 0.000000 0.000000
vn 1.000000 0.000000 0.000000
vn 1.000000 0.000000 0.000000
vn 1.000000 0.000000 0.000000
vn 1.000000 0.000000 0.000000
vn 1.000000 0.000000 0.000000
vn 1.000000 0.000000 0.000000
vn 1.000000 0.000000 0.000000
vn 1.000000 0.000000 0.000000
vn 1.000000 0.000000 0.000000
vn 1.000000 0.000000 0.000000
vn 0.063082 0.743927 -0.665277
vn 0.738714 0.000000 -0.674020
vn 1.000000 0.000000 0.000000
vn 0.063082 0.743927 -0.665277
vn 0.000000 0.000000 -1.000000
vn 0.000000 0.000000 -1.000000
vn 0.738714 0.000000 -0.674020
vn 0.000000 0.000000 -1.000000
vn 0.000000 0.000000 -1.000000
vn 0.000000 0.000000 -1.000000
vn 0.000000 0.000000 -1.000000
vn 0.000000 -1.000000 0.000000
vn 0.000000 -1.000000 0.000000
vn 0.000000 -0.605186 0.796084
vn 0.000000 -0.605186 0.796084
vn 0.000000 -0.605186 0.796084
vn -0.565073 -0.499303 0.656802
vn -0.749372 -0.662149 0.000001
vn 0.000000 -1.000000 0.000000
vn -0.565073 -0.499303 0.656802
vn -0.636600 0.000000 0.771194
vn -1.000000 0.000000 0.000002
vn -0.749372 -0.662149 0.000001
vn -0.636600 0.000000 0.771194
vn -0.370411 -0.000000 0.928868
vn -1.000000 -0.000001 0.000001
vn -1.000000 0.000000 0.000002
vn -0.370411 -0.000000 0.928868
vn -0.602898 0.545544 0.582148
vn -1.000000 0.000000 0.000000
vn -1.000000 -0.000001 0.000001
vn -0.602898 0.545544 0.582148
vn -0.614718 0.788747 0.000000
vn -1.000000 0.000002 0.000000
vn -1.000000 0.000000 0.000000
vn -1.000000 0.000001 0.000000
vn -1.000000 0.000002 0.000000
vn -0.614718 0.788747 0.000000
vn -0.768092 0.640340 0.000000
vn -0.768092 0.640340 0.000000
vn -0.646159 0.527617 -0.551451
vn -0.760652 -0.000000 -0.649160
vn -1.000000 0.000001 0.000000
vn 0.000000 0.000000 -1.000000
vn -0.760652 -0.000000 -0.649160
vn -0.646159 0.527617 -0.551451
vn 0.000000 0.681404 -0.731907
vn 0.000000 0.000000 -1.000000
vn 0.000000 0.000000 -1.000000
vn 0.000000 0.681404 -0.731907
vn 0.000000 0.680891 -0.732385
g BuildingA_Ledge_Short_LOD0 BuildingA_Ledge_Short
usemtl BuildingA_Bottom_Corner_LOD0SG2
f 3/43/1 33/44/2 61/45/3 62/46/4
f 59/95/5 107/96/6 108/97/7 10/98/8
f 7/51/9 81/52/10 82/53/11 58/54/12
f 103/1/13 104/2/14 35/3/15 11/4/16
f 1/123/17 47/124/18 55/125/19 56/126/20
f 10/98/21 71/101/22 59/95/23
f 100/19/24 101/15/25 49/16/26 12/20/27
f 13/55/28 98/59/29 99/60/30 57/56/31
f 42/81/32 17/25/33 37/24/34 41/82/35
f 95/34/36 96/116/37 40/120/38 19/35/39
f 46/68/40 21/63/41 84/62/42 85/69/43
f 92/22/44 93/23/45 37/24/46 17/25/47
f 44/131/48 15/41/49 51/37/50 52/132/51
f 74/111/52 39/112/53 22/38/54 73/106/55
f 89/40/56 90/36/57 51/37/58 15/41/59
f 88/75/60 89/74/61 15/77/62 44/78/63
f 12/61/64 49/139/65 50/140/66 25/67/67
f 11/89/68 35/90/69 36/91/70 24/92/71
f 9/14/72 72/102/73 73/106/74 22/38/75
f 8/58/76 83/57/77 84/62/78 21/63/79
f 27/127/80 3/129/81 62/130/82 54/128/83
f 102/9/84 103/1/85 11/4/86 29/10/87
f 30/142/88 29/141/89 11/89/90 24/92/91
f 91/30/92 92/22/93 17/25/94 31/31/95
f 43/133/96 31/31/97 17/25/98 42/136/99
f 33/44/100 63/47/101 64/48/102 61/45/103
f 35/3/104 104/2/105 105/7/106 66/8/107
f 36/91/108 35/90/109 66/93/110 67/94/111
f 37/24/112 93/23/113 94/28/114 68/29/115
f 41/82/116 37/24/117 68/29/118 69/83/119
f 96/116/120 97/119/121 18/122/122 40/120/123
f 38/85/124 41/82/125 69/83/126 70/87/127
f 16/84/128 42/81/129 41/82/130 38/85/131
f 32/137/132 43/133/133 42/136/134 16/138/135
f 14/134/136 44/131/137 52/132/138 53/135/139
f 14/80/140 87/79/141 88/75/142 44/78/143
f 20/72/144 46/68/145 85/69/146 86/73/147
f 23/115/148 39/112/149 74/111/150
f 47/124/151 27/127/152 54/128/153 55/125/154
f 101/15/155 102/9/156 29/10/157 49/16/158
f 50/140/159 49/139/160 29/141/161 30/142/162
f 90/36/163 91/30/164 31/31/165 51/37/166
f 52/132/167 51/37/168 31/31/169 43/133/170
f 53/135/171 52/132/172 43/133/173 32/137/174
f 55/125/175 54/128/176 28/12/177 48/18/178
f 56/126/179 55/125/180 48/18/181 2/21/182
f 99/60/183 100/66/184 12/61/185 57/56/186
f 58/54/187 82/53/188 83/57/189 8/58/190
f 59/95/191 71/101/192 72/102/193 9/14/194
f 9/14/195 106/13/196 107/96/197 59/95/198
f 61/45/199 64/48/200 65/11/201 34/6/202
f 62/46/203 61/45/204 34/6/205 4/5/206
f 54/128/207 62/130/208 4/5/209 28/12/210
f 63/47/211 5/49/212 60/50/213 64/48/214
f 65/11/215 64/48/216 60/50/217 6/17/218
f 105/7/219 106/13/220 9/14/221 66/8/222
f 67/94/223 66/93/224 9/14/225 22/38/226
f 94/28/227 95/34/228 19/35/229 68/29/230
f 69/83/231 68/29/232 19/35/233 40/86/234
f 70/87/235 69/83/236 40/86/237 18/88/238
f 10/98/239 75/103/240 76/104/241 71/101/242
f 72/102/243 71/101/244 76/104/245 77/105/246
f 73/106/247 72/102/248 77/105/249 78/110/250
f 79/114/251 74/111/252 73/106/253 78/110/254
f 23/115/255 74/111/256 79/114/257 80/118/258
f 75/103/259 7/107/260 58/108/261 76/104/262
f 77/105/263 76/104/264 58/108/265 8/109/266
f 78/110/267 77/105/268 8/109/269 21/113/270
f 46/117/271 79/114/272 78/110/273 21/113/274
f 80/118/275 79/114/276 46/117/277 20/121/278
f 81/52/279 13/55/280 57/56/281 82/53/282
f 83/57/283 82/53/284 57/56/285 12/61/286
f 84/62/287 83/57/288 12/61/289 25/67/290
f 85/69/291 84/62/292 25/67/293 45/71/294
f 86/73/295 85/69/296 45/71/297 26/76/298
f 87/79/299 26/76/300 45/71/301 88/75/302
f 45/71/303 25/67/304 89/74/305 88/75/306
f 25/42/307 50/39/308 90/36/309 89/40/310
f 50/39/311 30/33/312 91/30/313 90/36/314
f 30/33/315 24/26/316 92/22/317 91/30/318
f 24/26/319 36/27/320 93/23/321 92/22/322
f 94/28/323 93/23/324 36/27/325 67/32/326
f 67/32/327 22/38/328 95/34/329 94/28/330
f 22/38/331 39/112/332 96/116/333 95/34/334
f 39/112/335 23/115/336 97/119/337 96/116/338
f 99/60/339 98/59/340 1/64/341 56/65/342
f 56/65/343 2/70/344 100/66/345 99/60/346
f 2/21/347 48/18/348 101/15/349 100/19/350
f 48/18/351 28/12/352 102/9/353 101/15/354
f 28/12/355 4/5/356 103/1/357 102/9/358
f 4/5/359 34/6/360 104/2/361 103/1/362
f 105/7/363 104/2/364 34/6/365 65/11/366
f 65/11/367 6/17/368 106/13/369 105/7/370
f 107/96/371 106/13/372 6/17/373 60/99/374
f 108/97/375 107/96/376 60/99/377 5/100/378
