# This file uses meters as units for non-parametric coordinates.

mtllib BuildingA_Bottom_Wall_Short3M_VarA_LOD1.mtl
g default
v 25.707254 329.104218 -11.063156
v 273.827911 329.104218 -11.063156
v 25.707254 357.044800 -11.063156
v 273.827911 357.044800 -11.063156
v 25.707254 357.044800 -27.683994
v 273.827911 357.044800 -27.683994
v 25.707254 329.104218 -27.683994
v 273.827911 329.104218 -27.683994
v 163.737885 110.482201 -15.173829
v 163.737885 329.104218 -15.173829
v 135.797302 110.482201 -15.173829
v 135.797302 329.104218 -15.173829
v 135.797302 110.482201 -31.794664
v 135.797302 329.104218 -31.794664
v 163.737885 110.482201 -31.794664
v 163.737885 329.104218 -31.794664
v 0.000008 0.000000 -63.278843
v 0.000008 400.000000 -63.278843
v 299.999969 400.000000 -63.278843
v 299.999969 0.000000 -63.278843
v 25.707193 400.000000 -18.129299
v 273.827911 400.000000 -18.129299
v 273.827911 400.000000 0.000000
v 299.999969 400.000000 0.000000
v 25.707193 400.000000 0.000000
v 0.000008 400.000000 0.000000
v 299.999969 0.000004 0.000000
v 273.827911 0.000004 0.000000
v 273.827911 0.000004 -18.129299
v 25.707249 0.000004 -18.129299
v 25.707249 0.000004 0.000000
v 0.000011 -0.000004 0.000000
v 25.707254 110.482201 -8.422253
v 273.827911 110.482201 -8.422253
v 25.707254 110.482201 -64.795143
v 273.827911 110.482201 -64.795143
v 25.707254 92.549980 -64.795143
v 273.827911 92.549980 -64.795143
v 25.707254 92.549980 -15.069923
v 25.707254 99.197655 -8.422253
v 273.827911 99.197655 -8.422253
v 273.827911 92.549980 -15.069923
v 0.000011 0.000000 3.258097
v 28.808355 0.000000 3.258097
v 0.000011 50.000000 3.258097
v 28.808355 50.000000 3.258097
v 0.000011 50.000000 -22.778170
v 28.808355 50.000000 -22.778170
v 28.808355 0.000000 -22.778170
v 299.999969 0.000000 3.258097
v 270.727142 0.000000 3.258097
v 299.999969 50.000000 3.258097
v 270.727142 50.000000 3.258097
v 299.999969 50.000000 -22.778172
v 270.727142 50.000000 -22.778172
v 270.727142 0.000000 -22.778172
v 25.707193 400.000000 -4.752802
v 25.707249 0.000004 -4.752802
v 273.827911 0.000004 -4.693312
v 273.827911 400.000000 -4.693312
v 273.827911 342.294556 -18.129299
v 25.707197 342.294556 -18.129299
v 25.707235 101.590683 -18.129299
v 273.827911 101.590683 -18.129299
v 273.827911 342.294556 -21.629299
v 25.707197 342.294556 -21.629299
v 25.707235 101.590683 -21.629299
v 273.827911 101.590683 -21.629299
v 25.707199 342.294556 -63.278843
v 273.827911 342.294495 -63.278843
v 25.707197 101.590691 -63.278843
v 273.827911 101.590660 -63.278843
v 25.707199 342.294556 -59.778839
v 273.827911 342.294495 -59.778839
v 273.827911 101.590660 -59.778839
v 25.707197 101.590691 -59.778839
v 273.827911 110.482201 -63.040112
v 25.707256 110.482201 -63.040096
v 273.827911 92.549980 -62.973602
v 25.707254 92.549980 -62.973602
v 163.737885 101.590683 -62.614571
v 163.737885 329.104218 -62.614571
v 135.797302 101.590683 -62.614571
v 135.797302 329.104218 -62.614571
v 135.797302 101.590683 -45.993736
v 135.797302 329.104218 -45.993736
v 163.737885 101.590683 -45.993736
v 163.737885 329.104218 -45.993736
v 25.707254 329.104218 -65.752708
v 273.827911 329.104218 -65.752708
v 25.707254 357.044800 -65.752708
v 273.827911 357.044800 -65.752708
v 25.707254 357.044800 -49.131870
v 273.827911 357.044800 -49.131870
v 25.707254 329.104218 -49.131870
v 273.827911 329.104218 -49.131870
v 25.707254 357.044800 -62.868694
v 273.827911 357.044800 -62.868694
v 25.707254 329.104218 -63.192375
v 273.827911 329.104218 -63.192375
vt -0.491431 0.748753
vt -1.487447 0.748753
vt -0.491431 0.815473
vt -1.487447 0.815473
vt -0.491431 0.636593
vt -1.487447 0.636593
vt -1.487447 0.569873
vt -0.491431 0.569873
vt -1.482882 0.321781
vt -0.486866 0.321781
vt -1.482882 0.246058
vt -0.486866 0.246058
vt -1.482882 0.449075
vt -0.486866 0.449075
vt -0.486866 0.524797
vt -1.482882 0.524797
vt 0.143910 1.000000
vt 0.143910 -0.300823
vt 0.043534 1.000000
vt -0.000161 0.812339
vt -0.000161 0.029557
vt 0.043534 -0.300822
vt 0.955912 -1.356045
vt 0.224457 -1.356046
vt 0.224457 -2.065635
vt 0.955910 -2.065634
vt 0.242967 -0.300824
vt 0.286468 0.029555
vt 0.286468 0.812339
vt 0.242967 1.000000
vt 0.143909 -0.300822
vt 0.143910 1.000000
vt 0.226513 -0.182478
vt -1.955328 -0.182478
vt 0.226530 -0.844663
vt -1.955344 -0.844662
vt -1.955342 -0.761991
vt 0.226526 -0.761990
vt 1.928804 0.829285
vt 1.928804 1.087622
vt 2.472984 0.829285
vt 2.214646 0.829284
vt 2.214647 1.087622
vt 1.928804 0.333174
vt 2.214646 0.333174
vt 2.472984 0.333174
vt 3.064384 0.819393
vt 3.064384 1.077731
vt 2.515595 0.819391
vt 2.773932 0.819393
vt 2.773932 1.077731
vt 3.064385 0.323283
vt 2.773934 0.323282
vt 2.515597 0.323281
vt 0.227510 -0.300822
vt 0.227511 1.000000
vt 0.058796 1.000000
vt 0.058797 -0.300822
vt 0.226530 -1.281928
vt 0.226530 -1.265910
vt -1.955346 -1.265910
vt -1.955346 -1.281928
vt 0.226526 -0.662760
vt -1.955341 -0.662759
vt -0.000161 1.000000
vt 0.240005 -1.121212
vt 0.240012 -1.291910
vt 0.973953 -1.291910
vt 0.973960 -1.121212
vt 0.286468 1.000000
vt 0.286468 -0.300822
vt 0.954364 -2.133024
vt 0.225707 -2.133023
vt 0.225641 -2.431439
vt 0.954430 -2.431440
vt -0.000161 -0.300822
vt 0.240012 -1.302262
vt 0.973952 -1.302262
vt 0.297850 0.029555
vt 0.297850 0.812339
vt 0.954362 -2.122744
vt 0.225709 -2.122744
vt -0.011543 0.812339
vt -0.011543 0.029557
vt 0.816984 -0.270957
vt -0.298932 -0.274409
vt -0.301903 0.808057
vt 0.813266 0.811500
vt 0.619205 0.624341
vt -0.109066 0.624341
vt -0.109066 -0.051843
vt 0.619205 -0.051843
vt -0.301852 0.792327
vt 0.813314 0.795770
vt -0.283193 -0.274365
vt -0.286161 0.808100
vt 0.816937 -0.255215
vt -0.298982 -0.258666
vt 0.797526 0.811447
vt 0.801246 -0.271011
vt -0.420333 1.067176
vt 0.928004 1.071348
vt -0.415328 -0.731613
vt 0.934120 -0.727449
vt -1.955327 -0.167045
vt 0.226513 -0.167045
vt 0.226510 -0.009358
vt -1.955327 -0.009359
vt 0.242539 -0.009355
vt 0.241937 -0.167052
vt -1.970752 -0.167050
vt -1.971354 -0.009356
vt -1.374856 0.321781
vt -0.446358 0.321790
vt -1.374856 0.246058
vt -0.446360 0.246067
vt -1.374856 0.449075
vt -0.446357 0.449067
vt -0.446358 0.524785
vt -1.374856 0.524797
vt -1.475011 0.638961
vt -0.518013 0.638961
vt -1.475011 0.627838
vt -1.475012 0.574852
vt -0.518011 0.574853
vt -0.518013 0.627838
vt -1.475001 0.756602
vt -1.475002 0.746727
vt -0.518022 0.746727
vt -0.518022 0.756602
vt -1.474998 0.810829
vt -0.518025 0.810829
vt -0.506848 0.638953
vt -1.486176 0.638953
vt -1.484855 0.746724
vt -0.508169 0.746724
vn 0.000000 0.000000 1.000000
vn 0.000000 0.000000 1.000000
vn 0.000000 0.000000 1.000000
vn 0.000000 0.000000 1.000000
vn 0.000000 1.000000 0.000000
vn 0.000000 1.000000 0.000000
vn 0.000000 1.000000 0.000000
vn 0.000000 1.000000 0.000000
vn 0.000000 -1.000000 0.000000
vn 0.000000 -1.000000 0.000000
vn 0.000000 -1.000000 0.000000
vn 0.000000 -1.000000 0.000000
vn 0.000000 0.000000 1.000000
vn 0.000000 0.000000 1.000000
vn 0.000000 0.000000 1.000000
vn 0.000000 0.000000 1.000000
vn -1.000000 0.000000 0.000000
vn -1.000000 0.000000 0.000000
vn -1.000000 0.000000 0.000000
vn -1.000000 0.000000 0.000000
vn 1.000000 0.000000 0.000000
vn 1.000000 0.000000 0.000000
vn 1.000000 0.000000 0.000000
vn 1.000000 0.000000 0.000000
vn 0.000000 0.000000 1.000000
vn 0.000000 0.000000 1.000000
vn 0.000000 0.000000 1.000000
vn 0.000000 0.000000 1.000000
vn -1.000000 0.000000 0.000000
vn -1.000000 0.000000 0.000000
vn -1.000000 0.000000 0.000000
vn -1.000000 0.000000 0.000000
vn -1.000000 0.000000 0.000000
vn -1.000000 0.000000 0.000000
vn 0.000000 0.000000 1.000000
vn 0.000000 0.000000 1.000000
vn 0.000000 0.000000 1.000000
vn 0.000000 0.000000 1.000000
vn 1.000000 0.000000 -0.000000
vn 1.000000 0.000000 -0.000000
vn 1.000000 0.000000 -0.000000
vn 1.000000 0.000000 -0.000000
vn 1.000000 0.000000 -0.000000
vn 1.000000 0.000000 -0.000000
vn 0.000000 0.000000 1.000000
vn 0.000000 0.000000 1.000000
vn 0.000000 0.000000 1.000000
vn 0.000000 0.000000 1.000000
vn 0.000000 0.000000 1.000000
vn 0.000000 0.000000 1.000000
vn 0.000000 0.000000 1.000000
vn 0.000000 0.000000 1.000000
vn 0.000000 1.000000 0.000000
vn 0.000000 1.000000 -0.000000
vn 0.000000 1.000000 -0.000000
vn 0.000000 1.000000 0.000000
vn 0.000000 -1.000000 0.000000
vn 0.000000 -1.000000 0.000000
vn 0.000000 -1.000000 0.000000
vn 0.000000 -1.000000 0.000000
vn 0.000000 -0.707106 0.707107
vn 0.000000 -0.707106 0.707107
vn 0.000000 -0.707106 0.707107
vn 0.000000 -0.707106 0.707107
vn 0.000000 0.000000 1.000000
vn 0.000000 0.000000 1.000000
vn 0.000000 0.000000 1.000000
vn 0.000000 0.000000 1.000000
vn 0.000000 1.000000 0.000000
vn 0.000000 1.000000 0.000000
vn 0.000000 1.000000 0.000000
vn 0.000000 1.000000 0.000000
vn 1.000000 0.000000 0.000000
vn 1.000000 0.000000 0.000000
vn 1.000000 0.000000 0.000000
vn 1.000000 0.000000 0.000000
vn 0.000000 0.000000 1.000000
vn 0.000000 0.000000 1.000000
vn 0.000000 0.000000 1.000000
vn 0.000000 0.000000 1.000000
vn 0.000000 1.000000 0.000000
vn 0.000000 1.000000 0.000000
vn 0.000000 1.000000 0.000000
vn 0.000000 1.000000 0.000000
vn -1.000000 0.000000 0.000000
vn -1.000000 0.000000 0.000000
vn -1.000000 0.000000 0.000000
vn -1.000000 0.000000 0.000000
vn 0.000000 -1.000000 0.000000
vn 0.000000 -1.000000 0.000000
vn -1.000000 0.000000 0.000000
vn -1.000000 0.000000 0.000000
vn -1.000000 0.000000 0.000000
vn 0.000000 0.000000 1.000000
vn 0.000000 0.000000 1.000000
vn 0.000000 0.000000 1.000000
vn 0.000000 0.000000 1.000000
vn 1.000000 0.000000 0.000000
vn 1.000000 0.000000 0.000000
vn 1.000000 0.000000 0.000000
vn 1.000000 0.000000 0.000000
vn 1.000000 0.000000 0.000000
vn 1.000000 0.000000 0.000000
vn 0.000000 0.000000 1.000000
vn 0.000000 0.000000 1.000000
vn 0.000000 0.000000 1.000000
vn 0.000000 0.000000 1.000000
vn -1.000000 0.000000 0.000000
vn -1.000000 0.000000 0.000000
vn -1.000000 0.000000 0.000000
vn 0.000000 -1.000000 0.000000
vn 0.000000 -1.000000 0.000000
vn 0.000000 -1.000000 0.000000
vn 0.000000 -1.000000 0.000000
vn 1.000000 0.000000 0.000000
vn 1.000000 0.000000 0.000000
vn 0.000000 1.000000 0.000000
vn 0.000000 1.000000 0.000000
vn 0.000000 1.000000 0.000000
vn 0.000000 1.000000 0.000000
vn -1.000000 0.000000 0.000000
vn -1.000000 0.000000 0.000000
vn 0.000000 0.000000 -1.000000
vn 0.000000 0.000000 -1.000000
vn 0.000000 0.000000 -1.000000
vn 0.000000 0.000000 -1.000000
vn 0.000000 0.000000 -1.000000
vn 0.000000 0.000000 -1.000000
vn 0.000000 0.000000 -1.000000
vn 0.000000 0.000000 -1.000000
vn 0.000000 0.000000 -1.000000
vn 0.000000 0.000000 -1.000000
vn 0.000000 0.000000 -1.000000
vn 0.000000 0.000000 -1.000000
vn -0.000000 -1.000000 0.000000
vn -0.000000 -1.000000 0.000000
vn -0.000000 -1.000000 0.000000
vn -0.000000 -1.000000 0.000000
vn -1.000000 0.000000 0.000000
vn -1.000000 0.000000 0.000000
vn -1.000000 0.000000 0.000000
vn -1.000000 0.000000 0.000000
vn 0.000000 1.000000 0.000000
vn 0.000000 1.000000 0.000000
vn 0.000000 1.000000 0.000000
vn 0.000000 1.000000 0.000000
vn 1.000000 -0.000000 0.000000
vn 1.000000 -0.000000 0.000000
vn 1.000000 -0.000000 0.000000
vn 1.000000 -0.000000 0.000000
vn 0.000000 0.000000 -1.000000
vn 0.000000 0.000000 -1.000000
vn 0.000000 0.000000 -1.000000
vn 0.000000 0.000000 -1.000000
vn 0.000000 1.000000 -0.000000
vn 0.000000 1.000000 -0.000000
vn 1.000000 0.000000 0.000000
vn 1.000000 0.000000 0.000000
vn 1.000000 0.000000 0.000000
vn 1.000000 0.000000 0.000000
vn -1.000000 0.000000 0.000001
vn -1.000000 0.000000 0.000001
vn -1.000000 0.000000 0.000001
vn -1.000000 0.000000 0.000001
vn -1.000000 0.000000 0.000000
vn -1.000000 0.000000 0.000000
vn -1.000000 0.000000 0.000000
vn -1.000000 0.000000 0.000000
vn 0.000000 0.000000 -1.000000
vn 0.000000 0.000000 -1.000000
vn 0.000000 0.000000 -1.000000
vn 0.000000 0.000000 -1.000000
vn 1.000000 0.000000 0.000000
vn 1.000000 0.000000 0.000000
vn 1.000000 0.000000 0.000000
vn 1.000000 0.000000 0.000000
vn 0.000000 1.000000 0.000000
vn 0.000000 1.000000 0.000000
vn 0.000000 1.000000 0.000000
vn 0.000000 1.000000 0.000000
vn 0.000000 -1.000000 0.000000
vn 0.000000 -1.000000 0.000000
vn 0.000000 -1.000000 0.000000
vn 0.000000 -1.000000 0.000000
vn 0.000000 1.000000 0.000000
vn 0.000000 1.000000 0.000000
vn 0.000000 1.000000 0.000000
vn 0.000000 1.000000 0.000000
vn 0.000000 -1.000000 0.000000
vn 0.000000 -1.000000 0.000000
vn 0.000000 -1.000000 0.000000
vn 0.000000 -1.000000 0.000000
vn -1.000000 0.000000 0.000000
vn -1.000000 0.000000 0.000000
vn -1.000000 0.000000 0.000000
vn -1.000000 0.000000 0.000000
vn 0.000000 0.000000 -1.000000
vn 0.000000 0.000000 -1.000000
vn 0.000000 0.000000 -1.000000
vn 0.000000 0.000000 -1.000000
vn 1.000000 0.000000 0.000000
vn 1.000000 0.000000 0.000000
vn 1.000000 0.000000 0.000000
vn 1.000000 0.000000 0.000000
g BuildingA_Bottom_Wall_Short3M_VarA_LOD1 BuildingA_Bottom_Wall_Short3M_VarA
usemtl BuildingA_Bottom_Wall_Long_VarA_LOD0SG3
f 2/5/1 4/1/2 3/2/3 1/6/4
f 4/1/5 6/3/6 5/4/7 3/2/8
f 8/8/9 2/5/10 1/6/11 7/7/12
f 10/13/13 12/9/14 11/10/15 9/14/16
f 12/9/17 14/11/18 13/12/19 11/10/20
f 16/16/21 10/13/22 9/14/23 15/15/24
usemtl BuildingA_Bottom_Corner_LOD0SG
f 28/58/25 27/18/26 24/17/27 23/57/28
f 60/19/29 61/20/30 64/21/31 59/22/32 28/58/33 23/57/34
usemtl BuildingA_Bottom_Wall_Long_VarA_LOD0SG2
f 65/23/35 66/24/36 67/25/37 68/26/38
usemtl BuildingA_Bottom_Corner_LOD0SG
f 58/27/39 63/28/40 62/29/41 57/30/42 25/56/43 31/55/44
f 25/56/45 26/32/46 32/31/47 31/55/48
usemtl BuildingA_Bottom_Corner_LOD0SG2
f 41/38/49 34/63/50 33/64/51 40/37/52
f 34/63/53 77/33/54 78/34/55 33/64/56
f 79/60/57 42/35/58 39/36/59 80/61/60
f 40/37/61 39/36/62 42/35/63 41/38/64
f 46/42/65 45/39/66 43/44/67 44/45/68
f 48/43/69 47/40/70 45/39/71 46/42/72
f 49/46/73 48/41/74 46/42/75 44/45/76
f 51/53/77 50/52/78 52/47/79 53/50/80
f 52/47/81 54/48/82 55/51/83 53/50/84
f 56/54/85 51/53/86 53/50/87 55/49/88
f 38/59/89 79/60/57 80/61/60 37/62/90
usemtl BuildingA_Bottom_Corner_LOD0SG
f 22/65/91 61/20/92 60/19/93
f 21/66/94 62/67/95 61/68/96 22/69/97
f 57/30/98 62/29/99 21/70/100
f 58/27/101 30/71/102 63/28/103
f 64/72/104 63/73/105 30/74/106 29/75/107
f 59/22/108 64/21/109 29/76/110
f 61/68/111 62/67/112 66/77/113 65/78/114
f 62/29/41 63/28/40 67/79/115 66/80/116
f 63/73/117 64/72/118 68/81/119 67/82/120
f 64/21/31 61/20/30 65/83/121 68/84/122
usemtl BuildingA_Bottom_Corner_LOD0SG1
f 71/85/123 72/86/124 20/103/125 17/104/126
f 70/87/127 69/88/128 18/102/129 19/101/130
f 18/102/129 69/88/128 71/85/123 17/104/126
usemtl BuildingA_Bottom_Wall_Long_VarA_LOD0SG2
f 73/89/131 74/90/132 75/91/133 76/92/134
usemtl BuildingA_Bottom_Corner_LOD0SG1
f 72/86/124 70/87/127 19/101/130 20/103/125
f 69/88/135 70/87/136 74/93/137 73/94/138
f 70/87/139 72/86/140 75/95/141 74/96/142
f 72/86/143 71/85/144 76/97/145 75/98/146
f 71/85/147 69/88/148 73/99/149 76/100/150
usemtl BuildingA_Bottom_Corner_LOD0SG2
f 35/105/151 36/106/152 38/107/153 37/108/154
f 78/34/55 77/33/54 36/106/155 35/105/156
f 79/109/157 38/107/158 36/106/159 77/110/160
f 78/111/161 35/105/162 37/108/163 80/112/164
usemtl BuildingA_Bottom_Wall_Long_VarA_LOD0SG3
f 86/115/165 84/113/166 83/114/167 85/116/168
f 84/113/169 82/117/170 81/118/171 83/114/172
f 82/117/173 88/120/174 87/119/175 81/118/176
f 97/123/177 93/124/178 94/125/179 98/126/180
f 99/127/181 89/128/182 90/129/183 100/130/184
f 91/121/185 97/123/186 98/126/187 92/122/188
f 95/131/189 99/127/190 100/130/191 96/132/192
f 89/128/193 99/135/194 97/134/195 91/121/196
f 90/129/197 89/128/198 91/121/199 92/122/200
f 98/133/201 100/136/202 90/129/203 92/122/204
