# This file uses meters as units for non-parametric coordinates.

mtllib BuildingA_Top_Wall_Long_VarA_LOD0.mtl
g default
v 60.405434 329.104218 -11.063156
v 739.594238 329.104218 -11.063156
v 60.405434 357.044800 -11.063156
v 739.594238 357.044800 -11.063156
v 60.405434 357.044800 -27.683994
v 739.594238 357.044800 -27.683994
v 60.405434 329.104218 -27.683994
v 739.594238 329.104218 -27.683994
v 60.405434 110.482193 -8.422253
v 739.594238 110.482193 -8.422253
v 60.405434 110.482193 -65.126389
v 739.594238 110.482193 -65.126389
v 60.405434 92.549973 -65.126389
v 739.594238 92.549973 -65.126389
v 60.405434 92.549973 -15.069923
v 60.405434 99.197647 -8.422253
v 739.594238 99.197647 -8.422253
v 739.594238 92.549973 -15.069923
v 60.405434 101.400909 -8.422253
v 739.594238 101.400909 -8.422253
v 60.405434 92.549973 -17.500645
v 739.594238 92.549973 -17.500645
v 60.405434 110.482193 -11.235945
v 739.594238 110.482193 -11.235945
v 739.594238 107.108948 -8.422253
v 60.405434 107.108948 -8.422253
v 739.594238 110.482193 -62.828552
v 60.405434 110.482193 -62.828533
v 739.594238 92.549973 -63.044846
v 60.405434 92.549973 -63.044857
v 60.405437 108.383026 -62.853863
v 60.405437 108.383026 -65.126389
v 739.594238 108.383026 -65.126389
v 739.594238 108.383026 -62.853874
v 739.594238 94.410995 -63.022392
v 739.594238 94.410995 -65.126389
v 60.405434 94.410995 -65.126389
v 60.405434 94.410995 -63.022404
v 0.000008 -0.000004 -63.278843
v 0.000008 400.000000 -63.278843
v 800.000000 400.000000 -63.278843
v 800.000000 -0.000004 -63.278843
v 60.405373 400.000000 -18.129299
v 739.594238 400.000000 -18.129299
v 739.594238 400.000000 0.000000
v 800.000000 400.000000 0.000000
v 60.405373 400.000000 0.000000
v 0.000008 400.000000 0.000000
v 800.000000 0.000004 0.000000
v 739.594238 0.000004 0.000000
v 739.594238 0.000004 -18.129299
v 60.405426 0.000004 -18.129299
v 60.405426 0.000004 0.000000
v 0.000011 -0.000004 0.000000
v 60.405373 400.000000 -4.752802
v 60.405426 0.000004 -4.752802
v 56.249046 0.000004 0.000000
v 56.248993 400.000000 0.000000
v 743.750610 400.000000 0.000000
v 743.750610 0.000004 0.000000
v 739.594238 0.000004 -4.693312
v 739.594238 400.000000 -4.693312
v 739.594238 342.294556 -18.129299
v 60.405380 342.294556 -18.129299
v 60.405422 101.590683 -18.129299
v 739.594238 101.590683 -18.129299
v 739.594177 101.590714 -63.278843
v 739.594177 342.294586 -63.278843
v 60.405357 342.294495 -63.278843
v 60.405357 101.590652 -63.278843
v 739.594177 101.590714 -59.778839
v 739.594177 342.294586 -59.778839
v 60.405357 101.590652 -59.778839
v 60.405357 342.294495 -59.778839
v 58.210892 344.390869 -63.278843
v 741.788696 344.390991 -63.278843
v 741.788696 97.899963 -63.278843
v 58.210892 97.899963 -63.278843
v 739.594238 342.294556 -21.629299
v 60.405380 342.294556 -21.629299
v 60.405422 101.590683 -21.629299
v 739.594238 101.590683 -21.629299
v 60.405434 329.104218 -65.725151
v 739.594238 329.104218 -65.725151
v 60.405434 357.044800 -65.725151
v 739.594238 357.044800 -65.725151
v 60.405434 357.044800 -49.104309
v 739.594238 357.044800 -49.104309
v 60.405434 329.104218 -49.104309
v 739.594238 329.104218 -49.104309
v 60.405434 357.044800 -62.841133
v 739.594238 357.044800 -62.841133
v 60.405434 329.104218 -63.080650
v 739.594238 329.104218 -63.080650
v 60.405434 354.308258 -62.864597
v 60.405434 354.308289 -65.725151
v 739.594238 354.308258 -65.725151
v 739.594238 354.308258 -62.864597
v 60.405434 331.667145 -63.058681
v 60.405434 331.667145 -65.725151
v 739.594238 331.667145 -65.725151
v 739.594238 331.667145 -63.058681
v 739.594238 354.235138 -11.063156
v 60.405434 354.235138 -11.063156
v 739.594238 357.044800 -13.254182
v 60.405434 357.044800 -13.254182
v 739.594238 332.223969 -11.063156
v 60.405434 332.223969 -11.063156
v 739.594238 329.104218 -13.869186
v 60.405434 329.104218 -13.869186
vt 3.968532 0.290825
vt 1.092499 0.290824
vt 3.968532 0.361205
vt 1.092499 0.361205
vt 3.968532 0.172509
vt 1.092499 0.172509
vt 1.092499 0.102128
vt 3.968532 0.102129
vt 1.973911 -0.013163
vt 1.973911 0.026954
vt -2.799562 0.026954
vt -2.799562 -0.013164
vt -2.799563 0.070437
vt 1.973912 0.070437
vt 1.973917 0.433042
vt -2.799568 0.433041
vt -2.799561 -0.111806
vt 1.973910 -0.111806
vt 1.973910 -0.094722
vt -2.799561 -0.094722
vt -2.799562 -0.028649
vt 1.973911 -0.028648
vt 1.973907 -0.446528
vt 1.973907 -0.431899
vt -2.799558 -0.431899
vt -2.799558 -0.446529
vt 1.973912 0.050662
vt -2.799563 0.050662
vt 1.973917 0.449191
vt -2.799568 0.449191
vt 1.988707 0.562144
vt 1.973918 0.562144
vt 1.973917 0.463945
vt 1.989891 0.463945
vt -2.799568 0.463944
vt -2.799569 0.562143
vt -2.815542 0.463944
vt -2.814358 0.562143
vt -2.815720 0.449191
vt 1.990069 0.449191
vt 1.988549 0.575224
vt 1.973918 0.575223
vt -2.799569 0.575223
vt -2.814200 0.575223
vt 0.143910 2.300212
vt -0.038931 2.300212
vt -0.038931 1.000000
vt 0.143910 1.000000
vt -0.067696 2.300212
vt -0.111371 2.112639
vt -0.111371 1.330222
vt -0.067696 1.000000
vt 2.606230 -1.082164
vt 0.657107 -1.083007
vt 0.657406 -1.773834
vt 2.606545 -1.772957
vt 0.355708 1.000000
vt 0.399189 1.330224
vt 0.399189 2.112638
vt 0.355708 2.300212
vt 0.143910 1.000000
vt 0.326749 1.000000
vt 0.326748 2.300212
vt 0.143910 2.300212
vt 0.340259 1.000000
vt 0.340259 2.300212
vt -0.052441 2.300212
vt -0.052441 1.000000
vt -0.111371 2.300212
vt 0.657039 -0.904487
vt 0.657109 -1.070087
vt 2.606221 -1.069240
vt 2.606147 -0.903639
vt 0.399189 2.300212
vt 0.399189 1.000000
vt 2.606577 -1.611947
vt 0.657377 -1.612833
vt 0.657512 -1.904386
vt 2.606707 -1.903500
vt -0.111371 1.000000
vt -2.473578 0.812678
vt -2.473662 -0.314752
vt -2.463624 -0.297871
vt -2.463541 0.803090
vt 0.642855 0.803088
vt 0.642937 -0.297872
vt 0.652975 -0.314753
vt 0.652891 0.812677
vt -1.906871 0.589004
vt -1.907842 -0.117713
vt 0.086286 -0.120452
vt 0.087256 0.586265
vt -2.447615 -0.297872
vt -2.447532 0.803089
vt 0.642937 -0.281863
vt -2.463624 -0.281862
vt 0.626845 0.803087
vt 0.626928 -0.297873
vt -2.463541 0.787082
vt 0.642855 0.787080
vt -2.739818 1.067025
vt 0.919130 1.067023
vt -2.739928 -0.762532
vt 0.919238 -0.762534
vt 0.657113 -1.080131
vt 2.606225 -1.079284
vt 0.410565 1.330223
vt 0.410565 2.112639
vt 2.606573 -1.601902
vt 0.657372 -1.602788
vt -0.122747 2.112639
vt -0.122747 1.330224
vt 1.096008 0.279384
vt 3.972055 0.279384
vt 3.972055 0.290972
vt 1.096008 0.290972
vt 1.096008 0.303184
vt 3.972055 0.303185
vt 3.972055 0.361354
vt 1.096008 0.361354
vt 1.096009 0.161458
vt 3.972054 0.161458
vt 3.972054 0.172656
vt 1.096008 0.172656
vt 1.096009 0.102274
vt 3.972054 0.102274
vt 3.984169 0.279386
vt 3.984269 0.290974
vt 1.083894 0.279386
vt 1.083794 0.290974
vt 1.084718 0.183507
vt 1.096008 0.183509
vt 3.972054 0.183509
vt 3.983345 0.183507
vt 1.084811 0.172654
vt 3.983252 0.172654
vt 3.968532 0.278927
vt 1.092499 0.278927
vt 3.968532 0.300102
vt 1.092499 0.300102
vt 3.968532 0.185720
vt 1.092499 0.185720
vt 3.968532 0.160627
vt 1.092499 0.160627
vn 0.000000 -0.668734 0.743502
vn 0.000000 0.000000 1.000000
vn 0.000000 0.000000 1.000000
vn 0.000000 -0.668734 0.743502
vn 0.000000 0.614941 0.788573
vn 0.000000 1.000000 0.000000
vn 0.000000 1.000000 0.000000
vn 0.000000 0.614941 0.788573
vn 0.000000 -1.000000 0.000000
vn 0.000000 -1.000000 0.000000
vn 0.000000 -1.000000 0.000000
vn 0.000000 -1.000000 0.000000
vn 0.000000 0.000000 1.000000
vn 0.000000 0.000000 1.000000
vn 0.000000 0.000000 1.000000
vn 0.000000 0.000000 1.000000
vn 0.000000 1.000000 0.000000
vn 0.000000 1.000000 0.000000
vn 0.000000 1.000000 0.000000
vn 0.000000 1.000000 0.000000
vn 0.000000 -1.000000 0.000000
vn 0.000000 -1.000000 0.000000
vn 0.000000 -0.806821 0.590797
vn 0.000000 -0.806821 0.590797
vn 0.000000 -0.600547 0.799589
vn 0.000000 -0.600547 0.799589
vn 0.000000 -0.745491 -0.666516
vn 0.000000 -1.000000 0.000000
vn 0.000000 -1.000000 0.000000
vn 0.000000 -0.745491 -0.666516
vn 0.000000 0.640541 0.767924
vn 0.000000 0.640541 0.767924
vn 0.000000 0.738305 -0.674467
vn 0.000000 0.738306 -0.674467
vn 1.000000 -0.000000 0.000000
vn 1.000000 -0.000000 0.000000
vn 1.000000 -0.000000 0.000000
vn 1.000000 -0.000000 0.000000
vn 0.000000 0.000000 -1.000000
vn 0.000000 0.000000 -1.000000
vn 0.000000 0.000000 -1.000000
vn 0.000000 0.000000 -1.000000
vn -1.000000 0.000000 0.000000
vn -1.000000 0.000000 0.000000
vn -1.000000 0.000000 0.000000
vn -1.000000 0.000000 0.000000
vn -1.000000 -0.000003 0.000000
vn -1.000000 -0.000003 0.000000
vn -1.000000 -0.000003 0.000000
vn -1.000000 -0.000003 0.000000
vn 1.000000 0.000015 0.000000
vn 1.000000 0.000015 0.000000
vn 1.000000 0.000015 0.000000
vn 1.000000 0.000015 0.000000
vn 1.000000 0.000003 0.000000
vn 1.000000 0.000003 0.000000
vn 1.000000 0.000003 0.000000
vn 1.000000 0.000003 0.000000
vn -1.000000 -0.000000 0.000000
vn -1.000000 -0.000000 0.000000
vn -1.000000 -0.000000 0.000000
vn -1.000000 -0.000000 0.000000
vn 0.000000 0.000000 1.000000
vn 0.000000 0.000000 1.000000
vn 0.000000 0.000000 1.000000
vn 0.000000 0.000000 1.000000
vn -1.000000 0.000000 0.000000
vn -1.000000 0.000000 0.000000
vn -1.000000 0.000000 0.000000
vn -1.000000 0.000000 0.000000
vn 0.000000 0.000000 1.000000
vn 0.000000 0.000000 1.000000
vn 0.000000 0.000000 1.000000
vn 0.000000 0.000000 1.000000
vn 1.000000 0.000000 0.000000
vn 1.000000 0.000000 0.000000
vn 1.000000 0.000000 0.000000
vn 1.000000 0.000000 0.000000
vn 0.000000 0.000000 1.000000
vn 0.000000 0.000000 1.000000
vn 0.000000 0.000000 1.000000
vn 0.000000 0.000000 1.000000
vn 0.752759 0.000000 0.658296
vn 0.752759 0.000000 0.658296
vn -0.748633 0.000000 0.662985
vn -0.748633 0.000000 0.662985
vn -1.000000 0.000000 0.000000
vn 0.000000 0.000000 1.000000
vn 0.000000 0.000000 1.000000
vn 0.000000 0.000000 1.000000
vn 0.000000 0.000000 1.000000
vn 1.000000 0.000000 0.000000
vn 1.000000 0.000000 0.000000
vn 0.000000 0.000000 1.000000
vn 0.000000 0.000000 1.000000
vn 0.000000 0.000000 1.000000
vn 0.000000 0.000000 1.000000
vn -1.000000 0.000000 0.000000
vn 0.000000 0.000000 -1.000000
vn 0.000000 0.000000 -1.000000
vn -0.688835 0.000000 -0.724919
vn -0.727690 0.000000 -0.685906
vn 0.727698 0.000000 -0.685898
vn 0.688843 0.000000 -0.724911
vn -0.000000 0.000000 -1.000000
vn -0.000000 0.000000 -1.000000
vn -0.000000 0.000000 -1.000000
vn -0.000000 0.000000 -1.000000
vn 0.000000 -0.739570 -0.673079
vn 0.000000 -0.739571 -0.673079
vn -0.000000 0.000000 -1.000000
vn -0.000000 0.000000 -1.000000
vn -0.000000 0.000000 -1.000000
vn -0.000000 0.000000 -1.000000
vn -0.000000 0.576002 -0.817448
vn 0.000000 0.000000 -1.000000
vn 0.000000 0.000000 -1.000000
vn -0.000000 0.576002 -0.817448
vn -1.000000 0.000000 0.000000
vn -1.000000 0.000000 0.000000
vn -0.000000 1.000000 0.000000
vn -0.000000 1.000000 0.000000
vn 1.000000 0.000000 0.000000
vn 1.000000 0.000000 0.000000
vn 0.000000 -1.000000 0.000000
vn 0.000000 -1.000000 0.000000
vn -0.000000 0.000000 -1.000000
vn -0.000000 0.000000 -1.000000
vn 0.000000 0.000000 -1.000000
vn 0.000000 0.000000 -1.000000
vn 0.000000 0.000000 -1.000000
vn 0.000000 0.000000 -1.000000
vn -0.000000 0.000000 -1.000000
vn -0.000000 0.000000 -1.000000
vn 0.000000 -1.000000 0.000000
vn 0.000000 -1.000000 0.000000
vn 0.000000 -1.000000 0.000000
vn 0.000000 -1.000000 0.000000
vn 1.000000 0.000000 0.000000
vn 1.000000 0.000000 0.000000
vn 1.000000 0.000000 0.000000
vn 1.000000 0.000000 0.000000
vn 0.000000 1.000000 0.000000
vn 0.000000 1.000000 0.000000
vn 0.000000 1.000000 0.000000
vn 0.000000 1.000000 0.000000
vn -1.000000 0.000000 0.000000
vn -1.000000 0.000000 0.000000
vn -1.000000 0.000000 0.000000
vn -1.000000 0.000000 0.000000
vn 0.000000 0.000000 -1.000000
vn 0.000000 0.725414 -0.688313
vn 0.000000 0.725414 -0.688313
vn 0.000000 0.000000 -1.000000
vn 0.000000 1.000000 0.000000
vn 0.000000 1.000000 0.000000
vn 0.000000 1.000000 0.000000
vn 0.000000 1.000000 0.000000
vn 0.000000 -1.000000 0.000000
vn 0.000000 -0.718094 -0.695946
vn 0.000000 -0.718094 -0.695946
vn 0.000000 -1.000000 0.000000
vn 0.000000 -1.000000 0.000000
vn 0.000000 -1.000000 0.000000
vn 1.000000 0.000000 0.000000
vn 1.000000 0.000000 0.000000
vn 1.000000 0.000000 0.000000
vn 1.000000 0.000000 0.000000
vn -1.000000 0.000000 0.000000
vn -1.000000 0.000002 0.000000
vn -1.000000 0.000002 0.000000
vn -1.000000 0.000000 0.000000
vn -1.000000 -0.000000 0.000000
vn -1.000000 -0.000000 0.000000
vn 0.000000 0.000000 -1.000000
vn 0.000000 0.000000 -1.000000
vn 1.000000 0.000000 0.000000
vn 1.000000 0.000000 0.000000
vn -1.000000 -0.000002 0.000000
vn -1.000000 -0.000002 0.000000
vn 1.000000 0.000000 0.000000
vn 1.000000 0.000000 0.000000
vn 0.000000 0.000000 1.000000
vn 0.000000 0.000000 1.000000
vn 0.000000 1.000000 0.000000
vn 0.000000 1.000000 0.000000
g BuildingA_Top_Wall_Long_VarA_LOD0 BuildingA_Top_Wall_Long_VarA
usemtl BuildingA_Bottom_Wall_Long_VarA_LOD0SG3
f 2/5/1 107/141/2 108/142/3 1/6/4
f 4/1/5 105/139/6 106/140/7 3/2/8
f 8/8/9 109/143/10 110/144/11 7/7/12
usemtl BuildingA_Bottom_Corner_LOD0SG2
f 20/9/13 25/10/14 26/11/15 19/12/16
f 23/13/17 24/14/18 27/15/19 28/16/20
f 21/17/21 22/18/22 18/19/23 15/20/24
f 16/21/25 15/20/24 18/19/23 17/22/26
f 17/22/26 20/9/13 19/12/16 16/21/25
f 14/23/27 29/24/28 30/25/29 13/26/30
f 10/27/31 24/14/18 23/13/17 9/28/32
f 26/11/15 25/10/14 10/27/31 9/28/32
f 28/16/20 27/15/19 12/29/33 11/30/34
f 30/25/29 29/24/28 22/18/22 21/17/21
f 35/31/35 36/32/36 33/33/37 34/34/38
f 32/35/39 33/33/40 36/32/41 37/36/42
f 31/37/43 32/35/44 37/36/45 38/38/46
f 28/39/47 11/30/48 32/35/49 31/37/50
f 11/30/34 12/29/33 33/33/40 32/35/39
f 34/34/51 33/33/52 12/29/53 27/40/54
f 29/41/55 14/42/56 36/32/57 35/31/58
f 37/36/42 36/32/41 14/42/27 13/43/30
f 38/38/59 37/36/60 13/43/61 30/44/62
usemtl BuildingA_Bottom_Corner_LOD0SG
f 46/45/63 59/46/64 60/47/65 49/48/66
f 62/49/67 63/50/68 66/51/69 61/52/70
usemtl BuildingA_Bottom_Wall_Long_VarA_LOD0SG2
f 79/53/71 80/54/72 81/55/73 82/56/74
usemtl BuildingA_Bottom_Corner_LOD0SG
f 56/57/75 65/58/76 64/59/77 55/60/78
f 54/61/79 57/62/80 58/63/81 48/64/82
f 53/65/83 56/57/75 55/60/78 47/66/84
f 57/62/80 53/65/83 47/66/84 58/63/81
f 59/46/64 45/67/85 50/68/86 60/47/65
f 45/67/85 62/49/67 61/52/70 50/68/86
f 44/69/87 63/50/68 62/49/67
f 43/70/88 64/71/89 63/72/90 44/73/91
f 55/60/78 64/59/77 43/74/92
f 56/57/75 52/75/93 65/58/76
f 66/76/94 65/77/95 52/78/96 51/79/97
f 61/52/70 66/51/69 51/80/98
usemtl BuildingA_Bottom_Corner_LOD0SG1
f 76/81/99 77/82/100 67/83/101 68/84/102
f 69/85/103 70/86/104 78/87/105 75/88/106
f 75/88/107 76/81/108 68/84/109 69/85/110
usemtl BuildingA_Bottom_Wall_Long_VarA_LOD0SG2
f 72/89/111 71/90/112 73/91/113 74/92/114
usemtl BuildingA_Bottom_Corner_LOD0SG1
f 67/83/115 77/82/116 78/87/117 70/86/118
f 68/84/102 67/83/101 71/93/119 72/94/120
f 67/83/115 70/86/118 73/95/121 71/96/122
f 70/86/104 69/85/103 74/97/123 73/98/124
f 69/85/110 68/84/109 72/99/125 74/100/126
f 41/101/127 76/81/108 75/88/107 40/102/128
f 42/103/129 77/82/100 76/81/99 41/101/130
f 78/87/117 77/82/116 42/103/131 39/104/132
f 75/88/106 78/87/105 39/104/133 40/102/134
usemtl BuildingA_Bottom_Corner_LOD0SG
f 63/72/135 64/71/136 80/105/137 79/106/138
f 64/59/139 65/58/140 81/107/141 80/108/142
f 65/77/143 66/76/144 82/109/145 81/110/146
f 66/51/147 63/50/148 79/111/149 82/112/150
usemtl BuildingA_Bottom_Wall_Long_VarA_LOD0SG3
f 96/113/151 85/116/152 86/115/153 97/114/154
f 91/117/155 87/120/156 88/119/157 92/118/158
f 93/121/159 83/124/160 84/123/161 94/122/162
f 85/116/152 91/117/155 92/118/158 86/115/153
f 89/125/163 93/121/159 94/122/162 90/126/164
f 97/114/165 86/115/166 92/128/167 98/127/168
f 95/129/169 91/130/170 85/116/171 96/113/172
f 99/131/173 95/129/169 96/113/172 100/132/174
f 100/132/175 96/113/151 97/114/154 101/133/176
f 101/133/177 97/114/165 98/127/168 102/134/178
f 93/135/179 99/131/173 100/132/174 83/124/180
f 84/123/161 83/124/160 100/132/175 101/133/176
f 84/123/181 101/133/177 102/134/178 94/136/182
f 104/138/183 103/137/184 4/1/5 3/2/8
f 106/140/7 105/139/6 6/3/185 5/4/186
f 108/142/3 107/141/2 103/137/184 104/138/183
f 110/144/11 109/143/10 2/5/1 1/6/4
