# This file uses meters as units for non-parametric coordinates.

mtllib BuildingA_Bottom_Wall_Short_VarC_LOD0.mtl
g default
v 0.000012 0.000000 -63.278839
v 0.000012 400.000000 -63.278839
v 400.000000 400.000000 -63.278839
v 400.000000 0.000000 -63.278839
v 60.405380 400.000000 -18.129299
v 339.594238 400.000000 -18.129299
v 339.594238 400.000000 0.000000
v 400.000000 400.000000 0.000000
v 60.405380 400.000000 0.000000
v 0.000013 400.000000 0.000000
v 400.000000 0.000004 0.000000
v 339.594238 0.000004 0.000000
v 339.594238 0.000004 -18.129299
v 60.405434 0.000004 -18.129299
v 60.405434 0.000004 0.000000
v 0.000017 -0.000004 0.000000
v 60.405437 177.404022 -8.422253
v 339.594238 177.404022 -8.422253
v 60.405437 177.404022 -64.719635
v 339.594238 177.404022 -64.719635
v 60.405437 159.471802 -64.719635
v 339.594238 159.471802 -64.719635
v 60.405437 159.471802 -15.069923
v 60.405437 166.119476 -8.422253
v 339.594238 166.119476 -8.422253
v 339.594238 159.471802 -15.069923
v 0.000017 0.000000 3.258097
v 63.506542 0.000000 3.258097
v 0.000017 50.000000 3.258097
v 63.506542 50.000000 3.258097
v 0.000017 50.000000 -22.778170
v 63.506542 50.000000 -22.778170
v 63.506542 0.000000 -22.778170
v 60.811909 0.000000 3.258097
v 60.811909 50.000000 3.258097
v 60.811909 50.000000 -22.778170
v 0.000017 50.000000 0.426027
v 60.811909 50.000000 0.426027
v 63.506542 50.000000 0.426027
v 63.506542 0.000000 0.426027
v 0.000017 47.141350 3.258097
v 60.811909 47.141350 3.258097
v 63.506542 47.141350 3.258097
v 63.506542 47.141365 0.426027
v 63.506542 47.141365 -22.778170
v 400.000000 0.000000 3.258097
v 336.493469 0.000000 3.258097
v 400.000000 50.000000 3.258097
v 336.493469 50.000000 3.258097
v 400.000000 50.000000 -22.778172
v 336.493469 50.000000 -22.778172
v 336.493469 0.000000 -22.778172
v 339.188110 0.000000 3.258097
v 339.188110 50.000000 3.258097
v 339.188110 50.000000 -22.778172
v 400.000000 50.000000 0.426027
v 339.188110 50.000000 0.426027
v 336.493469 50.000000 0.426027
v 336.493469 0.000000 0.426027
v 400.000000 47.141350 3.258097
v 339.188110 47.141350 3.258097
v 336.493469 47.141350 3.258097
v 336.493469 47.141365 0.426027
v 336.493469 47.141365 -22.778172
v 60.405380 400.000000 -4.752802
v 60.405434 0.000004 -4.752802
v 56.249050 0.000004 0.000000
v 56.249001 400.000000 0.000000
v 343.750610 400.000000 0.000000
v 343.750610 0.000004 0.000000
v 339.594238 0.000004 -4.693312
v 339.594238 400.000000 -4.693312
v 60.405437 168.322739 -8.422253
v 339.594238 168.322739 -8.422253
v 60.405437 159.471802 -17.500645
v 339.594238 159.471802 -17.500645
v 60.405437 177.404022 -11.235945
v 339.594238 177.404022 -11.235945
v 339.594238 174.030777 -8.422253
v 60.405437 174.030777 -8.422253
v 339.594238 316.348846 -18.129299
v 60.405384 316.348846 -18.129299
v 60.405426 168.483826 -18.129299
v 339.594238 168.483826 -18.129299
v 60.405373 168.483826 -63.278831
v 60.405373 316.348846 -63.278831
v 339.594238 168.483826 -63.278831
v 339.594238 316.348846 -63.278831
v 339.594238 168.483826 -59.778831
v 339.594238 316.348846 -59.778831
v 60.405373 168.483826 -59.778831
v 60.405373 316.348846 -59.778831
v 58.656372 318.037781 -63.278831
v 341.274567 318.037750 -63.278831
v 341.274567 165.815567 -63.278831
v 58.656372 165.815552 -63.278831
v 339.594238 168.483826 -61.306244
v 60.405373 168.483826 -61.306244
v 60.405373 316.348846 -61.306244
v 339.594238 316.348846 -61.306244
v 339.594238 316.348846 -21.629299
v 60.405384 316.348846 -21.629299
v 60.405426 168.483826 -21.629299
v 339.594238 168.483826 -21.629299
v 339.594238 177.404022 -63.042702
v 60.405437 177.404007 -63.042679
v 339.594238 159.471802 -63.088943
v 60.405437 159.471802 -63.088921
v 60.405437 175.361099 -63.047943
v 60.405437 175.361099 -64.719635
v 339.594238 175.361099 -64.719635
v 339.594238 175.361099 -63.047966
v 339.594208 161.281479 -63.084274
v 339.594208 161.281479 -64.719635
v 60.405437 161.281479 -64.719635
v 60.405437 161.281479 -63.084259
vt -4.545305 -1.254398
vt -0.614996 -1.254398
vt -0.614997 -0.501476
vt -4.545306 -0.501476
vt -0.614997 -1.294008
vt -4.545306 -1.294008
vt -4.545304 -1.619433
vt -0.614997 -1.619433
vt -0.614998 -1.585214
vt -4.545305 -1.585214
vt -0.615001 -2.284161
vt -4.545301 -2.284161
vt -0.614997 -1.421852
vt -0.614997 -1.341496
vt -4.545306 -1.341496
vt -4.545306 -1.421852
vt -0.614997 -1.452868
vt -4.545306 -1.452869
vt -0.711681 0.304462
vt -0.690567 0.304462
vt -0.690567 0.475850
vt -0.711681 0.475850
vt -0.690567 0.283545
vt -0.711681 0.283545
vt -0.342378 0.304463
vt -0.342378 0.475850
vt -0.342378 0.283545
vt -1.120789 0.308572
vt -1.120789 0.479959
vt -1.141903 0.479959
vt -1.141903 0.308572
vt -1.490092 0.479959
vt -1.490092 0.308572
vt -1.141903 0.287654
vt -1.120789 0.287654
vt -1.490092 0.287654
vt -0.732599 -0.185518
vt -0.732599 0.263642
vt -0.903986 0.263642
vt -0.903986 -0.185518
vt -0.711681 -0.185518
vt -0.711681 0.263642
vt -0.732599 0.283545
vt -0.903986 0.283545
vt -1.099871 -0.181409
vt -0.928483 -0.181409
vt -0.928483 0.267751
vt -1.099871 0.267751
vt -0.928483 0.287654
vt -1.099871 0.287654
vt -1.120789 -0.181409
vt -1.120789 0.267751
vt -0.690567 -0.185518
vt -0.690567 0.263642
vt -0.342378 -0.185518
vt -0.342378 0.263642
vt -1.141903 -0.181409
vt -1.141903 0.267751
vt -1.490092 -0.181409
vt -1.490092 0.267751
vt -0.904009 -0.778031
vt 0.896549 -0.777524
vt 0.896070 1.023066
vt -0.904544 1.022560
vt -0.067565 1.000001
vt -0.111212 0.728260
vt -0.111212 0.247919
vt -0.067565 -0.299401
vt -0.111212 1.000001
vt -0.111212 -0.299401
vt -0.052319 1.000001
vt -0.052319 -0.299401
vt 0.355576 -0.299401
vt 0.399030 0.247919
vt 0.399030 0.728260
vt 0.355576 1.000001
vt 0.399029 -0.299401
vt 0.399030 1.000001
vt 0.340136 -0.299402
vt 0.340137 1.000001
vt 2.160172 0.627840
vt 1.264374 0.627840
vt 2.160172 -0.662095
vt 1.264374 -0.662096
vt 2.160173 -0.121503
vt 1.264372 -0.121503
vt 2.160174 0.359439
vt 1.264371 0.359439
vt 0.143910 1.000001
vt -0.038817 1.000001
vt -0.038817 -0.299401
vt 0.143909 -0.299401
vt 0.143909 -0.299401
vt 0.326634 -0.299401
vt 0.326634 1.000001
vt 0.143910 1.000001
vt 0.624437 -0.019166
vt 0.624252 0.646421
vt -0.632323 -0.019520
vt -0.632513 0.646066
vt 2.080870 0.814674
vt -0.632328 -0.003765
vt 0.608684 -0.019169
vt 0.624256 0.630665
vt 1.156421 0.814674
vt -0.616758 0.646069
vt 1.156421 1.310985
vt 2.080870 1.310985
vt 0.608497 0.646415
vt 0.624433 -0.003410
vt -0.632508 0.630311
vt -0.616569 -0.019515
vt 0.628557 0.652386
vt -0.636821 0.652029
vt -0.636625 -0.031533
vt 0.628747 -0.031176
vt -0.623444 -0.019517
vt -0.632326 -0.010640
vt 0.624435 -0.010286
vt 0.615559 -0.019168
vt 0.615373 0.646417
vt 0.624254 0.637541
vt -0.632510 0.637186
vt -0.623633 0.646068
vt 3.682205 1.184909
vt 2.804481 1.184909
vt 2.804481 0.720046
vt 3.682206 0.720046
vt 0.410399 0.247920
vt 0.410399 0.728260
vt -0.122582 0.728259
vt -0.122582 0.247919
vt 1.264371 0.348209
vt 2.160174 0.348209
vt 2.160173 -0.110272
vt 1.264372 -0.110273
vt -0.614997 -0.525083
vt -4.545306 -0.525083
vt -0.615001 -2.261204
vt -4.545301 -2.261204
vt -0.592040 -0.249033
vt -0.614997 -0.249033
vt -0.591390 -0.501476
vt -4.568913 -0.501475
vt -4.545305 -0.249033
vt -4.568263 -0.249033
vt -4.568839 -0.472716
vt -4.545306 -0.472717
vt -0.614997 -0.472716
vt -0.591464 -0.472716
vt -0.591974 -0.274509
vt -0.614997 -0.274509
vt -4.545305 -0.274509
vt -4.568328 -0.274509
vn 0.000000 0.000000 1.000000
vn 0.000000 0.000000 1.000000
vn 0.000000 0.000000 1.000000
vn 0.000000 0.000000 1.000000
vn -1.000000 0.000000 0.000000
vn -1.000000 0.000000 0.000000
vn -1.000000 0.000000 0.000000
vn -1.000000 0.000000 0.000000
vn 0.000000 0.000000 1.000000
vn 0.000000 0.000000 1.000000
vn 0.000000 0.000000 1.000000
vn 0.000000 0.000000 1.000000
vn 1.000000 0.000000 0.000000
vn 1.000000 0.000000 0.000000
vn 1.000000 0.000000 0.000000
vn 1.000000 0.000000 0.000000
vn 0.000000 0.000000 1.000000
vn 0.000000 0.000000 1.000000
vn 0.000000 0.000000 1.000000
vn 0.000000 0.000000 1.000000
vn 0.000000 0.000000 1.000000
vn 0.000000 0.000000 1.000000
vn 0.000000 0.000000 1.000000
vn 0.000000 0.000000 1.000000
vn -0.000000 1.000000 0.000000
vn -0.000000 1.000000 0.000000
vn -0.000000 1.000000 0.000000
vn -0.000000 1.000000 0.000000
vn 0.000000 -1.000000 0.000000
vn 0.000000 -1.000000 0.000000
vn 0.000000 -0.806821 0.590797
vn 0.000000 -0.806821 0.590797
vn 0.000000 -0.600547 0.799589
vn 0.000000 -0.600547 0.799589
vn 0.000000 0.000000 1.000000
vn 0.000000 0.000000 1.000000
vn 0.000000 0.703796 0.710402
vn 0.000000 0.703797 0.710402
vn 0.000000 1.000000 0.000000
vn 0.000000 1.000000 0.000000
vn 0.000000 1.000000 0.000000
vn 0.000000 1.000000 0.000000
vn 0.727673 0.685925 0.000000
vn 1.000000 0.000000 0.000000
vn 1.000000 0.000000 0.000000
vn 0.727673 0.685925 0.000000
vn 0.724468 0.000000 0.689309
vn 0.598272 0.563947 0.569240
vn 0.000000 0.000000 1.000000
vn 0.000000 0.000000 1.000000
vn 0.724467 0.000000 0.689310
vn 1.000000 0.000000 0.000000
vn 1.000000 0.000000 0.000000
vn 0.000000 0.000000 1.000000
vn 0.000000 0.703797 0.710402
vn 0.000000 0.703797 0.710402
vn 0.000000 0.000000 1.000000
vn 0.000000 1.000000 0.000000
vn 0.000000 1.000000 0.000000
vn 0.000000 1.000000 0.000000
vn 0.000000 1.000000 0.000000
vn -0.727672 0.685925 0.000000
vn -0.727672 0.685925 0.000000
vn -1.000000 0.000000 0.000000
vn -1.000000 0.000000 0.000000
vn -0.598271 0.563948 0.569241
vn -0.724467 0.000000 0.689310
vn 0.000000 0.000000 1.000000
vn 0.000000 0.000000 1.000000
vn -0.724466 0.000000 0.689311
vn -1.000000 0.000000 0.000000
vn -1.000000 0.000000 0.000000
vn 0.752759 0.000000 0.658296
vn 0.752759 0.000000 0.658297
vn -0.748633 0.000000 0.662985
vn -0.748633 0.000000 0.662985
vn 0.000000 -0.669420 -0.742884
vn 0.000000 -1.000000 0.000000
vn 0.000000 -1.000000 0.000000
vn 0.000000 -0.669416 -0.742887
vn 0.000000 0.640540 0.767924
vn 0.000000 0.640540 0.767924
vn -1.000000 0.000000 0.000000
vn 0.000000 0.000000 1.000000
vn 0.000000 0.000000 1.000000
vn 0.000000 0.000000 1.000000
vn 0.000000 0.000000 1.000000
vn 1.000000 0.000000 0.000000
vn 1.000000 0.000000 0.000000
vn 0.000000 0.000000 1.000000
vn 0.000000 0.000000 1.000000
vn 0.000000 0.000000 1.000000
vn 0.000000 0.000000 1.000000
vn -1.000000 0.000000 0.000000
vn 0.000000 0.000000 -1.000000
vn 0.000000 0.000000 -1.000000
vn -0.575908 0.000000 -0.817514
vn -0.610303 0.000000 -0.792168
vn 0.598207 0.000000 -0.801342
vn 0.563222 0.000000 -0.826305
vn 0.000000 0.000000 -1.000000
vn 0.000000 0.000000 -1.000000
vn 0.000000 0.475930 -0.879483
vn 0.000000 0.000000 -1.000000
vn 0.000000 0.000000 -1.000000
vn 0.000000 0.472804 -0.881168
vn 0.000000 0.000000 -1.000000
vn 0.000000 0.000000 -1.000000
vn 0.000000 0.000000 -1.000000
vn 0.000000 0.000000 -1.000000
vn 0.000000 -0.000000 -1.000000
vn 0.000000 -0.000000 -1.000000
vn 0.000000 -0.612436 -0.790520
vn 0.000000 -0.609194 -0.793022
vn -1.000000 0.000000 0.000000
vn -1.000000 0.000000 0.000000
vn -1.000000 0.000000 0.000000
vn -1.000000 0.000000 0.000000
vn 0.000000 1.000000 0.000000
vn 0.000000 1.000000 0.000000
vn 0.000000 1.000000 0.000000
vn 0.000000 1.000000 0.000000
vn 1.000000 0.000000 0.000000
vn 1.000000 0.000000 0.000000
vn 1.000000 0.000000 0.000000
vn 1.000000 0.000000 0.000000
vn 0.000000 -1.000000 0.000000
vn 0.000000 -1.000000 0.000000
vn 0.000000 -1.000000 0.000000
vn 0.000000 -1.000000 0.000000
vn 0.000000 -0.000000 -1.000000
vn 0.000000 -0.000000 -1.000000
vn 0.000000 0.000000 -1.000000
vn 0.000000 0.000000 -1.000000
vn 0.000000 0.000000 -1.000000
vn 0.000000 0.000000 -1.000000
vn 0.000000 0.000000 -1.000000
vn 0.000000 0.000000 -1.000000
vn 0.000000 1.000000 0.000000
vn 0.000000 1.000000 0.000000
vn 1.000000 0.000000 0.000000
vn 1.000000 0.000000 0.000000
vn 0.000000 -1.000000 0.000000
vn 0.000000 -1.000000 0.000000
vn -1.000000 0.000000 0.000000
vn -1.000000 0.000000 0.000000
vn 0.000000 -1.000000 0.000000
vn 0.000000 -1.000000 0.000000
vn 0.000000 -1.000000 0.000000
vn 0.000000 -1.000000 0.000000
vn 1.000000 0.000000 0.000000
vn 1.000000 0.000000 0.000000
vn 1.000000 0.000000 0.000000
vn 1.000000 0.000000 0.000000
vn 0.000000 1.000000 0.000000
vn 0.000000 1.000000 0.000000
vn 0.000000 1.000000 0.000000
vn 0.000000 1.000000 0.000000
vn -1.000000 0.000000 0.000000
vn -1.000000 0.000000 0.000000
vn -1.000000 0.000000 0.000000
vn -1.000000 0.000000 0.000000
vn -0.000000 0.634474 -0.772945
vn -0.000000 0.634474 -0.772945
vn 1.000000 -0.000002 0.000000
vn 1.000000 -0.000002 0.000000
vn 1.000000 -0.000002 0.000000
vn 1.000000 -0.000002 0.000000
vn 0.000000 0.000000 -1.000000
vn 0.000000 0.000000 -1.000000
vn 0.000000 0.000000 -1.000000
vn 0.000000 0.000000 -1.000000
vn -1.000000 0.000000 0.000000
vn -1.000000 0.000000 0.000000
vn -1.000000 0.000000 0.000000
vn -1.000000 0.000000 0.000000
vn -1.000000 0.000001 0.000000
vn -1.000000 0.000001 0.000000
vn -1.000000 0.000001 0.000000
vn -1.000000 0.000001 0.000000
vn 1.000000 0.000000 0.000000
vn 1.000000 0.000000 0.000000
vn 1.000000 0.000000 0.000000
vn 1.000000 0.000000 0.000000
vn 1.000000 0.000020 0.000000
vn 1.000000 0.000020 0.000000
vn 1.000000 0.000020 0.000000
vn 1.000000 0.000020 0.000000
vn -1.000000 -0.000002 0.000000
vn -1.000000 -0.000002 0.000000
vn -1.000000 -0.000002 0.000000
vn -1.000000 -0.000002 0.000000
g BuildingA_Bottom_Wall_Short_VarC_LOD0 BuildingA_Bottom_Wall_Short_VarC
usemtl BuildingA_Bottom_Corner_LOD0SG
f 8/89/1 69/90/2 70/91/3 11/92/4
f 72/65/5 81/66/6 84/67/7 71/68/8
usemtl BuildingA_Bottom_Wall_Long_VarA_LOD0SG2
f 101/125/9 102/126/10 103/127/11 104/128/12
usemtl BuildingA_Bottom_Corner_LOD0SG
f 66/73/13 83/74/14 82/75/15 65/76/16
f 16/93/17 67/94/18 68/95/19 10/96/20
usemtl BuildingA_Bottom_Corner_LOD0SG2
f 74/13/21 79/14/22 80/15/23 73/16/24
f 77/1/25 78/2/26 105/137/27 106/138/28
f 75/7/29 76/8/30 26/9/31 23/10/32
f 24/18/33 23/10/32 26/9/31 25/17/34
f 41/53/35 42/54/36 35/42/37 29/41/38
f 37/37/39 38/38/40 36/39/41 31/40/42
f 39/19/43 44/20/44 45/21/45 32/22/46
f 35/42/37 42/54/36 43/23/47 30/24/48
f 36/39/41 38/38/40 39/43/43 32/44/46
f 29/41/38 35/42/37 38/38/40 37/37/39
f 39/43/43 38/38/40 35/42/37 30/24/48
f 43/23/47 44/20/44 39/19/43 30/24/48
f 27/55/49 34/56/50 42/54/36 41/53/35
f 43/23/47 42/54/36 34/56/50 28/27/51
f 28/27/51 40/25/52 44/20/44 43/23/47
f 45/21/45 44/20/44 40/25/52 33/26/53
f 60/57/54 48/51/55 54/52/56 61/58/57
f 56/45/58 50/46/59 55/47/60 57/48/61
f 58/28/62 51/29/63 64/30/64 63/31/65
f 54/52/56 49/35/66 62/34/67 61/58/57
f 55/47/60 51/49/63 58/50/62 57/48/61
f 48/51/55 56/45/58 57/48/61 54/52/56
f 58/50/62 49/35/66 54/52/56 57/48/61
f 62/34/67 49/35/66 58/28/62 63/31/65
f 46/59/68 60/57/54 61/58/57 53/60/69
f 62/34/67 47/36/70 53/60/69 61/58/57
f 47/36/70 62/34/67 63/31/65 59/33/71
f 64/30/64 52/32/72 59/33/71 63/31/65
usemtl BuildingA_Bottom_Corner_LOD0SG
f 15/79/73 66/73/13 65/76/16 9/80/74
f 67/94/18 15/79/73 9/80/74 68/95/19
f 69/90/2 7/71/75 12/72/76 70/91/3
f 7/71/75 72/65/5 71/68/8 12/72/76
usemtl BuildingA_Bottom_Corner_LOD0SG2
f 25/17/34 74/13/21 73/16/24 24/18/33
f 22/11/77 107/139/78 108/140/79 21/12/80
f 18/5/81 78/2/26 77/1/25 17/6/82
f 80/15/23 79/14/22 18/5/81 17/6/82
usemtl BuildingA_Bottom_Corner_LOD0SG
f 6/69/83 81/66/6 72/65/5
f 5/82/84 82/88/85 81/87/86 6/81/87
f 65/76/16 82/75/15 5/78/88
f 66/73/13 14/77/89 83/74/14
f 84/85/90 83/86/91 14/84/92 13/83/93
f 71/68/8 84/67/7 13/70/94
usemtl BuildingA_Bottom_Corner_LOD0SG1
f 94/114/95 95/115/96 87/99/97 88/100/98
f 86/98/99 85/97/100 96/116/101 93/113/102
f 87/99/103 95/115/104 96/116/105 85/97/106
usemtl BuildingA_Bottom_Wall_Long_VarA_LOD0SG2
f 90/101/107 89/108/108 91/107/109 92/105/110
usemtl BuildingA_Bottom_Corner_LOD0SG1
f 93/113/111 94/114/112 88/100/113 86/98/114
f 100/124/115 97/117/116 89/112/117 90/106/118
f 97/118/119 98/119/120 91/110/121 89/102/122
f 98/120/123 99/121/124 92/109/125 91/103/126
f 99/122/127 100/123/128 90/111/129 92/104/130
f 3/64/131 94/114/112 93/113/111 2/63/132
f 4/61/133 95/115/96 94/114/95 3/64/134
f 96/116/105 95/115/104 4/61/135 1/62/136
f 93/113/102 96/116/101 1/62/137 2/63/138
f 87/99/103 85/97/106 98/119/139 97/118/140
f 85/97/100 86/98/99 99/121/141 98/120/142
f 86/98/114 88/100/113 100/123/143 99/122/144
f 88/100/98 87/99/97 97/117/145 100/124/146
usemtl BuildingA_Bottom_Corner_LOD0SG
f 81/87/147 82/88/148 102/133/149 101/134/150
f 82/75/151 83/74/152 103/129/153 102/130/154
f 83/86/155 84/85/156 104/135/157 103/136/158
f 84/67/159 81/66/160 101/131/161 104/132/162
usemtl BuildingA_Bottom_Corner_LOD0SG2
f 106/138/28 105/137/27 20/3/163 19/4/164
f 108/140/79 107/139/78 76/8/30 75/7/29
f 113/151/165 114/152/166 111/149/167 112/150/168
f 110/148/169 111/149/170 114/152/171 115/153/172
f 109/147/173 110/148/174 115/153/175 116/154/176
f 106/144/177 19/4/178 110/148/179 109/147/180
f 19/4/164 20/3/163 111/149/170 110/148/169
f 112/150/181 111/149/182 20/3/183 105/143/184
f 107/141/185 22/142/186 114/152/187 113/151/188
f 115/153/172 114/152/171 22/142/77 21/145/80
f 116/154/189 115/153/190 21/145/191 108/146/192
