# This file uses meters as units for non-parametric coordinates.

mtllib BuildingA_Bottom_Wall_Short_VarA_LOD0.mtl
g default
v 60.405437 329.104218 -11.063156
v 339.594238 329.104218 -11.063156
v 60.405437 357.044800 -11.063156
v 339.594238 357.044800 -11.063156
v 60.405437 357.044800 -27.683994
v 339.594238 357.044800 -27.683994
v 60.405437 329.104218 -27.683994
v 339.594238 329.104218 -27.683994
v 60.405437 357.044800 -13.947171
v 339.594238 357.044800 -13.947171
v 60.405437 354.456787 -11.063156
v 339.594238 354.456787 -11.063156
v 60.405437 331.480194 -11.063156
v 339.594238 331.480194 -11.063156
v 60.405437 329.104218 -13.429517
v 339.594238 329.104218 -13.429517
v 0.000015 0.000000 -63.278843
v 0.000015 400.000000 -63.278843
v 400.000000 400.000000 -63.278843
v 400.000000 0.000000 -63.278843
v 60.405384 400.000000 -18.129299
v 339.594238 400.000000 -18.129299
v 339.594238 400.000000 0.000000
v 400.000000 400.000000 0.000000
v 60.405384 400.000000 0.000000
v 0.000015 400.000000 0.000000
v 400.000000 0.000004 0.000000
v 339.594238 0.000004 0.000000
v 339.594238 0.000004 -18.129299
v 60.405437 0.000004 -18.129299
v 60.405437 0.000004 0.000000
v 0.000019 -0.000004 0.000000
v 0.000019 0.000000 3.258097
v 63.506542 0.000000 3.258097
v 0.000019 50.000000 3.258097
v 63.506542 50.000000 3.258097
v 0.000019 50.000000 -22.778170
v 63.506542 50.000000 -22.778170
v 63.506542 0.000000 -22.778170
v 60.811909 0.000000 3.258097
v 60.811909 50.000000 3.258097
v 60.811909 50.000000 -22.778170
v 0.000019 50.000000 0.426027
v 60.811909 50.000000 0.426027
v 63.506542 50.000000 0.426027
v 63.506542 0.000000 0.426027
v 0.000019 47.141350 3.258097
v 60.811909 47.141350 3.258097
v 63.506542 47.141350 3.258097
v 63.506542 47.141365 0.426027
v 63.506542 47.141365 -22.778170
v 400.000000 0.000000 3.258097
v 336.493469 0.000000 3.258097
v 400.000000 50.000000 3.258097
v 336.493469 50.000000 3.258097
v 400.000000 50.000000 -22.778172
v 336.493469 50.000000 -22.778172
v 336.493469 0.000000 -22.778172
v 339.188110 0.000000 3.258097
v 339.188110 50.000000 3.258097
v 339.188110 50.000000 -22.778172
v 400.000000 50.000000 0.426027
v 339.188110 50.000000 0.426027
v 336.493469 50.000000 0.426027
v 336.493469 0.000000 0.426027
v 400.000000 47.141350 3.258097
v 339.188110 47.141350 3.258097
v 336.493469 47.141350 3.258097
v 336.493469 47.141365 0.426027
v 336.493469 47.141365 -22.778172
v 60.405384 400.000000 -4.752802
v 60.405437 0.000004 -4.752802
v 56.249050 0.000004 0.000000
v 56.249001 400.000000 0.000000
v 343.750610 400.000000 0.000000
v 343.750610 0.000004 0.000000
v 339.594238 0.000004 -4.693312
v 339.594238 400.000000 -4.693312
v 339.594238 342.294556 -18.129299
v 60.405384 342.294556 -18.129299
v 60.405453 101.590691 -18.129295
v 339.594238 101.590683 -18.129299
v 60.405437 110.482201 -8.422253
v 339.594269 110.482201 -8.422253
v 60.405437 92.549980 -15.069923
v 60.405437 99.197655 -8.422253
v 339.594269 99.197655 -8.422253
v 339.594269 92.549980 -15.069923
v 60.405437 101.400909 -8.422253
v 339.594269 101.400909 -8.422253
v 60.405437 92.549980 -17.500645
v 339.594269 92.549980 -17.500645
v 60.405437 110.482201 -11.235945
v 339.594269 110.482201 -11.235945
v 339.594269 107.108948 -8.422253
v 60.405437 107.108948 -8.422253
v 339.594269 110.482201 -65.414429
v 60.405437 110.482193 -65.414429
v 60.405437 92.549980 -65.414429
v 339.594269 92.549980 -65.414429
v 60.405384 342.294556 -63.278843
v 339.594238 342.294556 -63.278843
v 60.405384 101.590683 -63.278843
v 339.594238 101.590706 -63.278843
v 60.405384 342.294556 -59.778839
v 339.594238 342.294556 -59.778839
v 339.594238 101.590706 -59.778839
v 60.405384 101.590683 -59.778839
v 58.091015 344.505493 -63.278843
v 341.908661 344.505524 -63.278843
v 341.908661 97.698303 -63.278843
v 58.090981 97.698280 -63.278843
v 60.405380 342.294556 -60.944504
v 339.594238 342.294556 -60.944504
v 339.594238 101.590691 -60.944504
v 60.405380 101.590683 -60.944504
v 60.405453 101.590691 -21.629295
v 339.594238 101.590683 -21.629299
v 339.594238 342.294556 -21.629299
v 60.405384 342.294556 -21.629299
v 60.405437 329.104218 -65.888412
v 339.594238 329.104218 -65.888412
v 60.405437 357.044800 -65.888412
v 339.594238 357.044800 -65.888412
v 60.405437 357.044800 -49.267570
v 339.594238 357.044800 -49.267570
v 60.405437 329.104218 -49.267570
v 339.594238 329.104218 -49.267570
v 60.405437 357.044800 -63.004391
v 339.594238 357.044800 -63.004391
v 60.405437 329.104218 -63.113342
v 339.594238 329.104218 -63.113342
v 60.405437 354.634674 -63.013790
v 60.405437 354.634674 -65.888412
v 339.594238 354.634674 -65.888412
v 339.594238 354.634674 -63.013790
v 60.405434 331.825500 -63.102734
v 60.405437 331.825500 -65.888412
v 339.594238 331.825500 -65.888412
v 339.594238 331.825500 -63.102734
v 339.594269 110.482201 -62.995956
v 60.405437 110.482193 -62.995953
v 339.594269 92.549980 -62.883141
v 60.405437 92.549980 -62.883144
v 60.405437 108.522270 -62.983620
v 60.405437 108.522270 -65.414429
v 339.594269 108.522270 -65.414429
v 339.594269 108.522270 -62.983627
v 339.594269 94.692696 -62.896614
v 339.594269 94.692696 -65.414429
v 60.405434 94.692696 -65.414429
v 60.405434 94.692696 -62.896626
vt 0.047597 -0.688065
vt -0.988612 -0.688065
vt -0.988612 -0.697670
vt 0.047597 -0.697670
vt 0.047597 -0.708374
vt -0.988612 -0.708374
vt -0.988612 -0.759358
vt 0.047597 -0.759358
vt 0.047597 -0.585186
vt -0.988612 -0.585186
vt -0.988612 -0.593969
vt 0.047597 -0.593969
vt 0.047597 -0.602787
vt -0.988612 -0.602787
vt 0.047597 -0.532281
vt -0.988612 -0.532281
vt 0.143912 1.000000
vt -0.039011 1.000000
vt -0.039010 -0.300797
vt 0.143913 -0.300797
vt -0.067790 1.000000
vt -0.111483 0.807546
vt -0.111483 0.034372
vt -0.067789 -0.300797
vt -1.802130 -0.209273
vt -0.989965 -0.209273
vt -0.989965 0.490938
vt -1.802130 0.490938
vt 0.355805 -0.300796
vt 0.399305 0.034372
vt 0.399306 0.807546
vt 0.355806 1.000000
vt 0.143911 -0.300796
vt 0.326832 -0.300796
vt 0.326833 1.000000
vt 0.143912 1.000000
vt 2.374139 -0.068039
vt 2.374139 0.443955
vt 2.350214 0.443955
vt 2.350214 -0.068039
vt 2.326416 -0.068039
vt 2.326416 0.443955
vt 2.131113 0.443955
vt 2.131113 -0.068039
vt 2.349692 0.490644
vt 2.374139 0.490644
vt 2.374139 0.686268
vt 2.349692 0.686269
vt 2.374139 0.466741
vt 2.350214 0.466740
vt 2.326416 0.466328
vt 2.131113 0.466328
vt 2.771355 -0.068039
vt 2.771355 0.443955
vt 2.771355 0.466741
vt 2.771355 0.490644
vt 2.771355 0.686268
vt 1.737399 -0.034923
vt 1.762367 -0.034923
vt 1.762366 0.496210
vt 1.737399 0.496210
vt 1.787102 -0.034923
vt 1.989768 -0.034923
vt 1.989768 0.496210
vt 1.787102 0.496210
vt 1.762366 0.544480
vt 1.762366 0.747146
vt 1.737399 0.747146
vt 1.737399 0.544480
vt 1.762366 0.519745
vt 1.737399 0.519745
vt 1.989767 0.519745
vt 1.787101 0.519745
vt 1.325665 -0.034923
vt 1.325665 0.496209
vt 1.325665 0.519745
vt 1.325665 0.544480
vt 1.325665 0.747146
vt 0.340348 -0.300796
vt 0.340350 1.000000
vt -0.052527 1.000000
vt -0.052526 -0.300797
vt -0.111483 1.000000
vt 0.399306 1.000000
vt 0.399305 -0.300796
vt -1.802129 -0.504802
vt -0.989965 -0.504802
vt -0.989960 -0.209274
vt -1.802134 -0.209275
vt -0.111483 -0.300798
vt -1.802130 0.658804
vt -1.802131 0.490939
vt -0.989964 0.490939
vt -0.989965 0.658805
vt 1.995450 -0.695218
vt 1.995453 -0.343438
vt 0.182686 -0.343437
vt 0.182688 -0.695217
vt 1.995448 -0.772451
vt 1.995449 -0.735389
vt 0.182688 -0.735389
vt 0.182689 -0.772450
vt 0.182688 -0.863580
vt 1.995451 -0.863580
vt 1.995450 -0.847798
vt 0.182688 -0.847798
vt 0.182689 -0.786756
vt 1.995448 -0.786756
vt 0.182688 -0.227003
vt 1.995446 -1.174681
vt 1.995450 -0.713486
vt 0.182688 -0.713487
vt -1.052414 0.825161
vt 0.474487 0.825161
vt 0.486902 0.846077
vt -1.065276 0.846077
vt -1.065276 -0.502343
vt 0.486902 -0.502343
vt 0.474487 -0.490272
vt -1.052414 -0.490272
vt -0.728005 -0.219118
vt 0.147444 -0.219118
vt 0.147444 0.535655
vt -0.728005 0.535655
vt -1.046075 -0.483585
vt 0.467924 -0.483585
vt 0.464750 -0.480310
vt -1.043171 -0.480310
vt 0.467924 0.818432
vt 0.464750 0.815009
vt -1.046075 0.818432
vt -1.043171 0.815009
vt 0.804047 -0.806421
vt -1.383045 -0.806421
vt 0.804047 1.381387
vt -1.383045 1.381387
vt -0.989960 -0.199092
vt -1.802134 -0.199093
vt -0.122586 0.802749
vt -0.122586 0.039168
vt -1.802132 0.480757
vt -0.989964 0.480757
vt 0.410408 0.039169
vt 0.410409 0.802750
vt 0.056009 -0.688947
vt -0.980220 -0.688881
vt -0.980221 -0.697819
vt 0.056010 -0.697899
vt 0.056008 -0.708606
vt -0.980221 -0.708519
vt -0.980227 -0.759486
vt 0.056000 -0.759597
vt 0.055999 -0.583819
vt -0.980212 -0.583906
vt -0.980213 -0.594203
vt 0.056002 -0.594122
vt 0.055989 -0.532411
vt -0.980217 -0.532525
vt 0.066709 -0.688955
vt 0.066745 -0.697908
vt -0.990883 -0.688850
vt -0.990919 -0.697781
vt 0.066365 -0.604224
vt 0.056002 -0.604229
vt -0.980214 -0.604295
vt -0.990541 -0.604322
vt 0.066324 -0.594115
vt -0.990500 -0.594237
vt 1.995454 -0.359141
vt 0.166990 -0.343437
vt 2.011895 -0.227004
vt 0.182691 -1.158246
vt 1.995447 -0.227003
vt 0.166244 -0.227004
vt 0.182692 -1.174682
vt 0.182685 -0.359141
vt 2.011147 -0.343438
vt 1.995446 -1.158246
vt 0.166908 -0.330712
vt 0.182686 -0.330712
vt 1.995453 -0.330712
vt 2.011229 -0.330712
vt 2.011805 -0.240916
vt 1.995448 -0.240916
vt 0.182688 -0.240916
vt 0.166333 -0.240916
vn 0.000000 0.000000 1.000000
vn 0.000000 0.000000 1.000000
vn 0.000000 0.744267 0.667882
vn 0.000000 0.744267 0.667882
vn 0.000000 1.000000 0.000000
vn 0.000000 1.000000 0.000000
vn 0.000000 1.000000 0.000000
vn 0.000000 1.000000 0.000000
vn 0.000000 -1.000000 0.000000
vn 0.000000 -1.000000 0.000000
vn 0.000000 -0.705673 0.708538
vn 0.000000 -0.705673 0.708538
vn 0.000000 0.000000 1.000000
vn 0.000000 0.000000 1.000000
vn 0.000000 -1.000000 0.000000
vn 0.000000 -1.000000 0.000000
vn 0.000000 0.000000 1.000000
vn 0.000000 0.000000 1.000000
vn 0.000000 0.000000 1.000000
vn 0.000000 0.000000 1.000000
vn -1.000000 0.000000 0.000000
vn -1.000000 0.000000 0.000000
vn -1.000000 0.000000 0.000000
vn -1.000000 0.000000 0.000000
vn 0.000000 0.000000 1.000000
vn 0.000000 0.000000 1.000000
vn 0.000000 0.000000 1.000000
vn 0.000000 0.000000 1.000000
vn 1.000000 0.000000 0.000000
vn 1.000000 0.000000 0.000001
vn 1.000000 0.000000 0.000001
vn 1.000000 0.000000 0.000000
vn 0.000000 0.000000 1.000000
vn 0.000000 0.000000 1.000000
vn 0.000000 0.000000 1.000000
vn 0.000000 0.000000 1.000000
vn 0.000000 0.000000 1.000000
vn 0.000000 0.000000 1.000000
vn 0.000000 0.703796 0.710402
vn 0.000000 0.703796 0.710402
vn 0.000000 1.000000 0.000000
vn 0.000000 1.000000 0.000000
vn 0.000000 1.000000 0.000000
vn 0.000000 1.000000 0.000000
vn 0.727673 0.685925 0.000000
vn 1.000000 0.000000 0.000000
vn 1.000000 0.000000 0.000000
vn 0.727673 0.685925 0.000000
vn 0.724468 0.000000 0.689309
vn 0.598272 0.563947 0.569240
vn 0.000000 0.000000 1.000000
vn 0.000000 0.000000 1.000000
vn 0.724467 0.000000 0.689310
vn 1.000000 0.000000 0.000000
vn 1.000000 0.000000 0.000000
vn 0.000000 0.000000 1.000000
vn 0.000000 0.703797 0.710402
vn 0.000000 0.703797 0.710402
vn 0.000000 0.000000 1.000000
vn 0.000000 1.000000 0.000000
vn 0.000000 1.000000 0.000000
vn 0.000000 1.000000 0.000000
vn 0.000000 1.000000 0.000000
vn -0.727672 0.685925 0.000000
vn -0.727672 0.685925 0.000000
vn -1.000000 0.000000 0.000000
vn -1.000000 0.000000 0.000000
vn -0.598271 0.563948 0.569241
vn -0.724467 0.000000 0.689310
vn 0.000000 0.000000 1.000000
vn 0.000000 0.000000 1.000000
vn -0.724466 0.000000 0.689311
vn -1.000000 0.000000 0.000000
vn -1.000000 0.000000 0.000000
vn 0.752758 0.000000 0.658297
vn 0.752758 0.000000 0.658297
vn -0.748633 0.000000 0.662985
vn -0.748633 0.000000 0.662985
vn -1.000000 0.000000 0.000000
vn 1.000000 0.000000 0.000000
vn 1.000000 -0.000000 0.000000
vn 0.000000 -0.000000 1.000000
vn 0.000000 -0.000000 1.000000
vn 0.000000 -0.000000 1.000000
vn 0.000000 -0.000000 1.000000
vn -1.000000 0.000000 0.000000
vn 0.000000 0.000000 1.000000
vn 0.000000 0.000000 1.000000
vn 0.000000 0.000000 1.000000
vn 0.000000 0.000000 1.000000
vn -0.000000 1.000000 -0.000000
vn -0.000000 1.000000 -0.000000
vn -0.000000 1.000000 -0.000000
vn -0.000000 1.000000 -0.000000
vn 0.000000 0.000000 1.000000
vn 0.000000 0.000000 1.000000
vn 0.000000 0.000000 1.000000
vn 0.000000 0.000000 1.000000
vn 0.000000 -1.000000 0.000000
vn 0.000000 -1.000000 0.000000
vn 0.000000 -0.806821 0.590796
vn 0.000000 -0.806821 0.590796
vn 0.000000 -0.600548 0.799589
vn 0.000000 -0.600548 0.799589
vn 0.000000 -0.763258 -0.646094
vn 0.000000 -0.763259 -0.646093
vn 0.000000 -1.000000 0.000000
vn 0.000000 -1.000000 0.000000
vn 0.000000 0.640540 0.767925
vn 0.000000 0.640540 0.767925
vn -0.000000 0.405321 -0.914174
vn -0.000000 0.405320 -0.914175
vn 0.000000 0.000000 -1.000000
vn 0.000000 0.000000 -1.000000
vn 0.000000 0.000000 -1.000000
vn 0.000000 0.000000 -1.000000
vn 0.000000 -0.568692 -0.822551
vn 0.000000 -0.568693 -0.822550
vn -0.000000 0.000000 -1.000000
vn -0.000000 0.000000 -1.000000
vn 0.556903 0.000000 -0.830577
vn 0.514838 0.000000 -0.857287
vn 0.000000 0.000000 -1.000000
vn 0.000000 0.000000 -1.000000
vn 0.000000 0.000000 -1.000000
vn 0.000000 0.000000 -1.000000
vn 0.000000 0.000000 -1.000000
vn 0.000000 0.000000 -1.000000
vn -0.514834 0.000000 -0.857290
vn -0.556897 0.000000 -0.830581
vn 0.000000 -1.000000 -0.000000
vn 0.000000 -1.000000 0.000000
vn 0.000000 -1.000000 0.000004
vn 0.000000 -1.000000 0.000004
vn -1.000000 0.000000 0.000000
vn -1.000000 0.000000 0.000000
vn -1.000000 0.000000 0.000000
vn -1.000000 0.000000 0.000000
vn -0.000000 1.000000 0.000000
vn -0.000000 1.000000 0.000000
vn -0.000000 1.000000 -0.000018
vn -0.000000 1.000000 -0.000018
vn 1.000000 0.000000 0.000000
vn 1.000000 0.000000 0.000000
vn 1.000000 0.000000 -0.000003
vn 1.000000 0.000000 -0.000003
vn 0.000000 0.000000 -1.000000
vn 0.000000 0.000000 -1.000000
vn 0.000000 0.000000 -1.000000
vn 0.000000 0.000000 -1.000000
vn 0.000000 0.000000 -1.000000
vn 0.000000 0.000000 -1.000000
vn -0.000000 0.000000 -1.000000
vn -0.000000 0.000000 -1.000000
vn 0.000000 1.000000 0.000000
vn 0.000000 1.000000 0.000000
vn 0.000000 1.000000 0.000000
vn 0.000000 1.000000 0.000000
vn -1.000000 0.000000 0.000000
vn -1.000000 0.000000 0.000000
vn -1.000000 0.000000 0.000000
vn -1.000000 0.000000 0.000000
vn 0.000000 -1.000000 0.000000
vn 0.000000 -1.000000 0.000000
vn 0.000000 -1.000000 0.000000
vn 0.000000 -1.000000 0.000000
vn 1.000000 0.000000 0.000000
vn 1.000000 0.000000 0.000000
vn 1.000000 0.000000 0.000000
vn 1.000000 0.000000 0.000000
vn 0.000000 0.000000 -1.000000
vn 0.000000 0.767333 -0.641249
vn 0.000000 0.767333 -0.641249
vn 0.000000 0.000000 -1.000000
vn 0.000000 1.000000 0.000000
vn 0.000000 1.000000 0.000000
vn 0.000000 1.000000 0.000000
vn 0.000000 1.000000 0.000000
vn 0.000000 -1.000000 0.000000
vn 0.000000 -0.713993 -0.700153
vn 0.000000 -0.713993 -0.700153
vn 0.000000 -1.000000 0.000000
vn 0.000000 -1.000000 0.000000
vn 0.000000 -1.000000 0.000000
vn -1.000000 0.000000 0.000000
vn -1.000000 0.000000 0.000000
vn -1.000000 0.000000 0.000000
vn -1.000000 0.000000 0.000000
vn 1.000000 0.000009 0.000000
vn 1.000000 0.000009 0.000000
vn 1.000000 0.000009 0.000000
vn 1.000000 0.000009 0.000000
vn -1.000000 0.000000 -0.000001
vn -1.000000 0.000000 -0.000001
vn -1.000000 0.000000 -0.000001
vn -1.000000 0.000000 -0.000001
vn 0.000000 0.000000 -1.000000
vn 0.000000 0.000000 -1.000000
vn 1.000000 0.000000 0.000000
vn 1.000000 0.000000 0.000000
vn 1.000000 0.000000 0.000000
vn 1.000000 0.000000 0.000000
vn -1.000000 -0.000002 -0.000001
vn -1.000000 -0.000002 -0.000001
vn -1.000000 -0.000002 -0.000001
vn -1.000000 -0.000002 -0.000001
vn 1.000000 0.000000 0.000000
vn 1.000000 0.000000 0.000000
vn 1.000000 0.000000 0.000000
vn 1.000000 0.000000 0.000000
vn -0.000000 0.776913 -0.629608
vn -0.000000 0.776913 -0.629608
vn 1.000000 -0.000000 0.000000
vn 1.000000 -0.000000 0.000000
vn 1.000000 -0.000000 0.000000
vn 1.000000 -0.000000 0.000000
vn -1.000000 0.000000 0.000000
vn -1.000000 0.000000 0.000000
vn -1.000000 0.000000 0.000000
vn -1.000000 0.000000 0.000000
vn 0.000000 0.000000 -1.000000
vn 0.000000 0.000000 -1.000000
vn 0.000000 0.000000 -1.000000
vn 0.000000 0.000000 -1.000000
vn -1.000000 0.000002 0.000000
vn -1.000000 0.000002 0.000000
vn -1.000000 0.000002 0.000000
vn -1.000000 0.000002 0.000000
vn 1.000000 -0.000001 0.000000
vn 1.000000 -0.000001 0.000000
vn 1.000000 -0.000001 0.000000
vn 1.000000 -0.000001 0.000000
vn 1.000000 0.000006 0.000000
vn 1.000000 0.000006 0.000000
vn 1.000000 0.000006 0.000000
vn 1.000000 0.000006 0.000000
vn -1.000000 -0.000002 0.000000
vn -1.000000 -0.000002 0.000000
vn -1.000000 -0.000002 0.000000
vn -1.000000 -0.000002 0.000000
g BuildingA_Bottom_Wall_Short_VarA_LOD0 BuildingA_Bottom_Wall_Short_VarA
usemtl BuildingA_Bottom_Wall_Long_VarA_LOD0SG3
f 11/1/1 12/2/2 4/3/3 3/4/4
f 9/5/5 10/6/6 6/7/7 5/8/8
f 15/9/9 16/10/10 2/11/11 1/12/12
f 3/4/4 4/3/3 10/6/6 9/5/5
f 13/13/13 14/14/14 12/2/2 11/1/1
f 1/12/12 2/11/11 14/14/14 13/13/13
f 7/15/15 8/16/16 16/10/10 15/9/9
usemtl BuildingA_Bottom_Corner_LOD0SG
f 24/17/17 75/18/18 76/19/19 27/20/20
f 78/21/21 79/22/22 82/23/23 77/24/24
usemtl BuildingA_Bottom_Wall_Long_VarA_LOD0SG2
f 117/25/25 118/26/26 119/27/27 120/28/28
usemtl BuildingA_Bottom_Corner_LOD0SG
f 72/29/29 81/30/30 80/31/31 71/32/32
f 32/33/33 73/34/34 74/35/35 26/36/36
usemtl BuildingA_Bottom_Corner_LOD0SG2
f 47/37/37 48/38/38 41/39/39 35/40/40
f 43/41/41 44/42/42 42/43/43 37/44/44
f 45/45/45 50/46/46 51/47/47 38/48/48
f 41/39/39 48/38/38 49/49/49 36/50/50
f 42/43/43 44/42/42 45/51/45 38/52/48
f 35/40/40 41/39/39 44/42/42 43/41/41
f 45/51/45 44/42/42 41/39/39 36/50/50
f 49/49/49 50/46/46 45/45/45 36/50/50
f 33/53/51 40/54/52 48/38/38 47/37/37
f 49/49/49 48/38/38 40/54/52 34/55/53
f 34/55/53 46/56/54 50/46/46 49/49/49
f 51/47/47 50/46/46 46/56/54 39/57/55
f 66/58/56 54/59/57 60/60/58 67/61/59
f 62/62/60 56/63/61 61/64/62 63/65/63
f 64/66/64 57/67/65 70/68/66 69/69/67
f 60/60/58 55/70/68 68/71/69 67/61/59
f 61/64/62 57/72/65 64/73/64 63/65/63
f 54/59/57 62/62/60 63/65/63 60/60/58
f 64/73/64 55/70/68 60/60/58 63/65/63
f 68/71/69 55/70/68 64/66/64 69/69/67
f 52/74/70 66/58/56 67/61/59 59/75/71
f 68/71/69 53/76/72 59/75/71 67/61/59
f 53/76/72 68/71/69 69/69/67 65/77/73
f 70/68/66 58/78/74 65/77/73 69/69/67
usemtl BuildingA_Bottom_Corner_LOD0SG
f 31/79/75 72/29/29 71/32/32 25/80/76
f 73/34/34 31/79/75 25/80/76 74/35/35
f 75/18/18 23/81/77 28/82/78 76/19/19
f 23/81/77 78/21/21 77/24/24 28/82/78
f 22/83/79 79/22/22 78/21/21
f 71/32/32 80/31/31 21/84/80
f 72/29/29 30/85/81 81/30/30
f 30/86/82 29/87/83 82/88/84 81/89/85
f 77/24/24 82/23/23 29/90/86
f 21/91/87 80/92/88 79/93/89 22/94/90
usemtl BuildingA_Bottom_Corner_LOD0SG2
f 94/95/91 141/169/92 142/176/93 93/98/94
f 90/99/95 95/100/96 96/101/97 89/102/98
f 91/103/99 92/104/100 88/105/101 85/106/102
f 86/107/103 85/106/102 88/105/101 87/108/104
f 87/108/104 90/99/95 89/102/98 86/107/103
f 99/175/105 100/110/106 143/178/107 144/172/108
f 84/111/109 94/95/91 93/98/94 83/112/110
f 96/101/97 95/100/96 84/111/109 83/112/110
usemtl BuildingA_Bottom_Corner_LOD0SG1
f 103/113/111 104/114/112 111/115/113 112/116/114
f 109/117/115 110/118/116 102/119/117 101/120/118
f 112/116/119 109/117/120 101/120/121 103/113/122
usemtl BuildingA_Bottom_Wall_Long_VarA_LOD0SG2
f 105/121/123 106/122/124 107/123/125 108/124/126
usemtl BuildingA_Bottom_Corner_LOD0SG1
f 110/118/127 111/115/128 104/114/129 102/119/130
f 113/125/131 114/126/132 106/127/133 105/128/134
f 114/126/135 115/129/136 107/130/137 106/127/138
f 115/129/139 116/131/140 108/132/141 107/130/142
f 116/131/143 113/125/144 105/128/145 108/132/146
f 19/133/147 110/118/116 109/117/115 18/134/148
f 20/135/149 111/115/128 110/118/127 19/133/150
f 112/116/114 111/115/113 20/135/151 17/136/152
f 18/134/153 109/117/120 112/116/119 17/136/154
f 101/120/118 102/119/117 114/126/132 113/125/131
f 102/119/130 104/114/129 115/129/136 114/126/135
f 104/114/112 103/113/111 116/131/140 115/129/139
f 103/113/122 101/120/121 113/125/144 116/131/143
usemtl BuildingA_Bottom_Corner_LOD0SG
f 81/89/155 82/88/156 118/137/157 117/138/158
f 82/23/159 79/22/160 119/139/161 118/140/162
f 79/93/163 80/92/164 120/141/165 119/142/166
f 80/31/167 81/30/168 117/143/169 120/144/170
usemtl BuildingA_Bottom_Wall_Long_VarA_LOD0SG3
f 134/145/171 123/148/172 124/147/173 135/146/174
f 129/149/175 125/152/176 126/151/177 130/150/178
f 131/153/179 121/156/180 122/155/181 132/154/182
f 123/148/172 129/149/175 130/150/178 124/147/173
f 127/157/183 131/153/179 132/154/182 128/158/184
f 133/159/185 129/160/186 123/148/187 134/145/188
f 135/146/189 124/147/190 130/162/191 136/161/192
f 137/163/193 133/159/194 134/145/195 138/164/196
f 138/164/197 134/145/171 135/146/174 139/165/198
f 139/165/199 135/146/200 136/161/201 140/166/202
f 131/167/203 137/163/204 138/164/205 121/156/206
f 122/155/181 121/156/180 138/164/197 139/165/198
f 122/155/207 139/165/208 140/166/209 132/168/210
usemtl BuildingA_Bottom_Corner_LOD0SG2
f 142/176/93 141/169/92 97/96/211 98/97/212
f 144/172/108 143/178/107 92/104/100 91/103/99
f 149/183/213 150/184/214 147/181/215 148/182/216
f 145/179/217 146/180/218 151/185/219 152/186/220
f 146/180/221 147/181/222 150/184/223 151/185/224
f 142/170/225 98/97/226 146/180/227 145/179/228
f 98/97/212 97/96/211 147/181/222 146/180/221
f 148/182/229 147/181/230 97/96/231 141/177/232
f 143/171/233 100/173/234 150/184/235 149/183/236
f 151/185/224 150/184/223 100/173/106 99/109/105
f 152/186/237 151/185/238 99/109/239 144/174/240
