# This file uses meters as units for non-parametric coordinates.

mtllib BuildingA_Ledge_Corner_LOD0.mtl
g default
v 0.000000 0.000000 -67.648071
v 0.000000 52.471527 -67.648071
v 65.148010 52.471527 -67.648087
v 0.000000 52.471527 3.435791
v 65.148010 52.471527 3.435791
v 0.000000 0.000000 3.435791
v 65.148010 26.235779 3.435791
v 65.148010 26.235779 -67.648087
v 403.435822 26.235779 3.435791
v 332.351929 26.235779 -67.648094
v 403.435822 0.000000 3.435791
v 332.351929 0.000000 -67.648094
v 403.435822 0.000000 -400.000092
v 403.435822 52.471527 -400.000092
v 403.435791 52.471527 -334.852020
v 332.351929 52.471527 -400.000061
v 332.351929 52.471527 -334.852020
v 332.351929 0.000000 -400.000061
v 332.351929 26.235779 -334.852020
v 403.435791 26.235779 -334.852020
v 400.630524 52.471527 -400.000061
v 400.630524 52.471527 -334.852020
v 400.630524 26.235779 -334.852020
v 400.630524 26.235779 0.630517
v 65.148041 26.235779 0.630524
v 65.148010 52.471527 0.630524
v 0.000000 52.471527 0.630524
v 403.435822 49.155334 -400.000092
v 403.435791 49.155334 -334.852020
v 400.630524 49.155334 -334.852020
v 332.351929 49.155334 -334.852020
v 332.351929 49.155334 -400.000061
v 335.998505 52.471527 -400.000061
v 335.998505 52.471527 -334.852020
v 335.998505 49.155334 -334.852020
v 335.998505 26.235779 -334.852020
v 334.930450 26.235779 -65.069572
v 65.148010 26.235779 -64.001495
v 65.148010 52.471527 -64.001495
v 0.000000 52.471527 -64.001495
v 61.773926 52.471527 -67.648071
v 61.773926 52.471588 -64.001495
v 61.773926 52.471588 0.630524
v 61.773930 52.471527 3.435791
v 61.773930 22.822815 3.435791
v 403.435822 22.822815 3.435791
v 403.435791 22.822815 -338.226074
v 403.435791 49.155334 -338.226105
v 403.435791 52.471527 -338.226105
v 400.630524 52.471527 -338.226105
v 335.998505 52.471527 -338.226105
v 332.351929 52.471527 -338.226105
v 332.351929 49.155334 -338.226074
v 332.351929 22.822754 -338.226105
v 332.351929 22.822754 -67.648094
v 61.773926 22.822754 -67.648071
v 0.000000 3.098114 3.435791
v 403.435822 3.019897 3.435791
v 403.435822 3.063690 -400.000092
v 332.351929 3.074036 -400.000061
v 332.351929 3.019897 -67.648094
v 0.000000 3.093018 -67.648071
v 399.678162 26.235779 3.435791
v 396.872894 26.235779 0.630517
v 331.172821 26.235779 -65.054695
v 328.594269 26.235779 -67.648094
v 328.594299 22.822754 -67.648087
v 328.594299 3.020752 -67.648094
v 328.594299 0.000000 -67.648094
v 399.678162 0.000000 3.435790
v 399.678162 3.020660 3.435790
v 399.678162 22.822815 3.435791
v 403.435852 26.235779 -0.627401
v 403.435852 22.822815 -0.627401
v 403.435822 3.020386 -0.627396
v 403.435822 0.000000 -0.627396
v 332.351929 0.000000 -71.711288
v 332.351929 3.020569 -71.711288
v 332.351929 22.822754 -71.711288
v 332.351929 26.235779 -71.711288
v 334.946533 26.235779 -69.132744
v 400.630554 26.235779 -3.432675
v 0.000000 0.000061 -0.658997
v 395.583374 0.000000 -0.658998
v 399.341003 0.000061 -0.659004
v 399.341034 0.000061 -4.722189
v 399.341003 0.000000 -400.000061
v 336.184784 0.000061 -400.000061
v 336.184784 0.000000 -67.878441
v 336.184784 0.000000 -63.815247
v 332.427124 0.000061 -63.815247
v 0.000000 0.000000 -63.815247
v 0.000000 49.071686 3.435791
v 61.773930 49.071686 3.435791
v 65.148010 49.071686 3.435791
v 65.148010 49.071686 0.630524
v 65.148010 49.071686 -64.001495
v 65.148010 49.071686 -67.648087
v 61.773926 49.071686 -67.648071
v 0.000000 49.071686 -67.648071
vt -0.176692 1.403409
vt -0.416502 0.810240
vt 0.061521 0.809616
vt 0.062300 1.403079
vt -0.173414 3.837658
vt -0.412422 3.837973
vt 1.506904 0.783486
vt 1.746555 0.190214
vt 1.985565 0.190468
vt 1.984933 0.783995
vt 1.510815 -2.891992
vt 1.749835 -2.891738
vt -1.370749 0.809725
vt -1.370749 1.457385
vt -1.609789 1.457385
vt -1.609789 0.809725
vt -1.052282 0.809725
vt -0.458704 0.809725
vt -0.458704 1.457385
vt -1.052282 1.457385
vt -2.748428 0.136228
vt -2.748427 0.783886
vt 0.279701 0.136227
vt 0.927359 0.783888
vt 0.279700 -2.891903
vt 0.927357 -2.891904
vt 3.698810 3.244277
vt 3.698810 3.891937
vt 0.616595 3.891912
vt 1.264258 3.244276
vt 0.616598 0.809725
vt 1.264258 0.809725
vt -2.243081 0.809725
vt -1.649503 0.809725
vt -1.649503 1.457385
vt -2.243081 1.457385
vt -1.091995 0.809725
vt -1.091995 1.457385
vt -1.331035 1.457385
vt -1.331035 0.809725
vt 1.215971 -2.298264
vt 0.976253 -2.891438
vt 1.454339 -2.891260
vt 1.454330 -2.299073
vt 1.219998 0.783736
vt 0.980967 0.784042
vt 0.575448 0.810462
vt 0.335466 1.403509
vt 0.096497 1.403098
vt 0.097458 0.809688
vt 0.570374 3.837931
vt 0.331387 3.837539
vt -1.649503 0.835284
vt -1.370749 0.835284
vt -2.243081 0.835284
vt -1.609789 0.835284
vt 0.642157 0.809725
vt 0.642155 3.866352
vt -1.331035 1.431825
vt 3.698810 3.866378
vt -1.091995 1.431825
vt -1.052282 1.431825
vt -0.458704 1.431825
vt 1.424174 -2.891232
vt -1.400964 0.809725
vt 1.424231 -2.298783
vt -1.400964 0.835284
vt -1.400964 1.457385
vt 0.126688 1.403153
vt 0.127666 0.809739
vt -1.649503 1.424160
vt -1.370749 1.424160
vt -2.243081 1.424160
vt -1.400964 1.424160
vt -1.609789 1.424160
vt 1.231033 0.809725
vt 1.240764 3.267769
vt -1.331035 0.842949
vt 3.698810 3.277502
vt -1.091995 0.842949
vt -1.052282 0.842949
vt -0.458704 0.842949
vt 0.062270 1.372345
vt -1.021540 0.809725
vt -1.021540 0.842949
vt -1.021540 1.431825
vt -1.021540 1.457385
vt 1.985533 0.221207
vt 1.715429 0.220920
vt 1.188904 0.783776
vt 1.718741 -2.891771
vt 1.184844 -2.328953
vt 1.424198 -2.329386
vt 1.454318 -2.329386
vt -2.212339 0.809725
vt -2.212339 0.835284
vt -2.212339 1.424160
vt -2.212339 1.457385
vt 0.096546 1.372369
vt 0.126751 1.372421
vt 0.366607 1.372826
vt 0.362477 3.837590
vt -0.204506 3.837699
vt -0.207827 1.372714
vt 1.535129 0.783516
vt 1.008481 0.784007
vt 1.538328 -2.891963
vt 1.004186 -2.891427
vt 0.547444 0.810417
vt 0.542865 3.837887
vt -0.384911 3.837936
vt -0.388324 0.810203
vt 0.650832 3.891912
vt 1.749799 -2.857504
vt 0.676391 3.866352
vt 1.275001 3.267905
vt -0.173460 3.803425
vt 1.298494 3.244276
vt -0.204553 3.803467
vt -0.384950 3.803705
vt 0.245464 0.136227
vt -0.412469 3.803741
vt 1.510779 -2.857759
vt 0.893122 0.783888
vt 1.538298 -2.857729
vt 1.718705 -2.857537
vt 1.219950 0.746718
vt 0.616595 3.854891
vt 1.188855 0.746758
vt 1.008438 0.746990
vt 0.927359 0.746867
vt 0.980919 0.747025
vt 0.570436 3.800919
vt 0.279701 0.099206
vt 0.542921 3.800874
vt 0.362539 3.800578
vt 1.264258 3.207256
vt 0.331449 3.800527
vt 1.240618 3.230749
vt 0.642155 3.829332
vt -2.748428 0.746578
vt 0.855814 0.746579
vt 0.890051 0.746579
vt 0.890051 0.709559
vt 0.890048 -2.891904
vt 0.314622 -2.891903
vt 0.314623 0.134128
vt 0.314623 0.171149
vt 0.280386 0.171149
vt -2.748428 0.171150
vt 1.953960 0.783962
vt 1.954560 0.221174
vt -1.122972 1.457385
vt 1.954592 0.190435
vt -1.122972 1.431825
vt -1.122972 0.842949
vt -1.122972 0.809725
vt 0.031330 1.403122
vt 0.031298 1.372387
vt 0.030548 0.809657
vn 0.709796 0.704407 0.000000
vn 0.000000 1.000000 0.000000
vn -0.000000 0.636434 0.771331
vn 0.539831 0.535735 0.649285
vn 0.712269 0.000000 -0.701907
vn 0.000000 0.000000 -1.000000
vn -0.000000 0.731416 -0.681932
vn 0.593286 0.588785 -0.548948
vn -0.000000 0.636434 0.771331
vn -0.000000 0.000000 1.000000
vn 0.615346 0.000000 0.788257
vn 0.539831 0.535735 0.649285
vn 0.709796 0.704407 0.000000
vn 0.539831 0.535735 0.649285
vn 0.615346 0.000000 0.788257
vn 1.000000 0.000001 0.000000
vn 0.000000 1.000000 0.000000
vn 0.000000 0.478035 0.878341
vn 0.000000 0.384346 0.923189
vn 0.000000 1.000000 0.000000
vn 0.000000 0.478035 0.878341
vn 0.000000 -0.000000 1.000000
vn 0.000000 -0.000000 1.000000
vn 0.000000 0.384346 0.923189
vn -0.000000 -0.799623 0.600502
vn 0.000000 -1.000000 -0.000000
vn -0.000000 -1.000000 -0.000001
vn 0.000000 -0.561389 0.827552
vn -0.000000 0.000000 -1.000000
vn -0.000000 0.000000 -1.000000
vn 0.000000 0.521070 -0.853514
vn 0.000000 0.804568 -0.593861
vn 0.644577 0.545268 0.535914
vn 0.763471 0.645842 0.000000
vn 0.000000 1.000000 0.000000
vn -0.000000 0.713196 0.700965
vn 0.889167 0.000000 0.457583
vn 1.000000 0.000000 -0.000000
vn 1.000000 0.000000 -0.000000
vn 0.788256 0.000000 0.615348
vn -1.000000 0.000000 -0.000000
vn -1.000000 0.000000 -0.000000
vn -0.831172 0.000000 0.556015
vn -0.701907 0.000000 0.712268
vn 0.788256 0.000000 0.615348
vn -0.000000 0.000000 1.000000
vn -0.000000 0.000000 1.000000
vn 0.889167 0.000000 0.457583
vn -0.853469 0.521143 -0.000000
vn -1.000000 0.000000 -0.000000
vn -1.000000 0.000000 -0.000000
vn -0.594141 0.804361 -0.000000
vn 0.000001 -1.000000 0.000000
vn 0.000000 -1.000000 0.000000
vn 0.598324 -0.801254 0.000000
vn 0.825687 -0.564129 0.000000
vn 1.000000 0.000000 -0.000000
vn 1.000000 0.000000 -0.000000
vn 0.878340 0.478036 -0.000000
vn 0.922947 0.384927 -0.000000
vn 0.878340 0.478036 -0.000000
vn 0.000000 1.000000 0.000000
vn 0.000000 1.000000 0.000000
vn 0.922947 0.384927 -0.000000
vn -0.000000 0.713196 0.700965
vn 0.000000 1.000000 0.000000
vn 0.000000 1.000000 0.000000
vn -0.000000 0.713196 0.700965
vn -0.000000 0.000000 1.000000
vn -0.000000 0.000000 1.000000
vn -0.000000 0.000000 1.000000
vn -0.000000 0.000000 1.000000
vn 0.000000 1.000000 0.000000
vn 0.000000 1.000000 0.000000
vn 0.000000 1.000000 0.000000
vn 0.000000 1.000000 0.000000
vn 0.000000 1.000000 0.000000
vn 0.000000 1.000000 0.000000
vn 0.000000 1.000000 0.000000
vn 0.000000 1.000000 0.000000
vn 0.709796 0.704407 -0.000000
vn 0.709796 0.704407 0.000000
vn 1.000000 0.000001 0.000000
vn 1.000000 0.000001 0.000000
vn 0.709796 0.704407 -0.000000
vn 0.000000 1.000000 -0.000000
vn 0.000000 1.000000 0.000000
vn 0.709796 0.704407 0.000000
vn 0.788256 0.000000 0.615348
vn 1.000000 0.000000 -0.000000
vn 0.763471 0.645842 0.000000
vn 0.644577 0.545268 0.535914
vn 0.644577 0.545268 0.535914
vn -0.000000 0.713196 0.700965
vn -0.000000 0.000000 1.000000
vn 0.788256 0.000000 0.615348
vn -0.000000 0.000000 1.000000
vn -0.000000 0.000000 1.000000
vn -0.000000 0.713196 0.700965
vn -0.000000 0.713196 0.700965
vn -0.672801 0.739823 -0.000000
vn -1.000000 0.000000 -0.000000
vn -0.701907 0.000000 0.712268
vn -0.544147 0.598366 0.588101
vn -0.000000 0.713196 0.700965
vn 0.000000 1.000000 0.000000
vn -0.672801 0.739823 -0.000000
vn -0.544147 0.598366 0.588101
vn -0.701907 0.000000 0.712268
vn -0.000000 0.000000 1.000000
vn -0.000000 0.713196 0.700965
vn -0.544147 0.598366 0.588101
vn -0.000000 0.000000 1.000000
vn -0.000000 0.000000 1.000000
vn -0.701907 0.000000 0.712268
vn -0.831172 0.000000 0.556015
vn 0.000000 1.000000 0.000000
vn 0.000000 1.000000 0.000000
vn -0.853469 0.521143 -0.000000
vn -0.594141 0.804361 -0.000000
vn 0.000000 0.521070 -0.853514
vn 0.000000 1.000000 0.000000
vn 0.000000 1.000000 0.000000
vn 0.000000 0.804568 -0.593861
vn 0.593286 0.588785 -0.548948
vn 0.709796 0.704407 -0.000000
vn 1.000000 0.000001 0.000000
vn 0.712269 0.000000 -0.701907
vn 0.593286 0.588785 -0.548948
vn -0.000000 0.731416 -0.681932
vn 0.000000 1.000000 -0.000000
vn 0.709796 0.704407 -0.000000
vn 0.000000 1.000000 -0.000000
vn -0.000000 0.731416 -0.681932
vn -0.000000 0.731416 -0.681932
vn -0.000001 1.000000 -0.000000
vn 0.000000 1.000000 0.000000
vn 0.000000 1.000000 -0.000000
vn -0.000001 1.000000 -0.000000
vn -0.000001 1.000000 0.000000
vn -0.000000 0.636434 0.771331
vn 0.000000 1.000000 0.000000
vn -0.000001 1.000000 0.000000
vn -0.000000 0.636434 0.771331
vn 0.000000 -0.000000 1.000000
vn 0.000000 -0.000000 1.000000
vn 0.000000 -0.000000 1.000000
vn 0.000000 -0.000000 1.000000
vn 1.000000 0.000000 0.000000
vn 1.000000 0.000000 -0.000000
vn 1.000000 0.000000 -0.000000
vn 1.000000 0.000000 -0.000000
vn 1.000000 0.000000 -0.000000
vn 1.000000 0.000000 -0.000000
vn 1.000000 0.000000 -0.000000
vn 1.000000 0.000000 -0.000000
vn 0.763471 0.645842 0.000000
vn 1.000000 0.000000 -0.000000
vn 1.000000 0.000000 -0.000000
vn 0.763471 0.645842 0.000000
vn 0.000000 1.000000 0.000000
vn 0.763471 0.645842 0.000000
vn 0.763471 0.645842 0.000000
vn 0.000000 1.000000 0.000000
vn 0.000000 1.000000 0.000000
vn 0.000000 1.000000 0.000000
vn 0.000000 1.000000 0.000000
vn 0.000000 1.000000 0.000000
vn -0.672801 0.739823 -0.000000
vn 0.000000 1.000000 0.000000
vn 0.000000 1.000000 0.000000
vn -0.672800 0.739825 -0.000000
vn -1.000000 0.000000 -0.000000
vn -0.672801 0.739823 -0.000000
vn -0.672800 0.739825 -0.000000
vn -1.000000 0.000000 -0.000000
vn -1.000000 0.000000 -0.000000
vn -1.000000 0.000000 -0.000000
vn -1.000000 0.000000 -0.000000
vn -1.000000 0.000000 -0.000000
vn -0.000000 0.000000 -1.000000
vn -0.000000 0.000000 -1.000000
vn -0.000000 0.000000 -1.000000
vn -0.000000 0.000000 -1.000000
vn -0.000000 0.731416 -0.681932
vn -0.000000 0.731416 -0.681932
vn 0.000000 0.000000 -1.000000
vn 0.000000 0.000000 -1.000000
vn 0.000000 -0.000000 1.000000
vn 0.000000 -0.000000 1.000000
vn -0.000000 -0.799623 0.600502
vn 0.000000 -0.561389 0.827552
vn 0.598324 -0.801254 0.000000
vn 1.000000 0.000000 -0.000000
vn 1.000000 0.000000 0.000000
vn 0.825687 -0.564129 0.000000
vn -1.000000 0.000000 -0.000000
vn -1.000000 0.000000 -0.000000
vn -0.620101 -0.784522 -0.000000
vn -0.469140 -0.883124 -0.000000
vn 0.000000 -0.783569 -0.621305
vn -0.000000 0.000000 -1.000000
vn -0.000000 0.000000 -1.000000
vn 0.000000 -0.882635 -0.470059
vn -0.000000 0.000000 1.000000
vn -0.000000 0.000000 1.000000
vn -0.000000 0.636434 0.771331
vn -0.000000 0.636434 0.771331
vn -1.000000 0.000000 -0.000000
vn -1.000000 0.000000 -0.000000
vn -1.000000 0.000000 -0.000000
vn -1.000000 0.000000 -0.000000
vn 0.000000 1.000000 0.000000
vn 0.000000 0.384346 0.923189
vn 0.634874 0.502208 0.587130
vn 0.000002 1.000000 0.000000
vn 0.000000 1.000000 0.000000
vn 0.000000 1.000000 0.000000
vn 0.000002 1.000000 0.000000
vn 0.000003 1.000000 0.000000
vn 0.000000 0.804568 -0.593861
vn 0.000000 1.000000 0.000000
vn 0.000003 1.000000 0.000000
vn -0.387472 0.849389 -0.358335
vn -0.734174 0.000000 -0.678962
vn -0.000000 0.000000 -1.000000
vn 0.000000 0.804568 -0.593861
vn -0.387472 0.849389 -0.358335
vn -0.734182 0.000000 -0.678952
vn -0.000000 0.000000 -1.000000
vn -0.000000 0.000000 -1.000000
vn -0.734174 0.000000 -0.678962
vn 0.000000 -0.882635 -0.470059
vn -0.000000 0.000000 -1.000000
vn -0.734182 0.000000 -0.678952
vn -0.255825 -0.937327 -0.236582
vn 0.000000 -0.561389 0.827552
vn -0.000000 -1.000000 -0.000001
vn -0.000001 -1.000000 -0.000001
vn 0.530148 -0.691770 0.490304
vn 0.734183 0.000000 0.678951
vn 0.000000 -0.000000 1.000000
vn 0.000000 -0.561389 0.827552
vn 0.530148 -0.691770 0.490304
vn 0.734173 0.000000 0.678963
vn 0.000000 -0.000000 1.000000
vn 0.000000 -0.000000 1.000000
vn 0.734183 0.000000 0.678951
vn 0.000000 0.384346 0.923189
vn 0.000000 -0.000000 1.000000
vn 0.734173 0.000000 0.678963
vn 0.634874 0.502208 0.587130
vn 0.734173 0.000000 0.678963
vn 1.000000 0.000000 -0.000000
vn 0.922947 0.384927 -0.000000
vn 0.634874 0.502208 0.587130
vn 0.734183 0.000000 0.678951
vn 1.000000 0.000000 0.000000
vn 1.000000 0.000000 -0.000000
vn 0.734173 0.000000 0.678963
vn 0.825687 -0.564129 0.000000
vn 1.000000 0.000000 0.000000
vn 0.734183 0.000000 0.678951
vn 0.530148 -0.691770 0.490304
vn -0.000001 -1.000000 -0.000001
vn 0.000001 -1.000000 0.000000
vn 0.825687 -0.564129 0.000000
vn 0.530148 -0.691770 0.490304
vn -0.734182 0.000000 -0.678952
vn -1.000000 0.000000 -0.000000
vn -0.469140 -0.883124 -0.000000
vn -0.255825 -0.937327 -0.236582
vn -0.734174 0.000000 -0.678962
vn -1.000000 0.000000 -0.000000
vn -1.000000 0.000000 -0.000000
vn -0.734182 0.000000 -0.678952
vn -0.594141 0.804361 -0.000000
vn -1.000000 0.000000 -0.000000
vn -0.734174 0.000000 -0.678962
vn -0.387472 0.849389 -0.358335
vn 0.000003 1.000000 0.000000
vn 0.000000 1.000000 0.000000
vn -0.594141 0.804361 -0.000000
vn -0.387472 0.849389 -0.358335
vn 0.000002 1.000000 0.000000
vn 0.000000 1.000000 0.000000
vn 0.000000 1.000000 0.000000
vn 0.000003 1.000000 0.000000
vn 0.922947 0.384927 -0.000000
vn 0.000000 1.000000 0.000000
vn 0.000002 1.000000 0.000000
vn 0.634874 0.502208 0.587130
vn 0.000000 -1.000000 0.000000
vn 0.000000 -1.000000 0.000000
vn 0.000000 -0.783569 -0.621305
vn 0.000000 -0.882635 -0.470059
vn -0.000000 -1.000000 0.000000
vn 0.000000 -1.000000 0.000000
vn 0.000000 -0.882635 -0.470059
vn -0.255825 -0.937327 -0.236582
vn -0.469140 -0.883124 -0.000000
vn 0.000000 -1.000000 -0.000000
vn -0.000000 -1.000000 0.000000
vn -0.255825 -0.937327 -0.236582
vn -0.620101 -0.784522 -0.000000
vn 0.000001 -1.000000 -0.000000
vn 0.000000 -1.000000 -0.000000
vn -0.469140 -0.883124 -0.000000
vn 0.000000 -1.000000 -0.000000
vn 0.000001 -1.000000 -0.000000
vn 0.000000 -1.000000 0.000000
vn 0.000001 -1.000000 0.000000
vn -0.000000 -1.000000 0.000000
vn 0.000000 -1.000000 -0.000000
vn 0.000001 -1.000000 0.000000
vn -0.000001 -1.000000 -0.000001
vn -0.000001 -1.000000 -0.000001
vn -0.000000 -1.000000 -0.000001
vn 0.000000 -1.000000 0.000000
vn -0.000000 -1.000000 0.000000
vn -0.000000 -1.000000 -0.000001
vn 0.000000 -1.000000 -0.000000
vn 0.000000 -1.000000 0.000000
vn 0.000000 -1.000000 0.000000
vn -0.000000 0.000000 1.000000
vn -0.000000 0.000000 1.000000
vn -0.000000 0.000000 1.000000
vn -0.000000 0.000000 1.000000
vn 0.615346 0.000000 0.788257
vn -0.000000 0.000000 1.000000
vn -0.000000 0.000000 1.000000
vn 0.457490 0.000000 0.889215
vn 1.000000 0.000001 0.000000
vn 0.615346 0.000000 0.788257
vn 0.457490 0.000000 0.889215
vn 1.000000 0.000001 0.000000
vn 1.000000 0.000001 0.000000
vn 1.000000 0.000001 0.000000
vn 1.000000 0.000001 0.000000
vn 1.000000 0.000001 0.000000
vn 0.712269 0.000000 -0.701907
vn 1.000000 0.000001 0.000000
vn 1.000000 0.000001 0.000000
vn 0.555918 0.000000 -0.831237
vn 0.555918 0.000000 -0.831237
vn 0.000000 0.000000 -1.000000
vn 0.000000 0.000000 -1.000000
vn 0.712269 0.000000 -0.701907
vn 0.000000 0.000000 -1.000000
vn 0.000000 0.000000 -1.000000
vn 0.000000 0.000000 -1.000000
vn 0.000000 0.000000 -1.000000
g BuildingA_Ledge_Corner_LOD0 BuildingA_Ledge_Corner
usemtl BuildingA_Bottom_Corner_LOD0SG2
f 26/62/1 43/86/2 44/87/3 5/20/4
f 98/158/5 99/159/6 41/83/7 3/4/8
f 44/88/9 94/152/10 95/154/11 5/9/12
f 26/61/13 5/38/14 95/153/15 96/155/16
f 25/60/17 7/28/18 63/113/19 64/115/20
f 7/8/21 45/89/22 72/126/23 63/114/24
f 6/22/25 83/141/26 84/142/27 70/124/28
f 67/119/29 56/104/30 8/1/31 66/117/32
f 15/33/33 49/95/34 50/96/35 22/55/36
f 20/41/37 47/92/38 48/93/39 29/66/40
f 53/100/41 54/101/42 19/48/43 31/69/44
f 29/65/45 30/67/46 23/56/47 20/16/48
f 19/48/49 54/101/50 79/136/51 80/138/52
f 86/144/53 87/145/54 13/26/55 76/131/56
f 74/129/57 47/92/58 20/41/59 73/127/60
f 20/31/61 23/57/62 82/140/63 73/128/64
f 22/55/65 50/96/66 51/97/67 34/73/68
f 23/56/69 30/67/70 35/74/71 36/75/72
f 82/140/73 23/57/74 36/76/75 81/139/76
f 38/79/77 25/60/78 64/115/79 65/116/80
f 39/80/81 26/61/82 96/155/83 97/156/84
f 39/81/85 42/85/86 43/86/87 26/62/88
f 29/66/89 48/93/90 49/94/91 15/44/92
f 15/13/93 22/54/94 30/67/95 29/65/96
f 35/74/97 30/67/98 22/54/99 34/72/100
f 52/99/101 53/100/102 31/69/103 17/49/104
f 34/73/105 51/97/106 52/98/107 17/36/108
f 31/68/109 35/74/110 34/72/111 17/14/112
f 36/75/113 35/74/114 31/68/115 19/15/116
f 81/139/117 36/76/118 19/32/119 80/137/120
f 8/27/121 38/79/122 65/116/123 66/118/124
f 3/37/125 39/80/126 97/156/127 98/157/128
f 3/17/129 41/84/130 42/85/131 39/81/132
f 42/85/133 41/84/134 2/18/135 40/82/136
f 43/86/137 42/85/138 40/82/139 27/63/140
f 44/87/141 43/86/142 27/63/143 4/19/144
f 72/126/145 45/89/146 57/105/147 71/125/148
f 75/130/149 59/108/150 47/92/151 74/129/152
f 48/93/153 47/92/154 59/108/155 28/64/156
f 49/94/157 48/93/158 28/64/159 14/43/160
f 50/96/161 49/95/162 14/34/163 21/53/164
f 51/97/165 50/96/166 21/53/167 33/71/168
f 52/98/169 51/97/170 33/71/171 16/35/172
f 53/100/173 52/99/174 16/50/175 32/70/176
f 79/136/177 54/101/178 60/109/179 78/135/180
f 68/120/181 62/112/182 56/104/183 67/119/184
f 2/3/185 41/83/186 99/159/187 100/160/188
f 71/125/189 57/105/190 6/7/191 70/123/192
f 13/42/193 59/108/194 75/130/195 76/132/196
f 78/135/197 60/109/198 18/47/199 77/133/200
f 1/2/201 62/112/202 68/120/203 69/122/204
f 93/151/205 94/152/206 44/88/207 4/10/208
f 60/109/209 54/101/210 53/100/211 32/70/212
f 64/115/213 63/113/214 9/29/215 24/58/216
f 65/116/217 64/115/218 24/58/219 37/77/220
f 66/118/221 65/116/222 37/77/223 10/30/224
f 55/103/225 67/119/226 66/117/227 10/5/228
f 61/111/229 68/120/230 67/119/231 55/103/232
f 69/122/233 68/120/234 61/111/235 12/6/236
f 70/124/237 84/142/238 85/143/239 11/24/240
f 58/107/241 71/125/242 70/123/243 11/11/244
f 46/91/245 72/126/246 71/125/247 58/107/248
f 63/114/249 72/126/250 46/91/251 9/12/252
f 46/90/253 74/129/254 73/127/255 9/45/256
f 58/106/257 75/130/258 74/129/259 46/90/260
f 76/132/261 75/130/262 58/106/263 11/46/264
f 85/143/265 86/144/266 76/131/267 11/24/268
f 61/110/269 78/135/270 77/133/271 12/51/272
f 55/102/273 79/136/274 78/135/275 61/110/276
f 80/138/277 79/136/278 55/102/279 10/52/280
f 37/77/281 81/139/282 80/137/283 10/30/284
f 24/58/285 82/140/286 81/139/287 37/77/288
f 73/128/289 82/140/290 24/58/291 9/29/292
f 91/149/293 92/150/294 1/21/295 69/121/296
f 90/148/297 91/149/298 69/121/299 12/23/300
f 77/134/301 89/147/302 90/148/303 12/23/304
f 18/25/305 88/146/306 89/147/307 77/134/308
f 89/147/309 88/146/310 87/145/311 86/144/312
f 90/148/313 89/147/314 86/144/315 85/143/316
f 85/143/317 84/142/318 91/149/319 90/148/320
f 84/142/321 83/141/322 92/150/323 91/149/324
f 57/105/325 45/89/326 94/152/327 93/151/328
f 95/154/329 94/152/330 45/89/331 7/8/332
f 96/155/333 95/153/334 7/39/335 25/59/336
f 97/156/337 96/155/338 25/59/339 38/78/340
f 98/157/341 97/156/342 38/78/343 8/40/344
f 8/1/345 56/104/346 99/159/347 98/158/348
f 100/160/349 99/159/350 56/104/351 62/112/352
