# This file uses meters as units for non-parametric coordinates.

mtllib BuildingA_Bottom_Wall_Long_VarA_LOD0.mtl
g default
v 60.405437 329.104218 -11.063156
v 739.594238 329.104218 -11.063156
v 60.405437 357.044800 -11.063156
v 739.594238 357.044800 -11.063156
v 60.405437 357.044800 -27.683994
v 739.594238 357.044800 -27.683994
v 60.405437 329.104218 -27.683994
v 739.594238 329.104218 -27.683994
v 60.405437 357.044800 -13.947171
v 739.594238 357.044800 -13.947171
v 60.405437 354.456787 -11.063156
v 739.594238 354.456787 -11.063156
v 60.405437 331.480194 -11.063156
v 739.594238 331.480194 -11.063156
v 60.405437 329.104218 -13.429517
v 739.594238 329.104218 -13.429517
v 0.000011 0.000000 -63.278843
v 0.000011 400.000000 -63.278843
v 800.000000 400.000000 -63.278843
v 800.000000 0.000000 -63.278843
v 60.405380 400.000000 -18.129299
v 739.594238 400.000000 -18.129299
v 739.594238 400.000000 0.000000
v 800.000000 400.000000 0.000000
v 60.405380 400.000000 0.000000
v 0.000011 400.000000 0.000000
v 800.000000 0.000004 0.000000
v 739.594238 0.000004 0.000000
v 739.594238 0.000004 -18.129299
v 60.405434 0.000004 -18.129299
v 60.405434 0.000004 0.000000
v 0.000015 -0.000004 0.000000
v 60.405437 110.482201 -8.422253
v 739.594238 110.482201 -8.422253
v 60.405437 110.482201 -64.632690
v 739.594238 110.482201 -64.632690
v 60.405437 92.549980 -64.632690
v 739.594238 92.549980 -64.632690
v 60.405437 92.549980 -15.069923
v 60.405437 99.197655 -8.422253
v 739.594238 99.197655 -8.422253
v 739.594238 92.549980 -15.069923
v 0.000015 0.000000 3.258097
v 63.506542 0.000000 3.258097
v 0.000015 50.000000 3.258097
v 63.506542 50.000000 3.258097
v 0.000015 50.000000 -22.778170
v 63.506542 50.000000 -22.778170
v 63.506542 0.000000 -22.778170
v 60.811901 0.000000 3.258097
v 60.811901 50.000000 3.258097
v 60.811901 50.000000 -22.778170
v 0.000015 50.000000 0.426027
v 60.811901 50.000000 0.426027
v 63.506542 50.000000 0.426027
v 63.506542 0.000000 0.426027
v 0.000015 47.141350 3.258097
v 60.811901 47.141350 3.258097
v 63.506542 47.141350 3.258097
v 63.506542 47.141365 0.426027
v 63.506542 47.141365 -22.778170
v 800.000000 0.000000 3.258097
v 736.493469 0.000000 3.258097
v 800.000000 50.000000 3.258097
v 736.493469 50.000000 3.258097
v 800.000000 50.000000 -22.778172
v 736.493469 50.000000 -22.778172
v 736.493469 0.000000 -22.778172
v 739.188110 0.000000 3.258097
v 739.188110 50.000000 3.258097
v 739.188110 50.000000 -22.778172
v 800.000000 50.000000 0.426027
v 739.188110 50.000000 0.426027
v 736.493469 50.000000 0.426027
v 736.493469 0.000000 0.426027
v 800.000000 47.141350 3.258097
v 739.188110 47.141350 3.258097
v 736.493469 47.141350 3.258097
v 736.493469 47.141365 0.426027
v 736.493469 47.141365 -22.778172
v 60.405380 400.000000 -4.752802
v 60.405434 0.000004 -4.752802
v 56.249050 0.000004 0.000000
v 56.249001 400.000000 0.000000
v 743.750610 400.000000 0.000000
v 743.750610 0.000004 0.000000
v 739.594238 0.000004 -4.693312
v 739.594238 400.000000 -4.693312
v 60.405437 101.400909 -8.422253
v 739.594238 101.400909 -8.422253
v 60.405437 92.549980 -17.500645
v 739.594238 92.549980 -17.500645
v 60.405437 110.482201 -11.235945
v 739.594238 110.482201 -11.235945
v 739.594238 107.108948 -8.422253
v 60.405437 107.108948 -8.422253
v 739.594238 342.294556 -18.129299
v 60.405384 342.294556 -18.129299
v 60.405422 101.590683 -18.129299
v 739.594238 101.590683 -18.129299
v 739.594238 342.294556 -21.629299
v 60.405384 342.294556 -21.629299
v 60.405422 101.590683 -21.629299
v 739.594238 101.590683 -21.629299
v 60.405422 101.590683 -63.278843
v 60.405422 342.294556 -63.278843
v 739.594116 101.590683 -63.278843
v 739.594116 342.294586 -63.278843
v 739.594116 101.590683 -59.778839
v 739.594116 342.294586 -59.778839
v 60.405422 101.590683 -59.778839
v 60.405422 342.294556 -59.778839
v 57.509495 344.937469 -63.278843
v 742.490051 344.937500 -63.278843
v 742.490051 99.256317 -63.278843
v 57.509495 99.256332 -63.278843
v 739.594116 101.590683 -61.378117
v 60.405422 101.590683 -61.378117
v 60.405422 342.294556 -61.378117
v 739.594116 342.294586 -61.378117
v 739.594238 92.549980 -61.477276
v 60.405437 92.549980 -61.477299
v 739.594238 110.482201 -61.877205
v 60.405437 110.482201 -61.877205
v 60.405437 329.104218 -65.814331
v 739.594238 329.104218 -65.814331
v 60.405437 357.044800 -65.814331
v 739.594238 357.044800 -65.814331
v 60.405437 357.044800 -49.193493
v 739.594238 357.044800 -49.193493
v 60.405437 329.104218 -49.193493
v 739.594238 329.104218 -49.193493
v 60.405437 357.044800 -62.930317
v 739.594238 357.044800 -62.930317
v 60.405437 329.104218 -62.501961
v 739.594238 329.104218 -62.501961
v 60.405437 354.197845 -62.886665
v 60.405437 354.197845 -65.814331
v 739.594238 354.197845 -65.814331
v 739.594238 354.197845 -62.886665
v 60.405437 331.968842 -62.545879
v 60.405437 331.968842 -65.814331
v 739.594238 331.968842 -65.814331
v 739.594238 331.968842 -62.545879
v 739.594238 108.455971 -61.832016
v 739.594238 108.455971 -64.632690
v 60.405437 108.455971 -64.632690
v 60.405437 108.455971 -61.832024
v 739.594238 94.721741 -61.525707
v 739.594238 94.721741 -64.632690
v 60.405437 94.721741 -64.632690
v 60.405437 94.721741 -61.525730
vt 0.324018 1.234022
vt -2.223040 1.234022
vt -2.223040 1.224317
vt 0.324018 1.224317
vt 0.324018 1.213501
vt -2.223040 1.213502
vt -2.223040 1.161986
vt 0.324018 1.161986
vt 0.324018 1.337972
vt -2.223040 1.337973
vt -2.223040 1.329098
vt 0.324019 1.329098
vt 0.324018 1.320188
vt -2.223040 1.320188
vt 0.324018 1.391429
vt -2.223040 1.391429
vt 0.143911 1.000000
vt -0.038973 1.000000
vt -0.038974 -0.300526
vt 0.143911 -0.300527
vt -0.067746 1.000000
vt -0.111431 0.812382
vt -0.111432 0.029777
vt -0.067747 -0.300526
vt -0.285881 3.584313
vt -2.284775 3.584313
vt -2.284775 2.875908
vt -0.285881 2.875908
vt 0.355761 -0.300526
vt 0.399253 0.029777
vt 0.399252 0.812382
vt 0.355760 1.000000
vt 0.143911 -0.300528
vt 0.326795 -0.300526
vt 0.326793 1.000000
vt 0.143910 1.000000
vt 1.221712 -1.270529
vt 1.221712 -1.240260
vt -2.379976 -1.240260
vt -2.379976 -1.270529
vt -2.379976 -1.207451
vt 1.221712 -1.207451
vt 1.221712 -0.938902
vt -2.379976 -0.938902
vt -2.379975 -1.344957
vt 1.221711 -1.344957
vt 1.221711 -1.332067
vt -2.379975 -1.332067
vt -2.379976 -1.282213
vt 1.221711 -1.282213
vt 2.836554 0.250710
vt 2.836554 0.782520
vt 2.811554 0.782520
vt 2.811554 0.250710
vt 2.786787 0.250710
vt 2.786787 0.782520
vt 2.583863 0.782520
vt 2.583863 0.250710
vt 2.811554 0.830852
vt 2.836553 0.830852
vt 2.836553 1.033776
vt 2.811554 1.033776
vt 2.836554 0.806085
vt 2.811554 0.806085
vt 2.786787 0.806085
vt 2.583863 0.806085
vt 3.248812 0.250710
vt 3.248812 0.782520
vt 3.248812 0.806085
vt 3.248812 0.830852
vt 3.248812 1.033776
vt 2.271244 0.247288
vt 2.296243 0.247288
vt 2.296243 0.779097
vt 2.271244 0.779097
vt 2.321011 0.247288
vt 2.523934 0.247288
vt 2.523934 0.779097
vt 2.321011 0.779097
vt 2.296243 0.827429
vt 2.296243 1.030353
vt 2.271244 1.030353
vt 2.271244 0.827429
vt 2.296243 0.802662
vt 2.271244 0.802662
vt 2.523934 0.802662
vt 2.321011 0.802662
vt 1.858985 0.247288
vt 1.858986 0.779098
vt 1.858986 0.802662
vt 1.858986 0.827429
vt 1.858986 1.030353
vt 0.340309 -0.300526
vt 0.340308 1.000000
vt -0.052488 1.000000
vt -0.052488 -0.300526
vt 1.221712 -0.829196
vt 1.221712 -0.812463
vt -2.379976 -0.812463
vt -2.379976 -0.829196
vt 1.221712 -1.222372
vt -2.379976 -1.222372
vt -0.111432 1.000000
vt -2.286261 3.750648
vt -2.286269 3.580573
vt -0.284387 3.580573
vt -0.284394 3.750649
vt 0.399252 1.000000
vt 0.399253 -0.300527
vt -0.281288 2.876382
vt -2.289368 2.876382
vt -2.289368 2.576020
vt -0.281288 2.576021
vt -0.111432 -0.300526
vt -2.286269 3.570257
vt -0.284387 3.570257
vt 0.410632 0.029778
vt 0.410631 0.812382
vt -0.281288 2.886730
vt -2.289368 2.886730
vt -0.122811 0.812382
vt -0.122811 0.029777
vt -2.634166 0.751801
vt -2.634463 -0.380327
vt -2.628029 -0.369513
vt -2.627737 0.745656
vt 0.519077 0.744766
vt 0.518741 -0.370402
vt 0.525169 -0.381219
vt 0.525509 0.750907
vt -0.012066 -0.122196
vt -0.012066 0.563885
vt -2.107860 0.563885
vt -2.107860 -0.122195
vt -2.618931 0.745654
vt -2.619223 -0.369516
vt -2.611814 -0.369518
vt -2.611521 0.745652
vt -2.628026 -0.360707
vt 0.518744 -0.361596
vt 0.518746 -0.354186
vt -2.628024 -0.353297
vt 0.509935 -0.370399
vt 0.510270 0.744769
vt 0.502861 0.744771
vt 0.502526 -0.370397
vt 0.519074 0.735959
vt -2.627739 0.736850
vt -2.627741 0.729440
vt 0.519072 0.728549
vt -2.907531 1.013088
vt 0.799021 1.012040
vt -2.908024 -0.840114
vt 0.798468 -0.841160
vt -2.379974 -1.578161
vt 1.221710 -1.578161
vt 1.221712 -0.924290
vt -2.379976 -0.924289
vt -2.394588 -0.924289
vt -2.396710 -0.829193
vt 1.238446 -0.829193
vt 1.236324 -0.924289
vt 0.331605 1.234548
vt -2.215452 1.234548
vt -2.215452 1.223872
vt 0.331605 1.223872
vt 0.331605 1.213056
vt -2.215452 1.213056
vt -2.215452 1.161541
vt 0.331606 1.161540
vt 0.331604 1.341075
vt -2.215451 1.341075
vt -2.215451 1.328653
vt 0.331604 1.328653
vt 0.331604 1.390983
vt -2.215451 1.390983
vt -2.226434 1.234559
vt -2.226271 1.223884
vt 0.342588 1.234559
vt 0.342425 1.223883
vt 0.343859 1.317915
vt 0.331604 1.317910
vt -2.215451 1.317910
vt -2.227706 1.317915
vt 0.344023 1.328657
vt -2.227870 1.328657
vt 1.236564 -0.913544
vt 1.221712 -0.913545
vt -2.379976 -0.913544
vt -2.394828 -0.913544
vt 1.238189 -0.840710
vt 1.221712 -0.840712
vt -2.379976 -0.840712
vt -2.396453 -0.840710
vn 0.000000 0.000000 1.000000
vn 0.000000 0.000000 1.000000
vn 0.000000 0.744269 0.667881
vn 0.000000 0.744269 0.667881
vn 0.000000 1.000000 0.000000
vn 0.000000 1.000000 0.000000
vn 0.000000 1.000000 0.000000
vn 0.000000 1.000000 0.000000
vn 0.000000 -1.000000 0.000000
vn 0.000000 -1.000000 0.000000
vn 0.000000 -0.705672 0.708539
vn 0.000000 -0.705672 0.708539
vn 0.000000 0.000000 1.000000
vn 0.000000 0.000000 1.000000
vn 0.000000 -1.000000 0.000000
vn 0.000000 -1.000000 0.000000
vn 0.000000 0.000000 1.000000
vn 0.000000 0.000000 1.000000
vn 0.000000 0.000000 1.000000
vn 0.000000 0.000000 1.000000
vn -1.000000 0.000000 0.000000
vn -1.000000 0.000000 0.000000
vn -1.000000 0.000000 0.000000
vn -1.000000 0.000000 0.000000
vn 0.000000 0.000000 1.000000
vn 0.000000 0.000000 1.000000
vn 0.000000 0.000000 1.000000
vn 0.000000 0.000000 1.000000
vn 1.000000 0.000000 -0.000000
vn 1.000000 0.000000 -0.000000
vn 1.000000 0.000000 -0.000000
vn 1.000000 0.000000 -0.000000
vn 0.000000 0.000000 1.000000
vn 0.000000 0.000000 1.000000
vn 0.000000 0.000000 1.000000
vn 0.000000 0.000000 1.000000
vn 0.000000 0.000000 1.000000
vn 0.000000 0.000000 1.000000
vn 0.000000 0.000000 1.000000
vn 0.000000 0.000000 1.000000
vn 0.000000 1.000000 0.000000
vn 0.000000 1.000000 0.000000
vn 0.000000 1.000000 0.000000
vn 0.000000 1.000000 0.000000
vn 0.000000 -1.000000 0.000000
vn 0.000000 -1.000000 0.000000
vn 0.000000 -0.806821 0.590797
vn 0.000000 -0.806821 0.590797
vn 0.000000 -0.600548 0.799589
vn 0.000000 -0.600548 0.799589
vn 0.000000 0.000000 1.000000
vn 0.000000 0.000000 1.000000
vn 0.000000 0.703796 0.710402
vn 0.000000 0.703796 0.710402
vn 0.000000 1.000000 0.000000
vn 0.000000 1.000000 0.000000
vn 0.000000 1.000000 0.000000
vn 0.000000 1.000000 0.000000
vn 0.727671 0.685926 0.000000
vn 1.000000 0.000000 0.000000
vn 1.000000 0.000000 0.000000
vn 0.727671 0.685926 0.000000
vn 0.724467 0.000000 0.689310
vn 0.598271 0.563948 0.569241
vn 0.000000 0.000000 1.000000
vn 0.000000 0.000000 1.000000
vn 0.724466 0.000000 0.689311
vn 1.000000 0.000000 0.000000
vn 1.000000 0.000000 0.000000
vn 0.000000 0.000000 1.000000
vn 0.000000 0.703796 0.710402
vn 0.000000 0.703797 0.710402
vn 0.000000 0.000000 1.000000
vn 0.000000 1.000000 0.000000
vn 0.000000 1.000000 0.000000
vn 0.000000 1.000000 0.000000
vn 0.000000 1.000000 0.000000
vn -0.727669 0.685929 0.000000
vn -0.727669 0.685928 0.000000
vn -1.000000 0.000000 0.000000
vn -1.000000 0.000000 0.000000
vn -0.598266 0.563957 0.569236
vn -0.724467 0.000000 0.689310
vn 0.000000 0.000000 1.000000
vn 0.000000 0.000000 1.000000
vn -0.724466 0.000000 0.689311
vn -1.000000 0.000000 0.000000
vn -1.000000 0.000000 0.000000
vn 0.752759 0.000000 0.658296
vn 0.752759 0.000000 0.658297
vn -0.748633 0.000000 0.662985
vn -0.748633 0.000000 0.662985
vn 0.000000 -0.823747 -0.566958
vn 0.000000 -1.000000 0.000000
vn 0.000000 -1.000000 0.000000
vn 0.000000 -0.823747 -0.566958
vn 0.000000 0.640540 0.767925
vn 0.000000 0.640540 0.767925
vn -1.000000 0.000000 0.000000
vn 0.000000 0.000000 1.000000
vn 0.000000 0.000000 1.000000
vn 0.000000 0.000000 1.000000
vn 0.000000 0.000000 1.000000
vn 1.000000 0.000000 0.000000
vn 1.000000 0.000000 0.000000
vn 0.000000 0.000000 1.000000
vn 0.000000 0.000000 1.000000
vn 0.000000 0.000000 1.000000
vn 0.000000 0.000000 1.000000
vn -1.000000 0.000000 0.000000
vn 0.000000 -1.000000 0.000000
vn 0.000000 -1.000000 0.000000
vn 0.000000 -1.000000 0.000000
vn 0.000000 -1.000000 0.000000
vn 1.000000 0.000000 0.000000
vn 1.000000 0.000000 0.000000
vn 1.000000 0.000000 0.000000
vn 1.000000 0.000000 0.000000
vn 0.000000 1.000000 0.000000
vn 0.000000 1.000000 0.000000
vn 0.000000 1.000000 0.000000
vn 0.000000 1.000000 0.000000
vn -1.000000 0.000000 0.000000
vn -1.000000 0.000000 0.000000
vn -1.000000 0.000000 0.000000
vn -1.000000 0.000000 0.000000
vn 0.000000 0.000000 -1.000000
vn 0.000000 0.000000 -1.000000
vn -0.413149 0.000000 -0.910664
vn -0.403996 0.000000 -0.914761
vn 0.403996 0.000000 -0.914761
vn 0.413150 0.000000 -0.910663
vn -0.000000 0.000000 -1.000000
vn -0.000000 0.000000 -1.000000
vn 0.000000 0.459288 -0.888287
vn 0.000000 0.000000 -1.000000
vn 0.000000 0.000000 -1.000000
vn 0.000000 0.459288 -0.888287
vn -0.002355 -0.006644 -0.999975
vn -0.002355 0.006644 -0.999975
vn 0.002355 0.006644 -0.999975
vn 0.002355 -0.006644 -0.999975
vn 0.000000 0.000000 -1.000000
vn 0.000000 0.000000 -1.000000
vn 0.000000 -0.424132 -0.905600
vn 0.000000 -0.424132 -0.905600
vn -1.000000 0.000000 0.000000
vn -1.000000 0.000000 0.000000
vn 0.000000 1.000000 0.000000
vn 0.000000 1.000000 0.000000
vn 1.000000 0.000000 0.000000
vn 1.000000 0.000000 0.000000
vn 0.000000 -1.000000 0.000000
vn 0.000000 -1.000000 0.000000
vn 0.000000 0.000000 -1.000000
vn 0.000000 0.000000 -1.000000
vn 0.000000 0.000000 -1.000000
vn 0.000000 0.000000 -1.000000
vn 0.000000 0.000000 -1.000000
vn 0.000000 0.000000 -1.000000
vn -0.000000 0.000000 -1.000000
vn -0.000000 0.000000 -1.000000
vn 0.000000 0.805631 -0.592417
vn 0.000000 0.805631 -0.592417
vn -1.000000 -0.000001 0.000000
vn -1.000000 -0.000001 0.000000
vn -1.000000 -0.000001 0.000000
vn -1.000000 -0.000001 0.000000
vn 1.000000 0.000010 0.000000
vn 1.000000 0.000010 0.000000
vn 1.000000 0.000010 0.000000
vn 1.000000 0.000010 0.000000
vn 0.000000 0.000000 -1.000000
vn 0.000000 0.000000 -1.000000
vn 0.000000 0.000000 -1.000000
vn 0.000000 0.711663 -0.702520
vn 0.000000 0.711663 -0.702520
vn 0.000000 0.000000 -1.000000
vn 0.000000 1.000000 0.000000
vn 0.000000 1.000000 0.000000
vn 0.000000 1.000000 0.000000
vn 0.000000 1.000000 0.000000
vn 0.000000 -1.000000 0.000000
vn 0.000000 -0.756377 -0.654136
vn 0.000000 -0.756377 -0.654136
vn 0.000000 -1.000000 0.000000
vn 0.000000 -1.000000 0.000000
vn 0.000000 -1.000000 0.000000
vn 1.000000 0.000000 0.000000
vn 1.000000 0.000000 0.000000
vn 1.000000 0.000000 0.000000
vn 1.000000 0.000000 0.000000
vn -1.000000 0.000000 0.000000
vn -1.000000 0.000000 0.000000
vn -1.000000 0.000000 0.000000
vn -1.000000 0.000000 0.000000
vn -1.000000 0.000000 0.000000
vn -1.000000 0.000000 0.000000
vn 0.000000 0.000000 -1.000000
vn 0.000000 0.000000 -1.000000
vn 1.000000 0.000000 0.000000
vn 1.000000 0.000000 0.000000
vn -1.000000 0.000000 0.000000
vn -1.000000 0.000000 0.000000
vn 1.000000 0.000000 0.000000
vn 1.000000 0.000000 0.000000
vn 1.000000 0.000000 0.000000
vn 1.000000 0.000000 0.000000
vn 1.000000 0.000000 0.000000
vn 1.000000 0.000000 0.000000
vn 0.000000 0.000000 -1.000000
vn 0.000000 0.000000 -1.000000
vn -1.000000 0.000000 0.000000
vn -1.000000 0.000000 0.000000
vn -1.000000 0.000000 0.000000
vn -1.000000 0.000000 0.000000
vn 1.000000 0.000000 0.000000
vn 1.000000 0.000000 0.000000
vn 1.000000 0.000000 0.000000
vn 1.000000 0.000000 0.000000
vn -1.000000 -0.000000 0.000000
vn -1.000000 -0.000000 0.000000
vn -1.000000 -0.000000 0.000000
vn -1.000000 -0.000000 0.000000
g BuildingA_Bottom_Wall_Long_VarA_LOD0 BuildingA_Bottom_Wall_Long_VarA
usemtl BuildingA_Bottom_Wall_Long_VarA_LOD0SG3
f 11/1/1 12/2/2 4/3/3 3/4/4
f 9/5/5 10/6/6 6/7/7 5/8/8
f 15/9/9 16/10/10 2/11/11 1/12/12
f 3/4/4 4/3/3 10/6/6 9/5/5
f 13/13/13 14/14/14 12/2/2 11/1/1
f 1/12/12 2/11/11 14/14/14 13/13/13
f 7/15/15 8/16/16 16/10/10 15/9/9
usemtl BuildingA_Bottom_Corner_LOD0SG
f 24/17/17 85/18/18 86/19/19 27/20/20
f 88/21/21 97/22/22 100/23/23 87/24/24
usemtl BuildingA_Bottom_Wall_Long_VarA_LOD0SG2
f 101/25/25 102/26/26 103/27/27 104/28/28
usemtl BuildingA_Bottom_Corner_LOD0SG
f 82/29/29 99/30/30 98/31/31 81/32/32
f 32/33/33 83/34/34 84/35/35 26/36/36
usemtl BuildingA_Bottom_Corner_LOD0SG2
f 90/37/37 95/38/38 96/39/39 89/40/40
f 93/41/41 94/42/42 123/43/43 124/44/44
f 91/45/45 92/46/46 42/47/47 39/48/48
f 40/49/49 39/48/48 42/47/47 41/50/50
f 57/51/51 58/52/52 51/53/53 45/54/54
f 53/55/55 54/56/56 52/57/57 47/58/58
f 55/59/59 60/60/60 61/61/61 48/62/62
f 51/53/53 58/52/52 59/63/63 46/64/64
f 52/57/57 54/56/56 55/65/59 48/66/62
f 45/54/54 51/53/53 54/56/56 53/55/55
f 55/65/59 54/56/56 51/53/53 46/64/64
f 59/63/63 60/60/60 55/59/59 46/64/64
f 43/67/65 50/68/66 58/52/52 57/51/51
f 59/63/63 58/52/52 50/68/66 44/69/67
f 44/69/67 56/70/68 60/60/60 59/63/63
f 61/61/61 60/60/60 56/70/68 49/71/69
f 76/72/70 64/73/71 70/74/72 77/75/73
f 72/76/74 66/77/75 71/78/76 73/79/77
f 74/80/78 67/81/79 80/82/80 79/83/81
f 70/74/72 65/84/82 78/85/83 77/75/73
f 71/78/76 67/86/79 74/87/78 73/79/77
f 64/73/71 72/76/74 73/79/77 70/74/72
f 74/87/78 65/84/82 70/74/72 73/79/77
f 78/85/83 65/84/82 74/80/78 79/83/81
f 62/88/84 76/72/70 77/75/73 69/89/85
f 78/85/83 63/90/86 69/89/85 77/75/73
f 63/90/86 78/85/83 79/83/81 75/91/87
f 80/82/80 68/92/88 75/91/87 79/83/81
usemtl BuildingA_Bottom_Corner_LOD0SG
f 31/93/89 82/29/29 81/32/32 25/94/90
f 83/34/34 31/93/89 25/94/90 84/35/35
f 85/18/18 23/95/91 28/96/92 86/19/19
f 23/95/91 88/21/21 87/24/24 28/96/92
usemtl BuildingA_Bottom_Corner_LOD0SG2
f 41/50/50 90/37/37 89/40/40 40/49/49
f 38/97/93 121/98/94 122/99/95 37/100/96
f 34/101/97 94/42/42 93/41/41 33/102/98
f 96/39/39 95/38/38 34/101/97 33/102/98
usemtl BuildingA_Bottom_Corner_LOD0SG
f 22/103/99 97/22/22 88/21/21
f 21/104/100 98/105/101 97/106/102 22/107/103
f 81/32/32 98/31/31 21/108/104
f 82/29/29 30/109/105 99/30/30
f 100/110/106 99/111/107 30/112/108 29/113/109
f 87/24/24 100/23/23 29/114/110
f 97/106/111 98/105/112 102/115/113 101/116/114
f 98/31/115 99/30/116 103/117/117 102/118/118
f 99/111/119 100/110/120 104/119/121 103/120/122
f 100/23/123 97/22/124 101/121/125 104/122/126
usemtl BuildingA_Bottom_Corner_LOD0SG1
f 114/123/127 115/124/128 107/125/129 108/126/130
f 106/127/131 105/128/132 116/129/133 113/130/134
f 107/125/135 115/124/136 116/129/137 105/128/138
usemtl BuildingA_Bottom_Wall_Long_VarA_LOD0SG2
f 110/131/139 109/132/140 111/133/141 112/134/142
usemtl BuildingA_Bottom_Corner_LOD0SG1
f 113/130/143 114/123/144 108/126/145 106/127/146
f 120/135/147 117/136/148 109/137/140 110/138/139
f 117/139/149 118/140/150 111/141/141 109/142/140
f 118/143/151 119/144/152 112/145/142 111/146/141
f 119/147/153 120/148/154 110/149/139 112/150/142
f 19/151/155 114/123/144 113/130/143 18/152/156
f 20/153/157 115/124/128 114/123/127 19/151/158
f 116/129/137 115/124/136 20/153/159 17/154/160
f 113/130/134 116/129/133 17/154/161 18/152/162
f 107/125/135 105/128/138 118/140/150 117/139/149
f 105/128/132 106/127/131 119/144/152 118/143/151
f 106/127/146 108/126/145 120/148/154 119/147/153
f 108/126/130 107/125/129 117/136/148 120/135/147
usemtl BuildingA_Bottom_Corner_LOD0SG2
f 122/155/95 121/156/94 92/46/46 91/45/45
f 124/44/44 123/43/43 36/157/163 35/158/164
f 124/159/165 35/158/166 147/189/167 148/190/168
f 145/187/169 146/188/170 36/157/171 123/162/172
f 35/158/164 36/157/163 146/188/173 147/189/174
usemtl BuildingA_Bottom_Wall_Long_VarA_LOD0SG3
f 138/163/175 127/166/176 128/165/177 139/164/178
f 133/167/179 129/170/180 130/169/181 134/168/182
f 135/171/183 125/174/184 126/173/185 136/172/186
f 127/166/176 133/167/179 134/168/182 128/165/177
f 131/175/187 135/171/183 136/172/186 132/176/188
f 139/164/189 128/165/190 134/178/191 140/177/192
f 137/179/193 133/180/194 127/166/195 138/163/196
f 141/181/197 137/179/193 138/163/196 142/182/198
f 142/182/199 138/163/175 139/164/178 143/183/200
f 143/183/201 139/164/189 140/177/192 144/184/202
f 135/185/203 141/181/197 142/182/198 125/174/204
f 126/173/185 125/174/184 142/182/199 143/183/200
f 126/173/205 143/183/201 144/184/202 136/186/206
usemtl BuildingA_Bottom_Corner_LOD0SG2
f 149/191/207 150/192/208 146/188/209 145/187/210
f 147/189/174 146/188/173 150/192/211 151/193/212
f 148/190/213 147/189/214 151/193/215 152/194/216
f 121/161/217 38/97/218 150/192/219 149/191/220
f 151/193/212 150/192/211 38/97/93 37/100/96
f 152/194/221 151/193/222 37/100/223 122/160/224
