# This file uses meters as units for non-parametric coordinates.

mtllib BuildingA_Top_Wall_Long_VarA_LOD1.mtl
g default
v 60.405434 329.104218 -11.063156
v 739.594238 329.104218 -11.063156
v 60.405434 357.044800 -11.063156
v 739.594238 357.044800 -11.063156
v 60.405434 357.044800 -27.683994
v 739.594238 357.044800 -27.683994
v 60.405434 329.104218 -27.683994
v 739.594238 329.104218 -27.683994
v 60.405434 110.482201 -8.422253
v 739.594238 110.482201 -8.422253
v 60.405434 110.482201 -65.126389
v 739.594238 110.482201 -65.126389
v 60.405434 92.549980 -65.126389
v 739.594238 92.549980 -65.126389
v 60.405434 92.549980 -15.069923
v 60.405434 99.197655 -8.422253
v 739.594238 99.197655 -8.422253
v 739.594238 92.549980 -15.069923
v 739.594238 110.482201 -62.828552
v 60.405434 110.482201 -62.828533
v 739.594238 92.549980 -63.044846
v 60.405434 92.549980 -63.044857
v 0.000008 0.000000 -63.278843
v 0.000008 400.000000 -63.278843
v 800.000000 400.000000 -63.278843
v 800.000000 0.000000 -63.278843
v 60.405373 400.000000 -18.129299
v 739.594238 400.000000 -18.129299
v 739.594238 400.000000 0.000000
v 800.000000 400.000000 0.000000
v 60.405373 400.000000 0.000000
v 0.000008 400.000000 0.000000
v 800.000000 0.000004 0.000000
v 739.594238 0.000004 0.000000
v 739.594238 0.000004 -18.129299
v 60.405426 0.000004 -18.129299
v 60.405426 0.000004 0.000000
v 0.000011 -0.000004 0.000000
v 739.594238 342.294556 -18.129299
v 60.405380 342.294556 -18.129299
v 60.405422 101.590683 -18.129299
v 739.594238 101.590683 -18.129299
v 739.594177 101.590714 -63.278843
v 739.594177 342.294586 -63.278843
v 60.405357 342.294495 -63.278843
v 60.405357 101.590660 -63.278843
v 739.594177 101.590714 -59.778839
v 739.594177 342.294586 -59.778839
v 60.405357 101.590660 -59.778839
v 60.405357 342.294495 -59.778839
v 739.594238 342.294556 -21.629299
v 60.405380 342.294556 -21.629299
v 60.405422 101.590683 -21.629299
v 739.594238 101.590683 -21.629299
v 60.405434 329.104218 -65.725151
v 739.594238 329.104218 -65.725151
v 60.405434 357.044800 -65.725151
v 739.594238 357.044800 -65.725151
v 60.405434 357.044800 -49.104309
v 739.594238 357.044800 -49.104309
v 60.405434 329.104218 -49.104309
v 739.594238 329.104218 -49.104309
v 60.405434 357.044800 -62.841133
v 739.594238 357.044800 -62.841133
v 60.405434 329.104218 -63.080650
v 739.594238 329.104218 -63.080650
vt 3.968532 0.290825
vt 1.092499 0.290824
vt 3.968532 0.361205
vt 1.092499 0.361205
vt 3.968532 0.172509
vt 1.092499 0.172509
vt 1.092499 0.102128
vt 3.968532 0.102129
vt 1.973917 0.433042
vt -2.799568 0.433041
vt 1.973910 -0.094722
vt -2.799561 -0.094722
vt -2.799562 -0.028649
vt 1.973911 -0.028648
vt 1.973907 -0.446528
vt 1.973907 -0.431899
vt -2.799558 -0.431899
vt -2.799558 -0.446529
vt 1.973912 0.050662
vt -2.799563 0.050662
vt 1.973917 0.449191
vt -2.799568 0.449191
vt -2.815720 0.449191
vt 1.990069 0.449191
vt 1.988549 0.575224
vt 1.973918 0.575223
vt -2.799569 0.575223
vt -2.814200 0.575223
vt 0.143910 2.300212
vt 0.143910 1.000000
vt -0.052441 2.300218
vt -0.111371 2.112639
vt -0.111371 1.330222
vt -0.052441 1.000008
vt 2.606230 -1.082164
vt 0.657107 -1.083007
vt 0.657406 -1.773834
vt 2.606545 -1.772957
vt 0.340259 1.000000
vt 0.399189 1.330224
vt 0.399189 2.112638
vt 0.340259 2.300212
vt 0.143910 1.000000
vt 0.143910 2.300212
vt -0.111371 2.300212
vt 0.657039 -0.903721
vt 0.657109 -1.069322
vt 2.606221 -1.068475
vt 2.606147 -0.902874
vt 0.399189 2.300212
vt 0.399189 1.000000
vt 2.606577 -1.612529
vt 0.657377 -1.613415
vt 0.657512 -1.904969
vt 2.606707 -1.904083
vt -0.111371 1.000000
vt -2.463624 -0.297871
vt -2.463541 0.803090
vt 0.642855 0.803088
vt 0.642937 -0.297872
vt -1.906871 0.589004
vt -1.907842 -0.117713
vt 0.086286 -0.120452
vt 0.087256 0.586265
vt -2.447615 -0.297872
vt -2.447532 0.803089
vt 0.642937 -0.281863
vt -2.463624 -0.281862
vt 0.626845 0.803087
vt 0.626928 -0.297873
vt -2.463541 0.787082
vt 0.642855 0.787080
vt -2.739818 1.067025
vt 0.919130 1.067023
vt -2.739928 -0.762532
vt 0.919238 -0.762534
vt 0.657113 -1.079366
vt 2.606225 -1.078519
vt 0.410565 1.330223
vt 0.410565 2.112639
vt 2.606573 -1.602485
vt 0.657372 -1.603371
vt -0.122747 2.112639
vt -0.122747 1.330224
vt 3.972055 0.290972
vt 1.096008 0.290972
vt 1.096008 0.303184
vt 3.972055 0.303185
vt 3.972055 0.361354
vt 1.096008 0.361354
vt 1.096009 0.161458
vt 3.972054 0.161458
vt 3.972054 0.172656
vt 1.096008 0.172656
vt 1.096009 0.102274
vt 3.972054 0.102274
vt 3.984269 0.290974
vt 1.083794 0.290974
vt 1.084811 0.172654
vt 3.983252 0.172654
vn 0.000000 0.000000 1.000000
vn 0.000000 0.000000 1.000000
vn 0.000000 0.000000 1.000000
vn 0.000000 0.000000 1.000000
vn 0.000000 1.000000 0.000000
vn 0.000000 1.000000 0.000000
vn 0.000000 1.000000 0.000000
vn 0.000000 1.000000 0.000000
vn 0.000000 -1.000000 0.000000
vn 0.000000 -1.000000 0.000000
vn 0.000000 -1.000000 0.000000
vn 0.000000 -1.000000 0.000000
vn 0.000000 0.000000 1.000000
vn 0.000000 0.000000 1.000000
vn 0.000000 0.000000 1.000000
vn 0.000000 0.000000 1.000000
vn 0.000000 1.000000 0.000000
vn 0.000000 1.000000 0.000000
vn 0.000000 1.000000 0.000000
vn 0.000000 1.000000 0.000000
vn 0.000000 -1.000000 0.000000
vn 0.000000 -1.000000 0.000000
vn 0.000000 -1.000000 0.000000
vn 0.000000 -1.000000 0.000000
vn 0.000000 -0.707106 0.707107
vn 0.000000 -0.707106 0.707107
vn 0.000000 -0.707106 0.707107
vn 0.000000 -0.707106 0.707107
vn 0.000000 -1.000000 0.000000
vn 0.000000 -1.000000 0.000000
vn 0.000000 -1.000000 0.000000
vn 0.000000 -1.000000 0.000000
vn 0.000000 1.000000 0.000000
vn 0.000000 1.000000 0.000000
vn 0.000000 1.000000 0.000000
vn 0.000000 1.000000 0.000000
vn 1.000000 0.000003 0.000000
vn 1.000000 0.000003 0.000000
vn 1.000000 0.000003 0.000000
vn 1.000000 0.000003 0.000000
vn 0.000000 0.000000 -1.000000
vn 0.000000 0.000000 -1.000000
vn 0.000000 0.000000 -1.000000
vn 0.000000 0.000000 -1.000000
vn -1.000000 -0.000000 0.000000
vn -1.000000 -0.000000 0.000000
vn -1.000000 -0.000000 0.000000
vn -1.000000 -0.000000 0.000000
vn 0.000000 0.000000 1.000000
vn 0.000000 0.000000 1.000000
vn 0.000000 0.000000 1.000000
vn 0.000000 0.000000 1.000000
vn -1.000000 0.000000 0.000000
vn -1.000000 0.000000 0.000000
vn -1.000000 0.000000 0.000000
vn -1.000000 0.000000 0.000000
vn 0.000000 0.000000 1.000000
vn 0.000000 0.000000 1.000000
vn 0.000000 0.000000 1.000000
vn 0.000000 0.000000 1.000000
vn 1.000000 0.000000 0.000000
vn 1.000000 0.000000 0.000000
vn 1.000000 0.000000 0.000000
vn 1.000000 0.000000 0.000000
vn 0.000000 0.000000 1.000000
vn 0.000000 0.000000 1.000000
vn 0.000000 0.000000 1.000000
vn 0.000000 0.000000 1.000000
vn -1.000000 0.000000 0.000000
vn -1.000000 0.000000 0.000000
vn -1.000000 0.000000 0.000000
vn 0.000000 0.000000 1.000000
vn 0.000000 0.000000 1.000000
vn 0.000000 0.000000 1.000000
vn 0.000000 0.000000 1.000000
vn 1.000000 0.000000 0.000000
vn 1.000000 0.000000 0.000000
vn 1.000000 0.000000 0.000000
vn 1.000000 0.000000 0.000000
vn 1.000000 0.000000 0.000000
vn 1.000000 0.000000 0.000000
vn 0.000000 0.000000 1.000000
vn 0.000000 0.000000 1.000000
vn 0.000000 0.000000 1.000000
vn 0.000000 0.000000 1.000000
vn -1.000000 0.000000 0.000000
vn -1.000000 0.000000 0.000000
vn -1.000000 0.000000 0.000000
vn 0.000000 0.000000 -1.000000
vn 0.000000 0.000000 -1.000000
vn 0.000000 0.000000 -1.000000
vn 0.000000 0.000000 -1.000000
vn 0.000000 0.000000 -1.000000
vn 0.000000 0.000000 -1.000000
vn 0.000000 0.000000 -1.000000
vn 0.000000 0.000000 -1.000000
vn 0.000000 0.000000 -1.000000
vn 0.000000 0.000000 -1.000000
vn 0.000000 0.000000 -1.000000
vn 0.000000 0.000000 -1.000000
vn -0.000000 0.000000 -1.000000
vn -0.000000 0.000000 -1.000000
vn -0.000000 0.000000 -1.000000
vn -0.000000 0.000000 -1.000000
vn 0.000000 0.000000 -1.000000
vn 0.000000 0.000000 -1.000000
vn 0.000000 0.000000 -1.000000
vn 0.000000 0.000000 -1.000000
vn -1.000000 0.000000 0.000000
vn -1.000000 0.000000 0.000000
vn -1.000000 0.000000 0.000000
vn -1.000000 0.000000 0.000000
vn -0.000000 1.000000 0.000000
vn -0.000000 1.000000 0.000000
vn -0.000000 1.000000 0.000000
vn -0.000000 1.000000 0.000000
vn 1.000000 0.000000 0.000000
vn 1.000000 0.000000 0.000000
vn 1.000000 0.000000 0.000000
vn 1.000000 0.000000 0.000000
vn 0.000000 -1.000000 0.000000
vn 0.000000 -1.000000 0.000000
vn 0.000000 -1.000000 0.000000
vn 0.000000 -1.000000 0.000000
vn 0.000000 -1.000000 0.000000
vn 0.000000 -1.000000 0.000000
vn 0.000000 -1.000000 0.000000
vn 0.000000 -1.000000 0.000000
vn 1.000000 0.000000 0.000000
vn 1.000000 0.000000 0.000000
vn 1.000000 0.000000 0.000000
vn 1.000000 0.000000 0.000000
vn 0.000000 1.000000 0.000000
vn 0.000000 1.000000 0.000000
vn 0.000000 1.000000 0.000000
vn 0.000000 1.000000 0.000000
vn -1.000000 0.000000 0.000000
vn -1.000000 0.000000 0.000000
vn -1.000000 0.000000 0.000000
vn -1.000000 0.000000 0.000000
vn 0.000000 1.000000 0.000000
vn 0.000000 1.000000 0.000000
vn 0.000000 1.000000 0.000000
vn 0.000000 1.000000 0.000000
vn 0.000000 -1.000000 0.000000
vn 0.000000 -1.000000 0.000000
vn 0.000000 -1.000000 0.000000
vn 0.000000 -1.000000 0.000000
vn 0.000000 1.000000 0.000000
vn 0.000000 1.000000 0.000000
vn 0.000000 1.000000 0.000000
vn 0.000000 1.000000 0.000000
vn 0.000000 -1.000000 0.000000
vn 0.000000 -1.000000 0.000000
vn 0.000000 -1.000000 0.000000
vn 0.000000 -1.000000 0.000000
vn -1.000000 0.000000 0.000000
vn -1.000000 0.000000 0.000000
vn -1.000000 0.000000 0.000000
vn -1.000000 0.000000 0.000000
vn 0.000000 0.000000 -1.000000
vn 0.000000 0.000000 -1.000000
vn 0.000000 0.000000 -1.000000
vn 0.000000 0.000000 -1.000000
vn 1.000000 0.000000 0.000000
vn 1.000000 0.000000 0.000000
vn 1.000000 0.000000 0.000000
vn 1.000000 0.000000 0.000000
g BuildingA_Top_Wall_Long_VarA_LOD1 BuildingA_Top_Wall_Long_VarA
usemtl BuildingA_Bottom_Wall_Long_VarA_LOD0SG3
f 2/5/1 4/1/2 3/2/3 1/6/4
f 4/1/5 6/3/6 5/4/7 3/2/8
f 8/8/9 2/5/10 1/6/11 7/7/12
usemtl BuildingA_Bottom_Corner_LOD0SG2
f 17/14/13 10/19/14 9/20/15 16/13/16
f 10/19/17 19/9/18 20/10/19 9/20/20
f 21/16/21 18/11/22 15/12/23 22/17/24
f 16/13/25 15/12/26 18/11/27 17/14/28
f 14/15/29 21/16/30 22/17/31 13/18/32
f 20/10/33 19/9/34 12/21/35 11/22/36
f 12/21/37 19/24/38 21/25/39 14/26/40
f 11/22/41 12/21/42 14/26/43 13/27/44
f 22/28/45 20/23/46 11/22/47 13/27/48
usemtl BuildingA_Bottom_Corner_LOD0SG
f 34/34/49 33/30/50 30/29/51 29/31/52
f 29/31/53 39/32/54 42/33/55 34/34/56
usemtl BuildingA_Bottom_Wall_Long_VarA_LOD0SG2
f 51/35/57 52/36/58 53/37/59 54/38/60
usemtl BuildingA_Bottom_Corner_LOD0SG
f 37/39/61 41/40/62 40/41/63 31/42/64
f 31/42/65 32/44/66 38/43/67 37/39/68
f 28/45/69 39/32/70 29/31/71
f 27/46/72 40/47/73 39/48/74 28/49/75
f 31/42/76 40/41/77 27/50/78
f 37/39/79 36/51/80 41/40/81
f 42/52/82 41/53/83 36/54/84 35/55/85
f 34/34/86 42/33/87 35/56/88
usemtl BuildingA_Bottom_Corner_LOD0SG1
f 43/57/89 44/58/90 25/73/91 26/75/92
f 24/74/93 45/59/94 46/60/95 23/76/96
f 44/58/97 45/59/98 24/74/99 25/73/100
usemtl BuildingA_Bottom_Wall_Long_VarA_LOD0SG2
f 48/61/101 47/62/102 49/63/103 50/64/104
usemtl BuildingA_Bottom_Corner_LOD0SG1
f 46/60/105 43/57/106 26/75/107 23/76/108
f 44/58/109 43/57/110 47/65/111 48/66/112
f 43/57/113 46/60/114 49/67/115 47/68/116
f 46/60/117 45/59/118 50/69/119 49/70/120
f 45/59/121 44/58/122 48/71/123 50/72/124
usemtl BuildingA_Bottom_Corner_LOD0SG
f 39/48/125 40/47/126 52/77/127 51/78/128
f 40/41/129 41/40/130 53/79/131 52/80/132
f 41/53/133 42/52/134 54/81/135 53/82/136
f 42/33/137 39/32/138 51/83/139 54/84/140
usemtl BuildingA_Bottom_Wall_Long_VarA_LOD0SG3
f 63/87/141 59/90/142 60/89/143 64/88/144
f 65/91/145 55/94/146 56/93/147 66/92/148
f 57/86/149 63/87/150 64/88/151 58/85/152
f 61/95/153 65/91/154 66/92/155 62/96/156
f 55/94/157 65/99/158 63/98/159 57/86/160
f 56/93/161 55/94/162 57/86/163 58/85/164
f 64/97/165 66/100/166 56/93/167 58/85/168
