# This file uses meters as units for non-parametric coordinates.

mtllib BuildingA_Top_Wall_Short_VarA_LOD0.mtl
g default
v 60.405437 329.104218 -11.063156
v 339.594238 329.104218 -11.063156
v 60.405437 357.044800 -11.063156
v 339.594238 357.044800 -11.063156
v 60.405437 357.044800 -27.683994
v 339.594238 357.044800 -27.683994
v 60.405437 329.104218 -27.683994
v 339.594238 329.104218 -27.683994
v 60.405437 357.044800 -13.947171
v 339.594238 357.044800 -13.947171
v 60.405437 354.456787 -11.063156
v 339.594238 354.456787 -11.063156
v 60.405437 331.480194 -11.063156
v 339.594238 331.480194 -11.063156
v 60.405437 329.104218 -13.429517
v 339.594238 329.104218 -13.429517
v 0.000015 0.000000 -63.278843
v 0.000015 400.000000 -63.278843
v 400.000000 400.000000 -63.278843
v 400.000000 0.000000 -63.278843
v 60.405384 400.000000 -18.129299
v 339.594238 400.000000 -18.129299
v 339.594238 400.000000 0.000000
v 400.000000 400.000000 0.000000
v 60.405384 400.000000 0.000000
v 0.000015 400.000000 0.000000
v 400.000000 0.000004 0.000000
v 339.594238 0.000004 0.000000
v 339.594238 0.000004 -18.129299
v 60.405437 0.000004 -18.129299
v 60.405437 0.000004 0.000000
v 0.000019 -0.000004 0.000000
v 60.405384 400.000000 -4.752802
v 60.405437 0.000004 -4.752802
v 56.249050 0.000004 0.000000
v 56.249001 400.000000 0.000000
v 343.750610 400.000000 0.000000
v 343.750610 0.000004 0.000000
v 339.594238 0.000004 -4.693312
v 339.594238 400.000000 -4.693312
v 339.594238 342.294556 -18.129299
v 60.405384 342.294556 -18.129299
v 60.405453 101.590691 -18.129295
v 339.594238 101.590683 -18.129299
v 60.405437 110.482201 -8.422253
v 339.594269 110.482201 -8.422253
v 60.405437 92.549980 -15.069923
v 60.405437 99.197655 -8.422253
v 339.594269 99.197655 -8.422253
v 339.594269 92.549980 -15.069923
v 60.405437 101.400909 -8.422253
v 339.594269 101.400909 -8.422253
v 60.405437 92.549980 -17.500645
v 339.594269 92.549980 -17.500645
v 60.405437 110.482201 -11.235945
v 339.594269 110.482201 -11.235945
v 339.594269 107.108948 -8.422253
v 60.405437 107.108948 -8.422253
v 339.594269 110.482201 -65.180389
v 60.405437 110.482193 -65.180389
v 60.405437 92.549980 -65.180389
v 339.594269 92.549980 -65.180389
v 60.405453 101.590683 -63.278843
v 60.405453 342.294556 -63.278843
v 339.594238 101.590668 -63.278843
v 339.594238 342.294556 -63.278843
v 60.405453 101.590691 -20.916965
v 339.594238 101.590683 -20.916969
v 339.594238 342.294556 -20.916969
v 60.405384 342.294556 -20.916969
v 339.594238 101.590668 -58.359425
v 339.594238 342.294556 -58.359425
v 60.405453 101.590683 -58.359425
v 60.405453 342.294556 -58.359425
v 341.073730 343.707916 -63.278843
v 340.639954 99.831985 -63.278843
v 59.359749 99.832001 -63.278843
v 58.925961 343.707916 -63.278835
v 339.594238 342.294556 -61.873978
v 60.405453 342.294556 -61.873978
v 60.405453 101.590683 -61.873978
v 339.594238 101.590668 -61.873978
v 60.405437 329.104218 -65.920387
v 339.594238 329.104218 -65.920387
v 60.405437 357.044800 -65.920387
v 339.594238 357.044800 -65.920387
v 60.405437 357.044800 -49.299549
v 339.594238 357.044800 -49.299549
v 60.405437 329.104218 -49.299549
v 339.594238 329.104218 -49.299549
v 60.405437 357.044800 -63.036369
v 339.594238 357.044800 -63.036369
v 60.405437 354.456787 -65.920387
v 339.594238 354.504944 -65.920387
v 60.405437 331.533020 -65.920387
v 339.594238 331.480194 -65.920387
v 60.405437 329.104218 -63.554024
v 339.594238 329.104218 -63.554024
v 339.594238 357.044800 -56.179237
v 60.405437 357.044800 -56.179237
v 339.594238 329.104218 -56.744553
v 60.405437 329.104248 -56.744553
v 339.594238 355.282440 -63.069023
v 339.594238 330.914978 -63.520477
v 339.594238 331.556305 -65.920387
v 60.405437 355.305603 -63.068600
v 60.405437 330.936676 -63.520073
v 339.594269 110.482201 -62.949512
v 60.405437 110.482193 -62.949497
v 339.594269 92.549980 -63.019585
v 60.405437 92.549980 -63.019592
v 60.405434 108.864166 -62.955822
v 60.405434 108.864166 -65.180389
v 339.594238 108.864174 -65.180389
v 339.594238 108.864174 -62.955833
v 339.594269 94.415710 -63.012295
v 339.594269 94.415710 -65.180389
v 60.405437 94.415703 -65.180389
v 60.405437 94.415703 -63.012295
vt 0.047597 -0.688065
vt -0.988612 -0.688065
vt -0.988612 -0.697670
vt 0.047597 -0.697670
vt 0.047597 -0.708374
vt -0.988612 -0.708374
vt -0.988612 -0.759358
vt 0.047597 -0.759358
vt 0.047597 -0.585186
vt -0.988612 -0.585186
vt -0.988612 -0.593969
vt 0.047597 -0.593969
vt 0.047597 -0.602787
vt -0.988612 -0.602787
vt 0.047597 -0.532281
vt -0.988612 -0.532281
vt 0.143912 1.000000
vt -0.039011 1.000000
vt -0.039010 -0.300797
vt 0.143913 -0.300797
vt -0.067790 1.000000
vt -0.111483 0.812342
vt -0.111483 0.029575
vt -0.067789 -0.300797
vt -1.814758 -0.205476
vt -1.007842 -0.205487
vt -1.007842 0.490201
vt -1.814759 0.490189
vt 0.355805 -0.300796
vt 0.399305 0.029576
vt 0.399306 0.812342
vt 0.355806 1.000000
vt 0.143911 -0.300796
vt 0.326832 -0.300796
vt 0.326833 1.000000
vt 0.143912 1.000000
vt 0.340348 -0.300796
vt 0.340350 1.000000
vt -0.052527 1.000000
vt -0.052526 -0.300797
vt -0.111483 1.000000
vt 0.399306 1.000000
vt 0.399305 -0.300796
vt -1.802406 -0.504324
vt -0.989688 -0.504324
vt -0.989763 -0.208596
vt -1.802331 -0.208596
vt -0.111483 -0.300798
vt -1.802130 0.658804
vt -1.802128 0.490938
vt -0.989968 0.490938
vt -0.989965 0.658805
vt 2.120654 -0.694088
vt 2.120580 -0.295469
vt 0.057558 -0.295468
vt 0.057484 -0.694088
vt 2.120665 -0.781990
vt 2.120660 -0.739807
vt 0.057477 -0.739807
vt 0.057473 -0.781990
vt 0.057463 -0.885712
vt 2.120674 -0.885712
vt 2.120673 -0.867748
vt 0.057465 -0.867748
vt 0.057471 -0.798272
vt 2.120667 -0.798272
vt 0.057435 -1.238078
vt 2.120702 -1.238078
vt 2.120657 -0.714880
vt 0.057481 -0.714880
vt 0.444508 0.836432
vt 0.438594 0.826485
vt 0.438562 -0.534707
vt 0.446929 -0.542699
vt -1.140342 -0.534701
vt -1.140303 0.826488
vt -1.146216 0.836435
vt -1.148708 -0.542693
vt -0.731752 0.466491
vt -0.731767 -0.190276
vt 0.030007 -0.190276
vt 0.030023 0.466491
vt -0.989765 -0.200482
vt -1.802330 -0.200483
vt -0.120549 0.812342
vt -0.120548 0.029575
vt -1.802128 0.482829
vt -0.989968 0.482829
vt 0.408371 0.029575
vt 0.408371 0.812343
vt 0.430650 0.826484
vt 0.430618 -0.534706
vt -1.140303 0.818542
vt 0.438594 0.818539
vt -1.132397 -0.534702
vt -1.132359 0.826487
vt 0.438562 -0.526762
vt -1.140342 -0.526757
vt 0.780197 1.401045
vt 0.780147 -0.861036
vt -1.481884 1.401057
vt -1.481934 -0.861024
vt 0.438563 -0.506885
vt -1.140342 -0.506882
vt -1.112523 -0.534704
vt -1.112486 0.826484
vt -1.140305 0.798665
vt 0.438595 0.798662
vt 0.410776 0.826482
vt 0.410743 -0.534706
vt 0.057525 -0.688024
vt -0.978725 -0.688200
vt -0.978725 -0.697628
vt 0.057525 -0.697630
vt 0.057525 -0.708334
vt -0.978725 -0.708333
vt -0.978724 -0.733785
vt 0.057525 -0.733785
vt 0.057524 -0.585141
vt -0.978728 -0.585134
vt -0.978728 -0.593918
vt 0.057524 -0.593924
vt 0.057524 -0.602939
vt -0.978727 -0.602737
vt 0.057524 -0.532232
vt -0.978728 -0.532224
vt -0.978728 -0.559858
vt 0.057524 -0.559865
vt -0.978725 -0.759321
vt 0.057525 -0.759319
vt -1.013149 -0.593363
vt -0.987823 -0.600085
vt -0.987708 -0.593321
vt -0.978854 -0.602464
vt -0.978876 -0.593296
vt 0.093704 -0.697664
vt 0.068117 -0.691190
vt 0.068235 -0.697655
vt -1.015097 -0.697766
vt -0.989464 -0.697706
vt -0.989366 -0.691127
vt 0.091583 -0.593923
vt 0.066435 -0.600726
vt 0.066311 -0.593926
vt 2.120583 -0.311953
vt 0.057555 -0.311953
vt 2.120702 -1.222109
vt 0.057436 -1.222109
vt 2.136523 -0.162967
vt 2.120569 -0.162965
vt 2.137050 -0.295470
vt 0.041088 -0.295469
vt 0.057568 -0.162965
vt 0.041615 -0.162968
vt 0.041135 -0.283514
vt 0.057559 -0.283512
vt 2.120579 -0.283513
vt 2.137002 -0.283514
vt 2.136578 -0.176753
vt 2.120571 -0.176751
vt 0.057567 -0.176751
vt 0.041560 -0.176754
vn 0.000000 0.000000 1.000000
vn 0.000000 0.000000 1.000000
vn 0.000000 0.744267 0.667882
vn 0.000000 0.744267 0.667882
vn 0.000000 1.000000 0.000000
vn 0.000000 1.000000 0.000000
vn 0.000000 1.000000 0.000000
vn 0.000000 1.000000 0.000000
vn 0.000000 -1.000000 0.000000
vn 0.000000 -1.000000 0.000000
vn 0.000000 -0.705673 0.708538
vn 0.000000 -0.705673 0.708538
vn 0.000000 0.000000 1.000000
vn 0.000000 0.000000 1.000000
vn 0.000000 -1.000000 0.000000
vn 0.000000 -1.000000 0.000000
vn 0.000000 0.000000 1.000000
vn 0.000000 0.000000 1.000000
vn 0.000000 0.000000 1.000000
vn 0.000000 0.000000 1.000000
vn -1.000000 0.000000 0.000000
vn -1.000000 0.000000 0.000000
vn -1.000000 0.000000 0.000000
vn -1.000000 0.000000 0.000000
vn 0.000000 0.000000 1.000000
vn 0.000000 0.000000 1.000000
vn 0.000000 0.000000 1.000000
vn 0.000000 0.000000 1.000000
vn 1.000000 0.000000 0.000000
vn 1.000000 0.000000 0.000001
vn 1.000000 0.000000 0.000001
vn 1.000000 0.000000 0.000000
vn 0.000000 0.000000 1.000000
vn 0.000000 0.000000 1.000000
vn 0.000000 0.000000 1.000000
vn 0.000000 0.000000 1.000000
vn 0.752758 0.000000 0.658297
vn 0.752758 0.000000 0.658297
vn -0.748633 0.000000 0.662985
vn -0.748633 0.000000 0.662985
vn -1.000000 0.000000 0.000000
vn 1.000000 0.000000 0.000000
vn 1.000000 -0.000000 0.000000
vn 0.000000 -0.000000 1.000000
vn 0.000000 -0.000000 1.000000
vn 0.000000 -0.000000 1.000000
vn 0.000000 -0.000000 1.000000
vn -1.000000 0.000000 0.000000
vn 0.000000 0.000000 1.000000
vn 0.000000 0.000000 1.000000
vn 0.000000 0.000000 1.000000
vn 0.000000 0.000000 1.000000
vn -0.000000 1.000000 -0.000000
vn -0.000000 1.000000 -0.000000
vn -0.000000 1.000000 -0.000000
vn -0.000000 1.000000 -0.000000
vn 0.000000 0.000000 1.000000
vn 0.000000 0.000000 1.000000
vn 0.000000 0.000000 1.000000
vn 0.000000 0.000000 1.000000
vn 0.000000 -1.000000 0.000000
vn 0.000000 -1.000000 0.000000
vn 0.000000 -0.806821 0.590796
vn 0.000000 -0.806821 0.590796
vn 0.000000 -0.600548 0.799589
vn 0.000000 -0.600548 0.799589
vn 0.000000 -0.756895 -0.653536
vn 0.000000 -0.756895 -0.653536
vn 0.000000 -1.000000 0.000000
vn 0.000000 -1.000000 0.000000
vn 0.000000 0.640540 0.767925
vn 0.000000 0.640540 0.767925
vn 0.000000 0.000000 -1.000000
vn -0.554560 0.000000 -0.832144
vn -0.596943 0.000000 -0.802283
vn 0.000000 0.000000 -1.000000
vn 0.596943 0.000000 -0.802284
vn 0.554559 0.000000 -0.832145
vn 0.000000 0.000000 -1.000000
vn 0.000000 0.000000 -1.000000
vn 0.000000 0.510216 -0.860047
vn 0.000000 0.000000 -1.000000
vn 0.000000 0.000000 -1.000000
vn 0.000000 0.510216 -0.860046
vn 0.000000 0.000000 -1.000000
vn 0.000000 0.000000 -1.000000
vn 0.000000 0.000000 -1.000000
vn 0.000000 0.000000 -1.000000
vn -0.000000 -0.000000 -1.000000
vn -0.000000 -0.000000 -1.000000
vn 0.000000 -0.546652 -0.837360
vn 0.000000 -0.546652 -0.837360
vn 0.000000 1.000000 0.000000
vn 0.000000 1.000000 0.000000
vn 0.000000 1.000000 0.000000
vn 0.000000 1.000000 0.000000
vn -1.000000 0.000000 0.000000
vn -1.000000 0.000000 0.000000
vn -1.000000 0.000000 0.000000
vn -1.000000 0.000000 0.000000
vn 0.000000 -1.000000 0.000000
vn 0.000000 -1.000000 0.000000
vn 0.000000 -1.000000 0.000000
vn 0.000000 -1.000000 0.000000
vn 1.000000 0.000000 0.000000
vn 1.000000 0.000000 0.000000
vn 1.000000 0.000000 0.000000
vn 1.000000 0.000000 0.000000
vn -1.000000 0.000000 0.000000
vn -1.000000 0.000000 0.000000
vn 0.000000 1.000000 0.000000
vn 0.000000 1.000000 0.000000
vn 1.000000 0.000000 0.000000
vn 1.000000 0.000000 0.000000
vn 0.000000 -1.000000 0.000000
vn 0.000000 -1.000000 0.000000
vn 0.000000 0.000000 -1.000000
vn 0.000000 0.000000 -1.000000
vn 0.000000 0.000000 -1.000000
vn 0.000000 0.000000 -1.000000
vn 0.000000 0.000000 -1.000000
vn 0.000000 0.000000 -1.000000
vn -0.000000 -0.000000 -1.000000
vn -0.000000 -0.000000 -1.000000
vn 0.000000 -1.000000 0.000000
vn 0.000000 -1.000000 0.000000
vn 1.000000 0.000000 0.000000
vn 1.000000 0.000000 0.000000
vn 0.000000 1.000000 0.000000
vn 0.000000 1.000000 0.000000
vn -1.000000 0.000000 0.000000
vn -1.000000 0.000000 0.000000
vn 0.000000 0.000000 -1.000000
vn 0.000000 0.747363 -0.664416
vn 0.000000 0.747363 -0.664416
vn 0.000000 0.000000 -1.000000
vn 0.000000 1.000000 0.000000
vn 0.000000 1.000000 0.000000
vn 0.000000 1.000000 0.000000
vn 0.000000 1.000000 0.000000
vn -0.000000 -1.000000 0.000003
vn 0.000000 -0.701750 -0.712424
vn 0.000000 -0.701750 -0.712424
vn -0.000000 -1.000000 0.000003
vn 0.000000 0.000000 -1.000000
vn 0.000000 0.000000 -1.000000
vn -0.000000 -1.000000 -0.000004
vn -0.000000 -1.000000 0.000000
vn -0.000000 -1.000000 0.000000
vn -0.000000 -1.000000 -0.000004
vn 0.000000 1.000000 0.000000
vn 0.000000 1.000000 0.000000
vn 1.000000 0.000040 0.000000
vn 1.000000 0.000040 0.000000
vn 1.000000 0.000040 0.000000
vn 1.000000 -0.000012 0.000000
vn 1.000000 -0.000012 0.000000
vn 1.000000 -0.000012 0.000000
vn 1.000000 -0.000012 0.000000
vn -1.000000 0.000005 0.000000
vn -1.000000 0.000005 0.000000
vn -1.000000 0.000005 0.000000
vn -1.000000 0.000002 0.000000
vn -1.000000 0.000002 0.000000
vn -1.000000 0.000002 0.000000
vn -1.000000 0.000002 0.000000
vn 1.000000 -0.000040 0.000000
vn 1.000000 -0.000040 0.000000
vn 1.000000 -0.000040 0.000000
vn 1.000000 0.000000 0.000000
vn 1.000000 0.000000 0.000000
vn 1.000000 0.000000 0.000000
vn 1.000000 0.000000 0.000000
vn 1.000000 0.000000 0.000000
vn 1.000000 0.000000 0.000000
vn 1.000000 0.000000 0.000000
vn 1.000000 0.000000 0.000000
vn 1.000000 0.000000 0.000000
vn 1.000000 0.000000 0.000000
vn 1.000000 0.000000 0.000000
vn 1.000000 0.000000 0.000000
vn -1.000000 0.000000 0.000000
vn -1.000000 0.000000 0.000000
vn -1.000000 0.000000 0.000000
vn -1.000000 0.000000 0.000000
vn -1.000000 0.000000 0.000000
vn -1.000000 0.000000 0.000000
vn -1.000000 0.000000 0.000000
vn -1.000000 0.000000 0.000000
vn -1.000000 0.000000 0.000000
vn -1.000000 0.000000 0.000000
vn -1.000000 0.000000 0.000000
vn -1.000000 0.000000 0.000000
vn -1.000000 0.000000 0.000000
vn -1.000000 0.000000 0.000000
vn -1.000000 0.000000 0.000000
vn -0.000000 0.809505 -0.587113
vn -0.000000 0.809501 -0.587119
vn 1.000000 0.000002 0.000000
vn 1.000000 0.000002 0.000000
vn 1.000000 0.000002 0.000000
vn 1.000000 0.000002 0.000000
vn 0.000000 0.000000 -1.000000
vn 0.000000 0.000000 -1.000000
vn 0.000000 0.000000 -1.000000
vn 0.000000 0.000000 -1.000000
vn -1.000000 -0.000000 0.000000
vn -1.000000 -0.000000 0.000000
vn -1.000000 -0.000000 0.000000
vn -1.000000 -0.000000 0.000000
vn -1.000000 -0.000000 0.000000
vn -1.000000 -0.000000 0.000000
vn -1.000000 -0.000000 0.000000
vn -1.000000 -0.000000 0.000000
vn 1.000000 -0.000013 0.000000
vn 1.000000 -0.000013 0.000000
vn 1.000000 -0.000013 0.000000
vn 1.000000 -0.000013 0.000000
vn 1.000000 0.000004 0.000000
vn 1.000000 0.000004 0.000000
vn 1.000000 0.000004 0.000000
vn 1.000000 0.000004 0.000000
vn -1.000000 0.000000 0.000000
vn -1.000000 0.000000 0.000000
vn -1.000000 0.000000 0.000000
vn -1.000000 0.000000 0.000000
g BuildingA_Top_Wall_Short_VarA_LOD0 BuildingA_Top_Wall_Short_VarA
usemtl BuildingA_Bottom_Wall_Long_VarA_LOD0SG3
f 11/1/1 12/2/2 4/3/3 3/4/4
f 9/5/5 10/6/6 6/7/7 5/8/8
f 15/9/9 16/10/10 2/11/11 1/12/12
f 3/4/4 4/3/3 10/6/6 9/5/5
f 13/13/13 14/14/14 12/2/2 11/1/1
f 1/12/12 2/11/11 14/14/14 13/13/13
f 7/15/15 8/16/16 16/10/10 15/9/9
usemtl BuildingA_Bottom_Corner_LOD0SG
f 24/17/17 37/18/18 38/19/19 27/20/20
f 40/21/21 41/22/22 44/23/23 39/24/24
usemtl BuildingA_Bottom_Wall_Long_VarA_LOD0SG2
f 67/25/25 68/26/26 69/27/27 70/28/28
usemtl BuildingA_Bottom_Corner_LOD0SG
f 34/29/29 43/30/30 42/31/31 33/32/32
f 32/33/33 35/34/34 36/35/35 26/36/36
f 31/37/37 34/29/29 33/32/32 25/38/38
f 35/34/34 31/37/37 25/38/38 36/35/35
f 37/18/18 23/39/39 28/40/40 38/19/19
f 23/39/39 40/21/21 39/24/24 28/40/40
f 22/41/41 41/22/22 40/21/21
f 33/32/32 42/31/31 21/42/42
f 34/29/29 30/43/43 43/30/30
f 30/44/44 29/45/45 44/46/46 43/47/47
f 39/24/24 44/23/23 29/48/48
f 21/49/49 42/50/50 41/51/51 22/52/52
usemtl BuildingA_Bottom_Corner_LOD0SG2
f 56/53/53 108/145/54 109/146/55 55/56/56
f 52/57/57 57/58/58 58/59/59 51/60/60
f 53/61/61 54/62/62 50/63/63 47/64/64
f 48/65/65 47/64/64 50/63/63 49/66/66
f 49/66/66 52/57/57 51/60/60 48/65/65
f 61/67/67 62/68/68 110/147/69 111/148/70
f 46/69/71 56/53/53 55/56/56 45/70/72
f 58/59/59 57/58/58 46/69/71 45/70/72
usemtl BuildingA_Bottom_Corner_LOD0SG1
f 76/71/73 65/72/74 66/73/75 75/74/76
f 64/75/77 63/76/78 77/77/79 78/78/80
f 65/72/81 76/71/82 77/77/83 63/76/84
usemtl BuildingA_Bottom_Corner_LOD0SG
f 72/79/85 71/80/86 73/81/87 74/82/88
usemtl BuildingA_Bottom_Corner_LOD0SG1
f 78/78/89 75/74/90 66/73/91 64/75/92
usemtl BuildingA_Bottom_Corner_LOD0SG
f 43/47/93 44/46/94 68/83/95 67/84/96
f 44/23/97 41/22/98 69/85/99 68/86/100
f 41/51/101 42/50/102 70/87/103 69/88/104
f 42/31/105 43/30/106 67/89/107 70/90/108
usemtl BuildingA_Bottom_Corner_LOD0SG1
f 66/73/75 65/72/74 82/91/109 79/92/110
f 65/72/81 63/76/84 81/93/111 82/94/112
f 63/76/78 64/75/77 80/95/113 81/96/114
f 64/75/92 66/73/91 79/97/115 80/98/116
f 20/99/117 76/71/73 75/74/76 19/100/118
f 77/77/83 76/71/82 20/99/119 17/101/120
f 78/78/80 77/77/79 17/101/121 18/102/122
f 19/100/123 75/74/90 78/78/89 18/102/124
f 80/98/116 79/97/115 72/103/125 74/104/126
f 81/96/114 80/95/113 74/105/127 73/106/128
f 82/94/112 81/93/111 73/107/129 71/108/130
f 79/92/110 82/91/109 71/109/131 72/110/132
usemtl BuildingA_Bottom_Wall_Long_VarA_LOD0SG3
f 93/111/133 85/114/134 86/113/135 94/112/136
f 91/115/137 100/118/138 99/117/139 92/116/140
f 97/119/141 83/122/142 84/121/143 98/120/144
f 85/114/134 91/115/137 92/116/140 86/113/135
f 95/123/145 93/111/133 94/112/136 96/124/146
f 83/122/142 95/123/145 96/124/146 84/121/143
f 89/125/147 102/128/148 101/127/149 90/126/150
f 100/118/138 87/130/151 88/129/152 99/117/139
f 102/128/148 97/119/141 98/120/144 101/127/149
f 101/131/153 98/133/154 104/132/155
f 104/132/156 98/133/157 84/135/158 105/134/159
f 100/136/160 91/138/161 106/137/162
f 106/137/163 91/138/164 85/114/165 93/111/166
f 99/139/167 103/141/168 92/140/169
f 92/140/170 103/141/171 94/112/172 86/113/173
f 99/139/174 101/131/175 104/132/176 103/141/177
f 103/141/178 104/132/179 105/134/180 94/112/181
f 102/142/182 100/136/183 106/137/184 107/143/185
f 107/143/186 106/137/187 93/111/188 95/123/189
f 102/142/190 107/143/191 97/144/192
f 97/144/193 107/143/194 95/123/195 83/122/196
usemtl BuildingA_Bottom_Corner_LOD0SG2
f 109/146/55 108/145/54 59/54/197 60/55/198
f 111/148/70 110/147/69 54/62/62 53/61/61
f 116/159/199 117/160/200 114/157/201 115/158/202
f 113/156/203 114/157/204 117/160/205 118/161/206
f 112/155/207 113/156/208 118/161/209 119/162/210
f 109/152/211 60/55/212 113/156/213 112/155/214
f 60/55/198 59/54/197 114/157/204 113/156/203
f 115/158/215 114/157/216 59/54/217 108/151/218
f 110/149/219 62/150/220 117/160/221 116/159/222
f 118/161/206 117/160/205 62/150/68 61/153/67
f 119/162/223 118/161/224 61/153/225 111/154/226
