# This file uses meters as units for non-parametric coordinates.

mtllib BuildingA_Bottom_Wall_Short_VarA_LOD1.mtl
g default
v 60.405437 329.104218 -11.063156
v 339.594238 329.104218 -11.063156
v 60.405437 357.044800 -11.063156
v 339.594238 357.044800 -11.063156
v 60.405437 357.044800 -27.683994
v 339.594238 357.044800 -27.683994
v 60.405437 329.104218 -27.683994
v 339.594238 329.104218 -27.683994
v 0.000015 0.000000 -63.278843
v 0.000015 400.000000 -63.278843
v 400.000000 400.000000 -63.278843
v 400.000000 0.000000 -63.278843
v 60.405384 400.000000 -18.129299
v 339.594238 400.000000 -18.129299
v 339.594238 400.000000 0.000000
v 400.000000 400.000000 0.000000
v 60.405384 400.000000 0.000000
v 0.000015 400.000000 0.000000
v 400.000000 0.000004 0.000000
v 339.594238 0.000004 0.000000
v 339.594238 0.000004 -18.129299
v 60.405437 0.000004 -18.129299
v 60.405437 0.000004 0.000000
v 0.000019 -0.000004 0.000000
v 0.000019 0.000000 3.258097
v 63.506542 0.000000 3.258097
v 0.000019 50.000000 3.258097
v 63.506542 50.000000 3.258097
v 0.000019 50.000000 -22.778170
v 63.506542 50.000000 -22.778170
v 63.506542 0.000000 -22.778170
v 400.000000 0.000000 3.258097
v 336.493469 0.000000 3.258097
v 400.000000 50.000000 3.258097
v 336.493469 50.000000 3.258097
v 400.000000 50.000000 -22.778172
v 336.493469 50.000000 -22.778172
v 336.493469 0.000000 -22.778172
v 339.594238 342.294556 -18.129299
v 60.405384 342.294556 -18.129299
v 60.405453 101.590691 -18.129295
v 339.594238 101.590683 -18.129299
v 60.405437 110.482201 -8.422253
v 339.594269 110.482201 -8.422253
v 60.405437 92.549980 -15.069923
v 60.405437 99.197655 -8.422253
v 339.594269 99.197655 -8.422253
v 339.594269 92.549980 -15.069923
v 339.594269 110.482201 -65.414429
v 60.405437 110.482193 -65.414429
v 60.405437 92.549980 -65.414429
v 339.594269 92.549980 -65.414429
v 60.405384 342.294556 -63.278843
v 339.594238 342.294556 -63.278843
v 60.405384 101.590683 -63.278843
v 339.594238 101.590706 -63.278843
v 60.405384 342.294556 -59.778839
v 339.594238 342.294556 -59.778839
v 339.594238 101.590706 -59.778839
v 60.405384 101.590683 -59.778839
v 60.405453 101.590691 -21.629295
v 339.594238 101.590683 -21.629299
v 339.594238 342.294556 -21.629299
v 60.405384 342.294556 -21.629299
v 60.405437 329.104218 -65.888412
v 339.594238 329.104218 -65.888412
v 60.405437 357.044800 -65.888412
v 339.594238 357.044800 -65.888412
v 60.405437 357.044800 -49.267570
v 339.594238 357.044800 -49.267570
v 60.405437 329.104218 -49.267570
v 339.594238 329.104218 -49.267570
v 60.405437 357.044800 -63.004391
v 339.594238 357.044800 -63.004391
v 60.405437 329.104218 -63.113342
v 339.594238 329.104218 -63.113342
v 339.594269 110.482201 -62.995956
v 60.405437 110.482193 -62.995953
v 339.594269 92.549980 -62.883141
v 60.405437 92.549980 -62.883144
vt -0.988612 -0.697670
vt 0.047597 -0.697670
vt -0.988612 -0.759358
vt 0.047597 -0.759358
vt -0.988612 -0.593969
vt 0.047597 -0.593969
vt 0.047597 -0.532281
vt -0.988612 -0.532281
vt 0.143912 1.000000
vt 0.143913 -0.300797
vt -0.052527 0.999405
vt -0.111483 0.807546
vt -0.111483 0.034372
vt -0.052526 -0.300127
vt -1.802130 -0.209273
vt -0.989965 -0.209273
vt -0.989965 0.490938
vt -1.802130 0.490938
vt 0.340349 -0.300126
vt 0.399305 0.034372
vt 0.399306 0.807546
vt 0.340350 0.999405
vt 0.143911 -0.300796
vt 0.143912 1.000000
vt 2.350214 -0.068039
vt 2.131113 -0.068039
vt 2.349692 0.686269
vt 2.350214 0.466740
vt 2.131113 0.466328
vt 2.771355 -0.068039
vt 2.771355 0.466741
vt 2.771355 0.686268
vt 1.762367 -0.034923
vt 1.989768 -0.034923
vt 1.762366 0.747146
vt 1.762366 0.519745
vt 1.989767 0.519745
vt 1.325665 -0.034923
vt 1.325665 0.519745
vt 1.325665 0.747146
vt -0.111483 1.000000
vt 0.399306 1.000000
vt 0.399305 -0.300796
vt -1.802129 -0.504802
vt -0.989965 -0.504802
vt -0.989960 -0.209274
vt -1.802134 -0.209275
vt -0.111483 -0.300798
vt -1.802130 0.658804
vt -1.802131 0.490939
vt -0.989964 0.490939
vt -0.989965 0.658805
vt 1.995453 -0.343438
vt 0.182686 -0.343437
vt 1.995450 -0.847798
vt 0.182688 -0.847798
vt 0.182689 -0.786756
vt 1.995448 -0.786756
vt 0.182688 -0.227003
vt 1.995446 -1.174681
vt 1.995450 -0.713486
vt 0.182688 -0.713487
vt -1.052414 0.825161
vt 0.474487 0.825161
vt 0.474487 -0.490272
vt -1.052414 -0.490272
vt -0.728005 -0.219118
vt 0.147444 -0.219118
vt 0.147444 0.535655
vt -0.728005 0.535655
vt 0.464750 -0.480310
vt -1.043171 -0.480310
vt 0.464750 0.815009
vt -1.043171 0.815009
vt 0.804047 -0.806421
vt -1.383045 -0.806421
vt 0.804047 1.381387
vt -1.383045 1.381387
vt -0.989960 -0.199092
vt -1.802134 -0.199093
vt -0.122586 0.802749
vt -0.122586 0.039168
vt -1.802132 0.480757
vt -0.989964 0.480757
vt 0.410408 0.039169
vt 0.410409 0.802750
vt -0.980221 -0.697819
vt 0.056010 -0.697899
vt 0.056008 -0.708606
vt -0.980221 -0.708519
vt -0.980227 -0.759486
vt 0.056000 -0.759597
vt 0.055999 -0.583819
vt -0.980212 -0.583906
vt -0.980213 -0.594203
vt 0.056002 -0.594122
vt 0.055989 -0.532411
vt -0.980217 -0.532525
vt 0.066745 -0.697908
vt -0.990919 -0.697781
vt 0.066324 -0.594115
vt -0.990500 -0.594237
vt 1.995454 -0.359141
vt 0.166990 -0.343437
vt 2.011895 -0.227004
vt 0.182691 -1.158246
vt 1.995447 -0.227003
vt 0.166244 -0.227004
vt 0.182692 -1.174682
vt 0.182685 -0.359141
vt 2.011147 -0.343438
vt 1.995446 -1.158246
vn 0.000000 0.000000 1.000000
vn 0.000000 0.000000 1.000000
vn 0.000000 0.000000 1.000000
vn 0.000000 0.000000 1.000000
vn 0.000000 1.000000 0.000000
vn 0.000000 1.000000 0.000000
vn 0.000000 1.000000 0.000000
vn 0.000000 1.000000 0.000000
vn 0.000000 -1.000000 0.000000
vn 0.000000 -1.000000 0.000000
vn 0.000000 -1.000000 0.000000
vn 0.000000 -1.000000 0.000000
vn 0.000000 0.000000 1.000000
vn 0.000000 0.000000 1.000000
vn 0.000000 0.000000 1.000000
vn 0.000000 0.000000 1.000000
vn -1.000000 0.000000 0.000000
vn -1.000000 0.000000 0.000000
vn -1.000000 0.000000 0.000000
vn -1.000000 0.000000 0.000000
vn 0.000000 0.000000 1.000000
vn 0.000000 0.000000 1.000000
vn 0.000000 0.000000 1.000000
vn 0.000000 0.000000 1.000000
vn 1.000000 0.000000 0.000001
vn 1.000000 0.000000 0.000001
vn 1.000000 0.000000 0.000001
vn 1.000000 0.000000 0.000001
vn 0.000000 0.000000 1.000000
vn 0.000000 0.000000 1.000000
vn 0.000000 0.000000 1.000000
vn 0.000000 0.000000 1.000000
vn 0.000000 0.000000 1.000000
vn 0.000000 0.000000 1.000000
vn 0.000000 0.000000 1.000000
vn 0.000000 0.000000 1.000000
vn 0.000000 1.000000 0.000000
vn 0.000000 1.000000 0.000000
vn 0.000000 1.000000 0.000000
vn 0.000000 1.000000 0.000000
vn 1.000000 0.000000 0.000000
vn 1.000000 0.000000 0.000000
vn 1.000000 0.000000 0.000000
vn 1.000000 0.000000 0.000000
vn 0.000000 0.000000 1.000000
vn 0.000000 0.000000 1.000000
vn 0.000000 0.000000 1.000000
vn 0.000000 0.000000 1.000000
vn 0.000000 1.000000 0.000000
vn 0.000000 1.000000 0.000000
vn 0.000000 1.000000 0.000000
vn 0.000000 1.000000 0.000000
vn -1.000000 0.000000 0.000000
vn -1.000000 0.000000 0.000000
vn -1.000000 0.000000 0.000000
vn -1.000000 0.000000 0.000000
vn -1.000000 0.000000 0.000000
vn -1.000000 0.000000 0.000000
vn -1.000000 0.000000 0.000000
vn 1.000000 0.000000 0.000000
vn 1.000000 0.000000 0.000000
vn 1.000000 0.000000 0.000000
vn 1.000000 -0.000000 0.000000
vn 1.000000 -0.000000 0.000000
vn 1.000000 -0.000000 0.000000
vn 0.000000 -0.000000 1.000000
vn 0.000000 -0.000000 1.000000
vn 0.000000 -0.000000 1.000000
vn 0.000000 -0.000000 1.000000
vn -1.000000 0.000000 0.000000
vn -1.000000 0.000000 0.000000
vn -1.000000 0.000000 0.000000
vn 0.000000 0.000000 1.000000
vn 0.000000 0.000000 1.000000
vn 0.000000 0.000000 1.000000
vn 0.000000 0.000000 1.000000
vn -0.000000 1.000000 -0.000000
vn -0.000000 1.000000 -0.000000
vn -0.000000 1.000000 -0.000000
vn -0.000000 1.000000 -0.000000
vn 0.000000 0.000000 1.000000
vn 0.000000 0.000000 1.000000
vn 0.000000 0.000000 1.000000
vn 0.000000 0.000000 1.000000
vn 0.000000 -1.000000 0.000000
vn 0.000000 -1.000000 0.000000
vn 0.000000 -1.000000 0.000000
vn 0.000000 -1.000000 0.000000
vn 0.000000 -0.707107 0.707107
vn 0.000000 -0.707107 0.707107
vn 0.000000 -0.707107 0.707107
vn 0.000000 -0.707107 0.707107
vn 0.000000 -1.000000 0.000000
vn 0.000000 -1.000000 0.000000
vn 0.000000 -1.000000 0.000000
vn 0.000000 -1.000000 0.000000
vn 0.000000 0.000000 -1.000000
vn 0.000000 0.000000 -1.000000
vn 0.000000 0.000000 -1.000000
vn 0.000000 0.000000 -1.000000
vn 0.000000 0.000000 -1.000000
vn 0.000000 0.000000 -1.000000
vn 0.000000 0.000000 -1.000000
vn 0.000000 0.000000 -1.000000
vn 0.000000 0.000000 -1.000000
vn 0.000000 0.000000 -1.000000
vn 0.000000 0.000000 -1.000000
vn 0.000000 0.000000 -1.000000
vn 0.000000 0.000000 -1.000000
vn 0.000000 0.000000 -1.000000
vn 0.000000 0.000000 -1.000000
vn 0.000000 0.000000 -1.000000
vn 0.000000 0.000000 -1.000000
vn 0.000000 0.000000 -1.000000
vn 0.000000 0.000000 -1.000000
vn 0.000000 0.000000 -1.000000
vn 0.000000 -1.000000 0.000000
vn 0.000000 -1.000000 0.000000
vn 0.000000 -1.000000 0.000000
vn 0.000000 -1.000000 0.000000
vn -1.000000 0.000000 0.000000
vn -1.000000 0.000000 0.000000
vn -1.000000 0.000000 0.000000
vn -1.000000 0.000000 0.000000
vn -0.000000 1.000000 0.000000
vn -0.000000 1.000000 0.000000
vn -0.000000 1.000000 0.000000
vn -0.000000 1.000000 0.000000
vn 1.000000 0.000000 0.000000
vn 1.000000 0.000000 0.000000
vn 1.000000 0.000000 0.000000
vn 1.000000 0.000000 0.000000
vn 0.000000 1.000000 0.000000
vn 0.000000 1.000000 0.000000
vn 0.000000 1.000000 0.000000
vn 0.000000 1.000000 0.000000
vn -1.000000 0.000000 0.000000
vn -1.000000 0.000000 0.000000
vn -1.000000 0.000000 0.000000
vn -1.000000 0.000000 0.000000
vn 0.000000 -1.000000 0.000000
vn 0.000000 -1.000000 0.000000
vn 0.000000 -1.000000 0.000000
vn 0.000000 -1.000000 0.000000
vn 1.000000 0.000000 0.000000
vn 1.000000 0.000000 0.000000
vn 1.000000 0.000000 0.000000
vn 1.000000 0.000000 0.000000
vn 0.000000 1.000000 0.000000
vn 0.000000 1.000000 0.000000
vn 0.000000 1.000000 0.000000
vn 0.000000 1.000000 0.000000
vn 0.000000 -1.000000 0.000000
vn 0.000000 -1.000000 0.000000
vn 0.000000 -1.000000 0.000000
vn 0.000000 -1.000000 0.000000
vn 0.000000 1.000000 0.000000
vn 0.000000 1.000000 0.000000
vn 0.000000 1.000000 0.000000
vn 0.000000 1.000000 0.000000
vn 0.000000 -1.000000 0.000000
vn 0.000000 -1.000000 0.000000
vn 0.000000 -1.000000 0.000000
vn 0.000000 -1.000000 0.000000
vn -1.000000 0.000000 0.000000
vn -1.000000 0.000000 0.000000
vn -1.000000 0.000000 0.000000
vn -1.000000 0.000000 0.000000
vn 0.000000 0.000000 -1.000000
vn 0.000000 0.000000 -1.000000
vn 0.000000 0.000000 -1.000000
vn 0.000000 0.000000 -1.000000
vn 1.000000 0.000000 0.000000
vn 1.000000 0.000000 0.000000
vn 1.000000 0.000000 0.000000
vn 1.000000 0.000000 0.000000
vn -0.000000 1.000000 0.000000
vn -0.000000 1.000000 0.000000
vn -0.000000 1.000000 0.000000
vn -0.000000 1.000000 0.000000
vn 1.000000 0.000000 0.000000
vn 1.000000 0.000000 0.000000
vn 1.000000 0.000000 0.000000
vn 1.000000 0.000000 0.000000
vn -1.000000 0.000000 0.000000
vn -1.000000 0.000000 0.000000
vn -1.000000 0.000000 0.000000
vn -1.000000 0.000000 0.000000
vn 0.000000 0.000000 -1.000000
vn 0.000000 0.000000 -1.000000
vn 0.000000 0.000000 -1.000000
vn 0.000000 0.000000 -1.000000
g BuildingA_Bottom_Wall_Short_VarA_LOD1 BuildingA_Bottom_Wall_Short_VarA
usemtl BuildingA_Bottom_Wall_Long_VarA_LOD0SG3
f 2/5/1 4/1/2 3/2/3 1/6/4
f 4/1/5 6/3/6 5/4/7 3/2/8
f 8/8/9 2/5/10 1/6/11 7/7/12
usemtl BuildingA_Bottom_Corner_LOD0SG
f 20/14/13 19/10/14 16/9/15 15/11/16
f 15/11/17 39/12/18 42/13/19 20/14/20
usemtl BuildingA_Bottom_Wall_Long_VarA_LOD0SG2
f 61/15/21 62/16/22 63/17/23 64/18/24
usemtl BuildingA_Bottom_Corner_LOD0SG
f 23/19/25 41/20/26 40/21/27 17/22/28
f 17/22/29 18/24/30 24/23/31 23/19/32
usemtl BuildingA_Bottom_Corner_LOD0SG2
f 28/28/33 27/25/34 25/30/35 26/31/36
f 30/29/37 29/26/38 27/25/39 28/28/40
f 30/27/41 28/28/42 26/31/43 31/32/44
f 33/39/45 32/38/46 34/33/47 35/36/48
f 34/33/49 36/34/50 37/37/51 35/36/52
f 38/40/53 33/39/54 35/36/55 37/35/56
usemtl BuildingA_Bottom_Corner_LOD0SG
f 14/41/57 39/12/58 15/11/59
f 17/22/60 40/21/61 13/42/62
f 23/19/63 22/43/64 41/20/65
f 22/44/66 21/45/67 42/46/68 41/47/69
f 20/14/70 42/13/71 21/48/72
f 13/49/73 40/50/74 39/51/75 14/52/76
usemtl BuildingA_Bottom_Corner_LOD0SG2
f 44/61/77 77/103/78 78/110/79 43/62/80
f 47/58/81 44/61/82 43/62/83 46/57/84
f 79/112/85 48/55/86 45/56/87 80/106/88
f 46/57/89 45/56/90 48/55/91 47/58/92
f 51/109/93 52/60/94 79/112/95 80/106/96
usemtl BuildingA_Bottom_Corner_LOD0SG1
f 55/63/97 56/64/98 12/77/99 9/78/100
f 54/65/101 53/66/102 10/76/103 11/75/104
f 10/76/105 53/66/106 55/63/107 9/78/108
usemtl BuildingA_Bottom_Wall_Long_VarA_LOD0SG2
f 57/67/109 58/68/110 59/69/111 60/70/112
usemtl BuildingA_Bottom_Corner_LOD0SG1
f 56/64/113 54/65/114 11/75/115 12/77/116
f 58/71/117 57/72/118 53/66/119 54/65/120
f 59/73/121 58/71/122 54/65/123 56/64/124
f 60/74/125 59/73/126 56/64/127 55/63/128
f 53/66/129 57/72/130 60/74/131 55/63/132
usemtl BuildingA_Bottom_Corner_LOD0SG
f 41/47/133 42/46/134 62/79/135 61/80/136
f 42/13/137 39/12/138 63/81/139 62/82/140
f 39/51/141 40/50/142 64/83/143 63/84/144
f 40/21/145 41/20/146 61/85/147 64/86/148
usemtl BuildingA_Bottom_Wall_Long_VarA_LOD0SG3
f 73/89/149 69/92/150 70/91/151 74/90/152
f 75/93/153 65/96/154 66/95/155 76/94/156
f 67/88/157 73/89/158 74/90/159 68/87/160
f 71/97/161 75/93/162 76/94/163 72/98/164
f 65/96/165 75/101/166 73/99/167 67/88/168
f 66/95/169 65/96/170 67/88/171 68/87/172
f 74/100/173 76/102/174 66/95/175 68/87/176
usemtl BuildingA_Bottom_Corner_LOD0SG2
f 78/110/177 77/103/178 49/53/179 50/54/180
f 49/53/181 77/111/182 79/105/183 52/107/184
f 80/108/185 78/104/186 50/54/187 51/59/188
f 50/54/189 49/53/190 52/107/191 51/59/192
