# This file uses meters as units for non-parametric coordinates.

mtllib BuildingA_Ledge_Short3M_LOD0.mtl
g default
v 300.000000 0.000000 3.435802
v 269.655396 0.000000 3.435802
v 300.000000 52.471527 3.435802
v 269.655396 52.471527 3.435802
v 300.000000 52.471527 -67.648079
v 269.655396 52.471527 -67.648079
v 300.000000 0.000000 -67.648079
v 269.655396 0.000000 -67.648079
v 269.655396 26.235779 -67.648079
v 300.000000 24.707092 -67.648079
v 269.655396 26.235779 -14.994432
v 269.655396 0.000000 -14.994432
v 300.000000 0.000000 -14.994432
v 0.000015 0.000000 3.435802
v 29.662529 0.000000 3.435802
v 0.000015 52.471527 3.435802
v 29.662529 52.471527 3.435802
v 0.000015 52.471527 -67.648079
v 29.662529 52.471527 -67.648079
v 0.000015 0.000000 -67.648079
v 29.662529 0.000000 -67.648079
v 29.662529 26.235779 -67.648079
v 0.000015 24.707092 -67.648079
v 29.662529 26.235779 -14.994432
v 29.662529 0.000000 -14.994432
v 0.000015 0.000000 -14.994432
v 300.000000 48.892487 3.435802
v 269.655396 48.892487 3.435802
v 269.655396 22.656677 -14.994432
v 29.662529 22.656677 -14.994432
v 29.662529 48.892487 3.435802
v 0.000015 48.892487 3.435802
v 300.000000 52.471527 0.081823
v 269.655396 52.471527 0.081823
v 269.655396 26.235779 -18.348412
v 29.662529 26.235779 -18.348412
v 29.662529 52.471527 0.081823
v 0.000015 52.471527 0.081823
v 26.203850 26.235779 -67.648079
v 26.203850 52.471527 -67.648079
v 26.203850 52.471527 0.081823
v 26.203850 52.471527 3.435802
v 26.203850 48.892456 3.435802
v 26.203850 0.000000 3.435802
v 26.203850 0.000000 -14.994432
v 26.203850 0.000000 -67.648079
v 300.000000 3.661102 3.435802
v 269.655457 3.661102 3.435802
v 269.655396 3.661163 -14.994432
v 29.662529 3.661163 -14.994432
v 29.662529 3.661102 3.435802
v 26.203850 3.661072 3.435802
v 0.000015 3.661102 3.435802
v 272.890442 48.892487 3.435802
v 272.890442 3.661102 3.435802
v 272.890442 0.000000 3.435802
v 272.890442 0.000000 -14.994432
v 272.890442 0.000000 -67.648079
v 272.890442 26.235779 -67.648079
v 272.890442 52.471527 -67.648079
v 272.890442 52.471527 0.081823
v 272.890442 52.471527 3.435802
v 300.000000 52.471527 -63.857430
v 272.890442 52.471527 -63.857430
v 269.655396 52.471527 -63.857430
v 269.655396 26.235779 -63.857422
v 29.662529 26.235779 -63.857422
v 29.662529 52.471527 -63.857430
v 26.203850 52.471527 -63.857430
v 0.000015 52.471527 -63.857430
v 272.890442 23.178375 -67.648079
v 269.655396 23.178375 -67.648079
v 29.662529 23.178375 -67.648079
v 26.203850 23.178375 -67.648079
v 300.000000 2.849304 -67.648079
v 272.890442 2.849304 -67.648079
v 269.655396 2.849304 -67.648079
v 29.662529 2.849304 -67.648079
v 26.203850 2.849304 -67.648079
v 0.000015 2.849304 -67.648079
v 300.000000 0.000000 -64.485992
v 272.890442 0.000000 -64.485992
v 269.655396 0.000000 -64.485992
v 29.662529 0.000000 -64.485992
v 26.203850 0.000000 -64.485992
v 0.000015 0.000000 -64.485992
v 0.000015 0.000000 1.071325
v 26.203848 0.000000 1.071325
v 29.662529 0.000000 1.071325
v 29.662529 3.661102 1.071325
v 29.662529 45.526611 1.071325
v 29.662529 49.105682 1.071325
v 29.662529 49.105682 -2.282654
v 29.662529 49.105682 -63.857430
v 29.662529 49.105682 -67.648079
v 26.203850 49.105682 -67.648079
v 0.000015 48.909576 -67.648079
v 300.000000 0.000000 0.652616
v 272.890442 0.000000 0.652616
v 269.655396 0.000000 0.652616
v 269.655457 3.661102 0.652616
v 269.655396 44.930542 0.652616
v 269.655396 48.509644 0.652616
v 269.655396 48.509644 -2.701364
v 269.655396 48.509644 -63.857430
v 269.655396 48.509644 -67.648079
v 272.890442 48.509644 -67.648079
v 300.000000 48.278748 -67.648079
vt 1.293534 0.674412
vt 1.261230 0.674471
vt 1.110141 0.460246
vt 1.142443 0.460179
vt 1.320406 0.712524
vt 1.288099 0.712579
vt 0.672314 0.675454
vt 0.671955 0.461135
vt 1.293473 0.639944
vt 1.142380 0.425705
vt 0.672370 0.713601
vt 1.320350 0.678053
vt 0.635830 0.675472
vt 0.635494 0.461258
vt 1.292748 0.242463
vt 1.142040 0.242749
vt 0.635850 0.713620
vt 1.319555 0.242413
vt 1.292682 0.207199
vt 1.141975 0.207487
vt 1.319491 0.207147
vt 2.274045 0.680461
vt 2.306358 0.680508
vt 2.283538 0.712896
vt 2.251225 0.712856
vt 2.429138 0.460403
vt 2.461444 0.460457
vt 2.899408 0.681297
vt 2.899369 0.713712
vt 2.274096 0.645987
vt 2.251270 0.678377
vt 2.899708 0.461202
vt 2.429193 0.425924
vt 2.935899 0.681304
vt 2.935895 0.713721
vt 2.274714 0.242681
vt 2.251936 0.242645
vt 2.936182 0.461309
vt 2.429475 0.242935
vt 2.274775 0.207410
vt 2.251997 0.207366
vt 2.429528 0.207667
vt 1.320892 1.004766
vt 1.288589 1.004817
vt 1.288153 0.743734
vt 1.320455 0.743678
vt 0.672849 1.005822
vt 0.672419 0.744753
vt 0.636344 1.005883
vt 0.635907 0.744809
vt 0.344466 1.722396
vt 0.344462 1.692076
vt 0.604383 1.692052
vt 0.604385 1.722370
vt 0.344456 1.217535
vt 0.604407 1.217548
vt 0.635401 1.692050
vt 0.635400 1.722365
vt 0.344449 1.067481
vt 0.604427 1.067483
vt 0.635426 1.217554
vt 2.936225 1.692101
vt 2.936225 1.722417
vt 0.344448 1.040787
vt 0.604428 1.040790
vt 0.635455 1.067486
vt 2.936221 1.217604
vt 2.969385 1.722424
vt 2.969388 1.692106
vt 0.635464 1.040786
vt 2.969387 1.217597
vt 3.220630 1.722446
vt 3.220632 1.692127
vt 2.936193 1.063504
vt 2.969370 1.063503
vt 3.220665 1.217589
vt 2.936191 1.040815
vt 2.969369 1.040824
vt 3.220681 1.063506
vt 3.220680 1.040828
vt 2.251185 0.746164
vt 2.283490 0.746207
vt 2.899327 0.747023
vt 2.250838 0.998544
vt 2.283143 0.998590
vt 2.935843 0.747070
vt 2.898988 0.999410
vt 2.935497 0.999459
vt 0.635446 0.966033
vt 0.635448 0.933879
vt 2.936208 0.933930
vt 2.936209 0.966085
vt 0.635492 0.497598
vt 2.936184 0.497649
vt 0.604458 0.461335
vt 0.604701 0.675478
vt 0.344147 0.673280
vt 0.344131 0.446763
vt 0.604706 0.713572
vt 0.344147 0.713575
vt 0.604445 0.431990
vt 0.635490 0.431949
vt 0.344212 0.236927
vt 0.604453 0.237008
vt 0.635488 0.237040
vt 2.936188 0.431999
vt 0.344222 0.209575
vt 0.604466 0.209664
vt 0.635488 0.209724
vt 2.936199 0.237086
vt 2.969388 0.432040
vt 2.969378 0.461388
vt 2.936200 0.209770
vt 2.969378 0.237047
vt 3.221042 0.446791
vt 2.969184 0.681301
vt 2.969362 0.209702
vt 3.220930 0.236937
vt 3.221066 0.679410
vt 2.969187 0.713666
vt 3.220914 0.209586
vt 3.221068 0.713649
vt 1.611760 0.206615
vt 1.611823 0.241877
vt 1.350714 0.242355
vt 1.350651 0.207092
vt 1.612628 0.677515
vt 1.351510 0.677996
vt 1.612695 0.711988
vt 1.351571 0.712470
vt 2.218665 0.207322
vt 2.218616 0.242594
vt 2.217951 0.678327
vt 1.966246 0.206960
vt 1.966194 0.242225
vt 2.217897 0.712808
vt 1.965521 0.677936
vt 1.965468 0.712413
vt 0.635429 1.182455
vt 2.936220 1.182505
vt 0.635444 1.000345
vt 2.936210 1.000397
vn 0.000000 0.683795 0.729674
vn 0.000000 1.000000 0.000000
vn 0.000000 1.000000 0.000000
vn 0.000000 0.683795 0.729674
vn -0.000000 0.000000 -1.000000
vn 0.000000 0.000000 -1.000000
vn 0.000000 0.000000 -1.000000
vn -0.000000 0.000000 -1.000000
vn 0.000000 -0.742895 -0.669408
vn 0.000000 -1.000000 0.000000
vn 0.000000 -1.000000 0.000000
vn 0.000000 -0.742895 -0.669408
vn -1.000000 0.000000 0.000000
vn -1.000000 0.000000 0.000000
vn -1.000000 0.000000 0.000000
vn -1.000000 0.000000 0.000000
vn 0.000000 -0.605186 0.796084
vn 0.000000 0.000000 1.000000
vn 0.000000 0.000000 1.000000
vn 0.000000 -0.605186 0.796084
vn -0.000000 0.000000 -1.000000
vn -0.000000 0.000000 -1.000000
vn -0.000000 0.000000 -1.000000
vn -0.749372 -0.662150 0.000001
vn -1.000000 0.000000 0.000002
vn -1.000000 -0.000000 0.000003
vn -0.004726 -0.997358 0.072494
vn 0.000000 -1.000000 0.000000
vn 0.000000 -1.000000 0.000000
vn 0.000000 -1.000000 0.000000
vn 0.000000 -1.000000 0.000000
vn 0.000000 0.683790 0.729679
vn 0.514800 0.586219 0.625563
vn 0.527644 0.849466 0.000000
vn 0.000000 1.000000 -0.000000
vn 0.738714 0.000000 -0.674020
vn 0.000000 0.000000 -1.000000
vn 0.000000 0.739316 -0.673359
vn 0.588395 0.604623 -0.536864
vn 0.000000 -0.742896 -0.669406
vn 0.000000 -0.742894 -0.669409
vn 0.000000 -1.000000 0.000000
vn 0.000000 -1.000000 0.000000
vn 1.000000 0.000000 0.000000
vn 1.000000 0.000000 0.000000
vn 0.527644 0.849466 0.000000
vn 0.514800 0.586219 0.625563
vn 0.000000 -0.542533 0.840035
vn 0.498003 -0.470469 0.728459
vn 0.550901 0.000000 0.834570
vn 0.000000 0.000000 1.000000
vn 0.000000 0.000000 -1.000000
vn 0.000000 0.000000 -1.000000
vn 0.070475 0.739554 -0.669398
vn 0.000000 0.000000 -1.000000
vn 0.726919 -0.686723 -0.000000
vn 1.000000 0.000000 0.000000
vn 0.550901 0.000000 0.834570
vn 0.498003 -0.470469 0.728459
vn 0.000000 -1.000000 -0.000000
vn 0.726919 -0.686723 -0.000000
vn 0.498003 -0.470469 0.728459
vn 0.000000 -0.542533 0.840035
vn -0.004726 -0.997358 0.072494
vn 0.000000 0.000000 1.000000
vn 0.000000 0.000000 1.000000
vn 0.004847 -0.997364 0.072399
vn 0.000000 0.683785 0.729683
vn 0.000000 1.000000 0.000000
vn 0.000000 1.000000 0.000000
vn 0.000000 0.683785 0.729683
vn -0.068936 0.742764 -0.665995
vn 0.000000 0.000000 -1.000000
vn 0.000000 0.000000 -1.000000
vn 0.070475 0.739554 -0.669398
vn 0.000000 -0.742894 -0.669409
vn 0.000000 -1.000000 0.000000
vn 0.000000 -1.000000 0.000000
vn 0.000000 -0.742894 -0.669409
vn 0.000000 0.000000 1.000000
vn 0.000000 0.683795 0.729674
vn 0.000000 0.683795 0.729674
vn 0.000000 0.000000 1.000000
vn -1.000000 -0.000001 0.000001
vn -1.000000 0.000000 0.000000
vn -1.000000 0.000000 0.000000
vn -1.000000 -0.000001 0.000003
vn 0.000000 0.000000 1.000000
vn 0.000000 0.000000 1.000000
vn 0.000000 0.683785 0.729683
vn 0.000000 0.683785 0.729683
vn 1.000000 0.000000 0.000000
vn 1.000000 0.000000 0.000000
vn 0.514800 0.586219 0.625563
vn 0.303483 0.000000 0.952837
vn 0.000000 0.000000 1.000000
vn 0.303483 0.000000 0.952837
vn 0.514800 0.586219 0.625563
vn 0.000000 0.683790 0.729679
vn 0.000000 1.000000 0.000000
vn 0.000000 1.000000 0.000000
vn 0.000000 1.000000 0.000000
vn 0.000000 1.000000 0.000000
vn -1.000000 0.000000 0.000000
vn -1.000000 0.000000 0.000000
vn -1.000000 -0.000000 0.000000
vn -1.000000 -0.000000 0.000000
vn 0.000000 1.000000 0.000000
vn 0.000000 1.000000 0.000000
vn 0.000000 1.000000 0.000000
vn 0.000000 1.000000 0.000000
vn 0.527644 0.849466 0.000000
vn 1.000000 0.000000 0.000000
vn 1.000000 -0.000000 0.000000
vn 0.691091 0.722768 0.000000
vn 0.000000 1.000000 -0.000000
vn 0.527644 0.849466 0.000000
vn 0.691091 0.722768 0.000000
vn 0.000000 1.000000 -0.000000
vn 0.000000 0.000000 -1.000000
vn 0.000000 0.000000 -1.000000
vn 0.000000 0.738206 -0.674575
vn 0.000000 0.739316 -0.673359
vn 0.000000 1.000000 -0.000000
vn 0.000000 1.000000 -0.000000
vn 0.000000 1.000000 -0.000000
vn 0.000000 1.000000 -0.000000
vn 0.000000 0.683790 0.729679
vn 0.000000 0.683790 0.729679
vn 0.000000 1.000000 -0.000000
vn 0.000000 1.000000 -0.000000
vn 0.000000 0.000000 1.000000
vn 0.000000 0.000000 1.000000
vn 0.000000 0.683790 0.729679
vn 0.000000 0.683790 0.729679
vn 0.000000 -0.542533 0.840034
vn 0.000000 -0.542533 0.840035
vn 0.000000 0.000000 1.000000
vn 0.000000 0.000000 1.000000
vn 0.000000 -0.542533 0.840034
vn 0.000000 -1.000000 0.000000
vn 0.000000 -1.000000 -0.000000
vn 0.000000 -0.542533 0.840035
vn 0.000000 -0.742897 -0.669406
vn 0.000000 -0.742896 -0.669406
vn 0.000000 -1.000000 0.000000
vn 0.000000 -1.000000 0.000000
vn 0.000000 0.000000 -1.000000
vn 0.000000 0.000000 -1.000000
vn 0.000000 0.000000 -1.000000
vn 0.000000 0.000000 1.000000
vn 0.000000 0.000000 1.000000
vn 0.000000 0.000000 1.000000
vn 0.000000 0.000000 1.000000
vn -1.000000 0.000000 0.000002
vn -1.000000 -0.000001 0.000001
vn -1.000000 -0.000001 0.000003
vn -1.000000 -0.000000 0.000003
vn 0.000000 0.000000 1.000000
vn 0.000000 0.000000 1.000000
vn 0.000000 0.000000 1.000000
vn 0.000000 0.000000 1.000000
vn 1.000000 0.000000 0.000000
vn 1.000000 0.000000 0.000000
vn 0.303483 0.000000 0.952837
vn 0.550901 0.000000 0.834570
vn 0.000000 0.000000 1.000000
vn 0.550901 0.000000 0.834570
vn 0.303483 0.000000 0.952837
vn 0.000000 0.000000 1.000000
vn 0.000000 0.000000 1.000000
vn 0.000000 0.000000 1.000000
vn 0.000000 0.000000 1.000000
vn 0.000000 0.000000 1.000000
vn 0.000000 0.000000 1.000000
vn 0.000000 0.000000 1.000000
vn -0.370411 -0.000000 0.928868
vn -0.636600 0.000000 0.771194
vn 0.000000 -0.605186 0.796084
vn 0.000000 0.000000 1.000000
vn -0.636600 0.000000 0.771194
vn -0.565072 -0.499305 0.656801
vn 0.000000 -1.000000 0.000000
vn -0.749372 -0.662150 0.000001
vn -0.004726 -0.997358 0.072494
vn 0.000000 -1.000000 0.000000
vn 0.000000 -0.742895 -0.669408
vn 0.000000 -1.000000 0.000000
vn 0.000000 -1.000000 0.000000
vn 0.000000 -0.742894 -0.669409
vn -0.000000 0.000000 -1.000000
vn -0.000000 0.000000 -1.000000
vn 0.000000 0.000000 -1.000000
vn -0.068936 0.742764 -0.665995
vn -0.068936 0.742764 -0.665995
vn -0.760652 -0.000000 -0.649160
vn 0.000000 0.000000 -1.000000
vn -0.000000 0.000000 -1.000000
vn 0.000000 1.000000 0.000000
vn 0.000000 1.000000 0.000000
vn -0.768092 0.640340 0.000000
vn -0.614717 0.788748 0.000000
vn 0.000000 0.683795 0.729674
vn 0.000000 1.000000 0.000000
vn -0.614717 0.788748 0.000000
vn -0.602899 0.545542 0.582149
vn 0.000000 0.000000 1.000000
vn 0.000000 0.683795 0.729674
vn -0.602899 0.545542 0.582149
vn -0.370411 -0.000000 0.928868
vn 0.000000 1.000000 0.000000
vn 0.000000 0.680892 -0.732384
vn 0.000000 0.681995 -0.731357
vn 0.000000 1.000000 0.000000
vn -0.768092 0.640340 0.000000
vn 0.000000 1.000000 0.000000
vn 0.000000 0.681995 -0.731357
vn -0.646159 0.527617 -0.551451
vn -1.000000 -0.000000 0.000000
vn -0.760652 -0.000000 -0.649160
vn -0.068936 0.742764 -0.665995
vn -1.000000 -0.000000 0.000000
vn 0.000000 1.000000 0.000000
vn 0.000000 1.000000 0.000000
vn -0.068936 0.742764 -0.665995
vn 0.070475 0.739554 -0.669398
vn 1.000000 -0.000000 0.000000
vn 0.738714 0.000000 -0.674020
vn 0.588395 0.604623 -0.536864
vn 0.691091 0.722768 0.000000
vn 0.000000 1.000000 -0.000000
vn 0.691091 0.722768 0.000000
vn 0.588395 0.604623 -0.536864
vn 0.000000 0.739316 -0.673359
vn 0.000000 1.000000 -0.000000
vn 0.000000 1.000000 -0.000000
vn 0.000000 0.739316 -0.673359
vn 0.000000 0.738206 -0.674575
vn -0.000000 0.000000 -1.000000
vn -0.000000 0.000000 -1.000000
vn -0.000000 0.000000 -1.000000
vn -0.000000 0.000000 -1.000000
vn 0.000000 0.000000 -1.000000
vn -0.000000 0.000000 -1.000000
vn -0.000000 0.000000 -1.000000
vn 0.000000 0.000000 -1.000000
vn 0.000000 0.000000 -1.000000
vn 0.000000 0.000000 -1.000000
vn 0.000000 0.000000 -1.000000
vn 0.000000 0.000000 -1.000000
vn 0.000000 0.000000 -1.000000
vn 0.000000 0.000000 -1.000000
vn 0.000000 0.000000 -1.000000
vn 0.000000 0.000000 -1.000000
vn 0.000000 0.000000 -1.000000
vn 0.000000 0.000000 -1.000000
vn 0.000000 0.000000 -1.000000
vn 0.000000 0.000000 -1.000000
vn -0.000000 0.000000 -1.000000
vn 0.000000 -0.742895 -0.669408
vn 0.000000 -0.742895 -0.669408
vn -0.000000 0.000000 -1.000000
vn 0.000000 0.000000 -1.000000
vn -0.000000 0.000000 -1.000000
vn 0.000000 -0.742895 -0.669408
vn 0.000000 -0.742894 -0.669409
vn 0.000000 0.000000 -1.000000
vn 0.000000 0.000000 -1.000000
vn 0.000000 -0.742894 -0.669409
vn 0.000000 -0.742894 -0.669409
vn 0.000000 -0.742896 -0.669406
vn 0.000000 0.000000 -1.000000
vn 0.000000 0.000000 -1.000000
vn 0.000000 -0.742894 -0.669409
vn 0.000000 0.000000 -1.000000
vn 0.000000 0.000000 -1.000000
vn 0.000000 -0.742896 -0.669406
vn 0.000000 -0.742897 -0.669406
vn 0.000000 -1.000000 0.000000
vn 0.000000 -1.000000 0.000000
vn 0.000000 -1.000000 0.000000
vn 0.000000 -1.000000 0.000000
vn 0.000000 -1.000000 0.000000
vn 0.000000 -1.000000 0.000000
vn 0.000000 -1.000000 0.000000
vn -0.004726 -0.997358 0.072494
vn 0.000000 -1.000000 0.000000
vn 0.000000 -1.000000 0.000000
vn -0.004726 -0.997358 0.072494
vn 0.004847 -0.997364 0.072399
vn 0.000000 -1.000000 0.000000
vn 0.000000 -1.000000 0.000000
vn 0.004847 -0.997364 0.072399
vn 0.000000 -1.000000 0.000000
vn 0.000000 -1.000000 0.000000
vn 0.000000 -1.000000 0.000000
vn 0.000000 -1.000000 0.000000
vn 0.000000 -1.000000 0.000000
vn 0.000000 -1.000000 0.000000
vn 0.000000 -1.000000 0.000000
vn 0.000000 -1.000000 0.000000
vn 0.000000 -1.000000 -0.000000
vn 0.000000 -1.000000 0.000000
vn 0.004847 -0.997364 0.072399
vn 0.726919 -0.686723 -0.000000
vn 0.000000 -1.000000 -0.000000
vn 0.004847 -0.997364 0.072399
vn 1.000000 0.000000 0.000000
vn 1.000000 0.000000 0.000000
vn 0.726919 -0.686723 -0.000000
vn 1.000000 0.000000 0.000000
vn 1.000000 0.000000 0.000000
vn 1.000000 0.000000 0.000000
vn 1.000000 0.000000 0.000000
vn 1.000000 0.000000 0.000000
vn 1.000000 0.000000 0.000000
vn 1.000000 0.000000 0.000000
vn 1.000000 0.000000 0.000000
vn 1.000000 0.000000 0.000000
vn 1.000000 -0.000000 0.000000
vn 1.000000 0.000000 0.000000
vn 1.000000 0.000000 0.000000
vn 1.000000 -0.000000 0.000000
vn 1.000000 0.000000 0.000000
vn 1.000000 -0.000000 0.000000
vn 1.000000 -0.000000 0.000000
vn 1.000000 -0.000000 0.000000
vn 0.070475 0.739554 -0.669398
vn 0.738714 0.000000 -0.674020
vn 1.000000 -0.000000 0.000000
vn 0.070475 0.739554 -0.669398
vn 0.000000 0.000000 -1.000000
vn 0.000000 0.000000 -1.000000
vn 0.738714 0.000000 -0.674020
vn 0.000000 0.000000 -1.000000
vn 0.000000 0.000000 -1.000000
vn 0.000000 0.000000 -1.000000
vn 0.000000 0.000000 -1.000000
vn 0.000000 -1.000000 0.000000
vn 0.000000 -1.000000 0.000000
vn 0.000000 -0.605186 0.796084
vn 0.000000 -0.605186 0.796084
vn 0.000000 -0.605186 0.796084
vn -0.565072 -0.499305 0.656801
vn -0.749372 -0.662150 0.000001
vn 0.000000 -1.000000 0.000000
vn -0.565072 -0.499305 0.656801
vn -0.636600 0.000000 0.771194
vn -1.000000 0.000000 0.000002
vn -0.749372 -0.662150 0.000001
vn -0.636600 0.000000 0.771194
vn -0.370411 -0.000000 0.928868
vn -1.000000 -0.000001 0.000001
vn -1.000000 0.000000 0.000002
vn -0.370411 -0.000000 0.928868
vn -0.602899 0.545542 0.582149
vn -1.000000 0.000000 0.000000
vn -1.000000 -0.000001 0.000001
vn -0.602899 0.545542 0.582149
vn -0.614717 0.788748 0.000000
vn -1.000000 0.000000 0.000000
vn -1.000000 0.000000 0.000000
vn -1.000000 -0.000000 0.000000
vn -1.000000 0.000000 0.000000
vn -0.614717 0.788748 0.000000
vn -0.768092 0.640340 0.000000
vn -0.768092 0.640340 0.000000
vn -0.646159 0.527617 -0.551451
vn -0.760652 -0.000000 -0.649160
vn -1.000000 -0.000000 0.000000
vn 0.000000 0.000000 -1.000000
vn -0.760652 -0.000000 -0.649160
vn -0.646159 0.527617 -0.551451
vn 0.000000 0.681995 -0.731357
vn 0.000000 0.000000 -1.000000
vn 0.000000 0.000000 -1.000000
vn 0.000000 0.681995 -0.731357
vn 0.000000 0.680892 -0.732384
g BuildingA_Ledge_Short3M_LOD0 BuildingA_Ledge_Short3M
usemtl BuildingA_Bottom_Corner_LOD0SG2
f 3/43/1 33/44/2 61/45/3 62/46/4
f 59/95/5 107/96/6 108/97/7 10/98/8
f 7/51/9 81/52/10 82/53/11 58/54/12
f 103/1/13 104/2/14 35/3/15 11/4/16
f 1/123/17 47/124/18 55/125/19 56/126/20
f 10/98/21 71/101/22 59/95/23
f 100/19/24 101/15/25 49/16/26 12/20/27
f 13/55/28 98/59/29 99/60/30 57/56/31
f 42/81/32 17/25/33 37/24/34 41/82/35
f 95/34/36 96/116/37 40/120/38 19/35/39
f 46/68/40 21/63/41 84/62/42 85/69/43
f 92/22/44 93/23/45 37/24/46 17/25/47
f 44/131/48 15/41/49 51/37/50 52/132/51
f 74/111/52 39/112/53 22/38/54 73/106/55
f 89/40/56 90/36/57 51/37/58 15/41/59
f 88/75/60 89/74/61 15/77/62 44/78/63
f 12/61/64 49/139/65 50/140/66 25/67/67
f 11/89/68 35/90/69 36/91/70 24/92/71
f 9/14/72 72/102/73 73/106/74 22/38/75
f 8/58/76 83/57/77 84/62/78 21/63/79
f 27/127/80 3/129/81 62/130/82 54/128/83
f 102/9/84 103/1/85 11/4/86 29/10/87
f 30/142/88 29/141/89 11/89/90 24/92/91
f 91/30/92 92/22/93 17/25/94 31/31/95
f 43/133/96 31/31/97 17/25/98 42/136/99
f 33/44/100 63/47/101 64/48/102 61/45/103
f 35/3/104 104/2/105 105/7/106 66/8/107
f 36/91/108 35/90/109 66/93/110 67/94/111
f 37/24/112 93/23/113 94/28/114 68/29/115
f 41/82/116 37/24/117 68/29/118 69/83/119
f 96/116/120 97/119/121 18/122/122 40/120/123
f 38/85/124 41/82/125 69/83/126 70/87/127
f 16/84/128 42/81/129 41/82/130 38/85/131
f 32/137/132 43/133/133 42/136/134 16/138/135
f 14/134/136 44/131/137 52/132/138 53/135/139
f 14/80/140 87/79/141 88/75/142 44/78/143
f 20/72/144 46/68/145 85/69/146 86/73/147
f 23/115/148 39/112/149 74/111/150
f 47/124/151 27/127/152 54/128/153 55/125/154
f 101/15/155 102/9/156 29/10/157 49/16/158
f 50/140/159 49/139/160 29/141/161 30/142/162
f 90/36/163 91/30/164 31/31/165 51/37/166
f 52/132/167 51/37/168 31/31/169 43/133/170
f 53/135/171 52/132/172 43/133/173 32/137/174
f 55/125/175 54/128/176 28/12/177 48/18/178
f 56/126/179 55/125/180 48/18/181 2/21/182
f 99/60/183 100/66/184 12/61/185 57/56/186
f 58/54/187 82/53/188 83/57/189 8/58/190
f 59/95/191 71/101/192 72/102/193 9/14/194
f 9/14/195 106/13/196 107/96/197 59/95/198
f 61/45/199 64/48/200 65/11/201 34/6/202
f 62/46/203 61/45/204 34/6/205 4/5/206
f 54/128/207 62/130/208 4/5/209 28/12/210
f 63/47/211 5/49/212 60/50/213 64/48/214
f 65/11/215 64/48/216 60/50/217 6/17/218
f 105/7/219 106/13/220 9/14/221 66/8/222
f 67/94/223 66/93/224 9/14/225 22/38/226
f 94/28/227 95/34/228 19/35/229 68/29/230
f 69/83/231 68/29/232 19/35/233 40/86/234
f 70/87/235 69/83/236 40/86/237 18/88/238
f 10/98/239 75/103/240 76/104/241 71/101/242
f 72/102/243 71/101/244 76/104/245 77/105/246
f 73/106/247 72/102/248 77/105/249 78/110/250
f 79/114/251 74/111/252 73/106/253 78/110/254
f 23/115/255 74/111/256 79/114/257 80/118/258
f 75/103/259 7/107/260 58/108/261 76/104/262
f 77/105/263 76/104/264 58/108/265 8/109/266
f 78/110/267 77/105/268 8/109/269 21/113/270
f 46/117/271 79/114/272 78/110/273 21/113/274
f 80/118/275 79/114/276 46/117/277 20/121/278
f 81/52/279 13/55/280 57/56/281 82/53/282
f 83/57/283 82/53/284 57/56/285 12/61/286
f 84/62/287 83/57/288 12/61/289 25/67/290
f 85/69/291 84/62/292 25/67/293 45/71/294
f 86/73/295 85/69/296 45/71/297 26/76/298
f 87/79/299 26/76/300 45/71/301 88/75/302
f 45/71/303 25/67/304 89/74/305 88/75/306
f 25/42/307 50/39/308 90/36/309 89/40/310
f 50/39/311 30/33/312 91/30/313 90/36/314
f 30/33/315 24/26/316 92/22/317 91/30/318
f 24/26/319 36/27/320 93/23/321 92/22/322
f 94/28/323 93/23/324 36/27/325 67/32/326
f 67/32/327 22/38/328 95/34/329 94/28/330
f 22/38/331 39/112/332 96/116/333 95/34/334
f 39/112/335 23/115/336 97/119/337 96/116/338
f 99/60/339 98/59/340 1/64/341 56/65/342
f 56/65/343 2/70/344 100/66/345 99/60/346
f 2/21/347 48/18/348 101/15/349 100/19/350
f 48/18/351 28/12/352 102/9/353 101/15/354
f 28/12/355 4/5/356 103/1/357 102/9/358
f 4/5/359 34/6/360 104/2/361 103/1/362
f 105/7/363 104/2/364 34/6/365 65/11/366
f 65/11/367 6/17/368 106/13/369 105/7/370
f 107/96/371 106/13/372 6/17/373 60/99/374
f 108/97/375 107/96/376 60/99/377 5/100/378
