# This file uses meters as units for non-parametric coordinates.

mtllib BuildingA_Bottom_Corner_LOD1.mtl
g default
v 400.000000 0.000000 0.000000
v 400.000000 0.000000 -400.000031
v 400.000000 400.000000 0.000000
v 400.000000 400.000000 -400.000031
v 0.000000 400.000000 0.000000
v 0.000000 0.000000 0.000000
v 336.721161 400.000000 -63.278839
v 336.721191 400.000000 -400.000000
v 336.721161 0.000000 -63.278839
v 336.721191 0.000000 -400.000000
v 0.000000 400.000000 -63.278839
v 0.000000 0.000000 -63.278839
v 403.258087 0.000000 -400.000000
v 403.258118 0.000000 3.258118
v 403.258087 50.000000 -400.000000
v 403.258118 50.000000 3.258118
v 377.221832 50.000000 -400.000000
v 377.221832 50.000000 -21.946198
v 0.000000 50.000000 3.258118
v 0.000000 0.000000 3.258118
v 0.000000 50.000000 -21.946198
vt 1.487462 -0.300585
vt 0.143865 -0.301332
vt -1.157407 1.000061
vt 0.143912 1.000000
vt 0.144123 -0.300692
vt 0.143912 1.000000
vt -1.157453 -0.301301
vt 1.487568 1.000000
vt 0.994529 -0.883828
vt 0.994529 1.006214
vt -0.598510 1.006214
vt -0.598510 -0.883828
vt -0.598510 -0.883829
vt -0.598510 1.006214
vt 0.992530 -0.883829
vt 0.992530 1.006214
vt -1.507279 -1.638967
vt -1.239361 -1.337680
vt -1.526465 -2.187948
vt -2.075389 -1.636633
vt 2.970502 -2.185032
vt 2.970263 -1.629485
vt 2.970532 -1.339924
vt -1.521958 2.867939
vt -2.078270 2.868187
vt -1.241453 2.868185
vn 1.000000 0.000000 0.000000
vn 1.000000 0.000000 0.000000
vn 1.000000 0.000000 0.000000
vn 1.000000 0.000000 0.000000
vn -0.000000 0.000000 1.000000
vn -0.000000 0.000000 1.000000
vn -0.000000 0.000000 1.000000
vn -0.000000 0.000000 1.000000
vn -1.000000 0.000000 -0.000000
vn -1.000000 0.000000 -0.000000
vn -1.000000 0.000000 -0.000000
vn -1.000000 0.000000 -0.000000
vn 0.000000 0.000000 -1.000000
vn 0.000000 0.000000 -1.000000
vn 0.000000 0.000000 -1.000000
vn 0.000000 0.000000 -1.000000
vn 1.000000 0.000000 0.000000
vn 1.000000 0.000000 0.000000
vn 1.000000 0.000000 0.000000
vn 1.000000 0.000000 0.000000
vn -0.000000 1.000000 -0.000000
vn -0.000000 1.000000 -0.000000
vn -0.000000 1.000000 -0.000000
vn -0.000000 1.000000 -0.000000
vn -0.000000 0.000000 1.000000
vn -0.000000 0.000000 1.000000
vn -0.000000 0.000000 1.000000
vn -0.000000 0.000000 1.000000
vn 0.000000 1.000000 0.000000
vn 0.000000 1.000000 0.000000
vn 0.000000 1.000000 0.000000
vn 0.000000 1.000000 0.000000
g BuildingA_Bottom_Corner_LOD1 BuildingA_Bottom_Corner
usemtl BuildingA_Bottom_Corner_LOD0SG
f 4/4/1 3/3/2 1/7/3 2/2/4
f 6/5/5 1/1/6 3/8/7 5/6/8
usemtl BuildingA_Bottom_Corner_LOD0SG1
f 10/16/9 9/14/10 7/13/11 8/15/12
f 9/12/13 12/9/14 11/10/15 7/11/16
usemtl BuildingA_Bottom_Corner_LOD0SG2
f 16/17/17 14/19/18 13/21/19 15/22/20
f 18/18/21 16/17/22 15/22/23 17/23/24
f 14/20/25 16/17/26 19/24/27 20/25/28
f 21/26/29 19/24/30 16/17/31 18/18/32
