# This file uses meters as units for non-parametric coordinates.

mtllib StalkPlant_B_LOD1.mtl
g default
v -15.496430 -0.090188 -11.972168
v 16.391953 -0.079854 3.546112
v -7.715317 103.705254 -29.781342
v 24.229633 103.439484 -20.818115
v 8.507145 105.907913 -21.710175
v -0.804432 -0.033344 -0.572678
v -16.301838 53.909283 -13.840133
v 0.370060 55.269699 -2.742035
v 18.372433 53.932320 1.318268
v -10.595860 0.149452 11.811737
v 4.095075 -0.287907 -14.192015
v 1.305518 115.299080 -8.919281
v 9.651579 97.997612 -33.008987
v -9.116292 61.394810 10.342041
v 4.878391 49.824642 -16.218765
vt 0.543343 0.430121
vt 0.680182 0.419956
vt 0.724703 0.796267
vt 0.605194 0.815030
vt 0.534416 0.009755
vt 0.665128 0.009401
vt 0.376832 0.867095
vt 0.305891 0.455689
vt 0.443632 0.466928
vt 0.510859 0.885293
vt 0.312546 0.009554
vt 0.433929 0.010023
vt 0.761453 0.429269
vt 0.863304 0.388118
vt 0.990196 0.752186
vt 0.904805 0.811968
vt 0.745058 0.011315
vt 0.847986 0.009391
vt 0.178589 0.948527
vt 0.021770 0.509655
vt 0.128296 0.459786
vt 0.282729 0.872067
vt 0.009804 0.011014
vt 0.110634 0.009526
vn 0.825930 0.016884 0.563520
vn -0.194638 0.144056 0.970239
vn -0.035733 0.452271 0.891164
vn 0.882020 0.039197 0.469580
vn -0.462268 0.402176 0.790293
vn -0.566780 0.115288 0.815763
vn 0.825930 0.016884 0.563520
vn 0.882020 0.039197 0.469580
vn -0.581426 0.026274 0.813175
vn 0.823982 0.002685 0.566609
vn 0.823982 0.002685 0.566609
vn -0.215869 0.047196 0.975281
vn 0.825930 0.016884 0.563520
vn 0.965331 -0.011976 0.260755
vn 0.986326 -0.069951 0.149222
vn 0.882020 0.039197 0.469580
vn 0.729767 0.127314 0.671738
vn 0.653304 0.046197 0.755685
vn 0.825930 0.016884 0.563520
vn 0.882020 0.039197 0.469580
vn 0.629522 0.006649 0.776954
vn 0.823982 0.002685 0.566609
vn 0.823982 0.002685 0.566609
vn 0.961949 -0.005915 0.273167
g StalkPlant_B_LOD1 StalkPlant_B
usemtl polySurface7SG
f 8/1/1 9/2/2 4/3/3 5/4/4
f 3/7/5 7/8/6 8/9/7 5/10/8
f 8/9/7 7/8/6 1/11/9 6/12/10
f 9/2/2 8/1/1 6/5/11 2/6/12
f 8/13/13 15/14/14 13/15/15 5/16/16
f 12/19/17 14/20/18 8/21/19 5/22/20
f 8/21/19 14/20/18 10/23/21 6/24/22
f 15/14/14 8/13/13 6/17/23 11/18/24
