# This file uses meters as units for non-parametric coordinates.

mtllib Building_Light_LOD1.mtl
g default
v 25.906250 -8.467716 -1.382485
v 26.581787 -8.945374 -0.982536
v -26.581787 -8.945374 -0.982536
v -25.906157 -8.467716 -1.382485
v 26.581787 16.395695 -0.982536
v 25.906250 15.918036 -1.382485
v -26.581787 16.395695 -0.982536
v -25.906157 15.918036 -1.382485
v 24.588501 -7.873158 -4.953278
v 24.588501 8.707460 -15.939224
v 24.588501 -7.546802 -4.551472
v 23.903870 -7.061298 -4.945820
v 24.588501 9.033817 -15.537420
v 23.903870 8.548306 -15.143083
v -24.588501 -7.873158 -4.953278
v 25.813049 9.799700 -16.229961
v 25.266357 -7.438702 -4.892160
v 25.824587 15.415776 -5.079231
v 25.836363 -8.315132 -1.288849
v 25.836363 15.765448 -1.288849
v -24.588501 8.707460 -15.939224
v -24.588501 -7.546802 -4.551472
v -23.903870 -7.061298 -4.945820
v -24.588501 9.033817 -15.537420
v -23.903870 8.548306 -15.143083
v -25.266357 -7.438702 -4.892160
v -25.824556 15.415776 -5.079231
v -25.836426 -8.315132 -1.288849
v -25.836426 15.765448 -1.288849
v -25.813049 9.799700 -16.229961
v 23.443481 -7.381796 -4.713306
v 24.227905 -6.563582 -5.364807
v 23.443481 -6.972689 -15.033314
v 23.443481 8.875864 -15.479293
v -23.835693 -6.972689 -5.039057
v -23.639587 -6.768136 -15.033314
v -23.443481 8.875864 -15.479293
vt 0.348591 0.164250
vt 0.706657 0.152136
vt 0.713536 0.164250
vt 0.007140 0.972260
vt 0.772766 0.972260
vt 0.763038 0.981525
vt 0.706657 0.152137
vt 0.713536 0.164250
vt 0.348591 0.164250
vt 0.355470 0.152137
vt 0.772760 0.945645
vt 0.763032 0.954909
vt 0.016864 0.954909
vt 0.007135 0.945645
vt 0.016869 0.981525
vt 0.355470 0.152136
vt 0.031271 0.569211
vt 0.718290 0.569216
vt 0.728131 0.578204
vt 0.021431 0.578201
vt 0.737845 0.423145
vt 0.765571 0.695685
vt 0.755281 0.688118
vt 0.729292 0.432632
vt 0.728127 0.585643
vt 0.021432 0.585640
vt 0.744975 0.423112
vt 0.772699 0.695652
vt 0.764120 0.405897
vt 0.782510 0.690122
vt 0.822406 0.726814
vt 0.985985 0.433771
vt 0.937475 0.412450
vt 0.742388 0.704118
vt 0.008849 0.704117
vt 0.741386 0.640734
vt 0.008189 0.640704
vt 0.008965 0.893252
vt 0.752865 0.864323
vt 0.749800 0.851372
vt 0.901461 0.630903
vt 0.914653 0.629140
vt 0.759365 0.867922
vt 0.921152 0.632738
vt 0.729269 0.920417
vt 0.021967 0.920417
vt 0.021967 0.912973
vt 0.729269 0.912973
vt 0.719421 0.929413
vt 0.031815 0.929413
vt 0.927348 0.642705
vt 0.982177 0.629147
vt 0.984951 0.978845
vt 0.929945 0.974044
vt 0.742270 0.893252
vt 0.732798 0.586121
vt 0.016778 0.586183
vt 0.008740 0.647678
vt 0.742497 0.647678
vt 0.768242 0.893240
vt 0.718206 0.294539
vt 0.699375 0.297719
vt 0.760337 0.158150
vt 0.979192 0.230598
vt 0.936217 0.268009
vt 0.982319 0.407082
vt 0.717143 0.324838
vt 0.683819 0.560887
vt 0.008992 0.560596
vt 0.009233 0.329490
vt 0.684210 0.329759
vt 0.009034 0.179259
vt 0.684215 0.178728
vn 0.963775 0.000000 -0.266717
vn 0.485920 0.000000 -0.874003
vn 0.485920 0.000000 -0.874003
vn 0.963775 0.000000 -0.266717
vn 0.000000 -0.690354 -0.723472
vn 0.000000 -0.963359 -0.268216
vn 0.000000 -0.963359 -0.268216
vn 0.000000 -0.690354 -0.723472
vn -0.485919 0.000000 -0.874004
vn -0.963775 0.000000 -0.266717
vn -0.963775 0.000000 -0.266717
vn -0.485920 0.000000 -0.874003
vn 0.000000 0.963359 -0.268216
vn 0.000000 0.690354 -0.723472
vn 0.000000 0.690354 -0.723472
vn 0.000000 0.963359 -0.268216
vn 0.000000 -0.630474 -0.776211
vn 0.000000 -0.630474 -0.776211
vn 0.000000 -0.630474 -0.776211
vn 0.000000 -0.630474 -0.776211
vn 0.000003 -0.604553 -0.796565
vn 0.000003 -0.604563 -0.796558
vn 0.000003 -0.607311 -0.794464
vn 0.000003 -0.607300 -0.794473
vn -0.393017 0.713756 -0.579733
vn -0.353337 0.726148 -0.589798
vn 0.353337 0.726148 -0.589798
vn 0.393017 0.713756 -0.579733
vn -0.393019 -0.713755 0.579732
vn -0.353337 0.726148 -0.589798
vn -0.393017 0.713756 -0.579733
vn -0.353337 -0.726148 0.589798
vn 0.999638 -0.026906 -0.000044
vn 0.963913 -0.127923 -0.233468
vn 0.996628 0.042865 -0.069966
vn 0.999621 0.027522 0.000000
vn 0.012439 0.999923 0.000000
vn 0.011304 0.929035 -0.369819
vn -0.011304 0.929035 -0.369819
vn -0.012439 0.999923 -0.000000
vn 0.054329 -0.868929 -0.491946
vn 0.012837 -0.999918 -0.000021
vn -0.012837 -0.999918 -0.000021
vn -0.054329 -0.868929 -0.491946
vn 0.000434 -0.891721 -0.452585
vn -0.000434 -0.891721 -0.452585
vn 0.963913 -0.127923 -0.233468
vn 0.998769 -0.006293 -0.049212
vn 0.996628 0.042865 -0.069966
vn 0.125602 -0.336870 -0.933136
vn 0.054329 -0.868929 -0.491946
vn -0.000434 -0.891721 -0.452585
vn -0.001312 -0.612469 -0.790493
vn 0.011115 0.381708 -0.924216
vn -0.011115 0.381708 -0.924216
vn -0.011304 0.929035 -0.369819
vn 0.011304 0.929035 -0.369819
vn -0.000003 -0.604553 -0.796565
vn -0.000003 -0.607300 -0.794473
vn -0.000003 -0.607311 -0.794464
vn -0.000003 -0.604563 -0.796557
vn 0.393019 -0.713756 0.579732
vn 0.353336 -0.726148 0.589798
vn 0.393017 0.713756 -0.579733
vn 0.353337 0.726148 -0.589798
vn -0.353337 -0.726148 0.589798
vn 0.353336 -0.726148 0.589798
vn 0.393019 -0.713756 0.579732
vn -0.393019 -0.713755 0.579732
vn 0.000003 -0.607300 -0.794473
vn -0.000003 -0.607300 -0.794473
vn -0.000003 -0.604553 -0.796565
vn 0.000003 -0.604553 -0.796565
vn -0.001312 -0.612469 -0.790493
vn 0.001312 -0.612469 -0.790493
vn -0.125602 -0.336870 -0.933136
vn 0.125602 -0.336870 -0.933136
vn -0.999621 0.027522 -0.000000
vn -0.996628 0.042865 -0.069966
vn -0.963913 -0.127923 -0.233467
vn -0.999638 -0.026906 -0.000044
vn -0.963913 -0.127923 -0.233467
vn -0.996628 0.042865 -0.069966
vn -0.888063 -0.269336 -0.372562
vn -0.125602 -0.336870 -0.933136
vn 0.001312 -0.612469 -0.790493
vn 0.000434 -0.891721 -0.452585
vn -0.054329 -0.868929 -0.491946
vn 0.992595 -0.094325 -0.076540
vn -0.000824 -0.999540 -0.030308
vn 0.008974 -0.054632 -0.998466
vn 0.004123 0.000000 -0.999992
vn -0.992339 -0.097065 -0.076436
vn -0.011149 -0.999938 -0.000000
vn -0.004123 0.000000 -0.999992
vn 0.004123 0.000000 -0.999992
g Building_Light_LOD1 Building_Light
usemtl lambert24SG
f 2/1/1 1/16/2 6/2/3 5/3/4
f 1/15/5 2/4/6 3/5/7 4/6/8
f 4/7/9 3/8/10 7/9/11 8/10/12
f 5/11/13 6/12/14 8/13/15 7/14/16
f 23/17/17 12/18/18 11/19/19 22/20/20
f 13/21/21 11/22/22 12/23/23 14/24/24
f 11/19/25 9/25/26 15/26/27 22/20/28
f 10/27/29 9/28/30 11/22/31 13/21/32
f 19/31/33 17/30/34 18/33/35 20/32/36
f 20/59/37 18/34/38 27/35/39 29/58/40
f 17/56/41 19/36/42 28/37/43 26/57/44 15/26/45 9/25/46
f 17/30/47 16/29/48 18/33/49
f 16/29/50 17/30/51 9/28/52 10/27/53
f 16/55/54 30/38/55 27/35/56 18/34/57
f 24/39/58 25/40/59 23/41/60 22/42/61
f 21/43/62 24/39/63 22/42/64 15/44/65
f 13/45/66 24/46/67 21/47/68 10/48/69
f 14/49/70 25/50/71 24/46/72 13/45/73
f 10/48/74 21/47/75 30/38/76 16/55/77
f 29/53/78 27/54/79 26/51/80 28/52/81
f 26/51/82 27/54/83 30/60/84
f 30/60/85 21/43/86 15/44/87 26/51/88
f 32/61/89 31/62/90 33/63/91
f 34/64/92 32/61/89 33/63/91
f 36/65/93 35/66/94 37/67/95
f 33/70/91 36/71/93 37/68/95 34/69/96
f 31/72/90 35/73/94 36/71/93 33/70/91
