# This file uses meters as units for non-parametric coordinates.

mtllib ScrapMetal_A_LOD0.mtl
g default
v 111.111664 -0.381714 -60.766033
v 111.243561 15.455383 -60.344631
v 96.368378 15.713318 -65.843437
v 96.236420 -0.123779 -66.264862
v 54.328827 -0.062256 87.941353
v 40.100189 0.148315 82.398415
v 40.461731 15.393677 82.178093
v 54.689850 15.183045 87.720795
v 107.521149 0.126770 -52.695389
v 93.589142 0.366333 -57.861607
v 93.726105 15.204833 -57.502277
v 107.658051 14.965209 -52.336086
v 43.425842 0.349792 74.224586
v 43.764801 15.188660 74.044792
v 57.618591 14.981568 79.425941
v 57.280151 0.142700 79.605888
v -8.052734 -1.151733 -57.957573
v -8.052734 -1.151733 57.957577
v -24.274475 -1.151733 57.957577
v -24.274475 -1.151733 -57.957573
v -24.274475 1.151733 -57.957573
v -8.052734 1.151733 -57.957573
v -24.274475 1.151733 57.957577
v -8.052734 1.151733 57.957577
v -108.443817 2.435486 41.018433
v -108.188049 -0.061157 38.424438
v -107.968567 0.946197 34.965576
v -108.004852 4.450104 34.100525
v -108.260620 6.946747 36.694519
v -108.480072 5.939423 40.153503
v 31.082672 6.346741 51.010803
v 31.338470 3.850098 48.416809
v 31.557892 4.857452 44.957947
v 31.521606 8.361359 44.092896
v 31.265900 10.858002 46.686890
v 31.046387 9.850677 50.145878
v -91.189178 -2.099915 -40.169800
v -95.919617 5.720764 -35.860992
v -101.825134 -0.690125 -30.726746
v -25.668457 -2.062927 37.380920
v -36.283295 -0.727051 46.009216
v -30.499512 5.463928 41.204987
v -90.969635 -1.864746 -40.355438
v -25.448853 -1.827759 37.195313
v -95.879181 6.244080 -35.893524
v -30.459076 5.987244 41.172424
v -102.004425 -0.403076 -30.573547
v -36.462585 -0.440002 46.162384
v 15.226379 10.197479 -23.079819
v 15.101959 0.097961 -23.379745
v 5.233643 0.293213 -25.596481
v 36.420502 10.458710 -122.366402
v 26.672272 0.946075 -124.207291
v 36.208649 0.734711 -122.238800
v 15.589539 10.190613 -23.002319
v 36.783691 10.451874 -122.288910
v 15.458984 -0.281006 -23.306015
v 36.565704 0.355774 -122.165062
v 5.226654 -0.078125 -25.600405
v 26.665314 0.574677 -124.211220
v 82.907776 -1.776733 23.528048
v 83.442444 -0.381287 22.129290
v -35.127686 9.705841 -20.363371
v -35.789703 8.359985 -19.021950
v 82.900665 -4.966034 22.155010
v 82.707794 -3.463837 23.537830
v -35.898499 6.691681 -18.976185
v -35.420258 5.199097 -20.244366
v 83.928345 -3.640228 19.119871
v 83.356384 -5.031372 20.507988
v -34.751831 5.115997 -21.771267
v -34.089783 6.461822 -23.112740
v 83.898071 -0.446594 20.482382
v 84.128326 -1.953094 19.110086
v -33.980988 8.130005 -23.158443
v -34.459229 9.622650 -21.890314
v -37.522156 15.231812 -14.406547
v -38.559814 0.746918 -13.785328
v -33.732819 -0.138153 -27.443235
v -32.695465 14.342010 -28.065952
v -37.822205 0.680023 -13.580044
v -32.995483 -0.209259 -27.239536
v -36.784851 15.160705 -14.202847
v -31.957855 14.275086 -27.860664
vt 0.247451 0.090719
vt 0.166992 0.089427
vt 0.168042 0.007140
vt 0.249713 0.008634
vt 0.245795 0.912873
vt 0.247242 0.991963
vt 0.168290 0.992860
vt 0.167401 0.913705
vt 0.167700 0.135283
vt 0.090351 0.134521
vt 0.088115 0.088612
vt 0.245243 0.136443
vt 0.013016 0.137461
vt 0.007533 0.092947
vt 0.328026 0.092273
vt 0.322223 0.137280
vt 0.090783 0.869139
vt 0.013819 0.867694
vt 0.321978 0.867856
vt 0.244867 0.867182
vt 0.167699 0.867925
vt 0.324299 0.913405
vt 0.089868 0.915058
vt 0.011489 0.913015
vt 0.712292 0.031277
vt 0.843482 0.031277
vt 0.843482 0.968723
vt 0.712292 0.968723
vt 0.993302 0.031277
vt 0.993301 0.968723
vt 0.862111 0.968723
vt 0.862111 0.031277
vt 0.712292 0.012649
vt 0.843482 0.012649
vt 0.843482 0.987351
vt 0.712292 0.987351
vt 0.693663 0.968723
vt 0.693663 0.031277
vt 0.442838 0.062427
vt 0.465410 0.062427
vt 0.465410 0.937573
vt 0.442838 0.937573
vt 0.329979 0.062427
vt 0.352551 0.062427
vt 0.352551 0.937573
vt 0.329979 0.937573
vt 0.375123 0.062427
vt 0.375123 0.937573
vt 0.397694 0.062427
vt 0.397694 0.937573
vt 0.420266 0.062427
vt 0.420266 0.937573
vt 0.386409 0.042879
vt 0.397694 0.023331
vt 0.420266 0.023331
vt 0.431552 0.042879
vt 0.420266 0.976669
vt 0.397694 0.976669
vt 0.386409 0.957121
vt 0.431552 0.957121
vt 0.592805 0.334575
vt 0.592805 0.009162
vt 0.640362 0.009162
vt 0.640362 0.334575
vt 0.687983 0.009162
vt 0.687983 0.334575
vt 0.688080 0.811840
vt 0.640367 0.811488
vt 0.639759 0.343494
vt 0.688492 0.343143
vt 0.592702 0.811465
vt 0.592899 0.343518
vt 0.690209 0.342792
vt 0.689797 0.812193
vt 0.639345 0.343494
vt 0.689000 0.343495
vt 0.688178 0.811488
vt 0.640269 0.811488
vt 0.593572 0.341875
vt 0.641087 0.341805
vt 0.590980 0.811453
vt 0.591179 0.343560
vt 0.640567 0.811488
vt 0.592600 0.811488
vt 0.592805 0.334575
vt 0.592805 0.009162
vt 0.640362 0.009162
vt 0.640362 0.334575
vt 0.687983 0.009162
vt 0.687983 0.334575
vt 0.688080 0.811840
vt 0.640367 0.811488
vt 0.639759 0.343494
vt 0.688492 0.343143
vt 0.592702 0.811465
vt 0.592899 0.343518
vt 0.690209 0.342792
vt 0.689797 0.812193
vt 0.639345 0.343494
vt 0.689000 0.343495
vt 0.688178 0.811488
vt 0.640269 0.811488
vt 0.593572 0.341875
vt 0.641087 0.341805
vt 0.590980 0.811453
vt 0.591179 0.343560
vt 0.640567 0.811488
vt 0.592600 0.811488
vt 0.532016 0.054038
vt 0.532016 0.977252
vt 0.519681 0.977252
vt 0.519681 0.054038
vt 0.559202 0.054038
vt 0.559202 0.977252
vt 0.546869 0.977252
vt 0.546869 0.054038
vt 0.504835 0.054038
vt 0.504835 0.977252
vt 0.492501 0.977252
vt 0.492501 0.054038
vt 0.586386 0.054038
vt 0.586386 0.977252
vt 0.574052 0.977252
vt 0.574052 0.054038
vt 0.572559 0.034143
vt 0.539978 0.029516
vt 0.552226 0.020805
vt 0.564160 0.022745
vt 0.477658 0.054038
vt 0.477658 0.977252
vt 0.570711 0.045809
vt 0.537980 0.041906
vt 0.679313 0.894933
vt 0.603913 0.894933
vt 0.604150 0.819647
vt 0.679532 0.819638
vt 0.679173 0.898916
vt 0.679425 0.974202
vt 0.604021 0.974212
vt 0.603795 0.898918
vt 0.683146 0.898602
vt 0.683400 0.973896
vt 0.679543 0.978187
vt 0.604162 0.978195
vt 0.600047 0.973924
vt 0.599818 0.898638
vn 0.346983 0.022058 -0.937612
vn 0.346983 0.022058 -0.937612
vn 0.346983 0.022058 -0.937612
vn 0.346983 0.022058 -0.937612
vn -0.362618 0.022065 0.931677
vn -0.362618 0.022065 0.931677
vn -0.362618 0.022065 0.931677
vn -0.362618 0.022065 0.931677
vn 0.913024 -0.018372 0.407493
vn 0.933480 -0.017193 0.358217
vn 0.933422 -0.017197 0.358368
vn 0.913024 -0.018372 0.407493
vn -0.004674 0.998235 0.059196
vn 0.012890 0.999879 0.008669
vn 0.012868 0.999879 0.008732
vn -0.004674 0.998235 0.059196
vn -0.034773 -0.998273 0.047351
vn -0.015358 -0.999880 -0.002007
vn -0.015334 -0.999880 -0.002068
vn -0.034773 -0.998273 0.047351
vn -0.953435 0.016023 -0.301173
vn -0.936001 0.017066 -0.351583
vn -0.935945 0.017069 -0.351733
vn -0.953435 0.016023 -0.301173
vn -0.015334 -0.999880 -0.002068
vn -0.015358 -0.999880 -0.002007
vn -0.013471 -0.999887 -0.006618
vn -0.013482 -0.999887 -0.006595
vn -0.935945 0.017069 -0.351733
vn -0.936001 0.017066 -0.351583
vn -0.934206 0.017101 -0.356325
vn -0.934229 0.017102 -0.356264
vn 0.012868 0.999879 0.008732
vn 0.012890 0.999879 0.008669
vn 0.014484 0.999887 0.004021
vn 0.014492 0.999887 0.003998
vn 0.933422 -0.017197 0.358368
vn 0.933480 -0.017193 0.358217
vn 0.935203 -0.017137 0.353698
vn 0.935225 -0.017138 0.353638
vn -0.934229 0.017102 -0.356264
vn -0.934206 0.017101 -0.356325
vn -0.926261 0.016560 -0.376519
vn -0.926261 0.016560 -0.376519
vn 0.014492 0.999887 0.003998
vn 0.014484 0.999887 0.004021
vn 0.021339 0.999634 -0.016637
vn 0.021339 0.999634 -0.016637
vn 0.935225 -0.017138 0.353638
vn 0.935203 -0.017137 0.353698
vn 0.942659 -0.017477 0.333298
vn 0.942659 -0.017477 0.333298
vn -0.013482 -0.999887 -0.006595
vn -0.013471 -0.999887 -0.006618
vn -0.004610 -0.999642 -0.026365
vn -0.004610 -0.999642 -0.026365
vn 0.000000 1.000000 -0.000000
vn 0.000000 1.000000 -0.000000
vn 0.000000 1.000000 -0.000000
vn 0.000000 1.000000 -0.000000
vn -0.000000 -1.000000 0.000000
vn -0.000000 -1.000000 0.000000
vn -0.000000 -1.000000 0.000000
vn -0.000000 -1.000000 0.000000
vn 0.000000 -0.000000 -1.000000
vn 0.000000 -0.000000 -1.000000
vn 0.000000 -0.000000 -1.000000
vn 0.000000 -0.000000 -1.000000
vn -1.000000 0.000000 -0.000000
vn -1.000000 0.000000 -0.000000
vn -1.000000 0.000000 -0.000000
vn -1.000000 0.000000 -0.000000
vn -0.000000 0.000000 1.000000
vn -0.000000 0.000000 1.000000
vn -0.000000 0.000000 1.000000
vn -0.000000 0.000000 1.000000
vn 1.000000 0.000000 0.000000
vn 1.000000 0.000000 0.000000
vn 1.000000 0.000000 0.000000
vn 1.000000 0.000000 0.000000
vn -0.060809 -0.279090 0.958338
vn 0.010051 -0.970807 0.239653
vn 0.010051 -0.970807 0.239653
vn -0.060809 -0.279090 0.958338
vn 0.010051 -0.970807 0.239653
vn 0.070860 -0.691716 -0.718684
vn 0.070860 -0.691716 -0.718684
vn 0.010051 -0.970807 0.239653
vn 0.070860 -0.691716 -0.718684
vn 0.060809 0.279090 -0.958338
vn 0.060809 0.279090 -0.958338
vn 0.070860 -0.691716 -0.718684
vn 0.060809 0.279090 -0.958338
vn -0.010051 0.970807 -0.239653
vn -0.010051 0.970807 -0.239653
vn 0.060809 0.279090 -0.958338
vn -0.010051 0.970807 -0.239653
vn -0.070860 0.691716 0.718684
vn -0.070860 0.691716 0.718684
vn -0.010051 0.970807 -0.239653
vn -0.070860 0.691716 0.718684
vn -0.060809 -0.279090 0.958338
vn -0.060809 -0.279090 0.958338
vn -0.070860 0.691716 0.718684
vn -0.997056 -0.027950 -0.071406
vn -0.997056 -0.027950 -0.071406
vn -0.997056 -0.027950 -0.071406
vn -0.997056 -0.027950 -0.071406
vn -0.997056 -0.027950 -0.071406
vn -0.997056 -0.027950 -0.071406
vn -0.997056 -0.027950 -0.071406
vn -0.997056 -0.027950 -0.071406
vn 0.997056 0.027950 0.071406
vn 0.997056 0.027950 0.071406
vn 0.997056 0.027950 0.071406
vn 0.997056 0.027950 0.071406
vn 0.997056 0.027950 0.071406
vn 0.997056 0.027950 0.071406
vn 0.997056 0.027950 0.071406
vn 0.997056 0.027950 0.071406
vn 0.591151 0.633095 -0.499731
vn 0.591151 0.633095 -0.499731
vn 0.591151 0.633095 -0.499731
vn 0.591151 0.633095 -0.499731
vn -0.482513 0.772763 0.412334
vn -0.482513 0.772763 0.412334
vn -0.482513 0.772763 0.412334
vn -0.482513 0.772763 0.412334
vn -0.591151 -0.633095 0.499731
vn -0.591151 -0.633095 0.499731
vn -0.591151 -0.633095 0.499731
vn -0.591151 -0.633095 0.499731
vn 0.482514 -0.772762 -0.412335
vn 0.482514 -0.772762 -0.412335
vn 0.482514 -0.772762 -0.412335
vn 0.482514 -0.772762 -0.412335
vn 0.483782 -0.774075 -0.408366
vn 0.483782 -0.774075 -0.408366
vn 0.483782 -0.774075 -0.408366
vn 0.483782 -0.774075 -0.408366
vn -0.662361 0.011614 -0.749095
vn -0.659161 0.005814 -0.751980
vn -0.659157 0.005808 -0.751983
vn -0.662361 0.011614 -0.749095
vn 0.635342 0.001902 0.772229
vn 0.628852 0.008046 0.777483
vn 0.628852 0.008046 0.777483
vn 0.635333 0.001912 0.772236
vn -0.659161 0.005814 -0.751980
vn -0.655930 0.000021 -0.754821
vn -0.655930 0.000021 -0.754821
vn -0.659157 0.005808 -0.751983
vn -0.587752 -0.634696 0.501706
vn -0.587752 -0.634696 0.501706
vn -0.587752 -0.634696 0.501706
vn -0.587752 -0.634696 0.501706
vn 0.641755 -0.004233 0.766898
vn 0.635342 0.001902 0.772229
vn 0.635333 0.001912 0.772236
vn 0.641755 -0.004233 0.766898
vn 0.977814 -0.018401 0.208665
vn 0.977814 -0.018401 0.208665
vn 0.977814 -0.018401 0.208665
vn 0.977814 -0.018401 0.208665
vn -0.018671 -0.999770 -0.010551
vn -0.018671 -0.999770 -0.010551
vn -0.018671 -0.999770 -0.010551
vn -0.018671 -0.999770 -0.010551
vn -0.977814 0.018401 -0.208665
vn -0.977814 0.018401 -0.208665
vn -0.977814 0.018401 -0.208665
vn -0.977814 0.018401 -0.208665
vn 0.018673 0.999770 0.010552
vn 0.018673 0.999770 0.010552
vn 0.018673 0.999770 0.010552
vn 0.018673 0.999770 0.010552
vn 0.017457 0.999827 0.006357
vn 0.017457 0.999827 0.006357
vn 0.017457 0.999827 0.006357
vn 0.017457 0.999827 0.006357
vn -0.218726 -0.025909 0.975442
vn -0.218961 -0.018689 0.975555
vn -0.218961 -0.018682 0.975555
vn -0.218726 -0.025909 0.975442
vn 0.199645 -0.006716 -0.979845
vn 0.196919 -0.016708 -0.980278
vn 0.196919 -0.016708 -0.980278
vn 0.199642 -0.006731 -0.979846
vn -0.218961 -0.018689 0.975555
vn -0.219184 -0.011477 0.975616
vn -0.219184 -0.011477 0.975616
vn -0.218961 -0.018682 0.975555
vn -0.976996 0.020487 -0.212270
vn -0.976996 0.020487 -0.212270
vn -0.976996 0.020487 -0.212270
vn -0.976996 0.020487 -0.212270
vn 0.202348 0.003264 -0.979308
vn 0.199645 -0.006716 -0.979845
vn 0.199642 -0.006731 -0.979846
vn 0.202348 0.003264 -0.979308
vn 0.217112 0.893038 -0.394139
vn 0.216686 0.893737 -0.392787
vn -0.062981 0.917124 0.393595
vn -0.063262 0.916799 0.394306
vn 0.265309 -0.454628 -0.850250
vn 0.264984 -0.455934 -0.849652
vn 0.339934 0.384494 -0.858260
vn 0.340002 0.383445 -0.858701
vn -0.266091 0.454016 0.850332
vn -0.265868 0.454919 0.849920
vn -0.342011 -0.359840 0.868069
vn -0.342078 -0.358616 0.868549
vn -0.227806 -0.875622 0.425899
vn -0.227579 -0.876039 0.425164
vn 0.052707 -0.927633 -0.369756
vn 0.053279 -0.927022 -0.371204
vn 0.957462 -0.111657 0.266081
vn 0.957465 -0.111656 0.266072
vn 0.960291 -0.112115 0.255485
vn 0.960291 -0.112115 0.255485
vn -0.266091 0.454016 0.850332
vn -0.063262 0.916799 0.394306
vn -0.062981 0.917124 0.393595
vn -0.265868 0.454919 0.849920
vn -0.227806 -0.875622 0.425899
vn -0.342078 -0.358616 0.868549
vn -0.342011 -0.359840 0.868069
vn -0.227579 -0.876039 0.425164
vn 0.265309 -0.454628 -0.850250
vn 0.053279 -0.927022 -0.371204
vn 0.052707 -0.927633 -0.369756
vn 0.264984 -0.455934 -0.849652
vn 0.217112 0.893038 -0.394139
vn 0.340002 0.383445 -0.858701
vn 0.339934 0.384494 -0.858260
vn 0.216686 0.893737 -0.392787
vn 0.955858 -0.111434 0.271878
vn 0.953071 -0.111113 0.281618
vn 0.953071 -0.111113 0.281618
vn 0.955861 -0.111435 0.271869
vn 0.955858 -0.111434 0.271878
vn 0.955861 -0.111435 0.271869
vn 0.957465 -0.111656 0.266072
vn 0.957462 -0.111657 0.266081
vn 0.940449 -0.052951 0.335787
vn 0.940449 -0.052951 0.335787
vn 0.940449 -0.052951 0.335787
vn 0.940449 -0.052951 0.335787
vn -0.940449 0.052951 -0.335787
vn -0.940449 0.052951 -0.335787
vn -0.940449 0.052951 -0.335787
vn -0.940449 0.052951 -0.335787
vn -0.101030 -0.994464 0.028889
vn -0.101030 -0.994464 0.028889
vn -0.101030 -0.994464 0.028889
vn -0.101030 -0.994464 0.028889
vn -0.261445 0.060104 0.963345
vn -0.261445 0.060104 0.963345
vn -0.261445 0.060104 0.963345
vn -0.261445 0.060104 0.963345
vn 0.101039 0.994462 -0.028930
vn 0.101039 0.994462 -0.028930
vn 0.101039 0.994462 -0.028930
vn 0.101039 0.994462 -0.028930
vn 0.261444 -0.060101 -0.963346
vn 0.261444 -0.060101 -0.963346
vn 0.261444 -0.060101 -0.963346
vn 0.261444 -0.060101 -0.963346
g ScrapMetal_A_LOD0 ScrapMetal_A
usemtl ScrapMetal:initialShadingGroup
f 3/1/1 2/2/2 1/3/3 4/4/4
f 7/5/5 6/6/6 5/7/7 8/8/8
f 2/2/9 12/9/10 9/10/11 1/11/12
f 3/1/13 11/12/14 12/9/15 2/2/16
f 1/11/17 9/10/18 10/13/19 4/14/20
f 4/15/21 10/16/22 11/12/23 3/1/24
f 10/13/25 9/10/26 16/17/27 13/18/28
f 11/12/29 10/16/30 13/19/31 14/20/32
f 12/9/33 11/12/34 14/20/35 15/21/36
f 9/10/37 12/9/38 15/21/39 16/17/40
f 14/20/41 13/19/42 6/22/43 7/5/44
f 15/21/45 14/20/46 7/5/47 8/8/48
f 16/17/49 15/21/50 8/8/51 5/23/52
f 13/18/53 16/17/54 5/23/55 6/24/56
f 22/25/57 21/26/58 23/27/59 24/28/60
f 17/29/61 18/30/62 19/31/63 20/32/64
f 17/33/65 20/34/66 21/26/67 22/25/68
f 20/32/69 19/31/70 23/27/71 21/26/72
f 19/35/73 18/36/74 24/28/75 23/27/76
f 18/37/77 17/38/78 22/25/79 24/28/80
f 25/39/81 26/40/82 32/41/83 31/42/84
f 26/43/85 27/44/86 33/45/87 32/46/88
f 27/44/89 28/47/90 34/48/91 33/45/92
f 28/47/93 29/49/94 35/50/95 34/48/96
f 29/49/97 30/51/98 36/52/99 35/50/100
f 30/51/101 25/39/102 31/42/103 36/52/104
f 28/53/105 27/54/106 26/55/107 29/49/108
f 30/51/109 29/49/110 26/55/111 25/56/112
f 32/57/113 33/58/114 34/59/115 35/50/116
f 32/57/117 35/50/118 36/52/119 31/60/120
f 44/61/121 43/62/122 45/63/123 46/64/124
f 45/63/125 47/65/126 48/66/127 46/64/128
f 40/67/129 42/68/130 38/69/131 37/70/132
f 38/69/133 42/68/134 41/71/135 39/72/136
f 40/67/137 37/70/138 43/73/139 44/74/140
f 37/70/141 38/69/142 45/75/143 43/76/144
f 42/68/145 40/67/146 44/77/147 46/78/148
f 38/69/149 39/72/150 47/79/151 45/80/152
f 39/72/153 41/71/154 48/81/155 47/82/156
f 41/71/157 42/68/158 46/83/159 48/84/160
f 56/85/161 55/86/162 57/87/163 58/88/164
f 57/87/165 59/89/166 60/90/167 58/88/168
f 52/91/169 54/92/170 50/93/171 49/94/172
f 50/93/173 54/92/174 53/95/175 51/96/176
f 52/91/177 49/94/178 55/97/179 56/98/180
f 49/94/181 50/93/182 57/99/183 55/100/184
f 54/92/185 52/91/186 56/101/187 58/102/188
f 50/93/189 51/96/190 59/103/191 57/104/192
f 51/96/193 53/95/194 60/105/195 59/106/196
f 53/95/197 54/92/198 58/107/199 60/108/200
f 73/109/201 76/110/202 63/111/203 62/112/204
f 69/113/205 72/114/206 75/115/207 74/116/208
f 61/117/209 64/118/210 67/119/211 66/120/212
f 65/121/213 68/122/214 71/123/215 70/124/216
f 65/125/217 62/126/218 61/127/219 66/128/220
f 61/117/221 62/112/222 63/111/223 64/118/224
f 65/129/225 66/120/226 67/119/227 68/130/228
f 69/113/229 70/124/230 71/123/231 72/114/232
f 73/109/233 74/116/234 75/115/235 76/110/236
f 70/131/237 69/113/238 74/116/239 73/132/240
f 70/131/241 73/132/242 62/126/243 65/125/244
f 82/133/245 84/134/246 83/135/247 81/136/248
f 79/137/249 78/138/250 77/139/251 80/140/252
f 79/137/253 82/141/254 81/142/255 78/138/256
f 78/138/257 81/143/258 83/144/259 77/139/260
f 77/139/261 83/145/262 84/146/263 80/140/264
f 80/140/265 84/134/266 82/133/267 79/137/268
