# This file uses meters as units for non-parametric coordinates.

mtllib powerlinesD_LOD2.mtl
g default
v 7.037251 0.000000 12.190165
v -7.037988 0.000000 -12.190165
v 7.037251 1104.261475 -12.190165
v -7.037988 1104.261475 12.190165
v 7.037251 1104.261475 12.190165
v -7.037988 1104.261475 -12.190165
v 14.074537 0.000000 0.000000
v -14.075977 0.000000 0.000000
v 14.074537 1104.261475 0.000000
v -14.075977 1104.261475 0.000000
v 7.037251 0.000000 -12.190165
v -7.037988 0.000000 12.190165
v -37.416992 1028.541992 -129.527847
v -37.413300 1023.349854 -129.771042
v -37.475296 1020.541687 -125.396286
v -37.541348 1022.925354 -120.778702
v -37.544674 1028.117676 -120.535515
v -37.482677 1030.925781 -124.910271
v -23.590918 1022.796265 -130.644501
v -23.595160 1029.191406 -130.344864
v -23.676050 1032.128906 -124.657120
v -23.752657 1028.671143 -119.269409
v -23.748413 1022.276001 -119.569054
v -23.667564 1019.338501 -125.256416
v -10.701639 1036.361572 -184.511032
v -10.701639 1036.361572 184.511032
v -10.701639 1008.935913 184.511032
v -10.701639 1008.935913 -184.511032
v -20.296177 1036.361572 -184.511032
v -20.296177 1008.935913 -184.511032
v -20.296177 1008.935913 184.511032
v -20.296177 1036.361572 184.511032
v -20.296177 1008.935913 0.000000
v -10.701639 1008.935913 0.000000
v -10.701639 1036.361572 0.000000
v -20.296177 1036.361572 0.000000
v 10.701639 1008.935913 184.511032
v 10.701639 1008.935913 -184.511032
v 10.701639 1036.361572 -184.511032
v 10.701639 1036.361572 184.511032
v 20.296177 1008.935913 184.511032
v 20.296177 1036.361572 184.511032
v 20.296177 1036.361572 -184.511032
v 20.296177 1008.935913 -184.511032
v 20.296177 1036.361572 0.000000
v 10.701639 1036.361572 0.000000
v 10.701639 1008.935913 0.000000
v 20.296177 1008.935913 0.000000
v 26.995811 1026.021484 149.901184
v 26.995811 1021.176270 149.518524
v 26.995811 1018.415955 153.528305
v 26.995811 1020.512085 157.918930
v 26.995811 1025.361084 158.300140
v 26.995811 1028.117676 154.291443
v 22.664413 1014.984009 149.572021
v 22.664413 1018.249878 162.195892
v 22.664413 1030.874146 158.930420
v 22.664413 1027.608276 146.306534
v 26.995811 1027.944092 -157.224442
v 26.995811 1024.445801 -160.602814
v 26.995811 1019.766602 -159.262909
v 26.995811 1018.589478 -154.543488
v 26.995811 1022.091553 -151.163971
v 26.995811 1026.766846 -152.505371
v 22.664413 1015.917664 -161.530548
v 22.664413 1016.939941 -148.531738
v 22.664413 1029.940430 -149.555054
v 22.664413 1028.918335 -162.553848
v -24.742746 1043.834229 132.146805
v -10.600232 1043.834229 123.981438
v -10.600232 1043.834229 140.312149
v -21.723295 1054.140991 132.146805
v -12.109975 1054.140991 126.596703
v -12.109975 1054.140991 137.696884
v -20.028599 1043.834229 -133.502213
v -20.028599 1043.834229 -149.832916
v -5.886086 1043.834229 -141.667572
v -18.518856 1054.140991 -136.117477
v -18.518856 1054.140991 -147.217667
v -8.905535 1054.140991 -141.667572
v -20.028599 1043.834229 -167.452240
v -20.028599 1043.834229 -183.782944
v -5.886086 1043.834229 -175.617599
v -18.518856 1054.140991 -170.067505
v -18.518856 1054.140991 -181.167694
v -8.905535 1054.140991 -175.617599
v 6.624130 1043.834229 132.146805
v 20.766642 1043.834229 123.981438
v 20.766642 1043.834229 140.312149
v 9.643579 1054.140991 132.146805
v 19.256899 1054.140991 126.596703
v 19.256899 1054.140991 137.696884
v 11.338277 1043.834229 -133.502213
v 11.338277 1043.834229 -149.832916
v 25.480789 1043.834229 -141.667572
v 12.848018 1054.140991 -136.117477
v 12.848018 1054.140991 -147.217667
v 22.461338 1054.140991 -141.667572
v 11.338277 1043.834229 -167.452240
v 11.338277 1043.834229 -183.782944
v 25.480789 1043.834229 -175.617599
v 12.848018 1054.140991 -170.067505
v 12.848018 1054.140991 -181.167694
v 22.461338 1054.140991 -175.617599
v -14.212342 1016.568481 -98.993942
v -13.543642 1009.136108 -104.842476
v -17.933939 947.079163 -11.125370
v -17.265202 939.647034 -16.973822
v 14.212342 1016.568481 -98.993942
v 13.543642 1009.136108 -104.842476
v 17.933939 947.079163 -11.125370
v 17.265202 939.647034 -16.973822
v -14.212348 1013.427734 96.595184
v -13.543627 1005.999634 102.444199
v -17.933935 943.942810 8.726798
v -17.265200 936.510742 14.575292
v 14.212342 1016.568481 98.993942
v 13.543642 1009.136108 104.842476
v 17.933939 947.079163 11.125370
v 17.265202 939.647034 16.973822
vt 0.250000 -3.827500
vt 0.416666 -3.827500
vt 0.416666 4.827500
vt 0.250000 4.827500
vt 0.750000 -3.827500
vt 0.916667 -3.827500
vt 0.916667 4.827500
vt 0.750000 4.827500
vt 0.083333 -3.827500
vt 0.083333 4.827500
vt 0.583333 4.827500
vt 0.583333 -3.827500
vt 0.714009 0.765972
vt 0.008059 0.765972
vt 0.008059 0.661047
vt 0.714009 0.661047
vt 0.714009 0.991941
vt 0.008059 0.991941
vt 0.008059 0.887016
vt 0.714009 0.887016
vt 0.008059 0.548062
vt 0.714009 0.548062
vt 0.714009 0.652988
vt 0.008059 0.652988
vt 0.008059 0.774031
vt 0.714009 0.774031
vt 0.714009 0.878957
vt 0.008059 0.878957
vt 0.714009 0.765972
vt 0.714009 0.661047
vt 0.008059 0.661047
vt 0.008059 0.765972
vt 0.714009 0.991941
vt 0.714009 0.887016
vt 0.008059 0.887016
vt 0.008059 0.991941
vt 0.008059 0.548062
vt 0.008059 0.652988
vt 0.714009 0.652988
vt 0.714009 0.548062
vt 0.008059 0.774031
vt 0.008059 0.878957
vt 0.714009 0.878957
vt 0.714009 0.774031
vt 0.925585 0.500400
vt 0.975476 0.500400
vt 0.975476 0.450510
vt 0.925585 0.450510
vt 0.650032 0.347846
vt 0.666150 0.357152
vt 0.682266 0.347846
vt 0.682266 0.329235
vt 0.666150 0.319930
vt 0.650032 0.329236
vt 0.925585 0.500400
vt 0.975476 0.500400
vt 0.975476 0.450510
vt 0.925585 0.450510
vt 0.650032 0.347846
vt 0.666150 0.357152
vt 0.682266 0.347846
vt 0.682266 0.329235
vt 0.666150 0.319930
vt 0.650032 0.329236
vt 0.673417 0.516363
vt 0.673379 0.377299
vt 0.639022 0.406920
vt 0.638535 0.486345
vt 0.699235 0.446774
vt 0.654143 0.446741
vt 0.673417 0.516363
vt 0.673379 0.377299
vt 0.639022 0.406920
vt 0.638535 0.486345
vt 0.699235 0.446774
vt 0.654143 0.446741
vt 0.693322 0.409314
vt 0.649359 0.425925
vt 0.620548 0.392833
vt 0.644162 0.353646
vt 0.692680 0.483900
vt 0.650189 0.468020
vt 0.644162 0.540004
vt 0.620533 0.500819
vt 0.692680 0.483900
vt 0.650189 0.468020
vt 0.649359 0.425925
vt 0.693322 0.409314
vt 0.644162 0.540004
vt 0.620533 0.500819
vt 0.644162 0.353646
vt 0.620548 0.392833
vt 0.692680 0.483900
vt 0.644162 0.540004
vt 0.620533 0.500819
vt 0.650189 0.468020
vt 0.644162 0.353646
vt 0.693322 0.409314
vt 0.649359 0.425925
vt 0.620548 0.392833
vt 0.693322 0.409314
vt 0.649359 0.425925
vt 0.620548 0.392833
vt 0.644162 0.353646
vt 0.692680 0.483900
vt 0.650189 0.468020
vt 0.620533 0.500819
vt 0.644162 0.540004
vt 0.291405 0.068172
vt 0.291405 0.015149
vt 0.314374 0.015149
vt 0.314374 0.068172
vt 0.268435 0.068172
vt 0.268435 0.015149
vt 0.337345 0.015149
vt 0.337345 0.068172
vt 0.360315 0.068172
vt 0.360315 0.015149
vt 0.245464 0.015149
vt 0.245464 0.068172
vt 0.136497 0.183952
vt 0.556985 0.183954
vt 0.557001 0.221196
vt 0.136513 0.221194
vt 0.136497 0.183952
vt 0.136513 0.221194
vt 0.557001 0.221196
vt 0.556985 0.183954
vt 0.556985 0.183954
vt 0.136497 0.183952
vt 0.136513 0.221194
vt 0.557001 0.221196
vt 0.136497 0.183952
vt 0.556985 0.183954
vt 0.557001 0.221196
vt 0.136513 0.221194
vn -1.000000 0.000000 -0.000000
vn -0.499998 0.000000 0.866026
vn -0.499998 0.000000 0.866026
vn -1.000000 0.000000 -0.000000
vn 1.000000 0.000000 0.000000
vn 0.500044 0.000000 -0.866000
vn 0.500044 0.000000 -0.866000
vn 1.000000 0.000000 0.000000
vn -0.499998 0.000000 -0.866026
vn -1.000000 0.000000 -0.000000
vn -1.000000 0.000000 -0.000000
vn -0.499998 0.000000 -0.866026
vn 1.000000 0.000000 0.000000
vn 1.000000 0.000000 0.000000
vn 0.500044 0.000000 0.866000
vn 0.500044 0.000000 0.866000
vn 0.500044 0.000000 0.866000
vn 0.500044 0.000000 0.866000
vn -0.499998 0.000000 0.866026
vn -0.499998 0.000000 0.866026
vn 0.500044 0.000000 -0.866000
vn -0.499998 0.000000 -0.866026
vn -0.499998 0.000000 -0.866026
vn 0.500044 0.000000 -0.866000
vn 1.000000 0.000000 0.000000
vn 1.000000 0.000000 0.000000
vn 1.000000 0.000000 0.000000
vn 1.000000 0.000000 0.000000
vn 1.000000 0.000000 0.000000
vn 1.000000 0.000000 0.000000
vn 1.000000 0.000000 0.000000
vn 1.000000 0.000000 0.000000
vn -1.000000 0.000000 0.000000
vn -1.000000 0.000000 0.000000
vn -1.000000 0.000000 0.000000
vn -1.000000 0.000000 0.000000
vn -1.000000 0.000000 0.000000
vn -1.000000 0.000000 0.000000
vn -1.000000 0.000000 0.000000
vn -1.000000 0.000000 0.000000
vn -1.000000 0.000000 0.000000
vn -1.000000 0.000000 0.000000
vn -1.000000 0.000000 0.000000
vn -1.000000 0.000000 0.000000
vn -1.000000 0.000000 0.000000
vn -1.000000 0.000000 0.000000
vn -1.000000 0.000000 0.000000
vn -1.000000 0.000000 0.000000
vn 1.000000 0.000000 0.000000
vn 1.000000 0.000000 0.000000
vn 1.000000 0.000000 0.000000
vn 1.000000 0.000000 0.000000
vn 1.000000 0.000000 0.000000
vn 1.000000 0.000000 0.000000
vn 1.000000 0.000000 0.000000
vn 1.000000 0.000000 0.000000
vn 1.000000 -0.000000 0.000000
vn 1.000000 -0.000000 0.000000
vn 1.000000 -0.000000 0.000000
vn 1.000000 -0.000000 0.000000
vn 1.000000 -0.000000 0.000000
vn 1.000000 0.000000 0.000000
vn 1.000000 0.000000 0.000000
vn 1.000000 -0.000000 0.000000
vn 1.000000 -0.000000 0.000000
vn 1.000000 -0.000000 0.000000
vn 1.000000 -0.000000 0.000000
vn 1.000000 -0.000000 0.000000
vn 1.000000 -0.000000 0.000000
vn 1.000000 -0.000000 0.000000
vn 1.000000 -0.000000 0.000000
vn 1.000000 -0.000000 0.000000
vn 1.000000 0.000000 0.000000
vn 1.000000 0.000000 0.000000
vn 1.000000 0.000000 0.000000
vn 1.000000 0.000000 0.000000
vn 1.000000 0.000000 0.000000
vn 1.000000 0.000000 0.000000
vn 1.000000 0.000000 0.000000
vn 1.000000 0.000000 0.000000
vn -0.977278 0.211963 -0.000002
vn 0.488633 0.212013 0.846339
vn 0.434258 0.495685 0.752141
vn -0.868498 0.495693 0.000001
vn 0.488633 0.212013 0.846339
vn 0.488635 0.212015 -0.846337
vn 0.434269 0.495680 -0.752138
vn 0.434258 0.495685 0.752141
vn 0.488635 0.212015 -0.846337
vn -0.977278 0.211963 -0.000002
vn -0.868498 0.495693 0.000001
vn 0.434269 0.495680 -0.752138
vn -0.977278 0.211963 0.000001
vn 0.488630 0.212010 0.846341
vn 0.434258 0.495682 0.752143
vn -0.868498 0.495693 0.000002
vn 0.488630 0.212010 0.846341
vn 0.488631 0.212012 -0.846340
vn 0.434276 0.495680 -0.752134
vn 0.434258 0.495682 0.752143
vn -0.977278 0.211963 0.000001
vn -0.868498 0.495693 0.000002
vn 0.434276 0.495680 -0.752134
vn 0.488631 0.212012 -0.846340
vn 0.977278 0.211963 0.000002
vn 0.868496 0.495696 -0.000002
vn -0.226655 0.482770 0.845908
vn -0.253326 0.205113 0.945386
vn 0.977278 0.211963 0.000002
vn -0.488632 0.212012 -0.846339
vn -0.434274 0.495686 -0.752131
vn 0.868496 0.495696 -0.000002
vn -0.488632 0.212012 -0.846339
vn -0.692077 0.205082 0.692077
vn -0.619240 0.482797 0.619233
vn -0.434274 0.495686 -0.752131
vn -0.488632 0.212012 -0.846339
vn -0.434274 0.495685 -0.752132
vn 0.868497 0.495695 -0.000002
vn 0.977278 0.211963 0.000001
vn -0.488632 0.212012 -0.846339
vn -0.692077 0.205084 0.692077
vn -0.619239 0.482798 0.619233
vn -0.434274 0.495685 -0.752132
vn -0.253329 0.205114 0.945385
vn 0.977278 0.211963 0.000001
vn 0.868497 0.495695 -0.000002
vn -0.226663 0.482769 0.845907
vn -0.488629 0.212010 -0.846341
vn -0.692077 0.205084 0.692077
vn -0.619224 0.482798 0.619247
vn -0.434273 0.495682 -0.752134
vn -0.253323 0.205109 0.945388
vn 0.977278 0.211963 0.000003
vn 0.868497 0.495695 0.000001
vn -0.226660 0.482757 0.845915
vn 0.977278 0.211963 0.000003
vn -0.488629 0.212010 -0.846341
vn -0.434273 0.495682 -0.752134
vn 0.868497 0.495695 0.000001
vn 0.977278 0.211963 0.000004
vn 0.868496 0.495696 0.000001
vn -0.226652 0.482758 0.845916
vn -0.253320 0.205108 0.945389
vn 0.977278 0.211963 0.000004
vn -0.488629 0.212010 -0.846341
vn -0.434273 0.495683 -0.752134
vn 0.868496 0.495696 0.000001
vn -0.619225 0.482797 0.619247
vn -0.434273 0.495683 -0.752134
vn -0.488629 0.212010 -0.846341
vn -0.692077 0.205083 0.692077
vn -0.087497 0.995146 0.045045
vn -0.087497 0.995147 0.045024
vn -0.099426 0.457193 0.883793
vn -0.099426 0.457213 0.883782
vn -0.087497 0.995146 0.045045
vn -0.074939 0.538059 -0.839570
vn -0.074939 0.538076 -0.839558
vn -0.087497 0.995147 0.045024
vn -0.099426 0.457213 0.883782
vn -0.099426 0.457193 0.883793
vn -0.098777 -0.538080 0.837086
vn -0.098777 -0.538061 0.837098
vn -0.086185 -0.995146 -0.047511
vn -0.098777 -0.538061 0.837098
vn -0.098777 -0.538080 0.837086
vn -0.086185 -0.995146 -0.047499
vn -0.086185 -0.995146 -0.047511
vn -0.086185 -0.995146 -0.047499
vn -0.074271 -0.457148 -0.886284
vn -0.074271 -0.457167 -0.886274
vn -0.074939 0.538059 -0.839570
vn -0.074271 -0.457167 -0.886274
vn -0.074271 -0.457148 -0.886284
vn -0.074939 0.538076 -0.839558
vn -0.995708 -0.018181 -0.090745
vn -0.997488 -0.051416 -0.048715
vn -0.997488 -0.051409 -0.048723
vn -0.995709 -0.018187 -0.090736
vn 0.995708 -0.018181 -0.090745
vn 0.995709 -0.018187 -0.090737
vn 0.997488 -0.051409 -0.048723
vn 0.997488 -0.051416 -0.048715
vn -0.997488 -0.051425 0.048715
vn -0.995708 -0.018180 0.090752
vn -0.995708 -0.018185 0.090745
vn -0.997488 -0.051419 0.048722
vn 0.995708 -0.018181 0.090745
vn 0.997488 -0.051416 0.048715
vn 0.997488 -0.051409 0.048723
vn 0.995709 -0.018187 0.090737
g powerlinesD_LOD2 powerlinesD
usemtl lambert12SG
f 8/1/1 12/2/2 4/3/3 10/4/4
f 7/5/5 11/6/6 3/7/7 9/8/8
f 2/9/9 8/1/10 10/4/11 6/10/12
f 7/5/13 9/8/14 5/11/15 1/12/16
f 1/12/17 5/11/18 4/3/19 12/2/20
f 11/6/21 2/9/22 6/10/23 3/7/24
usemtl lambert13SG
f 27/13/25 34/14/26 35/15/27 26/16/28
f 34/17/29 28/18/30 25/19/31 35/20/32
f 32/21/33 36/22/34 33/23/35 31/24/36
f 36/25/37 29/26/38 30/27/39 33/28/40
f 39/29/41 38/30/42 47/31/43 46/32/44
f 46/33/45 47/34/46 37/35/47 40/36/48
f 44/37/49 43/38/50 45/39/51 48/40/52
f 48/41/53 45/42/54 42/43/55 41/44/56
f 56/45/57 55/46/58 58/47/59 57/48/60
f 52/49/61 51/50/62 50/51/63 49/52/64
f 49/52/65 54/53/66 53/54/67 52/49/68
f 66/55/69 65/56/70 68/57/71 67/58/72
f 62/59/73 61/60/74 60/61/75 59/62/76
f 62/59/77 59/62/78 64/63/79 63/64/80
f 87/65/81 89/66/82 92/67/83 90/68/84
f 89/66/85 88/69/86 91/70/87 92/67/88
f 88/69/89 87/65/90 90/68/91 91/70/92
f 69/71/93 71/72/94 74/73/95 72/74/96
f 71/72/97 70/75/98 73/76/99 74/73/100
f 69/71/101 72/74/102 73/76/103 70/75/104
f 77/77/105 80/78/106 78/79/107 75/80/108
f 77/77/109 76/81/110 79/82/111 80/78/112
f 76/81/113 75/83/114 78/84/115 79/82/116
f 82/85/117 85/86/118 86/87/119 83/88/120
f 82/85/121 81/89/122 84/90/123 85/86/124
f 81/91/125 83/88/126 86/87/127 84/92/128
f 100/93/129 99/94/130 102/95/131 103/96/132
f 99/97/133 101/98/134 104/99/135 102/100/136
f 101/98/137 100/93/138 103/96/139 104/99/140
f 95/101/141 98/102/142 96/103/143 93/104/144
f 95/101/145 94/105/146 97/106/147 98/102/148
f 96/107/149 97/106/150 94/105/151 93/108/152
f 21/109/153 18/110/154 17/111/155 22/112/156
f 21/109/157 20/113/158 13/114/159 18/110/160
f 22/112/161 17/111/162 16/115/163 23/116/164
f 24/117/165 23/116/166 16/115/167 15/118/168
f 24/117/169 15/118/170 14/119/171 19/120/172
f 20/113/173 19/120/174 14/119/175 13/114/176
f 106/121/177 108/122/178 107/123/179 105/124/180
f 110/125/181 109/126/182 111/127/183 112/128/184
f 116/129/185 114/130/186 113/131/187 115/132/188
f 118/133/189 120/134/190 119/135/191 117/136/192
