# This file uses meters as units for non-parametric coordinates.

mtllib BuildingE_Corner_Top_VarA_mdl.mtl
g default
v -100.000000 0.000000 100.000000
v 0.000000 0.000000 100.000000
v -100.000000 400.000000 100.000000
v 0.000000 400.000000 100.000000
v 0.000000 400.000000 0.000000
v 0.000000 0.000000 0.000000
v -100.000000 330.966187 100.000000
v 0.000000 330.966187 100.000000
v 0.000000 330.966187 0.000000
v 0.000000 367.489685 0.000000
v 0.000000 367.489685 100.000000
v -100.000000 367.489685 100.000000
v -100.000000 0.000000 50.000000
v -50.000000 0.000000 50.000000
v -100.000000 400.000000 50.000000
v -50.000000 400.000000 50.000000
v -50.000000 400.000000 0.000000
v -50.000000 0.000000 0.000000
v -50.949947 400.000000 49.050064
v 0.949937 400.000000 100.949959
v -50.949947 418.177216 49.050064
v 0.949937 418.177216 100.949959
v -50.949947 418.177216 0.000000
v 0.949940 418.177216 0.000000
v -50.949947 400.000000 0.000000
v 0.949940 400.000000 0.000000
v -100.000000 418.177216 100.949959
v -100.000000 418.177216 49.050060
v -100.000000 400.000000 100.949959
v -100.000000 400.000000 49.050060
v 0.000000 400.000000 95.445351
v 0.000000 367.489685 95.445297
v 0.000000 330.966187 95.445351
v 0.000000 0.000000 95.445297
v -4.443401 0.000000 100.000000
v -4.443401 330.966187 100.000000
v -4.443360 367.489685 100.000000
v -4.443401 400.000000 100.000000
v -47.775764 418.177216 0.000000
v -47.775764 418.177216 52.224243
v -100.000000 418.177185 52.224262
v -100.000000 418.177216 97.914589
v -2.085432 418.177216 97.914589
v -2.085429 418.177216 0.000000
v -100.000000 415.791321 100.949959
v 0.949937 415.791260 100.949959
v 0.949940 415.791321 0.000000
v -100.000000 402.730713 100.949959
v 0.949937 402.730713 100.949959
v 0.949940 402.730713 0.000000
v -100.000000 400.000000 98.332893
v -1.667114 400.000000 98.332909
v -1.667112 400.000000 0.000000
v -100.000000 400.000000 51.878895
v -48.121128 400.000000 51.878880
v -48.121128 400.000000 0.000000
v -50.949947 402.666534 0.000000
v -50.949947 402.666565 49.050068
v -100.000000 402.666534 49.050060
v -50.949947 415.597961 0.000000
v -50.949947 415.597961 49.050064
v -100.000000 415.597961 49.050060
v -54.081692 418.177185 49.050060
v -50.907513 418.177216 52.224243
v -5.217175 418.177216 97.914589
v -2.181808 418.177216 100.949959
v -2.181806 415.791260 100.949959
v -2.181806 402.730713 100.949959
v -2.181806 400.000000 100.949959
v -4.798857 400.000000 98.332909
v -51.252865 400.000000 51.878880
v -54.081692 400.000000 49.050064
v -54.081696 402.666565 49.050064
v -54.081692 415.597931 49.050060
v -50.949947 418.177216 46.430252
v -50.949947 415.597961 46.430252
v -50.949947 402.666565 46.430256
v -50.949947 400.000000 46.430252
v -48.121128 400.000061 49.259071
v -1.667114 400.000061 95.713097
v 0.949937 400.000000 98.330147
v 0.949937 402.730713 98.330147
v 0.949937 415.791260 98.330147
v 0.949937 418.177185 98.330147
v -2.085432 418.177216 95.294777
v -47.775764 418.177216 49.604431
vt 0.304820 0.001609
vt 0.562269 0.001609
vt 0.562269 0.100011
vt 0.304820 0.100011
vt 0.561969 0.100011
vt 0.561969 0.001609
vt 0.304820 0.001609
vt 0.304820 0.100011
vt 0.000147 0.000287
vt 0.288732 0.000287
vt 0.288732 0.999818
vt 0.000147 0.999818
vt 0.288396 0.999818
vt 0.288396 0.000287
vt 0.000147 0.000287
vt 0.000147 0.999818
vt 0.793086 0.074471
vt 0.793086 0.000683
vt 0.576455 0.000683
vt 0.576455 0.074471
vt 0.576455 0.000683
vt 0.793338 0.000683
vt 0.793338 0.074471
vt 0.576455 0.074471
vt 0.805878 0.000732
vt 0.805878 0.000182
vt 0.805947 0.000182
vt 0.805947 0.000732
vt 0.806016 0.000182
vt 0.806016 0.000732
vt 0.809621 0.000720
vt 0.809621 0.000717
vt 0.809684 0.000654
vt 0.809684 0.000657
vt 0.809716 0.000653
vt 0.809716 0.000657
vt 0.809713 0.000653
vt 0.809713 0.000650
vt 0.809691 0.000650
vt 0.809691 0.000653
vt 0.809688 0.000653
vt 0.809688 0.000650
vt 0.809613 0.000725
vt 0.809613 0.000721
vt 0.809617 0.000721
vt 0.809617 0.000725
vt 0.809679 0.000654
vt 0.809617 0.000717
vt 0.809717 0.000650
vt 0.809721 0.000653
vt 0.809617 0.000725
vt 0.809612 0.000725
vt 0.809612 0.000721
vt 0.809684 0.000646
vt 0.809688 0.000646
vt 0.809684 0.000650
vt 0.803423 0.000683
vt 0.803423 0.074471
vt 0.574240 0.001609
vt 0.574240 0.100011
vt 0.302151 0.000287
vt 0.302152 0.999818
vt 0.809684 0.000628
vt 0.809688 0.000628
vt 0.809709 0.000650
vt 0.809709 0.000653
vt 0.809684 0.000625
vt 0.809688 0.000625
vt 0.809785 0.000717
vt 0.809780 0.000717
vt 0.809780 0.000721
vt 0.809788 0.000721
vt 0.809784 0.000721
vt 0.809784 0.000725
vt 0.809592 0.000725
vt 0.809592 0.000721
vt 0.809595 0.000721
vt 0.809595 0.000725
vt 0.809617 0.000746
vt 0.809612 0.000746
vt 0.809612 0.000742
vt 0.809617 0.000742
vt 0.809549 0.000717
vt 0.809549 0.000721
vt 0.809549 0.000654
vt 0.809549 0.000650
vt 0.809549 0.000646
vt 0.809549 0.000628
vt 0.809549 0.000625
vt 0.809852 0.000650
vt 0.809852 0.000653
vt 0.809852 0.000717
vt 0.809852 0.000721
vt 0.809549 0.000746
vt 0.809549 0.000742
vt 0.809549 0.000725
vt 0.809613 0.000788
vt 0.809617 0.000788
vt 0.809595 0.000788
vt 0.809592 0.000788
vt 0.809784 0.000788
vt 0.809780 0.000788
vt 0.809716 0.000788
vt 0.809713 0.000788
vt 0.809709 0.000788
vt 0.809691 0.000788
vt 0.809688 0.000788
vt 0.809684 0.000788
vt 0.809621 0.000788
vn 0.000000 0.000000 1.000000
vn 0.000000 0.000000 1.000000
vn 0.000000 0.000000 1.000000
vn 0.000000 0.000000 1.000000
vn 1.000000 0.000000 0.000000
vn 1.000000 0.000000 0.000000
vn 1.000000 0.000000 0.000000
vn 1.000000 0.000000 0.000000
vn 0.000000 0.000000 1.000000
vn 0.000000 0.000000 1.000000
vn 1.000000 0.000000 0.000000
vn 1.000000 0.000000 0.000000
vn 1.000000 0.000000 0.000000
vn 1.000000 0.000000 0.000000
vn 0.000000 0.000000 1.000000
vn 0.000000 0.000000 1.000000
vn 0.000000 0.000000 -1.000000
vn 0.000000 0.000000 -1.000000
vn 0.000000 0.000000 -1.000000
vn 0.000000 0.000000 -1.000000
vn -1.000000 0.000000 0.000000
vn -1.000000 0.000000 0.000000
vn -1.000000 0.000000 0.000000
vn -1.000000 0.000000 0.000000
vn 0.000000 1.000000 -0.000001
vn -0.000000 1.000000 0.000000
vn 0.000001 1.000000 -0.000002
vn 0.000001 1.000000 -0.000000
vn 0.000009 -1.000000 -0.000007
vn -0.000000 -1.000000 -0.000001
vn 0.895195 -0.445674 -0.000000
vn 0.531815 -0.559479 0.635733
vn 0.641632 0.000000 0.767013
vn 1.000000 0.000000 0.000000
vn 0.834781 0.550582 -0.000000
vn 0.477863 0.667330 0.571242
vn -1.000000 -0.000000 0.000000
vn -0.641634 -0.000000 -0.767011
vn -0.230309 0.933363 -0.275302
vn -0.477516 0.878623 0.000000
vn -0.000000 1.000000 -0.000003
vn -0.000000 1.000000 0.000000
vn 0.000000 -0.449149 0.893457
vn 0.000000 -1.000000 0.000000
vn 0.000000 -0.000000 -1.000000
vn -0.000000 0.877216 -0.480096
vn 0.000000 0.000000 1.000000
vn 0.000000 0.554321 0.832303
vn 0.715798 0.000000 0.698308
vn 0.715797 0.000000 0.698308
vn 0.715796 0.000000 0.698309
vn 0.715796 0.000000 0.698310
vn 0.000000 0.000000 1.000000
vn 0.641633 0.000000 0.767012
vn 1.000000 0.000000 0.000000
vn 0.000000 -1.000000 -0.000000
vn 0.000011 -1.000000 -0.000007
vn 0.000000 -1.000000 0.000000
vn 0.000000 -0.843348 -0.537368
vn -0.261405 -0.913244 -0.312495
vn -0.534670 -0.845061 0.000000
vn -0.641632 -0.000000 -0.767013
vn -1.000000 0.000000 0.000000
vn 0.000000 -0.000000 -1.000000
vn -0.000000 1.000000 0.000000
vn 0.000000 0.786433 -0.617675
vn -0.000000 1.000000 -0.000001
vn 0.000000 0.781473 0.623940
vn 0.000000 0.000000 1.000000
vn 0.000000 0.000000 1.000000
vn 0.000000 -0.687051 0.726609
vn 0.000000 -1.000000 0.000000
vn 0.000000 -1.000000 -0.000001
vn 0.000000 -0.737957 -0.674848
vn 0.000000 -0.000000 -1.000000
vn 0.000000 -0.000000 -1.000000
vn -1.000000 0.000000 0.000000
vn -0.617822 0.786318 0.000000
vn -1.000000 0.000000 0.000000
vn -0.674960 -0.737855 0.000001
vn -0.000000 -1.000000 0.000000
vn -0.000001 -1.000000 0.000000
vn 0.726582 -0.687080 0.000000
vn 1.000000 0.000000 0.000000
vn 1.000000 0.000000 0.000000
vn 0.623915 0.781492 0.000000
vn 0.000000 1.000000 -0.000001
vn 0.000000 1.000000 -0.000001
g BuildingE_Corner_Top_VarA_mdl
usemtl lambert5SG
f 7/1/1 36/2/2 37/3/3 12/4/4
f 32/5/5 33/6/6 9/7/7 10/8/8
usemtl lambert2SG
f 1/9/9 35/10/10 36/11/2 7/12/1
f 33/13/6 34/14/11 6/15/12 9/16/7
f 31/17/13 32/18/5 10/19/8 5/20/14
f 12/21/4 37/22/3 38/23/15 3/24/16
usemtl lambert4SG
f 13/25/17 15/26/18 16/27/19 14/28/20
f 14/28/21 16/27/22 17/29/23 18/30/24
usemtl lambert5SG
f 86/31/25 40/32/26 43/33/27 85/34/28
f 52/35/29 80/36/30 81/37/31 20/38/32
f 46/39/33 83/40/34 84/41/35 22/42/36
f 76/43/37 61/44/38 21/45/39 75/46/40
f 65/47/41 43/33/27 40/32/26 64/48/42
f 69/49/43 70/50/44 52/35/29 20/38/32
f 61/51/38 74/52/45 63/53/46 21/45/39
f 67/54/47 46/55/33 22/42/36 66/56/48
usemtl lambert2SG
f 11/57/49 32/18/5 31/17/13 4/58/50
usemtl lambert5SG
f 8/59/51 33/6/6 32/5/5 11/60/49
usemtl lambert2SG
f 2/61/52 34/14/11 33/13/6 8/62/51
f 36/11/2 35/10/10 2/61/52 8/62/51
usemtl lambert5SG
f 37/3/3 36/2/2 8/59/51 11/60/49
usemtl lambert2SG
f 38/23/15 37/22/3 11/57/49 4/58/50
usemtl lambert5SG
f 21/45/39 40/32/26 86/31/25 75/46/40
f 64/48/42 40/32/26 21/45/39 63/53/46
f 22/42/36 43/33/27 65/47/41 66/56/48
f 85/34/28 43/33/27 22/42/36 84/41/35
f 68/63/53 49/64/54 46/55/33 67/54/47
f 49/65/54 82/66/55 83/40/34 46/39/33
f 69/67/43 20/68/32 49/64/54 68/63/53
f 20/38/32 81/37/31 82/66/55 49/65/54
f 52/35/29 70/50/44 71/69/56 55/70/57
f 55/70/57 79/71/58 80/36/30 52/35/29
f 55/70/57 71/69/56 72/72/59 19/73/60
f 78/74/61 79/71/58 55/70/57 19/73/60
f 78/75/61 19/76/60 58/77/62 77/78/63
f 19/79/60 72/80/59 73/81/64 58/82/62
f 77/78/63 58/77/62 61/44/38 76/43/37
f 58/82/62 73/81/64 74/52/45 61/51/38
f 41/83/65 64/48/42 63/53/46 28/84/66
f 42/85/67 65/47/41 64/48/42 41/83/65
f 66/56/48 65/47/41 42/85/67 27/86/68
f 45/87/69 67/54/47 66/56/48 27/86/68
f 48/88/70 68/63/53 67/54/47 45/87/69
f 29/89/71 69/67/43 68/63/53 48/88/70
f 29/90/71 51/91/72 70/50/44 69/49/43
f 71/69/56 70/50/44 51/91/72 54/92/73
f 72/72/59 71/69/56 54/92/73 30/93/74
f 73/81/64 72/80/59 30/94/74 59/95/75
f 74/52/45 73/81/64 59/95/75 62/96/76
f 63/53/46 74/52/45 62/96/76 28/84/66
f 60/97/77 76/43/37 75/46/40 23/98/78
f 57/99/79 77/78/63 76/43/37 60/97/77
f 25/100/80 78/75/61 77/78/63 57/99/79
f 25/101/80 56/102/81 79/71/58 78/74/61
f 80/36/30 79/71/58 56/102/81 53/103/82
f 81/37/31 80/36/30 53/103/82 26/104/83
f 82/66/55 81/37/31 26/104/83 50/105/84
f 83/40/34 82/66/55 50/105/84 47/106/85
f 84/41/35 83/40/34 47/106/85 24/107/86
f 44/108/87 85/34/28 84/41/35 24/107/86
f 39/109/88 86/31/25 85/34/28 44/108/87
f 75/46/40 86/31/25 39/109/88 23/98/78
