# This file uses meters as units for non-parametric coordinates.

mtllib BuildingE_Corner_Mid_VarA_mdl.mtl
g default
v -100.000000 0.000000 100.000000
v 0.000000 0.000000 100.000000
v -100.000000 400.000000 100.000000
v 0.000000 400.000000 100.000000
v 0.000000 400.000000 0.000000
v 0.000000 0.000000 0.000000
v -100.000000 330.966187 100.000000
v 0.000000 330.966187 100.000000
v 0.000000 330.966187 0.000000
v 0.000000 367.489685 0.000000
v 0.000000 367.489685 100.000000
v -100.000000 367.489685 100.000000
v -100.000000 0.000000 50.000000
v -50.000000 0.000000 50.000000
v -100.000000 400.000000 50.000000
v -50.000000 400.000000 50.000000
v -50.000000 400.000000 0.000000
v -50.000000 0.000000 0.000000
v 0.000000 400.000000 94.718338
v 0.000000 367.489685 94.718300
v 0.000000 330.966156 94.718338
v 0.000000 0.000000 94.718300
v -5.128598 0.000000 100.000000
v -5.128598 330.966187 100.000000
v -5.128560 367.489685 100.000000
v -5.128598 400.000000 100.000000
vt 0.306122 0.001322
vt 0.607646 0.001322
vt 0.607646 0.117403
vt 0.306122 0.117403
vt 0.607160 0.117403
vt 0.607160 0.001322
vt 0.306122 0.001322
vt 0.306122 0.117403
vt 0.000145 0.000182
vt 0.286691 0.000182
vt 0.286691 0.999818
vt 0.000145 0.999818
vt 0.286228 0.999818
vt 0.286228 0.000182
vt 0.000145 0.000182
vt 0.000145 0.999818
vt 0.785554 0.056711
vt 0.785554 0.001659
vt 0.625161 0.001659
vt 0.625161 0.056711
vt 0.625161 0.001659
vt 0.785814 0.001659
vt 0.785813 0.056711
vt 0.625161 0.056711
vt 0.796805 0.001854
vt 0.796805 0.001395
vt 0.796862 0.001395
vt 0.796862 0.001854
vt 0.796919 0.001395
vt 0.796919 0.001854
vt 0.794498 0.001659
vt 0.794498 0.056711
vt 0.623946 0.001322
vt 0.623946 0.117403
vt 0.302181 0.000182
vt 0.302181 0.999818
vn 0.000000 0.000000 1.000000
vn 0.000000 0.000000 1.000000
vn 0.000000 0.000000 1.000000
vn 0.000000 0.000000 1.000000
vn 1.000000 0.000000 0.000000
vn 1.000000 0.000000 0.000000
vn 1.000000 0.000000 0.000000
vn 1.000000 0.000000 0.000000
vn 0.000000 0.000000 1.000000
vn 0.000000 0.000000 1.000000
vn 1.000000 0.000000 0.000000
vn 1.000000 0.000000 0.000000
vn 1.000000 0.000000 0.000000
vn 1.000000 0.000000 0.000000
vn 0.000000 0.000000 1.000000
vn 0.000000 0.000000 1.000000
vn 0.000000 0.000000 -1.000000
vn 0.000000 0.000000 -1.000000
vn 0.000000 0.000000 -1.000000
vn 0.000000 0.000000 -1.000000
vn -1.000000 0.000000 0.000000
vn -1.000000 0.000000 0.000000
vn -1.000000 0.000000 0.000000
vn -1.000000 0.000000 0.000000
vn 0.717428 0.000000 0.696632
vn 0.717428 0.000000 0.696632
vn 0.717426 0.000000 0.696635
vn 0.717427 0.000000 0.696634
g BuildingE_Corner_Mid_VarA_mdl
usemtl lambert5SG
f 7/1/1 24/2/2 25/3/3 12/4/4
f 20/5/5 21/6/6 9/7/7 10/8/8
usemtl lambert2SG
f 1/9/9 23/10/10 24/11/2 7/12/1
f 21/13/6 22/14/11 6/15/12 9/16/7
f 19/17/13 20/18/5 10/19/8 5/20/14
f 12/21/4 25/22/3 26/23/15 3/24/16
usemtl lambert4SG
f 13/25/17 15/26/18 16/27/19 14/28/20
f 14/28/21 16/27/22 17/29/23 18/30/24
usemtl lambert2SG
f 11/31/25 20/18/5 19/17/13 4/32/26
usemtl lambert5SG
f 8/33/27 21/6/6 20/5/5 11/34/25
usemtl lambert2SG
f 2/35/28 22/14/11 21/13/6 8/36/27
f 24/11/2 23/10/10 2/35/28 8/36/27
usemtl lambert5SG
f 25/3/3 24/2/2 8/33/27 11/34/25
usemtl lambert2SG
f 26/23/15 25/22/3 11/31/25 4/32/26
