# This file uses meters as units for non-parametric coordinates.

mtllib Sign_PrivateProperty.mtl
g default
v 40.634842 36.123959 0.000000
v 40.634842 -34.782185 0.000000
v 43.653946 35.102859 0.000000
v 43.653946 -33.761082 0.000000
v 46.314919 32.568428 0.000000
v 46.314919 -31.226652 0.000000
v -42.181580 36.123978 0.000000
v -42.181561 -34.782185 0.000000
v -45.178886 35.102875 0.000000
v -45.178886 -33.761082 0.000000
v -47.267479 32.568447 0.000000
v -47.267479 -31.226652 0.000000
vt 0.976540 0.187619
vt 0.976540 0.007205
vt 0.984517 0.185021
vt 0.984517 0.009803
vt 0.991542 0.178573
vt 0.991542 0.016252
vt 0.757704 0.187619
vt 0.757704 0.007205
vt 0.749786 0.185021
vt 0.749786 0.009803
vt 0.744269 0.178573
vt 0.744269 0.016252
vn 0.000000 0.000000 1.000000
vn 0.000000 0.000000 1.000000
vn 0.000000 0.000000 1.000000
vn 0.000000 0.000000 1.000000
vn 0.000000 0.000000 1.000000
vn 0.000000 0.000000 1.000000
vn 0.000000 0.000000 1.000000
vn 0.000000 0.000000 1.000000
vn 0.000000 0.000000 1.000000
vn 0.000000 0.000000 1.000000
vn 0.000000 0.000000 1.000000
vn 0.000000 0.000000 1.000000
g Sign_PrivateProperty
usemtl lambert15SG
f 7/7/1 8/8/2 2/2/3 1/1/4
f 1/1/4 2/2/3 4/4/5 3/3/6
f 3/3/6 4/4/5 6/6/7 5/5/8
f 9/9/9 10/10/10 8/8/2 7/7/1
f 11/11/11 12/12/12 10/10/10 9/9/9
