# This file uses meters as units for non-parametric coordinates.

mtllib Sign_NoParking.mtl
g default
v 22.493774 261.088043 3.931602
v 22.493774 180.369736 3.931602
v 24.179871 260.007782 3.931602
v 24.179871 181.309250 3.931602
v 25.666016 257.326538 3.931602
v 25.666016 183.641205 3.931602
v -21.931091 261.088074 3.931602
v -21.931091 180.369736 3.931602
v -24.132141 260.007813 3.931602
v -24.132141 181.309250 3.931602
v -25.665955 257.326538 3.931602
v -25.665955 183.641205 3.931602
v -21.931091 261.088074 4.747757
v -21.931091 180.369736 4.747757
v 22.493774 180.369736 4.747757
v 22.493774 261.088043 4.747757
v 24.179871 181.309250 4.747757
v 24.179871 260.007782 4.747757
v 25.666016 183.641205 4.747757
v 25.666016 257.326538 4.747757
v -24.132141 260.007813 4.747757
v -24.132141 181.309250 4.747757
v -25.665955 257.326538 4.747757
v -25.665955 183.641205 4.747757
v -4.196472 0.000000 0.390495
v 4.196411 0.000000 0.390495
v -4.196472 232.029816 0.390495
v 4.196411 232.029816 0.390495
v -4.196472 232.029816 -0.390480
v 4.196411 232.029816 -0.390480
v -4.196472 0.000000 -0.390480
v 4.196411 0.000000 -0.390480
v -2.731873 0.000000 0.390495
v 2.731934 0.000000 0.390495
v 2.731934 232.029816 0.390495
v -2.731873 232.029816 0.390495
v 2.333862 232.029816 -0.390480
v -2.333862 232.029816 -0.390480
v 2.333862 0.000000 -0.390480
v -2.333862 0.000000 -0.390480
v -1.852783 0.000000 2.664482
v 1.852783 0.000000 2.664482
v 1.852783 232.029816 2.664482
v -1.852783 232.029816 2.664482
v 1.475525 232.029816 1.883499
v -1.475525 232.029816 1.883499
v 1.475525 0.000000 1.883499
v -1.475525 0.000000 1.883499
vt 0.278328 0.752031
vt 0.278331 0.575461
vt 0.282126 0.749668
vt 0.282143 0.577517
vt 0.285501 0.743804
vt 0.285509 0.582618
vt 0.177374 0.752031
vt 0.177395 0.575461
vt 0.172485 0.749667
vt 0.172499 0.577515
vt 0.169062 0.743802
vt 0.169091 0.582616
vt 0.669830 0.967703
vt 0.669809 0.791133
vt 0.568874 0.791133
vt 0.568876 0.967703
vt 0.565062 0.793189
vt 0.565078 0.965340
vt 0.561695 0.798290
vt 0.561703 0.959476
vt 0.674719 0.965339
vt 0.674706 0.793187
vt 0.678143 0.959473
vt 0.678113 0.798288
vt 0.177395 0.575461
vt 0.278331 0.575461
vt 0.278328 0.752031
vt 0.177374 0.752031
vt 0.282143 0.577517
vt 0.282126 0.749668
vt 0.285509 0.582618
vt 0.285501 0.743804
vt 0.172499 0.577515
vt 0.172485 0.749667
vt 0.169062 0.743802
vt 0.169091 0.582616
vt 0.009683 0.533745
vt 0.009683 0.525188
vt 0.462936 0.525188
vt 0.462936 0.533745
vt 0.166752 0.546256
vt 0.166752 0.530350
vt 0.170104 0.531969
vt 0.170104 0.544637
vt 0.009683 0.518312
vt 0.009683 0.511497
vt 0.462936 0.511497
vt 0.462936 0.518312
vt 0.196509 0.544637
vt 0.196509 0.531969
vt 0.199861 0.530350
vt 0.199861 0.546256
vt 0.009683 0.529716
vt 0.009683 0.527913
vt 0.462936 0.527913
vt 0.462936 0.529716
vt 0.009683 0.524826
vt 0.009683 0.523023
vt 0.462936 0.523023
vt 0.462936 0.524827
vt 0.009683 0.516555
vt 0.462936 0.516555
vt 0.462936 0.519937
vt 0.009683 0.519937
vt 0.462936 0.542379
vt 0.009683 0.542379
vt 0.009683 0.538997
vt 0.462936 0.538997
vt 0.176513 0.520289
vt 0.179865 0.520289
vt 0.179865 0.528285
vt 0.176513 0.526576
vt 0.179865 0.556316
vt 0.176513 0.556316
vt 0.176513 0.550030
vt 0.179865 0.548321
vt 0.009683 0.501944
vt 0.462936 0.501944
vt 0.462936 0.506246
vt 0.009683 0.506246
vt 0.462936 0.527865
vt 0.009683 0.527865
vt 0.009683 0.523563
vt 0.462936 0.523563
vt 0.186748 0.520289
vt 0.190100 0.520289
vt 0.190100 0.526576
vt 0.186748 0.528285
vt 0.190100 0.556316
vt 0.186748 0.556316
vt 0.186748 0.548321
vt 0.190100 0.550030
vt 0.669830 0.967703
vt 0.568876 0.967703
vt 0.568874 0.791133
vt 0.669809 0.791133
vt 0.565078 0.965340
vt 0.565062 0.793189
vt 0.674719 0.965339
vt 0.674706 0.793187
vn 0.000000 0.000000 1.000000
vn 0.000000 0.000000 1.000000
vn 0.000000 0.000000 1.000000
vn 0.000000 0.000000 1.000000
vn -0.000000 0.000000 1.000000
vn -0.000000 0.000000 1.000000
vn -0.000000 0.000000 1.000000
vn -0.000000 0.000000 1.000000
vn 0.000000 0.000000 1.000000
vn 0.000000 0.000000 1.000000
vn -0.000000 0.000000 1.000000
vn -0.000000 0.000000 1.000000
vn 0.000000 0.000000 -1.000000
vn 0.000000 0.000000 -1.000000
vn 0.000000 0.000000 -1.000000
vn 0.000000 0.000000 -1.000000
vn 0.000000 0.000000 -1.000000
vn 0.000000 0.000000 -1.000000
vn 0.000000 0.000000 -1.000000
vn 0.000000 0.000000 -1.000000
vn -0.000000 0.000000 -1.000000
vn -0.000000 0.000000 -1.000000
vn -0.000000 0.000000 -1.000000
vn -0.000000 0.000000 -1.000000
vn -0.020146 -0.999797 0.000000
vn 0.020371 -0.999793 0.000000
vn 0.020371 -0.999793 0.000000
vn -0.020146 -0.999797 0.000000
vn 0.023422 0.999726 0.000000
vn -0.023162 0.999732 0.000000
vn -0.023162 0.999732 0.000000
vn 0.023422 0.999726 0.000000
vn 0.717911 -0.696135 0.000000
vn 0.717911 -0.696135 0.000000
vn 0.764445 0.644689 0.000000
vn 0.764445 0.644689 0.000000
vn 0.999809 -0.019546 0.000000
vn 0.999809 -0.019546 0.000000
vn 0.999811 0.019457 0.000000
vn 0.999811 0.019457 0.000000
vn -0.658900 -0.752231 0.000000
vn -0.658900 -0.752231 0.000000
vn -0.709618 0.704586 0.000000
vn -0.709618 0.704586 0.000000
vn -0.999798 0.020081 0.000000
vn -0.999797 -0.020173 0.000000
vn -0.999797 -0.020173 0.000000
vn -0.999798 0.020081 0.000000
vn -0.444344 0.000000 0.895856
vn 0.444339 0.000000 0.895858
vn 0.444339 0.000000 0.895858
vn -0.444344 0.000000 0.895856
vn 0.000000 1.000000 0.000006
vn 0.000000 1.000000 0.000006
vn 0.000000 1.000000 0.000006
vn 0.000000 1.000000 0.000006
vn 0.512563 0.000000 -0.858650
vn -0.512563 0.000000 -0.858650
vn -0.512563 0.000000 -0.858650
vn 0.512563 0.000000 -0.858650
vn 0.000000 -1.000000 0.000000
vn 0.000000 -1.000000 0.000000
vn 0.000000 -1.000000 0.000000
vn 0.000000 -1.000000 0.000000
vn 1.000000 0.000000 0.000000
vn 1.000000 0.000000 0.000000
vn 1.000000 0.000000 0.000000
vn 1.000000 0.000000 0.000000
vn -1.000000 0.000000 0.000000
vn -1.000000 0.000000 0.000000
vn -1.000000 0.000000 0.000000
vn -1.000000 0.000000 0.000000
vn 0.000000 0.000000 1.000000
vn 0.000000 0.000000 1.000000
vn 0.696363 0.000000 0.717690
vn 0.696363 0.000000 0.717690
vn 0.000000 0.000000 1.000000
vn 0.000000 0.000000 1.000000
vn -0.696354 0.000000 0.717699
vn -0.696354 0.000000 0.717699
vn 0.000000 1.000000 0.000000
vn 0.000000 1.000000 0.000000
vn 0.000000 1.000000 0.000000
vn 0.000000 1.000000 0.000000
vn 0.000000 1.000000 0.000000
vn 0.000000 1.000000 0.000000
vn 0.000000 1.000000 0.000000
vn 0.000000 1.000000 0.000000
vn 0.000000 0.000000 -1.000000
vn 0.000000 0.000000 -1.000000
vn -0.641278 0.000000 -0.767309
vn -0.641278 0.000000 -0.767309
vn 0.000000 0.000000 -1.000000
vn 0.000000 0.000000 -1.000000
vn 0.641269 0.000000 -0.767316
vn 0.641269 0.000000 -0.767316
vn 0.000000 -1.000000 0.000000
vn 0.000000 -1.000000 0.000000
vn 0.000000 -1.000000 0.000000
vn 0.000000 -1.000000 0.000000
vn 0.000000 -1.000000 0.000000
vn 0.000000 -1.000000 0.000000
vn 0.000000 -1.000000 0.000000
vn 0.000000 -1.000000 0.000000
vn 0.000000 1.000000 0.000010
vn 0.000000 1.000000 0.000010
vn 0.000000 1.000000 0.000010
vn 0.000000 1.000000 0.000010
vn 0.000000 1.000000 -0.000010
vn 0.000000 1.000000 -0.000010
vn 0.000000 1.000000 -0.000010
vn 0.000000 1.000000 -0.000010
vn 0.000000 -1.000000 0.000000
vn 0.000000 -1.000000 0.000000
vn 0.000000 -1.000000 0.000000
vn 0.000000 -1.000000 0.000000
vn 0.000000 -1.000000 0.000000
vn 0.000000 -1.000000 0.000000
vn 0.000000 -1.000000 0.000000
vn 0.000000 -1.000000 0.000000
g Sign_NoParking
usemtl lambert15SG
f 13/28/1 14/25/2 15/26/3 16/27/4
f 16/27/4 15/26/3 17/29/5 18/30/6
f 18/30/6 17/29/5 19/31/7 20/32/8
f 21/34/9 22/33/10 14/25/2 13/28/1
f 23/35/11 24/36/12 22/33/10 21/34/9
f 7/93/13 1/94/14 2/95/15 8/96/16
f 1/16/14 3/97/17 4/98/18 2/15/15
f 3/18/17 5/20/19 6/19/20 4/17/18
f 9/99/21 7/13/13 8/14/16 10/100/22
f 11/23/23 9/21/21 10/22/22 12/24/24
f 8/8/25 2/2/26 15/26/27 14/25/28
f 1/1/29 7/7/30 13/28/31 16/27/32
f 2/2/26 4/4/33 17/29/34 15/26/27
f 3/3/35 1/1/29 16/27/32 18/30/36
f 4/4/33 6/6/37 19/31/38 17/29/34
f 6/6/37 5/5/39 20/32/40 19/31/38
f 5/5/39 3/3/35 18/30/36 20/32/40
f 10/10/41 8/8/25 14/25/28 22/33/42
f 7/7/30 9/9/43 21/34/44 13/28/31
f 11/11/45 12/12/46 24/36/47 23/35/48
f 12/12/46 10/10/41 22/33/42 24/36/47
f 9/9/43 11/11/45 23/35/48 21/34/44
f 41/37/49 42/38/50 43/39/51 44/40/52
f 44/41/53 43/42/54 45/43/55 46/44/56
f 46/45/57 45/46/58 47/47/59 48/48/60
f 48/49/61 47/50/62 42/51/63 41/52/64
f 26/53/65 32/54/66 30/55/67 28/56/68
f 31/57/69 25/58/70 27/59/71 29/60/72
f 26/61/73 28/62/74 35/63/75 34/64/76
f 27/65/77 25/66/78 33/67/79 36/68/80
f 28/69/81 30/70/82 37/71/83 35/72/84
f 29/73/85 27/74/86 36/75/87 38/76/88
f 30/77/89 32/78/90 39/79/91 37/80/92
f 31/81/93 29/82/94 38/83/95 40/84/96
f 32/85/97 26/86/98 34/87/99 39/88/100
f 25/89/101 31/90/102 40/91/103 33/92/104
f 34/64/76 35/63/75 43/39/51 42/38/50
f 36/68/80 33/67/79 41/37/49 44/40/52
f 35/72/105 37/71/106 45/43/107 43/42/108
f 38/76/109 36/75/110 44/41/111 46/44/112
f 37/80/92 39/79/91 47/47/59 45/46/58
f 40/84/96 38/83/95 46/45/57 48/48/60
f 39/88/113 34/87/114 42/51/115 47/50/116
f 33/92/117 40/91/118 48/49/119 41/52/120
