# This file uses meters as units for non-parametric coordinates.

mtllib Sign_RoadClosed.mtl
g default
v 1.991577 166.991241 2.359840
v 0.715576 166.254547 2.359840
v -0.757874 166.254547 2.359840
v -2.033813 166.991241 2.359840
v -1.991577 256.413666 2.359840
v -0.715576 257.150360 2.359840
v 0.757874 257.150360 2.359840
v 2.033813 256.413666 2.359840
v -44.711182 209.668610 2.359840
v -45.447815 210.944611 2.359840
v -45.447815 212.417984 2.359840
v -44.711182 213.693970 2.359840
v 44.711304 213.736313 2.359840
v 45.447815 212.460327 2.359840
v 45.447815 210.986954 2.359840
v 44.711304 209.710938 2.359840
v -45.447815 210.944611 2.944138
v -44.711182 209.668610 2.944138
v -45.447815 212.417984 2.944138
v -44.711182 213.693970 2.944138
v -2.033813 166.991241 2.944138
v -1.991577 256.413666 2.944138
v -0.757874 166.254547 2.944138
v 0.715576 166.254547 2.944138
v 1.991577 166.991241 2.944138
v -0.715576 257.150360 2.944138
v 0.757874 257.150360 2.944138
v 2.033813 256.413666 2.944138
v 45.447815 210.986954 2.944138
v 45.447815 212.460327 2.944138
v 44.711304 209.710938 2.944138
v 44.711304 213.736313 2.944138
v -4.196411 0.000000 0.390495
v 4.196411 0.000000 0.390495
v -4.196411 232.029816 0.390495
v 4.196411 232.029816 0.390495
v -4.196411 232.029816 -0.390488
v 4.196411 232.029816 -0.390488
v -4.196411 0.000000 -0.390488
v 4.196411 0.000000 -0.390488
v -2.731934 0.000000 0.390495
v 2.731934 0.000000 0.390495
v 2.731934 232.029816 0.390495
v -2.731934 232.029816 0.390495
v 2.333862 232.029816 -0.390488
v -2.333801 232.029816 -0.390488
v 2.333862 0.000000 -0.390488
v -2.333801 0.000000 -0.390488
v -1.852783 0.000000 2.664482
v 1.852783 0.000000 2.664482
v 1.852783 232.029816 2.664482
v -1.852783 232.029816 2.664482
v 1.475525 232.029816 1.883492
v -1.475525 232.029816 1.883492
v 1.475525 0.000000 1.883492
v -1.475525 0.000000 1.883492
vt 0.251124 0.362257
vt 0.484200 0.374281
vt 0.361579 0.482211
vt 0.373825 0.253307
vt 0.365755 0.251735
vt 0.370005 0.251733
vt 0.484219 0.362790
vt 0.373465 0.482316
vt 0.248484 0.365659
vt 0.361932 0.253290
vt 0.365385 0.483793
vt 0.369620 0.483840
vt 0.248915 0.370095
vt 0.251259 0.373684
vt 0.486545 0.370677
vt 0.486788 0.366221
vt 0.557958 0.876717
vt 0.559666 0.875100
vt 0.558346 0.879035
vt 0.559729 0.880862
vt 0.621489 0.812875
vt 0.621280 0.942777
vt 0.623416 0.811807
vt 0.625625 0.811807
vt 0.627549 0.812878
vt 0.623222 0.943843
vt 0.625406 0.943867
vt 0.627370 0.942886
vt 0.690750 0.877055
vt 0.690538 0.879375
vt 0.689141 0.875382
vt 0.689186 0.881215
vt 0.249863 0.366090
vt 0.252318 0.363186
vt 0.250321 0.369628
vt 0.252466 0.372785
vt 0.362831 0.254567
vt 0.362482 0.480942
vt 0.366149 0.253166
vt 0.369612 0.253168
vt 0.372922 0.254580
vt 0.365804 0.482378
vt 0.369255 0.482415
vt 0.372579 0.481034
vt 0.485422 0.366677
vt 0.485125 0.370236
vt 0.483021 0.363710
vt 0.482986 0.373382
vt 0.009683 0.533745
vt 0.009683 0.525188
vt 0.462936 0.525188
vt 0.462936 0.533745
vt 0.166752 0.546256
vt 0.166752 0.530350
vt 0.170104 0.531969
vt 0.170104 0.544637
vt 0.009683 0.518312
vt 0.009683 0.511497
vt 0.462936 0.511497
vt 0.462936 0.518312
vt 0.196509 0.544637
vt 0.196509 0.531969
vt 0.199861 0.530350
vt 0.199861 0.546256
vt 0.009683 0.529716
vt 0.009683 0.527913
vt 0.462936 0.527913
vt 0.462936 0.529716
vt 0.009683 0.524826
vt 0.009683 0.523023
vt 0.462936 0.523023
vt 0.462936 0.524827
vt 0.009683 0.516555
vt 0.462936 0.516555
vt 0.462936 0.519937
vt 0.009683 0.519937
vt 0.462936 0.542379
vt 0.009683 0.542379
vt 0.009683 0.538997
vt 0.462936 0.538997
vt 0.176513 0.520289
vt 0.179865 0.520289
vt 0.179865 0.528285
vt 0.176513 0.526576
vt 0.179865 0.556316
vt 0.176513 0.556316
vt 0.176513 0.550030
vt 0.179865 0.548321
vt 0.009683 0.501944
vt 0.462936 0.501944
vt 0.462936 0.506246
vt 0.009683 0.506246
vt 0.462936 0.527865
vt 0.009683 0.527865
vt 0.009683 0.523563
vt 0.462936 0.523563
vt 0.186748 0.520289
vt 0.190100 0.520289
vt 0.190100 0.526576
vt 0.186748 0.528285
vt 0.190100 0.556316
vt 0.186748 0.556316
vt 0.186748 0.548321
vt 0.190100 0.550030
vn -0.000001 0.000000 1.000000
vn 0.000000 0.000000 1.000000
vn -0.000000 0.000000 1.000000
vn 0.000000 0.000000 1.000000
vn -0.000000 0.000000 1.000000
vn -0.000000 0.000000 1.000000
vn -0.000000 0.000000 1.000000
vn 0.000000 0.000000 1.000000
vn 0.000000 0.000000 1.000000
vn -0.000000 0.000000 1.000000
vn 0.000000 0.000000 1.000000
vn 0.000000 0.000000 1.000000
vn 0.000001 0.000000 1.000000
vn 0.000000 0.000000 1.000000
vn 0.000000 0.000000 1.000000
vn 0.000000 0.000000 1.000000
vn 0.000000 0.000000 -1.000000
vn 0.000000 0.000000 -1.000000
vn 0.000000 0.000000 -1.000000
vn 0.000000 0.000000 -1.000000
vn -0.000000 0.000000 -1.000000
vn 0.000000 0.000000 -1.000000
vn -0.000000 0.000000 -1.000000
vn 0.000000 0.000000 -1.000000
vn 0.000000 0.000000 -1.000000
vn 0.000000 0.000000 -1.000000
vn 0.000000 0.000000 -1.000000
vn 0.000000 0.000000 -1.000000
vn 0.000000 0.000000 -1.000000
vn -0.000000 0.000000 -1.000000
vn -0.000000 0.000000 -1.000000
vn -0.000000 0.000000 -1.000000
vn -0.965931 -0.258800 0.000000
vn -0.711459 -0.702728 0.000000
vn -0.711459 -0.702728 0.000000
vn -0.965931 -0.258800 0.000000
vn -0.965931 0.258802 0.000000
vn -0.965931 0.258802 0.000000
vn -0.711455 0.702732 0.000000
vn -0.711455 0.702732 0.000000
vn -0.702729 -0.711458 0.000000
vn -0.702729 -0.711458 0.000000
vn -0.702734 0.711453 0.000000
vn -0.702734 0.711453 0.000000
vn -0.258818 -0.965926 0.000000
vn -0.258818 -0.965926 0.000000
vn 0.258813 -0.965928 0.000000
vn 0.258813 -0.965928 0.000000
vn 0.702733 -0.711454 0.000000
vn 0.702733 -0.711454 0.000000
vn -0.258813 0.965928 0.000000
vn -0.258813 0.965928 0.000000
vn 0.258818 0.965926 0.000000
vn 0.258818 0.965926 0.000000
vn 0.702728 0.711459 0.000000
vn 0.702728 0.711459 0.000000
vn 0.965942 -0.258758 0.000000
vn 0.965941 0.258761 0.000000
vn 0.965941 0.258761 0.000000
vn 0.965942 -0.258758 0.000000
vn 0.711455 -0.702731 0.000000
vn 0.711455 -0.702731 0.000000
vn 0.711458 0.702728 0.000000
vn 0.711458 0.702728 0.000000
vn -0.444339 0.000000 0.895858
vn 0.444339 0.000000 0.895858
vn 0.444339 0.000000 0.895858
vn -0.444339 0.000000 0.895858
vn 0.000000 1.000000 0.000006
vn 0.000000 1.000000 0.000006
vn 0.000000 1.000000 0.000006
vn 0.000000 1.000000 0.000006
vn 0.512569 0.000000 -0.858646
vn -0.512563 0.000000 -0.858650
vn -0.512563 0.000000 -0.858650
vn 0.512569 0.000000 -0.858646
vn 0.000000 -1.000000 0.000000
vn 0.000000 -1.000000 0.000000
vn 0.000000 -1.000000 0.000000
vn 0.000000 -1.000000 0.000000
vn 1.000000 0.000000 0.000000
vn 1.000000 0.000000 0.000000
vn 1.000000 0.000000 0.000000
vn 1.000000 0.000000 0.000000
vn -1.000000 0.000000 0.000000
vn -1.000000 0.000000 0.000000
vn -1.000000 0.000000 0.000000
vn -1.000000 0.000000 0.000000
vn 0.000000 0.000000 1.000000
vn 0.000000 0.000000 1.000000
vn 0.696363 0.000000 0.717690
vn 0.696363 0.000000 0.717690
vn 0.000000 0.000000 1.000000
vn 0.000000 0.000000 1.000000
vn -0.696363 0.000000 0.717690
vn -0.696363 0.000000 0.717690
vn 0.000000 1.000000 0.000000
vn 0.000000 1.000000 0.000000
vn 0.000000 1.000000 0.000000
vn 0.000000 1.000000 0.000000
vn 0.000000 1.000000 0.000000
vn 0.000000 1.000000 0.000000
vn 0.000000 1.000000 0.000000
vn 0.000000 1.000000 0.000000
vn 0.000000 0.000000 -1.000000
vn 0.000000 0.000000 -1.000000
vn -0.641278 0.000000 -0.767309
vn -0.641278 0.000000 -0.767309
vn 0.000000 0.000000 -1.000000
vn 0.000000 0.000000 -1.000000
vn 0.641278 0.000000 -0.767309
vn 0.641278 0.000000 -0.767309
vn 0.000000 -1.000000 0.000000
vn 0.000000 -1.000000 0.000000
vn 0.000000 -1.000000 0.000000
vn 0.000000 -1.000000 0.000000
vn 0.000000 -1.000000 0.000000
vn 0.000000 -1.000000 0.000000
vn 0.000000 -1.000000 0.000000
vn 0.000000 -1.000000 0.000000
vn 0.000000 1.000000 0.000010
vn 0.000000 1.000000 0.000010
vn 0.000000 1.000000 0.000010
vn 0.000000 1.000000 0.000010
vn 0.000000 1.000000 0.000000
vn 0.000000 1.000000 0.000000
vn 0.000000 1.000000 0.000000
vn 0.000000 1.000000 0.000000
vn 0.000000 -1.000000 0.000000
vn 0.000000 -1.000000 0.000000
vn 0.000000 -1.000000 0.000000
vn 0.000000 -1.000000 0.000000
vn 0.000000 -1.000000 0.000000
vn 0.000000 -1.000000 0.000000
vn 0.000000 -1.000000 0.000000
vn 0.000000 -1.000000 0.000000
g Sign_RoadClosed
usemtl lambert15SG
f 17/33/1 18/34/2 19/35/3
f 19/35/3 18/34/2 20/36/4
f 18/34/2 21/37/5 20/36/4
f 20/36/4 21/37/5 22/38/6
f 21/37/5 23/39/7 22/38/6
f 23/39/7 24/40/8 22/38/6
f 24/40/8 25/41/9 22/38/6
f 22/38/6 25/41/9 26/42/10
f 26/42/10 25/41/9 27/43/11
f 27/43/11 25/41/9 28/44/12
f 29/45/13 30/46/14 31/47/15
f 30/46/14 32/48/16 31/47/15
f 31/47/15 32/48/16 25/41/9
f 25/41/9 32/48/16 28/44/12
f 10/17/17 11/19/18 9/18/19
f 11/19/18 12/20/20 9/18/19
f 9/18/19 12/20/20 4/21/21
f 12/20/20 5/22/22 4/21/21
f 4/21/21 5/22/22 3/23/23
f 3/23/23 5/22/22 2/24/24
f 2/24/24 5/22/22 1/25/25
f 5/22/22 6/26/26 1/25/25
f 6/26/26 7/27/27 1/25/25
f 7/27/27 8/28/28 1/25/25
f 15/29/29 16/31/30 14/30/31
f 14/30/31 16/31/30 13/32/32
f 16/31/30 1/25/25 13/32/32
f 1/25/25 8/28/28 13/32/32
f 10/9/33 9/1/34 18/34/35 17/33/36
f 11/13/37 10/9/33 17/33/36 19/35/38
f 12/14/39 11/13/37 19/35/38 20/36/40
f 9/1/34 4/10/41 21/37/42 18/34/35
f 5/3/43 12/14/39 20/36/40 22/38/44
f 4/10/41 3/5/45 23/39/46 21/37/42
f 3/5/45 2/6/47 24/40/48 23/39/46
f 2/6/47 1/4/49 25/41/50 24/40/48
f 6/11/51 5/3/43 22/38/44 26/42/52
f 7/12/53 6/11/51 26/42/52 27/43/54
f 8/8/55 7/12/53 27/43/54 28/44/56
f 15/16/57 14/15/58 30/46/59 29/45/60
f 16/7/61 15/16/57 29/45/60 31/47/62
f 14/15/58 13/2/63 32/48/64 30/46/59
f 1/4/49 16/7/61 31/47/62 25/41/50
f 13/2/63 8/8/55 28/44/56 32/48/64
f 49/49/65 50/50/66 51/51/67 52/52/68
f 52/53/69 51/54/70 53/55/71 54/56/72
f 54/57/73 53/58/74 55/59/75 56/60/76
f 56/61/77 55/62/78 50/63/79 49/64/80
f 34/65/81 40/66/82 38/67/83 36/68/84
f 39/69/85 33/70/86 35/71/87 37/72/88
f 34/73/89 36/74/90 43/75/91 42/76/92
f 35/77/93 33/78/94 41/79/95 44/80/96
f 36/81/97 38/82/98 45/83/99 43/84/100
f 37/85/101 35/86/102 44/87/103 46/88/104
f 38/89/105 40/90/106 47/91/107 45/92/108
f 39/93/109 37/94/110 46/95/111 48/96/112
f 40/97/113 34/98/114 42/99/115 47/100/116
f 33/101/117 39/102/118 48/103/119 41/104/120
f 42/76/92 43/75/91 51/51/67 50/50/66
f 44/80/96 41/79/95 49/49/65 52/52/68
f 43/84/121 45/83/122 53/55/123 51/54/124
f 46/88/125 44/87/126 52/53/127 54/56/128
f 45/92/108 47/91/107 55/59/75 53/58/74
f 48/96/112 46/95/111 54/57/73 56/60/76
f 47/100/129 42/99/130 50/63/131 55/62/132
f 41/104/133 48/103/134 56/61/135 49/64/136
