# This file uses meters as units for non-parametric coordinates.

mtllib Sign_Tresspassing.mtl
g default
v -53.519070 41.995724 -0.000013
v -53.519070 -37.719376 0.000000
v 57.829716 -37.719376 0.000000
v 57.829716 41.995705 -0.000002
vt 0.497126 0.015775
vt 0.497126 0.178970
vt 0.725082 0.015775
vt 0.725083 0.178970
vn -0.000000 0.000000 1.000000
vn -0.000000 0.000000 1.000000
vn -0.000000 0.000000 1.000000
vn -0.000000 0.000000 1.000000
g Sign_Tresspassing
usemtl lambert15SG
f 2/1/1 3/3/2 4/4/3 1/2/4
