# This file uses meters as units for non-parametric coordinates.

mtllib Sign_NoExit.mtl
g default
v 24.943848 229.369385 3.229424
v 24.943848 150.879807 3.229424
v 26.414917 228.362625 3.229424
v 26.414917 151.708496 3.229424
v 27.711426 225.863892 3.229424
v 27.711426 153.765289 3.229424
v -25.129761 229.369400 3.229424
v -25.129761 150.879807 3.229424
v -26.651245 228.362686 3.229424
v -26.651245 151.708496 3.229424
v -27.711487 225.863937 3.229424
v -27.711487 153.765289 3.229424
v -25.129761 229.369400 3.793587
v -25.129761 150.879807 3.793587
v 24.943848 150.879807 3.793587
v 24.943848 229.369385 3.793587
v 26.414917 151.708496 3.793587
v 26.414917 228.362625 3.793587
v 27.711426 153.765289 3.793587
v 27.711426 225.863892 3.793587
v -26.651245 228.362686 3.793587
v -26.651245 151.708496 3.793587
v -27.711487 225.863937 3.793587
v -27.711487 153.765289 3.793587
v -4.196411 0.000000 0.390495
v 4.196411 0.000000 0.390495
v -4.196411 232.029816 0.390495
v 4.196411 232.029816 0.390495
v -4.196411 232.029816 -0.390480
v 4.196411 232.029816 -0.390480
v -4.196411 0.000000 -0.390480
v 4.196411 0.000000 -0.390480
v -2.731934 0.000000 0.390495
v 2.731934 0.000000 0.390495
v 2.731934 232.029816 0.390495
v -2.731934 232.029816 0.390495
v 2.333862 232.029816 -0.390480
v -2.333801 232.029816 -0.390480
v 2.333862 0.000000 -0.390480
v -2.333801 0.000000 -0.390480
v -1.852783 0.000000 2.664482
v 1.852783 0.000000 2.664482
v 1.852783 232.029816 2.664482
v -1.852783 232.029816 2.664482
v 1.475525 232.029816 1.883499
v -1.475525 232.029816 1.883499
v 1.475525 0.000000 1.883499
v -1.475525 0.000000 1.883499
vt 0.139567 0.742804
vt 0.139579 0.584594
vt 0.142649 0.740775
vt 0.142659 0.586264
vt 0.145362 0.735738
vt 0.145371 0.590410
vt 0.034616 0.742805
vt 0.034631 0.584594
vt 0.031424 0.740776
vt 0.031444 0.586265
vt 0.029200 0.735739
vt 0.029222 0.590411
vt 0.684687 0.951056
vt 0.684672 0.792845
vt 0.579724 0.792844
vt 0.579736 0.951055
vt 0.576644 0.794515
vt 0.576653 0.949026
vt 0.573932 0.798661
vt 0.573941 0.943989
vt 0.687879 0.949027
vt 0.687859 0.794515
vt 0.690103 0.943990
vt 0.690081 0.798661
vt 0.034631 0.584594
vt 0.139579 0.584594
vt 0.139567 0.742804
vt 0.034616 0.742805
vt 0.142659 0.586264
vt 0.142649 0.740775
vt 0.145371 0.590410
vt 0.145362 0.735738
vt 0.031444 0.586265
vt 0.031424 0.740776
vt 0.029200 0.735739
vt 0.029222 0.590411
vt 0.009683 0.533745
vt 0.009683 0.525188
vt 0.462936 0.525188
vt 0.462936 0.533745
vt 0.166752 0.546256
vt 0.166752 0.530350
vt 0.170104 0.531969
vt 0.170104 0.544637
vt 0.009683 0.518312
vt 0.009683 0.511497
vt 0.462936 0.511497
vt 0.462936 0.518312
vt 0.196509 0.544637
vt 0.196509 0.531969
vt 0.199861 0.530350
vt 0.199861 0.546256
vt 0.009683 0.529716
vt 0.009683 0.527913
vt 0.462936 0.527913
vt 0.462936 0.529716
vt 0.009683 0.524826
vt 0.009683 0.523023
vt 0.462936 0.523023
vt 0.462936 0.524827
vt 0.009683 0.516555
vt 0.462936 0.516555
vt 0.462936 0.519937
vt 0.009683 0.519937
vt 0.462936 0.542379
vt 0.009683 0.542379
vt 0.009683 0.538997
vt 0.462936 0.538997
vt 0.176513 0.520289
vt 0.179865 0.520289
vt 0.179865 0.528285
vt 0.176513 0.526576
vt 0.179865 0.556316
vt 0.176513 0.556316
vt 0.176513 0.550030
vt 0.179865 0.548321
vt 0.009683 0.501944
vt 0.462936 0.501944
vt 0.462936 0.506246
vt 0.009683 0.506246
vt 0.462936 0.527865
vt 0.009683 0.527865
vt 0.009683 0.523563
vt 0.462936 0.523563
vt 0.186748 0.520289
vt 0.190100 0.520289
vt 0.190100 0.526576
vt 0.186748 0.528285
vt 0.190100 0.556316
vt 0.186748 0.556316
vt 0.186748 0.548321
vt 0.190100 0.550030
vn 0.000000 0.000000 1.000000
vn -0.000000 0.000000 1.000000
vn -0.000000 0.000000 1.000000
vn -0.000000 0.000000 1.000000
vn -0.000000 0.000000 1.000000
vn -0.000000 0.000000 1.000000
vn 0.000000 0.000000 1.000000
vn 0.000000 0.000000 1.000000
vn -0.000000 0.000000 1.000000
vn -0.000000 0.000000 1.000000
vn 0.000000 0.000000 1.000000
vn 0.000000 0.000000 1.000000
vn 0.000000 0.000000 -1.000000
vn 0.000000 0.000000 -1.000000
vn 0.000000 0.000000 -1.000000
vn 0.000000 0.000000 -1.000000
vn 0.000000 0.000000 -1.000000
vn 0.000000 0.000000 -1.000000
vn 0.000000 0.000000 -1.000000
vn 0.000000 0.000000 -1.000000
vn 0.000000 0.000000 -1.000000
vn 0.000000 0.000000 -1.000000
vn 0.000000 0.000000 -1.000000
vn 0.000000 0.000000 -1.000000
vn -0.016059 -0.999871 0.000000
vn 0.016075 -0.999871 0.000000
vn 0.016075 -0.999871 0.000000
vn -0.016059 -0.999871 0.000000
vn 0.019528 0.999809 0.000000
vn -0.019508 0.999810 0.000000
vn -0.019508 0.999810 0.000000
vn 0.019528 0.999809 0.000000
vn 0.721698 -0.692208 0.000000
vn 0.721698 -0.692208 0.000000
vn 0.784874 0.619656 0.000000
vn 0.784874 0.619656 0.000000
vn 0.999847 -0.017481 0.000000
vn 0.999847 -0.017481 0.000000
vn 0.999849 0.017377 0.000000
vn 0.999849 0.017377 0.000000
vn -0.745244 -0.666792 0.000000
vn -0.745244 -0.666792 0.000000
vn -0.805193 0.593014 0.000000
vn -0.805193 0.593014 0.000000
vn -0.999899 0.014211 0.000000
vn -0.999898 -0.014296 0.000000
vn -0.999898 -0.014296 0.000000
vn -0.999899 0.014211 0.000000
vn -0.444339 0.000000 0.895858
vn 0.444339 0.000000 0.895858
vn 0.444339 0.000000 0.895858
vn -0.444339 0.000000 0.895858
vn 0.000000 1.000000 0.000006
vn 0.000000 1.000000 0.000006
vn 0.000000 1.000000 0.000006
vn 0.000000 1.000000 0.000006
vn 0.512569 0.000000 -0.858646
vn -0.512563 0.000000 -0.858650
vn -0.512563 0.000000 -0.858650
vn 0.512569 0.000000 -0.858646
vn 0.000000 -1.000000 0.000000
vn 0.000000 -1.000000 0.000000
vn 0.000000 -1.000000 0.000000
vn 0.000000 -1.000000 0.000000
vn 1.000000 0.000000 0.000000
vn 1.000000 0.000000 0.000000
vn 1.000000 0.000000 0.000000
vn 1.000000 0.000000 0.000000
vn -1.000000 0.000000 0.000000
vn -1.000000 0.000000 0.000000
vn -1.000000 0.000000 0.000000
vn -1.000000 0.000000 0.000000
vn 0.000000 0.000000 1.000000
vn 0.000000 0.000000 1.000000
vn 0.696363 0.000000 0.717690
vn 0.696363 0.000000 0.717690
vn 0.000000 0.000000 1.000000
vn 0.000000 0.000000 1.000000
vn -0.696363 0.000000 0.717690
vn -0.696363 0.000000 0.717690
vn 0.000000 1.000000 0.000000
vn 0.000000 1.000000 0.000000
vn 0.000000 1.000000 0.000000
vn 0.000000 1.000000 0.000000
vn 0.000000 1.000000 0.000000
vn 0.000000 1.000000 0.000000
vn 0.000000 1.000000 0.000000
vn 0.000000 1.000000 0.000000
vn 0.000000 0.000000 -1.000000
vn 0.000000 0.000000 -1.000000
vn -0.641278 0.000000 -0.767309
vn -0.641278 0.000000 -0.767309
vn 0.000000 0.000000 -1.000000
vn 0.000000 0.000000 -1.000000
vn 0.641278 0.000000 -0.767309
vn 0.641278 0.000000 -0.767309
vn 0.000000 -1.000000 0.000000
vn 0.000000 -1.000000 0.000000
vn 0.000000 -1.000000 0.000000
vn 0.000000 -1.000000 0.000000
vn 0.000000 -1.000000 0.000000
vn 0.000000 -1.000000 0.000000
vn 0.000000 -1.000000 0.000000
vn 0.000000 -1.000000 0.000000
vn 0.000000 1.000000 0.000010
vn 0.000000 1.000000 0.000010
vn 0.000000 1.000000 0.000010
vn 0.000000 1.000000 0.000010
vn 0.000000 1.000000 0.000000
vn 0.000000 1.000000 0.000000
vn 0.000000 1.000000 0.000000
vn 0.000000 1.000000 0.000000
vn 0.000000 -1.000000 0.000000
vn 0.000000 -1.000000 0.000000
vn 0.000000 -1.000000 0.000000
vn 0.000000 -1.000000 0.000000
vn 0.000000 -1.000000 0.000000
vn 0.000000 -1.000000 0.000000
vn 0.000000 -1.000000 0.000000
vn 0.000000 -1.000000 0.000000
g Sign_NoExit
usemtl lambert15SG
f 13/28/1 14/25/2 15/26/3 16/27/4
f 16/27/4 15/26/3 17/29/5 18/30/6
f 18/30/6 17/29/5 19/31/7 20/32/8
f 21/34/9 22/33/10 14/25/2 13/28/1
f 23/35/11 24/36/12 22/33/10 21/34/9
f 7/13/13 1/16/14 2/15/15 8/14/16
f 1/16/14 3/18/17 4/17/18 2/15/15
f 3/18/17 5/20/19 6/19/20 4/17/18
f 9/21/21 7/13/13 8/14/16 10/22/22
f 11/23/23 9/21/21 10/22/22 12/24/24
f 8/8/25 2/2/26 15/26/27 14/25/28
f 1/1/29 7/7/30 13/28/31 16/27/32
f 2/2/26 4/4/33 17/29/34 15/26/27
f 3/3/35 1/1/29 16/27/32 18/30/36
f 4/4/33 6/6/37 19/31/38 17/29/34
f 6/6/37 5/5/39 20/32/40 19/31/38
f 5/5/39 3/3/35 18/30/36 20/32/40
f 10/10/41 8/8/25 14/25/28 22/33/42
f 7/7/30 9/9/43 21/34/44 13/28/31
f 11/11/45 12/12/46 24/36/47 23/35/48
f 12/12/46 10/10/41 22/33/42 24/36/47
f 9/9/43 11/11/45 23/35/48 21/34/44
f 41/37/49 42/38/50 43/39/51 44/40/52
f 44/41/53 43/42/54 45/43/55 46/44/56
f 46/45/57 45/46/58 47/47/59 48/48/60
f 48/49/61 47/50/62 42/51/63 41/52/64
f 26/53/65 32/54/66 30/55/67 28/56/68
f 31/57/69 25/58/70 27/59/71 29/60/72
f 26/61/73 28/62/74 35/63/75 34/64/76
f 27/65/77 25/66/78 33/67/79 36/68/80
f 28/69/81 30/70/82 37/71/83 35/72/84
f 29/73/85 27/74/86 36/75/87 38/76/88
f 30/77/89 32/78/90 39/79/91 37/80/92
f 31/81/93 29/82/94 38/83/95 40/84/96
f 32/85/97 26/86/98 34/87/99 39/88/100
f 25/89/101 31/90/102 40/91/103 33/92/104
f 34/64/76 35/63/75 43/39/51 42/38/50
f 36/68/80 33/67/79 41/37/49 44/40/52
f 35/72/105 37/71/106 45/43/107 43/42/108
f 38/76/109 36/75/110 44/41/111 46/44/112
f 37/80/92 39/79/91 47/47/59 45/46/58
f 40/84/96 38/83/95 46/45/57 48/48/60
f 39/88/113 34/87/114 42/51/115 47/50/116
f 33/92/117 40/91/118 48/49/119 41/52/120
