# This file uses meters as units for non-parametric coordinates.

mtllib Sign_NoEnter.mtl
g default
v 31.011169 216.679382 2.451141
v 28.963013 222.982925 2.451141
v 25.649017 228.722855 2.451141
v 21.214081 233.648376 2.451141
v 15.851990 237.544174 2.451141
v 9.797058 240.240005 2.451141
v 3.313995 241.618042 2.451141
v -3.313934 241.618042 2.451141
v -9.797028 240.240005 2.451141
v -15.851929 237.544174 2.451141
v -21.214081 233.648376 2.451141
v -25.648987 228.722885 2.451141
v -28.962952 222.982925 2.451141
v -31.011078 216.679382 2.451141
v -31.703888 210.087769 2.451141
v -31.011078 203.496170 2.451141
v -28.962952 197.192627 2.451141
v -25.648987 191.452667 2.451141
v -21.214081 186.527176 2.451141
v -15.851929 182.631378 2.451141
v -9.797028 179.935562 2.451141
v -3.313965 178.557541 2.451141
v 3.313965 178.557541 2.451141
v 9.797058 179.935562 2.451141
v 15.851990 182.631378 2.451141
v 21.214081 186.527176 2.451141
v 25.648987 191.452682 2.451141
v 28.962982 197.192627 2.451141
v 31.011139 203.496170 2.451141
v 31.703918 210.087769 2.451141
v 31.011169 216.679382 3.230743
v 28.963013 222.982925 3.230743
v 25.649017 228.722855 3.230743
v 21.214081 233.648376 3.230743
v 15.851990 237.544174 3.230743
v 9.797058 240.240005 3.230743
v 3.313995 241.618042 3.230743
v -3.313934 241.618042 3.230743
v -9.797028 240.240005 3.230743
v -15.851929 237.544174 3.230743
v -21.214081 233.648376 3.230743
v -25.648987 228.722885 3.230743
v -28.962952 222.982925 3.230743
v -31.011078 216.679382 3.230743
v -31.703888 210.087769 3.230743
v -31.011078 203.496170 3.230743
v -28.962952 197.192627 3.230743
v -25.648987 191.452667 3.230743
v -21.214081 186.527176 3.230743
v -15.851929 182.631378 3.230743
v -9.797028 179.935562 3.230743
v -3.313965 178.557541 3.230743
v 3.313965 178.557541 3.230743
v 9.797058 179.935562 3.230743
v 15.851990 182.631378 3.230743
v 21.214081 186.527176 3.230743
v 25.648987 191.452682 3.230743
v 28.962982 197.192627 3.230743
v 31.011139 203.496170 3.230743
v 31.703918 210.087769 3.230743
v 0.000031 210.087769 2.451141
v 0.000031 210.087769 3.230743
v -4.196381 0.000000 0.390488
v 4.196381 0.000000 0.390488
v -4.196381 232.029816 0.390488
v 4.196381 232.029816 0.390488
v -4.196381 232.029816 -0.390488
v 4.196381 232.029816 -0.390488
v -4.196381 0.000000 -0.390488
v 4.196381 0.000000 -0.390488
v -2.731934 0.000000 0.390488
v 2.731934 0.000000 0.390488
v 2.731934 232.029816 0.390488
v -2.731934 232.029816 0.390488
v 2.333832 232.029816 -0.390488
v -2.333832 232.029816 -0.390488
v 2.333832 0.000000 -0.390488
v -2.333832 0.000000 -0.390488
v -1.852753 0.000000 2.664490
v 1.852783 0.000000 2.664490
v 1.852783 232.029816 2.664490
v -1.852753 232.029816 2.664490
v 1.475525 232.029816 1.883499
v -1.475525 232.029816 1.883499
v 1.475525 0.000000 1.883499
v -1.475525 0.000000 1.883499
vt 0.545210 0.839593
vt 0.545210 0.832736
vt 0.547864 0.832736
vt 0.547864 0.839593
vt 0.545210 0.825879
vt 0.547864 0.825879
vt 0.545210 0.819021
vt 0.547864 0.819022
vt 0.545210 0.812165
vt 0.547864 0.812164
vt 0.545210 0.805308
vt 0.547864 0.805308
vt 0.547864 0.798450
vt 0.545210 0.997304
vt 0.547863 0.997304
vt 0.545210 0.990447
vt 0.547864 0.990447
vt 0.545210 0.983590
vt 0.547864 0.983590
vt 0.545210 0.976733
vt 0.547864 0.976733
vt 0.545210 0.969876
vt 0.547864 0.969876
vt 0.545210 0.963019
vt 0.547864 0.963019
vt 0.545210 0.956162
vt 0.547864 0.956162
vt 0.545210 0.949305
vt 0.547864 0.949305
vt 0.545210 0.942448
vt 0.547863 0.942448
vt 0.545210 0.935591
vt 0.547864 0.935591
vt 0.545210 0.928734
vt 0.547863 0.928734
vt 0.545210 0.921877
vt 0.547864 0.921877
vt 0.545210 0.915020
vt 0.547864 0.915020
vt 0.545210 0.908163
vt 0.547864 0.908163
vt 0.545210 0.901306
vt 0.547863 0.901306
vt 0.545210 0.894449
vt 0.547863 0.894449
vt 0.545210 0.887592
vt 0.547864 0.887592
vt 0.545210 0.880735
vt 0.547864 0.880735
vt 0.545210 0.873878
vt 0.547864 0.873878
vt 0.545210 0.867021
vt 0.547864 0.867021
vt 0.545210 0.860164
vt 0.547864 0.860164
vt 0.545210 0.853307
vt 0.547864 0.853307
vt 0.545210 0.846450
vt 0.547864 0.846450
vt 0.356597 0.853644
vt 0.350259 0.873150
vt 0.593733 0.830955
vt 0.606886 0.826681
vt 0.620640 0.891388
vt 0.620640 0.825236
vt 0.581756 0.837870
vt 0.634393 0.826681
vt 0.571479 0.847123
vt 0.647546 0.830955
vt 0.563350 0.858312
vt 0.659523 0.837870
vt 0.557725 0.870946
vt 0.669800 0.847123
vt 0.554850 0.884473
vt 0.677929 0.858312
vt 0.554850 0.898303
vt 0.683554 0.870946
vt 0.557725 0.911830
vt 0.686429 0.884473
vt 0.563350 0.924464
vt 0.686429 0.898302
vt 0.571479 0.935652
vt 0.683554 0.911830
vt 0.581756 0.944906
vt 0.677929 0.924464
vt 0.593733 0.951821
vt 0.669800 0.935652
vt 0.606886 0.956094
vt 0.659523 0.944906
vt 0.620640 0.957540
vt 0.647546 0.951821
vt 0.634393 0.956094
vt 0.542179 0.913944
vt 0.535842 0.933449
vt 0.446219 0.893547
vt 0.525587 0.951211
vt 0.544323 0.893547
vt 0.511864 0.966452
vt 0.542179 0.873150
vt 0.495271 0.978507
vt 0.535842 0.853644
vt 0.476535 0.986849
vt 0.525587 0.835883
vt 0.456474 0.991113
vt 0.511864 0.820641
vt 0.435965 0.991113
vt 0.495271 0.808586
vt 0.415904 0.986849
vt 0.476535 0.800245
vt 0.397167 0.978507
vt 0.456474 0.795980
vt 0.380575 0.966452
vt 0.435965 0.795980
vt 0.366852 0.951211
vt 0.415904 0.800244
vt 0.356597 0.933449
vt 0.397167 0.808586
vt 0.350259 0.913944
vt 0.380575 0.820641
vt 0.348115 0.893547
vt 0.366852 0.835883
vt 0.545210 0.798451
vt 0.545210 0.791593
vt 0.547864 0.791593
vt 0.009683 0.533745
vt 0.009683 0.525188
vt 0.462936 0.525188
vt 0.462936 0.533745
vt 0.166752 0.546256
vt 0.166752 0.530350
vt 0.170104 0.531969
vt 0.170104 0.544637
vt 0.009683 0.518312
vt 0.009683 0.511497
vt 0.462936 0.511497
vt 0.462936 0.518312
vt 0.196509 0.544637
vt 0.196509 0.531969
vt 0.199861 0.530350
vt 0.199861 0.546256
vt 0.009683 0.529716
vt 0.009683 0.527913
vt 0.462936 0.527913
vt 0.462936 0.529716
vt 0.009683 0.524826
vt 0.009683 0.523023
vt 0.462936 0.523023
vt 0.462936 0.524827
vt 0.009683 0.516555
vt 0.462936 0.516555
vt 0.462936 0.519937
vt 0.009683 0.519937
vt 0.462936 0.542379
vt 0.009683 0.542379
vt 0.009683 0.538997
vt 0.462936 0.538997
vt 0.176513 0.520289
vt 0.179865 0.520289
vt 0.179865 0.528285
vt 0.176513 0.526576
vt 0.179865 0.556316
vt 0.176513 0.556316
vt 0.176513 0.550030
vt 0.179865 0.548321
vt 0.009683 0.501944
vt 0.462936 0.501944
vt 0.462936 0.506246
vt 0.009683 0.506246
vt 0.462936 0.527865
vt 0.009683 0.527865
vt 0.009683 0.523563
vt 0.462936 0.523563
vt 0.186748 0.520289
vt 0.190100 0.520289
vt 0.190100 0.526576
vt 0.186748 0.528285
vt 0.190100 0.556316
vt 0.186748 0.556316
vt 0.186748 0.548321
vt 0.190100 0.550030
vn 0.978148 0.207908 0.000000
vn 0.913544 0.406740 0.000000
vn 0.913544 0.406740 0.000000
vn 0.978148 0.207908 0.000000
vn 0.809016 0.587787 0.000000
vn 0.809016 0.587787 0.000000
vn 0.669132 0.743143 0.000000
vn 0.669132 0.743143 0.000000
vn 0.500000 0.866025 0.000000
vn 0.500000 0.866025 0.000000
vn 0.309019 0.951056 0.000000
vn 0.309019 0.951056 0.000000
vn 0.104530 0.994522 0.000000
vn 0.104530 0.994522 0.000000
vn -0.104529 0.994522 0.000000
vn -0.104529 0.994522 0.000000
vn -0.309019 0.951056 0.000000
vn -0.309019 0.951056 0.000000
vn -0.500000 0.866026 0.000000
vn -0.500000 0.866026 0.000000
vn -0.669130 0.743146 0.000000
vn -0.669130 0.743146 0.000000
vn -0.809018 0.587784 0.000000
vn -0.809018 0.587784 0.000000
vn -0.913546 0.406735 0.000000
vn -0.913546 0.406735 0.000000
vn -0.978148 0.207911 0.000000
vn -0.978148 0.207911 0.000000
vn -1.000000 0.000000 0.000000
vn -1.000000 0.000000 0.000000
vn -0.978148 -0.207911 0.000000
vn -0.978148 -0.207911 0.000000
vn -0.913546 -0.406735 0.000000
vn -0.913546 -0.406735 0.000000
vn -0.809018 -0.587784 0.000000
vn -0.809018 -0.587784 0.000000
vn -0.669130 -0.743146 0.000000
vn -0.669130 -0.743146 0.000000
vn -0.499999 -0.866026 0.000000
vn -0.499999 -0.866026 0.000000
vn -0.309017 -0.951056 0.000000
vn -0.309017 -0.951056 0.000000
vn -0.104529 -0.994522 0.000000
vn -0.104529 -0.994522 0.000000
vn 0.104528 -0.994522 0.000000
vn 0.104528 -0.994522 0.000000
vn 0.309016 -0.951057 0.000000
vn 0.309016 -0.951057 0.000000
vn 0.500000 -0.866026 0.000000
vn 0.500000 -0.866026 0.000000
vn 0.669133 -0.743143 0.000000
vn 0.669133 -0.743143 0.000000
vn 0.809017 -0.587785 0.000000
vn 0.809017 -0.587785 0.000000
vn 0.913544 -0.406740 0.000000
vn 0.913544 -0.406740 0.000000
vn 0.978148 -0.207911 0.000000
vn 0.978148 -0.207911 0.000000
vn 1.000000 -0.000002 0.000000
vn 1.000000 -0.000002 0.000000
vn 0.000000 0.000000 -1.000000
vn 0.000000 0.000000 -1.000000
vn 0.000000 0.000000 -1.000000
vn 0.000000 0.000000 -1.000000
vn 0.000000 0.000000 -1.000000
vn 0.000000 0.000000 -1.000000
vn 0.000000 0.000000 -1.000000
vn 0.000000 0.000000 -1.000000
vn 0.000000 0.000000 -1.000000
vn 0.000000 0.000000 -1.000000
vn 0.000000 0.000000 -1.000000
vn 0.000000 0.000000 -1.000000
vn 0.000000 0.000000 -1.000000
vn -0.000000 0.000000 -1.000000
vn 0.000000 0.000000 -1.000000
vn 0.000000 0.000000 -1.000000
vn 0.000000 0.000000 -1.000000
vn 0.000000 0.000000 -1.000000
vn 0.000000 0.000000 -1.000000
vn 0.000000 0.000000 -1.000000
vn 0.000000 0.000000 -1.000000
vn 0.000000 0.000000 -1.000000
vn 0.000000 0.000000 -1.000000
vn 0.000000 0.000000 -1.000000
vn 0.000000 0.000000 -1.000000
vn 0.000000 0.000000 -1.000000
vn 0.000000 0.000000 -1.000000
vn 0.000000 0.000000 -1.000000
vn 0.000000 0.000000 -1.000000
vn 0.000000 0.000000 -1.000000
vn 0.000000 0.000000 -1.000000
vn 0.000000 0.000000 1.000000
vn 0.000000 0.000000 1.000000
vn 0.000000 0.000000 1.000000
vn 0.000000 0.000000 1.000000
vn 0.000000 0.000000 1.000000
vn 0.000000 0.000000 1.000000
vn 0.000000 0.000000 1.000000
vn 0.000000 0.000000 1.000000
vn -0.000000 0.000000 1.000000
vn -0.000000 0.000000 1.000000
vn 0.000000 0.000000 1.000000
vn 0.000000 0.000000 1.000000
vn -0.000000 0.000000 1.000000
vn -0.000000 0.000000 1.000000
vn 0.000000 0.000000 1.000000
vn 0.000000 0.000000 1.000000
vn 0.000000 0.000000 1.000000
vn -0.000000 0.000000 1.000000
vn -0.000000 0.000000 1.000000
vn 0.000000 0.000000 1.000000
vn 0.000000 0.000000 1.000000
vn 0.000000 0.000000 1.000000
vn 0.000000 0.000000 1.000000
vn 0.000000 0.000000 1.000000
vn 0.000000 0.000000 1.000000
vn -0.000000 0.000000 1.000000
vn -0.000000 0.000000 1.000000
vn 0.000000 0.000000 1.000000
vn 0.000000 0.000000 1.000000
vn 0.000000 0.000000 1.000000
vn 0.000000 0.000000 1.000000
vn -0.444342 0.000000 0.895857
vn 0.444344 0.000000 0.895856
vn 0.444344 0.000000 0.895856
vn -0.444342 0.000000 0.895857
vn 0.000000 1.000000 0.000006
vn 0.000000 1.000000 0.000006
vn 0.000000 1.000000 0.000006
vn 0.000000 1.000000 0.000006
vn 0.512567 0.000000 -0.858647
vn -0.512567 0.000000 -0.858647
vn -0.512567 0.000000 -0.858647
vn 0.512567 0.000000 -0.858647
vn 0.000000 -1.000000 0.000000
vn 0.000000 -1.000000 0.000000
vn 0.000000 -1.000000 0.000000
vn 0.000000 -1.000000 0.000000
vn 1.000000 0.000000 0.000000
vn 1.000000 0.000000 0.000000
vn 1.000000 0.000000 0.000000
vn 1.000000 0.000000 0.000000
vn -1.000000 0.000000 0.000000
vn -1.000000 0.000000 0.000000
vn -1.000000 0.000000 0.000000
vn -1.000000 0.000000 0.000000
vn 0.000000 0.000000 1.000000
vn 0.000000 0.000000 1.000000
vn 0.696370 0.000000 0.717683
vn 0.696370 0.000000 0.717683
vn 0.000000 0.000000 1.000000
vn 0.000000 0.000000 1.000000
vn -0.696366 0.000000 0.717687
vn -0.696366 0.000000 0.717687
vn 0.000000 1.000000 0.000000
vn 0.000000 1.000000 0.000000
vn 0.000000 1.000000 0.000000
vn 0.000000 1.000000 0.000000
vn 0.000000 1.000000 0.000000
vn 0.000000 1.000000 0.000000
vn 0.000000 1.000000 0.000000
vn 0.000000 1.000000 0.000000
vn 0.000000 0.000000 -1.000000
vn 0.000000 0.000000 -1.000000
vn -0.641283 0.000000 -0.767304
vn -0.641283 0.000000 -0.767304
vn 0.000000 0.000000 -1.000000
vn 0.000000 0.000000 -1.000000
vn 0.641283 0.000000 -0.767304
vn 0.641283 0.000000 -0.767304
vn 0.000000 -1.000000 0.000000
vn 0.000000 -1.000000 0.000000
vn 0.000000 -1.000000 0.000000
vn 0.000000 -1.000000 0.000000
vn 0.000000 -1.000000 0.000000
vn 0.000000 -1.000000 0.000000
vn 0.000000 -1.000000 0.000000
vn 0.000000 -1.000000 0.000000
vn 0.000000 1.000000 0.000010
vn 0.000000 1.000000 0.000010
vn 0.000000 1.000000 0.000010
vn 0.000000 1.000000 0.000010
vn 0.000000 1.000000 0.000000
vn 0.000000 1.000000 0.000000
vn 0.000000 1.000000 0.000000
vn 0.000000 1.000000 0.000000
vn 0.000000 -1.000000 0.000000
vn 0.000000 -1.000000 0.000000
vn 0.000000 -1.000000 0.000000
vn 0.000000 -1.000000 0.000000
vn 0.000000 -1.000000 0.000000
vn 0.000000 -1.000000 0.000000
vn 0.000000 -1.000000 0.000000
vn 0.000000 -1.000000 0.000000
g Sign_NoEnter
usemtl lambert15SG
f 1/1/1 2/2/2 32/3/3 31/4/4
f 2/2/2 3/5/5 33/6/6 32/3/3
f 3/5/5 4/7/7 34/8/8 33/6/6
f 4/7/7 5/9/9 35/10/10 34/8/8
f 5/9/9 6/11/11 36/12/12 35/10/10
f 6/11/11 7/122/13 37/13/14 36/12/12
f 7/122/13 8/123/15 38/124/16 37/13/14
f 8/14/15 9/16/17 39/17/18 38/15/16
f 9/16/17 10/18/19 40/19/20 39/17/18
f 10/18/19 11/20/21 41/21/22 40/19/20
f 11/20/21 12/22/23 42/23/24 41/21/22
f 12/22/23 13/24/25 43/25/26 42/23/24
f 13/24/25 14/26/27 44/27/28 43/25/26
f 14/26/27 15/28/29 45/29/30 44/27/28
f 15/28/29 16/30/31 46/31/32 45/29/30
f 16/30/31 17/32/33 47/33/34 46/31/32
f 17/32/33 18/34/35 48/35/36 47/33/34
f 18/34/35 19/36/37 49/37/38 48/35/36
f 19/36/37 20/38/39 50/39/40 49/37/38
f 20/38/39 21/40/41 51/41/42 50/39/40
f 21/40/41 22/42/43 52/43/44 51/41/42
f 22/42/43 23/44/45 53/45/46 52/43/44
f 23/44/45 24/46/47 54/47/48 53/45/46
f 24/46/47 25/48/49 55/49/50 54/47/48
f 25/48/49 26/50/51 56/51/52 55/49/50
f 26/50/51 27/52/53 57/53/54 56/51/52
f 27/52/53 28/54/55 58/55/56 57/53/54
f 28/54/55 29/56/57 59/57/58 58/55/56
f 29/56/57 30/58/59 60/59/60 59/57/58
f 30/58/59 1/1/1 31/4/4 60/59/60
f 2/62/61 1/63/62 61/64/63
f 3/66/64 2/62/61 61/64/63
f 4/68/65 3/66/64 61/64/63
f 5/70/66 4/68/65 61/64/63
f 6/72/67 5/70/66 61/64/63
f 7/74/68 6/72/67 61/64/63
f 8/76/69 7/74/68 61/64/63
f 9/78/70 8/76/69 61/64/63
f 10/80/71 9/78/70 61/64/63
f 11/82/72 10/80/71 61/64/63
f 12/84/73 11/82/72 61/64/63
f 13/86/74 12/84/73 61/64/63
f 14/88/75 13/86/74 61/64/63
f 15/90/76 14/88/75 61/64/63
f 16/92/77 15/90/76 61/64/63
f 17/91/78 16/92/77 61/64/63
f 18/89/79 17/91/78 61/64/63
f 19/87/80 18/89/79 61/64/63
f 20/85/81 19/87/80 61/64/63
f 21/83/82 20/85/81 61/64/63
f 22/81/83 21/83/82 61/64/63
f 23/79/84 22/81/83 61/64/63
f 24/77/85 23/79/84 61/64/63
f 25/75/86 24/77/85 61/64/63
f 26/73/87 25/75/86 61/64/63
f 27/71/88 26/73/87 61/64/63
f 28/69/89 27/71/88 61/64/63
f 29/67/90 28/69/89 61/64/63
f 30/65/91 29/67/90 61/64/63
f 1/63/62 30/65/91 61/64/63
f 31/93/92 32/94/93 62/95/94
f 32/94/93 33/96/95 62/95/94
f 33/96/95 34/98/96 62/95/94
f 34/98/96 35/100/97 62/95/94
f 35/100/97 36/102/98 62/95/94
f 36/102/98 37/104/99 62/95/94
f 37/104/99 38/106/100 62/95/94
f 38/106/100 39/108/101 62/95/94
f 39/108/101 40/110/102 62/95/94
f 40/110/102 41/112/103 62/95/94
f 41/112/103 42/114/104 62/95/94
f 42/114/104 43/116/105 62/95/94
f 43/116/105 44/118/106 62/95/94
f 44/118/106 45/120/107 62/95/94
f 45/120/107 46/61/108 62/95/94
f 46/61/108 47/60/109 62/95/94
f 47/60/109 48/121/110 62/95/94
f 48/121/110 49/119/111 62/95/94
f 49/119/111 50/117/112 62/95/94
f 50/117/112 51/115/113 62/95/94
f 51/115/113 52/113/114 62/95/94
f 52/113/114 53/111/115 62/95/94
f 53/111/115 54/109/116 62/95/94
f 54/109/116 55/107/117 62/95/94
f 55/107/117 56/105/118 62/95/94
f 56/105/118 57/103/119 62/95/94
f 57/103/119 58/101/120 62/95/94
f 58/101/120 59/99/121 62/95/94
f 59/99/121 60/97/122 62/95/94
f 60/97/122 31/93/92 62/95/94
f 79/125/123 80/126/124 81/127/125 82/128/126
f 82/129/127 81/130/128 83/131/129 84/132/130
f 84/133/131 83/134/132 85/135/133 86/136/134
f 86/137/135 85/138/136 80/139/137 79/140/138
f 64/141/139 70/142/140 68/143/141 66/144/142
f 69/145/143 63/146/144 65/147/145 67/148/146
f 64/149/147 66/150/148 73/151/149 72/152/150
f 65/153/151 63/154/152 71/155/153 74/156/154
f 66/157/155 68/158/156 75/159/157 73/160/158
f 67/161/159 65/162/160 74/163/161 76/164/162
f 68/165/163 70/166/164 77/167/165 75/168/166
f 69/169/167 67/170/168 76/171/169 78/172/170
f 70/173/171 64/174/172 72/175/173 77/176/174
f 63/177/175 69/178/176 78/179/177 71/180/178
f 72/152/150 73/151/149 81/127/125 80/126/124
f 74/156/154 71/155/153 79/125/123 82/128/126
f 73/160/179 75/159/180 83/131/181 81/130/182
f 76/164/183 74/163/184 82/129/185 84/132/186
f 75/168/166 77/167/165 85/135/133 83/134/132
f 78/172/170 76/171/169 84/133/131 86/136/134
f 77/176/187 72/175/188 80/139/189 85/138/190
f 71/180/191 78/179/192 86/137/193 79/140/194
