# This file uses meters as units for non-parametric coordinates.

mtllib Sign_Danger.mtl
g default
v 44.026432 35.453060 0.000000
v 44.026432 -35.453079 0.000000
v 46.454865 34.431965 0.000000
v 46.454865 -34.431976 0.000000
v 47.711395 31.897535 0.000000
v 47.711395 -31.897549 0.000000
v -43.673042 35.453079 0.000000
v -43.673023 -35.453079 0.000000
v -46.337669 34.431980 0.000000
v -46.337669 -34.431976 0.000000
v -47.711403 31.897551 0.000000
v -47.711403 -31.897549 0.000000
vt 0.677987 0.483623
vt 0.677987 0.338463
vt 0.682957 0.481533
vt 0.682957 0.340553
vt 0.685527 0.476344
vt 0.685527 0.345742
vt 0.498447 0.483623
vt 0.498447 0.338463
vt 0.492994 0.481533
vt 0.492994 0.340553
vt 0.490183 0.476344
vt 0.490183 0.345742
vn 0.000000 0.000000 1.000000
vn 0.000000 0.000000 1.000000
vn 0.000000 0.000000 1.000000
vn 0.000000 0.000000 1.000000
vn 0.000000 0.000000 1.000000
vn 0.000000 0.000000 1.000000
vn 0.000000 0.000000 1.000000
vn 0.000000 0.000000 1.000000
vn 0.000000 0.000000 1.000000
vn 0.000000 0.000000 1.000000
vn 0.000000 0.000000 1.000000
vn 0.000000 0.000000 1.000000
g Sign_Danger
usemtl lambert15SG
f 7/7/1 8/8/2 2/2/3 1/1/4
f 1/1/4 2/2/3 4/4/5 3/3/6
f 3/3/6 4/4/5 6/6/7 5/5/8
f 9/9/9 10/10/10 8/8/2 7/7/1
f 11/11/11 12/12/12 10/10/10 9/9/9
