# This file uses meters as units for non-parametric coordinates.

mtllib CardboardBox_VarE_LOD1.mtl
g default
v 32.803078 66.329994 -1.404090
v 7.166174 63.263088 -32.891548
v 33.369427 64.104698 -33.349678
v -5.898782 63.561615 -32.958546
v -33.295624 65.156670 -1.292603
v -33.721405 64.104904 -33.384323
v -32.983315 66.701065 0.188080
v -5.898782 63.914829 32.728298
v -33.626804 64.104553 33.250542
v 7.166174 63.620567 32.911964
v 32.871162 65.526909 0.196343
v 33.399208 64.104462 33.340271
v -33.460823 -0.937499 -33.124004
v -32.362755 -0.978694 32.439194
v 33.729668 -0.998373 -34.046509
v 33.410942 -0.885510 33.321907
v 30.774921 -0.620298 -29.552422
v -32.181702 0.115632 -32.191353
v -32.089409 0.119270 32.085991
v 32.280212 0.115660 32.174461
v 32.322952 63.119480 -32.219864
v 32.370430 63.122204 32.259979
v -32.173744 63.122246 32.170330
v -32.268250 63.122200 -32.285812
vt 0.333663 0.490486
vt 0.651570 0.490381
vt 0.012043 0.976710
vt 0.324705 0.978115
vt 0.011634 0.489682
vt 0.327052 0.490260
vt 0.332502 0.978274
vt 0.647591 0.978764
vt 0.012144 0.511898
vt 0.330791 0.511901
vt 0.335029 0.021529
vt 0.823571 0.349747
vt 0.679172 0.754925
vt 0.835064 0.754922
vt 0.833205 0.515376
vt 0.676419 0.515380
vt 0.834135 0.909186
vt 0.676932 0.668434
vt 0.833580 0.668493
vt 0.678788 0.907971
vt 0.670318 0.333013
vt 0.648700 0.511941
vt 0.985803 0.326013
vt 0.676577 0.017717
vt 0.674266 0.345921
vt 0.672751 0.499030
vt 0.010648 0.335098
vt 0.329123 0.824672
vt 0.010342 0.823758
vt 0.330471 0.335662
vt 0.991475 0.014651
vt 0.652044 0.021475
vt 0.652804 0.335514
vt 0.989883 0.668621
vt 0.825169 0.500731
vt 0.989751 0.515377
vt 0.010594 0.021527
vt 0.650164 0.825726
vt 0.989529 0.907860
vt 0.988590 0.755688
vn -0.006610 0.003322 -0.999973
vn -0.006610 0.003322 -0.999973
vn -0.006610 0.003322 -0.999973
vn -0.006610 0.003322 -0.999973
vn -0.008826 0.998653 -0.051125
vn -0.008826 0.998653 -0.051125
vn -0.008826 0.998653 -0.051125
vn -0.008826 0.998653 -0.051125
vn -0.999890 -0.011753 0.009017
vn -0.999890 -0.011753 0.009017
vn -0.999890 -0.011753 0.009017
vn -0.999890 -0.011753 0.009017
vn 0.013190 0.999910 -0.002676
vn 0.013190 0.999909 -0.002676
vn 0.013190 0.999910 -0.002676
vn 0.013190 0.999909 -0.002676
vn 0.999994 0.002848 0.002153
vn 0.999994 0.002848 0.002153
vn 0.999994 0.002848 0.002153
vn 0.999994 0.002848 0.002153
vn -0.025272 0.999677 -0.002690
vn -0.025272 0.999677 -0.002690
vn -0.025272 0.999677 -0.002690
vn -0.025272 0.999677 -0.002690
vn 0.008776 0.998123 0.060605
vn 0.008776 0.998123 0.060605
vn 0.008776 0.998123 0.060605
vn 0.008776 0.998123 0.060605
vn 0.000243 -1.000000 0.000538
vn 0.000243 -1.000000 0.000538
vn 0.000243 -1.000000 0.000538
vn 0.000243 -1.000000 0.000538
vn -0.007318 -0.006450 0.999952
vn -0.007318 -0.006450 0.999952
vn -0.007318 -0.006450 0.999952
vn -0.007318 -0.006450 0.999952
vn -0.999839 0.013172 0.012224
vn -0.999839 0.013172 0.012224
vn -0.999839 0.013172 0.012224
vn -0.999839 0.013172 0.012224
vn 0.001382 0.001348 -0.999998
vn 0.001382 0.001348 -0.999998
vn 0.001382 0.001348 -0.999998
vn 0.001382 0.001348 -0.999998
vn 0.999998 0.001356 -0.001451
vn 0.999998 0.001356 -0.001451
vn 0.999998 0.001356 -0.001451
vn 0.999998 0.001356 -0.001451
vn -0.021069 0.022024 0.999536
vn -0.021069 0.022024 0.999535
vn -0.021069 0.022024 0.999535
vn -0.021069 0.022024 0.999536
vn 0.005935 0.999965 -0.005945
vn 0.005935 0.999965 -0.005945
vn 0.005935 0.999965 -0.005945
vn 0.005935 0.999965 -0.005945
g CardboardBox_VarE_LOD1 CardboardBox_VarE
usemtl lambert7SG
f 6/33/1 3/30/2 15/11/3 13/32/4
f 3/30/5 6/33/6 5/2/7 1/1/8
f 9/28/9 6/29/10 13/9/11 14/10/12
f 6/29/13 9/28/14 8/4/15 4/3/16
f 15/11/17 3/30/18 12/27/19 16/37/20
f 2/6/21 10/5/22 12/27/23 3/30/24
f 11/8/25 7/7/26 9/28/27 12/38/28
f 13/31/29 15/23/30 16/21/31 14/24/32
f 9/28/33 14/10/34 16/22/35 12/38/36
f 20/40/37 22/39/38 21/17/39 17/14/40
f 19/15/41 23/19/42 22/18/43 20/16/44
f 18/36/45 24/34/46 23/19/47 19/15/48
f 21/17/49 24/20/50 18/13/51 17/14/52
f 17/12/53 18/35/54 19/26/55 20/25/56
