# This file uses meters as units for non-parametric coordinates.

mtllib CardboardBox_VarA_LOD1.mtl
g default
v 51.274879 39.366074 -32.744965
v 32.526016 41.073387 -57.971199
v 32.911301 40.740715 -57.669937
v 50.837173 39.048119 -32.891548
v 32.340729 63.894131 -32.251282
v 34.083755 64.853348 -34.236534
v 33.369423 64.104698 -33.349678
v 33.772308 63.938911 -33.743599
v -54.081314 41.697327 -32.813400
v -32.486649 41.073387 -57.971199
v -53.422592 41.089783 -32.958546
v -33.295624 40.740715 -57.669937
v -32.268326 63.887890 -32.285904
v -34.046341 64.853348 -34.273468
v -33.721405 64.104904 -33.384323
v -34.112640 63.857872 -33.775589
v -32.293320 46.423317 58.373508
v -54.081314 41.697327 32.597435
v -33.104568 46.084557 58.129120
v -53.422592 41.089783 32.728298
v -32.173752 63.887890 32.170330
v -33.946426 64.853348 34.157867
v -33.626801 64.104553 33.250542
v -34.025055 63.979050 33.642868
v 51.274879 39.366070 32.785053
v 32.586334 46.423317 58.373508
v 50.837173 39.048119 32.911964
v 32.970901 46.084557 58.129120
v 32.370483 63.887890 32.260025
v 34.115189 64.853348 34.253540
v 33.399200 64.104462 33.340271
v 33.791321 64.049164 33.725971
v -33.460800 -0.937499 -33.124004
v -32.362762 -0.978694 32.439194
v 31.280632 -1.801802 -32.272774
v 33.410934 -0.885510 33.321907
v 30.774918 -0.620298 -29.552422
v -32.181702 0.115632 -32.191353
v -32.089401 0.119270 32.085991
v 32.280212 0.115660 32.174461
vt 0.834149 0.911108
vt 0.330469 0.333584
vt 0.989881 0.670630
vt 0.654682 0.333291
vt 0.679461 0.988025
vt 0.333663 0.490486
vt 0.651570 0.490381
vt 0.833250 0.670481
vt 0.329063 0.822666
vt 0.832606 0.749896
vt 0.012043 0.976710
vt 0.324705 0.978115
vt 0.989455 0.909704
vt 0.651991 0.823531
vt 0.008827 0.333216
vt 0.833211 0.988558
vt 0.011634 0.489682
vt 0.327052 0.490260
vt 0.677124 0.748973
vt 0.332502 0.978274
vt 0.647591 0.978764
vt 0.012144 0.511898
vt 0.330791 0.511901
vt 0.335029 0.021529
vt 0.823571 0.349747
vt 0.679172 0.754925
vt 0.835064 0.754922
vt 0.833205 0.515376
vt 0.676419 0.515380
vt 0.670318 0.333013
vt 0.648700 0.511941
vt 0.985803 0.326013
vt 0.676577 0.017717
vt 0.990914 0.014346
vt 0.674266 0.345921
vt 0.672751 0.499030
vt 0.677792 0.672886
vt 0.010648 0.335098
vt 0.833227 0.913608
vt 0.329123 0.824672
vt 0.832380 0.673028
vt 0.010342 0.823758
vt 0.678204 0.912495
vt 0.330471 0.335662
vt 0.832704 0.748972
vt 0.990920 0.988039
vt 0.991382 0.749896
vt 0.834337 0.988029
vt 0.652044 0.021475
vt 0.008679 0.821160
vt 0.652804 0.335514
vt 0.678863 0.909823
vt 0.825169 0.500731
vt 0.989751 0.515377
vt 0.991558 0.673094
vt 0.010594 0.021527
vt 0.650164 0.825726
vt 0.677379 0.670353
vt 0.988590 0.755688
vt 0.990803 0.912102
vn -0.000277 0.899951 0.435991
vn -0.000277 0.899951 0.435991
vn -0.000277 0.899951 0.435991
vn -0.000277 0.899951 0.435991
vn 0.006562 -0.016349 -0.999845
vn 0.006562 -0.016349 -0.999845
vn 0.006562 -0.016349 -0.999845
vn 0.006562 -0.016349 -0.999845
vn -0.000181 -0.720894 0.693045
vn -0.000181 -0.720894 0.693045
vn -0.000181 -0.720894 0.693045
vn -0.000181 -0.720894 0.693045
vn 0.000196 0.706157 -0.708055
vn 0.000196 0.706157 -0.708055
vn 0.000196 0.706157 -0.708055
vn 0.000196 0.706157 -0.708055
vn -0.222494 0.942839 -0.248094
vn 0.132918 0.958373 -0.252693
vn 0.135191 0.959079 -0.248780
vn -0.222312 0.942830 -0.248293
vn 0.477742 0.878500 -0.000699
vn 0.477742 0.878500 -0.000699
vn 0.477742 0.878500 -0.000699
vn 0.477742 0.878500 -0.000699
vn -0.999801 -0.017869 0.008925
vn -0.999801 -0.017869 0.008925
vn -0.999801 -0.017869 0.008925
vn -0.999801 -0.017869 0.008925
vn 0.758908 -0.651197 -0.000544
vn 0.758909 -0.651197 -0.000544
vn 0.758908 -0.651197 -0.000544
vn 0.758909 -0.651197 -0.000544
vn -0.755425 0.655235 0.000564
vn -0.755425 0.655235 0.000564
vn -0.755425 0.655235 0.000564
vn -0.755425 0.655235 0.000564
vn -0.228836 0.966990 0.112087
vn -0.231561 0.966510 0.110630
vn -0.483156 0.875534 0.000263
vn -0.483156 0.875534 0.000263
vn -0.483156 0.875534 0.000263
vn -0.483156 0.875534 0.000263
vn 0.999628 -0.022101 -0.015976
vn 0.999628 -0.022101 -0.015976
vn 0.999628 -0.022101 -0.015976
vn 0.999628 -0.022101 -0.015976
vn -0.820563 -0.571556 0.000183
vn -0.820563 -0.571556 0.000183
vn -0.820563 -0.571556 0.000183
vn -0.820563 -0.571556 0.000183
vn 0.829279 0.558835 -0.000194
vn 0.829279 0.558835 -0.000194
vn 0.829279 0.558835 -0.000194
vn 0.829279 0.558835 -0.000194
vn 0.137051 0.984056 0.113361
vn 0.139049 0.983969 0.111669
vn 0.000610 0.899754 -0.436397
vn 0.000610 0.899754 -0.436397
vn 0.000610 0.899754 -0.436397
vn 0.000610 0.899754 -0.436397
vn 0.000395 -0.809370 -0.587299
vn 0.000395 -0.809370 -0.587299
vn 0.000395 -0.809370 -0.587299
vn 0.000395 -0.809370 -0.587299
vn -0.000436 0.795170 0.606387
vn -0.000436 0.795170 0.606387
vn -0.000436 0.795170 0.606386
vn -0.000436 0.795170 0.606387
vn -0.005999 -0.999959 0.006819
vn -0.005999 -0.999959 0.006819
vn -0.005999 -0.999959 0.006819
vn -0.005999 -0.999959 0.006819
vn -0.007214 -0.012447 0.999897
vn -0.007214 -0.012447 0.999897
vn -0.007214 -0.012447 0.999897
vn -0.007214 -0.012447 0.999897
vn -0.999840 0.013153 0.012082
vn -0.999841 0.013153 0.012082
vn -0.999840 0.013153 0.012082
vn -0.999841 0.013153 0.012082
vn 0.001382 0.001332 -0.999998
vn 0.001382 0.001332 -0.999998
vn 0.001382 0.001332 -0.999998
vn 0.001382 0.001332 -0.999998
vn 0.999998 0.001340 -0.001452
vn 0.999998 0.001340 -0.001452
vn 0.999998 0.001340 -0.001452
vn 0.999998 0.001340 -0.001452
vn -0.020823 0.022005 0.999541
vn -0.020823 0.022005 0.999541
vn -0.020823 0.022005 0.999541
vn -0.020823 0.022005 0.999541
vn 0.005935 0.999965 -0.005945
vn 0.005935 0.999965 -0.005945
vn 0.005935 0.999965 -0.005945
vn 0.005935 0.999965 -0.005945
g CardboardBox_VarA_LOD1 CardboardBox_VarA
usemtl lambert7SG
f 14/43/1 13/52/2 5/1/3 6/39/4
f 16/4/5 8/2/6 35/24/7 33/49/8
f 7/44/9 15/51/10 12/7/11 3/6/12
f 6/39/13 2/48/14 10/5/15 14/43/16
f 15/51/17 7/44/18 8/2/19 16/4/20
f 22/41/21 21/8/22 13/3/23 14/55/24
f 24/9/25 16/50/26 33/22/27 34/23/28
f 15/42/29 23/40/30 20/12/31 11/11/32
f 14/55/33 9/47/34 18/10/35 22/41/36
f 23/40/37 15/42/17 16/50/20 24/9/38
f 29/13/39 30/60/40 6/39/41 5/1/42
f 35/24/43 8/2/44 32/15/45 36/56/46
f 4/18/47 27/17/48 31/38/49 7/44/50
f 1/16/51 6/39/52 30/60/53 25/46/54
f 7/44/18 31/38/55 32/15/56 8/2/19
f 21/8/57 22/41/58 30/37/59 29/58/60
f 28/21/61 19/20/62 23/40/63 31/57/64
f 26/19/65 30/37/66 22/41/67 17/45/68
f 31/57/55 23/40/37 24/9/38 32/14/56
f 34/33/69 33/34/70 35/32/71 36/30/72
f 24/9/73 34/23/74 36/31/75 32/14/76
f 37/27/77 40/59/78 29/13/79 5/1/80
f 40/29/81 39/28/82 21/8/83 29/58/84
f 39/28/85 38/54/86 13/3/87 21/8/88
f 38/26/89 37/27/90 5/1/91 13/52/92
f 37/25/93 38/53/94 39/36/95 40/35/96
