# This file uses meters as units for non-parametric coordinates.

mtllib Wire_Roll_LOD2.mtl
g default
v 23.865213 4.837769 -9.103693
v 13.956344 4.837769 -21.392660
v -1.283371 4.837769 -25.510357
v -16.032879 4.837769 -19.883963
v -24.658369 4.837769 -6.662573
v -23.865202 4.837769 9.103689
v -13.956338 4.837769 21.392653
v 1.283370 4.837769 25.510349
v 16.032873 4.837769 19.883959
v 24.658363 4.837769 6.662570
v 23.865213 85.983040 -9.103693
v 13.956344 85.983040 -21.392660
v -1.283371 85.983040 -25.510357
v -16.032879 85.983040 -19.883963
v -24.658369 85.983040 -6.662573
v -23.865202 85.983040 9.103689
v -13.956338 85.983040 21.392653
v 1.283370 85.983040 25.510349
v 16.032873 85.983040 19.883959
v 24.658363 85.983040 6.662570
v 40.318760 89.492165 -16.700573
v 26.566790 89.492165 -34.622498
v 5.696261 89.492165 -43.267357
v -16.700575 89.492165 -40.318764
v -34.622513 89.492165 -26.566790
v -43.267368 89.492165 -5.696260
v -40.318771 89.492165 16.700581
v -26.566792 89.492165 34.622513
v -5.696259 89.492165 43.267376
v 16.700584 89.492165 40.318775
v 34.622520 89.492165 26.566799
v 43.267380 89.492165 5.696259
v 40.318760 85.843231 -16.700573
v 26.566790 85.843231 -34.622498
v 5.696261 85.843231 -43.267357
v -16.700575 85.843231 -40.318764
v -34.622513 85.843231 -26.566790
v -43.267368 85.843231 -5.696260
v -40.318771 85.843231 16.700581
v -26.566792 85.843231 34.622513
v -5.696259 85.843231 43.267376
v 16.700584 85.843231 40.318775
v 34.622520 85.843231 26.566799
v 43.267380 85.843231 5.696259
v 34.622509 1.272563 -26.566776
v 16.700584 1.272563 -40.318756
v -5.696251 1.272563 -43.267357
v -26.566786 1.272563 -34.622513
v -40.318768 1.272563 -16.700584
v -43.267372 1.272563 5.696255
v -34.622513 1.272563 26.566790
v -16.700586 1.272563 40.318771
v 5.696257 1.272563 43.267376
v 26.566795 1.272563 34.622524
v 40.318779 1.272563 16.700586
v 43.267372 1.272563 -5.696254
v 43.267372 4.921490 -5.696254
v 34.622509 4.921490 -26.566776
v 16.700584 4.921490 -40.318756
v -5.696251 4.921490 -43.267357
v -26.566786 4.921490 -34.622513
v -40.318768 4.921490 -16.700584
v -43.267372 4.921490 5.696255
v -34.622513 4.921490 26.566790
v -16.700586 4.921490 40.318771
v 5.696257 4.921490 43.267376
v 26.566795 4.921490 34.622524
v 40.318779 4.921490 16.700586
vt 0.009954 0.557039
vt 0.009954 0.991290
vt 0.095487 0.557039
vt 0.095487 0.991290
vt 0.181021 0.557039
vt 0.181021 0.991290
vt 0.266554 0.557039
vt 0.266554 0.991290
vt 0.352087 0.557039
vt 0.352087 0.991290
vt 0.437621 0.557039
vt 0.437621 0.991290
vt 0.523154 0.557039
vt 0.523154 0.991290
vt 0.608687 0.557039
vt 0.608687 0.991290
vt 0.694221 0.557039
vt 0.694221 0.991290
vt 0.779754 0.557039
vt 0.779754 0.991290
vt 0.865287 0.557039
vt 0.865287 0.991290
vt 0.178425 0.027363
vt 0.178425 0.007835
vt 0.301412 0.027363
vt 0.301412 0.007835
vt 0.424398 0.027363
vt 0.424398 0.007835
vt 0.547385 0.027363
vt 0.547385 0.007835
vt 0.670372 0.027363
vt 0.670372 0.007835
vt 0.762612 0.027363
vt 0.762612 0.007835
vt 0.055438 0.053578
vt 0.055438 0.034051
vt 0.178425 0.053578
vt 0.178425 0.034051
vt 0.301411 0.053578
vt 0.301411 0.034051
vt 0.424398 0.053578
vt 0.424398 0.034051
vt 0.547385 0.053578
vt 0.547385 0.034051
vt 0.670372 0.053578
vt 0.670372 0.034051
vt 0.762612 0.053578
vt 0.762612 0.034051
vt 0.055438 0.027363
vt 0.055438 0.007835
vt 0.508970 0.292878
vt 0.545724 0.177707
vt 0.635138 0.096343
vt 0.753255 0.070587
vt 0.868426 0.107340
vt 0.949790 0.196754
vt 0.975546 0.314871
vt 0.938793 0.430042
vt 0.849379 0.511406
vt 0.731262 0.537162
vt 0.616091 0.500409
vt 0.534727 0.410995
vt 0.035691 0.232398
vt 0.101495 0.130982
vt 0.209191 0.076056
vt 0.329922 0.082336
vt 0.431338 0.148141
vt 0.486264 0.255837
vt 0.479983 0.376568
vt 0.414179 0.477984
vt 0.306483 0.532910
vt 0.185752 0.526629
vt 0.084337 0.460825
vt 0.029410 0.353128
vt 0.239918 0.007835
vt 0.116931 0.027363
vt 0.239918 0.027363
vt 0.362904 0.007835
vt 0.362904 0.027363
vt 0.485891 0.007835
vt 0.485891 0.027363
vt 0.608878 0.007835
vt 0.608878 0.027363
vt 0.731865 0.007835
vt 0.731865 0.027363
vt 0.024691 0.034051
vt 0.116931 0.034051
vt 0.024691 0.053578
vt 0.116931 0.053578
vt 0.239918 0.034051
vt 0.239918 0.053578
vt 0.362904 0.034051
vt 0.362904 0.053578
vt 0.485891 0.034051
vt 0.485891 0.053578
vt 0.608878 0.034051
vt 0.608878 0.053578
vt 0.731866 0.034051
vt 0.731866 0.053578
vt 0.024691 0.007835
vt 0.116931 0.007835
vt 0.024691 0.027363
vt 0.514073 0.353632
vt 0.519766 0.232873
vt 0.585075 0.131139
vt 0.692502 0.075689
vt 0.813260 0.081381
vt 0.914994 0.146691
vt 0.970443 0.254117
vt 0.964751 0.374876
vt 0.899442 0.476610
vt 0.792016 0.532059
vt 0.671257 0.526367
vt 0.569523 0.461058
vt 0.024604 0.292350
vt 0.061917 0.177359
vt 0.151727 0.096429
vt 0.269970 0.071249
vt 0.384961 0.108562
vt 0.465890 0.198373
vt 0.491071 0.316616
vt 0.453757 0.431607
vt 0.363946 0.512536
vt 0.245704 0.537717
vt 0.130713 0.500403
vt 0.049784 0.410592
vn 0.546394 0.000000 -0.837528
vn 0.934329 0.000000 -0.356411
vn 0.934329 0.000000 -0.356411
vn 0.546394 0.000000 -0.837528
vn -0.050244 0.000000 -0.998737
vn 0.546394 0.000000 -0.837528
vn 0.546394 0.000000 -0.837528
vn -0.050244 0.000000 -0.998737
vn -0.627692 0.000000 -0.778462
vn -0.050244 0.000000 -0.998737
vn -0.050244 0.000000 -0.998737
vn -0.627692 0.000000 -0.778462
vn -0.965382 0.000000 -0.260842
vn -0.627692 0.000000 -0.778462
vn -0.627692 0.000000 -0.778462
vn -0.965382 0.000000 -0.260842
vn -0.934329 0.000000 0.356412
vn -0.965382 0.000000 -0.260842
vn -0.965382 0.000000 -0.260842
vn -0.934329 0.000000 0.356412
vn -0.546394 0.000000 0.837528
vn -0.934329 0.000000 0.356412
vn -0.934329 0.000000 0.356412
vn -0.546394 0.000000 0.837528
vn 0.050244 0.000000 0.998737
vn -0.546394 0.000000 0.837528
vn -0.546394 0.000000 0.837528
vn 0.050244 0.000000 0.998737
vn 0.627692 0.000000 0.778462
vn 0.050244 0.000000 0.998737
vn 0.050244 0.000000 0.998737
vn 0.627692 0.000000 0.778462
vn 0.965382 0.000000 0.260842
vn 0.627692 0.000000 0.778462
vn 0.627692 0.000000 0.778462
vn 0.965382 0.000000 0.260842
vn 0.934329 0.000000 -0.356411
vn 0.965382 0.000000 0.260842
vn 0.965382 0.000000 0.260842
vn 0.934329 0.000000 -0.356411
vn 0.923879 0.000000 -0.382684
vn 0.923879 0.000000 -0.382684
vn 0.500000 0.000000 -0.866025
vn 0.500000 0.000000 -0.866025
vn 0.000000 0.000000 -1.000000
vn 0.000000 0.000000 -1.000000
vn -0.500000 0.000000 -0.866026
vn -0.500000 0.000000 -0.866026
vn -0.866026 0.000000 -0.500000
vn -0.866026 0.000000 -0.500000
vn -1.000000 0.000000 0.000000
vn -1.000000 0.000000 0.000000
vn -0.866025 0.000000 0.500000
vn -0.866025 0.000000 0.500000
vn -0.500000 0.000000 0.866026
vn -0.500000 0.000000 0.866026
vn 0.000000 0.000000 1.000000
vn 0.000000 0.000000 1.000000
vn 0.500000 0.000000 0.866025
vn 0.500000 0.000000 0.866025
vn 0.866026 0.000000 0.500000
vn 0.866026 0.000000 0.500000
vn 1.000000 0.000000 -0.000001
vn 1.000000 0.000000 -0.000001
vn -0.006628 0.999978 0.000329
vn -0.005901 0.999977 0.003378
vn -0.003030 0.999978 0.005905
vn -0.000024 0.999977 0.006800
vn 0.003599 0.999978 0.005576
vn 0.005877 0.999977 0.003421
vn 0.006628 0.999978 -0.000328
vn 0.005901 0.999977 -0.003379
vn 0.003030 0.999978 -0.005904
vn 0.000024 0.999977 -0.006800
vn -0.003599 0.999978 -0.005576
vn -0.005877 0.999977 -0.003421
vn 0.008395 -0.999937 0.007478
vn 0.003531 -0.999937 0.010674
vn -0.002279 -0.999937 0.011010
vn -0.007478 -0.999937 0.008395
vn -0.010674 -0.999937 0.003532
vn -0.011010 -0.999937 -0.002279
vn -0.008395 -0.999937 -0.007478
vn -0.003531 -0.999937 -0.010674
vn 0.002279 -0.999937 -0.011010
vn 0.007478 -0.999937 -0.008395
vn 0.010674 -0.999937 -0.003532
vn 0.011010 -0.999937 0.002279
vn 0.965926 0.000000 -0.258820
vn 0.866026 0.000000 -0.500000
vn 0.866026 0.000000 -0.500000
vn 0.965926 0.000000 -0.258820
vn 0.500000 0.000000 -0.866026
vn 0.500000 0.000000 -0.866026
vn 0.000000 0.000000 -1.000000
vn 0.000000 0.000000 -1.000000
vn -0.500000 0.000000 -0.866026
vn -0.500000 0.000000 -0.866026
vn -0.866025 0.000000 -0.500000
vn -0.866025 0.000000 -0.500000
vn -1.000000 0.000000 0.000000
vn -1.000000 0.000000 0.000000
vn -0.866025 0.000000 0.500000
vn -0.866025 0.000000 0.500000
vn -0.500000 0.000000 0.866025
vn -0.500000 0.000000 0.866025
vn 0.000000 0.000000 1.000000
vn 0.000000 0.000000 1.000000
vn 0.500000 0.000000 0.866026
vn 0.500000 0.000000 0.866026
vn 0.866025 0.000000 0.500000
vn 0.866025 0.000000 0.500000
vn 0.005901 -0.999977 -0.003379
vn 0.006628 -0.999978 -0.000329
vn 0.005877 -0.999977 0.003421
vn 0.003599 -0.999978 0.005576
vn -0.000024 -0.999977 0.006800
vn -0.003030 -0.999978 0.005905
vn -0.005901 -0.999977 0.003379
vn -0.006628 -0.999978 0.000329
vn -0.005877 -0.999977 -0.003421
vn -0.003599 -0.999978 -0.005576
vn 0.000024 -0.999977 -0.006800
vn 0.003030 -0.999978 -0.005905
vn 0.011010 0.999937 0.002279
vn 0.010674 0.999937 -0.003531
vn 0.007478 0.999937 -0.008395
vn 0.002279 0.999937 -0.011010
vn -0.003531 0.999937 -0.010674
vn -0.008395 0.999937 -0.007478
vn -0.011010 0.999937 -0.002279
vn -0.010674 0.999937 0.003532
vn -0.007478 0.999937 0.008395
vn -0.002279 0.999937 0.011010
vn 0.003531 0.999937 0.010674
vn 0.008395 0.999937 0.007478
g Wire_Roll_LOD2 Wire_Roll
usemtl WireRoll:HIGH_CHECKER_SG
f 12/4/1 11/2/2 1/1/3 2/3/4
f 13/6/5 12/4/6 2/3/7 3/5/8
f 14/8/9 13/6/10 3/5/11 4/7/12
f 15/10/13 14/8/14 4/7/15 5/9/16
f 16/12/17 15/10/18 5/9/19 6/11/20
f 17/14/21 16/12/22 6/11/23 7/13/24
f 18/16/25 17/14/26 7/13/27 8/15/28
f 19/18/29 18/16/30 8/15/31 9/17/32
f 20/20/33 19/18/34 9/17/35 10/19/36
f 11/22/37 20/20/38 10/19/39 1/21/40
f 21/24/41 33/23/42 34/25/43 22/26/44
f 22/26/44 34/25/43 35/27/45 23/28/46
f 23/28/46 35/27/45 36/29/47 24/30/48
f 24/30/48 36/29/47 37/31/49 25/32/50
f 25/32/50 37/31/49 38/33/51 26/34/52
f 26/36/52 38/35/51 39/37/53 27/38/54
f 27/38/54 39/37/53 40/39/55 28/40/56
f 28/40/56 40/39/55 41/41/57 29/42/58
f 29/42/58 41/41/57 42/43/59 30/44/60
f 30/44/60 42/43/59 43/45/61 31/46/62
f 31/46/62 43/45/61 44/47/63 32/48/64
f 32/50/64 44/49/63 33/23/42 21/24/41
f 26/57/65 27/56/66 28/55/67 29/54/68 30/53/69 31/52/70 32/51/71 21/62/72 22/61/73 23/60/74 24/59/75 25/58/76
f 43/73/77 42/72/78 41/71/79 40/70/80 39/69/81 38/68/82 37/67/83 36/66/84 35/65/85 34/64/86 33/63/87 44/74/88
f 56/101/89 45/75/90 58/77/91 57/76/92
f 45/75/90 46/78/93 59/79/94 58/77/91
f 46/78/93 47/80/95 60/81/96 59/79/94
f 47/80/95 48/82/97 61/83/98 60/81/96
f 48/82/97 49/84/99 62/85/100 61/83/98
f 49/86/99 50/87/101 63/89/102 62/88/100
f 50/87/101 51/90/103 64/91/104 63/89/102
f 51/90/103 52/92/105 65/93/106 64/91/104
f 52/92/105 53/94/107 66/95/108 65/93/106
f 53/94/107 54/96/109 67/97/110 66/95/108
f 54/96/109 55/98/111 68/99/112 67/97/110
f 55/100/111 56/101/89 57/76/92 68/102/112
f 45/114/113 56/103/114 55/104/115 54/105/116 53/106/117 52/107/118 51/108/119 50/109/120 49/110/121 48/111/122 47/112/123 46/113/124
f 68/126/125 57/115/126 58/116/127 59/117/128 60/118/129 61/119/130 62/120/131 63/121/132 64/122/133 65/123/134 66/124/135 67/125/136
