# This file uses meters as units for non-parametric coordinates.

mtllib Wires_2_A_LOD0.mtl
g default
v -3.393936 -8.694130 3.519531
v 3.393921 -8.694130 3.519531
v -3.393936 8.694130 3.519531
v 3.393921 8.694130 3.519531
v -3.393936 8.694130 0.000000
v 3.393921 8.694130 0.000000
v -3.393936 -8.694130 0.000000
v 3.393921 -8.694130 0.000000
v -3.100693 -8.694130 400.000000
v 3.687195 -8.694130 400.000000
v -3.100693 8.694130 400.000000
v 3.687195 8.694130 400.000000
v -3.100693 8.694130 396.480469
v 3.687195 8.694130 396.480469
v -3.100693 -8.694130 396.480469
v 3.687195 -8.694130 396.480469
v 0.000000 5.620302 3.519531
v -2.495514 3.124769 3.519531
v 0.000000 0.629260 3.519531
v 2.495514 3.124769 3.519531
v 0.000000 5.620302 203.347168
v -2.495514 3.124769 203.347168
v 0.000000 0.629260 203.347168
v 2.495514 3.124769 203.347168
v 0.000000 5.620302 396.480469
v -2.495514 3.124769 396.480469
v 0.000000 0.629260 396.480469
v 2.495514 3.124769 396.480469
v 0.000000 -0.629260 3.519531
v -2.495514 -3.124793 3.519531
v 0.000000 -5.620302 3.519531
v 2.495514 -3.124793 3.519531
v 0.000000 -0.629260 203.347168
v -2.495514 -3.124793 203.347168
v 0.000000 -5.620302 203.347168
v 2.495514 -3.124793 203.347168
v 0.000000 -0.629260 396.480469
v -2.495514 -3.124793 396.480469
v 0.000000 -5.620302 396.480469
v 2.495514 -3.124793 396.480469
vt 0.712524 0.137347
vt 0.755475 0.137347
vt 0.755475 0.247372
vt 0.712524 0.247372
vt 0.772687 0.121746
vt 0.815638 0.121746
vt 0.815638 0.144015
vt 0.772687 0.144015
vt 0.832887 0.137378
vt 0.875837 0.137378
vt 0.875837 0.247402
vt 0.832887 0.247402
vt 0.809098 0.119598
vt 0.852048 0.119598
vt 0.852048 0.141868
vt 0.809098 0.141868
vt 0.766341 0.125442
vt 0.788611 0.125442
vt 0.788611 0.235467
vt 0.766341 0.235467
vt 0.714359 0.137358
vt 0.757310 0.137358
vt 0.757310 0.247382
vt 0.714360 0.247382
vt 0.774543 0.121746
vt 0.817493 0.121746
vt 0.817493 0.144015
vt 0.774543 0.144015
vt 0.834538 0.137384
vt 0.877488 0.137384
vt 0.877488 0.247408
vt 0.834538 0.247408
vt 0.810953 0.119598
vt 0.853904 0.119598
vt 0.853904 0.141868
vt 0.810953 0.141868
vt 0.766341 0.125442
vt 0.788611 0.125442
vt 0.788611 0.235467
vt 0.766341 0.235467
vt 0.002625 1.000000
vt 0.002618 -0.000208
vt 0.039378 -0.000208
vt 0.039386 1.000000
vt 0.076139 -0.000208
vt 0.076146 1.000000
vt 0.112899 -0.000208
vt 0.112906 1.000000
vt 0.149660 -0.000209
vt 0.149666 1.000000
vt 0.002625 1.000000
vt 0.002618 -0.000208
vt 0.039378 -0.000208
vt 0.039386 1.000000
vt 0.076139 -0.000208
vt 0.076146 1.000000
vt 0.112899 -0.000208
vt 0.112906 1.000000
vt 0.149660 -0.000209
vt 0.149666 1.000000
vt 0.002625 1.000000
vt 0.002618 -0.000208
vt 0.039378 -0.000208
vt 0.039386 1.000000
vt 0.076139 -0.000208
vt 0.076146 1.000000
vt 0.112899 -0.000208
vt 0.112906 1.000000
vt 0.149660 -0.000209
vt 0.149666 1.000000
vt 0.002625 1.000000
vt 0.002618 -0.000208
vt 0.039378 -0.000208
vt 0.039386 1.000000
vt 0.076139 -0.000208
vt 0.076146 1.000000
vt 0.112899 -0.000208
vt 0.112906 1.000000
vt 0.149660 -0.000209
vt 0.149666 1.000000
vt 0.787683 0.133218
vt 0.787683 0.237524
vt 0.766571 0.237524
vt 0.766571 0.133218
vt 0.805412 0.133218
vt 0.805412 0.237524
vt 0.784300 0.237524
vt 0.784300 0.133218
vn 0.000000 0.000000 1.000000
vn 0.000000 0.000000 1.000000
vn 0.000000 0.000000 1.000000
vn 0.000000 0.000000 1.000000
vn 0.000000 1.000000 0.000000
vn 0.000000 1.000000 0.000000
vn 0.000000 1.000000 0.000000
vn 0.000000 1.000000 0.000000
vn 0.000000 0.000000 -1.000000
vn 0.000000 0.000000 -1.000000
vn 0.000000 0.000000 -1.000000
vn 0.000000 0.000000 -1.000000
vn 0.000000 -1.000000 0.000000
vn 0.000000 -1.000000 0.000000
vn 0.000000 -1.000000 0.000000
vn 0.000000 -1.000000 0.000000
vn -1.000000 0.000000 0.000000
vn -1.000000 0.000000 0.000000
vn -1.000000 0.000000 0.000000
vn -1.000000 0.000000 0.000000
vn 0.000000 0.000000 1.000000
vn 0.000000 0.000000 1.000000
vn 0.000000 0.000000 1.000000
vn 0.000000 0.000000 1.000000
vn 0.000000 1.000000 0.000000
vn 0.000000 1.000000 0.000000
vn 0.000000 1.000000 0.000000
vn 0.000000 1.000000 0.000000
vn 0.000000 0.000000 -1.000000
vn 0.000000 0.000000 -1.000000
vn 0.000000 0.000000 -1.000000
vn 0.000000 0.000000 -1.000000
vn 0.000000 -1.000000 0.000000
vn 0.000000 -1.000000 0.000000
vn 0.000000 -1.000000 0.000000
vn 0.000000 -1.000000 0.000000
vn -1.000000 0.000000 0.000000
vn -1.000000 0.000000 0.000000
vn -1.000000 0.000000 0.000000
vn -1.000000 0.000000 0.000000
vn 0.000000 1.000000 0.000000
vn 0.000000 1.000000 0.000000
vn -1.000000 0.000000 0.000000
vn -1.000000 0.000000 0.000000
vn 0.000000 -1.000000 0.000000
vn 0.000000 -1.000000 0.000000
vn 1.000000 0.000000 0.000000
vn 1.000000 0.000000 0.000000
vn 0.000000 1.000000 0.000000
vn 0.000000 1.000000 0.000000
vn -1.000000 0.000000 0.000000
vn -1.000000 0.000000 0.000000
vn 0.000000 -1.000000 0.000000
vn 0.000000 -1.000000 0.000000
vn 1.000000 0.000000 0.000000
vn 1.000000 0.000000 0.000000
vn 0.000000 1.000000 0.000000
vn 0.000000 1.000000 0.000000
vn -1.000000 0.000000 0.000000
vn -1.000000 0.000000 0.000000
vn 0.000000 -1.000000 0.000000
vn 0.000000 -1.000000 0.000000
vn 1.000000 0.000000 0.000000
vn 1.000000 0.000000 0.000000
vn 0.000000 1.000000 0.000000
vn 0.000000 1.000000 0.000000
vn -1.000000 0.000000 0.000000
vn -1.000000 0.000000 0.000000
vn 0.000000 -1.000000 0.000000
vn 0.000000 -1.000000 0.000000
vn 1.000000 0.000000 0.000000
vn 1.000000 0.000000 0.000000
vn 1.000000 0.000000 0.000000
vn 1.000000 0.000000 0.000000
vn 1.000000 0.000000 0.000000
vn 1.000000 0.000000 0.000000
vn 1.000000 0.000000 0.000000
vn 1.000000 0.000000 0.000000
vn 1.000000 0.000000 0.000000
vn 1.000000 0.000000 0.000000
g Wires_2_A_LOD0 Wires_2_A
usemtl lambert17SG
f 1/1/1 2/2/2 4/3/3 3/4/4
f 3/5/5 4/6/6 6/7/7 5/8/8
f 5/9/9 6/10/10 8/11/11 7/12/12
f 7/13/13 8/14/14 2/15/15 1/16/16
f 7/17/17 1/18/18 3/19/19 5/20/20
f 9/21/21 10/22/22 12/23/23 11/24/24
f 11/25/25 12/26/26 14/27/27 13/28/28
f 13/29/29 14/30/30 16/31/31 15/32/32
f 15/33/33 16/34/34 10/35/35 9/36/36
f 15/37/37 9/38/38 11/39/39 13/40/40
f 21/41/41 17/42/42 18/43/43 22/44/44
f 18/43/43 19/45/45 23/46/46 22/44/44
f 19/45/45 20/47/47 24/48/48 23/46/46
f 20/47/47 17/49/42 21/50/41 24/48/48
f 25/51/49 21/52/50 22/53/51 26/54/52
f 22/53/51 23/55/53 27/56/54 26/54/52
f 23/55/53 24/57/55 28/58/56 27/56/54
f 24/57/55 21/59/50 25/60/49 28/58/56
f 33/61/57 29/62/58 30/63/59 34/64/60
f 30/63/59 31/65/61 35/66/62 34/64/60
f 31/65/61 32/67/63 36/68/64 35/66/62
f 32/67/63 29/69/58 33/70/57 36/68/64
f 37/71/65 33/72/66 34/73/67 38/74/68
f 34/73/67 35/75/69 39/76/70 38/74/68
f 35/75/69 36/77/71 40/78/72 39/76/70
f 36/77/71 33/79/66 37/80/65 40/78/72
f 16/81/73 14/82/74 12/83/75 10/84/76
f 8/85/77 6/86/78 4/87/79 2/88/80
