# This file uses meters as units for non-parametric coordinates.

mtllib Wires_1_B_LOD1.mtl
g default
v -3.100693 -4.522369 400.000000
v 3.687195 -4.522369 400.000000
v -3.100693 6.140320 400.000000
v 3.687195 6.140320 400.000000
v -3.100693 6.140320 396.480469
v 3.687195 6.140320 396.480469
v -3.100693 -4.522369 396.480469
v 3.687195 -4.522369 396.480469
v -3.100693 -4.522369 3.519531
v 3.687195 -4.522369 3.519531
v -3.100693 6.140320 3.519531
v 3.687195 6.140320 3.519531
v -3.100693 6.140320 0.000000
v 3.687195 6.140320 0.000000
v -3.100693 -4.522369 0.000000
v 3.687195 -4.522369 0.000000
v 0.000000 2.495529 3.519531
v 0.000000 -2.495514 3.519531
v 0.000000 -23.071274 203.347153
v 0.000000 -28.062317 203.347153
v 0.000000 2.495529 396.480469
v 0.000000 -2.495514 396.480469
v 0.000000 2.495529 101.673828
v 0.000000 -2.495514 101.673340
v 0.000000 2.495529 301.673828
v 0.000000 -2.495514 301.673828
v 0.000000 -15.192856 252.047852
v 0.000000 -20.097450 252.972885
v 0.000000 -15.195037 152.984375
v 0.000000 -20.095268 152.036621
v 0.000000 -0.847168 127.797112
v 0.000000 -5.634872 126.386963
v 0.000000 -0.888107 276.260498
v 0.000000 -5.593933 277.923584
v 0.000000 -22.010925 178.314453
v 0.000000 -26.942009 177.543213
v 0.000000 -22.007629 227.564926
v 0.000000 -26.945305 228.292725
vt 0.714441 0.137380
vt 0.757391 0.137380
vt 0.757392 0.247405
vt 0.714441 0.247405
vt 0.774543 0.121746
vt 0.817493 0.121746
vt 0.817493 0.144015
vt 0.774543 0.144015
vt 0.834607 0.137377
vt 0.877558 0.137377
vt 0.877558 0.247401
vt 0.834607 0.247401
vt 0.810953 0.119598
vt 0.853904 0.119598
vt 0.853904 0.141868
vt 0.810953 0.141868
vt 0.766341 0.125442
vt 0.788610 0.125442
vt 0.788610 0.235467
vt 0.766341 0.235467
vt 0.714351 0.137345
vt 0.757301 0.137345
vt 0.757301 0.247369
vt 0.714351 0.247369
vt 0.774543 0.121746
vt 0.817493 0.121746
vt 0.817493 0.144015
vt 0.774542 0.144015
vt 0.834633 0.137379
vt 0.877584 0.137379
vt 0.877584 0.247404
vt 0.834633 0.247404
vt 0.810953 0.119598
vt 0.853903 0.119598
vt 0.853903 0.141868
vt 0.810953 0.141868
vt 0.766341 0.125442
vt 0.788611 0.125442
vt 0.788611 0.235467
vt 0.766341 0.235467
vt 0.002621 0.499896
vt 0.002618 -0.000208
vt 0.076139 -0.000208
vt 0.076142 0.499896
vt 0.002619 0.124818
vt 0.002618 -0.000208
vt 0.076139 -0.000208
vt 0.076140 0.124818
vt 0.076143 0.624922
vt 0.002622 0.624922
vt 0.076142 0.499896
vt 0.076146 1.000000
vt 0.002625 1.000000
vt 0.002621 0.499896
vt 0.076141 0.249844
vt 0.076142 0.374870
vt 0.002620 0.374870
vt 0.002620 0.249844
vt 0.076144 0.749948
vt 0.076145 0.874974
vt 0.002624 0.874974
vt 0.002623 0.749948
vt 0.076146 1.000000
vt 0.002625 1.000000
vt 0.793132 0.217352
vt 0.772020 0.217352
vt 0.772020 0.153390
vt 0.793132 0.153390
vt 0.800530 0.153390
vt 0.821642 0.153390
vt 0.821642 0.217352
vt 0.800530 0.217352
vn 0.000000 0.000000 1.000000
vn 0.000000 0.000000 1.000000
vn 0.000000 0.000000 1.000000
vn 0.000000 0.000000 1.000000
vn 0.000000 1.000000 0.000000
vn 0.000000 1.000000 0.000000
vn 0.000000 1.000000 0.000000
vn 0.000000 1.000000 0.000000
vn 0.000000 0.000000 -1.000000
vn 0.000000 0.000000 -1.000000
vn 0.000000 0.000000 -1.000000
vn 0.000000 0.000000 -1.000000
vn 0.000000 -1.000000 0.000000
vn 0.000000 -1.000000 0.000000
vn 0.000000 -1.000000 0.000000
vn 0.000000 -1.000000 0.000000
vn -1.000000 0.000000 0.000000
vn -1.000000 0.000000 0.000000
vn -1.000000 0.000000 0.000000
vn -1.000000 0.000000 0.000000
vn 0.000000 0.000000 1.000000
vn 0.000000 0.000000 1.000000
vn 0.000000 0.000000 1.000000
vn 0.000000 0.000000 1.000000
vn 0.000000 1.000000 0.000000
vn 0.000000 1.000000 0.000000
vn 0.000000 1.000000 0.000000
vn 0.000000 1.000000 0.000000
vn 0.000000 0.000000 -1.000000
vn 0.000000 0.000000 -1.000000
vn 0.000000 0.000000 -1.000000
vn 0.000000 0.000000 -1.000000
vn 0.000000 -1.000000 0.000000
vn 0.000000 -1.000000 0.000000
vn 0.000000 -1.000000 0.000000
vn 0.000000 -1.000000 0.000000
vn -1.000000 0.000000 0.000000
vn -1.000000 0.000000 0.000000
vn -1.000000 0.000000 0.000000
vn -1.000000 0.000000 0.000000
vn -1.000000 0.000000 0.000000
vn -1.000000 0.000000 0.000000
vn -1.000000 0.000000 0.000000
vn -1.000000 0.000000 0.000000
vn -1.000000 0.000000 0.000000
vn -1.000000 0.000000 0.000000
vn -1.000000 0.000000 0.000000
vn -1.000000 0.000000 0.000000
vn -1.000000 0.000000 0.000000
vn -1.000000 0.000000 0.000000
vn -1.000000 0.000000 0.000000
vn -1.000000 0.000000 0.000000
vn -1.000000 0.000000 0.000000
vn -1.000000 0.000000 0.000000
vn -1.000000 0.000000 0.000000
vn -1.000000 0.000000 0.000000
vn -1.000000 0.000000 0.000000
vn -1.000000 0.000000 0.000000
vn -1.000000 0.000000 0.000000
vn -1.000000 0.000000 0.000000
vn -1.000000 0.000000 0.000000
vn -1.000000 0.000000 0.000000
vn -1.000000 0.000000 0.000000
vn -1.000000 0.000000 0.000000
vn 1.000000 0.000000 0.000000
vn 1.000000 0.000000 0.000000
vn 1.000000 0.000000 0.000000
vn 1.000000 0.000000 0.000000
vn 1.000000 0.000000 0.000000
vn 1.000000 0.000000 0.000000
vn 1.000000 0.000000 0.000000
vn 1.000000 0.000000 0.000000
g Wires_1_B_LOD1 Wires_1_B
usemtl lambert17SG
f 1/1/1 2/2/2 4/3/3 3/4/4
f 3/5/5 4/6/6 6/7/7 5/8/8
f 5/9/9 6/10/10 8/11/11 7/12/12
f 7/13/13 8/14/14 2/15/15 1/16/16
f 7/17/17 1/18/18 3/19/19 5/20/20
f 9/21/21 10/22/22 12/23/23 11/24/24
f 11/25/25 12/26/26 14/27/27 13/28/28
f 13/29/29 14/30/30 16/31/31 15/32/32
f 15/33/33 16/34/34 10/35/35 9/36/36
f 15/37/37 9/38/38 11/39/39 13/40/40
f 24/44/41 23/41/42 17/42/43 18/43/44
f 38/48/45 37/45/46 19/46/47 20/47/48
f 32/49/49 31/50/50 23/41/42 24/44/41
f 22/52/51 21/53/52 25/54/53 26/51/54
f 34/56/55 33/57/56 27/58/57 28/55/58
f 36/60/59 35/61/60 29/62/61 30/59/62
f 30/59/62 29/62/61 31/50/50 32/49/49
f 26/51/54 25/54/53 33/57/56 34/56/55
f 20/63/63 19/64/64 35/61/60 36/60/59
f 28/55/58 27/58/57 37/45/46 38/48/45
f 14/65/65 12/66/66 10/67/67 16/68/68
f 2/69/69 8/70/70 6/71/71 4/72/72
