# This file uses meters as units for non-parametric coordinates.

mtllib Wires_4_B_LOD0.mtl
g default
v -3.393936 -13.453430 3.519531
v 3.393921 -13.453430 3.519531
v -3.393936 14.517181 3.519531
v 3.393921 14.517181 3.519531
v -3.393936 14.517181 0.000000
v 3.393921 14.517181 0.000000
v -3.393936 -13.453430 0.000000
v 3.393921 -13.453430 0.000000
v 0.000000 -0.725281 3.519531
v -2.495514 -3.220825 3.519531
v 0.000000 -5.716339 3.519531
v 2.495514 -3.220825 3.519531
v 0.000000 -0.725281 203.347168
v -2.495514 -3.220825 203.347168
v 0.000000 -5.716339 203.347168
v 2.495514 -3.220825 203.347168
v 0.000000 -0.725281 396.480469
v -2.495514 -3.220825 396.480469
v 0.000000 -5.716339 396.480469
v 2.495514 -3.220825 396.480469
v 0.000000 -6.974854 3.519531
v -2.495514 -9.470398 3.519531
v 0.000000 -11.965927 3.519531
v 2.495514 -9.470398 3.519531
v 0.000000 -6.974854 203.347168
v -2.495514 -9.470398 203.347168
v 0.000000 -11.965927 203.347168
v 2.495514 -9.470398 203.347168
v 0.000000 -6.974854 396.480469
v -2.495514 -9.470398 396.480469
v 0.000000 -11.965927 396.480469
v 2.495514 -9.470398 396.480469
v 0.000000 11.965912 3.519531
v -2.495514 9.470367 3.519531
v 0.000000 6.974854 3.519531
v 2.495514 9.470367 3.519531
v 0.000000 11.965912 203.347168
v -2.495514 9.470367 203.347168
v 0.000000 6.974854 203.347168
v 2.495514 9.470367 203.347168
v 0.000000 11.965912 396.480469
v -2.495514 9.470367 396.480469
v 0.000000 6.974854 396.480469
v 2.495514 9.470367 396.480469
v 0.000000 5.716339 3.519531
v -2.495514 3.220795 3.519531
v 0.000000 0.725281 3.519531
v 2.495514 3.220795 3.519531
v 0.000000 5.716339 203.347168
v -2.495514 3.220795 203.347168
v 0.000000 0.725281 203.347168
v 2.495514 3.220795 203.347168
v 0.000000 5.716339 396.480469
v -2.495514 3.220795 396.480469
v 0.000000 0.725281 396.480469
v 2.495514 3.220795 396.480469
v -3.100693 -13.453430 400.000000
v 3.687195 -13.453430 400.000000
v -3.100693 14.517181 400.000000
v 3.687195 14.517181 400.000000
v -3.100693 14.517181 396.480469
v 3.687195 14.517181 396.480469
v -3.100693 -13.453430 396.480469
v 3.687195 -13.453430 396.480469
v -6.438995 -12.826782 101.673828
v -3.943497 -10.331238 101.673828
v -1.447983 -12.826782 101.673828
v -3.943497 -15.322281 101.673828
v -6.438995 -8.720764 166.391113
v -3.943497 -6.275757 165.891602
v -1.447983 -8.720764 166.391113
v -3.943497 -11.165741 166.890625
v -4.418076 -1.914459 49.940430
v -6.913589 0.414490 50.836914
v -4.418076 2.743530 51.732910
v -1.922592 0.414490 50.836914
v -4.418076 2.863831 185.245117
v -1.922592 0.414551 185.723633
v -4.418076 -2.034760 186.201172
v -6.913589 0.414551 185.723633
v 0.000000 5.716339 25.418457
v 2.495514 3.220795 25.418457
v 0.000000 0.725281 25.417969
v -2.495514 3.220795 25.418457
v -6.438995 -12.826782 134.886719
v -3.943497 -10.331238 134.886719
v -1.447983 -12.826782 134.886719
v -3.943497 -15.322281 134.886719
v -6.438995 -8.720764 70.926758
v -3.943497 -6.310791 71.574707
v -1.447983 -8.720764 70.926758
v -3.943497 -11.130737 70.279297
vt 0.712617 0.137323
vt 0.755568 0.137323
vt 0.755568 0.247348
vt 0.712617 0.247348
vt 0.772687 0.121746
vt 0.815637 0.121746
vt 0.815637 0.144015
vt 0.772686 0.144015
vt 0.832613 0.137364
vt 0.875563 0.137364
vt 0.875563 0.247389
vt 0.832613 0.247389
vt 0.809098 0.119598
vt 0.852048 0.119598
vt 0.852048 0.141868
vt 0.809098 0.141868
vt 0.766341 0.125442
vt 0.788610 0.125442
vt 0.788610 0.235467
vt 0.766341 0.235467
vt 0.002625 1.000000
vt 0.002618 -0.000208
vt 0.039378 -0.000208
vt 0.039386 1.000000
vt 0.076139 -0.000208
vt 0.076146 1.000000
vt 0.112899 -0.000208
vt 0.112906 1.000000
vt 0.149660 -0.000209
vt 0.149666 1.000000
vt 0.002625 1.000000
vt 0.002618 -0.000208
vt 0.039378 -0.000208
vt 0.039386 1.000000
vt 0.076139 -0.000208
vt 0.076146 1.000000
vt 0.112899 -0.000208
vt 0.112906 1.000000
vt 0.149660 -0.000209
vt 0.149666 1.000000
vt 0.002625 1.000000
vt 0.002618 -0.000208
vt 0.039378 -0.000208
vt 0.039386 1.000000
vt 0.076139 -0.000208
vt 0.076146 1.000000
vt 0.112899 -0.000208
vt 0.112906 1.000000
vt 0.149660 -0.000209
vt 0.149666 1.000000
vt 0.002625 1.000000
vt 0.002618 -0.000208
vt 0.039378 -0.000208
vt 0.039386 1.000000
vt 0.076139 -0.000208
vt 0.076146 1.000000
vt 0.112899 -0.000208
vt 0.112906 1.000000
vt 0.149660 -0.000209
vt 0.149666 1.000000
vt 0.002625 1.000000
vt 0.002618 -0.000208
vt 0.039378 -0.000208
vt 0.039386 1.000000
vt 0.076139 -0.000208
vt 0.076146 1.000000
vt 0.112899 -0.000208
vt 0.112906 1.000000
vt 0.149660 -0.000209
vt 0.149666 1.000000
vt 0.002625 1.000000
vt 0.002618 -0.000208
vt 0.039378 -0.000208
vt 0.039386 1.000000
vt 0.076139 -0.000208
vt 0.076146 1.000000
vt 0.112899 -0.000208
vt 0.112906 1.000000
vt 0.149660 -0.000209
vt 0.149666 1.000000
vt 0.002625 1.000000
vt 0.002618 -0.000208
vt 0.039378 -0.000208
vt 0.039386 1.000000
vt 0.076139 -0.000208
vt 0.076146 1.000000
vt 0.112899 -0.000208
vt 0.112906 1.000000
vt 0.149660 -0.000209
vt 0.149666 1.000000
vt 0.002625 1.000000
vt 0.002618 -0.000208
vt 0.039378 -0.000208
vt 0.039386 1.000000
vt 0.076139 -0.000208
vt 0.076146 1.000000
vt 0.112899 -0.000208
vt 0.112906 1.000000
vt 0.149660 -0.000209
vt 0.149666 1.000000
vt 0.714403 0.137361
vt 0.757353 0.137361
vt 0.757353 0.247386
vt 0.714403 0.247386
vt 0.774542 0.121746
vt 0.817492 0.121746
vt 0.817492 0.144015
vt 0.774542 0.144015
vt 0.834581 0.137376
vt 0.877532 0.137376
vt 0.877532 0.247400
vt 0.834581 0.247400
vt 0.810953 0.119598
vt 0.853904 0.119598
vt 0.853904 0.141868
vt 0.810953 0.141868
vt 0.766341 0.125442
vt 0.788611 0.125442
vt 0.788611 0.235467
vt 0.766341 0.235467
vt 0.039382 0.499896
vt 0.149663 0.499896
vt 0.002621 0.499896
vt 0.112903 0.499896
vt 0.076142 0.499896
vt 0.039384 0.749948
vt 0.149665 0.749948
vt 0.002623 0.749948
vt 0.112904 0.749948
vt 0.076144 0.749948
vt 0.076141 0.249844
vt 0.039380 0.249844
vt 0.149661 0.249844
vt 0.002620 0.249844
vt 0.112901 0.249844
vt 0.149665 0.874974
vt 0.002624 0.874974
vt 0.112905 0.874974
vt 0.076145 0.874974
vt 0.039385 0.874974
vt 0.149661 0.124817
vt 0.002619 0.124818
vt 0.112900 0.124818
vt 0.076140 0.124818
vt 0.039379 0.124818
vt 0.039383 0.624922
vt 0.149664 0.624922
vt 0.002622 0.624922
vt 0.112903 0.624922
vt 0.076143 0.624922
vt 0.039381 0.374870
vt 0.149662 0.374870
vt 0.002620 0.374870
vt 0.112902 0.374870
vt 0.076142 0.374870
vt 0.763303 0.269264
vt 0.763303 0.101479
vt 0.784416 0.101479
vt 0.784416 0.269264
vt 0.774575 0.101477
vt 0.795687 0.101477
vt 0.795687 0.269265
vt 0.774575 0.269265
vn 0.000000 0.000000 1.000000
vn 0.000000 0.000000 1.000000
vn 0.000000 0.000000 1.000000
vn 0.000000 0.000000 1.000000
vn 0.000000 1.000000 0.000000
vn 0.000000 1.000000 0.000000
vn 0.000000 1.000000 0.000000
vn 0.000000 1.000000 0.000000
vn 0.000000 0.000000 -1.000000
vn 0.000000 0.000000 -1.000000
vn 0.000000 0.000000 -1.000000
vn 0.000000 0.000000 -1.000000
vn 0.000000 -1.000000 0.000000
vn 0.000000 -1.000000 0.000000
vn 0.000000 -1.000000 0.000000
vn 0.000000 -1.000000 0.000000
vn -1.000000 0.000000 0.000000
vn -1.000000 0.000000 0.000000
vn -1.000000 0.000000 0.000000
vn -1.000000 0.000000 0.000000
vn 0.000000 1.000000 0.000000
vn 0.000000 1.000000 0.000000
vn -1.000000 0.000000 0.000000
vn -1.000000 0.000000 0.000000
vn 0.000000 -1.000000 0.000000
vn 0.000000 -1.000000 0.000000
vn 1.000000 0.000000 0.000000
vn 1.000000 0.000000 0.000000
vn 0.000000 1.000000 0.000000
vn 0.000000 1.000000 0.000000
vn -1.000000 0.000000 0.000000
vn -1.000000 0.000000 0.000000
vn 0.000000 -1.000000 0.000000
vn 0.000000 -1.000000 0.000000
vn 1.000000 0.000000 0.000000
vn 1.000000 0.000000 0.000000
vn 0.000000 1.000000 0.000000
vn 0.000000 1.000000 0.000000
vn -1.000000 0.000000 0.000000
vn -1.000000 0.000000 0.000000
vn 0.000000 -1.000000 0.000000
vn 0.000000 -1.000000 0.000000
vn 1.000000 0.000000 0.000000
vn 1.000000 0.000000 0.000000
vn 0.000000 1.000000 0.000000
vn 0.000000 1.000000 0.000000
vn -1.000000 0.000000 0.000000
vn -1.000000 0.000000 0.000000
vn 0.000000 -1.000000 0.000000
vn 0.000000 -1.000000 0.000000
vn 1.000000 0.000000 0.000000
vn 1.000000 0.000000 0.000000
vn 0.000000 1.000000 0.000000
vn 0.000000 1.000000 0.000000
vn -1.000000 0.000000 0.000000
vn -1.000000 0.000000 0.000000
vn 0.000000 -1.000000 0.000000
vn 0.000000 -1.000000 0.000000
vn 1.000000 0.000000 0.000000
vn 1.000000 0.000000 0.000000
vn 0.000000 1.000000 0.000000
vn 0.000000 1.000000 0.000000
vn -1.000000 0.000000 0.000000
vn -1.000000 0.000000 0.000000
vn 0.000000 -1.000000 0.000000
vn 0.000000 -1.000000 0.000000
vn 1.000000 0.000000 0.000000
vn 1.000000 0.000000 0.000000
vn -0.994654 0.052549 -0.088892
vn 0.040838 0.996997 0.065794
vn 0.000000 1.000000 0.000000
vn -1.000000 0.000006 0.000000
vn 0.000000 -1.000000 0.000000
vn 0.040747 -0.997811 -0.052086
vn 1.000000 0.000006 0.000000
vn 0.995564 0.020517 0.091823
vn 0.000000 1.000000 0.000000
vn 0.000000 1.000000 0.000000
vn -1.000000 0.000000 0.000000
vn -1.000000 0.000000 0.000000
vn 0.000000 -1.000000 0.000000
vn 0.000000 -1.000000 0.000000
vn 1.000000 0.000000 0.000000
vn 1.000000 0.000000 0.000000
vn 0.000000 0.000000 1.000000
vn 0.000000 0.000000 1.000000
vn 0.000000 0.000000 1.000000
vn 0.000000 0.000000 1.000000
vn 0.000000 1.000000 0.000000
vn 0.000000 1.000000 0.000000
vn 0.000000 1.000000 0.000000
vn 0.000000 1.000000 0.000000
vn 0.000000 0.000000 -1.000000
vn 0.000000 0.000000 -1.000000
vn 0.000000 0.000000 -1.000000
vn 0.000000 0.000000 -1.000000
vn 0.000000 -1.000000 0.000000
vn 0.000000 -1.000000 0.000000
vn 0.000000 -1.000000 0.000000
vn 0.000000 -1.000000 0.000000
vn -1.000000 0.000000 0.000000
vn -1.000000 0.000000 0.000000
vn -1.000000 0.000000 0.000000
vn -1.000000 0.000000 0.000000
vn -0.000000 0.997884 -0.065016
vn -0.000000 0.997843 0.065643
vn -0.999421 -0.033717 -0.004495
vn -0.999475 -0.032150 0.004078
vn 0.999421 -0.033717 -0.004495
vn 0.999475 -0.032150 0.004078
vn -0.000000 -0.998053 -0.062369
vn 0.000000 -0.998105 0.061531
vn -0.994680 0.080297 0.064527
vn -0.058113 0.956185 -0.286937
vn 0.003782 0.966179 -0.257845
vn -0.997798 -0.065112 0.012673
vn 0.997603 -0.062071 0.030582
vn 0.989457 0.056647 -0.133290
vn 0.004251 -0.969361 0.245606
vn -0.052254 -0.944176 0.325271
vn -0.993353 0.095691 -0.063978
vn -0.043860 -0.966037 -0.254654
vn 0.004280 -0.968121 -0.250447
vn -0.997278 -0.073023 -0.010217
vn 0.003870 0.967297 0.253617
vn -0.048732 0.966324 0.252671
vn 0.993399 0.062499 0.096185
vn 0.997309 -0.067992 -0.027417
vn 0.112859 0.976685 -0.182616
vn 0.965683 0.065218 -0.251402
vn 0.103733 -0.985878 0.131467
vn -0.968823 0.096767 0.228074
vn 1.000000 0.000000 0.000000
vn 1.000000 0.000000 0.000000
vn 1.000000 0.000000 0.000000
vn 1.000000 0.000000 0.000000
vn 1.000000 0.000000 0.000000
vn 1.000000 0.000000 0.000000
vn 1.000000 0.000000 0.000000
vn 1.000000 0.000000 0.000000
g Wires_4_B_LOD0 Wires_4_B
usemtl lambert17SG
f 1/1/1 2/2/2 4/3/3 3/4/4
f 3/5/5 4/6/6 6/7/7 5/8/8
f 5/9/9 6/10/10 8/11/11 7/12/12
f 7/13/13 8/14/14 2/15/15 1/16/16
f 7/17/17 1/18/18 3/19/19 5/20/20
f 13/21/21 9/22/22 10/23/23 14/24/24
f 10/23/23 11/25/25 15/26/26 14/24/24
f 11/25/25 12/27/27 16/28/28 15/26/26
f 12/27/27 9/29/22 13/30/21 16/28/28
f 17/31/29 13/32/30 14/33/31 18/34/32
f 14/33/31 15/35/33 19/36/34 18/34/32
f 15/35/33 16/37/35 20/38/36 19/36/34
f 16/37/35 13/39/30 17/40/29 20/38/36
f 25/41/37 21/42/38 22/43/39 26/44/40
f 22/43/39 23/45/41 27/46/42 26/44/40
f 23/45/41 24/47/43 28/48/44 27/46/42
f 24/47/43 21/49/38 25/50/37 28/48/44
f 29/51/45 25/52/46 26/53/47 30/54/48
f 26/53/47 27/55/49 31/56/50 30/54/48
f 27/55/49 28/57/51 32/58/52 31/56/50
f 28/57/51 25/59/46 29/60/45 32/58/52
f 37/61/53 33/62/54 34/63/55 38/64/56
f 34/63/55 35/65/57 39/66/58 38/64/56
f 35/65/57 36/67/59 40/68/60 39/66/58
f 36/67/59 33/69/54 37/70/53 40/68/60
f 41/71/61 37/72/62 38/73/63 42/74/64
f 38/73/63 39/75/65 43/76/66 42/74/64
f 39/75/65 40/77/67 44/78/68 43/76/66
f 40/77/67 37/79/62 41/80/61 44/78/68
f 84/145/69 81/142/70 45/82/71 46/83/72
f 46/83/72 47/85/73 83/144/74 84/145/69
f 47/85/73 48/87/75 82/143/76 83/144/74
f 48/87/75 45/89/71 81/141/70 82/143/76
f 53/91/77 49/92/78 50/93/79 54/94/80
f 50/93/79 51/95/81 55/96/82 54/94/80
f 51/95/81 52/97/83 56/98/84 55/96/82
f 52/97/83 49/99/78 53/100/77 56/98/84
f 57/101/85 58/102/86 60/103/87 59/104/88
f 59/105/89 60/106/90 62/107/91 61/108/92
f 61/109/93 62/110/94 64/111/95 63/112/96
f 63/113/97 64/114/98 58/115/99 57/116/100
f 63/117/101 57/118/102 59/119/103 61/120/104
f 86/148/105 66/123/106 65/121/107 85/146/108
f 67/124/109 66/122/106 86/147/105 87/149/110
f 68/125/111 67/124/109 87/149/110 88/150/112
f 65/121/107 68/125/111 88/150/112 85/146/108
f 80/140/113 77/137/114 70/128/115 69/126/116
f 71/129/117 70/127/115 77/136/114 78/138/118
f 72/130/119 71/129/117 78/138/118 79/139/120
f 69/126/116 72/130/119 79/139/120 80/140/113
f 74/132/121 73/131/122 92/155/123 89/151/124
f 90/153/125 75/134/126 74/132/121 89/151/124
f 76/135/127 75/133/126 90/152/125 91/154/128
f 73/131/122 76/135/127 91/154/128 92/155/123
f 78/138/118 77/136/114 49/90/129 52/88/130
f 79/139/120 78/138/118 52/88/130 51/86/131
f 80/140/113 79/139/120 51/86/131 50/84/132
f 49/81/129 77/137/114 80/140/113 50/84/132
f 82/143/76 81/141/70 75/133/126 76/135/127
f 83/144/74 82/143/76 76/135/127 73/131/122
f 84/145/69 83/144/74 73/131/122 74/132/121
f 75/134/126 81/142/70 84/145/69 74/132/121
f 70/128/115 86/148/105 85/146/108 69/126/116
f 87/149/110 86/147/105 70/127/115 71/129/117
f 88/150/112 87/149/110 71/129/117 72/130/119
f 85/146/108 88/150/112 72/130/119 69/126/116
f 66/123/106 90/153/125 89/151/124 65/121/107
f 91/154/128 90/152/125 66/122/106 67/124/109
f 92/155/123 91/154/128 67/124/109 68/125/111
f 89/151/124 92/155/123 68/125/111 65/121/107
f 4/156/133 2/157/134 8/158/135 6/159/136
f 58/160/137 64/161/138 62/162/139 60/163/140
