# This file uses meters as units for non-parametric coordinates.

mtllib Wires_4_B_LOD1.mtl
g default
v -3.393936 -13.453430 3.519531
v 3.393921 -13.453430 3.519531
v -3.393936 14.517182 3.519531
v 3.393921 14.517182 3.519531
v -3.393936 14.517182 0.000000
v 3.393921 14.517182 0.000000
v -3.393936 -13.453430 0.000000
v 3.393921 -13.453430 0.000000
v 0.000000 -0.725281 3.519531
v 0.000000 -5.716339 3.519531
v 0.000000 -0.725281 396.480469
v 0.000000 -5.716339 396.480469
v 0.000000 -6.974854 3.519531
v 0.000000 -11.965912 3.519531
v 0.000000 -6.974854 396.480469
v 0.000000 -11.965912 396.480469
v 0.000000 11.965912 3.519531
v 0.000000 6.974854 3.519531
v 0.000000 11.965912 396.480469
v 0.000000 6.974854 396.480469
v 0.000000 5.716339 3.519531
v 0.000000 0.725281 3.519531
v 0.000000 5.716339 203.347153
v 0.000000 0.725281 203.347153
v 0.000000 5.716339 396.480469
v 0.000000 0.725281 396.480469
v -3.100693 -13.453430 400.000000
v 3.687195 -13.453430 400.000000
v -3.100693 14.517182 400.000000
v 3.687195 14.517182 400.000000
v -3.100693 14.517182 396.480469
v 3.687195 14.517182 396.480469
v -3.100693 -13.453430 396.480469
v 3.687195 -13.453430 396.480469
v -3.943497 -10.331238 101.673828
v -3.943497 -15.322296 101.673828
v -3.943497 -6.275757 165.891602
v -3.943497 -11.165741 166.890625
v -4.418076 -1.914459 49.940430
v -4.418076 2.743530 51.732910
v -4.418076 2.863831 185.245117
v -4.418076 -2.034760 186.201172
v 0.000000 5.716339 25.418457
v 0.000000 0.725281 25.417969
v -3.943497 -10.331238 134.886719
v -3.943497 -15.322296 134.886719
v -3.943497 -6.310791 71.574707
v -3.943497 -11.130722 70.279297
vt 0.712617 0.137323
vt 0.755568 0.137323
vt 0.755568 0.247348
vt 0.712617 0.247348
vt 0.772687 0.121746
vt 0.815637 0.121746
vt 0.815637 0.144015
vt 0.772686 0.144015
vt 0.832613 0.137364
vt 0.875563 0.137364
vt 0.875563 0.247389
vt 0.832613 0.247389
vt 0.809098 0.119598
vt 0.852048 0.119598
vt 0.852048 0.141868
vt 0.809098 0.141868
vt 0.766341 0.125442
vt 0.788610 0.125442
vt 0.788610 0.235467
vt 0.766341 0.235467
vt 0.002625 1.000000
vt 0.002618 -0.000208
vt 0.076139 -0.000208
vt 0.076146 1.000000
vt 0.002625 1.000000
vt 0.002618 -0.000208
vt 0.076139 -0.000208
vt 0.076146 1.000000
vt 0.002625 1.000000
vt 0.002618 -0.000208
vt 0.076139 -0.000208
vt 0.076146 1.000000
vt 0.002625 1.000000
vt 0.002618 -0.000208
vt 0.076139 -0.000208
vt 0.076146 1.000000
vt 0.002625 1.000000
vt 0.002618 -0.000208
vt 0.076139 -0.000208
vt 0.076146 1.000000
vt 0.714403 0.137361
vt 0.757353 0.137361
vt 0.757353 0.247386
vt 0.714403 0.247386
vt 0.774542 0.121746
vt 0.817492 0.121746
vt 0.817492 0.144015
vt 0.774542 0.144015
vt 0.834581 0.137376
vt 0.877532 0.137376
vt 0.877532 0.247400
vt 0.834581 0.247400
vt 0.810953 0.119598
vt 0.853904 0.119598
vt 0.853904 0.141868
vt 0.810953 0.141868
vt 0.766341 0.125442
vt 0.788611 0.125442
vt 0.788611 0.235467
vt 0.766341 0.235467
vt 0.002621 0.499896
vt 0.076142 0.499896
vt 0.002623 0.749948
vt 0.076144 0.749948
vt 0.076141 0.249844
vt 0.002620 0.249844
vt 0.002624 0.874974
vt 0.076145 0.874974
vt 0.002619 0.124818
vt 0.076140 0.124818
vt 0.002622 0.624922
vt 0.076143 0.624922
vt 0.002620 0.374870
vt 0.076142 0.374870
vt 0.763303 0.269264
vt 0.763303 0.101479
vt 0.784416 0.101479
vt 0.784416 0.269264
vt 0.774575 0.101477
vt 0.795687 0.101477
vt 0.795687 0.269265
vt 0.774575 0.269265
vn 0.000000 0.000000 1.000000
vn 0.000000 0.000000 1.000000
vn 0.000000 0.000000 1.000000
vn 0.000000 0.000000 1.000000
vn 0.000000 1.000000 0.000000
vn 0.000000 1.000000 0.000000
vn 0.000000 1.000000 0.000000
vn 0.000000 1.000000 0.000000
vn 0.000000 0.000000 -1.000000
vn 0.000000 0.000000 -1.000000
vn 0.000000 0.000000 -1.000000
vn 0.000000 0.000000 -1.000000
vn 0.000000 -1.000000 0.000000
vn 0.000000 -1.000000 0.000000
vn 0.000000 -1.000000 0.000000
vn 0.000000 -1.000000 0.000000
vn -1.000000 0.000000 0.000000
vn -1.000000 0.000000 0.000000
vn -1.000000 0.000000 0.000000
vn -1.000000 0.000000 0.000000
vn -1.000000 0.000000 0.000000
vn -1.000000 0.000000 0.000000
vn -1.000000 0.000000 0.000000
vn -1.000000 0.000000 0.000000
vn -1.000000 0.000000 0.000000
vn -1.000000 0.000000 0.000000
vn -1.000000 0.000000 0.000000
vn -1.000000 0.000000 0.000000
vn -1.000000 0.000000 0.000000
vn -1.000000 0.000000 0.000000
vn -1.000000 0.000000 0.000000
vn -1.000000 0.000000 0.000000
vn -0.995493 0.017326 -0.093239
vn -0.996035 0.016252 -0.087463
vn -1.000000 0.000000 0.000000
vn -1.000000 0.000000 0.000000
vn -1.000000 0.000000 0.000000
vn -1.000000 0.000000 0.000000
vn -1.000000 0.000000 0.000000
vn -1.000000 0.000000 0.000000
vn 0.000000 0.000000 1.000000
vn 0.000000 0.000000 1.000000
vn 0.000000 0.000000 1.000000
vn 0.000000 0.000000 1.000000
vn 0.000000 1.000000 0.000000
vn 0.000000 1.000000 0.000000
vn 0.000000 1.000000 0.000000
vn 0.000000 1.000000 0.000000
vn 0.000000 0.000000 -1.000000
vn 0.000000 0.000000 -1.000000
vn 0.000000 0.000000 -1.000000
vn 0.000000 0.000000 -1.000000
vn 0.000000 -1.000000 0.000000
vn 0.000000 -1.000000 0.000000
vn 0.000000 -1.000000 0.000000
vn 0.000000 -1.000000 0.000000
vn -1.000000 0.000000 0.000000
vn -1.000000 0.000000 0.000000
vn -1.000000 0.000000 0.000000
vn -1.000000 0.000000 0.000000
vn -1.000000 0.000000 0.000000
vn -1.000000 0.000000 0.000000
vn -1.000000 0.000000 0.000000
vn -1.000000 0.000000 0.000000
vn -0.993774 0.009578 0.111004
vn -0.999954 -0.001881 -0.009419
vn -0.999965 -0.001650 -0.008262
vn -0.995653 0.007661 0.092829
vn -0.999959 -0.002822 0.008662
vn -0.997130 0.012441 -0.074676
vn -0.996150 0.014799 -0.086404
vn -0.999961 -0.002750 0.008442
vn -0.970589 0.023165 0.239624
vn -0.970590 0.023165 0.239624
vn 1.000000 0.000000 0.000000
vn 1.000000 0.000000 0.000000
vn 1.000000 0.000000 0.000000
vn 1.000000 0.000000 0.000000
vn 1.000000 0.000000 0.000000
vn 1.000000 0.000000 0.000000
vn 1.000000 0.000000 0.000000
vn 1.000000 0.000000 0.000000
g Wires_4_B_LOD1 Wires_4_B
usemtl lambert17SG
f 1/1/1 2/2/2 4/3/3 3/4/4
f 3/5/5 4/6/6 6/7/7 5/8/8
f 5/9/9 6/10/10 8/11/11 7/12/12
f 7/13/13 8/14/14 2/15/15 1/16/16
f 7/17/17 1/18/18 3/19/19 5/20/20
f 12/24/21 11/21/22 9/22/23 10/23/24
f 16/28/25 15/25/26 13/26/27 14/27/28
f 20/32/29 19/29/30 17/30/31 18/31/32
f 44/70/33 43/69/34 21/34/35 22/35/36
f 26/40/37 25/37/38 23/38/39 24/39/40
f 27/41/41 28/42/42 30/43/43 29/44/44
f 29/45/45 30/46/46 32/47/47 31/48/48
f 31/49/49 32/50/50 34/51/51 33/52/52
f 33/53/53 34/54/54 28/55/55 27/56/56
f 33/57/57 27/58/58 29/59/59 31/60/60
f 45/71/61 35/61/62 36/62/63 46/72/64
f 41/67/65 37/63/66 38/64/67 42/68/68
f 47/73/69 40/66/70 39/65/71 48/74/72
f 24/36/73 23/33/74 41/67/65 42/68/68
f 39/65/71 40/66/70 43/69/34 44/70/33
f 38/64/67 37/63/66 45/71/61 46/72/64
f 36/62/63 35/61/62 47/73/69 48/74/72
f 4/75/75 2/76/76 8/77/77 6/78/78
f 28/79/79 34/80/80 32/81/81 30/82/82
