# This file uses meters as units for non-parametric coordinates.

mtllib Wires_1_A_LOD1.mtl
g default
v -3.393936 -4.522369 3.519531
v 3.393921 -4.522369 3.519531
v -3.393936 6.140320 3.519531
v 3.393921 6.140320 3.519531
v -3.393936 6.140320 0.000000
v 3.393921 6.140320 0.000000
v -3.393936 -4.522369 0.000000
v 3.393921 -4.522369 0.000000
v 0.000000 2.495529 3.519531
v 0.000000 -2.495514 3.519531
v 0.000000 2.495529 396.480469
v 0.000000 -2.495514 396.480469
v -3.100693 -4.522369 400.000000
v 3.687195 -4.522369 400.000000
v -3.100693 6.140320 400.000000
v 3.687195 6.140320 400.000000
v -3.100693 6.140320 396.480469
v 3.687195 6.140320 396.480469
v -3.100693 -4.522369 396.480469
v 3.687195 -4.522369 396.480469
vt 0.712617 0.137373
vt 0.755568 0.137373
vt 0.755568 0.247397
vt 0.712617 0.247397
vt 0.772688 0.121746
vt 0.815638 0.121746
vt 0.815638 0.144015
vt 0.772688 0.144015
vt 0.832979 0.137430
vt 0.875929 0.137430
vt 0.875929 0.247454
vt 0.832979 0.247454
vt 0.809098 0.119598
vt 0.852048 0.119598
vt 0.852048 0.141868
vt 0.809098 0.141868
vt 0.766342 0.125442
vt 0.788611 0.125442
vt 0.788611 0.235467
vt 0.766342 0.235467
vt 0.002625 1.000000
vt 0.002618 -0.000208
vt 0.076139 -0.000208
vt 0.076146 1.000000
vt 0.714455 0.137355
vt 0.757405 0.137355
vt 0.757405 0.247380
vt 0.714455 0.247380
vt 0.774542 0.121746
vt 0.817493 0.121746
vt 0.817493 0.144015
vt 0.774542 0.144015
vt 0.834599 0.137379
vt 0.877549 0.137379
vt 0.877549 0.247404
vt 0.834599 0.247404
vt 0.810953 0.119598
vt 0.853904 0.119598
vt 0.853904 0.141868
vt 0.810953 0.141868
vt 0.766341 0.125442
vt 0.788611 0.125442
vt 0.788611 0.235467
vt 0.766341 0.235467
vt 0.793132 0.217352
vt 0.772020 0.217352
vt 0.772020 0.153390
vt 0.793132 0.153390
vt 0.821642 0.153390
vt 0.821642 0.217352
vt 0.800530 0.217352
vt 0.800530 0.153390
vn 0.000000 0.000000 1.000000
vn 0.000000 0.000000 1.000000
vn 0.000000 0.000000 1.000000
vn 0.000000 0.000000 1.000000
vn 0.000000 1.000000 0.000000
vn 0.000000 1.000000 0.000000
vn 0.000000 1.000000 0.000000
vn 0.000000 1.000000 0.000000
vn 0.000000 0.000000 -1.000000
vn 0.000000 0.000000 -1.000000
vn 0.000000 0.000000 -1.000000
vn 0.000000 0.000000 -1.000000
vn 0.000000 -1.000000 0.000000
vn 0.000000 -1.000000 0.000000
vn 0.000000 -1.000000 0.000000
vn 0.000000 -1.000000 0.000000
vn -1.000000 0.000000 0.000000
vn -1.000000 0.000000 0.000000
vn -1.000000 0.000000 0.000000
vn -1.000000 0.000000 0.000000
vn -1.000000 0.000000 0.000000
vn -1.000000 0.000000 0.000000
vn -1.000000 0.000000 0.000000
vn -1.000000 0.000000 0.000000
vn 0.000000 0.000000 1.000000
vn 0.000000 0.000000 1.000000
vn 0.000000 0.000000 1.000000
vn 0.000000 0.000000 1.000000
vn 0.000000 1.000000 0.000000
vn 0.000000 1.000000 0.000000
vn 0.000000 1.000000 0.000000
vn 0.000000 1.000000 0.000000
vn 0.000000 0.000000 -1.000000
vn 0.000000 0.000000 -1.000000
vn 0.000000 0.000000 -1.000000
vn 0.000000 0.000000 -1.000000
vn 0.000000 -1.000000 0.000000
vn 0.000000 -1.000000 0.000000
vn 0.000000 -1.000000 0.000000
vn 0.000000 -1.000000 0.000000
vn -1.000000 0.000000 0.000000
vn -1.000000 0.000000 0.000000
vn -1.000000 0.000000 0.000000
vn -1.000000 0.000000 0.000000
vn 1.000000 0.000000 0.000000
vn 1.000000 0.000000 0.000000
vn 1.000000 0.000000 0.000000
vn 1.000000 0.000000 0.000000
vn 1.000000 0.000000 0.000000
vn 1.000000 0.000000 0.000000
vn 1.000000 0.000000 0.000000
vn 1.000000 0.000000 0.000000
g Wires_1_A_LOD1 Wires_1_A
usemtl lambert17SG
f 1/1/1 2/2/2 4/3/3 3/4/4
f 3/5/5 4/6/6 6/7/7 5/8/8
f 5/9/9 6/10/10 8/11/11 7/12/12
f 7/13/13 8/14/14 2/15/15 1/16/16
f 7/17/17 1/18/18 3/19/19 5/20/20
f 12/24/21 11/21/22 9/22/23 10/23/24
f 13/25/25 14/26/26 16/27/27 15/28/28
f 15/29/29 16/30/30 18/31/31 17/32/32
f 17/33/33 18/34/34 20/35/35 19/36/36
f 19/37/37 20/38/38 14/39/39 13/40/40
f 19/41/41 13/42/42 15/43/43 17/44/44
f 18/45/45 16/46/46 14/47/47 20/48/48
f 8/49/49 6/50/50 4/51/51 2/52/52
