# This file uses meters as units for non-parametric coordinates.

mtllib Wires_4_90_LOD1.mtl
g default
v 0.000000 -0.931305 0.000000
v 0.000000 -5.542786 0.000000
v 0.000000 71.480469 76.470825
v 0.000000 71.480469 81.082275
v 0.000000 -0.931305 50.596188
v 0.000000 -5.542786 50.596188
v 0.000000 19.144592 76.470825
v 0.000000 19.144592 81.082275
v 0.000000 8.942474 72.085938
v 0.000000 5.681671 75.346802
v 0.000000 1.897644 62.310673
v 0.000000 -2.121368 64.572021
v 0.000000 5.620300 0.000000
v 0.000000 1.008820 0.000000
v 0.000000 71.480469 70.595093
v 0.000000 71.480469 75.206543
v 0.000000 5.620300 50.596188
v 0.000000 1.008820 50.596188
v 0.000000 22.453491 70.595093
v 0.000000 22.453491 75.206543
v 0.000000 14.763580 67.144531
v 0.000000 11.502777 70.405273
v 0.000000 7.612823 59.167843
v 0.000000 3.805634 61.769897
v -3.100693 -13.453430 3.519531
v 3.687195 -13.453430 3.519531
v -3.100693 14.517182 3.519531
v 3.687195 14.517182 3.519531
v -3.100693 14.517182 0.000000
v 3.687195 14.517182 0.000000
v -3.100693 -13.453430 0.000000
v 3.687195 -13.453430 0.000000
v 0.000000 -7.353027 0.000000
v 0.000000 -11.964478 0.000000
v 0.000000 71.480469 81.827271
v 0.000000 71.480469 86.438721
v 0.000000 -7.353027 52.934326
v 0.000000 -11.964478 52.934326
v 0.000000 17.018188 81.827271
v 0.000000 17.018188 86.438721
v 0.000000 4.287018 76.902832
v 0.000000 1.026215 80.163696
v 0.000000 -4.581116 66.324951
v 0.000000 -8.600128 68.586182
v 0.000000 11.814087 0.000000
v 0.000000 7.202575 0.000000
v 0.000000 71.480469 64.441650
v 0.000000 71.480469 69.053101
v 0.000000 11.814087 44.442749
v 0.000000 7.202575 44.442749
v 0.000000 28.647247 64.441650
v 0.000000 28.647247 69.053101
v 0.000000 20.055786 61.902100
v 0.000000 16.794983 65.162964
v 0.000000 13.062775 53.762211
v 0.000000 9.255585 56.364380
v -3.100693 75.000000 88.453369
v 3.687195 75.000000 88.453369
v -3.100693 75.000000 62.284180
v 3.687195 75.000000 62.284180
v -3.100693 71.480469 62.284180
v 3.687195 71.480469 62.284180
v -3.100693 71.480469 88.453369
v 3.687195 71.480469 88.453369
vt 0.002625 1.000000
vt 0.002618 -0.000208
vt 0.076146 1.000000
vt 0.076139 -0.000208
vt 0.002621 0.499896
vt 0.076142 0.499896
vt 0.002623 0.749948
vt 0.076144 0.749948
vt 0.002622 0.624922
vt 0.076143 0.624922
vt 0.002622 0.562409
vt 0.076143 0.562409
vt 0.002621 0.499896
vt 0.002618 -0.000208
vt 0.076139 -0.000208
vt 0.076142 0.499896
vt 0.076143 0.562409
vt 0.002622 0.562409
vt 0.076146 1.000000
vt 0.076144 0.749948
vt 0.002625 1.000000
vt 0.002623 0.749948
vt 0.076143 0.624922
vt 0.002622 0.624922
vt 0.714428 0.137380
vt 0.757379 0.137380
vt 0.757379 0.247405
vt 0.714428 0.247405
vt 0.774542 0.121746
vt 0.817493 0.121746
vt 0.817493 0.144015
vt 0.774542 0.144015
vt 0.834622 0.137373
vt 0.877572 0.137373
vt 0.877572 0.247397
vt 0.834622 0.247397
vt 0.810953 0.119598
vt 0.853903 0.119598
vt 0.853903 0.141868
vt 0.810953 0.141868
vt 0.766341 0.125442
vt 0.788611 0.125442
vt 0.788611 0.235467
vt 0.766341 0.235467
vt 0.002621 0.499896
vt 0.002618 -0.000208
vt 0.076139 -0.000208
vt 0.076142 0.499896
vt 0.076143 0.562409
vt 0.002622 0.562409
vt 0.076146 1.000000
vt 0.076144 0.749948
vt 0.002625 1.000000
vt 0.002623 0.749948
vt 0.076143 0.624922
vt 0.002622 0.624922
vt 0.002621 0.499896
vt 0.002618 -0.000208
vt 0.076139 -0.000208
vt 0.076142 0.499896
vt 0.076143 0.562409
vt 0.002622 0.562409
vt 0.076146 1.000000
vt 0.076144 0.749948
vt 0.002625 1.000000
vt 0.002623 0.749948
vt 0.076143 0.624922
vt 0.002622 0.624922
vt 0.714418 0.137375
vt 0.757368 0.137375
vt 0.757369 0.247399
vt 0.714418 0.247399
vt 0.774547 0.121748
vt 0.817498 0.121748
vt 0.817498 0.144018
vt 0.774547 0.144018
vt 0.834623 0.137375
vt 0.877573 0.137375
vt 0.877573 0.247399
vt 0.834623 0.247399
vt 0.810954 0.119600
vt 0.853905 0.119600
vt 0.853905 0.141869
vt 0.810954 0.141869
vt 0.766341 0.125442
vt 0.788611 0.125442
vt 0.788611 0.235467
vt 0.766341 0.235467
vt 0.774552 0.104155
vt 0.795664 0.104155
vt 0.795664 0.261134
vt 0.774552 0.261134
vt 0.763303 0.101478
vt 0.784415 0.101478
vt 0.784415 0.269264
vt 0.763303 0.269264
vn -1.000000 0.000000 0.000000
vn -1.000000 0.000000 0.000000
vn -1.000000 0.000000 0.000000
vn -1.000000 0.000000 0.000000
vn -1.000000 0.000000 0.000000
vn -1.000000 0.000000 0.000000
vn -1.000000 0.000000 0.000000
vn -1.000000 0.000000 0.000000
vn -1.000000 0.000000 0.000000
vn -1.000000 0.000000 0.000000
vn -1.000000 0.000000 0.000000
vn -1.000000 0.000000 0.000000
vn -1.000000 0.000000 0.000000
vn -1.000000 0.000000 0.000000
vn -1.000000 0.000000 0.000000
vn -1.000000 0.000000 0.000000
vn -1.000000 0.000000 0.000000
vn -1.000000 0.000000 0.000000
vn -1.000000 0.000000 0.000000
vn -1.000000 0.000000 0.000000
vn -1.000000 0.000000 0.000000
vn -1.000000 0.000000 0.000000
vn -1.000000 0.000000 0.000000
vn -1.000000 0.000000 0.000000
vn 0.000000 0.000000 1.000000
vn 0.000000 0.000000 1.000000
vn 0.000000 0.000000 1.000000
vn 0.000000 0.000000 1.000000
vn 0.000000 1.000000 0.000000
vn 0.000000 1.000000 0.000000
vn 0.000000 1.000000 0.000000
vn 0.000000 1.000000 0.000000
vn 0.000000 0.000000 -1.000000
vn 0.000000 0.000000 -1.000000
vn 0.000000 0.000000 -1.000000
vn 0.000000 0.000000 -1.000000
vn 0.000000 -1.000000 0.000000
vn 0.000000 -1.000000 0.000000
vn 0.000000 -1.000000 0.000000
vn 0.000000 -1.000000 0.000000
vn -1.000000 0.000000 0.000000
vn -1.000000 0.000000 0.000000
vn -1.000000 0.000000 0.000000
vn -1.000000 0.000000 0.000000
vn -1.000000 0.000000 0.000000
vn -1.000000 0.000000 0.000000
vn -1.000000 0.000000 0.000000
vn -1.000000 0.000000 0.000000
vn -1.000000 0.000000 0.000000
vn -1.000000 0.000000 0.000000
vn -1.000000 0.000000 0.000000
vn -1.000000 0.000000 0.000000
vn -1.000000 0.000000 0.000000
vn -1.000000 0.000000 0.000000
vn -1.000000 0.000000 0.000000
vn -1.000000 0.000000 0.000000
vn -1.000000 0.000000 0.000000
vn -1.000000 0.000000 0.000000
vn -1.000000 0.000000 0.000000
vn -1.000000 0.000000 0.000000
vn -1.000000 0.000000 0.000000
vn -1.000000 0.000000 0.000000
vn -1.000000 0.000000 0.000000
vn -1.000000 0.000000 0.000000
vn -1.000000 0.000000 0.000000
vn -1.000000 0.000000 0.000000
vn -1.000000 0.000000 0.000000
vn -1.000000 0.000000 0.000000
vn 0.000000 1.000000 0.000000
vn 0.000000 1.000000 0.000000
vn 0.000000 1.000000 0.000000
vn 0.000000 1.000000 0.000000
vn 0.000000 0.000000 -1.000000
vn 0.000000 0.000000 -1.000000
vn 0.000000 0.000000 -1.000000
vn 0.000000 0.000000 -1.000000
vn 0.000000 -1.000000 0.000000
vn 0.000000 -1.000000 0.000000
vn 0.000000 -1.000000 0.000000
vn 0.000000 -1.000000 0.000000
vn 0.000000 0.000000 1.000000
vn 0.000000 0.000000 1.000000
vn 0.000000 0.000000 1.000000
vn 0.000000 0.000000 1.000000
vn -1.000000 0.000000 0.000000
vn -1.000000 0.000000 0.000000
vn -1.000000 0.000000 0.000000
vn -1.000000 0.000000 0.000000
vn 1.000000 0.000000 0.000000
vn 1.000000 0.000000 0.000000
vn 1.000000 0.000000 0.000000
vn 1.000000 0.000000 0.000000
vn 1.000000 0.000000 0.000000
vn 1.000000 0.000000 0.000000
vn 1.000000 0.000000 0.000000
vn 1.000000 0.000000 0.000000
g Wires_4_90_LOD1 Wires_4_90
usemtl lambert17SG
f 6/6/1 5/5/2 1/2/3 2/4/4
f 12/12/5 11/11/6 5/5/2 6/6/1
f 4/3/7 3/1/8 7/7/9 8/8/10
f 8/8/10 7/7/9 9/9/11 10/10/12
f 10/10/12 9/9/11 11/11/6 12/12/5
f 18/16/13 17/13/14 13/14/15 14/15/16
f 24/17/17 23/18/18 17/13/14 18/16/13
f 16/19/19 15/21/20 19/22/21 20/20/22
f 20/20/22 19/22/21 21/24/23 22/23/24
f 22/23/24 21/24/23 23/18/18 24/17/17
f 25/25/25 26/26/26 28/27/27 27/28/28
f 27/29/29 28/30/30 30/31/31 29/32/32
f 29/33/33 30/34/34 32/35/35 31/36/36
f 31/37/37 32/38/38 26/39/39 25/40/40
f 31/41/41 25/42/42 27/43/43 29/44/44
f 38/48/45 37/45/46 33/46/47 34/47/48
f 44/49/49 43/50/50 37/45/46 38/48/45
f 36/51/51 35/53/52 39/54/53 40/52/54
f 40/52/54 39/54/53 41/56/55 42/55/56
f 42/55/56 41/56/55 43/50/50 44/49/49
f 50/60/57 49/57/58 45/58/59 46/59/60
f 56/61/61 55/62/62 49/57/58 50/60/57
f 48/63/63 47/65/64 51/66/65 52/64/66
f 52/64/66 51/66/65 53/68/67 54/67/68
f 54/67/68 53/68/67 55/62/62 56/61/61
f 57/69/69 58/70/70 60/71/71 59/72/72
f 59/73/73 60/74/74 62/75/75 61/76/76
f 61/77/77 62/78/78 64/79/79 63/80/80
f 63/81/81 64/82/82 58/83/83 57/84/84
f 63/85/85 57/86/86 59/87/87 61/88/88
f 62/89/89 60/90/90 58/91/91 64/92/92
f 26/93/93 32/94/94 30/95/95 28/96/96
