# This file uses meters as units for non-parametric coordinates.

mtllib Wires_2_90_LOD0.mtl
g default
v 0.000000 -0.931305 3.519653
v -2.305710 -3.237045 3.519653
v 0.000000 -5.542786 3.519653
v 2.305725 -3.237045 3.519653
v 0.000000 71.480530 75.628174
v -2.305710 71.480530 77.933838
v 0.000000 71.480530 80.239624
v 2.305725 71.480530 77.933838
v 0.000000 -0.931305 49.753662
v 2.305725 -3.237045 49.753662
v 0.000000 -5.542786 49.753662
v -2.305710 -3.237045 49.753662
v 0.000000 19.144592 75.628174
v 2.305725 19.144611 77.933960
v 0.000000 19.144592 80.239746
v -2.305710 19.144592 77.933960
v 0.000000 8.942476 71.243530
v 2.305725 7.312073 72.873779
v 0.000000 5.681671 74.504272
v -2.305710 7.312073 72.873779
v 0.000000 1.897633 61.467896
v 2.305725 -0.111877 62.598511
v 0.000000 -2.121375 63.729370
v -2.305710 -0.111877 62.598511
v 0.000000 5.620300 3.519653
v -2.305710 3.314560 3.519653
v 0.000000 1.008820 3.519653
v 2.305725 3.314560 3.519653
v 0.000000 71.480530 69.752441
v -2.305710 71.480530 72.058350
v 0.000000 71.480530 74.364014
v 2.305725 71.480530 72.058105
v 0.000000 5.620300 49.753662
v 2.305725 3.314560 49.753662
v 0.000000 1.008820 49.753662
v -2.305710 3.314560 49.753662
v 0.000000 22.453476 69.752686
v 2.305725 22.453491 72.058228
v 0.000000 22.453476 74.363892
v -2.305710 22.453476 72.058228
v 0.000000 14.763580 66.302002
v 2.305725 13.133179 67.932251
v 0.000000 11.502777 69.562744
v -2.305710 13.133179 67.932251
v 0.000000 7.612837 58.325195
v 2.305725 5.709229 59.626099
v 0.000000 3.805639 60.927368
v -2.305710 5.709229 59.626099
v -3.100693 -8.694130 3.519653
v 3.687195 -8.694130 3.519653
v -3.100693 8.694130 3.519653
v 3.687195 8.694130 3.519653
v -3.100693 8.694130 0.000000
v 3.687195 8.694130 0.000000
v -3.100693 -8.694130 0.000000
v 3.687195 -8.694130 0.000000
v -3.100693 75.000000 83.694092
v 3.687195 75.000000 83.694092
v -3.100693 75.000000 66.305908
v 3.687195 75.000000 66.305908
v -3.100693 71.480530 66.305908
v 3.687195 71.480530 66.305908
v -3.100693 71.480530 83.694092
v 3.687195 71.480530 83.694092
vt 0.039386 1.000000
vt 0.002625 1.000000
vt 0.002618 -0.000208
vt 0.039378 -0.000208
vt 0.076146 1.000000
vt 0.076139 -0.000208
vt 0.112906 1.000000
vt 0.112899 -0.000208
vt 0.149666 1.000000
vt 0.149660 -0.000209
vt 0.149663 0.499896
vt 0.002621 0.499896
vt 0.112903 0.499896
vt 0.076142 0.499896
vt 0.039382 0.499896
vt 0.149665 0.749948
vt 0.002623 0.749948
vt 0.112904 0.749948
vt 0.076144 0.749948
vt 0.039384 0.749948
vt 0.149664 0.624922
vt 0.002622 0.624922
vt 0.112903 0.624922
vt 0.076143 0.624922
vt 0.039383 0.624922
vt 0.149663 0.562409
vt 0.002622 0.562409
vt 0.112903 0.562409
vt 0.076143 0.562409
vt 0.039382 0.562409
vt 0.002621 0.499896
vt 0.002618 -0.000208
vt 0.039378 -0.000208
vt 0.039382 0.499896
vt 0.076139 -0.000208
vt 0.076142 0.499896
vt 0.112899 -0.000208
vt 0.112903 0.499896
vt 0.149660 -0.000209
vt 0.149663 0.499896
vt 0.149663 0.562409
vt 0.112903 0.562409
vt 0.076143 0.562409
vt 0.039382 0.562409
vt 0.002622 0.562409
vt 0.149666 1.000000
vt 0.112906 1.000000
vt 0.112904 0.749948
vt 0.149665 0.749948
vt 0.076146 1.000000
vt 0.076144 0.749948
vt 0.039386 1.000000
vt 0.039384 0.749948
vt 0.002625 1.000000
vt 0.002623 0.749948
vt 0.112903 0.624922
vt 0.149664 0.624922
vt 0.076143 0.624922
vt 0.039383 0.624922
vt 0.002622 0.624922
vt 0.714427 0.137378
vt 0.757377 0.137378
vt 0.757377 0.247402
vt 0.714427 0.247402
vt 0.774543 0.121746
vt 0.817493 0.121746
vt 0.817493 0.144015
vt 0.774543 0.144015
vt 0.834620 0.137378
vt 0.877570 0.137378
vt 0.877570 0.247402
vt 0.834620 0.247402
vt 0.810953 0.119598
vt 0.853904 0.119598
vt 0.853904 0.141868
vt 0.810953 0.141868
vt 0.766341 0.125442
vt 0.788611 0.125442
vt 0.788611 0.235467
vt 0.766341 0.235467
vt 0.714417 0.137375
vt 0.757367 0.137375
vt 0.757367 0.247399
vt 0.714417 0.247399
vt 0.774558 0.121746
vt 0.817509 0.121746
vt 0.817509 0.144016
vt 0.774558 0.144016
vt 0.834622 0.137375
vt 0.877572 0.137375
vt 0.877572 0.247399
vt 0.834622 0.247399
vt 0.810939 0.119599
vt 0.853889 0.119599
vt 0.853889 0.141868
vt 0.810939 0.141868
vt 0.766341 0.125442
vt 0.788611 0.125442
vt 0.788611 0.235467
vt 0.766341 0.235467
vt 0.766571 0.133218
vt 0.787683 0.133218
vt 0.787683 0.237524
vt 0.766571 0.237524
vt 0.784300 0.133218
vt 0.805412 0.133218
vt 0.805412 0.237523
vt 0.784300 0.237523
vn 0.000000 0.998488 -0.054970
vn 0.000000 1.000000 0.000000
vn -1.000000 -0.000000 0.000000
vn -0.999429 -0.032797 0.008158
vn 0.000000 -1.000000 0.000000
vn 0.000000 -0.998743 0.050128
vn 1.000000 0.000000 0.000000
vn 0.999429 -0.032797 0.008158
vn -0.000000 0.911961 -0.410277
vn 0.992595 -0.113659 0.042871
vn 0.000000 -0.907106 0.420902
vn -0.992595 -0.113658 0.042871
vn 0.000000 -0.000001 -1.000000
vn 1.000000 0.000001 -0.000001
vn 0.998774 -0.019322 0.045580
vn -0.000001 0.084988 -0.996382
vn -0.000000 0.000002 1.000000
vn -0.000001 -0.070496 0.997512
vn -1.000000 0.000001 -0.000001
vn -0.998774 -0.019322 0.045580
vn 0.985998 -0.087458 0.141983
vn -0.000001 0.619165 -0.785261
vn 0.000001 -0.630092 0.776520
vn -0.985998 -0.087457 0.141982
vn -0.000000 0.999082 -0.042836
vn 0.000000 1.000000 0.000000
vn -1.000000 0.000000 0.000000
vn -0.999505 -0.030402 0.008147
vn 0.000000 -1.000000 0.000000
vn 0.000000 -0.999138 0.041521
vn 1.000000 0.000000 0.000000
vn 0.999505 -0.030402 0.008147
vn -0.000000 0.883402 -0.468617
vn 0.989086 -0.136791 0.054752
vn 0.000000 -0.875206 0.483751
vn -0.989086 -0.136791 0.054752
vn -0.000027 -0.000002 -1.000000
vn 1.000000 -0.000002 -0.000001
vn 0.998888 -0.018757 0.043263
vn -0.000023 0.075835 -0.997120
vn 0.000026 -0.000001 1.000000
vn 0.000022 -0.063489 0.997983
vn -1.000000 -0.000002 0.000001
vn -0.998888 -0.018757 0.043261
vn 0.989549 -0.066572 0.127912
vn -0.000001 0.591997 -0.805940
vn 0.000001 -0.603525 0.797344
vn -0.989549 -0.066572 0.127912
vn 0.000000 0.000000 1.000000
vn 0.000000 0.000000 1.000000
vn 0.000000 0.000000 1.000000
vn 0.000000 0.000000 1.000000
vn 0.000000 1.000000 0.000000
vn 0.000000 1.000000 0.000000
vn 0.000000 1.000000 0.000000
vn 0.000000 1.000000 0.000000
vn 0.000000 0.000000 -1.000000
vn 0.000000 0.000000 -1.000000
vn 0.000000 0.000000 -1.000000
vn 0.000000 0.000000 -1.000000
vn 0.000000 -1.000000 0.000000
vn 0.000000 -1.000000 0.000000
vn 0.000000 -1.000000 0.000000
vn 0.000000 -1.000000 0.000000
vn -1.000000 0.000000 0.000000
vn -1.000000 0.000000 0.000000
vn -1.000000 0.000000 0.000000
vn -1.000000 0.000000 0.000000
vn 0.000000 1.000000 0.000000
vn 0.000000 1.000000 0.000000
vn 0.000000 1.000000 0.000000
vn 0.000000 1.000000 0.000000
vn 0.000000 0.000000 -1.000000
vn 0.000000 0.000000 -1.000000
vn 0.000000 0.000000 -1.000000
vn 0.000000 0.000000 -1.000000
vn 0.000000 -1.000000 0.000000
vn 0.000000 -1.000000 0.000000
vn 0.000000 -1.000000 0.000000
vn 0.000000 -1.000000 0.000000
vn 0.000000 0.000000 1.000000
vn 0.000000 0.000000 1.000000
vn 0.000000 0.000000 1.000000
vn 0.000000 0.000000 1.000000
vn -1.000000 0.000000 0.000000
vn -1.000000 0.000000 0.000000
vn -1.000000 0.000000 0.000000
vn -1.000000 0.000000 0.000000
vn 1.000000 0.000000 0.000000
vn 1.000000 0.000000 0.000000
vn 1.000000 0.000000 0.000000
vn 1.000000 0.000000 0.000000
vn 1.000000 0.000000 0.000000
vn 1.000000 0.000000 0.000000
vn 1.000000 0.000000 0.000000
vn 1.000000 0.000000 0.000000
g Wires_2_90_LOD0 Wires_2_90
usemtl lambert17SG
f 9/12/1 1/3/2 2/4/3 12/15/4
f 2/4/3 3/6/5 11/14/6 12/15/4
f 3/6/5 4/8/7 10/13/8 11/14/6
f 4/8/7 1/10/2 9/11/1 10/13/8
f 21/26/9 22/28/10 10/13/8 9/11/1
f 22/28/10 23/29/11 11/14/6 10/13/8
f 23/29/11 24/30/12 12/15/4 11/14/6
f 24/30/12 21/27/9 9/12/1 12/15/4
f 5/9/13 8/7/14 14/18/15 13/16/16
f 8/7/14 7/5/17 15/19/18 14/18/15
f 7/5/17 6/1/19 16/20/20 15/19/18
f 6/1/19 5/2/13 13/17/16 16/20/20
f 13/16/16 14/18/15 18/23/21 17/21/22
f 14/18/15 15/19/18 19/24/23 18/23/21
f 15/19/18 16/20/20 20/25/24 19/24/23
f 16/20/20 13/17/16 17/22/22 20/25/24
f 17/21/22 18/23/21 22/28/10 21/26/9
f 18/23/21 19/24/23 23/29/11 22/28/10
f 19/24/23 20/25/24 24/30/12 23/29/11
f 20/25/24 17/22/22 21/27/9 24/30/12
f 33/31/25 25/32/26 26/33/27 36/34/28
f 26/33/27 27/35/29 35/36/30 36/34/28
f 27/35/29 28/37/31 34/38/32 35/36/30
f 28/37/31 25/39/26 33/40/25 34/38/32
f 45/41/33 46/42/34 34/38/32 33/40/25
f 46/42/34 47/43/35 35/36/30 34/38/32
f 47/43/35 48/44/36 36/34/28 35/36/30
f 48/44/36 45/45/33 33/31/25 36/34/28
f 29/46/37 32/47/38 38/48/39 37/49/40
f 32/47/38 31/50/41 39/51/42 38/48/39
f 31/50/41 30/52/43 40/53/44 39/51/42
f 30/52/43 29/54/37 37/55/40 40/53/44
f 37/49/40 38/48/39 42/56/45 41/57/46
f 38/48/39 39/51/42 43/58/47 42/56/45
f 39/51/42 40/53/44 44/59/48 43/58/47
f 40/53/44 37/55/40 41/60/46 44/59/48
f 41/57/46 42/56/45 46/42/34 45/41/33
f 42/56/45 43/58/47 47/43/35 46/42/34
f 43/58/47 44/59/48 48/44/36 47/43/35
f 44/59/48 41/60/46 45/45/33 48/44/36
f 49/61/49 50/62/50 52/63/51 51/64/52
f 51/65/53 52/66/54 54/67/55 53/68/56
f 53/69/57 54/70/58 56/71/59 55/72/60
f 55/73/61 56/74/62 50/75/63 49/76/64
f 55/77/65 49/78/66 51/79/67 53/80/68
f 57/81/69 58/82/70 60/83/71 59/84/72
f 59/85/73 60/86/74 62/87/75 61/88/76
f 61/89/77 62/90/78 64/91/79 63/92/80
f 63/93/81 64/94/82 58/95/83 57/96/84
f 63/97/85 57/98/86 59/99/87 61/100/88
f 50/101/89 56/102/90 54/103/91 52/104/92
f 62/105/93 60/106/94 58/107/95 64/108/96
