# This file uses meters as units for non-parametric coordinates.

mtllib Wires_4_A_LOD1.mtl
g default
v -3.393936 -13.453430 3.519531
v 3.393921 -13.453430 3.519531
v -3.393936 14.517182 3.519531
v 3.393921 14.517182 3.519531
v -3.393936 14.517182 0.000000
v 3.393921 14.517182 0.000000
v -3.393936 -13.453430 0.000000
v 3.393921 -13.453430 0.000000
v 0.000000 -0.725281 3.519531
v 0.000000 -5.716339 3.519531
v 0.000000 -0.725281 396.480469
v 0.000000 -5.716339 396.480469
v 0.000000 -6.974854 3.519531
v 0.000000 -11.965912 3.519531
v 0.000000 -6.974854 396.480469
v 0.000000 -11.965912 396.480469
v 0.000000 11.965912 3.519531
v 0.000000 6.974854 3.519531
v 0.000000 11.965912 396.480469
v 0.000000 6.974854 396.480469
v 0.000000 5.716339 3.519531
v 0.000000 0.725281 3.519531
v 0.000000 5.716339 396.480469
v 0.000000 0.725281 396.480469
v -3.100693 -13.453430 400.000000
v 3.687195 -13.453430 400.000000
v -3.100693 14.517182 400.000000
v 3.687195 14.517182 400.000000
v -3.100693 14.517182 396.480469
v 3.687195 14.517182 396.480469
v -3.100693 -13.453430 396.480469
v 3.687195 -13.453430 396.480469
vt 0.712617 0.137323
vt 0.755568 0.137323
vt 0.755568 0.247348
vt 0.712617 0.247348
vt 0.772687 0.121746
vt 0.815637 0.121746
vt 0.815637 0.144015
vt 0.772686 0.144015
vt 0.832613 0.137364
vt 0.875563 0.137364
vt 0.875563 0.247389
vt 0.832613 0.247389
vt 0.809098 0.119598
vt 0.852048 0.119598
vt 0.852048 0.141868
vt 0.809098 0.141868
vt 0.766341 0.125442
vt 0.788610 0.125442
vt 0.788610 0.235467
vt 0.766341 0.235467
vt 0.002625 1.000000
vt 0.002618 -0.000208
vt 0.076139 -0.000208
vt 0.076146 1.000000
vt 0.002625 1.000000
vt 0.002618 -0.000208
vt 0.076139 -0.000208
vt 0.076146 1.000000
vt 0.002625 1.000000
vt 0.002618 -0.000208
vt 0.076139 -0.000208
vt 0.076146 1.000000
vt 0.002625 1.000000
vt 0.002618 -0.000208
vt 0.076139 -0.000208
vt 0.076146 1.000000
vt 0.714403 0.137361
vt 0.757353 0.137361
vt 0.757353 0.247386
vt 0.714403 0.247386
vt 0.774542 0.121746
vt 0.817492 0.121746
vt 0.817492 0.144015
vt 0.774542 0.144015
vt 0.834581 0.137376
vt 0.877532 0.137376
vt 0.877532 0.247400
vt 0.834581 0.247400
vt 0.810953 0.119598
vt 0.853904 0.119598
vt 0.853904 0.141868
vt 0.810953 0.141868
vt 0.766341 0.125442
vt 0.788611 0.125442
vt 0.788611 0.235467
vt 0.766341 0.235467
vt 0.784415 0.101478
vt 0.784415 0.269264
vt 0.763303 0.269264
vt 0.763303 0.101478
vt 0.795688 0.101478
vt 0.795688 0.269264
vt 0.774575 0.269264
vt 0.774575 0.101478
vn 0.000000 0.000000 1.000000
vn 0.000000 0.000000 1.000000
vn 0.000000 0.000000 1.000000
vn 0.000000 0.000000 1.000000
vn 0.000000 1.000000 0.000000
vn 0.000000 1.000000 0.000000
vn 0.000000 1.000000 0.000000
vn 0.000000 1.000000 0.000000
vn 0.000000 0.000000 -1.000000
vn 0.000000 0.000000 -1.000000
vn 0.000000 0.000000 -1.000000
vn 0.000000 0.000000 -1.000000
vn 0.000000 -1.000000 0.000000
vn 0.000000 -1.000000 0.000000
vn 0.000000 -1.000000 0.000000
vn 0.000000 -1.000000 0.000000
vn -1.000000 0.000000 0.000000
vn -1.000000 0.000000 0.000000
vn -1.000000 0.000000 0.000000
vn -1.000000 0.000000 0.000000
vn -1.000000 0.000000 0.000000
vn -1.000000 0.000000 0.000000
vn -1.000000 0.000000 0.000000
vn -1.000000 0.000000 0.000000
vn -1.000000 0.000000 0.000000
vn -1.000000 0.000000 0.000000
vn -1.000000 0.000000 0.000000
vn -1.000000 0.000000 0.000000
vn -1.000000 0.000000 0.000000
vn -1.000000 0.000000 0.000000
vn -1.000000 0.000000 0.000000
vn -1.000000 0.000000 0.000000
vn -1.000000 0.000000 0.000000
vn -1.000000 0.000000 0.000000
vn -1.000000 0.000000 0.000000
vn -1.000000 0.000000 0.000000
vn 0.000000 0.000000 1.000000
vn 0.000000 0.000000 1.000000
vn 0.000000 0.000000 1.000000
vn 0.000000 0.000000 1.000000
vn 0.000000 1.000000 0.000000
vn 0.000000 1.000000 0.000000
vn 0.000000 1.000000 0.000000
vn 0.000000 1.000000 0.000000
vn 0.000000 0.000000 -1.000000
vn 0.000000 0.000000 -1.000000
vn 0.000000 0.000000 -1.000000
vn 0.000000 0.000000 -1.000000
vn 0.000000 -1.000000 0.000000
vn 0.000000 -1.000000 0.000000
vn 0.000000 -1.000000 0.000000
vn 0.000000 -1.000000 0.000000
vn -1.000000 0.000000 0.000000
vn -1.000000 0.000000 0.000000
vn -1.000000 0.000000 0.000000
vn -1.000000 0.000000 0.000000
vn 1.000000 0.000000 0.000000
vn 1.000000 0.000000 0.000000
vn 1.000000 0.000000 0.000000
vn 1.000000 0.000000 0.000000
vn 1.000000 0.000000 0.000000
vn 1.000000 0.000000 0.000000
vn 1.000000 0.000000 0.000000
vn 1.000000 0.000000 0.000000
g Wires_4_A_LOD1 Wires_4_A
usemtl lambert17SG
f 1/1/1 2/2/2 4/3/3 3/4/4
f 3/5/5 4/6/6 6/7/7 5/8/8
f 5/9/9 6/10/10 8/11/11 7/12/12
f 7/13/13 8/14/14 2/15/15 1/16/16
f 7/17/17 1/18/18 3/19/19 5/20/20
f 12/24/21 11/21/22 9/22/23 10/23/24
f 16/28/25 15/25/26 13/26/27 14/27/28
f 20/32/29 19/29/30 17/30/31 18/31/32
f 24/36/33 23/33/34 21/34/35 22/35/36
f 25/37/37 26/38/38 28/39/39 27/40/40
f 27/41/41 28/42/42 30/43/43 29/44/44
f 29/45/45 30/46/46 32/47/47 31/48/48
f 31/49/49 32/50/50 26/51/51 25/52/52
f 31/53/53 25/54/54 27/55/55 29/56/56
f 32/57/57 30/58/58 28/59/59 26/60/60
f 8/61/61 6/62/62 4/63/63 2/64/64
