# This file uses meters as units for non-parametric coordinates.

mtllib Wires_4_90_LOD0.mtl
g default
v 0.000000 -0.931305 0.000000
v -2.305710 -3.237061 0.000000
v 0.000000 -5.542786 0.000000
v 2.305725 -3.237061 0.000000
v 0.000000 71.480469 76.470947
v -2.305710 71.480469 78.776489
v 0.000000 71.480469 81.082275
v 2.305725 71.480469 78.776489
v 0.000000 -0.931305 50.596313
v 2.305725 -3.237061 50.596313
v 0.000000 -5.542786 50.596313
v -2.305710 -3.237061 50.596313
v 0.000000 19.144592 76.470947
v 2.305725 19.144592 78.776611
v 0.000000 19.144592 81.082275
v -2.305710 19.144592 78.776611
v 0.000000 8.942474 72.085938
v 2.305725 7.312073 73.716553
v 0.000000 5.681671 75.346802
v -2.305710 7.312073 73.716553
v 0.000000 1.897644 62.310669
v 2.305725 -0.111877 63.441284
v 0.000000 -2.121368 64.572021
v -2.305710 -0.111877 63.441284
v 0.000000 5.620300 0.000000
v -2.305710 3.314575 0.000000
v 0.000000 1.008820 0.000000
v 2.305725 3.314575 0.000000
v 0.000000 71.480469 70.594971
v -2.305710 71.480469 72.901001
v 0.000000 71.480469 75.206543
v 2.305725 71.480469 72.901001
v 0.000000 5.620300 50.596313
v 2.305725 3.314575 50.596313
v 0.000000 1.008820 50.596313
v -2.305710 3.314575 50.596313
v 0.000000 22.453491 70.595215
v 2.305725 22.453491 72.900879
v 0.000000 22.453491 75.206543
v -2.305710 22.453491 72.900879
v 0.000000 14.763580 67.144653
v 2.305725 13.133179 68.774902
v 0.000000 11.502777 70.405273
v -2.305710 13.133179 68.774902
v 0.000000 7.612823 59.167847
v 2.305725 5.709229 60.468872
v 0.000000 3.805634 61.769897
v -2.305710 5.709229 60.468872
v -3.100693 -13.453430 3.519653
v 3.687195 -13.453430 3.519653
v -3.100693 14.517181 3.519653
v 3.687195 14.517181 3.519653
v -3.100693 14.517181 0.000000
v 3.687195 14.517181 0.000000
v -3.100693 -13.453430 0.000000
v 3.687195 -13.453430 0.000000
v 0.000000 -7.353027 0.000000
v -2.305710 -9.658752 0.000000
v 0.000000 -11.964478 0.000000
v 2.305725 -9.658752 0.000000
v 0.000000 71.480469 81.827148
v -2.305710 71.480469 84.133057
v 0.000000 71.480469 86.438599
v 2.305725 71.480469 84.133057
v 0.000000 -7.353027 52.934326
v 2.305725 -9.658752 52.934326
v 0.000000 -11.964478 52.934326
v -2.305710 -9.658752 52.934326
v 0.000000 17.018188 81.827148
v 2.305725 17.018188 84.133057
v 0.000000 17.018188 86.438721
v -2.305710 17.018188 84.133057
v 0.000000 4.287018 76.902832
v 2.305725 2.656616 78.533447
v 0.000000 1.026215 80.163696
v -2.305710 2.656616 78.533447
v 0.000000 -4.581116 66.324951
v 2.305725 -6.590637 67.455444
v 0.000000 -8.600128 68.586182
v -2.305710 -6.590637 67.455444
v 0.000000 11.814087 0.000000
v -2.305710 9.508331 0.000000
v 0.000000 7.202576 0.000000
v 2.305725 9.508331 0.000000
v 0.000000 71.480469 64.441650
v -2.305710 71.480469 66.747314
v 0.000000 71.480469 69.053101
v 2.305725 71.480469 66.747314
v 0.000000 11.814087 44.442749
v 2.305725 9.508331 44.442749
v 0.000000 7.202576 44.442749
v -2.305710 9.508331 44.442749
v 0.000000 28.647247 64.441406
v 2.305725 28.647308 66.747559
v 0.000000 28.647247 69.053101
v -2.305710 28.647247 66.747559
v 0.000000 20.055786 61.902100
v 2.305725 18.425385 63.532349
v 0.000000 16.794983 65.162964
v -2.305710 18.425385 63.532349
v 0.000000 13.062775 53.762207
v 2.305725 11.159180 55.063232
v 0.000000 9.255585 56.364502
v -2.305710 11.159180 55.063232
v -3.100693 75.000000 88.453491
v 3.687195 75.000000 88.453491
v -3.100693 75.000000 62.284302
v 3.687195 75.000000 62.284302
v -3.100693 71.480469 62.284302
v 3.687195 71.480469 62.284302
v -3.100693 71.480469 88.453491
v 3.687195 71.480469 88.453491
vt 0.039386 1.000000
vt 0.002625 1.000000
vt 0.002618 -0.000208
vt 0.039378 -0.000208
vt 0.076146 1.000000
vt 0.076139 -0.000208
vt 0.112906 1.000000
vt 0.112899 -0.000208
vt 0.149666 1.000000
vt 0.149660 -0.000209
vt 0.149663 0.499896
vt 0.002621 0.499896
vt 0.112903 0.499896
vt 0.076142 0.499896
vt 0.039382 0.499896
vt 0.149665 0.749948
vt 0.002623 0.749948
vt 0.112904 0.749948
vt 0.076144 0.749948
vt 0.039384 0.749948
vt 0.149664 0.624922
vt 0.002622 0.624922
vt 0.112903 0.624922
vt 0.076143 0.624922
vt 0.039383 0.624922
vt 0.149663 0.562409
vt 0.002622 0.562409
vt 0.112903 0.562409
vt 0.076143 0.562409
vt 0.039382 0.562409
vt 0.002621 0.499896
vt 0.002618 -0.000208
vt 0.039378 -0.000208
vt 0.039382 0.499896
vt 0.076139 -0.000208
vt 0.076142 0.499896
vt 0.112899 -0.000208
vt 0.112903 0.499896
vt 0.149660 -0.000209
vt 0.149663 0.499896
vt 0.149663 0.562409
vt 0.112903 0.562409
vt 0.076143 0.562409
vt 0.039382 0.562409
vt 0.002622 0.562409
vt 0.149666 1.000000
vt 0.112906 1.000000
vt 0.112904 0.749948
vt 0.149665 0.749948
vt 0.076146 1.000000
vt 0.076144 0.749948
vt 0.039386 1.000000
vt 0.039384 0.749948
vt 0.002625 1.000000
vt 0.002623 0.749948
vt 0.112903 0.624922
vt 0.149664 0.624922
vt 0.076143 0.624922
vt 0.039383 0.624922
vt 0.002622 0.624922
vt 0.714428 0.137380
vt 0.757379 0.137380
vt 0.757379 0.247405
vt 0.714428 0.247405
vt 0.774542 0.121746
vt 0.817493 0.121746
vt 0.817493 0.144015
vt 0.774542 0.144015
vt 0.834622 0.137373
vt 0.877572 0.137373
vt 0.877572 0.247397
vt 0.834622 0.247397
vt 0.810953 0.119598
vt 0.853903 0.119598
vt 0.853903 0.141868
vt 0.810953 0.141868
vt 0.766341 0.125442
vt 0.788611 0.125442
vt 0.788611 0.235467
vt 0.766341 0.235467
vt 0.002621 0.499896
vt 0.002618 -0.000208
vt 0.039378 -0.000208
vt 0.039382 0.499896
vt 0.076139 -0.000208
vt 0.076142 0.499896
vt 0.112899 -0.000208
vt 0.112903 0.499896
vt 0.149660 -0.000209
vt 0.149663 0.499896
vt 0.149663 0.562409
vt 0.112903 0.562409
vt 0.076143 0.562409
vt 0.039382 0.562409
vt 0.002622 0.562409
vt 0.149666 1.000000
vt 0.112906 1.000000
vt 0.112904 0.749948
vt 0.149665 0.749948
vt 0.076146 1.000000
vt 0.076144 0.749948
vt 0.039386 1.000000
vt 0.039384 0.749948
vt 0.002625 1.000000
vt 0.002623 0.749948
vt 0.112903 0.624922
vt 0.149664 0.624922
vt 0.076143 0.624922
vt 0.039383 0.624922
vt 0.002622 0.624922
vt 0.002621 0.499896
vt 0.002618 -0.000208
vt 0.039378 -0.000208
vt 0.039382 0.499896
vt 0.076139 -0.000208
vt 0.076142 0.499896
vt 0.112899 -0.000208
vt 0.112903 0.499896
vt 0.149660 -0.000209
vt 0.149663 0.499896
vt 0.149663 0.562409
vt 0.112903 0.562409
vt 0.076143 0.562409
vt 0.039382 0.562409
vt 0.002622 0.562409
vt 0.149666 1.000000
vt 0.112906 1.000000
vt 0.112904 0.749948
vt 0.149665 0.749948
vt 0.076146 1.000000
vt 0.076144 0.749948
vt 0.039386 1.000000
vt 0.039384 0.749948
vt 0.002625 1.000000
vt 0.002623 0.749948
vt 0.112903 0.624922
vt 0.149664 0.624922
vt 0.076143 0.624922
vt 0.039383 0.624922
vt 0.002622 0.624922
vt 0.714418 0.137375
vt 0.757368 0.137375
vt 0.757369 0.247399
vt 0.714418 0.247399
vt 0.774547 0.121748
vt 0.817498 0.121748
vt 0.817498 0.144018
vt 0.774547 0.144018
vt 0.834623 0.137375
vt 0.877573 0.137375
vt 0.877573 0.247399
vt 0.834623 0.247399
vt 0.810954 0.119600
vt 0.853905 0.119600
vt 0.853905 0.141869
vt 0.810954 0.141869
vt 0.766341 0.125442
vt 0.788611 0.125442
vt 0.788611 0.235467
vt 0.766341 0.235467
vt 0.774552 0.104155
vt 0.795664 0.104155
vt 0.795664 0.261134
vt 0.774552 0.261134
vt 0.763303 0.101478
vt 0.784415 0.101478
vt 0.784415 0.269264
vt 0.763303 0.269264
vn -0.000000 0.998686 -0.051244
vn 0.000000 1.000000 0.000000
vn -1.000000 0.000000 0.000000
vn -0.999505 -0.030543 0.007598
vn -0.000000 -1.000000 0.000000
vn 0.000000 -0.998912 0.046641
vn 1.000000 0.000000 0.000000
vn 0.999505 -0.030544 0.007598
vn -0.000000 0.911960 -0.410279
vn 0.992594 -0.113659 0.042873
vn 0.000000 -0.907108 0.420897
vn -0.992594 -0.113659 0.042873
vn 0.000000 -0.000001 -1.000000
vn 1.000000 -0.000000 -0.000001
vn 0.998774 -0.019321 0.045580
vn -0.000000 0.084990 -0.996382
vn 0.000000 0.000001 1.000000
vn 0.000000 -0.070496 0.997512
vn -1.000000 -0.000000 -0.000001
vn -0.998774 -0.019321 0.045580
vn 0.985997 -0.087461 0.141988
vn -0.000000 0.619173 -0.785254
vn 0.000000 -0.630098 0.776516
vn -0.985997 -0.087461 0.141987
vn -0.000000 0.999209 -0.039765
vn -0.000000 1.000000 0.000000
vn -1.000000 0.000000 0.000000
vn -0.999574 -0.028205 0.007558
vn 0.000000 -1.000000 0.000000
vn 0.000000 -0.999258 0.038505
vn 1.000000 -0.000000 0.000000
vn 0.999574 -0.028206 0.007558
vn -0.000000 0.883404 -0.468612
vn 0.989085 -0.136792 0.054756
vn 0.000000 -0.875211 0.483742
vn -0.989085 -0.136791 0.054756
vn 0.000000 -0.000001 -1.000000
vn 1.000000 -0.000001 0.000001
vn 0.998888 -0.018757 0.043262
vn -0.000000 0.075835 -0.997120
vn 0.000000 -0.000001 1.000000
vn 0.000000 -0.063489 0.997983
vn -1.000000 -0.000001 0.000001
vn -0.998888 -0.018757 0.043261
vn 0.989549 -0.066572 0.127913
vn -0.000000 0.591992 -0.805944
vn 0.000000 -0.603527 0.797343
vn -0.989549 -0.066572 0.127913
vn 0.000000 0.000000 1.000000
vn 0.000000 0.000000 1.000000
vn 0.000000 0.000000 1.000000
vn 0.000000 0.000000 1.000000
vn 0.000000 1.000000 0.000000
vn 0.000000 1.000000 0.000000
vn 0.000000 1.000000 0.000000
vn 0.000000 1.000000 0.000000
vn 0.000000 0.000000 -1.000000
vn 0.000000 0.000000 -1.000000
vn 0.000000 0.000000 -1.000000
vn 0.000000 0.000000 -1.000000
vn 0.000000 -1.000000 0.000000
vn 0.000000 -1.000000 0.000000
vn 0.000000 -1.000000 0.000000
vn 0.000000 -1.000000 0.000000
vn -1.000000 0.000000 0.000000
vn -1.000000 0.000000 0.000000
vn -1.000000 0.000000 0.000000
vn -1.000000 0.000000 0.000000
vn -0.000000 0.998909 -0.046707
vn 0.000000 1.000000 0.000000
vn -1.000000 0.000000 0.000000
vn -0.999572 -0.028527 0.006453
vn 0.000000 -1.000000 0.000000
vn 0.000000 -0.999046 0.043672
vn 1.000000 0.000000 0.000000
vn 0.999572 -0.028527 0.006453
vn -0.000000 0.903021 -0.429598
vn 0.990456 -0.127549 0.052225
vn 0.000000 -0.898666 0.438634
vn -0.990456 -0.127548 0.052225
vn 0.000000 0.000000 -1.000000
vn 1.000000 0.000001 0.000000
vn 0.998760 -0.018336 0.046290
vn -0.000000 0.086895 -0.996218
vn 0.000000 0.000001 1.000000
vn 0.000000 -0.073551 0.997292
vn -1.000000 0.000001 0.000000
vn -0.998760 -0.018336 0.046290
vn 0.987849 -0.071042 0.138228
vn -0.000000 0.566164 -0.824293
vn 0.000000 -0.590903 0.806743
vn -0.987849 -0.071041 0.138227
vn -0.000000 0.999610 -0.027922
vn 0.000000 1.000000 0.000000
vn -1.000000 0.000000 0.000000
vn -0.999662 -0.025360 0.005770
vn 0.000000 -1.000000 0.000000
vn 0.000000 -0.999514 0.031162
vn 1.000000 0.000000 0.000000
vn 0.999662 -0.025360 0.005770
vn -0.000000 0.913587 -0.406644
vn 0.987056 -0.153312 0.047068
vn 0.000000 -0.897092 0.441845
vn -0.987056 -0.153312 0.047068
vn -0.000001 -0.000000 -1.000000
vn 1.000000 0.000001 -0.000003
vn 0.999021 -0.014666 0.041744
vn -0.000005 0.060637 -0.998160
vn 0.000000 0.000003 1.000000
vn -0.000003 -0.058205 0.998305
vn -1.000000 0.000001 -0.000003
vn -0.999021 -0.014666 0.041745
vn 0.985222 -0.068694 0.156906
vn -0.000001 0.540205 -0.841534
vn 0.000002 -0.574219 0.818702
vn -0.985222 -0.068694 0.156905
vn 0.000000 1.000000 0.000000
vn 0.000000 1.000000 0.000000
vn 0.000000 1.000000 0.000000
vn 0.000000 1.000000 0.000000
vn 0.000000 0.000000 -1.000000
vn 0.000000 0.000000 -1.000000
vn 0.000000 0.000000 -1.000000
vn 0.000000 0.000000 -1.000000
vn 0.000000 -1.000000 0.000000
vn 0.000000 -1.000000 0.000000
vn 0.000000 -1.000000 0.000000
vn 0.000000 -1.000000 0.000000
vn 0.000000 0.000000 1.000000
vn 0.000000 0.000000 1.000000
vn 0.000000 0.000000 1.000000
vn 0.000000 0.000000 1.000000
vn -1.000000 0.000000 0.000000
vn -1.000000 0.000000 0.000000
vn -1.000000 0.000000 0.000000
vn -1.000000 0.000000 0.000000
vn 1.000000 0.000000 0.000000
vn 1.000000 0.000000 0.000000
vn 1.000000 0.000000 0.000000
vn 1.000000 0.000000 0.000000
vn 1.000000 0.000000 0.000000
vn 1.000000 0.000000 0.000000
vn 1.000000 0.000000 0.000000
vn 1.000000 0.000000 0.000000
g Wires_4_90_LOD0 Wires_4_90
usemtl lambert17SG
f 9/12/1 1/3/2 2/4/3 12/15/4
f 2/4/3 3/6/5 11/14/6 12/15/4
f 3/6/5 4/8/7 10/13/8 11/14/6
f 4/8/7 1/10/2 9/11/1 10/13/8
f 21/26/9 22/28/10 10/13/8 9/11/1
f 22/28/10 23/29/11 11/14/6 10/13/8
f 23/29/11 24/30/12 12/15/4 11/14/6
f 24/30/12 21/27/9 9/12/1 12/15/4
f 5/9/13 8/7/14 14/18/15 13/16/16
f 8/7/14 7/5/17 15/19/18 14/18/15
f 7/5/17 6/1/19 16/20/20 15/19/18
f 6/1/19 5/2/13 13/17/16 16/20/20
f 13/16/16 14/18/15 18/23/21 17/21/22
f 14/18/15 15/19/18 19/24/23 18/23/21
f 15/19/18 16/20/20 20/25/24 19/24/23
f 16/20/20 13/17/16 17/22/22 20/25/24
f 17/21/22 18/23/21 22/28/10 21/26/9
f 18/23/21 19/24/23 23/29/11 22/28/10
f 19/24/23 20/25/24 24/30/12 23/29/11
f 20/25/24 17/22/22 21/27/9 24/30/12
f 33/31/25 25/32/26 26/33/27 36/34/28
f 26/33/27 27/35/29 35/36/30 36/34/28
f 27/35/29 28/37/31 34/38/32 35/36/30
f 28/37/31 25/39/26 33/40/25 34/38/32
f 45/41/33 46/42/34 34/38/32 33/40/25
f 46/42/34 47/43/35 35/36/30 34/38/32
f 47/43/35 48/44/36 36/34/28 35/36/30
f 48/44/36 45/45/33 33/31/25 36/34/28
f 29/46/37 32/47/38 38/48/39 37/49/40
f 32/47/38 31/50/41 39/51/42 38/48/39
f 31/50/41 30/52/43 40/53/44 39/51/42
f 30/52/43 29/54/37 37/55/40 40/53/44
f 37/49/40 38/48/39 42/56/45 41/57/46
f 38/48/39 39/51/42 43/58/47 42/56/45
f 39/51/42 40/53/44 44/59/48 43/58/47
f 40/53/44 37/55/40 41/60/46 44/59/48
f 41/57/46 42/56/45 46/42/34 45/41/33
f 42/56/45 43/58/47 47/43/35 46/42/34
f 43/58/47 44/59/48 48/44/36 47/43/35
f 44/59/48 41/60/46 45/45/33 48/44/36
f 49/61/49 50/62/50 52/63/51 51/64/52
f 51/65/53 52/66/54 54/67/55 53/68/56
f 53/69/57 54/70/58 56/71/59 55/72/60
f 55/73/61 56/74/62 50/75/63 49/76/64
f 55/77/65 49/78/66 51/79/67 53/80/68
f 65/81/69 57/82/70 58/83/71 68/84/72
f 58/83/71 59/85/73 67/86/74 68/84/72
f 59/85/73 60/87/75 66/88/76 67/86/74
f 60/87/75 57/89/70 65/90/69 66/88/76
f 77/91/77 78/92/78 66/88/76 65/90/69
f 78/92/78 79/93/79 67/86/74 66/88/76
f 79/93/79 80/94/80 68/84/72 67/86/74
f 80/94/80 77/95/77 65/81/69 68/84/72
f 61/96/81 64/97/82 70/98/83 69/99/84
f 64/97/82 63/100/85 71/101/86 70/98/83
f 63/100/85 62/102/87 72/103/88 71/101/86
f 62/102/87 61/104/81 69/105/84 72/103/88
f 69/99/84 70/98/83 74/106/89 73/107/90
f 70/98/83 71/101/86 75/108/91 74/106/89
f 71/101/86 72/103/88 76/109/92 75/108/91
f 72/103/88 69/105/84 73/110/90 76/109/92
f 73/107/90 74/106/89 78/92/78 77/91/77
f 74/106/89 75/108/91 79/93/79 78/92/78
f 75/108/91 76/109/92 80/94/80 79/93/79
f 76/109/92 73/110/90 77/95/77 80/94/80
f 89/111/93 81/112/94 82/113/95 92/114/96
f 82/113/95 83/115/97 91/116/98 92/114/96
f 83/115/97 84/117/99 90/118/100 91/116/98
f 84/117/99 81/119/94 89/120/93 90/118/100
f 101/121/101 102/122/102 90/118/100 89/120/93
f 102/122/102 103/123/103 91/116/98 90/118/100
f 103/123/103 104/124/104 92/114/96 91/116/98
f 104/124/104 101/125/101 89/111/93 92/114/96
f 85/126/105 88/127/106 94/128/107 93/129/108
f 88/127/106 87/130/109 95/131/110 94/128/107
f 87/130/109 86/132/111 96/133/112 95/131/110
f 86/132/111 85/134/105 93/135/108 96/133/112
f 93/129/108 94/128/107 98/136/113 97/137/114
f 94/128/107 95/131/110 99/138/115 98/136/113
f 95/131/110 96/133/112 100/139/116 99/138/115
f 96/133/112 93/135/108 97/140/114 100/139/116
f 97/137/114 98/136/113 102/122/102 101/121/101
f 98/136/113 99/138/115 103/123/103 102/122/102
f 99/138/115 100/139/116 104/124/104 103/123/103
f 100/139/116 97/140/114 101/125/101 104/124/104
f 105/141/117 106/142/118 108/143/119 107/144/120
f 107/145/121 108/146/122 110/147/123 109/148/124
f 109/149/125 110/150/126 112/151/127 111/152/128
f 111/153/129 112/154/130 106/155/131 105/156/132
f 111/157/133 105/158/134 107/159/135 109/160/136
f 110/161/137 108/162/138 106/163/139 112/164/140
f 50/165/141 56/166/142 54/167/143 52/168/144
