# This file uses meters as units for non-parametric coordinates.

mtllib Wires_1_B_LOD0.mtl
g default
v -3.100693 -4.522369 400.000000
v 3.687195 -4.522369 400.000000
v -3.100693 6.140320 400.000000
v 3.687195 6.140320 400.000000
v -3.100693 6.140320 396.480347
v 3.687195 6.140320 396.480347
v -3.100693 -4.522369 396.480347
v 3.687195 -4.522369 396.480347
v -3.100693 -4.522369 3.519531
v 3.687195 -4.522369 3.519531
v -3.100693 6.140320 3.519531
v 3.687195 6.140320 3.519531
v -3.100693 6.140320 0.000000
v 3.687195 6.140320 0.000000
v -3.100693 -4.522369 0.000000
v 3.687195 -4.522369 0.000000
v 0.000000 2.495529 3.520020
v -2.495514 0.000000 3.520020
v 0.000000 -2.495514 3.519531
v 2.495514 0.000000 3.520020
v 0.000000 -23.071274 203.347168
v -2.495514 -25.566811 203.347168
v 0.000000 -28.062317 203.347168
v 2.495514 -25.566811 203.347168
v 0.000000 2.495529 396.480347
v -2.495514 0.000000 396.480347
v 0.000000 -2.495514 396.480347
v 2.495514 0.000000 396.480347
v 0.000000 2.495529 101.673828
v 2.495514 0.000000 101.673828
v 0.000000 -2.495514 101.673340
v -2.495514 0.000000 101.673828
v 0.000000 2.495529 301.673828
v 2.495514 0.000000 301.673828
v 0.000000 -2.495514 301.673828
v -2.495514 0.000000 301.673828
v 0.000000 -15.192856 252.047852
v 2.495514 -17.645164 252.510254
v 0.000000 -20.097450 252.972900
v -2.495514 -17.645164 252.510254
v 0.000000 -15.195038 152.984375
v 2.495514 -17.645172 152.510498
v 0.000000 -20.095268 152.036621
v -2.495514 -17.645172 152.510498
v 0.000000 -0.847168 127.797119
v 2.495514 -3.241058 127.092041
v 0.000000 -5.634865 126.386963
v -2.495514 -3.241058 127.092041
v 0.000000 -0.888107 276.260498
v 2.495514 -3.241028 277.092041
v 0.000000 -5.593933 277.923584
v -2.495514 -3.241028 277.092041
v 0.000000 -22.010929 178.314453
v 2.495514 -24.476494 177.928955
v 0.000000 -26.942009 177.543213
v -2.495514 -24.476494 177.928955
v 0.000000 -22.007629 227.564941
v 2.495514 -24.476471 227.928955
v 0.000000 -26.945305 228.292725
v -2.495514 -24.476471 227.928955
vt 0.714441 0.137380
vt 0.757391 0.137380
vt 0.757392 0.247405
vt 0.714441 0.247405
vt 0.774543 0.121746
vt 0.817493 0.121746
vt 0.817493 0.144015
vt 0.774543 0.144015
vt 0.834607 0.137377
vt 0.877558 0.137377
vt 0.877558 0.247401
vt 0.834607 0.247401
vt 0.810953 0.119598
vt 0.853904 0.119598
vt 0.853904 0.141868
vt 0.810953 0.141868
vt 0.766341 0.125442
vt 0.788610 0.125442
vt 0.788610 0.235467
vt 0.766341 0.235467
vt 0.714351 0.137345
vt 0.757301 0.137345
vt 0.757301 0.247369
vt 0.714351 0.247369
vt 0.774543 0.121746
vt 0.817493 0.121746
vt 0.817493 0.144015
vt 0.774542 0.144015
vt 0.834633 0.137379
vt 0.877584 0.137379
vt 0.877584 0.247404
vt 0.834633 0.247404
vt 0.810953 0.119598
vt 0.853903 0.119598
vt 0.853903 0.141868
vt 0.810953 0.141868
vt 0.766341 0.125442
vt 0.788611 0.125442
vt 0.788611 0.235467
vt 0.766341 0.235467
vt 0.039382 0.499896
vt 0.002621 0.499896
vt 0.002618 -0.000208
vt 0.039378 -0.000208
vt 0.076139 -0.000208
vt 0.076142 0.499896
vt 0.112899 -0.000208
vt 0.112903 0.499896
vt 0.149660 -0.000209
vt 0.149663 0.499896
vt 0.039379 0.124818
vt 0.002619 0.124818
vt 0.002618 -0.000208
vt 0.039378 -0.000208
vt 0.076139 -0.000208
vt 0.076140 0.124818
vt 0.112899 -0.000208
vt 0.112900 0.124818
vt 0.149660 -0.000209
vt 0.149661 0.124817
vt 0.149664 0.624922
vt 0.112903 0.624922
vt 0.076143 0.624922
vt 0.039383 0.624922
vt 0.002622 0.624922
vt 0.112903 0.499896
vt 0.149663 0.499896
vt 0.149666 1.000000
vt 0.112906 1.000000
vt 0.076142 0.499896
vt 0.076146 1.000000
vt 0.039382 0.499896
vt 0.039386 1.000000
vt 0.002625 1.000000
vt 0.002621 0.499896
vt 0.112901 0.249844
vt 0.149661 0.249844
vt 0.149662 0.374870
vt 0.112902 0.374870
vt 0.076141 0.249844
vt 0.076142 0.374870
vt 0.039380 0.249844
vt 0.039381 0.374870
vt 0.002620 0.374870
vt 0.002620 0.249844
vt 0.112904 0.749948
vt 0.149665 0.749948
vt 0.149665 0.874974
vt 0.112905 0.874974
vt 0.076144 0.749948
vt 0.076145 0.874974
vt 0.039384 0.749948
vt 0.039385 0.874974
vt 0.002624 0.874974
vt 0.002623 0.749948
vt 0.149666 1.000000
vt 0.112906 1.000000
vt 0.076146 1.000000
vt 0.039386 1.000000
vt 0.002625 1.000000
vt 0.793132 0.217352
vt 0.772020 0.217352
vt 0.772020 0.153390
vt 0.793132 0.153390
vt 0.800530 0.153390
vt 0.821642 0.153390
vt 0.821642 0.217352
vt 0.800530 0.217352
vn 0.000000 0.000000 1.000000
vn 0.000000 0.000000 1.000000
vn 0.000000 0.000000 1.000000
vn 0.000000 0.000000 1.000000
vn 0.000000 1.000000 0.000000
vn 0.000000 1.000000 0.000000
vn 0.000000 1.000000 0.000000
vn 0.000000 1.000000 0.000000
vn 0.000000 0.000000 -1.000000
vn 0.000000 0.000000 -1.000000
vn 0.000000 0.000000 -1.000000
vn 0.000000 0.000000 -1.000000
vn 0.000000 -1.000000 0.000000
vn 0.000000 -1.000000 0.000000
vn 0.000000 -1.000000 0.000000
vn 0.000000 -1.000000 0.000000
vn -1.000000 0.000000 0.000000
vn -1.000000 0.000000 0.000000
vn -1.000000 0.000000 0.000000
vn -1.000000 0.000000 0.000000
vn 0.000000 0.000000 1.000000
vn 0.000000 0.000000 1.000000
vn 0.000000 0.000000 1.000000
vn 0.000000 0.000000 1.000000
vn 0.000000 1.000000 0.000000
vn 0.000000 1.000000 0.000000
vn 0.000000 1.000000 0.000000
vn 0.000000 1.000000 0.000000
vn 0.000000 0.000000 -1.000000
vn 0.000000 0.000000 -1.000000
vn 0.000000 0.000000 -1.000000
vn 0.000000 0.000000 -1.000000
vn 0.000000 -1.000000 0.000000
vn 0.000000 -1.000000 0.000000
vn 0.000000 -1.000000 0.000000
vn 0.000000 -1.000000 0.000000
vn -1.000000 0.000000 0.000000
vn -1.000000 0.000000 0.000000
vn -1.000000 0.000000 0.000000
vn -1.000000 0.000000 0.000000
vn -0.999892 0.014609 0.001906
vn 0.000000 0.999679 0.025337
vn 0.000000 1.000000 0.000000
vn -1.000000 -0.000044 0.000000
vn 0.000000 -1.000000 0.000000
vn 0.000000 -0.999635 -0.027035
vn 1.000000 -0.000044 0.000000
vn 0.999891 0.014609 0.001906
vn -0.998458 -0.054765 0.009096
vn -0.000001 0.987129 -0.159928
vn 0.000000 0.999027 -0.044096
vn -0.999624 -0.027396 0.001430
vn 0.000000 -0.999008 0.044524
vn 0.000000 -0.987412 0.158168
vn 0.999624 -0.027396 0.001430
vn 0.998458 -0.054765 0.009096
vn 0.000000 0.946181 0.323638
vn 0.995685 0.086992 0.032308
vn 0.000000 -0.943484 -0.331418
vn -0.995685 0.086993 0.032309
vn 0.999875 0.015632 -0.002199
vn 0.000000 0.999654 -0.026321
vn 0.000000 1.000000 0.000000
vn 1.000000 0.000000 0.000000
vn -0.000000 -0.999612 0.027855
vn 0.000000 -1.000000 0.000000
vn -0.999875 0.015631 -0.002199
vn -1.000000 0.000000 0.000000
vn 0.997607 -0.057854 0.037856
vn -0.000001 0.912955 -0.408061
vn 0.000000 0.941362 -0.337397
vn 0.995590 0.088935 -0.029867
vn 0.000000 -0.923394 0.383854
vn -0.000000 -0.941160 0.337962
vn -0.997607 -0.057855 0.037857
vn -0.995590 0.088933 -0.029866
vn 0.997845 -0.055534 -0.034942
vn 0.000000 0.918358 0.395752
vn 0.000000 0.988052 0.154122
vn 0.998552 -0.053208 -0.007894
vn 0.000000 -0.927418 -0.374026
vn 0.000000 -0.988099 -0.153821
vn -0.997845 -0.055534 -0.034942
vn -0.998552 -0.053208 -0.007894
vn 0.000000 0.999093 0.042590
vn 0.999636 -0.026939 -0.001421
vn 0.000000 -0.999070 -0.043117
vn -0.999636 -0.026939 -0.001421
vn 1.000000 0.000000 0.000000
vn 1.000000 0.000000 0.000000
vn 1.000000 0.000000 0.000000
vn 1.000000 0.000000 0.000000
vn 1.000000 0.000000 0.000000
vn 1.000000 0.000000 0.000000
vn 1.000000 0.000000 0.000000
vn 1.000000 0.000000 0.000000
g Wires_1_B_LOD0 Wires_1_B
usemtl lambert17SG
f 1/1/1 2/2/2 4/3/3 3/4/4
f 3/5/5 4/6/6 6/7/7 5/8/8
f 5/9/9 6/10/10 8/11/11 7/12/12
f 7/13/13 8/14/14 2/15/15 1/16/16
f 7/17/17 1/18/18 3/19/19 5/20/20
f 9/21/21 10/22/22 12/23/23 11/24/24
f 11/25/25 12/26/26 14/27/27 13/28/28
f 13/29/29 14/30/30 16/31/31 15/32/32
f 15/33/33 16/34/34 10/35/35 9/36/36
f 15/37/37 9/38/38 11/39/39 13/40/40
f 32/41/41 29/42/42 17/43/43 18/44/44
f 18/44/44 19/45/45 31/46/46 32/41/41
f 19/45/45 20/47/47 30/48/48 31/46/46
f 20/47/47 17/49/43 29/50/42 30/48/48
f 60/51/49 57/52/50 21/53/51 22/54/52
f 22/54/52 23/55/53 59/56/54 60/51/49
f 23/55/53 24/57/55 58/58/56 59/56/54
f 24/57/55 21/59/51 57/60/50 58/58/56
f 30/48/48 29/50/42 45/61/57 46/62/58
f 31/46/46 30/48/48 46/62/58 47/63/59
f 32/41/41 31/46/46 47/63/59 48/64/60
f 48/64/60 45/65/57 29/42/42 32/41/41
f 34/66/61 33/67/62 25/68/63 28/69/64
f 35/70/65 34/66/61 28/69/64 27/71/66
f 36/72/67 35/70/65 27/71/66 26/73/68
f 25/74/63 33/75/62 36/72/67 26/73/68
f 38/76/69 37/77/70 49/78/71 50/79/72
f 39/80/73 38/76/69 50/79/72 51/81/74
f 40/82/75 39/80/73 51/81/74 52/83/76
f 52/83/76 49/84/71 37/85/70 40/82/75
f 42/86/77 41/87/78 53/88/79 54/89/80
f 43/90/81 42/86/77 54/89/80 55/91/82
f 44/92/83 43/90/81 55/91/82 56/93/84
f 56/93/84 53/94/79 41/95/78 44/92/83
f 46/62/58 45/61/57 41/87/78 42/86/77
f 47/63/59 46/62/58 42/86/77 43/90/81
f 48/64/60 47/63/59 43/90/81 44/92/83
f 44/92/83 41/95/78 45/65/57 48/64/60
f 50/79/72 49/78/71 33/67/62 34/66/61
f 51/81/74 50/79/72 34/66/61 35/70/65
f 52/83/76 51/81/74 35/70/65 36/72/67
f 36/72/67 33/75/62 49/84/71 52/83/76
f 54/89/80 53/88/79 21/96/85 24/97/86
f 55/91/82 54/89/80 24/97/86 23/98/87
f 56/93/84 55/91/82 23/98/87 22/99/88
f 21/100/85 53/94/79 56/93/84 22/99/88
f 58/58/56 57/60/50 37/77/70 38/76/69
f 59/56/54 58/58/56 38/76/69 39/80/73
f 60/51/49 59/56/54 39/80/73 40/82/75
f 40/82/75 37/85/70 57/52/50 60/51/49
f 14/101/89 12/102/90 10/103/91 16/104/92
f 2/105/93 8/106/94 6/107/95 4/108/96
