# This file uses meters as units for non-parametric coordinates.

mtllib Wires_1_90_LOD1.mtl
g default
v 0.000000 3.082451 0.000000
v 0.000000 -1.529029 0.000000
v 0.000000 71.480530 72.694275
v 0.000000 71.480530 77.305725
v 0.000000 3.082451 46.819702
v 0.000000 -1.529029 46.819702
v 0.000000 23.158348 72.694275
v 0.000000 23.158348 77.305786
v 0.000000 12.956230 68.309448
v 0.000000 9.695427 71.570313
v 0.000000 5.945259 58.596558
v 0.000000 1.858513 60.733032
v -3.100693 -4.522369 3.519470
v 3.687195 -4.522369 3.519470
v -3.100693 6.140312 3.519470
v 3.687195 6.140312 3.519470
v -3.100693 6.140312 0.000000
v 3.687195 6.140312 0.000000
v -3.100693 -4.522369 0.000000
v 3.687195 -4.522369 0.000000
v -3.100693 75.000000 79.522339
v 3.687195 75.000000 79.522339
v -3.100693 75.000000 68.859680
v 3.687195 75.000000 68.859680
v -3.100693 71.480530 68.859680
v 3.687195 71.480530 68.859680
v -3.100693 71.480530 79.522339
v 3.687195 71.480530 79.522339
vt 0.002625 1.000000
vt 0.002618 -0.000208
vt 0.076146 1.000000
vt 0.076139 -0.000208
vt 0.002621 0.499896
vt 0.076142 0.499896
vt 0.002623 0.749948
vt 0.076144 0.749948
vt 0.002622 0.624922
vt 0.076143 0.624922
vt 0.002622 0.562409
vt 0.076143 0.562409
vt 0.714423 0.137375
vt 0.757373 0.137375
vt 0.757373 0.247400
vt 0.714423 0.247400
vt 0.774543 0.121746
vt 0.817493 0.121746
vt 0.817493 0.144015
vt 0.774543 0.144015
vt 0.834625 0.137376
vt 0.877575 0.137376
vt 0.877575 0.247400
vt 0.834625 0.247400
vt 0.810953 0.119598
vt 0.853904 0.119598
vt 0.853904 0.141868
vt 0.810953 0.141868
vt 0.766341 0.125442
vt 0.788610 0.125442
vt 0.788610 0.235467
vt 0.766341 0.235467
vt 0.714416 0.137375
vt 0.757367 0.137375
vt 0.757367 0.247399
vt 0.714416 0.247399
vt 0.774539 0.121746
vt 0.817489 0.121746
vt 0.817489 0.144016
vt 0.774539 0.144016
vt 0.834623 0.137375
vt 0.877573 0.137375
vt 0.877573 0.247399
vt 0.834623 0.247399
vt 0.810952 0.119598
vt 0.853903 0.119598
vt 0.853903 0.141868
vt 0.810952 0.141868
vt 0.766341 0.125442
vt 0.788611 0.125442
vt 0.788611 0.235467
vt 0.766341 0.235467
vn -1.000000 0.000000 0.000000
vn -1.000000 0.000000 0.000000
vn -1.000000 0.000000 0.000000
vn -1.000000 0.000000 0.000000
vn -1.000000 0.000000 0.000000
vn -1.000000 0.000000 0.000000
vn -1.000000 0.000000 0.000000
vn -1.000000 0.000000 0.000000
vn -1.000000 0.000000 0.000000
vn -1.000000 0.000000 0.000000
vn -1.000000 0.000000 0.000000
vn -1.000000 0.000000 0.000000
vn 0.000000 0.000000 1.000000
vn 0.000000 0.000000 1.000000
vn 0.000000 0.000000 1.000000
vn 0.000000 0.000000 1.000000
vn 0.000000 1.000000 0.000000
vn 0.000000 1.000000 0.000000
vn 0.000000 1.000000 0.000000
vn 0.000000 1.000000 0.000000
vn 0.000000 0.000000 -1.000000
vn 0.000000 0.000000 -1.000000
vn 0.000000 0.000000 -1.000000
vn 0.000000 0.000000 -1.000000
vn 0.000000 -1.000000 0.000000
vn 0.000000 -1.000000 0.000000
vn 0.000000 -1.000000 0.000000
vn 0.000000 -1.000000 0.000000
vn -1.000000 0.000000 0.000000
vn -1.000000 0.000000 0.000000
vn -1.000000 0.000000 0.000000
vn -1.000000 0.000000 0.000000
vn 0.000000 1.000000 0.000000
vn 0.000000 1.000000 0.000000
vn 0.000000 1.000000 0.000000
vn 0.000000 1.000000 0.000000
vn 0.000000 0.000000 -1.000000
vn 0.000000 0.000000 -1.000000
vn 0.000000 0.000000 -1.000000
vn 0.000000 0.000000 -1.000000
vn 0.000000 -1.000000 0.000000
vn 0.000000 -1.000000 0.000000
vn 0.000000 -1.000000 0.000000
vn 0.000000 -1.000000 0.000000
vn 0.000000 0.000000 1.000000
vn 0.000000 0.000000 1.000000
vn 0.000000 0.000000 1.000000
vn 0.000000 0.000000 1.000000
vn -1.000000 0.000000 0.000000
vn -1.000000 0.000000 0.000000
vn -1.000000 0.000000 0.000000
vn -1.000000 0.000000 0.000000
g Wires_1_90_LOD1 Wires_1_90
usemtl lambert17SG
f 6/6/1 5/5/2 1/2/3 2/4/4
f 12/12/5 11/11/6 5/5/2 6/6/1
f 4/3/7 3/1/8 7/7/9 8/8/10
f 8/8/10 7/7/9 9/9/11 10/10/12
f 10/10/12 9/9/11 11/11/6 12/12/5
f 13/13/13 14/14/14 16/15/15 15/16/16
f 15/17/17 16/18/18 18/19/19 17/20/20
f 17/21/21 18/22/22 20/23/23 19/24/24
f 19/25/25 20/26/26 14/27/27 13/28/28
f 19/29/29 13/30/30 15/31/31 17/32/32
f 21/33/33 22/34/34 24/35/35 23/36/36
f 23/37/37 24/38/38 26/39/39 25/40/40
f 25/41/41 26/42/42 28/43/43 27/44/44
f 27/45/45 28/46/46 22/47/47 21/48/48
f 27/49/49 21/50/50 23/51/51 25/52/52
