# This file uses meters as units for non-parametric coordinates.

mtllib Tree_A_B_LOD3.mtl
g default
v -626.827942 0.000006 0.000000
v 626.827942 0.000006 0.000000
v -626.827942 1204.836792 0.000000
v 626.827942 1204.836792 0.000000
v 0.000000 0.000006 438.248505
v 0.000000 0.000006 -438.248505
v -0.000000 1204.836792 438.248505
v -0.000000 1204.836792 -438.248505
vt 0.004718 0.500731
vt 0.004718 0.009804
vt 0.476528 0.009804
vt 0.476528 0.500731
vt 0.004718 0.518386
vt 0.347951 0.518386
vt 0.347951 0.990196
vt 0.004718 0.990196
vn 0.000000 0.000000 1.000000
vn 0.000000 0.000000 1.000000
vn 0.000000 0.000000 1.000000
vn 0.000000 0.000000 1.000000
vn 1.000000 0.000000 0.000000
vn 1.000000 0.000000 0.000000
vn 1.000000 0.000000 0.000000
vn 1.000000 0.000000 0.000000
g Tree_A_B_LOD3 Tree_A_B
usemtl lambert2SG
f 1/1/1 2/2/2 4/3/3 3/4/4
f 5/5/5 6/6/6 8/7/7 7/8/8
