# This file uses meters as units for non-parametric coordinates.

mtllib Tree_B_A_LOD3.mtl
g default
v -313.268311 1.202877 0.000000
v 274.626617 1.202892 0.000000
v -313.268311 601.878418 0.000000
v 274.626617 601.878479 0.000000
v 0.000000 1.202892 296.653107
v 0.000000 1.202892 -270.613129
v -0.000000 595.541931 296.653107
v -0.000000 595.541931 -270.613129
vt 0.004928 0.009804
vt 0.477318 0.009804
vt 0.477318 0.492463
vt 0.004928 0.492463
vt 0.041912 0.512629
vt 0.497726 0.512629
vt 0.497726 0.990196
vt 0.041912 0.990196
vn 0.000000 0.000000 1.000000
vn 0.000000 0.000000 1.000000
vn 0.000000 0.000000 1.000000
vn 0.000000 0.000000 1.000000
vn 1.000000 0.000000 0.000000
vn 1.000000 0.000000 0.000000
vn 1.000000 0.000000 0.000000
vn 1.000000 0.000000 0.000000
g Tree_B_A_LOD3 Tree_B_A
usemtl lambert4SG
f 1/1/1 2/2/2 4/3/3 3/4/4
f 5/5/5 6/6/6 8/7/7 7/8/8
