# This file uses meters as units for non-parametric coordinates.

mtllib Tree_A_A_LOD3.mtl
g default
v -313.268311 1.202892 0.000000
v 313.268311 1.202892 0.000000
v -313.268311 917.814270 0.000000
v 313.268311 917.814270 0.000000
v 0.000000 1.202892 349.396179
v 0.000000 1.202892 -349.396179
v -0.000000 911.477661 349.396179
v -0.000000 911.477661 -349.396179
vt 0.009804 0.006617
vt 0.462069 0.006617
vt 0.462069 0.668272
vt 0.009804 0.668272
vt 0.485773 0.006617
vt 0.990196 0.006617
vt 0.990196 0.663698
vt 0.485773 0.663698
vn 0.000000 0.000000 1.000000
vn 0.000000 0.000000 1.000000
vn 0.000000 0.000000 1.000000
vn 0.000000 0.000000 1.000000
vn 1.000000 0.000000 0.000000
vn 1.000000 0.000000 0.000000
vn 1.000000 0.000000 0.000000
vn 1.000000 0.000000 0.000000
g Tree_A_A_LOD3 Tree_A_A
usemtl lambert2SG
f 1/1/1 2/2/2 4/3/3 3/4/4
f 5/5/5 6/6/6 8/7/7 7/8/8
