# This file uses meters as units for non-parametric coordinates.

mtllib GrassTall_LOD0.mtl
g default
v 25.686949 -8.310510 14.446594
v 26.081783 36.801743 11.518127
v 43.551796 67.680580 -3.834076
v -29.097521 -8.318061 -48.478149
v -29.020607 36.828377 -50.992889
v -11.614710 68.826225 -66.452454
v 10.097188 76.883522 -31.954359
v -9.567369 40.913376 -14.973526
v -10.678948 -8.305961 -11.429352
v 18.927305 -8.312917 45.966614
v 16.240280 37.000923 45.826904
v 30.938156 72.101387 45.996582
v 28.842072 -8.323680 -36.873978
v 29.947445 33.210342 -36.451920
v 47.033825 63.946075 -35.649353
v 18.149807 78.419060 -0.687241
v 0.131894 40.087502 -0.531311
v 0.000000 -8.307381 0.000000
v -58.550228 -8.312917 -3.691620
v -58.839260 37.599274 -7.934662
v -58.566685 73.416084 4.600494
v 24.818695 -8.323680 -0.453400
v 24.262255 34.336964 -0.907608
v 24.119251 66.218712 14.477509
v -13.024849 80.401131 -10.258560
v -13.913926 40.951717 -26.257584
v -14.297967 -8.307381 -24.986862
v -28.753576 -12.556630 32.561310
v -26.799213 19.013680 34.241943
v -23.873068 45.949234 54.316925
v 43.310452 -12.563218 22.396347
v 45.113297 19.036911 23.647812
v 48.148445 46.948578 43.726913
v 12.595719 53.976940 43.211716
v 9.521327 22.600246 20.757492
v 7.457277 -12.552662 18.259962
v -48.596031 -12.558730 12.636155
v -47.216755 19.187424 10.737137
v -54.326473 49.805496 21.407196
v 7.285074 -12.568119 59.260773
v 6.450988 15.880907 59.868683
v -2.256857 42.691628 71.985016
v -14.101738 55.316387 34.241119
v -5.652224 21.879839 20.987885
v -5.978168 -12.553902 20.638885
v 0.198677 -12.558730 -27.850054
v 3.439605 19.709362 -26.044815
v -5.858734 50.952309 -31.803162
v -41.793526 -12.568119 31.590731
v -41.196831 16.863655 31.399595
v -52.382244 44.674049 23.982758
v -16.635296 57.045345 8.570419
v -4.510305 22.633692 15.524140
v -5.257243 -12.553902 14.639282
vt 0.232292 0.010001
vt 0.217961 0.209022
vt 0.072315 0.192504
vt 0.082484 0.009952
vt 0.336923 0.009983
vt 0.325081 0.192396
vt 0.149298 0.354468
vt 0.009804 0.321888
vt 0.872897 0.363589
vt 0.872362 0.537196
vt 0.694754 0.549021
vt 0.696789 0.363610
vt 0.873012 0.671673
vt 0.694156 0.695878
vt 0.557134 0.522673
vt 0.555517 0.363548
vt 0.560209 0.640429
vt 0.359054 0.343762
vt 0.357965 0.170765
vt 0.527242 0.158133
vt 0.525795 0.343741
vt 0.358992 0.035808
vt 0.530593 0.009489
vt 0.671090 0.183058
vt 0.673186 0.343802
vt 0.670551 0.062928
vt 0.404756 0.636670
vt 0.286958 0.629377
vt 0.273576 0.493856
vt 0.404741 0.501557
vt 0.186455 0.618459
vt 0.156501 0.482384
vt 0.286872 0.361052
vt 0.404780 0.367779
vt 0.182726 0.349727
vt 0.836210 0.926595
vt 0.841156 0.812761
vt 0.990196 0.803106
vt 0.989027 0.926577
vt 0.815662 0.702972
vt 0.959898 0.683211
vt 0.580250 0.798973
vt 0.532648 0.919067
vt 0.397084 0.873723
vt 0.440602 0.777427
vt 0.581503 0.675298
vt 0.442785 0.675247
vt 0.359367 0.656023
vt 0.352959 0.770566
vt 0.205400 0.780947
vt 0.208541 0.656040
vt 0.373400 0.881471
vt 0.230084 0.903100
vt 0.184491 0.766124
vt 0.140247 0.891694
vt 0.009804 0.846550
vt 0.050620 0.745068
vt 0.181766 0.637722
vt 0.048443 0.637670
vt 0.598549 0.795457
vt 0.668693 0.715637
vt 0.797176 0.868492
vt 0.719590 0.958339
vn -0.581421 -0.043152 0.812457
vn -0.462923 0.503066 0.729813
vn -0.640138 0.523644 0.562157
vn -0.743826 -0.063084 0.665389
vn -0.347548 0.692400 0.632291
vn -0.520650 0.713784 0.468439
vn -0.674932 0.690601 0.259878
vn -0.886239 0.113592 0.449085
vn -0.887519 -0.082446 0.453336
vn -0.923576 -0.120400 0.364021
vn -0.887892 0.328822 0.321752
vn -0.990788 0.042046 -0.128727
vn -0.986136 -0.112389 -0.122085
vn -0.814515 0.497139 0.299030
vn -0.825215 0.528953 -0.198062
vn -0.616352 0.421187 -0.665366
vn -0.767203 0.050501 -0.639413
vn -0.781053 -0.072445 -0.620248
vn -0.414369 -0.136234 -0.899855
vn -0.372345 0.268013 -0.888554
vn 0.052839 -0.003413 -0.998597
vn 0.043633 -0.130205 -0.990527
vn -0.347104 0.461090 -0.816648
vn 0.126519 0.497333 -0.858285
vn 0.598154 0.411383 -0.687732
vn 0.551058 0.013307 -0.834361
vn 0.532543 -0.091027 -0.841494
vn -0.364474 -0.043152 -0.930213
vn -0.359740 0.503066 -0.785819
vn -0.141046 0.128398 -0.981642
vn -0.152666 -0.063084 -0.986263
vn -0.340829 0.692400 -0.635939
vn -0.109117 0.713784 -0.691813
vn 0.149829 0.690601 -0.707546
vn 0.106306 0.113592 -0.987824
vn 0.103439 -0.082446 -0.991213
vn 0.197978 -0.120400 -0.972784
vn 0.213979 0.328822 -0.919831
vn 0.647782 0.042046 -0.760665
vn 0.639678 -0.112389 -0.760382
vn 0.193051 0.497139 -0.845922
vn 0.615707 0.528953 -0.584049
vn 0.893753 0.421187 -0.154297
vn 0.954184 0.050501 -0.294930
vn 0.945660 -0.072445 -0.316986
vn 0.980326 -0.136234 0.142835
vn 0.947952 0.268013 0.171916
vn 0.808561 -0.003413 0.588403
vn 0.806809 -0.130205 0.576286
vn 0.873905 0.461090 0.153903
vn 0.650760 0.497333 0.573734
vn 0.250772 0.411383 0.876286
vn 0.399385 0.013307 0.916687
vn 0.415454 -0.091027 0.905048
g GrassTall_LOD0 GrassTall
usemtl polySurface1SG
f 1/5/1 2/6/2 8/2/3 9/1/4
f 2/60/2 3/61/5 7/62/6 8/63/3
f 8/2/3 7/7/6 6/8/7 5/3/8
f 9/1/4 8/2/3 5/3/8 4/4/9
f 10/9/10 11/10/11 17/11/12 18/12/13
f 11/10/11 12/13/14 16/14/15 17/11/12
f 17/11/12 16/14/15 15/17/16 14/15/17
f 18/12/13 17/11/12 14/15/17 13/16/18
f 19/18/19 20/19/20 26/20/21 27/21/22
f 20/19/20 21/22/23 25/23/24 26/20/21
f 26/20/21 25/23/24 24/26/25 23/24/26
f 27/21/22 26/20/21 23/24/26 22/25/27
f 28/27/28 29/28/29 35/29/30 36/30/31
f 29/28/29 30/31/32 34/32/33 35/29/30
f 35/29/30 34/32/33 33/35/34 32/33/35
f 36/30/31 35/29/30 32/33/35 31/34/36
f 37/36/37 38/37/38 44/38/39 45/39/40
f 38/37/38 39/40/41 43/41/42 44/38/39
f 44/42/39 43/43/42 42/44/43 41/45/44
f 45/46/40 44/42/39 41/45/44 40/47/45
f 46/48/46 47/49/47 53/50/48 54/51/49
f 47/49/47 48/52/50 52/53/51 53/50/48
f 53/54/48 52/55/51 51/56/52 50/57/53
f 54/58/49 53/54/48 50/57/53 49/59/54
