# This file uses meters as units for non-parametric coordinates.

mtllib Road_2L_VarB_LOD1.mtl
g default
v 500.000183 14.271730 -625.000000
v 500.000183 14.271730 -800.000000
v 250.000137 14.271730 -800.000000
v 250.000122 14.271730 -625.000000
v 0.000122 14.271730 -800.000000
v 0.000122 14.271730 -625.000000
v 250.000076 14.271730 -450.000153
v 500.000153 14.271730 -450.000061
v 0.000000 14.271730 -450.000061
v 1000.000000 14.271730 -450.000061
v 1000.000000 14.271730 -625.000000
v 750.000183 14.271730 -625.000000
v 750.000122 14.271730 -450.000153
v 1000.000122 14.271669 -800.000000
v 750.000183 14.271669 -800.000000
v 499.999939 14.271730 625.000061
v 499.999939 14.271730 800.000000
v 749.999878 14.271730 800.000000
v 749.999756 14.271730 625.000000
v 1000.000000 14.271730 800.000000
v 1000.000000 14.271730 625.000000
v 749.999878 14.271730 450.000061
v 499.999939 14.271730 450.000061
v 1000.000000 14.271730 450.000061
v -0.000061 14.271730 450.000061
v -0.000122 14.271730 625.000061
v 249.999878 14.271730 625.000061
v 249.999954 14.271730 450.000061
v -0.000061 14.271669 800.000122
v 249.999924 14.271669 800.000122
v 500.000000 0.000000 -400.000000
v 500.000000 1.544250 -401.512817
v 0.000000 1.544250 -401.512817
v 0.000000 0.000000 -400.000000
v 500.000000 14.479706 -426.559357
v 0.000000 14.479706 -426.559357
v 500.000000 1.435730 -425.290955
v 0.000000 1.435730 -425.290955
v 500.000000 14.957947 -445.712433
v 500.000000 14.740905 -447.393097
v 500.000000 14.733094 -449.286041
v 500.000000 14.254639 -446.621979
v 0.000000 0.000000 -450.000000
v 1000.000000 0.000000 -400.000000
v 1000.000000 1.544250 -401.512817
v 1000.000000 14.479706 -426.559357
v 1000.000000 1.435730 -425.290955
v 1000.000000 0.000000 -450.000000
v 500.000000 0.000000 400.000000
v 500.000000 1.544250 401.512817
v 1000.000000 1.544250 401.512817
v 1000.000000 0.000000 400.000000
v 500.000000 14.479706 426.559357
v 1000.000000 14.479706 426.559357
v 500.000000 1.435730 425.290955
v 1000.000000 1.435730 425.290955
v 1000.000000 0.000000 450.000000
v -0.000000 0.000000 400.000000
v -0.000000 1.544250 401.512817
v -0.000000 14.479706 426.559357
v -0.000000 1.435730 425.290955
v -0.000000 0.000000 450.000000
v 1000.000000 0.595398 12.989105
v 1000.000000 0.595398 2.879669
v -0.000000 0.595398 12.989105
v -0.000000 0.595398 2.879669
v 1000.000000 0.595398 -2.879608
v 1000.000000 0.595398 -12.989074
v 0.000000 0.595398 -2.879608
v 0.000000 0.595398 -12.989074
v 1000.000000 0.595398 370.579712
v 1000.000000 0.595398 360.470276
v -0.000000 0.595398 370.579712
v -0.000000 0.595398 360.470276
v 1000.000000 0.595398 -360.470276
v 1000.000000 0.595398 -370.579712
v 0.000000 0.595398 -360.470276
v 0.000000 0.595398 -370.579712
v 1000.000000 0.000000 0.000000
v 0.000000 0.000000 0.000000
v 500.000000 0.000000 0.000000
v 750.000000 0.595398 -370.579712
v 500.000000 0.595398 -370.579712
v 249.999969 0.595398 -370.579712
v 750.000000 0.595398 -360.470276
v 500.000000 0.595398 -360.470276
v 249.999969 0.595398 -360.470276
v 750.000000 0.595398 -12.989073
v 500.000000 0.595398 -12.989074
v 249.999969 0.595398 -12.989074
v 750.000000 0.595398 -2.879608
v 500.000000 0.595398 -2.879608
v 249.999969 0.595398 -2.879608
v 750.000000 0.595398 2.879669
v 500.000000 0.595398 2.879669
v 249.999969 0.595398 2.879669
v 750.000000 0.595398 12.989105
v 500.000000 0.595398 12.989105
v 249.999969 0.595398 12.989105
v 750.000000 0.595398 360.470276
v 500.000000 0.595398 360.470276
v 249.999969 0.595398 360.470276
v 750.000000 0.595398 370.579712
v 500.000000 0.595398 370.579712
v 249.999969 0.595398 370.579712
v 250.000000 1.435730 425.290955
v 250.000000 14.479706 426.559357
v 249.999969 0.000000 400.000000
v 250.000000 1.544250 401.512817
v 750.000000 1.435730 425.290955
v 750.000000 14.479706 426.559357
v 750.000000 0.000000 400.000000
v 750.000000 1.544250 401.512817
v 249.999969 0.000000 0.000000
v 249.999969 0.000000 -400.000000
v 750.000000 0.000000 0.000000
v 749.999878 0.000000 -400.000000
v 1000.000000 -29.478273 800.000000
v 999.334351 -29.827759 800.725769
v 750.000000 -29.687965 800.435425
v 500.000000 -29.711304 800.483826
v 250.000000 -29.711388 800.483826
v 0.665649 -29.827881 800.725769
v 0.000000 -29.478395 800.000000
v 0.000122 -29.478273 -800.000000
v 0.665771 -29.827759 -800.725769
v 250.000137 -29.478273 -800.000000
v 500.000153 -29.478273 -800.000000
v 750.000122 -29.478395 -800.000000
v 999.334412 -29.827881 -800.725769
v 1000.000122 -29.478395 -800.000000
v 249.999969 1.435730 -425.290955
v 249.999969 14.479704 -426.559357
v 249.999969 1.544250 -401.512817
v 749.999878 14.479706 -426.559357
v 749.999878 1.435730 -425.290955
v 749.999878 1.544250 -401.512817
vt 0.333492 0.000000
vt 0.666508 0.000000
vt 0.666507 0.500000
vt 0.333493 0.500000
vt 0.666507 1.000000
vt 0.333493 1.000000
vt -0.000012 0.500000
vt 0.000092 0.000000
vt 0.000039 1.000033
vt 0.333492 0.000000
vt 0.666508 0.000000
vt 0.666507 0.500000
vt 0.333493 0.500000
vt 0.666507 1.000000
vt 0.333493 1.000000
vt -0.000012 0.500000
vt 0.333493 0.500000
vt 0.000092 0.000000
vt 0.333492 0.000000
vt 0.333493 1.000000
vt 0.000039 1.000033
vt 0.333492 0.000000
vt 0.666508 0.000000
vt 0.666507 0.500000
vt 0.333493 0.500000
vt 0.666507 1.000000
vt 0.333493 1.000000
vt -0.000012 0.500000
vt 0.000092 0.000000
vt 0.000039 1.000033
vt 0.333492 0.000000
vt 0.666508 0.000000
vt 0.666507 0.500000
vt 0.333493 0.500000
vt 0.666507 1.000000
vt 0.333493 1.000000
vt -0.000012 0.500000
vt 0.333493 0.500000
vt 0.000092 0.000000
vt 0.333492 0.000000
vt 0.333493 1.000000
vt 0.000039 1.000033
vt 0.991546 0.457972
vt 0.991546 0.503182
vt 0.011175 0.503182
vt 0.011175 0.457972
vt 0.011175 0.455096
vt 0.991546 0.455096
vt 0.991548 0.580719
vt 0.011175 0.518948
vt 0.991548 0.518948
vt 0.991548 0.544355
vt 0.011175 0.544355
vt 0.991548 0.582446
vt 0.991548 0.583910
vt 0.991548 0.587504
vt 0.991548 0.588860
vt 0.011175 0.588860
vt 0.307251 0.374284
vt 0.401066 0.374284
vt 0.351232 0.401452
vt 0.398227 0.377181
vt 0.353612 0.376977
vt 0.307251 0.401062
vt 0.991546 0.457972
vt 0.991546 0.503182
vt 0.011175 0.503182
vt 0.011175 0.457972
vt 0.011175 0.455096
vt 0.991546 0.455096
vt 0.011175 0.580719
vt 0.011175 0.518948
vt 0.991548 0.518948
vt 0.991548 0.544355
vt 0.011175 0.544355
vt 0.011175 0.582446
vt 0.011175 0.583910
vt 0.011175 0.587504
vt 0.991548 0.588860
vt 0.011175 0.588860
vt 0.304823 0.374101
vt 0.213847 0.376999
vt 0.211008 0.374101
vt 0.260842 0.401269
vt 0.258462 0.376795
vt 0.304823 0.400879
vt 0.991546 0.457972
vt 0.991546 0.503182
vt 0.011175 0.503182
vt 0.011175 0.457972
vt 0.011175 0.455096
vt 0.991546 0.455096
vt 0.011175 0.518948
vt 0.991548 0.518948
vt 0.991548 0.544355
vt 0.011175 0.544355
vt 0.991548 0.588860
vt 0.011175 0.588860
vt 0.307251 0.374284
vt 0.401066 0.374284
vt 0.351232 0.401452
vt 0.398227 0.377181
vt 0.353612 0.376977
vt 0.307251 0.401062
vt 0.991546 0.457972
vt 0.991546 0.503182
vt 0.011175 0.503182
vt 0.011175 0.457972
vt 0.011175 0.455096
vt 0.991546 0.455096
vt 0.011175 0.518948
vt 0.991548 0.518948
vt 0.991548 0.544355
vt 0.011175 0.544355
vt 0.991548 0.588860
vt 0.011175 0.588860
vt 0.304823 0.374101
vt 0.213847 0.376999
vt 0.211008 0.374101
vt 0.260842 0.401269
vt 0.258462 0.376795
vt 0.304823 0.400879
vt -9.141313 0.388577
vt -9.141313 0.018719
vt 9.151420 0.018719
vt 9.151420 0.388577
vt -10.146366 0.388577
vt -10.146366 0.018719
vt 8.146366 0.018719
vt 8.146366 0.388577
vt -9.141313 0.979906
vt -9.141313 0.555311
vt 9.151420 0.555311
vt 9.151420 0.979906
vt -9.141313 0.979906
vt -9.141313 0.555311
vt 9.151420 0.555311
vt 9.151420 0.979906
vt 0.500000 1.000000
vt 0.500000 0.000000
vt 1.000000 0.000000
vt 1.000000 1.000000
vt 0.000000 1.000000
vt 0.000000 0.000000
vt 0.500000 1.000000
vt 0.500000 0.000000
vt 1.000000 0.000000
vt 1.000000 1.000000
vt 0.000000 1.000000
vt 0.000000 0.000000
vt -4.568130 0.555311
vt 0.005054 0.555311
vt 4.578237 0.555311
vt -4.568130 0.979906
vt 0.005054 0.979906
vt 4.578237 0.979906
vt -5.573183 0.018719
vt -1.000000 0.018719
vt 3.573184 0.018719
vt -5.573183 0.388577
vt -1.000000 0.388577
vt 3.573184 0.388577
vt -4.568130 0.018719
vt 0.005054 0.018719
vt 4.578237 0.018719
vt -4.568130 0.388577
vt 0.005054 0.388577
vt 4.578237 0.388577
vt -4.568130 0.555311
vt 0.005054 0.555311
vt 4.578237 0.555311
vt -4.568130 0.979906
vt 0.005054 0.979906
vt 4.578237 0.979906
vt 0.501360 0.503182
vt 0.501362 0.518948
vt 0.501362 0.544355
vt 0.501360 0.455096
vt 0.501362 0.588860
vt 0.501360 0.457972
vt 0.501360 0.503182
vt 0.501362 0.518948
vt 0.501362 0.544355
vt 0.501360 0.455096
vt 0.501362 0.588860
vt 0.501360 0.457972
vt 0.750000 0.000000
vt 0.750000 1.000000
vt 0.750000 0.000000
vt 0.750000 1.000000
vt 0.250000 0.000000
vt 0.250000 1.000000
vt 0.250000 0.000000
vt 0.250000 1.000000
vt 0.333493 0.500000
vt 0.333492 0.000000
vt 0.333493 1.000000
vt -0.000012 0.500000
vt 0.000092 0.000000
vt 0.000039 1.000033
vt 0.416746 1.000000
vt 0.417581 0.997807
vt 0.417246 0.500000
vt 0.417164 0.001263
vt 0.084479 0.998907
vt 0.084680 0.467043
vt 0.085556 0.002527
vt 0.083442 0.000000
vt 0.333493 0.500000
vt 0.333492 0.000000
vt 0.333493 1.000000
vt -0.000012 0.500000
vt 0.000092 0.000000
vt 0.000039 1.000033
vt 0.416746 1.000000
vt 0.417581 0.997807
vt 0.416747 0.500000
vt 0.416746 0.000000
vt 0.083402 1.000025
vt 0.083364 0.500000
vt 0.085556 0.002527
vt 0.083442 0.000000
vt 0.501360 0.503182
vt 0.501362 0.518948
vt 0.501362 0.544355
vt 0.501360 0.455096
vt 0.501362 0.588860
vt 0.501360 0.457972
vt 0.501377 0.544355
vt 0.501376 0.503182
vt 0.501377 0.518948
vt 0.501376 0.457972
vt 0.501376 0.455096
vt 0.501377 0.588860
vn 0.000000 1.000000 0.000000
vn 0.000000 1.000000 0.000000
vn 0.000000 1.000000 0.000000
vn 0.000000 1.000000 0.000000
vn 0.000000 1.000000 0.000000
vn 0.000000 1.000000 0.000000
vn 0.000000 1.000000 0.000000
vn 0.000000 1.000000 0.000000
vn 0.000000 1.000000 0.000000
vn 0.000000 1.000000 0.000000
vn 0.000000 1.000000 0.000000
vn 0.000000 1.000000 0.000000
vn 0.000000 1.000000 0.000000
vn 0.000000 1.000000 0.000000
vn 0.000000 1.000000 0.000000
vn 0.000000 1.000000 0.000000
vn 0.000000 1.000000 0.000000
vn 0.000000 1.000000 0.000000
vn 0.000000 1.000000 0.000000
vn 0.000000 1.000000 0.000000
vn 0.000000 1.000000 0.000000
vn 0.000000 1.000000 0.000000
vn 0.000000 1.000000 0.000000
vn 0.000000 1.000000 0.000000
vn 0.000000 1.000000 -0.000000
vn 0.000000 1.000000 -0.000000
vn 0.000000 1.000000 -0.000000
vn 0.000000 1.000000 -0.000000
vn 0.000000 1.000000 -0.000000
vn 0.000000 1.000000 -0.000000
vn 0.000000 1.000000 -0.000000
vn 0.000000 1.000000 -0.000000
vn 0.000000 1.000000 0.000000
vn 0.000000 1.000000 0.000000
vn 0.000000 1.000000 0.000000
vn 0.000000 1.000000 0.000000
vn 0.000000 1.000000 -0.000000
vn 0.000000 1.000000 -0.000000
vn 0.000000 1.000000 -0.000000
vn 0.000000 1.000000 -0.000000
vn 0.000000 1.000000 0.000000
vn 0.000000 1.000000 0.000000
vn 0.000000 1.000000 0.000000
vn 0.000000 1.000000 0.000000
vn 0.000000 1.000000 0.000000
vn 0.000000 1.000000 0.000000
vn 0.000000 1.000000 0.000000
vn 0.000000 1.000000 0.000000
vn 0.000000 1.000000 0.000000
vn 0.000000 1.000000 0.000000
vn 0.000000 1.000000 0.000000
vn 0.000000 1.000000 0.000000
vn 0.000000 1.000000 -0.000000
vn 0.000000 1.000000 -0.000000
vn 0.000000 1.000000 -0.000000
vn 0.000000 1.000000 -0.000000
vn 0.000000 1.000000 0.000000
vn 0.000000 1.000000 0.000000
vn 0.000000 1.000000 0.000000
vn 0.000000 1.000000 0.000000
vn -0.000000 1.000000 0.000000
vn -0.000000 1.000000 0.000000
vn -0.000000 1.000000 0.000000
vn -0.000000 1.000000 0.000000
vn 0.000000 0.998393 0.056677
vn 0.000000 0.999990 -0.004564
vn 0.000000 0.999990 -0.004564
vn 0.000000 0.998393 0.056677
vn 0.000000 0.699799 0.714340
vn 0.000000 0.699799 0.714340
vn -0.000653 0.999960 -0.008872
vn -0.000549 0.887404 0.460992
vn -0.001099 0.887404 0.460992
vn -0.001305 0.999960 -0.008872
vn -0.001305 0.999960 -0.008872
vn -0.001305 0.999960 -0.008872
vn -0.001305 0.999960 -0.008872
vn -0.001305 0.999960 -0.008872
vn 0.000000 0.096784 0.995305
vn 0.000000 0.096784 0.995305
vn -1.000000 0.000000 -0.000000
vn -1.000000 0.000000 -0.000000
vn -1.000000 0.000000 -0.000000
vn -1.000000 0.000000 -0.000000
vn -1.000000 0.000000 -0.000000
vn -1.000000 -0.000000 -0.000000
vn -1.000000 -0.000000 -0.000000
vn -1.000000 -0.000000 -0.000000
vn 0.000000 0.998393 0.056677
vn 0.000000 0.999990 -0.004564
vn 0.000000 0.999990 -0.004564
vn 0.000000 0.998393 0.056677
vn 0.000000 0.699799 0.714340
vn 0.000000 0.699799 0.714339
vn 0.000653 0.999960 -0.008872
vn 0.000549 0.887404 0.460992
vn 0.000000 0.887404 0.460992
vn 0.000000 0.999961 -0.008872
vn 0.000000 0.096784 0.995305
vn 0.000000 0.096784 0.995305
vn 1.000000 0.000000 0.000000
vn 1.000000 0.000000 0.000000
vn 1.000000 0.000000 0.000000
vn 1.000000 0.000000 0.000000
vn 1.000000 0.000000 0.000000
vn 1.000000 -0.000012 0.000000
vn 1.000000 -0.000012 0.000000
vn 1.000000 -0.000012 0.000000
vn 0.000000 0.998393 -0.056677
vn 0.000000 0.999990 0.004564
vn 0.000000 0.999990 0.004564
vn 0.000000 0.998393 -0.056677
vn 0.000000 0.699799 -0.714340
vn 0.000000 0.699799 -0.714340
vn 0.000000 0.999961 0.008872
vn 0.000000 0.887404 -0.460993
vn 0.000000 0.887404 -0.460992
vn 0.000000 0.999961 0.008872
vn 0.000000 0.096784 -0.995305
vn 0.000000 0.096784 -0.995305
vn 1.000000 0.000001 0.000000
vn 1.000000 0.000000 0.000000
vn 1.000000 0.000001 0.000000
vn 1.000000 0.000002 0.000000
vn 1.000000 0.000000 0.000000
vn 1.000000 -0.000009 0.000000
vn 1.000000 -0.000009 0.000000
vn 1.000000 -0.000009 0.000000
vn 0.000000 0.998393 -0.056677
vn 0.000000 0.999990 0.004564
vn 0.000000 0.999990 0.004564
vn 0.000000 0.998393 -0.056677
vn 0.000000 0.699799 -0.714340
vn 0.000000 0.699799 -0.714340
vn 0.000000 0.999961 0.008872
vn 0.000000 0.887404 -0.460993
vn 0.000000 0.887404 -0.460992
vn 0.000000 0.999961 0.008872
vn 0.000000 0.096784 -0.995305
vn 0.000000 0.096784 -0.995305
vn -1.000000 0.000000 -0.000000
vn -1.000000 0.000000 -0.000000
vn -1.000000 0.000000 -0.000000
vn -1.000000 0.000000 -0.000000
vn -1.000000 0.000000 -0.000000
vn -1.000000 -0.000004 -0.000003
vn -1.000000 -0.000004 -0.000003
vn -1.000000 -0.000004 -0.000003
vn 0.000000 1.000000 0.000000
vn 0.000000 1.000000 0.000000
vn 0.000000 1.000000 0.000000
vn 0.000000 1.000000 0.000000
vn 0.000000 1.000000 0.000000
vn 0.000000 1.000000 0.000000
vn 0.000000 1.000000 0.000000
vn 0.000000 1.000000 0.000000
vn 0.000000 1.000000 0.000000
vn 0.000000 1.000000 0.000000
vn 0.000000 1.000000 0.000000
vn 0.000000 1.000000 0.000000
vn 0.000000 1.000000 0.000000
vn 0.000000 1.000000 0.000000
vn 0.000000 1.000000 0.000000
vn 0.000000 1.000000 0.000000
vn 0.000000 1.000000 0.000000
vn 0.000000 1.000000 0.000000
vn 0.000000 1.000000 0.000000
vn 0.000000 1.000000 0.000000
vn 0.000000 1.000000 0.000000
vn 0.000000 1.000000 0.000000
vn 0.000000 1.000000 0.000000
vn 0.000000 1.000000 0.000000
vn 0.000000 1.000000 0.000000
vn 0.000000 1.000000 0.000000
vn 0.000000 1.000000 0.000000
vn 0.000000 1.000000 0.000000
vn 0.000000 1.000000 0.000000
vn 0.000000 1.000000 0.000000
vn 0.000000 1.000000 0.000000
vn 0.000000 1.000000 0.000000
vn 0.000000 1.000000 0.000000
vn 0.000000 1.000000 0.000000
vn 0.000000 1.000000 0.000000
vn 0.000000 1.000000 0.000000
vn 0.000000 1.000000 0.000000
vn 0.000000 1.000000 0.000000
vn 0.000000 1.000000 0.000000
vn 0.000000 1.000000 0.000000
vn 0.000000 1.000000 0.000000
vn 0.000000 1.000000 0.000000
vn 0.000000 1.000000 0.000000
vn 0.000000 1.000000 0.000000
vn 0.000000 1.000000 0.000000
vn 0.000000 1.000000 0.000000
vn 0.000000 1.000000 0.000000
vn 0.000000 1.000000 0.000000
vn 0.000000 1.000000 0.000000
vn 0.000000 1.000000 0.000000
vn 0.000000 1.000000 0.000000
vn 0.000000 1.000000 0.000000
vn 0.000000 1.000000 0.000000
vn 0.000000 1.000000 0.000000
vn 0.000000 1.000000 0.000000
vn 0.000000 1.000000 0.000000
vn 0.000000 0.096784 -0.995305
vn 0.000000 0.887404 -0.460993
vn 0.000000 0.999961 0.008872
vn 0.000000 0.699799 -0.714340
vn 0.000000 0.998393 -0.056677
vn 0.000000 0.999990 0.004564
vn 0.000000 0.096784 -0.995305
vn 0.000000 0.887404 -0.460993
vn 0.000000 0.999961 0.008872
vn 0.000000 0.699799 -0.714340
vn 0.000000 0.998393 -0.056677
vn 0.000000 0.999990 0.004564
vn 0.000000 1.000000 0.000000
vn 0.000000 1.000000 0.000000
vn 0.000000 1.000000 0.000000
vn 0.000000 1.000000 0.000000
vn 0.000097 0.010452 0.999945
vn 0.000097 0.010452 0.999945
vn 0.000097 0.010452 0.999945
vn 0.000097 0.010452 0.999945
vn 0.000865 0.013172 0.999913
vn 0.000865 0.013172 0.999913
vn 0.000865 0.013172 0.999913
vn 0.000865 0.013172 0.999913
vn 0.000865 0.013172 0.999913
vn -0.000961 0.013714 0.999906
vn -0.000961 0.013714 0.999906
vn -0.000961 0.013714 0.999906
vn -0.000961 0.013714 0.999906
vn -0.000961 0.013714 0.999906
vn 0.000000 0.010998 0.999940
vn 0.000000 0.010998 0.999940
vn 0.000000 0.010998 0.999940
vn 0.000000 0.010998 0.999940
vn 0.000000 0.000000 -1.000000
vn 0.000000 0.000000 -1.000000
vn 0.000000 0.000000 -1.000000
vn 0.000000 0.000000 -1.000000
vn 0.000000 0.008261 -0.999966
vn 0.000000 0.008261 -0.999966
vn 0.000000 0.008261 -0.999966
vn 0.000000 0.008261 -0.999966
vn 0.000000 0.008261 -0.999966
vn 0.000000 0.008261 -0.999966
vn 0.000000 0.008261 -0.999966
vn 0.000000 0.008261 -0.999966
vn 0.000000 0.008261 -0.999966
vn 0.000000 0.008261 -0.999966
vn 0.000000 0.000000 -1.000000
vn 0.000000 0.000000 -1.000000
vn 0.000000 0.000000 -1.000000
vn 0.000000 0.000000 -1.000000
vn 0.000000 0.096784 0.995305
vn 0.000000 0.887404 0.460992
vn 0.000000 0.999961 -0.008872
vn 0.000000 0.699799 0.714340
vn 0.000000 0.998393 0.056677
vn 0.000000 0.999990 -0.004564
vn 0.001305 0.999960 -0.008872
vn 0.001099 0.887404 0.460992
vn 0.001305 0.999960 -0.008872
vn 0.001305 0.999960 -0.008872
vn 0.001305 0.999960 -0.008872
vn 0.001305 0.999960 -0.008872
vn 0.000000 0.096784 0.995305
vn 0.000000 0.999990 -0.004564
vn 0.000000 0.998393 0.056677
vn 0.000000 0.699799 0.714340
g Road_2L_VarB_LOD1 Road_2L_VarB
usemtl lambert8SG
f 2/2/1 3/3/2 4/4/3 1/1/4
f 3/3/5 5/5/6 6/6/7 4/4/8
f 1/1/9 4/4/10 7/7/11 8/8/12
f 4/4/13 6/6/14 9/9/15 7/7/16
f 11/11/17 12/12/18 13/13/19 10/10/20
f 12/12/21 1/14/22 8/15/23 13/13/24
f 14/19/25 15/17/26 12/16/27 11/18/28
f 15/17/29 2/20/30 1/21/31 12/16/32
f 17/23/33 18/24/34 19/25/35 16/22/36
f 18/24/37 20/26/38 21/27/39 19/25/40
f 16/22/41 19/25/42 22/28/43 23/29/44
f 19/25/45 21/27/46 24/30/47 22/28/48
f 26/32/49 27/33/50 28/34/51 25/31/52
f 27/33/53 16/35/54 23/36/55 28/34/56
f 29/40/57 30/38/58 27/37/59 26/39/60
f 30/38/61 17/41/62 16/42/63 27/37/64
usemtl lambert9SG
f 32/43/65 37/44/66 132/223/67 134/228/68
f 134/228/68 115/226/69 31/48/70 32/43/65
f 7/227/71 133/225/72 35/52/73 39/49/74 42/54/75 40/55/76 41/56/77 8/57/78
f 133/225/72 132/224/79 37/51/80 35/52/73
f 43/59/81 34/60/82 38/63/83
f 36/61/84 43/59/81 38/63/83
f 38/63/83 34/60/82 33/62/85
f 43/59/86 36/61/87 9/64/88
f 45/65/89 47/66/90 136/230/91 137/232/92
f 117/233/93 44/70/94 45/65/89 137/232/92
f 13/234/95 135/229/96 46/74/97 10/79/98
f 136/231/99 47/73/100 46/74/97 135/229/96
f 45/82/101 44/83/102 47/85/103
f 46/84/104 47/85/103 48/81/105
f 44/83/102 48/81/105 47/85/103
f 48/81/106 10/86/107 46/84/108
f 50/87/109 55/88/110 110/181/111 113/186/112
f 113/186/112 112/184/113 49/92/114 50/87/109
f 22/185/115 111/183/116 53/95/117 23/97/118
f 111/183/116 110/182/119 55/94/120 53/95/117
f 57/99/121 52/100/122 56/103/123
f 54/101/124 57/99/121 56/103/123
f 56/103/123 52/100/122 51/102/125
f 57/99/126 54/101/127 24/104/128
f 59/105/129 61/106/130 106/175/131 109/180/132
f 109/180/132 108/178/133 58/110/134 59/105/129
f 28/179/135 107/177/136 60/113/137 25/115/138
f 107/177/136 106/176/139 61/112/140 60/113/137
f 59/118/141 58/119/142 61/121/143
f 60/120/144 61/121/143 62/117/145
f 58/119/142 62/117/145 61/121/143
f 62/117/146 25/122/147 60/120/148
usemtl lambert7SG
f 63/123/149 64/124/150 94/163/151 97/166/152
f 67/127/153 68/128/154 88/157/155 91/160/156
f 71/131/157 72/132/158 100/169/159 103/172/160
f 75/135/161 76/136/162 82/151/163 85/154/164
usemtl lambert6SG
f 81/139/165 31/140/166 115/189/167 114/190/168
f 79/143/169 44/144/170 117/193/171 116/194/172
f 49/145/173 81/146/174 114/187/175 108/188/176
f 52/149/177 79/150/178 116/191/179 112/192/180
usemtl lambert7SG
f 87/156/181 84/153/182 78/137/183 77/138/184
f 86/155/185 83/152/186 84/153/182 87/156/181
f 85/154/164 82/151/163 83/152/186 86/155/185
f 93/162/187 90/159/188 70/129/189 69/130/190
f 92/161/191 89/158/192 90/159/188 93/162/187
f 91/160/156 88/157/155 89/158/192 92/161/191
f 99/168/193 96/165/194 66/125/195 65/126/196
f 98/167/197 95/164/198 96/165/194 99/168/193
f 97/166/152 94/163/151 95/164/198 98/167/197
f 105/174/199 102/171/200 74/133/201 73/134/202
f 104/173/203 101/170/204 102/171/200 105/174/199
f 103/172/160 100/169/159 101/170/204 104/173/203
usemtl lambert9SG
f 55/111/205 106/176/139 107/177/136 53/114/206
f 53/114/206 107/177/136 28/179/135 23/116/207
f 49/109/208 108/178/133 109/180/132 50/108/209
f 109/180/132 106/175/131 55/107/210 50/108/209
f 56/93/211 110/182/119 111/183/116 54/96/212
f 24/98/213 54/96/212 111/183/116 22/185/115
f 52/91/214 112/184/113 113/186/112 51/90/215
f 113/186/112 110/181/111 56/89/216 51/90/215
usemtl lambert6SG
f 108/188/176 114/187/175 80/147/217 58/148/218
f 114/190/168 115/189/167 34/141/219 80/142/220
f 112/192/180 116/191/179 81/146/174 49/145/173
f 116/194/172 117/193/171 31/140/166 81/139/165
usemtl lambert8SG
f 18/195/221 17/196/222 121/204/223 120/203/224
f 20/197/225 18/195/226 120/203/227 119/202/228 118/201/229
f 30/198/230 29/199/231 124/208/232 123/207/233 122/206/234
f 17/200/235 30/198/236 122/206/237 121/205/238
f 3/209/239 2/210/240 128/218/241 127/217/242
f 5/211/243 3/209/244 127/217/245 126/216/246 125/215/247
f 15/212/248 14/213/249 131/222/250 130/221/251 129/220/252
f 2/214/253 15/212/254 129/220/255 128/219/256
usemtl lambert9SG
f 38/50/257 132/224/79 133/225/72 36/53/258
f 9/58/259 36/53/258 133/225/72 7/227/71
f 34/47/260 115/226/69 134/228/68 33/46/261
f 134/228/68 132/223/67 38/45/262 33/46/261
f 39/71/263 35/75/264 135/229/96 13/234/95 8/80/265 41/78/266 40/77/267 42/76/268
f 37/72/269 136/231/99 135/229/96 35/75/264
f 137/232/92 136/230/91 37/67/270 32/68/271
f 31/69/272 117/233/93 137/232/92 32/68/271
