# This file uses meters as units for non-parametric coordinates.

mtllib Road_2L_Vare_LOD1.mtl
g default
v 500.000000 14.271708 -625.000000
v 250.000076 14.271714 -625.000000
v 0.000000 14.271714 -625.000000
v 750.000000 14.271653 -625.000000
v 1000.000305 14.271653 -625.000000
v 0.000000 -29.478273 -625.000000
v 0.665649 -29.827759 -625.725708
v 250.000031 -29.687965 -625.435486
v 499.334320 -29.827759 -625.725708
v 500.000000 -29.478273 -625.000000
v 500.665649 -29.827881 -625.725708
v 750.000000 -29.688084 -625.435486
v 999.334351 -29.827881 -625.725708
v 1000.000000 -29.478395 -625.000000
v -0.000000 0.000000 400.000000
v -0.000000 1.544250 401.512817
v -0.000000 14.271697 450.000061
v 500.000000 1.544250 401.512817
v 500.000000 14.271697 450.000061
v 500.000000 0.000000 400.000000
v -0.000000 9.319641 410.988953
v 500.000000 9.319641 410.988953
v -0.000000 1.412888 410.237457
v 500.000000 1.412888 410.237457
v -0.000000 0.000000 450.000000
v 1000.000000 1.544250 401.512817
v 999.999878 14.271697 450.000061
v 1000.000000 0.000000 400.000000
v 1000.000000 9.319641 410.988953
v 1000.000000 1.412888 410.237457
v 1000.000000 0.000000 450.000000
v 1000.000000 0.000000 -400.000000
v 1000.000000 1.544250 -401.512817
v 1000.000305 14.271697 -450.000061
v 500.000000 1.544250 -401.512817
v 500.000000 4.679300 -450.000061
v 500.000000 0.000000 -400.000000
v 1000.000000 9.319641 -410.988953
v 500.000000 2.103329 -410.988953
v 1000.000000 1.412888 -410.237457
v 500.000000 1.412888 -410.237457
v 1000.000000 0.000000 -450.000000
v 0.000000 1.544250 -401.512817
v 0.000000 14.271697 -450.000061
v 0.000000 0.000000 -400.000000
v 0.000000 9.319641 -410.988953
v 0.000000 1.412888 -410.237457
v 0.000000 0.000000 -450.000000
v 499.999939 14.271708 625.000000
v 749.999756 14.271714 625.000000
v 749.999878 14.271697 450.000153
v 999.999695 14.271714 625.000000
v -0.000122 14.271653 625.000000
v 249.999802 14.271653 625.000000
v 249.999954 14.271697 450.000153
v 250.000076 14.271697 -450.000153
v 750.000122 14.271697 -450.000153
v 1000.000000 0.000000 0.000000
v 0.000000 0.000000 0.000000
v 500.000000 0.000000 0.000000
v 999.999695 -29.478273 625.000000
v 999.334167 -29.827759 625.725708
v 749.999756 -29.687965 625.435486
v 500.665436 -29.827759 625.725708
v 499.999756 -29.478273 625.000000
v 499.334106 -29.827881 625.725708
v 249.999756 -29.688084 625.435486
v 0.665405 -29.827881 625.725708
v -0.000244 -29.478395 625.000000
v 249.999969 0.000000 0.000000
v 249.999969 0.000000 400.000000
v 249.999969 0.000000 -400.000000
v 750.000000 0.000000 0.000000
v 750.000000 0.000000 400.000000
v 750.000000 0.000000 -400.000000
v 250.000000 1.412888 410.237396
v 250.000000 9.319641 410.988953
v 250.000000 1.544250 401.512817
v 750.000000 1.412888 410.237396
v 750.000000 9.319641 410.988953
v 1000.000000 1.029500 401.008545
v 750.000000 1.544250 401.512817
v 750.000000 1.412888 -410.237396
v 750.000000 9.319641 -410.988953
v 750.000000 1.544250 -401.512817
v 249.999969 1.412888 -410.237396
v 249.999969 9.319641 -410.988953
v 0.000000 1.029500 -401.008545
v 249.999969 1.544250 -401.512817
v 1000.000000 0.595367 12.989105
v 1000.000000 0.595367 2.879669
v -0.000000 0.595367 12.989105
v -0.000000 0.595367 2.879669
v 750.000000 0.595367 2.879669
v 500.000000 0.595367 2.879669
v 249.999969 0.595367 2.879669
v 750.000000 0.595367 12.989105
v 500.000000 0.595367 12.989105
v 249.999969 0.595367 12.989105
v 1000.000000 0.595367 -2.879608
v 1000.000000 0.595367 -12.989074
v 0.000000 0.595367 -2.879608
v 0.000000 0.595367 -12.989074
v 750.000000 0.595367 -12.989073
v 500.000000 0.595367 -12.989074
v 249.999969 0.595367 -12.989074
v 750.000000 0.595367 -2.879608
v 500.000000 0.595367 -2.879608
v 249.999969 0.595367 -2.879608
v 1000.000000 0.595367 370.579712
v 1000.000000 0.595367 360.470276
v -0.000000 0.595367 370.579712
v -0.000000 0.595367 360.470276
v 750.000000 0.595367 360.470276
v 500.000000 0.595367 360.470276
v 249.999969 0.595367 360.470276
v 750.000000 0.595367 370.579712
v 500.000000 0.595367 370.579712
v 249.999969 0.595367 370.579712
v 1000.000000 0.595367 -360.470276
v 1000.000000 0.595367 -370.579712
v 0.000000 0.595367 -360.470276
v 0.000000 0.595367 -370.579712
v 750.000000 0.595367 -370.579712
v 500.000000 0.595367 -370.579712
v 249.999969 0.595367 -370.579712
v 750.000000 0.595367 -360.470276
v 500.000000 0.595367 -360.470276
v 249.999969 0.595367 -360.470276
v 332.667969 14.271711 -625.000000
v 332.667969 4.679300 -450.000153
v 332.667969 2.103329 -410.988953
v 332.667969 1.412888 -410.237396
v 332.667969 1.544250 -401.512817
v 332.667969 0.000000 -400.000000
v 333.333313 0.000000 0.000000
v 332.667969 0.000000 400.000000
v 332.667969 1.544250 401.512817
v 332.667969 1.412888 410.237396
v 332.667969 9.319641 410.988953
v 332.667969 14.271697 450.000153
v 332.667969 14.271681 625.000000
v 666.666626 14.271681 -625.000000
v 666.666626 4.679300 -450.000153
v 666.666626 2.103329 -410.988953
v 666.666626 1.412888 -410.237396
v 666.666626 1.544250 -401.512817
v 666.666626 0.000000 -400.000000
v 666.666626 0.000000 0.000000
v 666.666626 0.000000 400.000000
v 666.666626 1.544250 401.512817
v 666.666626 1.412888 410.237396
v 666.666626 9.319641 410.988953
v 666.666626 14.271697 450.000153
v 666.666626 14.271711 625.000000
vt 0.333493 0.500000
vt 0.333492 0.000000
vt 0.416746 0.000000
vt 0.417581 0.002527
vt 0.417246 0.500000
vt 0.333493 1.000000
vt 0.417581 0.997807
vt 0.416746 1.000000
vt -0.000012 0.500000
vt 0.000092 0.000000
vt 0.083442 0.000000
vt 0.085556 0.002527
vt 0.084680 0.500000
vt 0.000039 1.000033
vt 0.085556 0.997790
vt 0.083402 1.000025
vt 0.991549 0.759366
vt 0.991548 0.776257
vt 0.501380 0.776257
vt 0.501380 0.759366
vt 0.501380 0.756437
vt 0.991548 0.756437
vt 0.501362 0.876894
vt 0.501362 0.802773
vt 0.991548 0.802773
vt 0.991548 0.876894
vt 0.501362 0.787458
vt 0.991548 0.787458
vt 0.015838 0.413358
vt 0.012999 0.410461
vt 0.032208 0.413112
vt 0.033618 0.427947
vt 0.106814 0.410461
vt 0.106814 0.437239
vt 0.991549 0.759366
vt 0.991548 0.776257
vt 0.501380 0.776257
vt 0.501380 0.759366
vt 0.011212 0.756437
vt 0.501380 0.756437
vt 0.011212 0.758389
vt 0.991548 0.756437
vt 0.011212 0.759366
vt 0.501362 0.876894
vt 0.501362 0.802773
vt 0.991548 0.802773
vt 0.991548 0.876894
vt 0.501362 0.787458
vt 0.991548 0.787458
vt 0.109486 0.410653
vt 0.203300 0.410653
vt 0.184092 0.413304
vt 0.182682 0.428139
vt 0.201408 0.412584
vt 0.200462 0.413550
vt 0.109486 0.437431
vt 0.991549 0.759366
vt 0.991548 0.776257
vt 0.501380 0.776257
vt 0.501380 0.759366
vt 0.501380 0.756437
vt 0.991548 0.756437
vt 0.501362 0.876894
vt 0.501362 0.802773
vt 0.991548 0.802773
vt 0.991548 0.876894
vt 0.501362 0.787458
vt 0.991548 0.787458
vt 0.015838 0.413358
vt 0.012999 0.410461
vt 0.032208 0.413112
vt 0.033618 0.427947
vt 0.106814 0.410461
vt 0.106814 0.437239
vt 0.991549 0.759366
vt 0.991548 0.776257
vt 0.501380 0.776257
vt 0.501380 0.759366
vt 0.011212 0.758389
vt 0.011212 0.756437
vt 0.501380 0.756437
vt 0.011212 0.759366
vt 0.991548 0.756437
vt 0.501362 0.876894
vt 0.501362 0.802773
vt 0.991548 0.789943
vt 0.991548 0.874128
vt 0.501362 0.787458
vt 0.991548 0.787458
vt 0.109486 0.410653
vt 0.203300 0.410653
vt 0.184092 0.413304
vt 0.182682 0.428139
vt 0.201408 0.412584
vt 0.200462 0.413550
vt 0.109486 0.437431
vt 0.666508 0.000000
vt 0.666507 0.500000
vt 0.333493 0.500000
vt 0.333492 0.000000
vt 0.666507 1.000000
vt 0.333493 1.000000
vt 0.666508 0.000000
vt 0.666507 0.500000
vt 0.333493 0.500000
vt 0.333492 0.000000
vt 0.666507 1.000000
vt 0.333493 1.000000
vt 0.666508 0.000000
vt 0.666507 0.500000
vt 0.333493 0.500000
vt 0.333307 -0.000000
vt 0.666507 1.000000
vt 0.333493 1.000000
vt 0.666508 0.000000
vt 0.666507 0.500000
vt 0.333493 0.500000
vt 0.333492 0.000000
vt 0.666507 1.000000
vt 0.333306 1.000000
vt 0.500000 1.000000
vt 0.500000 0.000000
vt 0.750000 0.000000
vt 0.750000 1.000000
vt 0.000000 1.000000
vt 0.000000 0.000000
vt 0.250000 0.000000
vt 0.250000 1.000000
vt 0.500000 1.000000
vt 0.500000 0.000000
vt 0.750000 0.000000
vt 0.750000 1.000000
vt 0.000000 1.000000
vt 0.000000 0.000000
vt 0.250000 0.000000
vt 0.250000 1.000000
vt 0.333493 0.500000
vt 0.333492 0.000000
vt 0.416746 0.000000
vt 0.417581 0.002527
vt 0.417246 0.500000
vt 0.333493 1.000000
vt 0.417581 0.997807
vt 0.416746 1.000000
vt -0.000012 0.500000
vt 0.000092 0.000000
vt 0.083442 0.000000
vt 0.085556 0.002527
vt 0.084680 0.500000
vt 0.000039 1.000033
vt 0.085556 0.997790
vt 0.083402 1.000025
vt 1.000000 0.000000
vt 1.000000 1.000000
vt 1.000000 0.000000
vt 1.000000 1.000000
vt 0.011176 0.787458
vt 0.011176 0.802773
vt 0.011176 0.876894
vt 0.011212 0.756437
vt 0.011212 0.759366
vt 0.011212 0.776257
vt 0.011176 0.787458
vt 0.011176 0.802773
vt 0.011176 0.876894
vt 0.011212 0.776257
vt 0.011176 0.787458
vt 0.011176 0.789944
vt 0.011176 0.874128
vt 0.011212 0.756437
vt 0.011212 0.759366
vt 0.011212 0.776257
vt 0.011176 0.787458
vt 0.011176 0.802773
vt 0.011176 0.876894
vt 0.011212 0.776257
vt -9.141313 0.388577
vt -9.141313 0.018719
vt -4.568130 0.018719
vt -4.568130 0.388577
vt 4.578237 0.388577
vt 4.578237 0.018719
vt 9.151420 0.018719
vt 9.151420 0.388577
vt 0.005054 0.388577
vt 0.005054 0.018719
vt -10.146366 0.388577
vt -10.146366 0.018719
vt -5.573183 0.018719
vt -5.573183 0.388577
vt 3.573184 0.388577
vt 3.573184 0.018719
vt 8.146366 0.018719
vt 8.146366 0.388577
vt -1.000000 0.388577
vt -1.000000 0.018719
vt -9.141313 0.979906
vt -9.141313 0.555311
vt -4.568130 0.555311
vt -4.568130 0.979906
vt 4.578237 0.979906
vt 4.578237 0.555311
vt 9.151420 0.555311
vt 9.151420 0.979906
vt 0.005054 0.979906
vt 0.005054 0.555311
vt -9.141313 0.979906
vt -9.141313 0.555311
vt -4.568130 0.555311
vt -4.568130 0.979906
vt 4.578237 0.979906
vt 4.578237 0.555311
vt 9.151420 0.555311
vt 9.151420 0.979906
vt 0.005054 0.979906
vt 0.005054 0.555311
vt 0.666507 0.334664
vt 0.333493 0.334595
vt 0.663453 0.870013
vt 0.333493 0.334664
vt 0.663452 0.789943
vt 0.663465 0.776257
vt 0.663451 0.787457
vt 0.663465 0.759366
vt 0.667332 0.000000
vt 0.663464 0.756438
vt 0.666667 0.000000
vt 0.666667 1.000000
vt 0.339296 0.756438
vt 0.667332 1.000000
vt 0.339296 0.759366
vt 0.339296 0.776257
vt 0.339272 0.787458
vt 0.339272 0.802773
vt 0.339272 0.876894
vt 0.333493 0.665336
vt 0.000008 0.665400
vt 0.666507 0.665336
vt 0.666507 0.666667
vt 0.000008 0.666730
vt 0.337967 0.870013
vt 0.333492 0.666667
vt 0.337967 0.789945
vt 0.337991 0.776257
vt 0.337967 0.787460
vt 0.337991 0.759366
vt 0.333333 0.000000
vt 0.337991 0.756437
vt 0.333333 0.000000
vt 0.333333 1.000000
vt 0.664770 0.756436
vt 0.333333 1.000000
vt 0.664770 0.759366
vt 0.664770 0.776257
vt 0.664761 0.787460
vt 0.664758 0.802773
vt 0.664758 0.876894
vt 0.333493 0.333334
vt 0.333493 0.333266
vt 0.666507 0.333334
vn 0.000865 0.013172 -0.999913
vn 0.000865 0.013172 -0.999913
vn 0.000865 0.013172 -0.999913
vn 0.000865 0.013172 -0.999913
vn 0.000865 0.013172 -0.999913
vn 0.000865 0.013172 -0.999913
vn -0.000865 0.013172 -0.999913
vn -0.000865 0.013172 -0.999913
vn -0.000865 0.013172 -0.999913
vn -0.000865 0.013172 -0.999913
vn -0.000865 0.013172 -0.999913
vn 0.000865 0.013172 -0.999913
vn 0.000865 0.013172 -0.999913
vn 0.000865 0.013172 -0.999913
vn 0.000865 0.013172 -0.999913
vn 0.000865 0.013172 -0.999913
vn -0.000865 0.013172 -0.999913
vn -0.000865 0.013172 -0.999913
vn -0.000865 0.013172 -0.999913
vn -0.000865 0.013172 -0.999913
vn -0.000865 0.013172 -0.999913
vn -0.000865 0.013172 -0.999913
vn 0.000000 0.990610 -0.136716
vn 0.000000 0.999887 0.015055
vn 0.000000 0.999887 0.015055
vn 0.000000 0.990610 -0.136716
vn 0.000000 0.699799 -0.714340
vn 0.000000 0.699799 -0.714340
vn 0.000000 0.992039 -0.125929
vn -0.000000 0.951484 -0.307699
vn 0.000000 0.951484 -0.307699
vn 0.000000 0.992039 -0.125929
vn -0.000000 0.094623 -0.995513
vn -0.000000 0.094622 -0.995513
vn -1.000000 0.000000 -0.000000
vn -1.000000 0.000000 -0.000000
vn -1.000000 -0.000000 -0.000000
vn -1.000000 -0.000000 -0.000000
vn -1.000000 -0.000000 -0.000000
vn -1.000000 0.000000 -0.000000
vn -1.000000 0.000000 -0.000000
vn -1.000000 0.000000 -0.000000
vn 0.000000 0.990610 -0.136716
vn 0.000000 0.999887 0.015055
vn 0.000000 0.999887 0.015055
vn 0.000000 0.994620 -0.103588
vn 0.000000 0.699799 -0.714340
vn 0.000000 0.699799 -0.714340
vn 0.000000 0.699799 -0.714340
vn 0.000000 0.699799 -0.714340
vn 0.000000 0.995770 -0.091886
vn -0.000000 0.992039 -0.125929
vn -0.000000 0.951484 -0.307699
vn 0.000000 0.951484 -0.307699
vn 0.000000 0.992039 -0.125929
vn 0.000000 0.094623 -0.995513
vn -0.000000 0.094623 -0.995513
vn 1.000000 0.000004 0.000000
vn 1.000000 0.000000 0.000000
vn 1.000000 0.000003 0.000000
vn 1.000000 0.000005 0.000000
vn 1.000000 0.000000 0.000000
vn 1.000000 0.000000 0.000000
vn 1.000000 0.000009 0.000002
vn 1.000000 0.000009 0.000002
vn 1.000000 0.000009 0.000002
vn 0.000000 0.990610 0.136716
vn 0.000000 0.999887 -0.015055
vn 0.000000 0.999887 -0.015055
vn 0.000000 0.990610 0.136716
vn 0.000000 0.699799 0.714340
vn 0.000000 0.699799 0.714340
vn -0.024855 0.992643 0.118500
vn -0.024057 0.959766 0.279770
vn -0.000000 0.951484 0.307698
vn -0.000000 0.992039 0.125929
vn -0.001155 0.106677 0.994293
vn 0.000000 0.094622 0.995513
vn 1.000000 0.000000 0.000000
vn 1.000000 0.000000 0.000000
vn 1.000000 0.000000 0.000000
vn 1.000000 0.000000 0.000000
vn 1.000000 0.000000 0.000000
vn 1.000000 -0.000014 0.000005
vn 1.000000 -0.000014 0.000005
vn 1.000000 -0.000014 0.000005
vn 0.000000 0.990610 0.136716
vn 0.000000 0.999887 -0.015055
vn 0.000000 0.999887 -0.015055
vn 0.000000 0.990610 0.136716
vn 0.000000 0.699799 0.714340
vn 0.000000 0.699799 0.714340
vn 0.000000 0.699799 0.714340
vn 0.000000 0.990610 0.136716
vn 0.000000 0.990610 0.136716
vn 0.000000 0.699799 0.714340
vn 0.000000 0.699799 0.714340
vn 0.033610 0.996551 0.075872
vn 0.032909 0.991937 0.122381
vn -0.000000 0.996643 0.081872
vn -0.000000 0.997827 0.065888
vn 0.005349 0.370583 0.928784
vn 0.000000 0.736401 0.676546
vn -1.000000 0.000000 -0.000000
vn -1.000000 -0.000000 -0.000000
vn -1.000000 0.000000 -0.000000
vn -1.000000 0.000000 -0.000000
vn -1.000000 -0.000000 -0.000000
vn -1.000000 -0.000000 -0.000000
vn -1.000000 -0.000000 -0.000000
vn -1.000000 -0.000000 -0.000000
vn -1.000000 -0.000000 -0.000000
vn -0.000000 1.000000 -0.000000
vn -0.000000 1.000000 -0.000000
vn -0.000000 1.000000 -0.000000
vn -0.000000 1.000000 -0.000000
vn -0.000000 1.000000 -0.000000
vn -0.000000 1.000000 -0.000000
vn -0.000000 1.000000 -0.000000
vn -0.000000 1.000000 -0.000000
vn -0.000000 1.000000 0.000000
vn -0.000000 1.000000 0.000000
vn -0.000000 1.000000 0.000000
vn -0.000000 1.000000 0.000000
vn -0.000000 1.000000 0.000000
vn -0.000000 1.000000 0.000000
vn -0.000000 1.000000 0.000000
vn -0.000000 1.000000 0.000000
vn 0.000000 0.998501 0.054732
vn 0.019161 0.998772 0.045695
vn 0.019110 0.998772 0.045719
vn 0.000000 0.998501 0.054732
vn 0.000000 1.000000 0.000000
vn 0.000000 1.000000 0.000000
vn 0.000000 1.000000 0.000000
vn 0.000000 1.000000 0.000000
vn 0.000000 1.000000 -0.000000
vn 0.000000 1.000000 -0.000000
vn 0.000000 1.000000 -0.000000
vn 0.000000 1.000000 -0.000000
vn -0.057438 0.997974 0.027351
vn -0.019161 0.998775 0.045622
vn -0.019110 0.998775 0.045646
vn -0.057438 0.997974 0.027351
vn 0.000000 1.000000 0.000000
vn 0.000000 1.000000 0.000000
vn 0.000000 1.000000 0.000000
vn 0.000000 1.000000 0.000000
vn 0.000000 1.000000 0.000000
vn 0.000000 1.000000 0.000000
vn 0.000000 1.000000 0.000000
vn 0.000000 1.000000 0.000000
vn 0.000000 1.000000 0.000000
vn 0.000000 1.000000 0.000000
vn 0.000000 1.000000 0.000000
vn 0.000000 1.000000 0.000000
vn 0.000000 1.000000 0.000000
vn 0.000000 1.000000 0.000000
vn 0.000000 1.000000 0.000000
vn 0.000000 1.000000 0.000000
vn -0.000865 0.013172 0.999913
vn -0.000865 0.013172 0.999913
vn -0.000865 0.013172 0.999913
vn -0.000865 0.013172 0.999913
vn -0.000865 0.013172 0.999913
vn -0.000865 0.013172 0.999913
vn 0.000865 0.013172 0.999913
vn 0.000865 0.013172 0.999913
vn 0.000865 0.013172 0.999913
vn 0.000865 0.013172 0.999913
vn 0.000865 0.013172 0.999913
vn -0.000865 0.013172 0.999913
vn -0.000865 0.013172 0.999913
vn -0.000865 0.013172 0.999913
vn -0.000865 0.013172 0.999913
vn -0.000865 0.013172 0.999913
vn 0.000865 0.013172 0.999913
vn 0.000865 0.013172 0.999913
vn 0.000865 0.013172 0.999913
vn 0.000865 0.013172 0.999913
vn 0.000865 0.013172 0.999913
vn 0.000865 0.013172 0.999913
vn 0.000000 1.000000 0.000000
vn 0.000000 1.000000 0.000000
vn 0.000000 1.000000 0.000000
vn 0.000000 1.000000 0.000000
vn 0.000000 1.000000 0.000000
vn 0.000000 1.000000 0.000000
vn 0.000000 1.000000 0.000000
vn 0.000000 1.000000 0.000000
vn 0.000000 1.000000 0.000000
vn 0.000000 1.000000 0.000000
vn 0.000000 1.000000 0.000000
vn 0.000000 1.000000 0.000000
vn 0.000000 0.094622 -0.995513
vn 0.000000 0.094623 -0.995513
vn -0.000000 0.951484 -0.307699
vn -0.000000 0.951484 -0.307699
vn -0.000000 0.992039 -0.125929
vn -0.000000 0.992039 -0.125929
vn 0.000000 0.699799 -0.714340
vn 0.000000 0.699799 -0.714340
vn 0.000000 0.990610 -0.136716
vn 0.000000 0.990610 -0.136716
vn 0.000000 0.999887 0.015055
vn 0.000000 0.999887 0.015055
vn 0.000000 0.094622 -0.995513
vn 0.000000 0.951484 -0.307700
vn -0.000000 0.992039 -0.125929
vn 0.000000 0.999887 0.015055
vn -0.005326 0.368960 0.929430
vn -0.032908 0.991899 0.122695
vn -0.033608 0.996545 0.075952
vn 0.000000 0.699799 0.714340
vn 0.000000 0.990610 0.136716
vn 0.000000 0.999887 -0.015055
vn -0.000000 0.094622 0.995513
vn 0.001156 0.106596 0.994302
vn 0.024105 0.959719 0.279927
vn 0.000000 0.951484 0.307699
vn 0.000000 0.992039 0.125929
vn 0.024903 0.992636 0.118545
vn 0.000000 0.999887 -0.015055
vn 0.000000 0.999887 -0.015055
vn 0.000000 1.000000 0.000000
vn 0.000000 1.000000 0.000000
vn 0.000000 1.000000 0.000000
vn 0.000000 1.000000 0.000000
vn 0.000000 1.000000 0.000000
vn 0.000000 1.000000 0.000000
vn 0.000000 1.000000 0.000000
vn 0.000000 1.000000 0.000000
vn 0.000000 1.000000 0.000000
vn 0.000000 1.000000 0.000000
vn 0.000000 1.000000 0.000000
vn 0.000000 1.000000 0.000000
vn 0.000000 1.000000 0.000000
vn 0.000000 1.000000 0.000000
vn 0.000000 1.000000 0.000000
vn 0.000000 1.000000 0.000000
vn 0.000000 1.000000 0.000000
vn 0.000000 1.000000 0.000000
vn 0.000000 1.000000 0.000000
vn 0.000000 1.000000 0.000000
vn 0.000000 1.000000 0.000000
vn 0.000000 1.000000 0.000000
vn 0.000000 1.000000 0.000000
vn 0.000000 1.000000 0.000000
vn 0.000000 1.000000 0.000000
vn 0.000000 1.000000 0.000000
vn 0.000000 1.000000 0.000000
vn 0.000000 1.000000 0.000000
vn 0.000000 1.000000 0.000000
vn 0.000000 1.000000 0.000000
vn 0.000000 1.000000 0.000000
vn 0.000000 1.000000 0.000000
vn 0.000000 1.000000 0.000000
vn 0.000000 1.000000 0.000000
vn 0.000000 1.000000 0.000000
vn 0.000000 1.000000 0.000000
vn 0.000000 1.000000 0.000000
vn 0.000000 1.000000 0.000000
vn 0.000000 1.000000 0.000000
vn 0.000000 1.000000 0.000000
vn 0.057899 0.997948 0.027351
vn 0.057899 0.997948 0.027351
vn -0.000000 1.000000 0.000000
vn -0.000000 1.000000 0.000000
vn 0.000000 0.998501 0.054732
vn 0.000000 0.998501 0.054732
vn 0.000000 0.997827 0.065888
vn 0.000000 0.996643 0.081872
vn -0.000000 0.736401 0.676546
vn 0.000000 0.999887 -0.015055
vn 0.000000 0.990610 0.136716
vn 0.000000 0.699799 0.714340
vn 0.000000 0.699799 -0.714340
vn 0.000000 0.990610 -0.136716
vn 0.000000 0.999887 0.015055
vn -0.000000 0.094622 -0.995513
vn 0.000000 0.951484 -0.307699
vn 0.000000 0.992039 -0.125929
vn -0.000000 1.000000 -0.000000
vn -0.000000 1.000000 -0.000000
g Road_2L_Vare_LOD1 Road_2L_VarE
usemtl lambert8SG
f 2/1/1 130/218/2 1/2/3 10/3/4 9/4/5 8/5/6
f 3/6/7 2/1/8 8/5/9 7/7/10 6/8/11
f 4/9/12 5/10/13 14/11/14 13/12/15 12/13/16
f 1/14/17 143/240/18 4/9/19 12/13/20 11/15/21 10/16/22
usemtl lambert9SG
f 16/17/23 23/18/24 76/19/25 78/20/26
f 78/20/26 71/21/27 15/22/28 16/17/23
f 55/23/29 77/24/30 21/25/31 17/26/32
f 77/24/30 76/27/33 23/28/34 21/25/31
f 16/29/35 15/30/36 23/31/37
f 21/32/38 23/31/37 25/33/39
f 15/30/36 25/33/39 23/31/37
f 25/33/40 17/34/41 21/32/42
f 151/253/43 152/254/44 79/37/45 82/38/46
f 28/39/47 74/40/48 81/41/49
f 74/40/48 150/251/50 151/253/43 82/38/46
f 26/43/51 81/41/49 74/40/48 82/38/46
f 51/44/52 80/45/53 153/256/54 154/257/55
f 80/45/53 79/48/56 152/255/57 153/256/54
f 31/50/58 28/51/59 30/52/60
f 29/53/61 31/50/58 30/52/60
f 30/52/60 28/51/59 81/54/62 26/55/63
f 31/50/64 29/53/65 27/56/66
f 33/57/67 40/58/68 83/59/69 85/60/70
f 85/60/70 75/61/71 32/62/72 33/57/67
f 57/63/73 84/64/74 38/65/75 34/66/76
f 84/64/74 83/67/77 40/68/78 38/65/75
f 33/69/79 32/70/80 40/71/81
f 38/72/82 40/71/81 42/73/83
f 32/70/80 42/73/83 40/71/81
f 42/73/84 34/74/85 38/72/86
f 35/75/87 41/76/88 133/222/89 134/224/90
f 88/79/91 45/80/92 72/81/93 89/78/94 43/82/95
f 135/226/96 37/83/97 35/75/87 134/224/90
f 131/219/98 132/221/99 39/86/100 36/87/101
f 132/221/99 133/223/102 41/89/103 39/86/100
f 48/90/104 45/91/105 47/92/106
f 46/93/107 48/90/104 47/92/106
f 47/92/106 45/91/105 88/94/108 43/95/109
f 48/90/110 46/93/111 44/96/112
usemtl lambert8SG
f 155/260/113 50/98/114 51/99/115 154/258/116
f 50/98/117 52/101/118 27/102/119 51/99/120
f 53/103/121 54/104/122 55/105/123 17/106/124
f 142/238/125 49/107/126 19/108/127 141/236/128
f 1/109/129 130/217/130 131/220/131 36/112/132
f 2/110/133 3/113/134 44/114/135 56/111/136
f 5/115/137 4/116/138 57/117/139 34/118/140
f 4/116/141 143/239/142 144/242/143 57/117/144
usemtl lambert6SG
f 60/121/145 37/122/146 135/225/147 136/228/148
f 58/125/149 32/126/150 75/127/151 73/128/152
f 20/129/153 60/130/154 136/227/155 137/230/156
f 28/133/157 58/134/158 73/135/159 74/136/160
usemtl lambert8SG
f 50/137/161 155/259/162 49/138/163 65/139/164 64/140/165 63/141/166
f 52/142/167 50/137/168 63/141/169 62/143/170 61/144/171
f 54/145/172 53/146/173 69/147/174 68/148/175 67/149/176
f 49/150/177 142/237/178 54/145/179 67/149/180 66/151/181 65/152/182
usemtl lambert6SG
f 71/132/183 70/131/184 59/153/185 15/154/186
f 70/124/187 72/123/188 45/155/189 59/156/190
f 74/136/160 73/135/159 149/249/191 150/252/192
f 73/128/152 75/127/151 148/247/193 149/250/194
usemtl lambert9SG
f 24/157/195 139/233/196 140/234/197 22/158/198
f 19/159/199 22/158/198 140/234/197 141/235/200
f 20/160/201 137/229/202 138/231/203 18/161/204
f 138/231/203 139/232/205 24/162/206 18/161/204
f 30/163/207 79/48/56 80/45/53 29/164/208
f 27/165/209 29/164/208 80/45/53 51/44/52
f 82/38/46 79/37/45 30/166/210 26/43/51
f 146/245/211 83/67/77 84/64/74 145/243/212
f 144/241/213 145/243/212 84/64/74 57/63/73
f 148/248/214 75/61/71 85/60/70 147/246/215
f 85/60/70 83/59/69 146/244/216 147/246/215
f 47/173/217 86/88/218 87/85/219 46/174/220
f 44/175/221 46/174/220 87/85/219 56/84/222
f 89/78/94 86/77/223 47/176/224 43/82/95
usemtl lambert7SG
f 90/177/225 91/178/226 94/179/227 97/180/228
f 99/181/229 96/182/230 93/183/231 92/184/232
f 98/185/233 95/186/234 96/182/230 99/181/229
f 97/180/228 94/179/227 95/186/234 98/185/233
f 100/187/235 101/188/236 104/189/237 107/190/238
f 109/191/239 106/192/240 103/193/241 102/194/242
f 108/195/243 105/196/244 106/192/240 109/191/239
f 107/190/238 104/189/237 105/196/244 108/195/243
f 110/197/245 111/198/246 114/199/247 117/200/248
f 119/201/249 116/202/250 113/203/251 112/204/252
f 118/205/253 115/206/254 116/202/250 119/201/249
f 117/200/248 114/199/247 115/206/254 118/205/253
f 120/207/255 121/208/256 124/209/257 127/210/258
f 129/211/259 126/212/260 123/213/261 122/214/262
f 128/215/263 125/216/264 126/212/260 129/211/259
f 127/210/258 124/209/257 125/216/264 128/215/263
usemtl lambert8SG
f 130/217/130 2/110/265 56/111/266 131/220/131
usemtl lambert9SG
f 56/84/222 87/85/219 132/221/99 131/219/98
f 87/85/219 86/88/218 133/223/102 132/221/99
f 134/224/90 133/222/89 86/77/223 89/78/94
f 72/81/93 135/226/96 134/224/90 89/78/94
usemtl lambert6SG
f 136/228/148 135/225/147 72/123/188 70/124/187
f 137/230/156 136/227/155 70/131/184 71/132/183
usemtl lambert9SG
f 138/231/203 137/229/202 71/21/27 78/20/26
f 78/20/26 76/19/25 139/232/205 138/231/203
f 140/234/197 139/233/196 76/27/33 77/24/30
f 141/235/200 140/234/197 77/24/30 55/23/29
usemtl lambert8SG
f 54/104/267 142/238/125 141/236/128 55/105/268
f 143/239/142 1/119/269 36/120/270 144/242/143
usemtl lambert9SG
f 36/169/271 39/168/272 145/243/212 144/241/213
f 41/167/273 146/245/211 145/243/212 39/168/272
f 147/246/215 146/244/216 41/172/274 35/171/275
f 37/170/276 148/248/214 147/246/215 35/171/275
usemtl lambert6SG
f 149/250/194 148/247/193 37/122/146 60/121/145
f 150/252/192 149/249/191 60/130/154 20/129/153
usemtl lambert9SG
f 151/253/43 150/251/50 20/42/277 18/35/278
f 18/35/278 24/36/279 152/254/44 151/253/43
f 153/256/54 152/255/57 24/49/280 22/46/281
f 154/257/55 153/256/54 22/46/281 19/47/282
usemtl lambert8SG
f 49/97/283 155/260/113 154/258/116 19/100/284
