# This file uses meters as units for non-parametric coordinates.

mtllib Road_2L_VarA_LOD1.mtl
g default
v 500.000000 14.271730 -800.000000
v 250.000031 14.271730 -800.000000
v 0.000000 14.271730 -800.000000
v 750.000000 14.271669 -800.000000
v 1000.000122 14.271669 -800.000000
v 0.000000 -29.478273 -800.000000
v 0.665649 -29.827759 -800.725769
v 250.000031 -29.687965 -800.435425
v 499.334320 -29.827759 -800.725769
v 500.000000 -29.478273 -800.000000
v 500.665649 -29.827881 -800.725769
v 750.000000 -29.688084 -800.435425
v 999.334351 -29.827881 -800.725769
v 1000.000000 -29.478395 -800.000000
v 1000.000000 0.595398 12.989105
v 1000.000000 0.595398 2.879669
v -0.000000 0.595398 12.989105
v -0.000000 0.595398 2.879669
v 1000.000000 0.595398 -2.879608
v 1000.000000 0.595398 -12.989074
v 0.000000 0.595398 -2.879608
v 0.000000 0.595398 -12.989074
v 1000.000000 0.595398 370.579712
v 1000.000000 0.595398 360.470276
v -0.000000 0.595398 370.579712
v -0.000000 0.595398 360.470276
v 1000.000000 0.595398 -360.470276
v 1000.000000 0.595398 -370.579712
v 0.000000 0.595398 -360.470276
v 0.000000 0.595398 -370.579712
v 1000.000000 0.000000 0.000000
v 1000.000000 0.000000 -400.000000
v 0.000000 0.000000 0.000000
v 0.000000 0.000000 -400.000000
v 500.000000 0.000000 0.000000
v 500.000000 0.000000 -400.000000
v 1000.000000 0.000000 400.000000
v -0.000000 0.000000 400.000000
v 500.000000 0.000000 400.000000
v 499.999939 14.271730 625.000000
v 750.000000 14.271730 625.000000
v 1000.000000 14.271730 625.000000
v 750.000000 14.271730 800.000000
v 499.999939 14.271730 800.000000
v 1000.000000 14.271730 800.000000
v 500.000000 14.271730 450.000061
v 1000.000000 14.271730 450.000061
v -0.000061 14.271730 625.000000
v 250.000031 14.271730 625.000000
v 250.000000 14.271669 800.000000
v -0.000061 14.271669 800.000000
v -0.000000 14.271730 450.000061
v 500.000061 14.271730 -625.000000
v 250.000000 14.271730 -625.000000
v 0.000000 14.271730 -625.000000
v 500.000000 14.271730 -450.000061
v 0.000000 14.271730 -450.000061
v 1000.000122 14.271730 -625.000000
v 750.000000 14.271730 -625.000000
v 1000.000000 14.271730 -450.000061
v 500.000000 13.318360 -431.903473
v 0.000000 13.318360 -431.903473
v 0.000000 0.000000 -450.000000
v 1000.000000 13.318360 -431.903473
v 1000.000000 0.000000 -450.000000
v 500.000000 13.318360 431.903473
v 1000.000000 13.318360 431.903473
v 1000.000000 0.000000 450.000000
v -0.000000 13.318360 431.903473
v -0.000000 0.000000 450.000000
v 750.000000 0.595398 -370.579712
v 500.000000 0.595398 -370.579712
v 249.999969 0.595398 -370.579712
v 750.000000 0.595398 -360.470276
v 500.000000 0.595398 -360.470276
v 249.999969 0.595398 -360.470276
v 750.000000 0.595398 -12.989073
v 500.000000 0.595398 -12.989074
v 249.999969 0.595398 -12.989074
v 750.000000 0.595398 -2.879608
v 500.000000 0.595398 -2.879608
v 249.999969 0.595398 -2.879608
v 750.000000 0.595398 2.879669
v 500.000000 0.595398 2.879669
v 249.999969 0.595398 2.879669
v 750.000000 0.595398 12.989105
v 500.000000 0.595398 12.989105
v 249.999969 0.595398 12.989105
v 750.000000 0.595398 360.470276
v 500.000000 0.595398 360.470276
v 249.999969 0.595398 360.470276
v 750.000000 0.595398 370.579712
v 500.000000 0.595398 370.579712
v 249.999969 0.595398 370.579712
v 250.000000 14.271730 450.000061
v 249.999969 14.271730 -450.000061
v 750.000000 14.271730 -450.000061
v 750.000000 14.271730 450.000061
v 250.000000 13.318360 431.903503
v 249.999969 0.000000 400.000000
v 750.000000 13.318360 431.903503
v 750.000000 0.000000 400.000000
v 249.999969 13.318360 -431.903503
v 249.999969 0.000000 -400.000000
v 750.000000 13.318360 -431.903503
v 750.000000 0.000000 -400.000000
v 249.999969 0.000000 0.000000
v 750.000000 0.000000 0.000000
v 1000.000000 -29.478273 800.000000
v 999.334351 -29.827759 800.725769
v 750.000000 -29.687965 800.435425
v 500.665649 -29.827759 800.725769
v 500.000000 -29.478273 800.000000
v 499.334320 -29.827881 800.725769
v 250.000000 -29.688084 800.435425
v 0.665649 -29.827881 800.725769
v 0.000000 -29.478395 800.000000
vt 0.333492 0.000000
vt 0.333493 0.500000
vt 0.333493 1.000000
vt -0.000012 0.500000
vt 0.000092 0.000000
vt 0.000039 1.000033
vt 0.416746 1.000000
vt 0.417581 0.997807
vt 0.417246 0.500000
vt 0.417581 0.002527
vt 0.416746 0.000000
vt 0.083402 1.000025
vt 0.085556 0.997790
vt 0.084680 0.500000
vt 0.085556 0.002527
vt 0.083442 0.000000
vt -9.141313 0.388577
vt -9.141313 0.018719
vt -4.568130 0.018719
vt -4.568130 0.388577
vt -10.146366 0.388577
vt -10.146366 0.018719
vt -5.573183 0.018719
vt -5.573183 0.388577
vt -9.141313 0.979906
vt -9.141313 0.555311
vt -4.568130 0.555311
vt -4.568130 0.979906
vt -9.141313 0.979906
vt -9.141313 0.555311
vt -4.568130 0.555311
vt -4.568130 0.979906
vt 0.500000 1.000000
vt 0.500000 0.000000
vt 0.750000 1.000000
vt 0.000000 1.000000
vt 0.000000 0.000000
vt 0.250000 1.000000
vt 0.500000 1.000000
vt 0.500000 0.000000
vt 0.750000 0.000000
vt 0.750000 1.000000
vt 0.000000 1.000000
vt 0.000000 0.000000
vt 0.250000 0.000000
vt 0.250000 1.000000
vt 0.666507 0.500000
vt 1.000040 0.500000
vt 0.666508 0.000000
vt 0.999960 0.000000
vt 0.999960 1.000000
vt 0.666507 1.000000
vt 1.000000 -0.517044
vt 1.000000 0.864848
vt -1.000000 0.864848
vt -1.000000 -0.517044
vt 0.666507 0.500000
vt 1.000040 0.500000
vt 0.666508 0.000000
vt 0.999960 0.000000
vt 0.999960 1.000000
vt 0.666507 1.000000
vt 1.000000 -0.517044
vt 1.000000 0.864848
vt -1.000000 0.864848
vt -1.000000 -0.517044
vt 0.666507 0.500000
vt 1.000040 0.500000
vt 0.666508 0.000000
vt 0.999960 0.000000
vt 0.999960 1.000000
vt 0.666507 1.000000
vt 1.000000 -0.517044
vt 1.000000 0.864848
vt -1.000000 0.864848
vt -1.000000 -0.517044
vt 0.666507 0.500000
vt 1.000040 0.500000
vt 0.666508 0.000000
vt 0.999960 0.000000
vt 0.999960 1.000000
vt 0.666507 1.000000
vt 1.000000 -0.517044
vt 1.000000 0.864848
vt -1.000000 0.864848
vt -1.000000 -0.517044
vt 0.991549 0.887803
vt 0.501393 0.950354
vt 0.991549 0.950354
vt 0.501393 0.985834
vt 0.991549 0.985834
vt 0.307414 0.409104
vt 0.401228 0.409104
vt 0.341368 0.434093
vt 0.307414 0.435882
vt 0.991549 0.887803
vt 0.501393 0.950354
vt 0.991549 0.950354
vt 0.501393 0.985834
vt 0.991549 0.985834
vt 0.304743 0.409073
vt 0.210928 0.409073
vt 0.270788 0.434063
vt 0.304743 0.435851
vt 0.991549 0.887803
vt 0.501393 0.950354
vt 0.991549 0.950354
vt 0.501393 0.985834
vt 0.991549 0.985834
vt 0.307414 0.409104
vt 0.401228 0.409104
vt 0.341368 0.434093
vt 0.307414 0.435882
vt 0.991549 0.887803
vt 0.501393 0.950354
vt 0.991549 0.950354
vt 0.501393 0.985834
vt 0.991549 0.985834
vt 0.304743 0.409073
vt 0.210928 0.409073
vt 0.270788 0.434063
vt 0.304743 0.435851
vt 9.151420 0.555311
vt 9.151420 0.979906
vt 4.578237 0.979906
vt 4.578237 0.555311
vt 0.005054 0.979906
vt 0.005054 0.555311
vt 8.146366 0.018719
vt 8.146366 0.388577
vt 3.573184 0.388577
vt 3.573184 0.018719
vt -1.000000 0.388577
vt -1.000000 0.018719
vt 9.151420 0.018719
vt 9.151420 0.388577
vt 4.578237 0.388577
vt 4.578237 0.018719
vt 0.005054 0.388577
vt 0.005054 0.018719
vt 9.151420 0.555311
vt 9.151420 0.979906
vt 4.578237 0.979906
vt 4.578237 0.555311
vt 0.005054 0.979906
vt 0.005054 0.555311
vt -3.000000 0.864848
vt -3.000000 -0.517044
vt -3.000000 0.864848
vt -3.000000 -0.517044
vt -3.000000 0.864848
vt -3.000000 -0.517044
vt -3.000000 0.864848
vt -3.000000 -0.517044
vt 0.011237 0.950354
vt 0.011237 0.985834
vt 0.011237 0.887803
vt 0.501393 0.887803
vt 0.011237 0.950354
vt 0.011237 0.985834
vt 0.011237 0.887803
vt 0.501393 0.887803
vt 0.011237 0.950354
vt 0.011237 0.985834
vt 0.011237 0.887803
vt 0.501393 0.887803
vt 0.011237 0.950354
vt 0.011237 0.985834
vt 0.011237 0.887803
vt 0.501393 0.887803
vt 1.000000 0.000000
vt 1.000000 1.000000
vt 0.750000 0.000000
vt 1.000000 0.000000
vt 1.000000 1.000000
vt 0.250000 0.000000
vt 0.333492 0.000000
vt 0.333493 1.000000
vt 0.333493 0.500000
vt -0.000012 0.500000
vt 0.000092 0.000000
vt 0.000039 1.000033
vt 0.416746 1.000000
vt 0.417581 0.997807
vt 0.417246 0.500000
vt 0.417581 0.002527
vt 0.416746 0.000000
vt 0.085556 0.997790
vt 0.083402 1.000025
vt 0.084680 0.500000
vt 0.085556 0.002527
vt 0.083442 0.000000
vn 0.000865 0.013172 -0.999913
vn 0.000865 0.013172 -0.999913
vn 0.000865 0.013172 -0.999913
vn 0.000865 0.013172 -0.999913
vn 0.000865 0.013172 -0.999913
vn -0.000865 0.013172 -0.999913
vn -0.000865 0.013172 -0.999913
vn -0.000865 0.013172 -0.999913
vn -0.000865 0.013172 -0.999913
vn -0.000865 0.013172 -0.999913
vn 0.000865 0.013172 -0.999913
vn 0.000865 0.013172 -0.999913
vn 0.000865 0.013172 -0.999913
vn 0.000865 0.013172 -0.999913
vn 0.000865 0.013172 -0.999913
vn -0.000865 0.013172 -0.999913
vn -0.000865 0.013172 -0.999913
vn -0.000865 0.013172 -0.999913
vn -0.000865 0.013172 -0.999913
vn -0.000865 0.013172 -0.999913
vn 0.000000 1.000000 0.000000
vn 0.000000 1.000000 0.000000
vn 0.000000 1.000000 0.000000
vn 0.000000 1.000000 0.000000
vn 0.000000 1.000000 0.000000
vn 0.000000 1.000000 0.000000
vn 0.000000 1.000000 0.000000
vn 0.000000 1.000000 0.000000
vn 0.000000 1.000000 0.000000
vn 0.000000 1.000000 0.000000
vn 0.000000 1.000000 0.000000
vn 0.000000 1.000000 0.000000
vn 0.000000 1.000000 0.000000
vn 0.000000 1.000000 0.000000
vn 0.000000 1.000000 0.000000
vn 0.000000 1.000000 0.000000
vn 0.000000 1.000000 0.000000
vn 0.000000 1.000000 0.000000
vn 0.000000 1.000000 0.000000
vn 0.000000 1.000000 0.000000
vn 0.000000 1.000000 0.000000
vn 0.000000 1.000000 0.000000
vn 0.000000 1.000000 0.000000
vn 0.000000 1.000000 0.000000
vn 0.000000 1.000000 0.000000
vn 0.000000 1.000000 0.000000
vn 0.000000 1.000000 0.000000
vn 0.000000 1.000000 0.000000
vn 0.000000 1.000000 0.000000
vn 0.000000 1.000000 0.000000
vn 0.000000 1.000000 0.000000
vn 0.000000 1.000000 0.000000
vn 0.000000 1.000000 0.000000
vn 0.000000 1.000000 0.000000
vn 0.000000 1.000000 0.000000
vn 0.000000 1.000000 0.000000
vn 0.000000 1.000000 0.000000
vn 0.000000 1.000000 0.000000
vn 0.000000 1.000000 0.000000
vn 0.000000 1.000000 0.000000
vn 0.000000 1.000000 0.000000
vn 0.000000 1.000000 0.000000
vn 0.000000 1.000000 0.000000
vn 0.000000 1.000000 0.000000
vn 0.000000 1.000000 0.000000
vn 0.000000 1.000000 0.000000
vn 0.000000 1.000000 0.000000
vn 0.000000 1.000000 0.000000
vn -0.000000 1.000000 0.000000
vn -0.000000 1.000000 0.000000
vn -0.000000 1.000000 0.000000
vn -0.000000 1.000000 0.000000
vn 0.000000 1.000000 0.000000
vn 0.000000 1.000000 0.000000
vn 0.000000 1.000000 -0.000000
vn 0.000000 1.000000 0.000000
vn 0.000000 1.000000 -0.000000
vn 0.000000 1.000000 -0.000000
vn 0.000000 1.000000 -0.000000
vn 0.000000 1.000000 -0.000000
vn 0.000000 1.000000 0.000000
vn 0.000000 1.000000 0.000000
vn 0.000000 1.000000 0.000000
vn 0.000000 1.000000 0.000000
vn 0.000000 1.000000 0.000000
vn 0.000000 1.000000 0.000000
vn 0.000000 1.000000 0.000000
vn 0.000000 1.000000 0.000000
vn 0.000000 1.000000 -0.000000
vn 0.000000 1.000000 -0.000000
vn 0.000000 1.000000 -0.000000
vn 0.000000 1.000000 -0.000000
vn 0.000000 1.000000 -0.000000
vn 0.000000 1.000000 -0.000000
vn 0.000000 1.000000 -0.000000
vn 0.000000 1.000000 -0.000000
vn 0.000000 1.000000 0.000000
vn 0.000000 1.000000 0.000000
vn 0.000000 1.000000 0.000000
vn 0.000000 1.000000 0.000000
vn 0.000000 0.922818 0.385237
vn -0.000000 0.922818 0.385237
vn -0.000000 0.961595 0.274472
vn 0.000000 0.961595 0.274472
vn 0.000000 0.998615 0.052609
vn 0.000000 0.998615 0.052609
vn -1.000000 -0.000000 -0.000000
vn -1.000000 -0.000000 -0.000000
vn -1.000000 -0.000000 -0.000000
vn -1.000000 0.000000 -0.000000
vn -1.000000 0.000000 -0.000000
vn -1.000000 0.000000 -0.000000
vn 0.000000 0.922818 0.385237
vn -0.000000 0.922818 0.385237
vn -0.000000 0.961595 0.274472
vn 0.000000 0.961595 0.274472
vn 0.000000 0.998615 0.052609
vn 0.000000 0.998615 0.052609
vn 1.000000 0.000000 0.000000
vn 1.000000 0.000000 0.000000
vn 1.000000 0.000000 0.000000
vn 1.000000 0.000000 0.000000
vn 1.000000 0.000000 0.000000
vn 1.000000 0.000000 0.000000
vn -0.000000 0.961595 -0.274472
vn -0.000000 0.922818 -0.385237
vn 0.000000 0.922818 -0.385237
vn 0.000000 0.961595 -0.274472
vn 0.000000 0.998615 -0.052609
vn 0.000000 0.998615 -0.052609
vn 1.000000 0.000000 0.000000
vn 1.000000 0.000000 0.000000
vn 1.000000 0.000000 0.000000
vn 1.000000 0.000004 0.000000
vn 1.000000 0.000004 0.000000
vn 1.000000 0.000004 0.000000
vn -0.000000 0.961595 -0.274472
vn 0.000000 0.922818 -0.385237
vn 0.000000 0.922818 -0.385237
vn 0.000000 0.961595 -0.274472
vn 0.000000 0.998615 -0.052609
vn 0.000000 0.998615 -0.052609
vn -1.000000 0.000000 -0.000000
vn -1.000000 0.000000 -0.000000
vn -1.000000 0.000000 -0.000000
vn -1.000000 -0.000000 -0.000000
vn -1.000000 -0.000000 -0.000000
vn -1.000000 -0.000000 -0.000000
vn 0.000000 1.000000 0.000000
vn 0.000000 1.000000 0.000000
vn 0.000000 1.000000 0.000000
vn 0.000000 1.000000 0.000000
vn 0.000000 1.000000 0.000000
vn 0.000000 1.000000 0.000000
vn 0.000000 1.000000 0.000000
vn 0.000000 1.000000 0.000000
vn 0.000000 1.000000 0.000000
vn 0.000000 1.000000 0.000000
vn 0.000000 1.000000 0.000000
vn 0.000000 1.000000 0.000000
vn 0.000000 1.000000 0.000000
vn 0.000000 1.000000 0.000000
vn 0.000000 1.000000 0.000000
vn 0.000000 1.000000 0.000000
vn 0.000000 1.000000 0.000000
vn 0.000000 1.000000 0.000000
vn 0.000000 1.000000 0.000000
vn 0.000000 1.000000 0.000000
vn 0.000000 1.000000 0.000000
vn 0.000000 1.000000 0.000000
vn 0.000000 1.000000 0.000000
vn 0.000000 1.000000 0.000000
vn 0.000000 1.000000 -0.000000
vn 0.000000 1.000000 -0.000000
vn 0.000000 1.000000 0.000000
vn 0.000000 1.000000 0.000000
vn 0.000000 1.000000 0.000000
vn 0.000000 1.000000 0.000000
vn 0.000000 1.000000 0.000000
vn 0.000000 1.000000 0.000000
vn 0.000000 0.998615 -0.052609
vn -0.000000 0.961595 -0.274472
vn -0.000000 0.922818 -0.385237
vn 0.000000 0.998615 -0.052609
vn -0.000000 0.961595 -0.274472
vn -0.000000 0.922818 -0.385237
vn 0.000000 0.998615 0.052609
vn 0.000000 0.961595 0.274472
vn 0.000000 0.922818 0.385237
vn 0.000000 0.998615 0.052609
vn 0.000000 0.961595 0.274472
vn 0.000000 0.922818 0.385237
vn 0.000000 1.000000 0.000000
vn 0.000000 1.000000 0.000000
vn 0.000000 1.000000 0.000000
vn 0.000000 1.000000 0.000000
vn -0.000865 0.013172 0.999913
vn -0.000865 0.013172 0.999913
vn -0.000865 0.013172 0.999913
vn -0.000865 0.013172 0.999913
vn -0.000865 0.013172 0.999913
vn 0.000865 0.013172 0.999913
vn 0.000865 0.013172 0.999913
vn 0.000865 0.013172 0.999913
vn 0.000865 0.013172 0.999913
vn 0.000865 0.013172 0.999913
vn -0.000865 0.013172 0.999913
vn -0.000865 0.013172 0.999913
vn -0.000865 0.013172 0.999913
vn -0.000865 0.013172 0.999913
vn -0.000865 0.013172 0.999913
vn 0.000865 0.013172 0.999913
vn 0.000865 0.013172 0.999913
vn 0.000865 0.013172 0.999913
vn 0.000865 0.013172 0.999913
vn 0.000865 0.013172 0.999913
g Road_2L_VarA_LOD1 Road_2L_VarA
usemtl lambert8SG
f 2/2/1 1/1/2 10/11/3 9/10/4 8/9/5
f 3/3/6 2/2/7 8/9/8 7/8/9 6/7/10
f 4/4/11 5/5/12 14/16/13 13/15/14 12/14/15
f 1/6/16 4/4/17 12/14/18 11/13/19 10/12/20
usemtl lambert7SG
f 15/17/21 16/18/22 83/19/23 86/20/24
f 19/21/25 20/22/26 77/23/27 80/24/28
f 23/25/29 24/26/30 89/27/31 92/28/32
f 27/29/33 28/30/34 71/31/35 74/32/36
usemtl lambert6SG
f 35/33/37 36/34/38 104/173/39 107/35/40
f 31/36/41 32/37/42 106/176/43 108/38/44
f 39/39/45 35/40/46 107/41/47 100/42/48
f 37/43/49 31/44/50 108/45/51 102/46/52
usemtl lambert8SG
f 44/50/53 43/48/54 41/47/55 40/49/56
f 43/48/57 45/51/58 42/52/59 41/47/60
usemtl lambert4SG
f 46/53/61 40/54/62 41/55/63 98/56/64
usemtl lambert8SG
f 51/60/65 50/58/66 49/57/67 48/59/68
f 50/58/69 44/61/70 40/62/71 49/57/72
usemtl lambert4SG
f 52/63/73 48/64/74 49/65/75 95/66/76
usemtl lambert8SG
f 1/70/77 2/68/78 54/67/79 53/69/80
f 2/68/81 3/71/82 55/72/83 54/67/84
usemtl lambert4SG
f 56/73/85 53/74/86 54/75/87 96/76/88
usemtl lambert8SG
f 5/80/89 4/78/90 59/77/91 58/79/92
f 4/78/93 1/81/94 53/82/95 59/77/96
usemtl lambert4SG
f 60/83/97 58/84/98 59/85/99 97/86/100
usemtl lambert9SG
f 104/166/101 36/87/102 61/89/103 103/88/104
f 96/90/105 103/88/104 61/89/103 56/91/106
f 63/92/107 34/93/108 62/94/109
f 63/92/110 62/94/111 57/95/112
f 106/170/113 32/96/114 64/98/115 105/97/116
f 97/99/117 105/97/116 64/98/115 60/100/118
f 65/101/119 64/103/120 32/102/121
f 65/101/122 60/104/123 64/103/124
f 101/106/125 102/162/126 39/105/127 66/107/128
f 98/108/129 101/106/125 66/107/128 46/109/130
f 68/110/131 37/111/132 67/112/133
f 68/110/134 67/112/135 47/113/136
f 99/115/137 100/158/138 38/114/139 69/116/140
f 95/117/141 99/115/137 69/116/140 52/118/142
f 70/119/143 69/121/144 38/120/145
f 70/119/146 52/122/147 69/121/148
usemtl lambert7SG
f 76/125/149 73/126/150 30/123/151 29/124/152
f 75/127/153 72/128/154 73/126/150 76/125/149
f 74/32/36 71/31/35 72/128/154 75/127/153
f 82/131/155 79/132/156 22/129/157 21/130/158
f 81/133/159 78/134/160 79/132/156 82/131/155
f 80/24/28 77/23/27 78/134/160 81/133/159
f 88/137/161 85/138/162 18/135/163 17/136/164
f 87/139/165 84/140/166 85/138/162 88/137/161
f 86/20/24 83/19/23 84/140/166 87/139/165
f 94/143/167 91/144/168 26/141/169 25/142/170
f 93/145/171 90/146/172 91/144/168 94/143/167
f 92/28/32 89/27/31 90/146/172 93/145/171
usemtl lambert4SG
f 95/66/76 49/65/75 40/147/173 46/148/174
f 96/76/88 54/75/87 55/149/175 57/150/176
f 97/86/100 59/85/99 53/151/177 56/152/178
f 98/56/64 41/55/63 42/153/179 47/154/180
usemtl lambert9SG
f 46/156/181 66/155/182 99/115/137 95/117/141
f 66/155/182 39/157/183 100/158/138 99/115/137
f 47/160/184 67/159/185 101/106/125 98/108/129
f 67/159/185 37/161/186 102/162/126 101/106/125
f 57/164/187 62/163/188 103/88/104 96/90/105
f 62/163/188 34/165/189 104/166/101 103/88/104
f 56/168/190 61/167/191 105/97/116 97/99/117
f 61/167/191 36/169/192 106/170/113 105/97/116
usemtl lambert6SG
f 100/42/48 107/41/47 33/171/193 38/172/194
f 107/35/40 104/173/39 34/174/195 33/175/196
f 102/46/52 108/45/51 35/40/46 39/39/45
f 108/38/44 106/176/43 36/34/38 35/33/37
usemtl lambert8SG
f 43/179/197 44/177/198 113/187/199 112/186/200 111/185/201
f 45/178/202 43/179/203 111/185/204 110/184/205 109/183/206
f 50/180/207 51/181/208 117/192/209 116/191/210 115/190/211
f 44/182/212 50/180/213 115/190/214 114/188/215 113/189/216
