# This file uses meters as units for non-parametric coordinates.

mtllib Plywood_A.mtl
g default
v 59.480965 60.405411 -1.143613
v -59.480961 60.405411 -1.143613
v 59.480965 -60.405418 -1.143613
v -59.480961 -60.405418 -1.143613
v -59.480961 -60.405418 1.143613
v -59.480961 60.405411 1.143613
v 59.480965 -60.405418 1.143613
v 59.480965 60.405411 1.143613
vt 0.511506 0.997694
vt 0.511506 0.506219
vt 1.000000 0.503914
vt 1.000000 1.000000
vt 0.511506 1.000000
vt 1.000000 1.000000
vt 1.000000 0.503914
vt 0.511506 0.503914
vt 0.513084 0.995389
vt 0.513085 0.508525
vt 0.522302 0.508525
vt 0.522302 0.995389
vt 0.996836 0.516193
vt 0.516032 0.516192
vt 0.516032 0.506950
vt 0.996836 0.506949
vt 0.990486 0.998585
vt 0.990489 0.510542
vt 0.999723 0.510542
vt 0.999728 0.998585
vt 0.996392 0.999301
vt 0.516477 0.999292
vt 0.516477 0.990065
vt 0.996392 0.990074
vn 0.000000 0.000000 1.000000
vn 0.000000 0.000000 1.000000
vn 0.000000 0.000000 1.000000
vn 0.000000 0.000000 1.000000
vn 0.000000 0.000000 -1.000000
vn 0.000000 0.000000 -1.000000
vn 0.000000 0.000000 -1.000000
vn 0.000000 0.000000 -1.000000
vn -1.000000 0.000000 0.000000
vn -1.000000 0.000000 0.000000
vn -1.000000 0.000000 0.000000
vn -1.000000 0.000000 0.000000
vn 0.000000 -1.000000 0.000000
vn 0.000000 -1.000000 0.000000
vn 0.000000 -1.000000 0.000000
vn 0.000000 -1.000000 0.000000
vn 1.000000 0.000000 0.000000
vn 1.000000 0.000000 0.000000
vn 1.000000 0.000000 0.000000
vn 1.000000 0.000000 0.000000
vn 0.000000 1.000000 0.000000
vn 0.000000 1.000000 0.000000
vn 0.000000 1.000000 0.000000
vn 0.000000 1.000000 0.000000
g Plywood_A
usemtl Plywood_Low:blinn1SG1
f 6/1/1 5/2/2 7/3/3 8/4/4
f 2/5/5 1/6/6 3/7/7 4/8/8
f 2/9/9 4/10/10 5/11/11 6/12/12
f 4/13/13 3/14/14 7/15/15 5/16/16
f 3/17/17 1/18/18 8/19/19 7/20/20
f 1/21/21 2/22/22 6/23/23 8/24/24
