# This file uses meters as units for non-parametric coordinates.

mtllib Plywood_C.mtl
g default
v -27.277287 -59.818550 -1.143580
v -27.277287 59.818550 -1.143580
v 27.277279 -59.818550 -1.143580
v 27.277279 59.818550 -1.143580
v 27.277279 -59.818550 1.143580
v 27.277279 59.818550 1.143580
v -27.277287 59.818550 1.143580
v -27.277287 -59.818550 1.143580
vt 0.253311 0.007507
vt 0.253311 0.498773
vt 0.029293 0.498773
vt 0.029293 0.007507
vt 0.253311 0.007507
vt 0.029293 0.007507
vt 0.029293 0.498773
vt 0.253311 0.498773
vt 0.253311 0.007507
vt 0.253311 0.498773
vt 0.243919 0.498773
vt 0.243919 0.007507
vt 0.253311 0.498773
vt 0.029293 0.498773
vt 0.029293 0.489382
vt 0.253311 0.489382
vt 0.029293 0.498773
vt 0.029293 0.007507
vt 0.038685 0.007507
vt 0.038685 0.498773
vt 0.029293 0.007507
vt 0.253311 0.007507
vt 0.253311 0.016899
vt 0.029293 0.016899
vn 0.000000 0.000000 1.000000
vn 0.000000 0.000000 1.000000
vn 0.000000 0.000000 1.000000
vn 0.000000 0.000000 1.000000
vn 0.000000 0.000000 -1.000000
vn 0.000000 0.000000 -1.000000
vn 0.000000 0.000000 -1.000000
vn 0.000000 0.000000 -1.000000
vn 1.000000 0.000000 0.000000
vn 1.000000 0.000000 0.000000
vn 1.000000 0.000000 0.000000
vn 1.000000 0.000000 0.000000
vn 0.000000 1.000000 0.000000
vn 0.000000 1.000000 0.000000
vn 0.000000 1.000000 0.000000
vn 0.000000 1.000000 0.000000
vn -1.000000 0.000000 0.000000
vn -1.000000 0.000000 0.000000
vn -1.000000 0.000000 0.000000
vn -1.000000 0.000000 0.000000
vn 0.000000 -1.000000 0.000000
vn 0.000000 -1.000000 0.000000
vn 0.000000 -1.000000 0.000000
vn 0.000000 -1.000000 0.000000
g Plywood_C
usemtl Plywood_Low:blinn1SG1
f 5/1/1 6/2/2 7/3/3 8/4/4
f 3/5/5 1/6/6 2/7/7 4/8/8
f 3/9/9 4/10/10 6/11/11 5/12/12
f 4/13/13 2/14/14 7/15/15 6/16/16
f 2/17/17 1/18/18 8/19/19 7/20/20
f 1/21/21 3/22/22 5/23/23 8/24/24
