# This file uses centimeters as units for non-parametric coordinates.

mtllib GarageDoor.mtl
g default
v 7.937096 -0.053895 9.430323
v 8.204037 -0.053895 9.430323
v 7.937096 5.655397 9.430323
v 8.204037 5.655397 9.430323
v 7.937096 5.655397 -1.445192
v 8.204037 5.655397 -1.445192
v 7.937096 -0.053895 -1.445192
v 8.204037 -0.053895 -1.445192
vt 0.937179 0.461152
vt 0.000000 0.000000
vt 0.937179 0.922303
vt 0.000000 0.461152
vt 0.153878 0.922362
vt 0.153878 0.936745
vt 0.000000 0.936745
vt 0.000000 0.922362
vt 0.653878 0.936686
vt 0.937179 0.000000
vt 0.937179 0.461152
vt 0.000000 0.461152
vt 0.000000 0.922303
vt 0.500000 0.936686
vt 0.500000 0.922303
vt 1.000000 0.936745
vt 0.653878 0.922303
vt 1.000000 0.922362
vn 0.000000 0.000000 1.000000
vn 0.000000 0.000000 1.000000
vn 0.000000 0.000000 1.000000
vn 0.000000 0.000000 1.000000
vn 0.000000 1.000000 0.000000
vn 0.000000 1.000000 0.000000
vn 0.000000 1.000000 0.000000
vn 0.000000 1.000000 0.000000
vn 0.000000 0.000000 -1.000000
vn 0.000000 0.000000 -1.000000
vn 0.000000 0.000000 -1.000000
vn 0.000000 0.000000 -1.000000
vn 0.000000 -1.000000 0.000000
vn 0.000000 -1.000000 0.000000
vn 0.000000 -1.000000 0.000000
vn 0.000000 -1.000000 0.000000
vn 1.000000 0.000000 0.000000
vn 1.000000 0.000000 0.000000
vn 1.000000 0.000000 0.000000
vn 1.000000 0.000000 0.000000
vn -1.000000 0.000000 0.000000
vn -1.000000 0.000000 0.000000
vn -1.000000 0.000000 0.000000
vn -1.000000 0.000000 0.000000
s off
g initialShadingGroup pCube1
f 1/5/1 2/6/2 4/7/3 3/8/4
f 3/18/5 4/16/6 6/9/7 5/17/8
f 5/17/9 6/9/10 8/14/11 7/15/12
f 7/15/13 8/14/14 2/6/15 1/5/16
f 2/2/17 8/10/18 6/11/19 4/4/20
f 7/12/21 1/1/22 3/3/23 5/13/24
