# This file uses meters as units for non-parametric coordinates.

mtllib Crosswalk_LOD1.mtl
g default
v 4.246278 13.638748 18.309753
v 4.246278 11.721954 20.222824
v 4.246278 13.638748 52.370346
v 4.246278 43.869614 52.370346
v 4.246278 45.786453 50.457298
v 4.246278 45.786453 20.222824
v 4.246278 43.869614 18.309753
v -4.994959 13.638748 18.309753
v -4.994959 11.721954 20.222824
v -4.994959 13.638748 52.370346
v -4.994959 43.869614 52.370346
v -4.994959 45.786453 50.457298
v -4.994959 43.869614 18.309753
v -4.994959 45.786453 20.222824
v -4.994959 11.721954 50.457298
v 4.246278 11.721954 50.457298
v 0.036611 56.102951 30.281630
v 0.036611 52.992508 30.188742
v 1.386163 55.327988 30.257744
v -1.312927 53.770126 30.212629
v 1.386147 53.770126 30.212629
v -1.312940 55.327988 30.257744
v 0.036611 50.500443 33.471680
v -1.312518 50.789719 34.185585
v -1.312516 51.370956 35.616081
v 0.036611 51.660202 36.327324
v 1.385736 51.370956 35.616081
v 1.385739 50.789719 34.185585
v 0.036611 43.547318 36.897938
v 0.036611 52.989822 5.533497
v 0.036611 56.105637 5.533497
v -1.313076 43.547318 36.117661
v 1.386105 43.547318 36.120316
v 1.386309 43.547318 34.559795
v 0.036611 43.547318 33.795460
v -1.312861 43.547318 34.559795
v -1.313609 53.770126 5.533497
v -1.313148 55.327988 5.533497
v 1.384773 55.327988 5.533497
v 1.386832 53.770126 5.533497
v -1.883286 0.000000 -7.027677
v -1.883286 5.554749 -7.027677
v -7.028521 5.554749 -1.884320
v -7.028521 0.000000 -1.884320
v 5.079934 5.554749 1.361476
v 3.718774 5.554749 -3.718194
v -1.361163 5.554749 -5.079655
v -5.079934 5.554749 -1.361477
v -3.718774 5.554749 3.718193
v 1.361163 5.554749 5.079653
v 5.079934 0.000000 1.361476
v -5.145248 5.554749 5.146029
v 3.718774 0.000000 -3.718194
v -1.361163 0.000000 -5.079655
v 5.145248 0.000000 -5.146030
v -5.079934 0.000000 -1.361477
v -3.718774 0.000000 3.718193
v 1.361163 0.000000 5.079653
v 1.883283 5.554749 7.027675
v 1.883283 0.000000 7.027675
v -5.145248 0.000000 5.146029
v 7.028521 5.554749 1.884319
v 7.028521 0.000000 1.884319
v 5.145248 5.554749 -5.146030
v 0.036611 0.469757 30.281630
v 0.036611 3.580200 30.188742
v 1.386163 1.244690 30.257744
v -1.312927 2.802597 30.212629
v 1.386147 2.802597 30.212629
v -1.312940 1.244690 30.257744
v 0.036611 6.072235 33.471680
v -1.312518 5.783020 34.185585
v -1.312516 5.201721 35.616081
v 0.036611 4.912476 36.327324
v 1.385736 5.201721 35.616081
v 1.385739 5.783020 34.185585
v 0.036611 13.025330 36.897938
v 0.036611 3.582870 5.533497
v 0.036611 0.467133 5.533497
v -1.313076 13.025330 36.117661
v 1.386105 13.025330 36.120316
v 1.386309 13.025330 34.559795
v 0.036611 13.025330 33.795460
v -1.312861 13.025330 34.559795
v -1.313609 2.802597 5.533497
v -1.313148 1.244690 5.533497
v 1.384773 1.244690 5.533497
v 1.386832 2.802597 5.533497
v -1.883286 51.599197 -7.027677
v -1.883286 57.153976 -7.027677
v -7.028521 57.153976 -1.884320
v -7.028521 51.599197 -1.884320
v 5.079934 57.153976 1.361476
v 3.718774 57.153976 -3.718194
v -1.361163 57.153976 -5.079655
v -5.079934 57.153976 -1.361477
v -3.718774 57.153976 3.718193
v 1.361163 57.153976 5.079653
v 5.079934 51.599197 1.361476
v -5.145248 57.153976 5.146029
v 3.718774 51.599197 -3.718194
v -1.361163 51.599197 -5.079655
v 5.145248 51.599197 -5.146030
v -5.079934 51.599197 -1.361477
v -3.718774 51.599197 3.718193
v 1.361163 51.599197 5.079653
v 1.883283 57.153976 7.027675
v 1.883283 51.599197 7.027675
v -5.145248 51.599197 5.146029
v 7.028521 57.153976 1.884319
v 7.028521 51.599197 1.884319
v 5.145248 57.153976 -5.146030
v -1.311954 52.833267 32.504299
v 1.385201 54.080612 33.350922
v 0.036611 52.213547 32.082329
v 0.036611 54.703018 33.767590
v -1.311978 54.080612 33.350922
v 1.385179 52.833267 32.504299
v -1.311978 2.492096 33.350922
v 1.385179 3.739441 32.504299
v -1.311954 3.739441 32.504299
v 1.385201 2.492096 33.350922
v 0.036611 4.359131 32.082329
v 0.036611 1.869705 33.767590
vt 0.828452 0.414900
vt 0.623719 0.504631
vt 0.854060 0.506319
vt 0.895949 0.614757
vt 0.854060 0.140920
vt 0.828452 0.422411
vt 0.613897 0.494810
vt 0.854060 0.414968
vt 0.901257 0.525643
vt 0.828452 0.506251
vt 0.828452 0.140852
vt 0.613897 0.339768
vt 0.854061 0.331129
vt 0.985064 0.525643
vt 0.854060 0.239780
vt 0.990373 0.614757
vt 0.828452 0.331061
vt 0.778760 0.504631
vt 0.901257 0.620066
vt 0.854060 0.148431
vt 0.828452 0.232201
vt 0.778760 0.329946
vt 0.854060 0.232269
vt 0.985064 0.620066
vt 0.828452 0.239712
vt 0.788582 0.339768
vt 0.828452 0.148363
vt 0.623719 0.329946
vt 0.854060 0.422479
vt 0.895949 0.530951
vt 0.828452 0.323550
vt 0.788582 0.494810
vt 0.990373 0.530951
vt 0.854061 0.323618
vt 0.659268 0.093792
vt 0.793897 0.990367
vt 0.653796 0.088320
vt 0.659017 0.068837
vt 0.666491 0.066834
vt 0.764781 0.990367
vt 0.632310 0.101014
vt 0.823012 0.990367
vt 0.612576 0.081281
vt 0.677434 0.990367
vt 0.852128 0.990367
vt 0.620050 0.079278
vt 0.634313 0.093541
vt 0.677434 0.968901
vt 0.852128 0.968901
vt 0.210435 0.103715
vt 0.706549 0.968901
vt 0.203211 0.130672
vt 0.706549 0.990367
vt 0.619799 0.054323
vt 0.210686 0.128669
vt 0.224948 0.142932
vt 0.222945 0.150406
vt 0.735666 0.968901
vt 0.625271 0.059795
vt 0.735666 0.990367
vt 0.646757 0.047100
vt 0.764781 0.968901
vt 0.249902 0.143184
vt 0.644754 0.054574
vt 0.793897 0.968901
vt 0.257126 0.116226
vt 0.823012 0.968901
vt 0.237392 0.096491
vt 0.235390 0.103965
vt 0.215905 0.109185
vt 0.244432 0.137713
vt 0.249653 0.118228
vt 0.203211 0.130672
vt 0.706549 0.968901
vt 0.210686 0.128669
vt 0.224948 0.142932
vt 0.222945 0.150406
vt 0.735666 0.968901
vt 0.619799 0.054323
vt 0.706549 0.990367
vt 0.625271 0.059795
vt 0.620050 0.079278
vt 0.612576 0.081281
vt 0.852128 0.990367
vt 0.677434 0.990367
vt 0.735666 0.990367
vt 0.646757 0.047100
vt 0.764781 0.968901
vt 0.249902 0.143184
vt 0.764781 0.990367
vt 0.666491 0.066834
vt 0.659017 0.068837
vt 0.644754 0.054574
vt 0.793897 0.990367
vt 0.659268 0.093792
vt 0.793897 0.968901
vt 0.257126 0.116226
vt 0.823012 0.990367
vt 0.632310 0.101014
vt 0.823012 0.968901
vt 0.237392 0.096491
vt 0.852128 0.968901
vt 0.210435 0.103715
vt 0.677434 0.968901
vt 0.235390 0.103965
vt 0.215905 0.109185
vt 0.244432 0.137713
vt 0.249653 0.118228
vt 0.634313 0.093541
vt 0.653796 0.088320
vt 0.913359 0.925407
vt 0.913232 0.919908
vt 0.954814 0.919784
vt 0.954793 0.925638
vt 0.876724 0.932499
vt 0.888862 0.931108
vt 0.889643 0.937822
vt 0.879015 0.939877
vt 0.875799 0.925119
vt 0.876854 0.917760
vt 0.888958 0.919357
vt 0.888647 0.925228
vt 0.954750 0.931499
vt 0.913167 0.930905
vt 0.912977 0.914097
vt 0.954818 0.913915
vt 0.954689 0.937363
vt 0.954624 0.943246
vt 0.954818 0.908034
vt 0.912741 0.942782
vt 0.912942 0.908033
vt 0.912845 0.936716
vt 0.890809 0.945736
vt 0.891142 0.904791
vt 0.881072 0.947566
vt 0.881460 0.902795
vt 0.879273 0.910432
vt 0.889848 0.912665
vt 0.913359 0.925407
vt 0.954793 0.925638
vt 0.954814 0.919784
vt 0.913232 0.919908
vt 0.876724 0.932499
vt 0.879015 0.939877
vt 0.889643 0.937822
vt 0.888862 0.931108
vt 0.876854 0.917760
vt 0.888958 0.919357
vt 0.889848 0.912665
vt 0.879273 0.910432
vt 0.913167 0.930905
vt 0.954750 0.931499
vt 0.954818 0.913915
vt 0.912977 0.914097
vt 0.954689 0.937363
vt 0.912845 0.936716
vt 0.912741 0.942782
vt 0.912942 0.908033
vt 0.954624 0.943246
vt 0.954818 0.908034
vt 0.875799 0.925119
vt 0.888647 0.925228
vt 0.881072 0.947566
vt 0.881460 0.902795
vt 0.890809 0.945736
vt 0.891142 0.904791
vt 0.901792 0.930619
vt 0.901900 0.936835
vt 0.901866 0.920043
vt 0.901825 0.925330
vt 0.902565 0.944476
vt 0.902827 0.906229
vt 0.902061 0.913838
vt 0.901900 0.936835
vt 0.901792 0.930619
vt 0.901866 0.920043
vt 0.902061 0.913838
vt 0.902565 0.944476
vt 0.902827 0.906229
vt 0.901825 0.925330
vn 0.000000 0.059403 0.998234
vn 0.000000 0.998227 0.059518
vn 0.000000 0.998227 0.059518
vn 0.000000 0.059403 0.998234
vn 0.000000 0.059404 -0.998234
vn 0.000000 0.059404 -0.998234
vn 0.000000 -0.059404 -0.998234
vn 0.000000 -0.059404 -0.998234
vn 0.000000 -1.000000 0.000000
vn 0.000000 -1.000000 0.000000
vn 0.000000 -0.998227 -0.059517
vn 0.000000 -0.998227 -0.059517
vn 1.000000 -0.000000 0.000000
vn 1.000000 -0.000000 0.000000
vn 1.000000 -0.000000 0.000000
vn 1.000000 -0.000000 0.000000
vn 1.000000 -0.000000 0.000000
vn 1.000000 -0.000000 0.000000
vn 1.000000 -0.000000 0.000000
vn 1.000000 -0.000000 0.000000
vn 1.000000 -0.000000 0.000000
vn 1.000000 -0.000000 0.000000
vn 1.000000 -0.000000 0.000000
vn 1.000000 -0.000000 0.000000
vn 0.000000 0.998227 0.059518
vn 0.000000 0.998227 0.059518
vn 0.000000 0.998227 -0.059518
vn 0.000000 0.998227 -0.059518
vn 0.000000 0.059404 -0.998234
vn 0.000000 0.998227 -0.059518
vn 0.000000 0.998227 -0.059518
vn 0.000000 0.059404 -0.998234
vn 0.000000 -0.059403 0.998234
vn 0.000000 -0.059403 0.998234
vn 0.000000 0.059403 0.998234
vn 0.000000 0.059403 0.998234
vn -1.000000 -0.000000 0.000000
vn -1.000000 -0.000000 0.000000
vn -1.000000 -0.000000 0.000000
vn -1.000000 -0.000000 0.000000
vn 0.000000 -0.998227 -0.059517
vn 0.000000 -0.059404 -0.998234
vn 0.000000 -0.059404 -0.998234
vn 0.000000 -0.998227 -0.059517
vn 0.000000 -0.059403 0.998234
vn 0.000000 -0.706427 0.707786
vn 0.000000 -0.706427 0.707786
vn 0.000000 -0.059403 0.998234
vn -1.000000 0.000000 0.000000
vn -1.000000 -0.000000 0.000000
vn -1.000000 -0.000000 0.000000
vn -1.000000 0.000000 0.000000
vn -1.000000 0.000000 0.000000
vn -1.000000 0.000000 0.000000
vn -1.000000 0.000000 0.000000
vn -1.000000 0.000000 0.000000
vn 0.000000 -1.000000 0.000000
vn 0.000000 -1.000000 0.000000
vn 0.000000 -1.000000 -0.000012
vn 0.000000 -1.000000 -0.000012
vn 0.000000 -1.000000 0.000000
vn 0.000000 -1.000000 0.000000
vn 0.000000 -1.000000 0.000000
vn 0.000000 -1.000000 0.000000
vn -0.258609 0.000000 0.965982
vn -0.258609 0.000000 0.965982
vn -0.707115 0.000000 0.707099
vn -0.707115 0.000000 0.707099
vn 0.000000 1.000000 0.000009
vn 0.000000 1.000000 0.000009
vn 0.000000 1.000000 0.000000
vn 0.000000 1.000000 0.000000
vn 0.000000 -1.000000 0.000000
vn 0.000000 -1.000000 0.000000
vn 0.000000 -1.000000 0.000000
vn 0.000000 -1.000000 0.000000
vn -0.965925 0.000000 -0.258821
vn -0.965925 0.000000 -0.258821
vn -0.258801 0.000000 -0.965931
vn -0.258801 0.000000 -0.965931
vn 0.000000 -1.000000 -0.000012
vn 0.000000 -1.000000 -0.000012
vn 0.000000 -1.000000 -0.000012
vn 0.000000 -1.000000 -0.000012
vn 0.707115 0.000000 -0.707099
vn -0.258801 0.000000 -0.965931
vn -0.258801 0.000000 -0.965931
vn 0.707115 0.000000 -0.707099
vn 0.706978 0.000000 0.707236
vn 0.965925 0.000000 0.258821
vn 0.965925 0.000000 0.258821
vn 0.706978 0.000000 0.707236
vn -0.707115 0.000000 0.707099
vn -0.707115 0.000000 0.707099
vn -0.965925 0.000000 -0.258821
vn -0.965925 0.000000 -0.258821
vn 0.000000 1.000000 0.000000
vn 0.000000 1.000000 0.000000
vn 0.000000 1.000000 0.000009
vn 0.000000 1.000000 0.000009
vn 0.000000 1.000000 0.000000
vn 0.000000 1.000000 0.000000
vn 0.000000 1.000000 -0.000009
vn 0.000000 1.000000 -0.000009
vn 0.000000 -1.000000 0.000000
vn 0.000000 -1.000000 -0.000012
vn 0.000000 -1.000000 -0.000012
vn 0.000000 -1.000000 0.000000
vn 0.000000 1.000000 0.000009
vn 0.000000 1.000000 0.000009
vn 0.000000 1.000000 0.000009
vn 0.000000 1.000000 0.000009
vn 0.000000 1.000000 -0.000009
vn 0.000000 1.000000 -0.000009
vn 0.000000 1.000000 0.000000
vn 0.000000 1.000000 0.000000
vn 0.000000 1.000000 -0.000009
vn 0.000000 1.000000 -0.000009
vn 0.000000 1.000000 -0.000009
vn 0.000000 1.000000 -0.000009
vn 0.000000 -1.000000 0.000000
vn 0.000000 -1.000000 0.000000
vn 0.000000 -1.000000 0.000000
vn 0.000000 -1.000000 0.000000
vn 0.707115 0.000000 -0.707099
vn 0.707115 0.000000 -0.707099
vn 0.965925 0.000000 0.258821
vn 0.965925 0.000000 0.258821
vn 0.000000 1.000000 0.000004
vn 0.000000 1.000000 0.000004
vn 0.000000 1.000000 0.000006
vn 0.000000 1.000000 0.000006
vn 0.000000 -1.000000 -0.000012
vn 0.000000 -1.000000 -0.000012
vn 0.000000 -1.000000 -0.000012
vn 0.000000 -1.000000 -0.000012
vn -0.965925 0.000000 -0.258821
vn -0.965925 0.000000 -0.258821
vn -0.258801 0.000000 -0.965931
vn -0.258801 0.000000 -0.965931
vn 0.000000 -1.000000 -0.000006
vn 0.000000 -1.000000 0.000006
vn 0.000000 -1.000000 0.000006
vn 0.000000 -1.000000 -0.000006
vn 0.707114 0.000000 -0.707099
vn -0.258801 0.000000 -0.965931
vn -0.258801 0.000000 -0.965931
vn 0.707114 0.000000 -0.707099
vn 0.706978 0.000000 0.707236
vn 0.965925 0.000000 0.258821
vn 0.965925 0.000000 0.258821
vn 0.706978 0.000000 0.707236
vn -0.707114 0.000000 0.707099
vn -0.707114 0.000000 0.707099
vn -0.965925 0.000000 -0.258821
vn -0.965925 0.000000 -0.258821
vn 0.000000 1.000000 -0.000006
vn 0.000000 1.000000 -0.000006
vn 0.000000 1.000000 -0.000001
vn 0.000000 1.000000 -0.000001
vn 0.000000 1.000000 0.000006
vn 0.000000 1.000000 0.000006
vn 0.000000 1.000000 0.000001
vn 0.000000 1.000000 0.000001
vn 0.000000 -1.000000 -0.000012
vn 0.000000 -1.000000 -0.000006
vn 0.000000 -1.000000 -0.000006
vn 0.000000 -1.000000 -0.000012
vn 0.000000 1.000000 0.000004
vn 0.000000 1.000000 -0.000001
vn 0.000000 1.000000 -0.000001
vn 0.000000 1.000000 0.000004
vn 0.000000 1.000000 -0.000004
vn 0.000000 1.000000 -0.000004
vn 0.000000 1.000000 -0.000006
vn 0.000000 1.000000 -0.000006
vn 0.000000 1.000000 -0.000004
vn 0.000000 1.000000 0.000001
vn 0.000000 1.000000 0.000001
vn 0.000000 1.000000 -0.000004
vn 0.000000 -1.000000 0.000012
vn 0.000000 -1.000000 0.000000
vn 0.000000 -1.000000 0.000000
vn 0.000000 -1.000000 0.000012
vn 0.707114 0.000000 -0.707099
vn 0.707114 0.000000 -0.707099
vn 0.965925 0.000000 0.258821
vn 0.965925 0.000000 0.258821
vn 0.000000 -1.000000 0.000012
vn 0.000000 -1.000000 0.000012
vn 0.000000 -1.000000 0.000006
vn 0.000000 -1.000000 0.000006
vn 0.000000 -1.000000 0.000000
vn 0.000000 -1.000000 -0.000012
vn 0.000000 -1.000000 -0.000012
vn 0.000000 -1.000000 0.000000
vn -0.258608 0.000000 0.965982
vn -0.258608 0.000000 0.965982
vn -0.707114 0.000000 0.707099
vn -0.707114 0.000000 0.707099
vn 0.000000 0.999076 0.042981
vn 0.955431 0.294821 0.015233
vn 0.918974 0.394319 0.000005
vn 0.000000 1.000000 0.000047
vn -0.984831 0.011705 0.173121
vn -0.987240 0.041799 0.153653
vn -0.997162 -0.015446 -0.073685
vn -0.989861 -0.006920 -0.141868
vn -0.000469 0.067227 0.997738
vn 0.984804 0.011744 0.173273
vn 0.987238 0.041813 0.153668
vn -0.000344 0.262518 0.964927
vn 0.000000 1.000000 0.000047
vn -0.919003 0.394252 0.000035
vn -0.955437 0.294800 0.015255
vn 0.000000 0.999076 0.042981
vn 0.955431 0.294821 0.015233
vn 0.973939 -0.226719 -0.006419
vn 0.919619 -0.392811 0.000015
vn 0.918974 0.394319 0.000005
vn -0.919472 -0.393156 0.000037
vn -0.499805 -0.866138 0.000054
vn -0.500051 -0.865467 -0.030250
vn -0.973888 -0.226938 -0.006407
vn -0.989861 -0.006920 -0.141868
vn -0.997162 -0.015446 -0.073685
vn -0.495541 -0.177190 -0.850319
vn -0.483518 -0.042976 -0.874279
vn 0.989881 -0.006908 -0.141732
vn 0.483486 -0.042970 -0.874297
vn 0.495515 -0.177178 -0.850337
vn 0.997167 -0.015438 -0.073612
vn -0.000469 0.067227 0.997738
vn -0.000344 0.262518 0.964927
vn -0.987240 0.041799 0.153653
vn -0.984831 0.011705 0.173121
vn -0.955437 0.294800 0.015255
vn -0.919003 0.394252 0.000035
vn -0.919472 -0.393156 0.000037
vn -0.973888 -0.226938 -0.006407
vn 0.919619 -0.392811 0.000015
vn 0.973939 -0.226719 -0.006419
vn 0.500051 -0.865467 -0.030250
vn 0.499805 -0.866138 0.000055
vn 0.984804 0.011744 0.173273
vn 0.989881 -0.006908 -0.141732
vn 0.997167 -0.015438 -0.073612
vn 0.987238 0.041813 0.153668
vn 0.000000 -0.999076 0.042980
vn 0.000000 -1.000000 0.000046
vn 0.918973 -0.394321 0.000004
vn 0.955431 -0.294821 0.015233
vn -0.984831 -0.011705 0.173121
vn -0.989861 0.006920 -0.141868
vn -0.997162 0.015446 -0.073685
vn -0.987240 -0.041799 0.153653
vn 0.984804 -0.011744 0.173273
vn 0.987238 -0.041813 0.153668
vn 0.997168 0.015439 -0.073612
vn 0.989881 0.006908 -0.141732
vn 0.000000 -1.000000 0.000046
vn 0.000000 -0.999076 0.042980
vn -0.955437 -0.294801 0.015255
vn -0.919002 -0.394253 0.000035
vn 0.955431 -0.294821 0.015233
vn 0.918973 -0.394321 0.000004
vn 0.919619 0.392811 0.000014
vn 0.973939 0.226719 -0.006419
vn -0.919472 0.393156 0.000037
vn -0.973888 0.226938 -0.006407
vn -0.500052 0.865467 -0.030250
vn -0.499806 0.866138 0.000054
vn -0.000469 -0.067227 0.997738
vn -0.000344 -0.262518 0.964927
vn 0.987238 -0.041813 0.153668
vn 0.984804 -0.011744 0.173273
vn -0.989861 0.006920 -0.141868
vn -0.483518 0.042976 -0.874279
vn -0.495541 0.177190 -0.850319
vn -0.997162 0.015446 -0.073685
vn -0.000469 -0.067227 0.997738
vn -0.984831 -0.011705 0.173121
vn -0.987240 -0.041799 0.153653
vn -0.000344 -0.262518 0.964927
vn -0.919002 -0.394253 0.000035
vn -0.955437 -0.294801 0.015255
vn -0.973888 0.226938 -0.006407
vn -0.919472 0.393156 0.000037
vn 0.989881 0.006908 -0.141732
vn 0.997168 0.015439 -0.073612
vn 0.495519 0.177180 -0.850334
vn 0.483486 0.042969 -0.874297
vn 0.919619 0.392811 0.000014
vn 0.499805 0.866138 0.000053
vn 0.500052 0.865467 -0.030251
vn 0.973939 0.226719 -0.006419
vn -0.987240 0.041799 0.153653
vn -0.995207 0.078538 0.058270
vn -0.999172 -0.032594 -0.024340
vn -0.997162 -0.015446 -0.073685
vn -0.000344 0.262518 0.964927
vn 0.987238 0.041813 0.153668
vn 0.995208 0.078525 0.058260
vn 0.000000 0.806940 0.590634
vn -0.973888 -0.226938 -0.006407
vn -0.500051 -0.865467 -0.030250
vn -0.486983 -0.695770 -0.527969
vn -0.999172 -0.032594 -0.024340
vn 0.000000 0.999076 0.042981
vn -0.955437 0.294800 0.015255
vn -0.995207 0.078538 0.058270
vn 0.000000 0.806940 0.590634
vn 0.995208 0.078525 0.058260
vn 0.999173 -0.032588 -0.024336
vn 0.973939 -0.226719 -0.006419
vn 0.955431 0.294821 0.015233
vn -0.997162 -0.015446 -0.073685
vn -0.999172 -0.032594 -0.024340
vn -0.486983 -0.695770 -0.527969
vn -0.495541 -0.177190 -0.850319
vn 0.997167 -0.015438 -0.073612
vn 0.495515 -0.177178 -0.850337
vn 0.486980 -0.695767 -0.527976
vn 0.999173 -0.032588 -0.024336
vn -0.000344 0.262518 0.964927
vn 0.000000 0.806940 0.590634
vn -0.995207 0.078538 0.058270
vn -0.987240 0.041799 0.153653
vn -0.995207 0.078538 0.058270
vn -0.955437 0.294800 0.015255
vn -0.973888 -0.226938 -0.006407
vn -0.999172 -0.032594 -0.024340
vn 0.973939 -0.226719 -0.006419
vn 0.999173 -0.032588 -0.024336
vn 0.486980 -0.695767 -0.527976
vn 0.500051 -0.865467 -0.030250
vn 0.987238 0.041813 0.153668
vn 0.997167 -0.015438 -0.073612
vn 0.999173 -0.032588 -0.024336
vn 0.995208 0.078525 0.058260
vn 0.000000 0.999076 0.042981
vn 0.000000 0.806940 0.590634
vn 0.995208 0.078525 0.058260
vn 0.955431 0.294821 0.015233
vn -0.987240 -0.041799 0.153653
vn -0.997162 0.015446 -0.073685
vn -0.999172 0.032593 -0.024340
vn -0.995207 -0.078538 0.058270
vn 0.987238 -0.041813 0.153668
vn 0.995208 -0.078525 0.058261
vn 0.999173 0.032588 -0.024335
vn 0.997168 0.015439 -0.073612
vn -0.973888 0.226938 -0.006407
vn -0.999172 0.032593 -0.024340
vn -0.486988 0.695767 -0.527969
vn -0.500052 0.865467 -0.030250
vn 0.000000 -0.999076 0.042980
vn 0.000000 -0.806938 0.590636
vn -0.995207 -0.078538 0.058270
vn -0.955437 -0.294801 0.015255
vn 0.995208 -0.078525 0.058261
vn 0.955431 -0.294821 0.015233
vn 0.973939 0.226719 -0.006419
vn 0.999173 0.032588 -0.024335
vn -0.997162 0.015446 -0.073685
vn -0.495541 0.177190 -0.850319
vn -0.486988 0.695767 -0.527969
vn -0.999172 0.032593 -0.024340
vn -0.000344 -0.262518 0.964927
vn 0.000000 -0.806938 0.590636
vn 0.995208 -0.078525 0.058261
vn 0.987238 -0.041813 0.153668
vn -0.000344 -0.262518 0.964927
vn -0.987240 -0.041799 0.153653
vn -0.995207 -0.078538 0.058270
vn 0.000000 -0.806938 0.590636
vn -0.995207 -0.078538 0.058270
vn -0.999172 0.032593 -0.024340
vn -0.973888 0.226938 -0.006407
vn -0.955437 -0.294801 0.015255
vn 0.997168 0.015439 -0.073612
vn 0.999173 0.032588 -0.024335
vn 0.486989 0.695768 -0.527967
vn 0.495519 0.177180 -0.850334
vn 0.973939 0.226719 -0.006419
vn 0.500052 0.865467 -0.030251
vn 0.486989 0.695768 -0.527967
vn 0.999173 0.032588 -0.024335
vn 0.000000 -0.999076 0.042980
vn 0.955431 -0.294821 0.015233
vn 0.995208 -0.078525 0.058261
vn 0.000000 -0.806938 0.590636
g Crosswalk_LOD1 Crosswalk
usemtl lambert14SG
f 4/23/1 5/15/2 12/25/3 11/21/4
f 13/17/5 7/13/6 1/8/7 8/1/8
f 16/3/9 15/10/10 9/6/11 2/29/12
f 4/24/13 7/14/14 6/33/15 5/16/16
f 1/9/17 3/19/18 16/4/19 2/30/20
f 4/24/21 3/19/22 1/9/23 7/14/24
f 12/25/25 5/15/26 6/34/27 14/31/28
f 13/17/29 14/31/30 6/34/31 7/13/32
f 10/27/33 3/20/34 4/23/35 11/21/36
f 13/18/37 11/22/38 12/26/39 14/32/40
f 9/6/41 8/1/42 1/8/43 2/29/44
f 10/27/45 15/11/46 16/5/47 3/20/48
f 10/28/49 11/22/50 13/18/51 8/2/52
f 10/28/53 8/2/54 9/7/55 15/12/56
f 103/35/57 101/37/58 102/38/59 89/39/60
f 111/41/61 108/43/62 106/46/63 99/47/64
f 108/44/65 107/48/66 100/51/67 109/53/68
f 100/52/69 97/55/70 96/56/71 91/57/72
f 109/54/73 105/59/74 106/46/75 108/43/76
f 92/60/77 91/58/78 90/62/79 89/40/80
f 92/61/81 89/39/82 102/38/83 104/64/84
f 103/36/85 89/40/86 90/62/87 112/65/88
f 108/45/89 111/42/90 110/67/91 107/49/92
f 109/53/93 100/51/94 91/58/95 92/60/96
f 110/68/97 93/69/98 98/70/99 107/50/100
f 91/57/101 96/56/102 95/71/103 90/63/104
f 109/54/105 92/61/106 104/64/107 105/59/108
f 100/52/109 107/50/110 98/70/111 97/55/112
f 112/66/113 94/72/114 93/69/115 110/68/116
f 112/66/117 90/63/118 95/71/119 94/72/120
f 103/35/121 111/41/122 99/47/123 101/37/124
f 103/36/125 112/65/126 110/67/127 111/42/128
f 52/73/129 49/75/130 48/76/131 43/77/132
f 61/79/133 57/81/134 58/82/135 60/83/136
f 44/86/137 43/78/138 42/88/139 41/90/140
f 44/87/141 41/91/142 54/92/143 56/93/144
f 55/94/145 41/90/146 42/88/147 64/96/148
f 60/84/149 63/98/150 62/100/151 59/102/152
f 61/80/153 52/74/154 43/78/155 44/86/156
f 62/101/157 45/105/158 50/106/159 59/103/160
f 43/77/161 48/76/162 47/107/163 42/89/164
f 61/79/165 44/87/166 56/93/167 57/81/168
f 52/73/169 59/103/170 50/106/171 49/75/172
f 64/97/173 46/108/174 45/105/175 62/101/176
f 64/97/177 42/89/178 47/107/179 46/108/180
f 55/95/181 63/99/182 51/109/183 53/110/184
f 55/94/185 64/96/186 62/100/187 63/98/188
f 55/95/189 53/110/190 54/92/191 41/91/192
f 63/99/193 60/83/194 58/82/195 51/109/196
f 60/85/197 59/104/198 52/74/199 61/80/200
f 17/111/201 19/112/202 39/113/203 31/114/204
f 32/115/205 25/116/206 24/117/207 36/118/208
f 29/119/209 33/120/210 27/121/211 26/122/212
f 31/114/213 38/123/214 22/124/215 17/111/216
f 19/112/217 21/125/218 40/126/219 39/113/220
f 37/127/221 30/128/222 18/130/223 20/132/224
f 36/118/225 24/117/226 23/133/227 35/135/228
f 34/137/229 35/136/230 23/134/231 28/138/232
f 29/119/233 26/122/234 25/116/235 32/115/236
f 22/124/237 38/123/238 37/127/239 20/132/240
f 40/126/241 21/125/242 18/131/243 30/129/244
f 33/120/245 34/137/246 28/138/247 27/121/248
f 65/139/249 79/140/250 87/141/251 67/142/252
f 80/143/253 84/144/254 72/145/255 73/146/256
f 81/147/257 75/148/258 76/149/259 82/150/260
f 79/140/261 65/139/262 70/151/263 86/152/264
f 67/142/265 87/141/266 88/153/267 69/154/268
f 85/155/269 68/156/270 66/157/271 78/159/272
f 77/161/273 74/162/274 75/148/275 81/147/276
f 84/144/277 83/163/278 71/165/279 72/145/280
f 77/161/281 80/143/282 73/146/283 74/162/284
f 86/152/285 70/151/286 68/156/287 85/155/288
f 82/150/289 76/149/290 71/166/291 83/164/292
f 88/153/293 78/160/294 66/158/295 69/154/296
f 25/116/297 117/167/298 113/168/299 24/117/300
f 26/122/301 27/121/302 114/169/303 116/170/304
f 20/132/305 18/130/306 115/171/307 113/168/308
f 17/111/309 22/124/310 117/167/311 116/170/312
f 114/169/313 118/173/314 21/125/315 19/112/316
f 24/117/317 113/168/318 115/171/319 23/133/320
f 28/138/321 23/134/322 115/172/323 118/173/324
f 26/122/325 116/170/326 117/167/327 25/116/328
f 117/167/329 22/124/330 20/132/331 113/168/332
f 21/125/333 118/173/334 115/172/335 18/131/336
f 27/121/337 28/138/338 118/173/339 114/169/340
f 17/111/341 116/170/342 114/169/343 19/112/344
f 73/146/345 72/145/346 121/174/347 119/175/348
f 75/148/349 122/176/350 120/177/351 76/149/352
f 68/156/353 121/174/354 123/178/355 66/157/356
f 65/139/357 124/180/358 119/175/359 70/151/360
f 122/176/361 67/142/362 69/154/363 120/177/364
f 72/145/365 71/165/366 123/178/367 121/174/368
f 74/162/369 124/180/370 122/176/371 75/148/372
f 74/162/373 73/146/374 119/175/375 124/180/376
f 119/175/377 121/174/378 68/156/379 70/151/380
f 76/149/381 120/177/382 123/179/383 71/166/384
f 69/154/385 66/158/386 123/179/387 120/177/388
f 65/139/389 67/142/390 122/176/391 124/180/392
