# This file uses meters as units for non-parametric coordinates.

mtllib Bush_A_LOD3.mtl
g default
v -110.609100 0.306103 0.000000
v 96.965469 0.306107 0.000000
v -110.609100 153.162460 0.000000
v 96.965469 153.162460 0.000000
v 0.000000 0.306107 104.742599
v 0.000000 0.306107 -95.548370
v -0.000000 151.549988 104.742599
v -0.000000 151.549988 -95.548370
vt 0.009804 0.663274
vt 0.009804 0.008557
vt 0.491933 0.008557
vt 0.491933 0.663274
vt 0.513153 0.638311
vt 0.513153 0.006567
vt 0.990196 0.006567
vt 0.990196 0.638311
vn 0.000000 0.000000 1.000000
vn 0.000000 0.000000 1.000000
vn 0.000000 0.000000 1.000000
vn 0.000000 0.000000 1.000000
vn 1.000000 0.000000 0.000000
vn 1.000000 0.000000 0.000000
vn 1.000000 0.000000 0.000000
vn 1.000000 0.000000 0.000000
g Bush_A_LOD3 Bush_A
usemtl lambert3SG
f 1/1/1 2/2/2 4/3/3 3/4/4
f 5/5/5 6/6/6 8/7/7 7/8/8
