# This file uses meters as units for non-parametric coordinates.

mtllib GarbageDesbris_C_LOD1.mtl
g default
v -159.534195 2.852396 -101.872559
v -158.981033 3.310674 -145.555420
v -222.660919 2.955686 -145.748169
v -222.597229 3.453555 -101.668213
v -33.755337 2.852396 109.206665
v -69.518456 3.310674 134.296509
v -32.445251 2.955686 186.072388
v 3.279386 3.453555 160.250000
v -35.057144 0.000089 -265.181641
v -25.285280 0.000089 -274.953613
v 55.180008 0.000089 -195.284668
v -35.057144 5.122948 -265.181641
v -25.285280 5.122948 -274.953613
v 55.180008 5.122948 -195.284668
v -30.801481 0.000089 -270.874878
v -30.801481 5.122948 -270.874878
v -41.669510 0.000089 -271.794067
v -41.669510 5.122948 -271.794067
v -35.777283 0.000089 -273.661377
v -35.777283 5.122948 -273.661377
v 44.554180 5.122948 -184.658936
v 44.554180 0.000089 -184.658936
v 77.268417 0.000089 95.253052
v 70.067139 0.000089 83.458130
v 166.416550 0.000089 23.972412
v 77.268417 5.122948 95.253052
v 70.067139 5.122948 83.458130
v 166.416550 5.122948 23.972412
v 72.735039 0.000089 89.778320
v 72.735039 5.122948 89.778320
v 69.287170 0.000089 100.125977
v 69.287170 5.122948 100.125977
v 68.857040 0.000089 93.960083
v 68.857040 5.122948 93.960083
v 174.247345 5.122948 36.797729
v 174.247345 0.000089 36.797729
v -62.367500 3.319579 52.504517
v -61.558723 2.854060 49.355713
v -86.787964 5.947546 37.740234
v -87.812355 6.329658 41.444824
v -59.840309 1.265240 44.378174
v -58.175488 -0.217319 50.574219
v -56.396599 -1.118261 46.177490
v -52.882240 -1.918960 52.653320
v -51.882397 -2.661465 49.484985
v -57.374619 1.888242 51.757568
v -54.600632 0.862322 57.033081
v -53.779961 0.113191 54.371948
v -63.670368 -1.401519 50.726196
v -87.632530 1.418938 38.377441
v -88.552963 2.453477 42.300171
v -63.686390 -0.847548 53.338867
v -61.888882 -3.021628 44.948364
v -60.710316 -1.876113 51.652588
v -53.054893 -3.266929 52.560547
v -52.082706 -4.150568 49.409790
v -58.451050 -3.002551 46.498169
v -54.882233 -0.417000 57.280273
v -54.054237 -1.169577 54.596802
v -59.514790 -1.871581 52.958252
v -88.025063 1.860154 40.050415
v -87.326485 6.148410 39.687622
v -95.357529 6.329849 39.408569
v -95.709000 3.947128 39.695435
v -95.435555 3.640518 38.535767
v -95.031853 6.008401 38.273071
v -59.073769 9.059065 -58.203247
v -26.720758 -0.273585 -71.051636
v -29.773319 -0.429777 -76.921997
v -35.896614 3.085781 -73.034546
v -45.478981 6.884061 -68.998535
v -54.369831 10.122098 -64.034668
v -45.686943 3.177564 -68.192139
v -57.437401 6.296525 -62.128906
v -25.553337 -3.068237 -65.866577
v -24.250984 3.409143 -67.910278
v -26.834089 3.095886 -74.558105
v -36.141495 -1.550205 -71.487915
v -58.915009 7.022700 -56.677979
v -57.466976 9.690830 -55.457520
v -41.577686 10.676664 -62.376709
v -33.071392 6.549689 -67.015625
v -42.045921 4.573693 -62.143555
v -34.284134 -0.809658 -65.098145
v -49.891476 12.431727 -59.122803
v -51.787735 6.121943 -57.039429
v -28.674026 -5.995220 -71.371582
v 66.809746 3.317707 -99.148682
v 74.108147 1.982745 -97.879272
v 72.192734 -2.326840 -91.872070
v 65.429749 -0.724511 -93.353760
v 78.314896 4.069499 -107.038208
v 77.041245 1.888308 -100.081177
v 83.838104 -0.975773 -99.464600
v 85.394302 1.602441 -106.363281
v 81.383278 2.023048 -103.157959
v 69.661362 1.967412 -94.646484
v -181.449341 3.317707 40.982300
v -174.150940 1.982745 42.251709
v -176.066345 -2.326840 48.258911
v -182.829346 -0.724511 46.777222
v -169.944199 4.069499 33.092773
v -171.217834 1.888308 40.049805
v -164.420990 -0.975773 40.666382
v -162.864777 1.602441 33.767700
v -166.875809 2.023048 36.973022
v -178.597733 1.967412 45.484497
vn 0.001942 0.999998 -0.000440
vn 0.001942 0.999998 -0.000440
vn 0.001942 0.999998 -0.000440
vn 0.001942 0.999998 -0.000440
vn -0.001942 0.999998 0.000440
vn -0.001942 0.999998 0.000440
vn -0.001942 0.999998 0.000440
vn -0.001942 0.999998 0.000440
vn 0.703581 0.000000 -0.710615
vn 0.703581 0.000000 -0.710615
vn 0.703581 0.000000 -0.710615
vn 0.703581 0.000000 -0.710615
vn 0.000000 -1.000000 0.000000
vn 0.000000 -1.000000 0.000000
vn 0.000000 -1.000000 0.000000
vn -0.000000 -1.000000 -0.000000
vn -0.709116 0.000000 0.705092
vn -0.709116 0.000000 0.705092
vn -0.707107 0.000000 0.707107
vn -0.707107 0.000000 0.707107
vn -0.122236 0.000000 -0.992501
vn -0.122236 0.000000 -0.992501
vn 0.084280 0.000000 -0.996442
vn 0.084280 0.000000 -0.996442
vn 0.084280 0.000000 -0.996442
vn -0.302104 0.000000 -0.953275
vn -0.302104 0.000000 -0.953275
vn 0.084280 0.000000 -0.996442
vn -0.594536 0.000000 -0.804069
vn -0.122236 0.000000 -0.992501
vn -0.122236 0.000000 -0.992501
vn -0.594536 0.000000 -0.804069
vn 0.000000 1.000000 0.000000
vn 0.000000 1.000000 0.000000
vn 0.000000 1.000000 0.000000
vn 0.000000 1.000000 0.000000
vn 0.000000 1.000000 0.000000
vn 0.000000 1.000000 0.000000
vn 0.000000 1.000000 0.000000
vn 0.000000 1.000000 0.000000
vn 0.000000 1.000000 0.000000
vn 0.000000 1.000000 0.000000
vn 0.000000 1.000000 0.000000
vn -0.000000 -1.000000 -0.000000
vn -0.000000 -1.000000 -0.000000
vn -0.000000 -1.000000 -0.000000
vn -0.000000 -1.000000 -0.000000
vn -0.000000 -1.000000 -0.000000
vn 0.000000 -1.000000 0.000000
vn -0.000000 -1.000000 -0.000000
vn -0.711120 0.000000 0.703071
vn -0.709116 0.000000 0.705092
vn -0.709116 0.000000 0.705092
vn -0.711120 0.000000 0.703071
vn 0.707107 0.000000 0.707107
vn 0.707107 0.000000 0.707107
vn 0.707107 0.000000 0.707107
vn 0.707107 0.000000 0.707107
vn -0.999988 0.000000 0.004974
vn -0.999988 0.000000 0.004974
vn -0.999988 0.000000 0.004974
vn -0.999988 0.000000 0.004974
vn 0.000000 -1.000000 0.000000
vn 0.000000 -1.000000 0.000000
vn 0.000000 -1.000000 0.000000
vn -0.000000 -1.000000 0.000000
vn 0.999996 0.000000 0.002846
vn 0.999996 0.000000 0.002846
vn 1.000000 0.000000 0.000000
vn 1.000000 0.000000 0.000000
vn -0.615370 0.000000 0.788238
vn -0.615370 0.000000 0.788238
vn -0.764186 0.000000 0.644996
vn -0.764186 0.000000 0.644996
vn -0.764186 0.000000 0.644996
vn -0.460448 0.000000 0.887687
vn -0.460448 0.000000 0.887687
vn -0.764186 0.000000 0.644996
vn -0.148163 0.000000 0.988963
vn -0.615370 0.000000 0.788238
vn -0.615370 0.000000 0.788238
vn -0.148163 0.000000 0.988963
vn 0.000000 1.000000 0.000000
vn 0.000000 1.000000 -0.000000
vn 0.000000 1.000000 0.000000
vn 0.000000 1.000000 0.000000
vn 0.000000 1.000000 -0.000000
vn 0.000000 1.000000 -0.000000
vn 0.000000 1.000000 -0.000000
vn 0.000000 1.000000 -0.000000
vn 0.000000 1.000000 -0.000000
vn 0.000000 1.000000 0.000000
vn 0.000000 1.000000 -0.000000
vn -0.000000 -1.000000 0.000000
vn -0.000000 -1.000000 0.000000
vn -0.000000 -1.000000 0.000000
vn -0.000000 -1.000000 0.000000
vn -0.000000 -1.000000 0.000000
vn 0.000000 -1.000000 0.000000
vn -0.000000 -1.000000 0.000000
vn 0.999984 0.000000 0.005692
vn 0.999996 0.000000 0.002846
vn 0.999996 0.000000 0.002846
vn 0.999984 0.000000 0.005692
vn 0.000000 0.000000 -1.000000
vn 0.000000 0.000000 -1.000000
vn 0.000000 0.000000 -1.000000
vn 0.000000 0.000000 -1.000000
vn -0.366214 0.281147 0.887042
vn -0.343149 0.268916 0.899963
vn -0.343269 0.269003 0.899891
vn -0.364654 0.280742 0.887813
vn 0.217836 -0.213918 -0.952254
vn -0.022974 -0.883478 -0.467909
vn -0.058543 -0.914920 -0.399366
vn 0.205791 -0.198765 -0.958198
vn 0.250663 0.957527 -0.142515
vn 0.330633 0.928912 -0.166748
vn 0.169159 0.979821 -0.106469
vn -0.213577 -0.956046 0.200900
vn -0.058543 -0.914920 -0.399366
vn -0.022974 -0.883478 -0.467909
vn -0.114033 0.400675 0.909096
vn -0.114033 0.400675 0.909096
vn -0.114033 0.400675 0.909096
vn -0.114033 0.400675 0.909096
vn 0.933899 -0.142202 0.328041
vn 0.933899 -0.142202 0.328041
vn 0.933899 -0.142202 0.328041
vn 0.933899 -0.142202 0.328041
vn -0.001132 -0.964865 -0.262744
vn 0.364308 -0.335267 -0.868836
vn 0.404638 -0.332438 -0.851911
vn -0.061115 -0.987183 -0.147427
vn 0.524895 0.844760 -0.104239
vn 0.349825 0.933858 -0.074379
vn 0.349825 0.933858 -0.074379
vn 0.497834 0.866944 -0.023880
vn -0.211444 -0.957395 0.196690
vn -0.001132 -0.964865 -0.262744
vn -0.061115 -0.987183 -0.147427
vn -0.215471 -0.964966 0.149711
vn -0.364654 0.280742 0.887813
vn -0.406857 0.291480 0.865741
vn -0.406857 0.291480 0.865741
vn -0.366214 0.281147 0.887042
vn 0.933899 -0.142202 0.328042
vn 0.933899 -0.142202 0.328042
vn 0.933899 -0.142202 0.328042
vn 0.933899 -0.142202 0.328042
vn 0.584790 -0.580456 -0.566649
vn 0.459809 -0.491046 -0.739899
vn 0.348705 -0.405787 -0.844833
vn 0.348705 -0.405787 -0.844833
vn 0.187182 0.979253 -0.077633
vn 0.350165 0.936686 -0.001969
vn 0.350165 0.936686 -0.001969
vn 0.385910 0.916545 -0.104969
vn -0.082290 -0.914555 0.396002
vn -0.213130 -0.955060 0.206000
vn -0.185868 -0.950764 0.247992
vn -0.082290 -0.914555 0.396002
vn 0.217836 -0.213918 -0.952254
vn 0.364308 -0.335267 -0.868836
vn -0.001132 -0.964865 -0.262744
vn -0.022974 -0.883478 -0.467909
vn 0.330633 0.928912 -0.166748
vn 0.250663 0.957527 -0.142515
vn 0.524895 0.844760 -0.104239
vn 0.497834 0.866944 -0.023880
vn -0.022974 -0.883478 -0.467909
vn -0.001132 -0.964865 -0.262744
vn -0.211444 -0.957395 0.196690
vn -0.213577 -0.956046 0.200900
vn 0.584790 -0.580456 -0.566649
vn 0.748406 -0.662095 -0.038983
vn 0.748406 -0.662095 -0.038983
vn 0.459809 -0.491046 -0.739899
vn 0.385910 0.916545 -0.104969
vn 0.524895 0.844760 -0.104239
vn 0.250663 0.957527 -0.142515
vn -0.185868 -0.950764 0.247992
vn -0.213577 -0.956046 0.200900
vn -0.211444 -0.957395 0.196690
vn -0.953348 0.136310 -0.269347
vn -0.953348 0.136310 -0.269347
vn -0.953348 0.136310 -0.269347
vn -0.953348 0.136310 -0.269347
vn 0.187182 0.979253 -0.077633
vn 0.250663 0.957527 -0.142515
vn 0.141374 0.985973 -0.088718
vn 0.139552 0.985292 -0.098618
vn 0.169159 0.979821 -0.106469
vn 0.141374 0.985973 -0.088718
vn 0.250663 0.957527 -0.142515
vn 0.385910 0.916545 -0.104969
vn 0.250663 0.957527 -0.142515
vn 0.187182 0.979253 -0.077633
vn -0.213577 -0.956046 0.200900
vn -0.185868 -0.950764 0.247992
vn -0.213130 -0.955060 0.206000
vn -0.058543 -0.914920 -0.399366
vn -0.213577 -0.956046 0.200900
vn -0.217922 -0.955095 0.200756
vn -0.213130 -0.955060 0.206000
vn -0.219322 -0.954856 0.200367
vn -0.217922 -0.955095 0.200756
vn -0.213577 -0.956046 0.200900
vn 0.176179 -0.120962 -0.976898
vn 0.176179 -0.120962 -0.976898
vn 0.176179 -0.120962 -0.976898
vn 0.176179 -0.120962 -0.976898
vn -0.219322 -0.954856 0.200367
vn -0.265518 -0.945752 0.187227
vn -0.265518 -0.945752 0.187227
vn -0.217922 -0.955095 0.200756
vn -0.343149 0.268916 0.899963
vn -0.273477 0.218662 0.936695
vn -0.273477 0.218662 0.936695
vn -0.343269 0.269003 0.899891
vn 0.139552 0.985292 -0.098618
vn 0.141374 0.985973 -0.088718
vn 0.027961 0.986141 -0.163533
vn 0.027961 0.986141 -0.163533
vn -0.952288 0.118866 -0.281104
vn -0.952288 0.118866 -0.281104
vn -0.952288 0.118866 -0.281104
vn -0.952288 0.118866 -0.281104
vn -0.615047 -0.649921 -0.446453
vn -0.549261 -0.067677 -0.832906
vn -0.468770 -0.150397 -0.870423
vn -0.508950 -0.767925 -0.388922
vn 0.888286 -0.296527 -0.350743
vn 0.889461 -0.287524 -0.355232
vn 0.879023 -0.297414 -0.372643
vn 0.843853 -0.320587 -0.430274
vn 0.846871 -0.369515 -0.382450
vn 0.879023 -0.297414 -0.372643
vn 0.046314 0.839618 -0.541199
vn 0.078816 0.890197 -0.448706
vn -0.130137 0.624708 -0.769938
vn 0.846871 -0.369515 -0.382450
vn 0.888286 -0.296527 -0.350743
vn 0.879023 -0.297414 -0.372643
vn -0.555067 -0.802899 -0.217382
vn -0.478301 -0.223301 -0.849332
vn -0.465468 -0.583212 -0.665735
vn -0.478301 -0.223301 -0.849332
vn -0.555067 -0.802899 -0.217382
vn -0.508950 -0.767925 -0.388922
vn -0.468770 -0.150397 -0.870423
vn -0.615047 -0.649921 -0.446453
vn -0.633703 -0.760749 0.140290
vn -0.868322 0.155128 -0.471118
vn -0.549261 -0.067677 -0.832906
vn 0.360873 0.862293 0.355277
vn 0.078816 0.890197 -0.448706
vn 0.046314 0.839618 -0.541199
vn 0.360873 0.862293 0.355277
vn 0.257778 0.541913 0.799926
vn 0.078816 0.890197 -0.448706
vn 0.071096 0.855249 -0.513318
vn 0.410867 0.888707 0.203442
vn 0.360873 0.862293 0.355277
vn 0.046314 0.839618 -0.541199
vn 0.360873 0.862293 0.355277
vn -0.038861 -0.441114 0.896609
vn 0.086610 -0.064183 0.994173
vn 0.257778 0.541913 0.799926
vn -0.508950 -0.767925 -0.388922
vn -0.555067 -0.802899 -0.217382
vn -0.038861 -0.441114 0.896609
vn 0.192913 -0.464880 0.864101
vn 0.360873 0.862293 0.355277
vn 0.410867 0.888707 0.203442
vn 0.192913 -0.464880 0.864101
vn -0.038861 -0.441114 0.896609
vn 0.221268 0.941623 0.253744
vn -0.110591 0.928891 -0.353457
vn -0.350706 0.933086 -0.079722
vn -0.240241 0.886842 0.394711
vn 0.071096 0.855249 -0.513318
vn -0.110591 0.928891 -0.353457
vn 0.221268 0.941623 0.253744
vn 0.410867 0.888707 0.203442
vn -0.508950 -0.767925 -0.388922
vn 0.217658 -0.558873 0.800179
vn -0.615047 -0.649921 -0.446453
vn -0.615047 -0.649921 -0.446453
vn 0.217658 -0.558873 0.800179
vn -0.633703 -0.760749 0.140290
vn -0.240241 0.886842 0.394711
vn -0.633703 -0.760749 0.140290
vn 0.217658 -0.558873 0.800179
vn 0.192913 -0.464880 0.864101
vn 0.217658 -0.558873 0.800179
vn -0.508950 -0.767925 -0.388922
vn 0.217658 -0.558873 0.800179
vn 0.221268 0.941623 0.253744
vn -0.240241 0.886842 0.394711
vn 0.217658 -0.558873 0.800179
vn 0.192913 -0.464880 0.864101
vn 0.410867 0.888707 0.203442
vn 0.221268 0.941623 0.253744
vn 0.879409 -0.278629 -0.386012
vn 0.843853 -0.320587 -0.430274
vn 0.879023 -0.297414 -0.372643
vn 0.889461 -0.287524 -0.355232
vn 0.879409 -0.278629 -0.386012
vn 0.879023 -0.297414 -0.372643
vn -0.394741 -0.917724 0.044300
vn -0.555067 -0.802899 -0.217382
vn -0.465468 -0.583212 -0.665735
vn -0.394741 -0.917724 0.044300
vn 0.086610 -0.064183 0.994173
vn -0.038861 -0.441114 0.896609
vn -0.038861 -0.441114 0.896609
vn -0.555067 -0.802899 -0.217382
vn -0.394741 -0.917724 0.044300
vn 0.190780 0.938037 0.289293
vn 0.060868 0.948030 0.312304
vn 0.251633 0.862231 0.439588
vn 0.246376 0.864915 0.437288
vn -0.212823 -0.860204 -0.463417
vn -0.212446 -0.860532 -0.462981
vn -0.136373 -0.917724 -0.373076
vn -0.136373 -0.917724 -0.373076
vn 0.305233 0.880092 0.363690
vn 0.190780 0.938037 0.289293
vn 0.246376 0.864915 0.437288
vn 0.305233 0.880092 0.363690
vn 0.352977 0.876759 0.326652
vn 0.190780 0.938037 0.289293
vn 0.057315 0.811276 0.581847
vn -0.217942 0.679174 0.700873
vn 0.280847 0.705426 0.650768
vn -0.212823 -0.860204 -0.463417
vn -0.284074 -0.789493 -0.544062
vn -0.284074 -0.789493 -0.544062
vn -0.212446 -0.860532 -0.462981
vn 0.305233 0.880092 0.363690
vn 0.246376 0.864915 0.437288
vn 0.334572 0.780524 0.528057
vn 0.057315 0.811276 0.581847
vn 0.280847 0.705426 0.650768
vn 0.251633 0.862231 0.439588
vn 0.057315 0.811276 0.581847
vn 0.060868 0.948030 0.312304
vn -0.217942 0.679174 0.700873
vn 0.305233 0.880092 0.363690
vn 0.334572 0.780524 0.528057
vn 0.352977 0.876759 0.326652
vn 0.280847 0.705426 0.650768
vn 0.334572 0.780524 0.528057
vn 0.246376 0.864915 0.437288
vn 0.251633 0.862231 0.439588
vn 0.057315 0.811276 0.581847
vn 0.251633 0.862231 0.439588
vn 0.060868 0.948030 0.312304
vn 0.190780 0.938037 0.289293
vn 0.060868 0.948030 0.312304
vn 0.251633 0.862231 0.439588
vn 0.246376 0.864915 0.437288
vn -0.212823 -0.860204 -0.463417
vn -0.212446 -0.860532 -0.462981
vn -0.136373 -0.917724 -0.373076
vn -0.136373 -0.917724 -0.373076
vn 0.305233 0.880092 0.363690
vn 0.190780 0.938037 0.289293
vn 0.246376 0.864915 0.437288
vn 0.305233 0.880092 0.363690
vn 0.352977 0.876759 0.326652
vn 0.190780 0.938037 0.289293
vn 0.057315 0.811276 0.581847
vn -0.217942 0.679174 0.700873
vn 0.280847 0.705426 0.650768
vn -0.212823 -0.860204 -0.463417
vn -0.284074 -0.789493 -0.544062
vn -0.284074 -0.789493 -0.544062
vn -0.212446 -0.860532 -0.462981
vn 0.305233 0.880092 0.363690
vn 0.246376 0.864915 0.437288
vn 0.334572 0.780524 0.528057
vn 0.057315 0.811276 0.581847
vn 0.280847 0.705426 0.650768
vn 0.251633 0.862231 0.439588
vn 0.057315 0.811276 0.581847
vn 0.060868 0.948030 0.312304
vn -0.217942 0.679174 0.700873
vn 0.305233 0.880092 0.363690
vn 0.334572 0.780524 0.528057
vn 0.352977 0.876759 0.326652
vn 0.280847 0.705426 0.650768
vn 0.334572 0.780524 0.528057
vn 0.246376 0.864915 0.437288
vn 0.251633 0.862231 0.439588
vn 0.057315 0.811276 0.581847
vn 0.251633 0.862231 0.439588
vn 0.060868 0.948030 0.312304
g GarbageDesbris_C_LOD1 GarbageDesbris_C
usemtl lambert4SG
f 3//1 4//2 1//3 2//4
f 7//5 8//6 5//7 6//8
f 13//9 14//10 11//11 10//12
f 9//13 17//14 19//15 15//16
f 9//17 12//18 18//19 17//20
f 16//21 15//22 19//23 20//24
f 19//25 17//26 18//27 20//28
f 10//29 15//30 16//31 13//32
f 12//33 16//34 20//35 18//36
f 21//37 14//38 13//39 16//40
f 16//41 12//42 21//43
f 22//44 15//45 10//46 11//47
f 22//48 9//49 15//50
f 21//51 12//52 9//53 22//54
f 22//55 11//56 14//57 21//58
f 27//59 28//60 25//61 24//62
f 23//63 31//64 33//65 29//66
f 23//67 26//68 32//69 31//70
f 30//71 29//72 33//73 34//74
f 33//75 31//76 32//77 34//78
f 24//79 29//80 30//81 27//82
f 26//83 30//84 34//85 32//86
f 35//87 28//88 27//89 30//90
f 30//91 26//92 35//93
f 36//94 29//95 24//96 25//97
f 36//98 23//99 29//100
f 35//101 26//102 23//103 36//104
f 36//105 25//106 28//107 35//108
f 37//109 40//110 51//111 52//112
f 41//113 53//114 50//115 39//116
f 38//117 41//118 39//119
f 49//120 50//121 53//122
f 54//123 55//124 44//125 42//126
f 45//127 44//128 55//129 56//130
f 57//131 43//132 45//133 56//134
f 42//135 44//136 45//137 43//138
f 54//139 57//140 56//141 55//142
f 52//143 58//144 47//145 37//146
f 58//147 59//148 48//149 47//150
f 60//151 46//152 48//153 59//154
f 37//155 47//156 48//157 46//158
f 58//159 52//160 60//161 59//162
f 41//163 43//164 57//165 53//166
f 41//167 38//168 42//169 43//170
f 53//171 57//172 54//173 49//174
f 60//175 54//176 42//177 46//178
f 46//179 42//180 38//181
f 60//182 49//183 54//184
f 39//185 50//186 61//187 62//188
f 37//189 38//190 62//191 40//192
f 39//193 62//194 38//195
f 46//196 38//197 37//198
f 49//199 60//200 52//201
f 50//202 49//203 61//204
f 52//205 51//206 61//207 49//208
f 62//209 61//210 65//211 66//212
f 51//213 64//214 65//215 61//216
f 40//217 63//218 64//219 51//220
f 40//221 62//222 66//223 63//224
f 64//225 63//226 66//227 65//228
f 74//229 72//230 71//231 73//232
f 76//233 75//234 68//235
f 69//236 77//237 68//238
f 70//239 77//240 69//241
f 77//242 76//243 68//244
f 78//245 70//246 69//247
f 70//248 78//249 73//250 71//251
f 74//252 79//253 67//254 72//255
f 82//256 77//257 70//258
f 82//259 76//260 77//261
f 71//262 81//263 82//264 70//265
f 82//266 84//267 75//268 76//269
f 73//270 78//271 84//272 83//273
f 82//274 81//275 83//276 84//277
f 85//278 72//279 67//280 80//281
f 71//282 72//283 85//284 81//285
f 73//286 86//287 74//288
f 74//289 86//290 79//291
f 80//292 79//293 86//294
f 83//295 86//296 73//297
f 86//298 85//299 80//300
f 86//301 83//302 81//303 85//304
f 87//305 69//306 68//307
f 75//308 87//309 68//310
f 87//311 78//312 69//313
f 87//314 75//315 84//316
f 84//317 78//318 87//319
f 92//320 88//321 89//322 93//323
f 91//324 95//325 94//326 90//327
f 96//328 92//329 93//330
f 96//331 95//332 92//333
f 97//334 91//335 90//336
f 91//337 88//338 92//339 95//340
f 96//341 93//342 94//343
f 97//344 90//345 89//346
f 97//347 88//348 91//349
f 96//350 94//351 95//352
f 90//353 94//354 93//355 89//356
f 97//357 89//358 88//359
f 102//360 98//361 99//362 103//363
f 101//364 105//365 104//366 100//367
f 106//368 102//369 103//370
f 106//371 105//372 102//373
f 107//374 101//375 100//376
f 101//377 98//378 102//379 105//380
f 106//381 103//382 104//383
f 107//384 100//385 99//386
f 107//387 98//388 101//389
f 106//390 104//391 105//392
f 100//393 104//394 103//395 99//396
f 107//397 99//398 98//399
