# This file uses meters as units for non-parametric coordinates.

mtllib Garbage_Bag_LOD1.mtl
g default
v 2.266113 76.710739 -0.398432
v -1.615173 86.308113 5.393704
v -22.887512 58.770336 -9.094759
v 0.104614 -0.267685 13.975422
v 4.967957 59.303806 21.294170
v -18.482422 4.828735 20.666861
v 25.554075 55.985844 13.715133
v 19.709839 16.965427 32.139320
v 21.608887 24.748077 -23.956268
v -18.733887 -0.767986 -4.310393
v 11.156616 68.774490 -1.677472
v -16.923706 22.773869 -18.443136
v -3.880249 89.656090 -4.136851
v -9.858765 68.236748 -10.328924
v 19.879456 17.366083 -22.647457
v 13.712768 26.462580 31.628851
v 31.231079 1.840693 0.587352
v -21.307312 41.913197 -22.225235
v -27.926636 15.013397 -19.980425
v -31.972046 -0.130328 -0.387083
v -8.890625 -1.504829 -3.173159
v -6.245911 21.973343 29.918587
v -5.303589 41.824875 -23.469879
v -6.591003 55.350529 23.690128
v -22.072266 51.448029 -18.858971
v 27.657593 39.684799 13.834921
v 11.353333 44.763546 -22.812172
v -6.211182 57.619602 -22.834297
v 19.878235 45.856884 -21.255703
v -13.606812 66.876633 -1.953267
v 24.618896 61.565132 4.838247
v -7.500244 2.391016 -19.589739
v -32.402222 28.373230 -7.221511
v 31.725037 36.267349 -11.995552
v 16.345886 -0.255172 -9.085309
v -28.106689 40.282387 -3.223994
v 0.113708 78.254547 -3.578491
v -24.706848 20.479252 15.782300
v -28.312258 45.427399 -14.474955
v 0.598267 88.284065 -8.737550
v -18.714844 12.138215 -22.960089
v -17.578247 -0.560435 -12.127018
v 26.831909 54.881741 -2.243328
v -18.307678 28.216171 -23.494963
v -16.900024 47.193489 -22.642311
v -10.853393 62.934772 -16.223833
v -23.835205 41.733154 17.261124
v -15.856019 36.643646 -20.697588
v 35.584961 29.826595 -9.060202
v -3.312439 87.395752 5.025324
v -0.215210 77.008514 1.146021
v -26.987061 4.426967 15.209851
v 2.803467 86.142647 -5.312503
v 30.346313 1.543850 -4.160275
v -6.969482 89.085899 4.543064
v 12.817810 39.671654 -26.991808
v -5.075500 70.907898 1.513074
v -22.063110 61.197205 -1.409303
v -26.639219 57.290070 -1.288133
v -28.635742 49.811001 -10.634371
v -1.551270 78.565521 -1.901691
v 6.285645 25.620779 -28.295311
v 6.456482 7.402802 -28.467749
v 29.083677 52.283127 6.316770
v -35.412659 2.287661 -2.727725
v 29.225950 13.568401 10.275640
v -1.885620 9.090127 29.972340
v -26.053650 55.614780 16.404556
v 1.308350 71.129181 5.406782
v -9.637695 12.194640 -19.952257
v 19.253235 34.685440 19.896650
v 7.346252 88.770615 4.448566
v 4.940979 72.094299 1.327799
v 4.934326 71.978088 -1.668463
v 10.060852 58.352055 -19.220997
v 34.850098 25.347536 -3.443010
v -11.521301 50.579933 21.722246
v 21.987488 60.227108 -3.333892
v -5.691895 0.726847 -10.931800
v 10.090882 88.723389 3.120548
v 25.081606 61.143959 11.679567
v 31.264221 32.726467 -4.256793
v 26.918640 44.661934 -1.190235
v -7.317688 91.929436 1.125991
v 32.675049 19.954983 -5.166508
v 2.589050 54.398762 24.911427
v 12.901734 10.115208 -23.878002
v -34.806702 17.006804 -4.041780
v 9.493652 87.694511 -0.305008
v 3.657654 67.845688 -13.535345
v -2.354736 30.992804 29.885429
v 2.881531 36.882790 26.392260
v 13.823791 61.801888 -15.865299
v -4.522339 74.673698 0.912438
v 0.783813 74.321434 5.786506
v 4.821594 74.360832 0.582646
v 4.317139 74.983292 -1.868487
v 0.163452 77.798279 -1.177880
v 7.236023 88.904129 4.233447
v -3.619751 89.730255 -4.082822
v -3.341675 87.786942 -8.671453
v 0.499146 88.405731 -8.510326
v -3.215881 87.511047 4.793742
v -6.720459 89.205200 4.537030
v -1.533569 86.425461 5.157446
v 9.910278 88.881134 2.983590
v -7.071961 92.014389 1.219028
v 2.707214 86.248055 -5.076094
v 9.267700 87.844757 -0.253886
vt 0.645219 0.184118
vt 0.641236 0.275718
vt 0.574340 0.228922
vt 0.080295 0.327589
vt 0.122918 0.265326
vt 0.245075 0.238594
vt 0.302955 0.213252
vt 0.312358 0.248385
vt 0.687343 0.454123
vt 0.659167 0.424579
vt 0.068945 0.348544
vt 0.106580 0.418137
vt 0.891214 0.365633
vt 0.875567 0.309093
vt 0.925693 0.271931
vt 0.289708 0.489294
vt 0.755421 0.330932
vt 0.777143 0.363965
vt 0.710028 0.385191
vt 0.708355 0.195470
vt 0.676570 0.249558
vt 0.085932 0.147467
vt 0.183495 0.153554
vt 0.380614 0.050928
vt 0.427324 0.057503
vt 0.401560 0.013855
vt 0.420379 0.011492
vt 0.424146 0.037762
vt 0.390249 0.036369
vt 0.482836 0.092285
vt 0.509176 0.148514
vt 0.058969 0.192565
vt 0.231155 0.384876
vt 0.237188 0.469245
vt 0.592154 0.371014
vt 0.910671 0.199522
vt 0.683938 0.279893
vt 0.664544 0.352636
vt 0.372306 0.019671
vt 0.389778 0.017469
vt 0.332697 0.150534
vt 0.363735 0.026372
vt 0.332832 0.125630
vt 0.252926 0.079664
vt 0.820884 0.058107
vt 0.546195 0.435094
vt 0.527376 0.437457
vt 0.547136 0.376712
vt 0.769532 0.091790
vt 0.717559 0.126299
vt 0.269541 0.323031
vt 0.320640 0.381130
vt 0.704323 0.456215
vt 0.726389 0.473826
vt 0.368313 0.161819
vt 0.777867 0.010127
vt 0.822953 0.130371
vt 0.856592 0.136684
vt 0.248478 0.055526
vt 0.321353 0.014450
vt 0.707222 0.467595
vt 0.694586 0.458383
vt 0.685403 0.337164
vt 0.809491 0.244861
vt 0.821609 0.178272
vt 0.445559 0.196403
vt 0.380678 0.187623
vt 0.909837 0.047489
vt 0.905696 0.067468
vt 0.837367 0.023292
vt 0.556123 0.198021
vt 0.530839 0.177034
vt 0.543735 0.147379
vt 0.570909 0.054892
vt 0.812824 0.208299
vt 0.654800 0.041832
vt 0.429060 0.261305
vt 0.861959 0.389722
vt 0.848466 0.356121
vt 0.538960 0.287472
vt 0.535827 0.220516
vt 0.205965 0.084535
vt 0.146648 0.086389
vt 0.519664 0.188595
vt 0.485725 0.387059
vt 0.527176 0.391787
vt 0.515593 0.441071
vt 0.349833 0.406920
vt 0.199208 0.040171
vt 0.241394 0.097087
vt 0.866272 0.284634
vt 0.932929 0.136123
vt 0.214384 0.262890
vt 0.912881 0.415186
vt 0.903282 0.453101
vt 0.388690 0.346169
vt 0.549239 0.050197
vt 0.240424 0.021524
vt 0.044656 0.228467
vt 0.776000 0.395621
vt 0.810672 0.416590
vt 0.765368 0.445747
vt 0.695098 0.441002
vt 0.311631 0.287944
vt 0.462141 0.422222
vt 0.374367 0.479041
vt 0.219811 0.185204
vt 0.830538 0.309231
vt 0.811581 0.287867
vt 0.827122 0.270959
vt 0.893715 0.408955
vt 0.866181 0.457989
vt 0.650249 0.152898
vt 0.684899 0.123956
vt 0.787823 0.134060
vt 0.563543 0.337940
vt 0.517667 0.294453
vt 0.755506 0.267245
vt 0.763085 0.051358
vt 0.850219 0.455564
vt 0.844008 0.443871
vt 0.955344 0.454413
vt 0.916939 0.466836
vt 0.924542 0.412750
vt 0.757920 0.456811
vt 0.738050 0.471388
vt 0.565849 0.373424
vt 0.580900 0.397864
vt 0.533466 0.386980
vt 0.504849 0.078858
vt 0.548845 0.028044
vt 0.067060 0.066391
vt 0.059963 0.025587
vt 0.104161 0.071278
vt 0.126334 0.057160
vt 0.120123 0.068853
vt 0.507394 0.032772
vt 0.014998 0.067703
vt 0.036271 0.076143
vt 0.453669 0.038849
vt 0.468720 0.014408
vt 0.487434 0.017695
vt 0.053403 0.080125
vt 0.501103 0.027964
vn 0.614034 0.032609 -0.788606
vn 0.630481 0.358760 -0.688320
vn 0.827952 0.397973 -0.395111
vn 0.834255 0.239857 -0.496475
vn -0.350916 -0.001898 0.936405
vn 0.135477 0.212333 0.967761
vn 0.050215 0.324112 0.944685
vn -0.175993 0.253095 0.951299
vn 0.229274 0.883307 -0.408905
vn 0.311233 0.841952 0.440740
vn 0.490523 0.865343 -0.102805
vn 0.592223 0.740385 -0.317965
vn 0.685565 -0.431971 -0.586006
vn 0.405293 -0.851488 0.332725
vn 0.094417 -0.980467 -0.172537
vn -0.973077 0.222738 0.059238
vn -0.897644 0.299146 -0.323647
vn -0.869488 0.118295 -0.479579
vn -0.951778 0.114959 0.284434
vn -0.309118 -0.734860 0.603677
vn -0.694317 -0.505514 0.512230
vn -0.443736 -0.866880 0.227194
vn -0.107682 -0.989117 0.100263
vn -0.092818 0.382904 -0.919113
vn -0.392013 0.767622 -0.507033
vn 0.230699 0.830490 -0.507014
vn 0.876297 0.183077 0.445630
vn 0.628478 -0.368477 0.685011
vn 0.863658 -0.223603 0.451771
vn 0.950691 0.113983 0.288435
vn -0.027401 -0.007028 0.999600
vn -0.832861 -0.373573 -0.408395
vn -0.928697 0.126318 -0.348662
vn -0.087291 0.429901 0.898646
vn -0.458001 0.816022 0.352623
vn -0.501513 0.850019 -0.161097
vn -0.646436 0.745413 0.162725
vn 0.004036 0.062716 -0.998023
vn 0.083501 0.256599 -0.962904
vn 0.904744 0.129169 0.405898
vn 0.075286 -0.945432 0.317002
vn -0.031619 -0.999470 0.007777
vn 0.016513 0.340913 -0.939950
vn 0.466780 0.672298 -0.574571
vn 0.778080 0.509179 0.367870
vn 0.902856 -0.248466 0.350878
vn -0.321641 0.563766 0.760733
vn 0.273226 0.542545 0.794350
vn -0.124150 0.812807 0.569150
vn 0.485675 0.746231 0.455258
vn -0.912264 -0.373938 -0.167166
vn -0.627840 0.615826 0.475999
vn 0.673415 0.128056 0.728090
vn 0.246960 0.159607 0.955791
vn -0.535160 0.002193 -0.844748
vn -0.238457 -0.150339 -0.959446
vn -0.623781 0.006205 -0.781575
vn 0.671764 0.732795 -0.108373
vn -0.018620 -0.011418 -0.999761
vn 0.302121 -0.468384 -0.830265
vn -0.106930 0.154256 -0.982228
vn 0.141624 0.371266 -0.917662
vn -0.400561 0.044181 -0.915205
vn -0.454319 -0.032256 -0.890255
vn -0.164095 0.225021 0.960437
vn -0.780124 -0.475108 -0.407037
vn -0.289875 -0.794659 -0.533376
vn 0.834511 -0.139300 -0.533092
vn 0.978344 -0.204400 -0.032608
vn -0.580134 0.664995 -0.470348
vn 0.986228 0.129974 0.102277
vn 0.967604 0.120391 0.221919
vn -0.828146 0.022990 0.560041
vn 0.306301 -0.438628 0.844858
vn 0.055732 -0.435940 0.898248
vn -0.794311 0.040395 0.606167
vn -0.717472 -0.036620 -0.695624
vn -0.992701 0.115969 0.033117
vn 0.041071 -0.632852 0.773183
vn -0.316766 0.883499 -0.345093
vn 0.623392 -0.263714 -0.736096
vn -0.543039 0.529474 -0.651741
vn -0.210899 0.101136 -0.972262
vn -0.577983 -0.102551 -0.809580
vn 0.634268 -0.383510 -0.671286
vn 0.769132 -0.491210 -0.408837
vn 0.358695 -0.478677 -0.801378
vn 0.035175 -0.464378 -0.884938
vn 0.069596 -0.920676 -0.384073
vn -0.019384 -0.799115 -0.600866
vn -0.326483 -0.240698 -0.914042
vn 0.663085 -0.573010 0.481641
vn -0.852353 -0.302750 -0.426423
vn -0.519413 -0.365354 -0.772481
vn 0.743418 0.155477 0.650505
vn -0.889859 -0.307636 -0.336915
vn -0.349837 -0.417514 0.838628
vn 0.267578 0.952031 0.148454
vn -0.728845 0.637523 0.249700
vn -0.442016 0.522549 0.729085
vn -0.286949 0.561062 -0.776447
vn -0.575686 0.677940 -0.457147
vn 0.033748 0.588324 -0.807921
vn 0.899977 0.364859 0.238580
vn 0.337655 0.677841 0.653085
vn 0.861785 0.382418 0.333292
vn 0.870574 0.447214 0.205184
vn -0.321416 0.545314 0.774161
vn 0.394735 0.576967 -0.715048
g Garbage_Bag_LOD1 Garbage_Bag
usemtl GarbageBag:blinn1SG
f 9/1/1 29/2/2 43/116/3 34/3/4
f 22/104/5 16/6/6 92/7/7 91/8/8
f 74/103/9 73/9/10 11/10/11 78/35/12
f 54/11/13 17/4/14 35/12/15
f 59/13/16 60/14/17 33/36/18 36/15/19
f 6/52/20 52/88/21 20/106/22 10/16/23
f 28/17/24 46/18/25 90/19/26
f 26/23/27 8/93/28 66/5/29 82/22/30
f 51/26/31 61/27/32 94/28/33 95/29/34
f 57/25/35 30/30/36 58/31/37
f 9/1/1 62/20/38 56/21/39
f 66/5/29 76/32/40 82/22/30
f 4/33/41 6/52/20 10/16/23 21/34/42
f 27/37/43 93/38/44 29/2/2 56/21/39
f 90/19/26 74/103/9 78/35/12 93/38/44
f 95/29/34 96/39/45 1/40/46 51/26/31
f 24/55/47 5/43/48 69/24/49
f 73/42/10 69/24/49 5/43/48 81/44/50
f 61/46/32 51/47/31 55/48/51
f 24/55/47 58/31/37 68/66/52
f 7/90/53 5/43/48 86/41/54 92/7/7
f 33/36/18 12/65/55 41/57/56 19/58/57
f 31/59/58 11/60/11 73/42/10 81/44/50
f 1/61/46 96/62/45 97/53/59 37/54/60
f 23/118/61 28/17/24 75/63/62
f 33/36/18 48/64/63 44/75/64 12/65/55
f 68/66/52 91/8/8 92/7/7 77/67/65
f 20/68/22 65/69/66 42/45/67 10/70/23
f 49/71/68 76/72/40 85/73/69 54/74/13
f 58/78/37 3/79/70 60/14/17 59/13/16
f 34/3/4 43/116/3 83/80/71 82/81/30
f 64/82/72 26/23/27 82/22/30 83/83/71
f 68/66/52 58/31/37 59/84/16 47/77/73
f 72/85/74 2/86/75 51/47/31 1/87/46
f 6/52/20 38/96/76 36/117/19 52/88/21
f 43/89/3 64/82/72 83/83/71
f 48/64/63 33/36/18 60/14/17 39/91/77
f 66/5/29 17/4/14 76/32/40
f 65/69/66 20/68/22 88/92/78
f 64/82/72 43/89/3 31/59/58 81/44/50
f 17/4/14 66/5/29 67/51/79
f 38/96/76 6/52/20 67/51/79
f 57/25/35 58/31/37 24/55/47 69/24/49
f 54/74/13 85/73/69 17/97/14
f 31/59/58 43/89/3 78/98/12 11/60/11
f 16/6/6 22/104/5 67/51/79 8/93/28
f 4/33/41 21/34/42 35/12/15 17/4/14
f 14/100/80 30/101/36 57/102/35 74/103/9
f 38/96/76 22/104/5 47/77/73
f 22/104/5 38/96/76 67/51/79
f 36/15/19 33/36/18 88/92/78
f 52/88/21 88/105/78 20/106/22
f 67/51/79 66/5/29 8/93/28
f 15/113/81 9/1/1 34/3/4 49/71/68
f 81/44/50 5/43/48 7/90/53 64/82/72
f 25/108/82 28/17/24 45/109/83 18/110/84
f 47/77/73 36/117/19 38/96/76
f 93/38/44 75/63/62 28/17/24 90/19/26
f 58/78/37 30/101/36 14/100/80 46/18/25
f 1/111/46 37/94/60 53/95/85 89/112/86
f 47/77/73 22/104/5 91/8/8
f 3/79/70 58/78/37 46/18/25 28/17/24
f 54/74/13 87/114/87 15/113/81 49/71/68
f 87/114/87 63/50/88 44/75/64 62/20/38
f 25/108/82 60/14/17 3/79/70 28/17/24
f 79/119/89 42/45/67 32/49/90
f 44/75/64 63/50/88 70/115/91 12/65/55
f 90/19/26 46/18/25 14/100/80 74/103/9
f 70/115/91 32/49/90 41/57/56 12/65/55
f 32/49/90 70/115/91 63/50/88
f 79/119/89 87/114/87 35/76/15 21/56/42
f 1/111/46 80/120/92 72/121/74
f 35/76/15 87/114/87 54/74/13
f 18/110/84 48/64/63 39/91/77
f 13/122/93 40/123/94 61/124/32
f 1/111/46 89/112/86 80/120/92
f 42/45/67 79/119/89 21/56/42 10/70/23
f 24/55/47 77/67/65 92/7/7 86/41/54
f 62/20/38 44/75/64 48/64/63 23/118/61
f 93/38/44 78/35/12 43/116/3
f 71/107/95 8/93/28 26/23/27 64/82/72
f 97/53/59 94/125/33 61/126/32 37/54/60
f 61/46/32 55/48/51 84/127/96 13/128/93
f 27/37/43 23/118/61 75/63/62 93/38/44
f 29/2/2 93/38/44 43/116/3
f 36/117/19 47/77/73 59/84/16
f 8/93/28 71/107/95 16/6/6
f 68/66/52 47/77/73 91/8/8
f 42/45/67 19/58/57 41/57/56 32/49/90
f 79/119/89 32/49/90 63/50/88 87/114/87
f 18/110/84 39/91/77 60/14/17 25/108/82
f 53/95/85 37/94/60 40/123/94
f 5/43/48 24/55/47 86/41/54
f 37/94/60 61/124/32 40/123/94
f 67/51/79 6/52/20 4/33/41 17/4/14
f 45/109/83 48/64/63 18/110/84
f 82/81/30 76/72/40 49/71/68 34/3/4
f 51/47/31 2/86/75 50/129/97 55/48/51
f 23/118/61 48/64/63 45/109/83 28/17/24
f 62/20/38 23/118/61 27/37/43 56/21/39
f 19/58/57 65/69/66 88/92/78 33/36/18
f 15/113/81 87/114/87 62/20/38 9/1/1
f 9/1/1 56/21/39 29/2/2
f 65/69/66 19/58/57 42/45/67
f 68/66/52 77/67/65 24/55/47
f 71/107/95 64/82/72 7/90/53 16/6/6
f 92/7/7 16/6/6 7/90/53
f 36/117/19 88/105/78 52/88/21
f 95/29/34 94/28/33 57/25/35 69/24/49
f 69/24/49 73/42/10 96/39/45 95/29/34
f 97/53/59 96/62/45 73/9/10 74/103/9
f 57/102/35 94/125/33 97/53/59 74/103/9
f 98/133/98 109/134/99 108/132/100
f 98/133/98 99/135/101 106/136/102
f 99/131/101 98/130/98 105/137/103
f 100/138/104 98/133/98 101/139/105
f 98/133/98 106/136/102 109/134/99
f 98/130/98 100/140/104 107/141/106 104/142/107
f 108/132/100 102/143/108 101/139/105 98/133/98
f 98/130/98 104/142/107 103/144/109 105/137/103
f 85/99/69 76/32/40 17/4/14
