# This file uses meters as units for non-parametric coordinates.

mtllib Door_C_LOD2.mtl
g default
v -5.788208 0.000000 150.000000
v 5.788239 0.000000 150.000000
v -5.788208 250.000000 150.000000
v 5.788239 250.000000 150.000000
v -5.788208 250.000000 0.000000
v 5.788239 250.000000 0.000000
v -5.788208 -0.000008 0.000000
v 5.788239 -0.000008 0.000000
v -5.788208 130.670624 127.571831
v -5.788208 235.108658 127.571831
v -5.788208 235.108658 90.505249
v 5.788239 130.670624 127.571831
v 5.788239 235.108658 127.571831
v 5.788239 235.108658 90.505249
v -5.788208 136.058685 122.990967
v -5.788208 230.031464 122.990967
v -5.788208 230.031464 94.836487
v 5.788239 136.058685 122.990967
v 5.788239 230.031464 122.990967
v 5.788239 230.031464 94.836487
v -5.788208 130.670624 91.001770
v 5.788239 130.670624 91.001770
v 5.788239 136.058685 95.283875
v -5.788208 136.058685 95.283875
vt 0.022675 0.787569
vt 0.022675 0.755230
vt 0.441698 0.755230
vt 0.441698 0.787569
vt 0.911707 0.010059
vt 0.911707 0.708429
vt 0.879368 0.708429
vt 0.879368 0.010059
vt 0.441698 0.715725
vt 0.441698 0.748064
vt 0.022675 0.748064
vt 0.022675 0.715725
vt 0.442088 0.010148
vt 0.379427 0.375174
vt 0.277268 0.375175
vt 0.023059 0.010144
vt 0.275887 0.666925
vt 0.023060 0.708526
vt 0.614685 0.375175
vt 0.512526 0.375174
vt 0.449865 0.010148
vt 0.868894 0.010144
vt 0.512521 0.666923
vt 0.616066 0.666925
vt 0.868893 0.708526
vt 0.449865 0.708518
vt 0.875628 0.996326
vt 0.973196 0.996342
vt 0.875635 0.717748
vt 0.974528 0.717765
vt 0.755907 0.996175
vt 0.756202 0.717582
vt 0.853765 0.717657
vt 0.842326 0.732025
vt 0.768405 0.731959
vt 0.637347 0.990922
vt 0.637347 0.740290
vt 0.668222 0.740290
vt 0.668222 0.990922
vt 0.529355 0.885575
vt 0.603252 0.885575
vt 0.603252 0.916451
vt 0.529355 0.916451
vt 0.768142 0.982637
vt 0.887854 0.731295
vt 0.887846 0.981959
vt 0.961774 0.981966
vt 0.962975 0.731303
vt 0.379433 0.666923
vt 0.442088 0.708518
vt 0.854794 0.996249
vt 0.843256 0.982702
vt 0.603348 0.864649
vt 0.528258 0.864649
vt 0.528258 0.833774
vt 0.603348 0.833774
vt 0.683297 0.989731
vt 0.683297 0.739096
vt 0.714172 0.739096
vt 0.714172 0.989731
vt 0.959943 0.710797
vt 0.927605 0.710797
vt 0.927605 0.012427
vt 0.959943 0.012427
vn 0.000000 1.000000 0.000000
vn 0.000000 1.000000 0.000000
vn 0.000000 1.000000 0.000000
vn 0.000000 1.000000 0.000000
vn 0.000000 0.000000 -1.000000
vn 0.000000 0.000000 -1.000000
vn 0.000000 0.000000 -1.000000
vn 0.000000 0.000000 -1.000000
vn 0.000000 -1.000000 0.000000
vn 0.000000 -1.000000 0.000000
vn 0.000000 -1.000000 0.000000
vn 0.000000 -1.000000 0.000000
vn -1.000000 0.000000 0.000000
vn -1.000000 0.000000 0.000000
vn -1.000000 0.000000 0.000000
vn -1.000000 0.000000 0.000000
vn -1.000000 0.000000 0.000000
vn -1.000000 0.000000 0.000000
vn 1.000000 -0.000000 0.000000
vn 1.000000 0.000000 0.000000
vn 1.000000 0.000000 0.000000
vn 1.000000 0.000000 0.000000
vn 1.000000 0.000000 0.000000
vn 1.000000 0.000000 0.000000
vn 1.000000 0.000000 0.000000
vn 1.000000 0.000000 0.000000
vn -1.000000 0.000000 0.000000
vn -1.000000 0.000000 0.000000
vn -1.000000 0.000000 0.000000
vn -1.000000 0.000000 0.000000
vn -1.000000 0.000000 0.000000
vn -1.000000 0.000000 0.000000
vn -1.000000 0.000000 0.000000
vn -1.000000 0.000000 0.000000
vn 1.000000 0.000000 0.000000
vn 1.000000 0.000000 0.000000
vn 1.000000 0.000000 0.000000
vn 1.000000 0.000000 0.000000
vn 1.000000 0.000000 0.000000
vn 1.000000 0.000000 0.000000
vn 0.000000 0.000000 -1.000000
vn 0.000000 0.000000 -1.000000
vn 0.000000 0.000000 -1.000000
vn 0.000000 0.000000 -1.000000
vn 0.000000 1.000000 0.000000
vn 0.000000 1.000000 0.000000
vn 0.000000 1.000000 0.000000
vn 0.000000 1.000000 0.000000
vn -1.000000 0.000000 0.000000
vn -1.000000 0.000000 0.000000
vn -1.000000 0.000000 0.000000
vn -1.000000 0.000000 0.000000
vn 1.000000 -0.000000 0.000000
vn 1.000000 -0.000000 0.000000
vn 1.000000 0.000000 0.000000
vn 1.000000 0.000000 0.000000
vn 0.000000 -1.000000 0.000000
vn 0.000000 -1.000000 0.000000
vn 0.000000 -1.000000 0.000000
vn 0.000000 -1.000000 0.000000
vn 1.000000 -0.000000 0.000000
vn 1.000000 -0.000000 0.000000
vn 0.000000 0.004761 0.999989
vn 0.000000 0.004761 0.999989
vn 0.000000 0.004761 0.999989
vn 0.000000 0.004761 0.999989
vn 0.000000 0.000000 1.000000
vn 0.000000 0.000000 1.000000
vn 0.000000 0.000000 1.000000
vn 0.000000 0.000000 1.000000
g Door_C_LOD2 Door_C
usemtl lambert20SG
f 3/1/1 4/2/2 6/3/3 5/4/4
f 7/5/5 5/6/6 6/7/7 8/8/8
f 2/9/9 1/10/10 7/11/11 8/12/12
f 1/13/13 9/14/14 21/15/15 7/16/16
f 7/16/16 21/15/15 11/17/17 5/18/18
f 12/20/19 2/21/20 22/19/21
f 22/19/21 2/21/20 8/22/22
f 13/23/23 14/24/24 4/26/25
f 4/26/25 14/24/24 6/25/26
f 24/47/27 21/28/28 9/27/29 15/46/30
f 15/46/30 9/27/29 10/29/31 16/45/32
f 11/30/33 21/28/28 24/47/27 17/48/34
f 13/31/35 12/32/36 18/35/37 19/44/38
f 18/35/37 12/32/36 22/33/39 23/34/40
f 15/36/41 16/37/42 19/38/43 18/39/44
f 24/40/45 15/41/46 18/42/47 23/43/48
f 16/45/32 10/29/31 11/30/49 17/48/50
f 5/18/18 11/17/17 10/49/51 3/50/52
f 20/52/53 14/51/54 13/31/55 19/44/56
f 20/53/57 19/54/58 16/55/59 17/56/60
f 14/24/24 22/19/21 6/25/26
f 6/25/26 22/19/21 8/22/22
f 23/34/61 22/33/62 14/51/54 20/52/53
f 17/57/63 24/58/64 23/59/65 20/60/66
f 1/13/13 3/50/52 10/49/51 9/14/14
f 4/61/67 3/62/68 1/63/69 2/64/70
f 13/23/23 4/26/25 2/21/20 12/20/19
