# This file uses meters as units for non-parametric coordinates.

mtllib Door_B_LOD2.mtl
g default
v -5.788208 0.000000 150.000000
v 5.788239 0.000000 150.000000
v -5.788208 250.000000 150.000000
v 5.788239 250.000000 150.000000
v -5.788208 250.000000 0.000000
v 5.788239 250.000000 0.000000
v -5.788208 0.000000 0.000000
v 5.788239 0.000000 0.000000
vt 0.012553 0.832992
vt 0.012553 0.798974
vt 0.453330 0.798974
vt 0.453329 0.832992
vt 0.947198 0.009762
vt 0.947198 0.744391
vt 0.913180 0.744391
vt 0.913180 0.009762
vt 0.453330 0.755449
vt 0.453329 0.789466
vt 0.012553 0.789466
vt 0.012553 0.755449
vt 0.012983 0.744488
vt 0.012983 0.009862
vt 0.453759 0.009862
vt 0.453759 0.744488
vt 0.902830 0.009862
vt 0.902830 0.744488
vt 0.462054 0.744488
vt 0.462054 0.009862
vt 0.989661 0.745355
vt 0.955643 0.745355
vt 0.955643 0.010729
vt 0.989661 0.010729
vn 0.000000 1.000000 0.000000
vn 0.000000 1.000000 0.000000
vn 0.000000 1.000000 0.000000
vn 0.000000 1.000000 0.000000
vn 0.000000 0.000000 -1.000000
vn 0.000000 0.000000 -1.000000
vn 0.000000 0.000000 -1.000000
vn 0.000000 0.000000 -1.000000
vn 0.000000 -1.000000 0.000000
vn 0.000000 -1.000000 0.000000
vn 0.000000 -1.000000 0.000000
vn 0.000000 -1.000000 0.000000
vn -1.000000 0.000000 0.000000
vn -1.000000 0.000000 0.000000
vn -1.000000 0.000000 0.000000
vn -1.000000 0.000000 0.000000
vn 1.000000 0.000000 0.000000
vn 1.000000 0.000000 0.000000
vn 1.000000 0.000000 0.000000
vn 1.000000 0.000000 0.000000
vn 0.000000 0.000000 1.000000
vn 0.000000 0.000000 1.000000
vn 0.000000 0.000000 1.000000
vn 0.000000 0.000000 1.000000
g Door_B_LOD2 Door_B
usemtl lambert19SG
f 3/1/1 4/2/2 6/3/3 5/4/4
f 7/5/5 5/6/6 6/7/7 8/8/8
f 2/9/9 1/10/10 7/11/11 8/12/12
f 5/13/13 7/14/14 1/15/15 3/16/16
f 8/17/17 6/18/18 4/19/19 2/20/20
f 4/21/21 3/22/22 1/23/23 2/24/24
