# This file uses meters as units for non-parametric coordinates.

mtllib BuildingC_Bottom_Wall_VarA_LOD0.mtl
g default
v 0.000000 0.000000 0.000000
v 0.000000 400.000000 0.000000
v 0.000000 400.000000 -300.000000
v 0.000000 0.000000 -300.000000
v -50.000019 0.000000 0.000000
v -50.000011 400.000000 0.000000
v -50.000011 400.000000 -300.000000
v -50.000019 0.000000 -300.000000
v 0.000000 0.000000 -49.764893
v -50.000019 0.000000 -49.764893
v 0.000000 0.000000 -250.000000
v -50.000019 0.000000 -250.000000
v 0.000000 260.292969 -50.050629
v -50.000019 260.292969 -50.050629
v 0.000000 260.056030 -250.000000
v -50.000019 260.056030 -250.000000
v -25.000010 0.000000 -49.764893
v -25.000010 260.292969 -50.050629
v -25.000010 260.056030 -250.000000
v -25.000010 0.000000 -250.000000
v 0.000000 372.989380 0.000000
v 0.000000 372.639771 -300.000000
v -50.000019 0.000000 -251.149994
v -50.000019 261.277557 -251.149994
v -50.000019 261.509033 -48.899464
v -50.000019 0.000000 -48.620300
v -48.122166 0.000000 -250.000000
v -48.122166 260.056030 -250.000000
v -48.122166 260.292969 -50.050629
v -48.122166 0.000000 -49.764893
v -4.374952 0.000000 -250.000000
v -4.374952 260.056030 -250.000000
v -4.374952 260.292969 -50.050629
v -4.374952 0.000000 -49.764893
v 0.000000 0.000000 -253.724045
v 0.000000 264.561279 -253.724045
v 0.000000 264.806671 -46.322788
v 0.000000 0.000000 -46.058334
v -47.352589 0.000000 -49.764893
v -22.352577 0.000000 -49.764893
v -47.352589 260.292969 -49.764893
v -22.352577 260.292969 -49.764893
v -47.352589 260.292969 -250.000000
v -22.352577 260.292969 -250.000000
v -47.352589 0.000000 -250.000000
v -22.352577 0.000000 -250.000000
v -22.352577 0.000000 -75.000000
v -47.352592 0.000000 -75.000000
v -22.352577 0.000000 -225.000000
v -47.352589 0.000000 -225.000000
v -22.352577 250.000076 -75.000000
v -22.352577 250.000076 -225.000000
v -47.352589 249.999924 -225.000000
v -47.352589 249.999924 -75.000000
v -25.770538 0.000000 -75.000000
v -25.770538 250.000046 -75.000000
v -25.770544 250.000076 -225.000000
v -25.770538 0.000000 -225.000000
v -43.934624 0.000000 -75.000000
v -43.934620 249.999954 -75.000000
v -43.934628 249.999969 -225.000000
v -43.934620 0.000000 -225.000000
v -22.352577 0.000000 -227.500015
v -22.352575 252.390549 -227.500015
v -22.352577 252.390549 -72.476494
v -22.352575 0.000000 -72.476486
v -47.352585 0.000000 -227.576874
v -47.352585 252.390549 -227.576874
v -47.352585 252.390549 -72.398888
v -47.352589 0.000000 -72.398888
vt 0.375377 0.391251
vt 0.375377 0.002839
vt 0.380939 0.002839
vt 0.380939 0.397979
vt 0.450056 0.002839
vt 0.450056 0.559402
vt 0.076739 0.391604
vt 0.071171 0.398346
vt 0.001985 0.559924
vt 0.070776 0.002839
vt 0.076312 0.002839
vt 0.450056 0.600267
vt 0.001985 0.600267
vt 0.001985 0.002839
vt 0.904858 0.002839
vt 0.904858 0.600267
vt 0.831823 0.393421
vt 0.832240 0.002839
vt 0.529748 0.393075
vt 0.456787 0.600267
vt 0.830104 0.391604
vt 0.830531 0.002839
vt 0.531466 0.391251
vt 0.529748 0.002839
vt 0.456787 0.002839
vt 0.531466 0.002839
vt 0.957017 0.399022
vt 0.987822 0.399022
vt 0.987822 0.787434
vt 0.957017 0.787434
vt 0.994357 0.399022
vt 0.994357 0.787434
vt 0.922483 0.787434
vt 0.922483 0.399022
vt 0.919678 0.399022
vt 0.919678 0.787434
vt 0.773557 0.605847
vt 0.773557 0.904485
vt 0.742752 0.904485
vt 0.742752 0.605847
vt 0.780091 0.605847
vt 0.780091 0.904485
vt 0.708217 0.904485
vt 0.708217 0.605847
vt 0.705412 0.904485
vt 0.705412 0.605847
vt 0.977715 0.001992
vt 0.977715 0.390758
vt 0.946911 0.390758
vt 0.946911 0.001992
vt 0.984250 0.001992
vt 0.984250 0.390758
vt 0.912376 0.390758
vt 0.912376 0.001992
vt 0.909571 0.390758
vt 0.909571 0.001992
vt 0.039675 0.982635
vt 0.263711 0.982635
vt 0.267445 0.986205
vt 0.035906 0.986205
vt 0.263711 0.609242
vt 0.267445 0.609242
vt 0.301050 0.998008
vt 0.001985 0.998008
vt 0.035906 0.609242
vt 0.039675 0.609242
vt 0.301050 0.609242
vt 0.001985 0.609242
vt 0.608294 0.998008
vt 0.309229 0.998008
vt 0.342720 0.986205
vt 0.574489 0.986205
vt 0.309229 0.609242
vt 0.342720 0.609242
vt 0.346568 0.982635
vt 0.570604 0.982635
vt 0.574489 0.609242
vt 0.608294 0.609242
vt 0.346568 0.609242
vt 0.570604 0.609242
vt 0.648708 0.980614
vt 0.648708 0.607222
vt 0.653813 0.607222
vt 0.653813 0.980614
vt 0.621578 0.980614
vt 0.621578 0.607222
vt 0.616473 0.980614
vt 0.616473 0.607222
vt 0.823606 0.604780
vt 0.823606 0.828816
vt 0.818501 0.828816
vt 0.818501 0.604780
vt 0.791372 0.828816
vt 0.791372 0.604780
vt 0.786267 0.828816
vt 0.786267 0.604780
vt 0.693177 0.980991
vt 0.693177 0.607599
vt 0.698282 0.607599
vt 0.698282 0.980991
vt 0.666048 0.980991
vt 0.666048 0.607599
vt 0.660943 0.980991
vt 0.660943 0.607599
vn 0.801351 0.000000 0.598195
vn 0.651423 0.000000 0.758715
vn 1.000000 0.000000 0.000000
vn 1.000000 0.000000 0.000000
vn -1.000000 0.000000 0.000000
vn -1.000000 0.000000 0.000000
vn -1.000000 0.000000 0.000000
vn -1.000000 0.000000 0.000000
vn 1.000000 0.000000 0.000000
vn 1.000000 0.000000 0.000000
vn 0.651239 -0.000833 -0.758872
vn 0.800930 -0.000657 -0.598758
vn -1.000000 0.000000 -0.000000
vn -1.000000 0.000000 -0.000000
vn -1.000000 0.000000 -0.000000
vn -1.000000 0.000000 -0.000000
vn -1.000000 0.000000 -0.000000
vn -1.000000 0.000000 -0.000000
vn -1.000000 0.000000 -0.000000
vn -1.000000 0.000000 -0.000000
vn 0.834112 -0.551595 0.000654
vn 0.833893 -0.551926 0.000654
vn 1.000000 0.000000 0.000000
vn 1.000000 0.000000 0.000000
vn 0.000000 0.000000 1.000000
vn 0.000000 0.000000 1.000000
vn 0.000000 0.000000 1.000000
vn 0.000000 0.000000 1.000000
vn 0.000000 -0.999999 0.001185
vn 0.000000 -0.999999 0.001185
vn 0.000000 -0.999999 0.001185
vn 0.000000 -0.999999 0.001185
vn 0.000000 -0.001098 -0.999999
vn 0.000000 -0.001098 -0.999999
vn 0.000000 -0.001098 -0.999999
vn 0.000000 -0.001098 -0.999999
vn 0.000000 -0.001098 -0.999999
vn 0.000000 -0.001098 -0.999999
vn -0.522920 -0.000936 -0.852381
vn -0.680953 -0.000804 -0.732327
vn 0.000000 -0.999999 0.001185
vn 0.000000 -0.999999 0.001185
vn -0.695614 -0.718415 0.000851
vn -0.694824 -0.719179 0.000852
vn -0.523141 0.000000 0.852246
vn 0.000000 0.000000 1.000000
vn 0.000000 0.000000 1.000000
vn -0.682008 0.000000 0.731345
vn 1.000000 0.000000 0.000000
vn 1.000000 0.000000 0.000000
vn 1.000000 0.000000 0.000000
vn 1.000000 0.000000 0.000000
vn 1.000000 0.000000 0.000000
vn 1.000000 0.000000 0.000000
vn 1.000000 0.000000 0.000000
vn 1.000000 0.000000 0.000000
vn 0.733416 -0.679780 -0.000000
vn 0.732751 -0.680497 -0.000000
vn 1.000000 -0.000000 0.000000
vn 1.000000 -0.000000 0.000000
vn -1.000000 -0.000000 0.000000
vn -1.000000 -0.000000 0.000000
vn -1.000000 -0.000000 0.000000
vn -1.000000 -0.000000 0.000000
vn 1.000000 -0.000000 0.000000
vn 1.000000 -0.000000 -0.000000
vn 0.595797 0.000000 -0.803135
vn 0.739935 0.000000 -0.672679
vn 0.737467 0.000000 0.675383
vn 0.592203 0.000000 0.805789
vn 1.000000 0.000000 -0.000000
vn 1.000000 0.000000 -0.000000
vn -1.000000 0.000000 0.000000
vn -1.000000 0.000000 0.000000
vn -1.000000 0.000000 0.000000
vn -1.000000 0.000000 0.000000
vn -1.000000 0.000000 -0.000000
vn -1.000000 0.000000 0.000000
vn -1.000000 0.000000 -0.000000
vn -1.000000 0.000000 -0.000000
vn -0.000000 0.000000 1.000000
vn -0.000000 0.000000 1.000000
vn 0.000005 -1.000000 -0.000000
vn 0.000005 -1.000000 -0.000000
vn 0.000000 0.000000 -1.000000
vn 0.000000 0.000000 -1.000000
vn 0.000000 0.000000 -1.000000
vn 0.000000 0.000000 -1.000000
vn 0.000006 -1.000000 -0.000000
vn 0.000006 -1.000000 -0.000000
vn -0.000001 0.000000 1.000000
vn -0.000001 0.000000 1.000000
vn -0.607422 0.000000 -0.794379
vn -0.747836 0.000000 -0.663884
vn -0.735737 -0.677268 0.000000
vn -0.735079 -0.677981 0.000000
vn -0.745407 0.000000 0.666609
vn -0.603833 0.000000 0.797111
vn 1.000000 0.000000 -0.000000
vn 1.000000 0.000000 -0.000000
vn 1.000000 -0.000000 0.000000
vn 1.000000 -0.000000 0.000000
vn 1.000000 -0.000000 0.000000
vn 1.000000 -0.000000 0.000000
g BuildingC_Bottom_Wall_VarA_LOD0 BuildingC_Bottom_Wall_VarA_mdl
usemtl lambert2SG
f 15/1/1 11/2/2 35/3/3 36/4/4
f 5/15/5 6/16/6 25/17/7 26/18/8
f 37/8/9 38/10/10 9/11/11 13/7/12
f 23/24/13 24/19/14 7/20/15 8/25/16
f 24/19/17 25/17/18 6/16/19 7/20/20
f 13/7/21 15/1/22 36/4/23 37/8/24
f 20/27/25 31/28/26 32/29/27 19/30/28
f 32/37/29 33/38/30 18/39/31 19/40/32
f 33/47/33 34/48/34 17/49/35 18/50/36
f 29/54/37 30/53/38 10/55/39 14/56/40
f 28/44/41 29/43/42 14/45/43 16/46/44
f 12/35/45 27/34/46 28/33/47 16/36/48
usemtl lambert4SG
f 21/9/49 22/6/50 3/12/51 2/13/52
usemtl lambert2SG
f 12/26/45 16/23/48 24/19/14 23/24/13
f 16/23/44 14/21/43 25/17/18 24/19/17
f 26/18/8 25/17/7 14/21/40 10/22/39
f 28/33/47 27/34/46 20/27/25 19/30/28
f 19/40/32 18/39/31 29/43/42 28/44/41
f 18/50/36 17/49/35 30/53/38 29/54/37
f 32/29/27 31/28/26 11/31/2 15/32/1
f 15/41/22 13/42/21 33/38/30 32/37/29
f 13/51/12 9/52/11 34/48/34 33/47/33
f 36/4/4 35/3/3 4/5/53 22/6/54
f 37/8/24 36/4/23 22/6/50 21/9/49
f 1/14/55 38/10/10 37/8/9 21/9/56
usemtl lambert8SG
f 51/57/57 52/58/58 64/59/59 65/60/60
f 41/69/61 43/70/62 68/71/63 69/72/64
f 65/60/65 66/65/66 47/66/67 51/57/68
f 52/58/69 49/61/70 63/62/71 64/59/72
f 43/70/73 45/73/74 67/74/75 68/71/76
f 69/72/77 70/77/78 39/78/79 41/69/80
f 57/81/81 58/82/82 49/83/70 52/84/69
f 52/89/58 51/90/57 56/91/83 57/92/84
f 55/97/85 56/98/86 51/99/68 47/100/67
f 59/101/87 60/102/88 56/98/86 55/97/85
f 57/92/84 56/91/83 60/93/89 61/94/90
f 61/85/91 62/86/92 58/82/82 57/81/81
f 48/103/93 54/104/94 60/102/88 59/101/87
f 61/94/90 60/93/89 54/95/95 53/96/96
f 53/87/97 50/88/98 62/86/92 61/85/91
f 64/59/72 63/62/71 46/67/99 44/63/100
f 65/60/60 64/59/59 44/63/101 42/64/102
f 40/68/103 66/65/66 65/60/65 42/64/104
f 68/71/76 67/74/75 50/79/98 53/75/97
f 69/72/64 68/71/63 53/75/96 54/76/95
f 48/80/93 70/77/78 69/72/77 54/76/94
