# This file uses meters as units for non-parametric coordinates.

mtllib BuildingC_Bottom_Wall_VarA_LOD1.mtl
g default
v 0.000000 0.000000 0.000000
v 0.000000 400.000000 0.000000
v 0.000000 400.000000 -300.000000
v 0.000000 0.000000 -300.000000
v -50.000019 0.000000 0.000000
v -50.000011 400.000000 0.000000
v -50.000011 400.000000 -300.000000
v -50.000019 0.000000 -300.000000
v 0.000000 0.000000 -49.764893
v -50.000019 0.000000 -49.764893
v 0.000000 0.000000 -250.000000
v -50.000019 0.000000 -250.000000
v 0.000000 260.292969 -50.050629
v -50.000019 260.292969 -50.050629
v 0.000000 260.056030 -250.000000
v -50.000019 260.056030 -250.000000
v -25.000010 0.000000 -49.764893
v -25.000010 260.292969 -50.050629
v -25.000010 260.056030 -250.000000
v -25.000010 0.000000 -250.000000
v 0.000000 372.989380 0.000000
v 0.000000 372.639771 -300.000000
v -47.352589 0.000000 -49.764893
v -22.352577 0.000000 -49.764893
v -47.352589 260.292969 -49.764893
v -22.352577 260.292969 -49.764893
v -47.352589 260.292969 -250.000000
v -22.352577 260.292969 -250.000000
v -47.352589 0.000000 -250.000000
v -22.352577 0.000000 -250.000000
v -22.352577 0.000000 -75.000000
v -47.352592 0.000000 -75.000000
v -22.352577 0.000000 -225.000000
v -47.352589 0.000000 -225.000000
v -22.352577 250.000076 -75.000000
v -22.352577 250.000076 -225.000000
v -47.352589 249.999924 -225.000000
v -47.352589 249.999924 -75.000000
vt 0.815625 0.379219
vt 0.815625 0.002391
vt 0.888076 0.002391
vt 0.888076 0.542356
vt 0.525893 0.379562
vt 0.453368 0.542862
vt 0.888076 0.582002
vt 0.453368 0.582002
vt 0.453368 0.002391
vt 0.525479 0.002391
vt 0.349928 0.002391
vt 0.422039 0.002391
vt 0.422039 0.582002
vt 0.349514 0.379562
vt -0.012670 0.582002
vt 0.059782 0.379219
vt -0.012670 0.002391
vt 0.059782 0.002391
vt 1.369799 0.764168
vt 1.370472 0.388507
vt 1.406698 0.388553
vt 1.405799 0.764214
vt 1.334359 0.763046
vt 1.334471 0.387385
vt 1.080345 0.876254
vt 1.080458 0.587420
vt 0.283064 0.588588
vt 0.282165 0.877422
vt 0.210051 0.877376
vt 0.210724 0.588542
vt 0.565641 0.379392
vt 0.529640 0.379392
vt 0.530313 0.003389
vt 0.566540 0.003389
vt 0.400001 0.378729
vt 0.400001 0.001829
vt -0.441225 0.950278
vt -0.224545 0.951175
vt -0.188656 0.966044
vt -0.477903 0.965146
vt -0.226267 0.591213
vt -0.190154 0.591886
vt -0.479513 0.591886
vt -0.443060 0.591213
vt 0.731521 0.969716
vt 0.442274 0.968549
vt 0.478499 0.953680
vt 0.695180 0.954847
vt 0.442162 0.593713
vt 0.478275 0.592546
vt 1.003545 0.593714
vt 1.039886 0.593714
vt 1.413383 0.004095
vt 1.449609 0.004095
vt 1.449384 0.366398
vt 1.413271 0.365230
vt 0.276667 0.584610
vt 0.276779 0.801291
vt 0.240665 0.802412
vt 0.240553 0.585732
vt 1.321890 0.582611
vt 1.321890 0.944867
vt 1.285665 0.944867
vt 1.285665 0.582611
vn 1.000000 0.000000 0.000000
vn 1.000000 0.000000 0.000000
vn 1.000000 0.000000 0.000000
vn 1.000000 0.000000 0.000000
vn -1.000000 0.000000 0.000000
vn -1.000000 0.000000 0.000000
vn -1.000000 0.000000 0.000000
vn -1.000000 0.000000 0.000000
vn 1.000000 0.000000 0.000000
vn 1.000000 0.000000 0.000000
vn 1.000000 0.000000 0.000000
vn 1.000000 0.000000 0.000000
vn -1.000000 0.000000 -0.000000
vn -1.000000 0.000000 -0.000000
vn -1.000000 0.000000 -0.000000
vn -1.000000 0.000000 -0.000000
vn -1.000000 0.000000 -0.000000
vn -1.000000 0.000000 -0.000000
vn -1.000000 0.000000 -0.000000
vn -1.000000 0.000000 -0.000000
vn 1.000000 0.000000 0.000000
vn 1.000000 0.000000 0.000000
vn 1.000000 0.000000 0.000000
vn 1.000000 0.000000 0.000000
vn 0.000000 0.000000 1.000000
vn 0.000000 0.000000 1.000000
vn 0.000000 0.000000 1.000000
vn 0.000000 0.000000 1.000000
vn 0.000000 -0.999999 0.001185
vn 0.000000 -0.999999 0.001185
vn 0.000000 -0.999999 0.001185
vn 0.000000 -0.999999 0.001185
vn 0.000000 -0.001098 -0.999999
vn 0.000000 -0.001098 -0.999999
vn 0.000000 -0.001098 -0.999999
vn 0.000000 -0.001098 -0.999999
vn 0.000000 -0.001098 -0.999999
vn 0.000000 -0.001098 -0.999999
vn 0.000000 -0.001098 -0.999999
vn 0.000000 -0.001098 -0.999999
vn 0.000000 -0.999999 0.001185
vn 0.000000 -0.999999 0.001185
vn 0.000000 -0.999999 0.001185
vn 0.000000 -0.999999 0.001185
vn 0.000000 0.000000 1.000000
vn 0.000000 0.000000 1.000000
vn 0.000000 0.000000 1.000000
vn 0.000000 0.000000 1.000000
vn 1.000000 0.000000 0.000000
vn 1.000000 0.000000 0.000000
vn 1.000000 0.000000 0.000000
vn 1.000000 0.000000 0.000000
vn 1.000000 -0.000000 0.000000
vn 1.000000 -0.000000 0.000000
vn 1.000000 -0.000000 0.000000
vn 1.000000 -0.000000 0.000000
vn -1.000000 -0.000000 0.000000
vn -1.000000 -0.000000 0.000000
vn -1.000000 -0.000000 0.000000
vn -1.000000 -0.000000 0.000000
vn 1.000000 0.000000 0.000000
vn 1.000000 0.000000 0.000000
vn 1.000000 0.000000 0.000000
vn 1.000000 0.000000 0.000000
vn 1.000000 0.000000 0.000000
vn 1.000000 0.000000 0.000000
vn 1.000000 0.000000 0.000000
vn 1.000000 0.000000 0.000000
vn -1.000000 0.000000 0.000000
vn -1.000000 0.000000 0.000000
vn -1.000000 0.000000 0.000000
vn -1.000000 0.000000 0.000000
vn -1.000000 0.000000 0.000000
vn -1.000000 0.000000 0.000000
vn -1.000000 0.000000 0.000000
vn -1.000000 0.000000 0.000000
vn -0.000001 0.000000 1.000000
vn -0.000001 0.000000 1.000000
vn -0.000001 0.000000 1.000000
vn -0.000001 0.000000 1.000000
vn 0.000006 -1.000000 0.000000
vn 0.000006 -1.000000 0.000000
vn 0.000006 -1.000000 0.000000
vn 0.000006 -1.000000 0.000000
vn -0.000000 0.000000 -1.000000
vn -0.000000 0.000000 -1.000000
vn -0.000000 0.000000 -1.000000
vn -0.000000 0.000000 -1.000000
g BuildingC_Bottom_Wall_VarA_LOD1 BuildingC_Bottom_Wall_VarA_mdl
usemtl lambert2SG
f 15/1/1 11/2/2 4/3/3 22/4/4
f 10/11/5 5/12/6 6/13/7 14/14/8
f 1/9/9 9/10/10 13/5/11 21/6/12
f 7/15/13 8/17/14 12/18/15 16/16/16
f 6/13/17 7/15/18 16/16/19 14/14/20
f 13/5/21 15/1/22 22/4/23 21/6/24
f 19/19/25 20/20/26 11/21/27 15/22/28
f 18/25/29 19/26/30 15/27/31 13/28/32
f 9/31/33 17/32/34 18/33/35 13/34/36
f 17/32/37 10/35/38 14/36/39 18/33/40
f 14/29/41 16/30/42 19/26/43 18/25/44
f 16/23/45 12/24/46 20/20/47 19/19/48
usemtl lambert4SG
f 21/6/49 22/4/50 3/7/51 2/8/52
usemtl lambert8SG
f 35/37/53 36/38/54 28/39/55 26/40/56
f 25/45/57 27/46/58 37/47/59 38/48/60
f 24/43/61 31/44/62 35/37/63 26/40/64
f 36/38/65 33/41/66 30/42/67 28/39/68
f 27/46/69 29/49/70 34/50/71 37/47/72
f 32/51/73 23/52/74 25/45/75 38/48/76
f 34/53/77 33/54/78 36/55/79 37/56/80
f 36/57/81 35/58/82 38/59/83 37/60/84
f 35/61/85 31/62/86 32/63/87 38/64/88
