# This file uses meters as units for non-parametric coordinates.

mtllib BuildingC_Mid_Corner_VarA_LOD1.mtl
g default
v -100.000000 0.000000 0.000000
v -6.097729 0.000000 0.000000
v -100.000000 300.000000 0.000000
v -6.097729 300.000000 0.000000
v 0.000000 300.000000 -100.000000
v 0.000000 0.000000 -100.000000
v -14.503503 0.000000 0.000000
v -14.503503 300.000000 0.000000
v -6.097729 300.000000 -38.126781
v 0.000000 0.000000 -38.126778
v 0.000000 299.999969 -38.126781
v -100.000000 6.264330 0.000000
v -14.503501 6.264330 0.000000
v -6.097729 6.264322 0.000002
v -6.097729 6.264299 -38.126778
v 0.000000 6.264330 -38.126774
v 0.000000 6.264299 -100.000000
v 0.000000 0.000000 0.000000
v 0.000000 6.264330 0.000004
v -50.000008 0.000000 -50.000019
v -50.000008 300.000000 -50.000019
v -100.000000 300.000000 -50.000019
v -100.000000 0.000000 -50.000019
v -50.000019 300.000000 -100.000000
v -50.000019 0.000000 -100.000000
vt 0.723526 0.001894
vt 0.725387 0.001894
vt 0.725387 0.008287
vt 0.723526 0.008287
vt 0.191024 0.040593
vt 0.189823 0.999539
vt 0.169916 0.999515
vt 0.171116 0.040570
vt 0.045440 0.999371
vt 0.017997 0.999339
vt 0.019212 0.040393
vt 0.046655 0.040427
vt 0.391811 0.999818
vt 0.393030 0.040828
vt 0.723526 0.001758
vt 0.725387 0.001758
vt 0.000133 0.020196
vt 0.000132 0.000298
vt 0.026892 0.000196
vt 0.026799 0.020241
vt 0.191051 0.020144
vt 0.393046 0.020369
vt 0.046641 0.000182
vt 0.171144 0.000205
vt 0.171133 0.020660
vt 0.046636 0.020545
vt 0.557447 0.001210
vt 0.720672 0.001210
vt 0.720675 0.980560
vt 0.557445 0.980560
vt 0.394222 0.980561
vt 0.394222 0.001210
vn 0.000000 0.000000 1.000000
vn 0.000000 0.000000 1.000000
vn 0.000000 0.000000 1.000000
vn 0.000000 0.000000 1.000000
vn 0.000000 0.000000 1.000000
vn 0.000000 0.000000 1.000000
vn 0.000000 0.000000 1.000000
vn 0.000000 0.000000 1.000000
vn -0.000000 0.000000 1.000000
vn -0.000000 0.000000 1.000000
vn -0.000000 0.000000 1.000000
vn -0.000000 0.000000 1.000000
vn 1.000000 0.000000 -0.000000
vn 1.000000 0.000000 -0.000000
vn 1.000000 0.000000 -0.000000
vn 1.000000 0.000000 -0.000000
vn 1.000000 0.000000 0.000000
vn 1.000000 0.000000 0.000000
vn 1.000000 0.000000 0.000000
vn 1.000000 0.000000 0.000000
vn 0.000000 0.000000 1.000000
vn 0.000000 0.000000 1.000000
vn 0.000000 0.000000 1.000000
vn 0.000000 0.000000 1.000000
vn -0.000000 -0.000000 1.000000
vn -0.000000 -0.000000 1.000000
vn -0.000000 -0.000000 1.000000
vn -0.000000 -0.000000 1.000000
vn 1.000000 0.000000 0.000000
vn 1.000000 0.000000 0.000000
vn 1.000000 0.000000 0.000000
vn 1.000000 0.000000 0.000000
vn 1.000000 0.000000 0.000000
vn 1.000000 0.000000 0.000000
vn 1.000000 0.000000 0.000000
vn 1.000000 0.000000 0.000000
vn -0.000003 1.000000 -0.000000
vn -0.000003 1.000000 -0.000000
vn -0.000003 1.000000 -0.000000
vn -0.000003 1.000000 -0.000000
vn -0.000000 -0.000000 1.000000
vn -0.000000 -0.000000 1.000000
vn -0.000000 -0.000000 1.000000
vn -0.000000 -0.000000 1.000000
vn 0.000000 0.000000 -1.000000
vn 0.000000 0.000000 -1.000000
vn 0.000000 0.000000 -1.000000
vn 0.000000 0.000000 -1.000000
vn -1.000000 0.000000 0.000000
vn -1.000000 0.000000 0.000000
vn -1.000000 0.000000 0.000000
vn -1.000000 0.000000 0.000000
g BuildingC_Mid_Corner_VarA_LOD1 BuildingC_Mid_Corner_VarA_mdl
usemtl lambert2SG
f 12/1/1 13/2/2 8/3/3 3/4/4
usemtl lambert4SG
f 16/5/5 11/6/6 9/7/7 15/8/8
f 4/9/9 8/10/10 13/11/11 14/12/12
f 15/8/13 9/7/14 4/9/15 14/12/16
f 5/13/17 11/6/18 16/5/19 17/14/20
usemtl lambert2SG
f 13/2/21 12/1/22 1/15/23 7/16/24
usemtl lambert4SG
f 13/17/25 7/18/26 2/19/27 14/20/28
f 16/5/29 10/21/30 6/22/31 17/14/32
f 18/23/33 10/24/34 16/25/35 19/26/36
f 16/25/37 15/8/38 14/12/39 19/26/40
f 2/19/41 18/23/42 19/26/43 14/20/44
usemtl lambert2SG
f 20/27/45 23/28/46 22/29/47 21/30/48
f 20/27/49 21/30/50 24/31/51 25/32/52
