# This file uses meters as units for non-parametric coordinates.

mtllib BuildingC_Mid_Corner_VarB_mdl.mtl
g default
v -100.000000 0.000000 0.000000
v 0.000000 0.000000 0.000000
v -100.000000 300.000000 0.000000
v 0.000000 300.000000 0.000000
v 0.000000 300.000000 -100.000000
v 0.000000 0.000000 -100.000000
v -100.000015 0.000000 -50.000019
v -50.000008 0.000000 -50.000019
v -100.000015 300.000000 -50.000019
v -50.000008 300.000000 -50.000019
v -50.000008 300.000000 -100.000000
v -50.000008 0.000000 -100.000000
v -2.501196 300.000000 0.000000
v -2.501196 0.000000 0.000000
v 0.000000 300.000000 -2.380862
v 0.000000 0.000000 -2.380860
v -50.000008 300.000000 -51.480461
v -50.000008 0.000000 -51.480461
v -51.407249 300.000000 -50.000019
v -51.407249 0.000000 -50.000019
vt 0.325000 0.000182
vt 0.333334 0.000182
vt 0.333334 0.999818
vt 0.325000 0.999818
vt 0.341267 0.000182
vt 0.666546 0.000182
vt 0.666546 0.999818
vt 0.341267 0.999818
vt 0.669115 0.000445
vt 0.669115 0.007109
vt 0.669084 0.007109
vt 0.669084 0.000445
vt 0.669051 0.000445
vt 0.669051 0.007109
vt 0.667973 0.007109
vt 0.667973 0.000445
vt 0.000122 0.000182
vt 0.000122 0.999818
vt 0.670195 0.000445
vt 0.670195 0.007109
vn 0.000000 0.000000 1.000000
vn 0.689468 0.000000 0.724316
vn 0.689468 0.000000 0.724316
vn 0.000000 0.000000 1.000000
vn 1.000000 0.000000 0.000000
vn 1.000000 0.000000 0.000000
vn 1.000000 0.000000 0.000000
vn 1.000000 0.000000 0.000000
vn 0.000000 0.000000 -1.000000
vn 0.000000 0.000000 -1.000000
vn -0.724799 0.000000 -0.688961
vn -0.724799 0.000000 -0.688961
vn -1.000000 0.000000 0.000000
vn -1.000000 0.000000 0.000000
vn -1.000000 0.000000 0.000000
vn -1.000000 0.000000 0.000000
vn 0.000000 0.000000 1.000000
vn 0.000000 0.000000 1.000000
vn 0.000000 0.000000 -1.000000
vn 0.000000 0.000000 -1.000000
g BuildingC_Mid_Corner_VarB_mdl
usemtl lambert4SG
f 14/1/1 2/2/2 4/3/3 13/4/4
f 16/5/5 6/6/6 5/7/7 15/8/8
usemtl BuildingC_Top_VarBSG1
f 20/9/9 19/10/10 10/11/11 8/12/12
f 18/13/13 17/14/14 11/15/15 12/16/16
usemtl lambert4SG
f 1/17/17 14/1/1 13/4/4 3/18/18
f 2/2/2 16/5/5 15/8/8 4/3/3
usemtl BuildingC_Top_VarBSG1
f 8/12/12 10/11/11 17/14/14 18/13/13
f 7/19/19 9/20/20 19/10/10 20/9/9
