# This file uses meters as units for non-parametric coordinates.

mtllib BuildingC_Mid_Wall_VarA_mdl.mtl
g default
v 0.000000 0.000000 0.000000
v 0.000000 300.000000 0.000000
v 0.000000 300.000000 -300.000000
v 0.000000 0.000000 -300.000000
v -50.000019 0.000000 0.000000
v -50.000019 300.000000 0.000000
v -50.000019 300.000000 -300.000000
v -50.000019 0.000000 -300.000000
vt 0.497166 0.000182
vt 0.497166 0.497258
vt 0.000090 0.497258
vt 0.000090 0.000182
vt 0.000090 0.502742
vt 0.497166 0.502742
vt 0.497166 0.999818
vt 0.000090 0.999818
vn 1.000000 0.000000 0.000000
vn 1.000000 0.000000 0.000000
vn 1.000000 0.000000 0.000000
vn 1.000000 0.000000 0.000000
vn -1.000000 0.000000 0.000000
vn -1.000000 0.000000 0.000000
vn -1.000000 0.000000 0.000000
vn -1.000000 0.000000 0.000000
g BuildingC_Mid_Wall_VarA_mdl
usemtl lambert2SG
f 4/1/1 3/2/2 2/3/3 1/4/4
f 5/5/5 6/6/6 7/7/7 8/8/8
