# This file uses meters as units for non-parametric coordinates.

mtllib BuildingC_Bottom_Wall_VarB_LOD1.mtl
g default
v 0.000000 0.000000 0.000000
v 0.000000 400.000000 0.000000
v 0.000000 400.000000 -300.000000
v 0.000000 0.000000 -300.000000
v -50.000019 0.000000 0.000000
v -50.000011 400.000000 0.000000
v -50.000011 400.000000 -300.000000
v -50.000019 0.000000 -300.000000
v 0.000000 0.000000 -49.764893
v 0.000000 0.000000 -250.000000
v 0.000000 260.292969 -50.050629
v -50.000019 260.292969 -50.050629
v 0.000000 260.056030 -250.000000
v -50.000019 260.056030 -250.000000
v -25.000010 260.292969 -50.050629
v -25.000010 260.056030 -250.000000
v 0.000000 372.989380 0.000000
v 0.000000 372.639771 -300.000000
v -50.000019 100.283012 -49.874977
v -50.000019 100.030945 -250.000000
v -25.000010 100.283005 -49.874977
v -25.000010 100.030945 -250.000000
v -4.561725 0.000000 -49.764893
v -4.561725 100.283005 -49.874977
v -7.682353 260.292969 -50.050629
v -7.682353 260.056030 -250.000000
v -4.561725 100.030945 -250.000000
v -4.561725 0.000000 -250.000000
v -4.561724 0.000000 -116.509857
v -4.561724 100.198982 -116.583237
v -25.000010 100.198975 -116.583237
v -4.561724 0.000000 -183.254929
v -4.561724 100.114975 -183.291626
v -25.000010 100.114967 -183.291626
v -9.849865 100.283005 -49.874981
v -9.849864 100.198982 -116.583237
v -9.849864 100.114975 -183.291626
v -9.849865 100.030945 -250.000031
v -12.163071 260.056030 -250.000031
v -12.163071 260.292969 -50.050629
v -9.849864 0.000000 -116.509857
v -9.849864 0.000000 -183.254929
v -26.033724 105.115555 -54.644745
v -23.966391 105.115555 -54.644745
v -26.033724 255.286270 -54.644745
v -23.966391 255.286270 -54.644745
v -26.033724 255.286270 -245.230225
v -23.966391 255.286270 -245.230225
v -26.033724 105.115555 -245.230225
v -23.966391 105.115555 -245.230225
v -37.541588 100.345787 -49.874977
v -12.458429 100.345787 -49.874977
v -37.541588 105.115555 -49.874977
v -12.458429 105.115555 -49.874977
v -37.541588 105.115555 -250.000000
v -12.458429 105.115555 -250.000000
v -37.541588 100.345787 -250.000000
v -12.458429 100.345787 -250.000000
v -30.506607 148.900314 -54.644745
v -19.493408 148.900314 -54.644745
v -30.506607 152.920456 -54.644745
v -19.493408 152.920456 -54.644745
v -30.506607 152.920456 -245.230225
v -19.493408 152.920456 -245.230225
v -30.506607 148.900314 -245.230225
v -19.493408 148.900314 -245.230225
v -28.228462 105.115555 -113.703300
v -21.771553 105.115555 -113.703300
v -28.228462 255.286270 -113.703300
v -21.771553 255.286270 -113.703300
v -28.228462 255.286270 -119.463203
v -21.771553 255.286270 -119.463203
v -28.228462 105.115555 -119.463203
v -21.771553 105.115555 -119.463203
v -28.228462 105.115555 -180.411682
v -21.771553 105.115555 -180.411682
v -28.228462 255.286270 -180.411682
v -21.771553 255.286270 -180.411682
v -28.228462 255.286270 -186.171570
v -21.771553 255.286270 -186.171570
v -28.228462 105.115555 -186.171570
v -21.771553 105.115555 -186.171570
v -37.541588 105.115555 -250.000000
v -12.458427 105.115555 -250.000000
v -37.541588 105.115555 -245.230225
v -12.458427 105.115555 -245.230225
v -37.541588 255.286270 -245.230240
v -12.458427 255.286270 -245.230240
v -37.541588 255.286270 -250.000031
v -12.458427 255.286270 -250.000031
v -37.541588 255.286270 -49.874977
v -12.458429 255.286270 -49.874977
v -37.541588 260.056030 -49.874977
v -12.458429 260.056030 -49.874977
v -37.541588 260.056030 -250.000000
v -12.458429 260.056030 -250.000000
v -37.541588 255.286270 -250.000000
v -12.458429 255.286270 -250.000000
v -37.541588 105.115555 -54.644745
v -12.458427 105.115555 -54.644745
v -37.541588 105.115547 -49.874969
v -12.458427 105.115547 -49.874969
v -37.541588 255.286240 -49.874977
v -12.458427 255.286240 -49.874977
v -37.541588 255.286270 -54.644753
v -12.458427 255.286270 -54.644753
vt 0.070982 0.362086
vt 0.346870 0.362413
vt 0.415930 0.555180
vt 0.001992 0.555180
vt 0.347113 0.141632
vt 0.415930 0.003262
vt 0.001992 0.003262
vt 0.070982 0.141284
vt 0.492294 0.364371
vt 0.768183 0.364044
vt 0.837173 0.519386
vt 0.423235 0.519869
vt 0.768183 0.005221
vt 0.837173 0.005221
vt 0.837173 0.557138
vt 0.423235 0.557138
vt 0.423235 0.005221
vt 0.491900 0.005221
vt 0.985964 0.005221
vt 0.979670 0.143243
vt 0.979670 0.005221
vt 0.975364 0.364045
vt 0.985964 0.364045
vt 0.969181 0.364045
vt 0.972373 0.143243
vt 0.951469 0.143243
vt 0.951469 0.364045
vt 0.916974 0.143243
vt 0.916974 0.364045
vt 0.174823 0.561896
vt 0.174823 0.837785
vt 0.164223 0.837785
vt 0.164223 0.561896
vt 0.158041 0.837785
vt 0.158041 0.561896
vt 0.140328 0.837785
vt 0.140328 0.561896
vt 0.105833 0.837785
vt 0.105833 0.561896
vt 0.911511 0.001941
vt 0.911511 0.361091
vt 0.905217 0.222721
vt 0.900911 0.001941
vt 0.905217 0.361091
vt 0.897920 0.222721
vt 0.894728 0.001941
vt 0.877016 0.222721
vt 0.877016 0.001941
vt 0.842521 0.222721
vt 0.842521 0.001941
vt 0.840562 0.369529
vt 0.875057 0.369529
vt 0.875057 0.461573
vt 0.895961 0.369529
vt 0.895961 0.461573
vt 0.875057 0.553617
vt 0.840562 0.645661
vt 0.903257 0.369529
vt 0.903257 0.461573
vt 0.895961 0.553617
vt 0.875057 0.645661
vt 0.895961 0.645661
vt 0.903257 0.553617
vt 0.903257 0.645661
vt 0.664379 0.915543
vt 0.664227 0.777173
vt 0.756321 0.777173
vt 0.756422 0.915427
vt 0.280259 0.972131
vt 0.280208 0.833993
vt 0.372302 0.833993
vt 0.372302 0.972015
vt 0.977171 0.651918
vt 0.977171 0.790171
vt 0.969875 0.790171
vt 0.969875 0.651918
vt 0.877248 0.724443
vt 0.877248 0.862581
vt 0.869951 0.862581
vt 0.869951 0.724443
vt 0.180387 0.972246
vt 0.180286 0.833993
vt 0.272380 0.833993
vt 0.272431 0.972131
vt 0.393846 0.826181
vt 0.393846 0.563213
vt 0.601050 0.563213
vt 0.601050 0.826181
vt 0.180286 0.826181
vt 0.180286 0.563213
vt 0.387490 0.563213
vt 0.387490 0.826181
vt 0.768069 0.812791
vt 0.768069 0.778181
vt 0.774650 0.778181
vt 0.774650 0.812791
vt 0.943747 0.645661
vt 0.909137 0.645661
vt 0.909137 0.369530
vt 0.943747 0.369530
vt 0.779824 0.810714
vt 0.779824 0.776105
vt 0.786406 0.776105
vt 0.786406 0.810714
vt 0.948323 0.367928
vt 0.982932 0.367928
vt 0.982932 0.644059
vt 0.948323 0.644059
vt 0.991427 0.003025
vt 0.998008 0.003025
vt 0.998008 0.279156
vt 0.991427 0.279156
vt 0.996049 0.285160
vt 0.996049 0.561291
vt 0.989468 0.561291
vt 0.989468 0.285160
vt 0.969875 0.812744
vt 0.969875 0.797548
vt 0.975422 0.797548
vt 0.975422 0.812744
vt 0.620644 0.829127
vt 0.605448 0.829127
vt 0.605448 0.566159
vt 0.620644 0.566159
vt 0.773946 0.832493
vt 0.773946 0.817297
vt 0.779493 0.817297
vt 0.779493 0.832493
vt 0.625041 0.825567
vt 0.625041 0.562599
vt 0.640237 0.562599
vt 0.640237 0.825567
vt 0.644634 0.828869
vt 0.644634 0.565901
vt 0.650181 0.565901
vt 0.650181 0.828869
vt 0.659977 0.565901
vt 0.659977 0.828869
vt 0.654430 0.828869
vt 0.654430 0.565901
vt 0.987508 0.567583
vt 0.996417 0.567583
vt 0.996417 0.774788
vt 0.987508 0.774788
vt 0.783743 0.828492
vt 0.783743 0.819583
vt 0.791690 0.819583
vt 0.791690 0.828492
vt 0.664227 0.561362
vt 0.673136 0.561362
vt 0.673136 0.768567
vt 0.664227 0.768567
vt 0.797458 0.826849
vt 0.797458 0.817940
vt 0.805405 0.817940
vt 0.805405 0.826849
vt 0.881707 0.647914
vt 0.889654 0.647914
vt 0.889654 0.855118
vt 0.881707 0.855118
vt 0.830766 0.651832
vt 0.838713 0.651832
vt 0.838713 0.859037
vt 0.830766 0.859037
vt 0.844481 0.651832
vt 0.853390 0.651832
vt 0.853390 0.859037
vt 0.844481 0.859037
vt 0.811173 0.830410
vt 0.811173 0.821500
vt 0.819120 0.821500
vt 0.819120 0.830410
vt 0.677942 0.561362
vt 0.686851 0.561362
vt 0.686851 0.768567
vt 0.677942 0.768567
vt 0.969875 0.828851
vt 0.969875 0.819941
vt 0.977822 0.819941
vt 0.977822 0.828851
vt 0.858196 0.651832
vt 0.866143 0.651832
vt 0.866143 0.859037
vt 0.858196 0.859037
vt 0.893463 0.651832
vt 0.901410 0.651832
vt 0.901410 0.859037
vt 0.893463 0.859037
vt 0.791580 0.809766
vt 0.791580 0.775156
vt 0.798161 0.775156
vt 0.798161 0.809766
vt 0.907178 0.651832
vt 0.941787 0.651832
vt 0.941787 0.859037
vt 0.907178 0.859037
vt 0.803336 0.812497
vt 0.803336 0.777888
vt 0.809917 0.777888
vt 0.809917 0.812497
vt 0.691657 0.561362
vt 0.726266 0.561362
vt 0.726266 0.768567
vt 0.691657 0.768567
vt 0.952945 0.651832
vt 0.952945 0.859037
vt 0.946363 0.859037
vt 0.946363 0.651832
vt 0.958119 0.859037
vt 0.958119 0.651832
vt 0.964700 0.651832
vt 0.964700 0.859037
vt 0.815091 0.814976
vt 0.815091 0.780366
vt 0.821673 0.780366
vt 0.821673 0.814976
vt 0.001992 0.561539
vt 0.036602 0.561539
vt 0.036602 0.837670
vt 0.001992 0.837670
vt 0.979671 0.814408
vt 0.979671 0.779799
vt 0.986252 0.779799
vt 0.986252 0.814408
vt 0.043137 0.559937
vt 0.077746 0.559937
vt 0.077746 0.836068
vt 0.043137 0.836068
vt 0.082322 0.837774
vt 0.082322 0.561643
vt 0.088903 0.561643
vt 0.088903 0.837774
vt 0.094078 0.837774
vt 0.094078 0.561643
vt 0.100659 0.561643
vt 0.100659 0.837774
vt 0.991427 0.814815
vt 0.991427 0.780205
vt 0.998008 0.780205
vt 0.998008 0.814815
vt 0.730842 0.563664
vt 0.765452 0.563664
vt 0.765452 0.770869
vt 0.730842 0.770869
vt 0.762191 0.854471
vt 0.762191 0.819862
vt 0.768772 0.819862
vt 0.768772 0.854471
vt 0.770028 0.561362
vt 0.804637 0.561362
vt 0.804637 0.768567
vt 0.770028 0.768567
vt 0.815795 0.563664
vt 0.815795 0.770869
vt 0.809214 0.770869
vt 0.809214 0.563664
vt 0.820969 0.772828
vt 0.820969 0.565624
vt 0.827551 0.565624
vt 0.827550 0.772828
vn -1.000000 0.000000 -0.000000
vn -1.000000 0.000000 0.000000
vn -1.000000 0.000000 0.000000
vn -1.000000 0.000000 -0.000000
vn 1.000000 0.000000 0.000000
vn 1.000000 0.000000 0.000000
vn 1.000000 0.000000 0.000000
vn 1.000000 0.000000 0.000000
vn 0.000000 0.000000 1.000000
vn -0.000002 -0.000000 1.000000
vn 0.000000 0.000000 1.000000
vn 0.000000 -0.999999 0.001185
vn 0.000000 -0.999999 0.001185
vn -0.000000 -0.999999 0.001185
vn -0.000000 -0.999999 0.001185
vn -0.000000 -0.001098 -0.999999
vn -0.000000 -0.001098 -0.999999
vn -0.000000 -0.001098 -0.999999
vn 0.000000 -0.001098 -0.999999
vn -0.000000 -0.001098 -0.999999
vn -0.000000 -0.001098 -0.999999
vn -0.000000 -0.001098 -0.999999
vn -0.000000 -0.001098 -0.999999
vn 0.000000 -0.999999 0.001185
vn 0.000000 -0.999999 0.001185
vn 0.000000 -0.999999 0.001185
vn 0.000000 -0.999999 0.001185
vn 1.000000 0.000000 0.000000
vn 1.000000 0.000000 0.000000
vn 1.000000 0.000000 0.000000
vn 1.000000 0.000000 0.000000
vn -1.000000 0.000000 0.000000
vn -1.000000 0.000000 0.000000
vn 1.000000 0.000000 0.000000
vn 1.000000 0.000000 0.000000
vn -1.000000 0.000000 -0.000000
vn -1.000000 0.000000 -0.000000
vn -0.000004 -0.000000 1.000000
vn 0.000000 0.000000 1.000000
vn 0.000000 -0.001098 -0.999999
vn 0.000000 0.000000 1.000000
vn 0.000001 0.000000 1.000000
vn 0.000001 0.000000 1.000000
vn 0.000000 0.000000 1.000000
vn -0.000000 -0.001098 -0.999999
vn 0.000000 -0.001098 -0.999999
vn 0.000000 -0.999999 0.001185
vn -0.000000 -0.999999 0.001185
vn -0.000000 -0.000000 1.000000
vn 0.000000 -0.000000 1.000000
vn 0.000000 0.999999 -0.001260
vn 0.000000 0.999999 -0.001260
vn 0.000000 0.999999 -0.001260
vn -0.000000 0.999999 -0.001260
vn -0.000000 0.999999 -0.001259
vn 1.000000 0.000000 0.000000
vn 1.000000 0.000000 0.000000
vn 1.000000 0.000000 0.000000
vn 1.000000 0.000000 0.000000
vn -0.000000 0.999999 -0.001259
vn 0.000000 0.999999 -0.001260
vn 0.000000 0.999999 -0.001259
vn 1.000000 0.000000 -0.000000
vn 1.000000 0.000000 -0.000000
vn 1.000000 0.000000 -0.000000
vn 1.000000 0.000000 -0.000000
vn -0.000000 0.999999 -0.001260
vn -0.000000 0.999999 -0.001259
vn 0.000000 0.999999 -0.001260
vn 0.000000 0.999999 -0.001260
vn 0.000000 0.999999 -0.001260
vn 0.000000 0.999999 -0.001260
vn 0.000000 -0.000732 -1.000000
vn 0.000000 -0.000732 -1.000000
vn 0.000000 -0.000732 -1.000000
vn 0.000000 -0.000732 -1.000000
vn 0.000000 0.000367 1.000000
vn 0.000000 0.000367 1.000000
vn 0.000000 0.000367 1.000000
vn 0.000000 0.000367 1.000000
vn 1.000000 0.000000 0.000000
vn 1.000000 0.000000 0.000000
vn 1.000000 0.000000 0.000000
vn 1.000000 0.000000 0.000000
vn 1.000000 0.000000 0.000000
vn 1.000000 0.000000 0.000000
vn 1.000000 0.000000 0.000000
vn 1.000000 0.000000 0.000000
vn -1.000000 0.000000 0.000000
vn -1.000000 0.000000 0.000000
vn -1.000000 0.000000 0.000000
vn -1.000000 0.000000 0.000000
vn 0.000000 0.000000 1.000000
vn 0.000000 0.000000 1.000000
vn 0.000000 0.000000 1.000000
vn 0.000000 0.000000 1.000000
vn 0.000000 1.000000 0.000000
vn 0.000000 1.000000 0.000000
vn 0.000000 1.000000 0.000000
vn 0.000000 1.000000 0.000000
vn 0.000000 0.000000 -1.000000
vn 0.000000 0.000000 -1.000000
vn 0.000000 0.000000 -1.000000
vn 0.000000 0.000000 -1.000000
vn 0.000000 -1.000000 0.000000
vn 0.000000 -1.000000 0.000000
vn 0.000000 -1.000000 0.000000
vn 0.000000 -1.000000 0.000000
vn 1.000000 0.000000 0.000000
vn 1.000000 0.000000 0.000000
vn 1.000000 0.000000 0.000000
vn 1.000000 0.000000 0.000000
vn -1.000000 0.000000 0.000000
vn -1.000000 0.000000 0.000000
vn -1.000000 0.000000 0.000000
vn -1.000000 0.000000 0.000000
vn 0.000000 0.000000 1.000000
vn 0.000000 0.000000 1.000000
vn 0.000000 0.000000 1.000000
vn 0.000000 0.000000 1.000000
vn 0.000000 1.000000 0.000000
vn 0.000000 1.000000 0.000000
vn 0.000000 1.000000 0.000000
vn 0.000000 1.000000 0.000000
vn 0.000000 0.000000 -1.000000
vn 0.000000 0.000000 -1.000000
vn 0.000000 0.000000 -1.000000
vn 0.000000 0.000000 -1.000000
vn 0.000000 -1.000000 0.000000
vn 0.000000 -1.000000 0.000000
vn 0.000000 -1.000000 0.000000
vn 0.000000 -1.000000 0.000000
vn 1.000000 0.000000 0.000000
vn 1.000000 0.000000 0.000000
vn 1.000000 0.000000 0.000000
vn 1.000000 0.000000 0.000000
vn -1.000000 0.000000 0.000000
vn -1.000000 0.000000 0.000000
vn -1.000000 0.000000 0.000000
vn -1.000000 0.000000 0.000000
vn 0.000000 0.000000 1.000000
vn 0.000000 0.000000 1.000000
vn 0.000000 0.000000 1.000000
vn 0.000000 0.000000 1.000000
vn 0.000000 1.000000 0.000000
vn 0.000000 1.000000 0.000000
vn 0.000000 1.000000 0.000000
vn 0.000000 1.000000 0.000000
vn 0.000000 0.000000 -1.000000
vn 0.000000 0.000000 -1.000000
vn 0.000000 0.000000 -1.000000
vn 0.000000 0.000000 -1.000000
vn 0.000000 -1.000000 0.000000
vn 0.000000 -1.000000 0.000000
vn 0.000000 -1.000000 0.000000
vn 0.000000 -1.000000 0.000000
vn 1.000000 0.000000 0.000000
vn 1.000000 0.000000 0.000000
vn 1.000000 0.000000 0.000000
vn 1.000000 0.000000 0.000000
vn -1.000000 0.000000 0.000000
vn -1.000000 0.000000 0.000000
vn -1.000000 0.000000 0.000000
vn -1.000000 0.000000 0.000000
vn 0.000000 0.000000 1.000000
vn 0.000000 0.000000 1.000000
vn 0.000000 0.000000 1.000000
vn 0.000000 0.000000 1.000000
vn 0.000000 1.000000 0.000000
vn 0.000000 1.000000 0.000000
vn 0.000000 1.000000 0.000000
vn 0.000000 1.000000 0.000000
vn 0.000000 0.000000 -1.000000
vn 0.000000 0.000000 -1.000000
vn 0.000000 0.000000 -1.000000
vn 0.000000 0.000000 -1.000000
vn 0.000000 -1.000000 0.000000
vn 0.000000 -1.000000 0.000000
vn 0.000000 -1.000000 0.000000
vn 0.000000 -1.000000 0.000000
vn 1.000000 0.000000 0.000000
vn 1.000000 0.000000 0.000000
vn 1.000000 0.000000 0.000000
vn 1.000000 0.000000 0.000000
vn -1.000000 0.000000 0.000000
vn -1.000000 0.000000 0.000000
vn -1.000000 0.000000 0.000000
vn -1.000000 0.000000 0.000000
vn 0.000000 -1.000000 0.000000
vn 0.000000 -1.000000 0.000000
vn 0.000000 -1.000000 0.000000
vn 0.000000 -1.000000 0.000000
vn 0.000000 0.000000 1.000000
vn 0.000000 0.000000 1.000000
vn 0.000000 0.000000 1.000000
vn 0.000000 0.000000 1.000000
vn 0.000000 1.000000 0.000000
vn 0.000000 1.000000 0.000000
vn 0.000000 1.000000 0.000000
vn 0.000000 1.000000 0.000000
vn 0.000000 -0.000000 -1.000000
vn 0.000000 -0.000000 -1.000000
vn 0.000000 -0.000000 -1.000000
vn 0.000000 -0.000000 -1.000000
vn 1.000000 0.000000 0.000000
vn 1.000000 0.000000 0.000000
vn 1.000000 0.000000 0.000000
vn 1.000000 0.000000 0.000000
vn -1.000000 -0.000000 0.000000
vn -1.000000 -0.000000 0.000000
vn -1.000000 -0.000000 0.000000
vn -1.000000 -0.000000 0.000000
vn 0.000000 0.000000 1.000000
vn 0.000000 0.000000 1.000000
vn 0.000000 0.000000 1.000000
vn 0.000000 0.000000 1.000000
vn 0.000000 1.000000 0.000000
vn 0.000000 1.000000 0.000000
vn 0.000000 1.000000 0.000000
vn 0.000000 1.000000 0.000000
vn 0.000000 0.000000 -1.000000
vn 0.000000 0.000000 -1.000000
vn 0.000000 0.000000 -1.000000
vn 0.000000 0.000000 -1.000000
vn 0.000000 -1.000000 0.000000
vn 0.000000 -1.000000 0.000000
vn 0.000000 -1.000000 0.000000
vn 0.000000 -1.000000 0.000000
vn 1.000000 0.000000 0.000000
vn 1.000000 0.000000 0.000000
vn 1.000000 0.000000 0.000000
vn 1.000000 0.000000 0.000000
vn -1.000000 0.000000 0.000000
vn -1.000000 0.000000 0.000000
vn -1.000000 0.000000 0.000000
vn -1.000000 0.000000 0.000000
vn 0.000000 -1.000000 -0.000002
vn 0.000000 -1.000000 -0.000002
vn 0.000000 -1.000000 -0.000002
vn 0.000000 -1.000000 -0.000002
vn 0.000000 0.000000 1.000000
vn 0.000000 0.000000 1.000000
vn 0.000000 0.000000 1.000000
vn 0.000000 0.000000 1.000000
vn 0.000000 1.000000 0.000004
vn 0.000000 1.000000 0.000004
vn 0.000000 1.000000 0.000004
vn 0.000000 1.000000 0.000004
vn 0.000000 -0.000000 -1.000000
vn 0.000000 -0.000000 -1.000000
vn 0.000000 -0.000000 -1.000000
vn 0.000000 -0.000000 -1.000000
vn 1.000000 0.000000 0.000000
vn 1.000000 0.000000 0.000000
vn 1.000000 0.000000 0.000000
vn 1.000000 0.000000 0.000000
vn -1.000000 0.000000 0.000000
vn -1.000000 0.000000 0.000000
vn -1.000000 0.000000 0.000000
vn -1.000000 0.000000 0.000000
g BuildingC_Bottom_Wall_VarB_LOD1 BuildingC_Bottom_Wall_VarB_mdl
usemtl lambert2SG
f 14/1/1 12/2/2 6/3/3 7/4/4
f 11/9/5 13/10/6 18/11/7 17/12/8
f 10/19/9 27/20/10 28/21/11
f 13/30/12 11/31/13 25/32/14 26/33/15
f 11/40/16 9/41/17 24/42/18 25/43/19
f 15/48/20 21/47/21 19/49/22 12/50/23
f 16/37/24 15/36/25 12/38/26 14/39/27
usemtl lambert4SG
f 17/12/8 18/11/7 3/15/28 2/16/29
usemtl lambert2SG
f 10/13/30 4/14/31 18/11/7 13/10/6
f 19/5/32 5/6/33 6/3/3 12/2/2
f 1/17/34 9/18/35 11/9/5 17/12/8
f 8/7/36 20/8/37 14/1/1 7/4/4
f 26/22/38 27/20/10 10/19/9 13/23/39
f 23/44/40 24/42/18 9/41/17
f 20/28/41 22/26/42 16/27/43 14/29/44
f 40/46/45 35/45/46 21/47/21 15/48/20
f 39/35/47 40/34/48 15/36/25 16/37/24
f 22/26/42 38/25/49 39/24/50 16/27/43
f 19/51/51 21/52/52 31/53/53
f 21/52/52 35/54/54 36/55/55 31/53/53
f 24/65/56 23/66/57 29/67/58 30/68/59
f 31/53/53 36/55/55 37/60/60 34/56/61
f 19/51/51 31/53/53 34/56/61 20/57/62
f 5/6/33 19/5/32 20/8/37 8/7/36
f 33/69/63 32/70/64 28/71/65 27/72/66
f 34/56/61 37/60/60 38/62/67 22/61/68
f 20/57/62 34/56/61 22/61/68
f 36/55/55 35/54/54 24/58/69 30/59/70
f 38/62/67 37/60/60 33/63/71 27/64/72
f 39/24/50 38/25/49 27/20/10 26/22/38
f 26/33/15 25/32/14 40/34/48 39/35/47
f 25/43/19 24/42/18 35/45/46 40/46/45
f 30/73/73 29/74/74 41/75/75 36/76/76
f 32/77/77 33/78/78 37/79/79 42/80/80
f 36/81/81 41/82/82 42/83/83 37/84/84
usemtl lambert7SG
f 44/85/85 50/86/86 48/87/87 46/88/88
f 49/89/89 43/90/90 45/91/91 47/92/92
usemtl lambert8SG
f 51/93/93 52/94/94 54/95/95 53/96/96
f 56/97/97 55/98/98 53/99/99 54/100/100
f 55/101/101 56/102/102 58/103/103 57/104/104
f 57/105/105 58/106/106 52/107/107 51/108/108
f 58/109/109 56/110/110 54/111/111 52/112/112
f 53/113/113 55/114/114 57/115/115 51/116/116
f 59/117/117 60/118/118 62/119/119 61/120/120
f 64/121/121 63/122/122 61/123/123 62/124/124
f 63/125/125 64/126/126 66/127/127 65/128/128
f 59/129/129 65/130/130 66/131/131 60/132/132
f 60/133/133 66/134/134 64/135/135 62/136/136
f 61/137/137 63/138/138 65/139/139 59/140/140
f 67/141/141 68/142/142 70/143/143 69/144/144
f 69/145/145 70/146/146 72/147/147 71/148/148
f 71/149/149 72/150/150 74/151/151 73/152/152
f 73/153/153 74/154/154 68/155/155 67/156/156
f 68/157/157 74/158/158 72/159/159 70/160/160
f 73/161/161 67/162/162 69/163/163 71/164/164
f 75/165/165 76/166/166 78/167/167 77/168/168
f 77/169/169 78/170/170 80/171/171 79/172/172
f 79/173/173 80/174/174 82/175/175 81/176/176
f 81/177/177 82/178/178 76/179/179 75/180/180
f 76/181/181 82/182/182 80/183/183 78/184/184
f 81/185/185 75/186/186 77/187/187 79/188/188
f 83/189/189 84/190/190 86/191/191 85/192/192
f 85/193/193 86/194/194 88/195/195 87/196/196
f 87/197/197 88/198/198 90/199/199 89/200/200
f 89/201/201 90/202/202 84/203/203 83/204/204
f 84/205/205 90/206/206 88/207/207 86/208/208
f 89/209/209 83/210/210 85/211/211 87/212/212
f 91/213/213 92/214/214 94/215/215 93/216/216
f 93/217/217 94/218/218 96/219/219 95/220/220
f 95/221/221 96/222/222 98/223/223 97/224/224
f 97/225/225 98/226/226 92/227/227 91/228/228
f 92/229/229 98/230/230 96/231/231 94/232/232
f 97/233/233 91/234/234 93/235/235 95/236/236
f 99/237/237 100/238/238 102/239/239 101/240/240
f 101/241/241 102/242/242 104/243/243 103/244/244
f 103/245/245 104/246/246 106/247/247 105/248/248
f 105/249/249 106/250/250 100/251/251 99/252/252
f 100/253/253 106/254/254 104/255/255 102/256/256
f 105/257/257 99/258/258 101/259/259 103/260/260
