# This file uses meters as units for non-parametric coordinates.

mtllib RollupDoor_Closed.mtl
g default
v -450.000000 275.000000 19.781916
v 0.000000 275.000000 19.781916
v -450.000000 317.617950 19.781916
v 0.000000 317.617950 19.781916
v -450.000000 317.617950 -42.488087
v 0.000000 317.617950 -42.488087
v -450.000000 287.842957 -46.518272
v 0.000000 287.842957 -46.518272
v 0.000000 275.000000 -28.495922
v -450.000000 275.000000 -28.495922
v 0.000000 313.528717 -48.062843
v -450.000000 313.528717 -48.062843
v -225.000000 317.617950 -42.488087
v -225.000000 313.528717 -48.062843
v -225.000000 287.842957 -46.518272
v -225.000000 275.000000 -28.495922
v -225.000000 275.000000 19.781916
v -225.000000 317.617950 19.781916
v -226.658920 318.549316 -43.463516
v -226.658920 314.281342 -49.214417
v -226.658920 287.472931 -47.669846
v -226.658920 274.068634 -28.859791
v -226.658920 274.068634 20.933491
v -226.658920 318.549316 20.933491
v 0.000000 312.937683 -46.518272
v -225.000000 312.937683 -46.518272
v -226.658920 313.664490 -47.669846
v -450.000000 312.937683 -46.518272
v 0.000000 0.000000 8.315532
v 0.000000 0.000000 -2.139015
v 0.000000 275.000000 8.315532
v 0.000000 275.000000 -2.139015
v -9.735291 275.000000 8.315532
v -9.735291 275.000000 -2.139015
v -9.735291 0.000000 8.315532
v -9.735291 0.000000 -2.139015
v -8.508270 275.000000 5.773965
v -8.508270 275.000000 -0.158393
v -8.508270 0.000000 -0.158393
v -8.508270 0.000000 5.773965
v -443.125000 280.196259 1.583484
v -6.875080 280.196259 1.583484
v -443.125000 0.000000 1.583484
v -6.875080 0.000000 1.583484
v -450.000000 0.000000 8.315532
v -450.000000 0.000000 -2.139015
v -450.000000 275.000000 8.315532
v -450.000000 275.000000 -2.139015
v -440.264709 275.000000 8.315532
v -440.264709 275.000000 -2.139015
v -440.264709 0.000000 8.315532
v -440.264709 0.000000 -2.139015
v -441.491760 275.000000 5.773965
v -441.491760 275.000000 -0.158393
v -441.491760 0.000000 -0.158393
v -441.491760 0.000000 5.773965
v -6.875000 280.196259 4.594312
v -443.124908 280.196259 4.594312
v -6.875000 0.000000 4.594312
v -443.124908 0.000000 4.594312
vt 0.970739 0.601229
vt 0.858416 0.601229
vt 0.978008 0.592786
vt 0.980794 0.593853
vt 0.975674 0.633952
vt 0.975674 0.710826
vt 0.888590 0.633951
vt 0.856081 0.657118
vt 0.863351 0.710826
vt 0.856081 0.702384
vt 0.424874 0.832879
vt 0.019381 0.833027
vt 0.019366 0.820637
vt 0.424802 0.820274
vt 0.420253 0.979071
vt 0.014397 0.979071
vt 0.014397 0.976285
vt 0.420253 0.976285
vt 0.425657 0.748470
vt 0.021395 0.748461
vt 0.021523 0.710050
vt 0.425727 0.709487
vt 0.424925 0.944954
vt 0.019443 0.944970
vt 0.428417 0.831479
vt 0.428443 0.818860
vt 0.423246 0.981148
vt 0.423245 0.978362
vt 0.429190 0.748874
vt 0.429086 0.709630
vt 0.428331 0.947047
vt 0.425616 0.792896
vt 0.021210 0.792583
vt 0.429132 0.794381
vt 0.426644 0.526546
vt 0.430262 0.524858
vt 0.430262 0.605069
vt 0.426644 0.603380
vt 0.021102 0.526538
vt 0.021102 0.603388
vt 0.945499 0.524354
vt 0.858416 0.524354
vt 0.978008 0.547520
vt 0.853295 0.703450
vt 0.830832 0.833028
vt 0.830798 0.944963
vt 0.830871 0.820637
vt 0.826110 0.976285
vt 0.826110 0.979071
vt 0.829939 0.748431
vt 0.830233 0.792522
vt 0.829835 0.710050
vt 0.832814 0.526538
vt 0.832814 0.603388
vt 0.021330 0.625950
vt 0.425653 0.625344
vt 0.429040 0.623333
vt 0.830153 0.625995
vt 0.843938 0.509232
vt 0.826547 0.509234
vt 0.826547 0.013215
vt 0.843938 0.013218
vt 0.881038 0.509236
vt 0.863645 0.509232
vt 0.863645 0.013217
vt 0.881038 0.013214
vt 0.848085 0.509232
vt 0.848085 0.013218
vt 0.858622 0.509232
vt 0.858622 0.013218
vt 0.018062 0.008891
vt 0.804973 0.008892
vt 0.804973 0.514311
vt 0.018062 0.514312
vt 0.843938 0.509232
vt 0.843938 0.013218
vt 0.826547 0.013215
vt 0.826547 0.509234
vt 0.881038 0.509236
vt 0.881038 0.013214
vt 0.863645 0.013217
vt 0.863645 0.509232
vt 0.848085 0.509232
vt 0.848085 0.013218
vt 0.858622 0.013218
vt 0.858622 0.509232
vt 0.018062 0.008891
vt 0.804973 0.008892
vt 0.804973 0.514311
vt 0.018062 0.514312
vt 0.809656 0.368028
vt 0.077800 0.368028
vt 0.077799 0.362977
vt 0.809656 0.362977
vn 1.000000 0.000000 0.000000
vn 1.000000 0.000000 0.000000
vn 1.000000 0.000000 0.000000
vn 1.000000 0.000000 0.000000
vn -1.000000 0.000000 0.000000
vn -1.000000 -0.000000 0.000000
vn -1.000000 0.000000 0.000000
vn -1.000000 0.000000 0.000000
vn -1.000000 -0.000013 0.000000
vn -1.000000 -0.000001 0.000000
vn 0.005528 0.998182 -0.060013
vn 0.000000 0.998188 -0.060164
vn 0.000000 0.652518 -0.757773
vn 0.007064 0.652102 -0.758098
vn 0.000000 -0.060025 -0.998197
vn 0.006122 -0.059736 -0.998195
vn 0.006282 -0.429283 -0.903148
vn 0.000000 -0.429095 -0.903260
vn 0.000000 -0.981750 -0.190174
vn 0.004886 -0.981745 -0.190139
vn 0.005612 0.999984 0.000000
vn 0.000000 1.000000 0.000000
vn -0.001098 0.998150 -0.060792
vn -0.000779 0.653383 -0.757027
vn -0.001123 -0.059356 -0.998236
vn -0.000868 -0.428668 -0.903462
vn -0.000466 -0.981577 -0.191067
vn -0.001429 0.999999 0.000000
vn 0.006605 0.000000 0.999978
vn -0.001401 0.000000 0.999999
vn -0.001401 0.000000 0.999999
vn 0.006605 0.000000 0.999978
vn 0.000000 0.000000 1.000000
vn 0.000000 0.000000 1.000000
vn 1.000000 0.000000 0.000000
vn 1.000000 0.000000 0.000000
vn 1.000000 0.000000 0.000000
vn -1.000000 0.000025 0.000000
vn -0.004417 0.998173 -0.060261
vn -0.004170 0.999991 0.000000
vn -0.006219 0.652045 -0.758155
vn -0.004954 -0.058409 -0.998280
vn -0.005368 -0.429321 -0.903136
vn -0.004404 -0.981593 -0.190935
vn -0.005156 0.000000 0.999987
vn -0.005156 0.000000 0.999987
vn 0.000000 -1.000000 0.000000
vn 0.005605 -0.999984 0.000000
vn -0.001429 -0.999999 0.000000
vn -0.004170 -0.999991 0.000000
vn -0.226726 0.000000 -0.973959
vn 0.000000 0.000000 -1.000000
vn 0.000000 0.000000 -1.000000
vn -0.226726 0.000000 -0.973959
vn 0.000000 0.000000 1.000000
vn -0.286220 0.000000 0.958164
vn -0.286220 0.000000 0.958164
vn 0.000000 0.000000 1.000000
vn -0.988190 0.000000 0.153233
vn -0.988190 0.000000 0.153233
vn -0.989679 0.000000 -0.143305
vn -0.989679 0.000000 -0.143305
vn 0.000000 0.000000 -1.000000
vn 0.000000 0.000000 -1.000000
vn 0.000000 0.000000 -1.000000
vn 0.000000 0.000000 -1.000000
vn 0.226727 0.000000 -0.973958
vn 0.226727 0.000000 -0.973958
vn 0.000000 0.000000 -1.000000
vn 0.000000 0.000000 -1.000000
vn 0.000000 0.000000 1.000000
vn 0.000000 0.000000 1.000000
vn 0.286221 0.000000 0.958164
vn 0.286221 0.000000 0.958164
vn 0.988190 0.000000 0.153237
vn 0.988190 0.000000 0.153237
vn 0.989678 0.000000 -0.143309
vn 0.989678 0.000000 -0.143309
vn 0.000000 0.000000 1.000000
vn 0.000000 0.000000 1.000000
vn 0.000000 0.000000 1.000000
vn 0.000000 0.000000 1.000000
vn 0.000000 -1.000000 0.000000
vn 0.000000 -1.000000 0.000000
vn 0.000000 -1.000000 0.000000
vn 0.000000 -1.000000 0.000000
g RollupDoor_Closed
usemtl lambert29SG
f 6/1/1 4/2/2 25/3/3 11/4/4
f 1/5/5 3/6/6 10/7/7
f 3/6/6 7/8/8 10/7/7
f 3/6/6 5/9/9 28/10/10
f 3/6/6 28/10/10 7/8/8
f 13/11/11 6/12/12 11/13/13 14/14/14
f 14/15/14 11/16/13 25/17/15 26/18/16
f 15/19/17 8/20/18 9/21/19 16/22/20
f 6/12/12 13/11/11 18/23/21 4/24/22
f 19/25/23 13/11/11 14/14/14 20/26/24
f 20/27/24 14/15/14 26/18/16 27/28/25
f 21/29/26 15/19/17 16/22/20 22/30/27
f 13/11/11 19/25/23 24/31/28 18/23/21
f 15/19/17 26/32/16 25/33/15 8/20/18
f 27/34/25 26/32/16 15/19/17 21/29/26
f 18/35/29 24/36/30 23/37/31 17/38/32
f 4/39/33 18/35/29 17/38/32 2/40/34
f 9/41/35 4/2/2 2/42/36
f 9/41/35 8/43/37 25/3/3 4/2/2
f 5/9/9 12/44/38 28/10/10
f 19/25/23 5/45/39 3/46/40 24/31/28
f 5/45/39 19/25/23 20/26/24 12/47/41
f 28/48/42 12/49/41 20/27/24 27/28/25
f 7/50/43 28/51/42 27/34/25 21/29/26
f 7/50/43 21/29/26 22/30/27 10/52/44
f 24/36/30 3/53/45 1/54/46 23/37/31
f 16/22/20 9/21/19 2/55/47 17/56/48
f 23/57/49 1/58/50 10/52/44 22/30/27
f 22/30/27 16/22/20 17/56/48 23/57/49
f 34/59/51 32/60/52 30/61/53 36/62/54
f 31/63/55 33/64/56 35/65/57 29/66/58
f 38/67/59 34/59/51 36/62/54 39/68/60
f 33/64/56 37/69/61 40/70/62 35/65/57
f 37/69/61 38/67/59 39/68/60 40/70/62
f 41/71/63 42/72/64 44/73/65 43/74/66
f 50/75/67 52/76/68 46/77/69 48/78/70
f 47/79/71 45/80/72 51/81/73 49/82/74
f 54/83/75 55/84/76 52/76/68 50/75/67
f 49/82/74 51/81/73 56/85/77 53/86/78
f 53/86/78 56/85/77 55/84/76 54/83/75
f 57/87/79 58/88/80 60/89/81 59/90/82
f 43/91/83 44/92/84 59/93/85 60/94/86
