# This file uses meters as units for non-parametric coordinates.

mtllib Manhole_LOD0.mtl
g default
v 55.283600 0.000000 -8.756042
v 53.233219 0.000000 -17.296509
v 49.872055 0.000000 -25.411072
v 45.282890 0.000000 -32.899918
v 39.578690 0.000000 -39.578674
v 32.899956 0.000000 -45.282852
v 25.411087 0.000000 -49.872040
v 17.296524 0.000000 -53.233200
v 8.756073 0.000000 -55.283581
v 0.000031 0.000000 -55.972702
v -8.756035 0.000000 -55.283581
v -17.296501 0.000000 -53.233200
v -25.411062 0.000000 -49.872055
v -32.899910 0.000000 -45.282883
v -39.578651 0.000000 -39.578690
v -45.282845 0.000000 -32.899948
v -49.872017 0.000000 -25.411087
v -53.233192 0.000000 -17.296524
v -55.283566 0.000000 -8.756073
v -55.972675 0.000000 0.000000
v -55.283566 0.000000 8.756058
v -53.233192 0.000000 17.296494
v -49.872017 0.000000 25.411043
v -45.282860 0.000000 32.899887
v -39.578667 0.000000 39.578659
v -32.899925 0.000000 45.282822
v -25.411062 0.000000 49.872025
v -17.296501 0.000000 53.233200
v -8.756050 0.000000 55.283550
v 0.000008 0.000000 55.972702
v 8.756050 0.000000 55.283550
v 17.296516 0.000000 53.233200
v 25.411062 0.000000 49.872025
v 32.899925 0.000000 45.282852
v 39.578651 0.000000 39.578659
v 45.282829 0.000000 32.899918
v 49.872017 0.000000 25.411072
v 53.233166 0.000000 17.296494
v 55.283566 0.000000 8.756058
v 55.972675 0.000000 0.000000
v 54.454212 1.172626 -8.624695
v 52.434612 1.172626 -17.037018
v 0.000008 2.728416 0.000000
v 49.123871 1.172626 -25.029846
v 44.603546 1.172626 -32.406357
v 38.984924 1.172626 -38.984909
v 32.406395 1.172626 -44.603516
v 25.029861 1.172626 -49.123856
v 17.037041 1.172626 -52.434601
v 8.624710 1.172626 -54.454224
v 0.000031 1.172626 -55.132996
v -8.624687 1.172626 -54.454224
v -17.037010 1.172626 -52.434601
v -25.029839 1.172626 -49.123856
v -32.406334 1.172626 -44.603546
v -38.984886 1.172626 -38.984940
v -44.603508 1.172626 -32.406372
v -49.123833 1.172626 -25.029861
v -52.434593 1.172626 -17.037033
v -54.454201 1.172626 -8.624710
v -55.132984 1.172626 0.000000
v -54.454201 1.172626 8.624680
v -52.434593 1.172626 17.037018
v -49.123833 1.172626 25.029814
v -44.603508 1.172626 32.406342
v -38.984901 1.172626 38.984879
v -32.406349 1.172626 44.603531
v -25.029854 1.172626 49.123825
v -17.037041 1.172626 52.434559
v -8.624687 1.172626 54.454178
v 0.000008 1.172626 55.132950
v 8.624680 1.172626 54.454178
v 17.037033 1.172626 52.434559
v 25.029846 1.172626 49.123825
v 32.406349 1.172626 44.603531
v 38.984894 1.172626 38.984879
v 44.603493 1.172626 32.406342
v 49.123833 1.172626 25.029833
v 52.434559 1.172626 17.037018
v 54.454193 1.172626 8.624680
v 55.132973 1.172626 0.000000
vt 0.969445 0.583165
vt 0.951993 0.655855
vt 0.498913 0.506426
vt 0.923386 0.724920
vt 0.884326 0.788659
vt 0.835776 0.845504
vt 0.778932 0.894053
vt 0.715192 0.933113
vt 0.646127 0.961720
vt 0.573438 0.979172
vt 0.498913 0.985037
vt 0.424388 0.979172
vt 0.351698 0.961720
vt 0.282633 0.933113
vt 0.218894 0.894053
vt 0.162049 0.845504
vt 0.113500 0.788659
vt 0.074440 0.724920
vt 0.045832 0.655855
vt 0.028381 0.583165
vt 0.022516 0.508640
vt 0.028381 0.434116
vt 0.045832 0.361425
vt 0.074440 0.292360
vt 0.113500 0.228621
vt 0.162049 0.171776
vt 0.218894 0.123227
vt 0.282633 0.084167
vt 0.351698 0.055560
vt 0.424388 0.038108
vt 0.498913 0.032243
vt 0.573438 0.038108
vt 0.646128 0.055560
vt 0.715192 0.084167
vt 0.778932 0.123227
vt 0.835777 0.171776
vt 0.884326 0.228622
vt 0.923386 0.292360
vt 0.951994 0.361425
vt 0.969445 0.434116
vt 0.975310 0.508640
vt 0.979629 0.584778
vt 0.961799 0.659041
vt 0.932573 0.729601
vt 0.892668 0.794720
vt 0.843067 0.852795
vt 0.784993 0.902395
vt 0.719873 0.942300
vt 0.649314 0.971527
vt 0.575051 0.989356
vt 0.498913 0.995349
vt 0.422775 0.989356
vt 0.348512 0.971527
vt 0.277952 0.942300
vt 0.212833 0.902395
vt 0.154758 0.852795
vt 0.105158 0.794720
vt 0.065253 0.729601
vt 0.036026 0.659041
vt 0.018197 0.584778
vt 0.012205 0.508640
vt 0.018197 0.432503
vt 0.036026 0.358239
vt 0.065253 0.287679
vt 0.105158 0.222561
vt 0.154758 0.164486
vt 0.212833 0.114885
vt 0.277952 0.074980
vt 0.348512 0.045753
vt 0.422775 0.027924
vt 0.498913 0.021932
vt 0.575051 0.027924
vt 0.649314 0.045753
vt 0.719873 0.074980
vt 0.784993 0.114885
vt 0.843067 0.164486
vt 0.892668 0.222561
vt 0.932573 0.287679
vt 0.961800 0.358239
vt 0.979629 0.432503
vt 0.985621 0.508640
vn 0.027860 0.999602 -0.004413
vn 0.026827 0.999602 -0.008717
vn 0.000000 1.000000 0.000000
vn 0.026827 0.999602 -0.008717
vn 0.025133 0.999602 -0.012806
vn 0.000000 1.000000 0.000000
vn 0.025133 0.999602 -0.012806
vn 0.022820 0.999602 -0.016580
vn 0.000000 1.000000 0.000000
vn 0.022820 0.999602 -0.016580
vn 0.019946 0.999602 -0.019946
vn 0.000000 1.000000 0.000000
vn 0.019946 0.999602 -0.019946
vn 0.016580 0.999602 -0.022820
vn 0.000000 1.000000 0.000000
vn 0.016580 0.999602 -0.022820
vn 0.012806 0.999602 -0.025133
vn 0.000000 1.000000 0.000000
vn 0.012806 0.999602 -0.025133
vn 0.008717 0.999602 -0.026827
vn 0.000000 1.000000 0.000000
vn 0.008717 0.999602 -0.026827
vn 0.004413 0.999602 -0.027860
vn 0.000000 1.000000 0.000000
vn 0.004413 0.999602 -0.027860
vn 0.000000 0.999602 -0.028208
vn 0.000000 1.000000 0.000000
vn 0.000000 0.999602 -0.028208
vn -0.004413 0.999602 -0.027860
vn 0.000000 1.000000 0.000000
vn -0.004413 0.999602 -0.027860
vn -0.008717 0.999602 -0.026827
vn 0.000000 1.000000 0.000000
vn -0.008717 0.999602 -0.026827
vn -0.012806 0.999602 -0.025133
vn 0.000000 1.000000 0.000000
vn -0.012806 0.999602 -0.025133
vn -0.016580 0.999602 -0.022820
vn 0.000000 1.000000 0.000000
vn -0.016580 0.999602 -0.022820
vn -0.019946 0.999602 -0.019946
vn 0.000000 1.000000 0.000000
vn -0.019946 0.999602 -0.019946
vn -0.022820 0.999602 -0.016580
vn 0.000000 1.000000 0.000000
vn -0.022820 0.999602 -0.016580
vn -0.025133 0.999602 -0.012806
vn 0.000000 1.000000 0.000000
vn -0.025133 0.999602 -0.012806
vn -0.026827 0.999602 -0.008717
vn 0.000000 1.000000 0.000000
vn -0.026827 0.999602 -0.008717
vn -0.027860 0.999602 -0.004413
vn 0.000000 1.000000 0.000000
vn -0.027860 0.999602 -0.004413
vn -0.028208 0.999602 -0.000000
vn 0.000000 1.000000 0.000000
vn -0.028208 0.999602 -0.000000
vn -0.027860 0.999602 0.004413
vn 0.000000 1.000000 0.000000
vn -0.027860 0.999602 0.004413
vn -0.026827 0.999602 0.008717
vn 0.000000 1.000000 0.000000
vn -0.026827 0.999602 0.008717
vn -0.025133 0.999602 0.012806
vn 0.000000 1.000000 0.000000
vn -0.025133 0.999602 0.012806
vn -0.022820 0.999602 0.016580
vn 0.000000 1.000000 0.000000
vn -0.022820 0.999602 0.016580
vn -0.019946 0.999602 0.019946
vn 0.000000 1.000000 0.000000
vn -0.019946 0.999602 0.019946
vn -0.016580 0.999602 0.022820
vn 0.000000 1.000000 0.000000
vn -0.016580 0.999602 0.022820
vn -0.012806 0.999602 0.025133
vn 0.000000 1.000000 0.000000
vn -0.012806 0.999602 0.025133
vn -0.008717 0.999602 0.026827
vn 0.000000 1.000000 0.000000
vn -0.008717 0.999602 0.026827
vn -0.004413 0.999602 0.027860
vn 0.000000 1.000000 0.000000
vn -0.004413 0.999602 0.027860
vn 0.000000 0.999602 0.028208
vn 0.000000 1.000000 0.000000
vn 0.000000 0.999602 0.028208
vn 0.004413 0.999602 0.027860
vn 0.000000 1.000000 0.000000
vn 0.004413 0.999602 0.027860
vn 0.008717 0.999602 0.026827
vn 0.000000 1.000000 0.000000
vn 0.008717 0.999602 0.026827
vn 0.012806 0.999602 0.025133
vn 0.000000 1.000000 0.000000
vn 0.012806 0.999602 0.025133
vn 0.016580 0.999602 0.022820
vn 0.000000 1.000000 0.000000
vn 0.016580 0.999602 0.022820
vn 0.019946 0.999602 0.019946
vn 0.000000 1.000000 0.000000
vn 0.019946 0.999602 0.019946
vn 0.022820 0.999602 0.016580
vn 0.000000 1.000000 0.000000
vn 0.022820 0.999602 0.016580
vn 0.025133 0.999602 0.012806
vn 0.000000 1.000000 0.000000
vn 0.025133 0.999602 0.012806
vn 0.026827 0.999602 0.008717
vn 0.000000 1.000000 0.000000
vn 0.026827 0.999602 0.008717
vn 0.027860 0.999602 0.004413
vn 0.000000 1.000000 0.000000
vn 0.027860 0.999602 0.004413
vn 0.028208 0.999602 0.000000
vn 0.000000 1.000000 0.000000
vn 0.028208 0.999602 0.000000
vn 0.027860 0.999602 -0.004413
vn 0.000000 1.000000 0.000000
vn 0.791399 0.581024 -0.189998
vn 0.791399 0.581024 -0.189998
vn 0.791399 0.581024 -0.189998
vn 0.791399 0.581024 -0.189998
vn 0.751935 0.581022 -0.311461
vn 0.751934 0.581022 -0.311461
vn 0.751934 0.581022 -0.311461
vn 0.751934 0.581022 -0.311461
vn 0.693954 0.581022 -0.425255
vn 0.693954 0.581022 -0.425255
vn 0.693954 0.581022 -0.425255
vn 0.693954 0.581022 -0.425255
vn 0.618885 0.581021 -0.528578
vn 0.618885 0.581021 -0.528578
vn 0.618885 0.581021 -0.528578
vn 0.618885 0.581021 -0.528578
vn 0.528578 0.581022 -0.618885
vn 0.528578 0.581022 -0.618885
vn 0.528578 0.581022 -0.618885
vn 0.528578 0.581022 -0.618885
vn 0.425256 0.581021 -0.693954
vn 0.425256 0.581021 -0.693954
vn 0.425256 0.581021 -0.693954
vn 0.425256 0.581021 -0.693954
vn 0.311462 0.581020 -0.751936
vn 0.311462 0.581020 -0.751936
vn 0.311462 0.581019 -0.751936
vn 0.311462 0.581020 -0.751936
vn 0.189999 0.581018 -0.791403
vn 0.189999 0.581018 -0.791403
vn 0.189999 0.581018 -0.791403
vn 0.189999 0.581018 -0.791403
vn 0.063857 0.581019 -0.811381
vn 0.063857 0.581019 -0.811381
vn 0.063857 0.581019 -0.811381
vn 0.063857 0.581019 -0.811381
vn -0.063857 0.581019 -0.811381
vn -0.063857 0.581019 -0.811381
vn -0.063857 0.581019 -0.811381
vn -0.063857 0.581019 -0.811381
vn -0.189999 0.581017 -0.791403
vn -0.189999 0.581017 -0.791403
vn -0.189999 0.581017 -0.791403
vn -0.189999 0.581017 -0.791403
vn -0.311460 0.581024 -0.751933
vn -0.311460 0.581024 -0.751933
vn -0.311460 0.581024 -0.751933
vn -0.311460 0.581024 -0.751933
vn -0.425253 0.581026 -0.693951
vn -0.425253 0.581026 -0.693951
vn -0.425253 0.581026 -0.693951
vn -0.425253 0.581026 -0.693951
vn -0.528579 0.581021 -0.618886
vn -0.528579 0.581021 -0.618886
vn -0.528579 0.581021 -0.618886
vn -0.528579 0.581021 -0.618886
vn -0.618886 0.581020 -0.528579
vn -0.618886 0.581020 -0.528579
vn -0.618886 0.581020 -0.528579
vn -0.618886 0.581020 -0.528579
vn -0.693953 0.581023 -0.425254
vn -0.693953 0.581023 -0.425254
vn -0.693953 0.581023 -0.425254
vn -0.693953 0.581023 -0.425254
vn -0.751935 0.581020 -0.311463
vn -0.751935 0.581020 -0.311463
vn -0.751935 0.581020 -0.311463
vn -0.751935 0.581020 -0.311463
vn -0.791403 0.581019 -0.189998
vn -0.791403 0.581019 -0.189998
vn -0.791403 0.581019 -0.189998
vn -0.791403 0.581019 -0.189998
vn -0.811383 0.581017 -0.063858
vn -0.811383 0.581017 -0.063858
vn -0.811383 0.581017 -0.063858
vn -0.811382 0.581017 -0.063858
vn -0.811383 0.581016 0.063858
vn -0.811383 0.581016 0.063858
vn -0.811383 0.581016 0.063858
vn -0.811383 0.581016 0.063858
vn -0.791402 0.581019 0.189998
vn -0.791402 0.581019 0.189998
vn -0.791403 0.581019 0.189998
vn -0.791402 0.581019 0.189998
vn -0.751935 0.581020 0.311464
vn -0.751935 0.581020 0.311464
vn -0.751935 0.581020 0.311464
vn -0.751935 0.581020 0.311464
vn -0.693954 0.581023 0.425254
vn -0.693954 0.581023 0.425254
vn -0.693954 0.581023 0.425254
vn -0.693954 0.581023 0.425254
vn -0.618885 0.581023 0.528577
vn -0.618885 0.581023 0.528577
vn -0.618885 0.581023 0.528577
vn -0.618885 0.581023 0.528577
vn -0.528580 0.581019 0.618887
vn -0.528580 0.581019 0.618887
vn -0.528580 0.581019 0.618887
vn -0.528580 0.581019 0.618887
vn -0.425258 0.581015 0.693958
vn -0.425258 0.581015 0.693958
vn -0.425258 0.581015 0.693958
vn -0.425258 0.581015 0.693958
vn -0.311460 0.581030 0.751929
vn -0.311460 0.581030 0.751929
vn -0.311460 0.581030 0.751929
vn -0.311460 0.581030 0.751929
vn -0.189995 0.581030 0.791395
vn -0.189996 0.581030 0.791395
vn -0.189996 0.581030 0.791395
vn -0.189996 0.581030 0.791395
vn -0.063858 0.581033 0.811371
vn -0.063858 0.581033 0.811371
vn -0.063858 0.581033 0.811371
vn -0.063858 0.581033 0.811371
vn 0.063858 0.581034 0.811371
vn 0.063858 0.581034 0.811371
vn 0.063858 0.581034 0.811371
vn 0.063858 0.581034 0.811371
vn 0.189995 0.581032 0.791394
vn 0.189995 0.581032 0.791394
vn 0.189995 0.581032 0.791394
vn 0.189995 0.581032 0.791394
vn 0.311459 0.581032 0.751927
vn 0.311459 0.581032 0.751927
vn 0.311459 0.581032 0.751927
vn 0.311459 0.581032 0.751927
vn 0.425254 0.581022 0.693954
vn 0.425254 0.581022 0.693954
vn 0.425254 0.581022 0.693954
vn 0.425254 0.581022 0.693954
vn 0.528580 0.581022 0.618884
vn 0.528580 0.581022 0.618884
vn 0.528580 0.581022 0.618884
vn 0.528580 0.581022 0.618884
vn 0.618884 0.581024 0.528577
vn 0.618884 0.581024 0.528577
vn 0.618884 0.581024 0.528577
vn 0.618884 0.581024 0.528577
vn 0.693951 0.581025 0.425255
vn 0.693951 0.581025 0.425255
vn 0.693951 0.581025 0.425255
vn 0.693951 0.581025 0.425255
vn 0.751934 0.581023 0.311460
vn 0.751934 0.581023 0.311460
vn 0.751934 0.581023 0.311460
vn 0.751934 0.581023 0.311460
vn 0.791400 0.581021 0.190000
vn 0.791400 0.581021 0.190000
vn 0.791400 0.581021 0.190000
vn 0.791400 0.581021 0.190000
vn 0.811379 0.581022 0.063857
vn 0.811379 0.581022 0.063857
vn 0.811379 0.581022 0.063857
vn 0.811379 0.581022 0.063857
vn 0.811377 0.581025 -0.063854
vn 0.811377 0.581025 -0.063854
vn 0.811377 0.581025 -0.063854
vn 0.811377 0.581025 -0.063854
g Manhole_LOD0 Manhole
usemtl Manhole_LOD0SG
f 41/1/1 42/2/2 43/3/3
f 42/2/4 44/4/5 43/3/6
f 44/4/7 45/5/8 43/3/9
f 45/5/10 46/6/11 43/3/12
f 46/6/13 47/7/14 43/3/15
f 47/7/16 48/8/17 43/3/18
f 48/8/19 49/9/20 43/3/21
f 49/9/22 50/10/23 43/3/24
f 50/10/25 51/11/26 43/3/27
f 51/11/28 52/12/29 43/3/30
f 52/12/31 53/13/32 43/3/33
f 53/13/34 54/14/35 43/3/36
f 54/14/37 55/15/38 43/3/39
f 55/15/40 56/16/41 43/3/42
f 56/16/43 57/17/44 43/3/45
f 57/17/46 58/18/47 43/3/48
f 58/18/49 59/19/50 43/3/51
f 59/19/52 60/20/53 43/3/54
f 60/20/55 61/21/56 43/3/57
f 61/21/58 62/22/59 43/3/60
f 62/22/61 63/23/62 43/3/63
f 63/23/64 64/24/65 43/3/66
f 64/24/67 65/25/68 43/3/69
f 65/25/70 66/26/71 43/3/72
f 66/26/73 67/27/74 43/3/75
f 67/27/76 68/28/77 43/3/78
f 68/28/79 69/29/80 43/3/81
f 69/29/82 70/30/83 43/3/84
f 70/30/85 71/31/86 43/3/87
f 71/31/88 72/32/89 43/3/90
f 72/32/91 73/33/92 43/3/93
f 73/33/94 74/34/95 43/3/96
f 74/34/97 75/35/98 43/3/99
f 75/35/100 76/36/101 43/3/102
f 76/36/103 77/37/104 43/3/105
f 77/37/106 78/38/107 43/3/108
f 78/38/109 79/39/110 43/3/111
f 79/39/112 80/40/113 43/3/114
f 80/40/115 81/41/116 43/3/117
f 81/41/118 41/1/119 43/3/120
f 1/42/121 2/43/122 42/2/123 41/1/124
f 2/43/125 3/44/126 44/4/127 42/2/128
f 3/44/129 4/45/130 45/5/131 44/4/132
f 4/45/133 5/46/134 46/6/135 45/5/136
f 5/46/137 6/47/138 47/7/139 46/6/140
f 6/47/141 7/48/142 48/8/143 47/7/144
f 7/48/145 8/49/146 49/9/147 48/8/148
f 8/49/149 9/50/150 50/10/151 49/9/152
f 9/50/153 10/51/154 51/11/155 50/10/156
f 10/51/157 11/52/158 52/12/159 51/11/160
f 11/52/161 12/53/162 53/13/163 52/12/164
f 12/53/165 13/54/166 54/14/167 53/13/168
f 13/54/169 14/55/170 55/15/171 54/14/172
f 14/55/173 15/56/174 56/16/175 55/15/176
f 15/56/177 16/57/178 57/17/179 56/16/180
f 16/57/181 17/58/182 58/18/183 57/17/184
f 17/58/185 18/59/186 59/19/187 58/18/188
f 18/59/189 19/60/190 60/20/191 59/19/192
f 19/60/193 20/61/194 61/21/195 60/20/196
f 20/61/197 21/62/198 62/22/199 61/21/200
f 21/62/201 22/63/202 63/23/203 62/22/204
f 22/63/205 23/64/206 64/24/207 63/23/208
f 23/64/209 24/65/210 65/25/211 64/24/212
f 24/65/213 25/66/214 66/26/215 65/25/216
f 25/66/217 26/67/218 67/27/219 66/26/220
f 26/67/221 27/68/222 68/28/223 67/27/224
f 27/68/225 28/69/226 69/29/227 68/28/228
f 28/69/229 29/70/230 70/30/231 69/29/232
f 29/70/233 30/71/234 71/31/235 70/30/236
f 30/71/237 31/72/238 72/32/239 71/31/240
f 31/72/241 32/73/242 73/33/243 72/32/244
f 32/73/245 33/74/246 74/34/247 73/33/248
f 33/74/249 34/75/250 75/35/251 74/34/252
f 34/75/253 35/76/254 76/36/255 75/35/256
f 35/76/257 36/77/258 77/37/259 76/36/260
f 36/77/261 37/78/262 78/38/263 77/37/264
f 37/78/265 38/79/266 79/39/267 78/38/268
f 38/79/269 39/80/270 80/40/271 79/39/272
f 39/80/273 40/81/274 81/41/275 80/40/276
f 40/81/277 1/42/278 41/1/279 81/41/280
